<svg width="71" height="158" viewBox="0 0 71 158" fill="none" xmlns="http://www.w3.org/2000/svg">
<g clip-path="url(#clip0_16_761)">
<path d="M43.5 0C43.5 8.81 35.51 8.81 35.51 17.61C35.51 26.41 43.5 26.42 43.5 35.23C43.5 44.04 35.51 44.04 35.51 52.85C35.51 61.66 43.5 61.66 43.5 70.47C43.5 79.28 35.51 79.28 35.51 88.09" stroke="#F39556" stroke-width="2" stroke-miterlimit="10"/>
</g>
<g clip-path="url(#clip1_16_761)">
<path d="M43.5 70C43.5 78.81 35.51 78.81 35.51 87.61C35.51 96.41 43.5 96.42 43.5 105.23C43.5 114.04 35.51 114.04 35.51 122.85C35.51 131.66 43.5 131.66 43.5 140.47C43.5 149.28 35.51 149.28 35.51 158.09" stroke="#F39556" stroke-width="2" stroke-miterlimit="10"/>
</g>
<g clip-path="url(#clip2_16_761)">
<path d="M55.5 0C55.5 8.81 47.51 8.81 47.51 17.61C47.51 26.41 55.5 26.42 55.5 35.23C55.5 44.04 47.51 44.04 47.51 52.85C47.51 61.66 55.5 61.66 55.5 70.47C55.5 79.28 47.51 79.28 47.51 88.09" stroke="#F39556" stroke-width="2" stroke-miterlimit="10"/>
</g>
<g clip-path="url(#clip3_16_761)">
<path d="M55.5 70C55.5 78.81 47.51 78.81 47.51 87.61C47.51 96.41 55.5 96.42 55.5 105.23C55.5 114.04 47.51 114.04 47.51 122.85C47.51 131.66 55.5 131.66 55.5 140.47C55.5 149.28 47.51 149.28 47.51 158.09" stroke="#F39556" stroke-width="2" stroke-miterlimit="10"/>
</g>
<g clip-path="url(#clip4_16_761)">
<path d="M68.5 0C68.5 8.81 60.51 8.81 60.51 17.61C60.51 26.41 68.5 26.42 68.5 35.23C68.5 44.04 60.51 44.04 60.51 52.85C60.51 61.66 68.5 61.66 68.5 70.47C68.5 79.28 60.51 79.28 60.51 88.09" stroke="#F39556" stroke-width="2" stroke-miterlimit="10"/>
</g>
<g clip-path="url(#clip5_16_761)">
<path d="M68.5 70C68.5 78.81 60.51 78.81 60.51 87.61C60.51 96.41 68.5 96.42 68.5 105.23C68.5 114.04 60.51 114.04 60.51 122.85C60.51 131.66 68.5 131.66 68.5 140.47C68.5 149.28 60.51 149.28 60.51 158.09" stroke="#F39556" stroke-width="2" stroke-miterlimit="10"/>
</g>
<path d="M11.2989 45.0823C4.7596 44.2569 -0.743132 49.7596 0.082278 56.2989C0.645349 60.7587 4.24132 64.3547 8.7011 64.9177C15.2404 65.7431 20.7431 60.2404 19.9177 53.7011C19.3547 49.2413 15.7587 45.6453 11.2989 45.0823ZM10.9918 61.936C8.74589 62.2495 6.66636 61.4817 5.1947 60.0868C4.82999 59.7413 4.95796 59.1143 5.44424 58.9799C5.93053 58.8455 6.47441 58.6408 7.02468 58.3336C8.41956 57.5658 9.43693 56.4525 10.0256 55.6846C10.3007 55.3263 10.0512 54.8144 9.60329 54.8144H3.86381C3.38392 54.8144 3.00641 54.3857 3.08319 53.9122C3.60147 50.5594 6.5064 47.9808 10 47.9808C14.1335 47.9808 17.4415 51.5768 16.9616 55.8062C16.6033 58.9287 14.1143 61.4881 10.9982 61.9232L10.9918 61.936Z" fill="#F39556"/>
<path d="M0.082278 13.7011C-0.743132 20.2404 4.7596 25.7431 11.2989 24.9177C15.7587 24.3547 19.3547 20.7587 19.9177 16.2989C20.7431 9.7596 15.2404 4.25687 8.7011 5.08228C4.24132 5.64535 0.645349 9.24132 0.082278 13.7011ZM3.0384 15.819C2.55851 11.5896 5.86655 7.99361 10 7.99361C13.5 7.99361 16.3985 10.5722 16.9168 13.925C16.9872 14.3985 16.6097 14.8272 16.1362 14.8272H10.3967C9.94881 14.8272 9.69927 15.3391 9.97441 15.6974C10.5631 16.4653 11.5804 17.5722 12.9753 18.3464C13.5256 18.6536 14.0631 18.8583 14.5557 18.9927C15.0484 19.1271 15.17 19.7477 14.8053 20.0996C13.3336 21.4945 11.2541 22.2623 9.00823 21.9488C5.89214 21.5137 3.40312 18.9543 3.0448 15.8318L3.0384 15.819Z" fill="#F39556"/>
<path d="M27 27.9942C30.8644 27.9942 34.0058 31.1356 34.0058 35C34.0058 38.8644 30.8644 42.0058 27 42.0058C23.1356 42.0058 19.9942 38.8644 19.9942 35C19.9942 31.1356 23.1356 27.9942 27 27.9942ZM27 25C21.4786 25 17 29.4786 17 35C17 40.5214 21.4786 45 27 45C32.5214 45 37 40.5214 37 35C37 29.4786 32.5214 25 27 25Z" fill="#F39556"/>
<path d="M30.0582 34.8015C31.1074 34.8015 31.8496 35.9148 31.4082 36.8936C30.6404 38.6019 28.9577 39.7919 27 39.7919C25.0422 39.7919 23.3659 38.6083 22.5918 36.8936C22.1503 35.9148 22.8925 34.8015 23.9417 34.8015H30.0518H30.0582Z" fill="#F39556"/>
<defs>
<clipPath id="clip0_16_761">
<rect width="88" height="13" fill="white" transform="translate(46) rotate(90)"/>
</clipPath>
<clipPath id="clip1_16_761">
<rect width="88" height="13" fill="white" transform="translate(46 70) rotate(90)"/>
</clipPath>
<clipPath id="clip2_16_761">
<rect width="88" height="13" fill="white" transform="translate(58) rotate(90)"/>
</clipPath>
<clipPath id="clip3_16_761">
<rect width="88" height="13" fill="white" transform="translate(58 70) rotate(90)"/>
</clipPath>
<clipPath id="clip4_16_761">
<rect width="88" height="13" fill="white" transform="translate(71) rotate(90)"/>
</clipPath>
<clipPath id="clip5_16_761">
<rect width="88" height="13" fill="white" transform="translate(71 70) rotate(90)"/>
</clipPath>
</defs>
</svg>
