<svg width="112" height="98" viewBox="0 0 112 98" fill="none" xmlns="http://www.w3.org/2000/svg">
<path d="M111.953 42.2935C111.906 42.2935 111.859 42.2935 111.805 42.2857C111.766 42.0911 111.735 41.8887 111.696 41.6941C111.649 41.6941 111.602 41.6941 111.548 41.6863C111.555 41.5384 111.563 41.3982 111.579 41.2503C111.532 41.2503 111.485 41.2503 111.431 41.2426C111.4 40.9934 111.368 40.7521 111.337 40.503C111.244 40.4485 111.15 40.394 111.057 40.3395C111.057 40.2461 111.072 40.1449 111.072 40.0515L110.8 39.7401C110.8 39.6467 110.815 39.5455 110.815 39.4521C110.768 39.4521 110.722 39.4521 110.667 39.4443C110.667 39.3509 110.683 39.2497 110.691 39.1563C110.644 39.1563 110.597 39.1563 110.542 39.1485C110.542 39.0551 110.558 38.9539 110.558 38.8605L110.285 38.5491C110.285 38.4557 110.301 38.3545 110.301 38.2611C110.161 38.1521 110.02 38.0509 109.88 37.9419C109.888 37.794 109.903 37.6539 109.911 37.506C109.865 37.506 109.818 37.506 109.763 37.4982C109.724 37.3036 109.693 37.1012 109.654 36.9065C109.607 36.9065 109.561 36.9065 109.506 36.8988C109.514 36.7509 109.522 36.6107 109.537 36.4628C109.444 36.4083 109.35 36.3538 109.257 36.2994C109.257 36.2059 109.272 36.1047 109.272 36.0113C109.226 36.0113 109.179 36.0113 109.124 36.0035C109.124 35.9101 109.14 35.8089 109.148 35.7155C109.101 35.7155 109.054 35.7155 109 35.7077C109 35.6143 109.015 35.5131 109.015 35.4197C108.968 35.4197 108.922 35.4197 108.867 35.4119C108.867 35.3185 108.883 35.2173 108.89 35.1239L108.618 34.8125C108.618 34.7191 108.633 34.6179 108.641 34.5245C108.548 34.47 108.454 34.4155 108.361 34.361C108.283 34.0652 108.205 33.7616 108.127 33.4658C107.807 32.8741 107.067 32.228 106.942 31.4807C106.428 31.3328 105.953 30.9669 105.524 30.8034C104.994 30.601 103.857 30.9202 103.459 30.9591C102.586 30.8969 101.706 30.8424 100.833 30.7801C100.397 30.7489 99.9604 30.7178 99.5162 30.6945C99.5162 30.7412 99.5162 30.7879 99.5084 30.8424C99.2201 30.819 98.924 30.8034 98.6357 30.7801C98.6357 30.8268 98.6357 30.8735 98.6279 30.928C98.4876 30.8657 98.3396 30.8112 98.1993 30.7567C98.1993 30.8034 98.1993 30.8501 98.1915 30.9046C97.8019 30.8813 97.4123 30.8501 97.0227 30.8268C97.0227 30.8735 97.0227 30.9202 97.0149 30.9747C96.1811 31.146 94.9343 30.6633 94.3655 31.0915C94.1706 31.0759 93.9758 31.0681 93.781 31.0525C93.781 31.0058 93.781 30.9591 93.7888 30.9046C93.7421 30.9046 93.6953 30.9046 93.6408 30.8969C93.6641 30.5076 93.6953 30.1184 93.7187 29.7292C93.6719 29.7292 93.6252 29.7292 93.5706 29.7214C93.5862 29.5268 93.594 29.3322 93.6096 29.1375C93.5628 29.1375 93.5161 29.1375 93.4615 29.1298C93.4771 28.9351 93.4849 28.7405 93.5005 28.5459C93.4537 28.5459 93.407 28.5459 93.3524 28.5381C93.368 28.3435 93.3758 28.1489 93.3914 27.9543C93.3447 27.9543 93.2979 27.9543 93.2434 27.9465C93.2122 27.7285 93.407 27.6663 93.407 27.6663C93.3914 27.1758 93.3758 26.6854 93.3602 26.195C93.3135 26.195 93.2667 26.195 93.2122 26.1872C93.2122 26.0938 93.2278 25.9926 93.2356 25.8992C93.1888 25.8992 93.1421 25.8992 93.0875 25.8914L93.2434 25.759C93.2278 25.3153 93.2044 24.8794 93.1888 24.4357C93.142 24.4357 93.0953 24.4357 93.0407 24.4279C93.0407 23.6961 93.0407 22.9644 93.0407 22.2326C92.994 22.2326 92.9472 22.2326 92.8927 22.2248C92.9083 22.0302 92.9161 21.8356 92.9317 21.641C92.8849 21.641 92.8382 21.641 92.7836 21.6332C92.7992 21.3919 92.8148 21.1506 92.8304 20.9015C92.7368 20.847 92.6433 20.7925 92.5498 20.738C92.5732 20.45 92.5888 20.1541 92.6122 19.8661C92.5654 19.8661 92.5187 19.8661 92.4641 19.8583C92.4641 19.7649 92.4797 19.6637 92.4875 19.5703C92.4407 19.5703 92.394 19.5703 92.3394 19.5625C92.3161 19.1733 92.2927 18.7763 92.2693 18.387C92.2225 18.387 92.1758 18.387 92.1212 18.3793C92.129 18.2314 92.1446 18.0912 92.1524 17.9433C92.1057 17.9433 92.0589 17.9433 92.0044 17.9355C92.0044 17.8421 92.0199 17.7409 92.0277 17.6475C91.981 17.6475 91.9342 17.6475 91.8797 17.6397C91.9264 17.4373 91.9654 17.6942 92.0355 17.5074C91.9966 17.305 91.9576 17.5541 91.9031 17.3517C91.9109 17.2038 91.9264 17.0637 91.9342 16.9158C91.8875 16.9158 91.8407 16.9158 91.7862 16.908C91.7862 16.8146 91.8018 16.7134 91.8096 16.6199C91.7628 16.6199 91.716 16.6199 91.6615 16.6122C91.6849 16.2696 91.7083 15.9349 91.7316 15.5924C91.6849 15.5924 91.6381 15.5924 91.5836 15.5846C91.5992 15.39 91.6069 15.1954 91.6225 15.0008C91.5758 15.0008 91.529 15.0008 91.4745 14.993C91.4901 14.7049 91.5134 14.4091 91.5368 14.1211C91.4901 14.1211 91.4433 14.1211 91.3888 14.1133C91.4043 13.9187 91.4121 13.7241 91.4277 13.5295C91.381 13.5295 91.3342 13.5295 91.2797 13.5217C91.2641 12.9846 91.2563 12.4474 91.2407 11.9103C91.1939 11.9103 91.1472 11.9103 91.0927 11.9025C91.1004 11.7546 91.116 11.6145 91.1238 11.4666C91.0771 11.4666 91.0303 11.4666 90.9758 11.4588C90.968 10.8749 90.9602 10.2833 90.9446 9.69946C90.8978 9.69946 90.8511 9.69946 90.7965 9.69168C90.8043 9.54377 90.8121 9.40365 90.8277 9.25574C90.781 9.25574 90.7342 9.25574 90.6797 9.24796C90.6563 8.85873 90.6329 8.46171 90.6095 8.07248C90.5628 8.07248 90.516 8.07248 90.4615 8.0647C90.4615 7.97129 90.4771 7.87009 90.4848 7.77667C90.4381 7.77667 90.3913 7.77667 90.3368 7.76889C90.2589 6.68683 90.1887 5.61256 90.1108 4.5305C90.0641 4.5305 90.0173 4.5305 89.9628 4.52272C89.9628 4.4293 89.9783 4.32811 89.9861 4.23469C89.8926 4.1802 89.7991 4.12571 89.7056 4.07121C89.7134 3.92331 89.729 3.78319 89.7368 3.63528C89.7134 3.58079 89.5342 3.49516 89.464 3.3239C88.9809 3.24605 88.4978 3.16042 88.0147 3.08257C87.8666 3.1215 87.7185 3.16042 87.5705 3.19934C87.5705 3.15263 87.5705 3.10593 87.5783 3.05143C87.251 2.9658 87.1575 3.19934 86.9861 3.16042C86.9861 3.11371 86.9861 3.067 86.9939 3.01251C85.5367 2.91131 84.0717 2.8179 82.6145 2.7167C82.6145 2.66999 82.6145 2.62328 82.6223 2.56879C82.521 2.60771 82.4197 2.65442 82.3184 2.69334C82.3184 2.64664 82.3184 2.59993 82.3262 2.54544C81.6483 2.49873 80.9625 2.45202 80.2846 2.40532C80.2846 2.45202 80.2846 2.49873 80.2768 2.55322C80.1366 2.49095 79.9885 2.43645 79.8482 2.38196C79.8482 2.42867 79.8482 2.47538 79.8404 2.52987C79.6456 2.5143 79.4508 2.50651 79.256 2.49095C79.256 2.44424 79.256 2.39753 79.2638 2.34304C79.0534 2.33525 79.3184 2.47538 79.108 2.47538C78.9677 2.4131 78.8196 2.35861 78.6794 2.30412C78.6794 2.35082 78.6794 2.39753 78.6716 2.45202C78.1339 2.4131 77.604 2.38196 77.0664 2.34304C77.0664 2.29633 77.0664 2.24962 77.0741 2.19513C76.2949 2.14064 75.5157 2.09393 74.7364 2.03944C73.8247 1.78255 69.0324 1.62686 68.3077 1.7592C67.7233 1.72027 67.1388 1.68135 66.5544 1.64243C66.4531 1.68135 66.3518 1.72806 66.2505 1.76698C66.2505 1.72027 66.2505 1.67357 66.2583 1.61907C65.9154 1.59572 65.5804 1.57237 65.2375 1.54901C65.2375 1.59572 65.2375 1.64243 65.2297 1.69692C65.1362 1.64243 65.0427 1.58794 64.9492 1.53344C64.9492 1.58015 64.9492 1.62686 64.9414 1.68135C64.8011 1.61907 64.6531 1.56458 64.5128 1.51009C64.2245 1.48674 63.9284 1.47117 63.6401 1.44781C63.6401 1.49452 63.6401 1.54123 63.6323 1.59572C63.4375 1.53344 63.2504 1.47117 63.0556 1.40889C63.0556 1.4556 63.0556 1.5023 63.0478 1.5568C61.4037 1.29991 59.7595 1.04301 58.1153 0.786124C57.11 0.965169 55.536 0.76277 54.3126 0.67714C53.923 0.653786 53.5333 0.622648 53.1437 0.599294C53.1437 0.646002 53.1437 0.692709 53.1359 0.747201C53.0892 0.747201 53.0424 0.747201 52.9879 0.739416C52.9879 0.692709 52.9879 0.646002 52.9957 0.59151C52.6762 0.529233 52.5671 0.731632 52.4034 0.700494C52.4034 0.653786 52.4034 0.607079 52.4112 0.552587C51.6787 0.505879 50.9541 0.451387 50.2216 0.40468C50.2216 0.357972 50.2216 0.311265 50.2294 0.256773C50.1826 0.256773 50.1358 0.256773 50.0813 0.248988C50.0813 0.295696 50.0813 0.342403 50.0735 0.396895C49.98 0.396895 49.8787 0.381326 49.7852 0.373541C49.7852 0.420249 49.7852 0.466956 49.7774 0.521448C49.341 0.49031 48.9047 0.459172 48.4605 0.435818C48.4605 0.482526 48.4605 0.529233 48.4527 0.583725C47.7202 0.537018 46.9955 0.482526 46.263 0.435818C46.263 0.482526 46.263 0.529233 46.2552 0.583725C45.5773 0.537018 44.8916 0.49031 44.2136 0.443603C44.2136 0.49031 44.2136 0.537018 44.2058 0.59151L44.0734 0.435818C44.0266 0.435818 43.9799 0.435818 43.9253 0.428034C43.9253 0.474741 43.9253 0.521448 43.9175 0.57594C43.7227 0.560371 43.5279 0.552587 43.3331 0.537018C43.3331 0.49031 43.3331 0.443603 43.3409 0.389111C43.1305 0.396895 43.3876 0.498095 43.185 0.521448C42.8422 0.498095 42.5071 0.474741 42.1642 0.451387C42.1642 0.498095 42.1642 0.544802 42.1564 0.599294C42.0629 0.544802 41.9694 0.49031 41.8759 0.435818C41.8759 0.482526 41.8759 0.529233 41.8681 0.583725C41.2837 0.59151 40.6915 0.599294 40.107 0.614863C40.107 0.661571 40.107 0.708278 40.0993 0.76277C39.9044 0.747201 39.7096 0.739417 39.5148 0.723847C39.5148 0.770555 39.5148 0.817262 39.507 0.871754C39.1174 0.8484 38.7278 0.817262 38.3382 0.793908C38.3382 0.840616 38.3382 0.887323 38.3304 0.941815C37.9875 0.918462 37.6524 0.895108 37.3096 0.871754C37.3096 0.918462 37.3096 0.965169 37.3018 1.01966C37.1615 0.965169 37.0135 0.902893 36.8732 0.848401C36.8732 0.895108 36.8732 0.941815 36.8654 0.996307C35.7901 0.972954 34.7147 0.9496 33.6472 0.926246C33.6472 0.972954 33.6472 1.01966 33.6394 1.07415C33.4913 1.06637 33.351 1.05858 33.203 1.04301C33.203 0.996307 33.203 0.9496 33.2108 0.895108L33.0549 1.02745C33.0082 1.02745 32.9614 1.02745 32.9069 1.01966C32.9069 0.972954 32.9069 0.926246 32.9147 0.871754C32.5718 0.895108 32.2289 0.926246 31.8861 0.9496C31.4965 0.926246 31.1068 0.895108 30.7172 0.871754C29.2522 1.18314 27.3743 1.04301 25.8548 1.27655C25.5275 1.33104 25.4262 1.10529 25.4262 1.10529C25.0366 1.12865 24.6392 1.152 24.2495 1.17535C24.2495 1.12865 24.2495 1.08194 24.2573 1.02745C24.2106 1.02745 24.1638 1.02745 24.1093 1.01966C24.1093 1.06637 24.1093 1.11308 24.1015 1.16757C23.4235 1.12086 22.7378 1.07415 22.0599 1.02745C22.0599 1.07415 22.0599 1.12086 22.0521 1.17535C21.8105 1.11308 21.569 1.04301 21.3352 0.980738C20.7274 1.01188 19.3559 1.22206 18.5533 0.941815C18.5533 0.895108 18.5533 0.8484 18.5611 0.793908C18.2728 0.770555 17.9767 0.754986 17.6883 0.731632C17.439 0.76277 17.1974 0.793908 16.9481 0.825047C16.9481 0.778339 16.9481 0.731632 16.9559 0.67714C16.4182 0.638217 15.8883 0.607079 15.3506 0.568156C15.3506 0.614863 15.3506 0.661571 15.3428 0.716063C15.2961 0.716063 15.2493 0.716063 15.1948 0.708278C15 0.692709 14.961 0.537018 14.6181 0.521448C14.4233 0.560371 14.2207 0.59151 14.0259 0.630432C14.0259 0.583725 14.0259 0.537018 14.0337 0.482526C13.7921 0.466956 13.5506 0.451387 13.3012 0.435818C13.3012 0.389111 13.3012 0.342403 13.309 0.287911C13.0363 0.202281 13.0908 0.381326 13.0051 0.412464C12.9116 0.357972 12.8181 0.30348 12.7246 0.248988C12.7246 0.295696 12.7246 0.342403 12.7168 0.396895C12.67 0.396895 12.6233 0.396895 12.5687 0.389111C12.5687 0.342403 12.5687 0.295696 12.5765 0.241204C12.2337 0.21785 11.8986 0.194496 11.5557 0.171143C11.4466 0.311265 11.3453 0.451387 11.2362 0.59151C11.0882 0.583725 10.9479 0.57594 10.7999 0.560371C10.4882 2.50651 10.1219 4.25804 9.54529 6.18862C9.57646 6.48443 9.59984 6.78025 9.63101 7.07606C9.58426 7.07606 9.5375 7.07606 9.48296 7.06827L9.61543 7.22397C9.61543 7.22397 9.41282 8.43058 9.38165 8.52399C9.3349 8.52399 9.28815 8.52399 9.2336 8.51621C9.19464 9.14676 9.14788 9.77731 9.10892 10.4079C9.06217 10.4079 9.01541 10.4079 8.96087 10.4001C8.9297 10.8827 8.89853 11.3731 8.85956 11.8558C8.81281 11.8558 8.76606 11.8558 8.71151 11.848C8.60242 12.1438 8.78943 12.8756 8.78943 12.8756C8.74268 12.8756 8.69592 12.8756 8.64138 12.8678C8.57125 13.1558 8.50891 13.4438 8.43878 13.7319C8.39202 13.7319 8.34527 13.7319 8.29072 13.7241C8.26734 14.0666 8.24397 14.4013 8.22059 14.7439C8.17383 14.7439 8.12708 14.7439 8.07253 14.7361C8.05695 14.9774 8.04136 15.2187 8.02578 15.4678C7.97902 15.4678 7.93227 15.4678 7.87772 15.46C7.86214 15.7014 7.84655 15.9427 7.83097 16.1918C7.78421 16.1918 7.73746 16.1918 7.68291 16.184C7.55824 18.0757 7.42576 19.9751 7.30109 21.8668C7.25433 21.8668 7.20758 21.8668 7.15303 21.859C7.14524 22.0614 7.37122 22.1081 7.26212 22.4506C7.21537 22.4506 7.16862 22.4506 7.11407 22.4428C7.01277 23.1668 6.91926 23.8907 6.81796 24.6225C6.7712 24.6225 6.72445 24.6225 6.6699 24.6147C6.63873 25.0973 6.60756 25.5878 6.5686 26.0704C6.52185 26.0704 6.47509 26.0704 6.42055 26.0626C6.45951 26.2105 6.49847 26.3584 6.53743 26.5064C6.49068 26.5064 6.44392 26.5064 6.38938 26.4986C6.28808 27.2225 6.19457 27.9465 6.09327 28.6783C6.04651 28.6783 5.99976 28.6783 5.94521 28.6705C5.90625 29.2543 5.86729 29.8382 5.82833 30.422C5.78157 30.422 5.73482 30.422 5.68027 30.4142L5.81274 30.5699C5.78157 30.7723 5.72702 30.5076 5.65689 30.7022C5.63352 31.0448 5.61014 31.3795 5.58676 31.722C5.54001 31.722 5.49325 31.722 5.43871 31.7142C5.43091 31.8621 5.42312 32.0023 5.40754 32.1502C5.45429 32.1502 5.50104 32.1502 5.55559 32.158C5.56338 32.4771 5.39195 32.4382 5.39195 32.4382C5.37637 32.6795 5.36078 32.9208 5.3452 33.17C5.29844 33.17 5.25169 33.1699 5.19714 33.1622C5.16597 33.5981 5.1348 34.034 5.11143 34.4778C5.06467 34.4778 5.01792 34.4778 4.96337 34.47C4.93999 34.8125 4.91662 35.1472 4.89324 35.4898C4.84648 35.4898 4.79973 35.4898 4.74518 35.482C4.72181 35.8712 4.69064 36.2604 4.66726 36.6497C4.4179 37.3269 4.59713 38.5491 4.33219 39.4132C4.28543 39.4132 4.23868 39.4132 4.18413 39.4054C4.2153 39.6545 4.24647 39.8958 4.27764 40.1449C4.23089 40.1449 4.18413 40.1449 4.12958 40.1371C4.09062 40.7677 4.04387 41.3982 4.00491 42.0288C3.95815 42.0288 3.9114 42.0288 3.85685 42.021C3.84127 42.2156 3.83347 42.4102 3.81789 42.6049C3.77113 42.6049 3.72438 42.6049 3.66983 42.5971C3.7088 42.745 3.74776 42.8929 3.78672 43.0408C3.73996 43.0408 3.69321 43.0408 3.63866 43.033C3.61529 43.321 3.5997 43.6169 3.57632 43.9049C3.52957 43.9049 3.48282 43.9049 3.42827 43.8971C3.38152 44.6288 3.32697 45.3528 3.28021 46.0846C3.23346 46.0846 3.18671 46.0846 3.13216 46.0768C3.11657 46.2714 3.10878 46.466 3.0932 46.6606C3.04644 46.6606 2.99969 46.6606 2.94514 46.6528L3.07761 46.8085C3.07761 46.8552 3.07761 46.9019 3.06982 46.9564C3.02307 46.9564 2.97631 46.9564 2.92176 46.9486C2.89839 47.2367 2.8828 47.5325 2.85942 47.8205C2.81267 47.8205 2.76592 47.8205 2.71137 47.8127C2.68799 48.1553 2.66462 48.49 2.64124 48.8325C2.59448 48.8325 2.54773 48.8325 2.49318 48.8247C2.4776 49.0661 2.46201 49.3074 2.44643 49.5565C2.39967 49.5565 2.35292 49.5565 2.29837 49.5487C2.28279 49.7433 2.275 49.9379 2.25941 50.1325C2.21266 50.1325 2.1659 50.1325 2.11136 50.1248C2.08798 50.4128 2.07239 50.7086 2.04902 50.9966C2.00226 50.9966 1.95551 50.9966 1.90096 50.9888C1.82304 52.2032 1.73732 53.4176 1.6594 54.632C1.69836 54.7332 1.74511 54.8344 1.78408 54.9356C1.73732 54.9356 1.69057 54.9356 1.63602 54.9278C1.63602 54.9745 1.63602 55.0213 1.62823 55.0757C1.67498 55.0757 1.72174 55.0757 1.77628 55.0835C1.73732 55.7141 1.69057 56.3446 1.6516 56.9752C1.60485 56.9752 1.5581 56.9752 1.50355 56.9674C1.48796 57.2554 1.46459 57.5512 1.44121 57.8393C1.39446 57.8393 1.3477 57.8393 1.29315 57.8315C1.26198 58.3141 1.23082 58.8046 1.19185 59.2872C1.1451 59.2872 1.09834 59.2872 1.0438 59.2794C0.926912 59.6219 1.16068 59.9177 1.13731 60.0189C1.09055 60.0189 1.0438 60.0189 0.989251 60.0112C0.965874 60.4004 0.934705 60.7896 0.911327 61.1788C0.864573 61.1788 0.817819 61.1788 0.763272 61.1711C0.654179 62.0429 0.545085 62.9148 0.443784 63.7867C0.443784 63.7867 0.654179 63.9268 0.56067 64.2304C0.513916 64.2304 0.467161 64.2304 0.412615 64.2226C0.39703 64.4172 0.389237 64.6118 0.373653 64.8065C0.326898 64.8065 0.280144 64.8065 0.225597 64.7987C0.210012 65.04 0.194428 65.2813 0.178843 65.5304C0.225597 65.5304 0.272352 65.5304 0.326898 65.5382C0.326898 65.5849 0.326898 65.6316 0.319106 65.6861C0.272352 65.6861 0.225597 65.6861 0.17105 65.6783C-0.0159669 66.4334 0.303521 67.8191 -0.148438 68.294C-0.109476 68.761 -0.12506 68.6443 0.100919 68.8934C0.100919 68.9401 0.100919 68.9868 0.0931266 69.0413C0.186635 69.0413 0.287936 69.0568 0.381445 69.0568C0.467161 69.2125 0.552878 69.3604 0.646386 69.5161C0.693141 69.5161 0.739895 69.5161 0.794442 69.5239C0.911327 70.0221 1.02042 70.5126 1.13731 71.0108C1.18406 71.0108 1.23082 71.0108 1.28536 71.0186C1.31653 71.2677 1.3477 71.509 1.37887 71.7581C1.42563 71.7581 1.47238 71.7581 1.52693 71.7659C1.56589 71.9605 1.59706 72.1629 1.63602 72.3575C1.72953 72.412 1.82304 72.4665 1.91655 72.521C1.99447 72.8713 2.0646 73.2138 2.14252 73.5641C2.23603 73.5641 2.33733 73.5797 2.43084 73.5875C2.46201 73.8366 2.49318 74.0779 2.52435 74.327C2.57111 74.327 2.61786 74.327 2.67241 74.3348C2.66462 74.4827 2.64903 74.6228 2.64124 74.7707C2.73475 74.8252 2.82826 74.8797 2.92176 74.9342C2.95293 75.23 2.97631 75.5258 3.00748 75.8216C3.10099 75.8761 3.1945 75.9306 3.28801 75.9851C3.27242 76.1797 3.26463 76.3743 3.24904 76.569C3.2958 76.569 3.34255 76.569 3.3971 76.5767C3.38931 76.7246 3.37372 76.8648 3.36593 77.0127C3.41268 77.0127 3.45944 77.0127 3.51399 77.0205C3.50619 77.1684 3.4984 77.3085 3.48282 77.4564C3.52957 77.4564 3.57632 77.4564 3.63087 77.4642C3.62308 77.6121 3.60749 77.7522 3.5997 77.9001C3.64646 77.9001 3.69321 77.9001 3.74776 77.9079C3.77113 78.2504 3.8023 78.5929 3.82568 78.9355C3.87244 78.9355 3.91919 78.9355 3.97374 78.9433C3.95815 79.1379 3.95036 79.3325 3.93477 79.5271C3.98153 79.5271 4.02828 79.5271 4.08283 79.5349C4.08283 79.6283 4.06725 79.7295 4.06725 79.8229C4.114 79.8229 4.16075 79.8229 4.2153 79.8307C4.19972 80.072 4.18413 80.3133 4.16855 80.5624C4.2153 80.5624 4.26205 80.5624 4.3166 80.5702C4.30881 80.7181 4.29322 80.8582 4.28543 81.0062C4.33219 81.0062 4.37894 81.0062 4.43349 81.0139C4.43349 81.1074 4.4179 81.2086 4.4179 81.302C4.46466 81.302 4.51141 81.302 4.56596 81.3098C4.59713 81.6056 4.6205 81.9014 4.65167 82.1972C4.69843 82.1972 4.74518 82.1972 4.79973 82.205C4.79973 82.2984 4.78415 82.3996 4.77635 82.493C4.82311 82.493 4.86986 82.493 4.92441 82.5008C4.94779 82.8433 4.97895 83.1858 5.00233 83.5284C5.04909 83.5284 5.09584 83.5284 5.15039 83.5361C5.15039 83.6296 5.1348 83.7308 5.12701 83.8242C5.22052 83.8787 5.31403 83.9332 5.40754 83.9876C5.43871 84.2835 5.46208 84.5793 5.49325 84.8751C5.58676 84.9296 5.68027 84.9841 5.77378 85.0386C5.76599 85.1865 5.7504 85.3266 5.74261 85.4745C5.83612 85.529 5.92963 85.5835 6.02314 85.638C6.14002 86.0817 6.25691 86.5332 6.37379 86.9769C6.4673 87.0314 6.56081 87.0859 6.65432 87.1404C6.65432 87.2338 6.63873 87.335 6.63094 87.4284L6.90367 87.7398C6.90367 87.8332 6.88809 87.9344 6.8803 88.0278C6.92705 88.0278 6.97381 88.0278 7.02835 88.0356C7.02835 88.129 7.01277 88.2302 7.00498 88.3237C7.05173 88.3237 7.09848 88.3237 7.15303 88.3314C7.15303 88.4249 7.13745 88.5261 7.12965 88.6195C7.22316 88.674 7.31667 88.7285 7.41018 88.783C7.41018 88.8764 7.39459 88.9776 7.3868 89.071C7.43356 89.071 7.48031 89.071 7.53486 89.0788C7.53486 89.1722 7.51927 89.2734 7.51148 89.3668C7.60499 89.4213 7.6985 89.4758 7.79201 89.5303C7.82318 89.7794 7.85435 90.0207 7.88552 90.2698C7.97902 90.3243 8.07253 90.3788 8.16604 90.4333C8.15825 90.5812 8.14266 90.7213 8.13487 90.8692C8.18163 90.8692 8.22838 90.8692 8.28293 90.877C8.28293 90.9704 8.26734 91.0716 8.26734 91.165C8.3141 91.165 8.36085 91.165 8.4154 91.1728C8.40761 91.3207 8.39202 91.4608 8.38423 91.6087C8.43098 91.6087 8.47774 91.6087 8.53228 91.6165C8.52449 91.7644 8.5167 91.9046 8.50111 92.0525C8.64138 92.1615 8.78164 92.2627 8.9219 92.3716C8.91411 92.5195 8.89853 92.6597 8.89073 92.8076C8.93749 92.8076 8.98424 92.8076 9.03879 92.8154C9.03879 92.9088 9.0232 93.01 9.0232 93.1034C9.06996 93.1034 9.11671 93.1034 9.17126 93.1112C9.24918 93.407 9.32711 93.7106 9.40503 94.0064C9.45179 94.0064 9.49854 94.0064 9.55309 94.0142C9.58426 94.31 9.60763 94.6058 9.6388 94.9016C9.68556 94.9016 9.73231 94.9016 9.78686 94.9094C9.86478 95.2052 9.94271 95.5088 10.0206 95.8046C10.0674 95.8046 10.1141 95.8046 10.1687 95.8124C10.1531 96.007 10.1453 96.2016 10.1297 96.3963C10.1765 96.3963 10.2232 96.3963 10.2778 96.404C10.2778 96.4975 10.2622 96.5987 10.2544 96.6921C10.3012 96.6921 10.3479 96.6921 10.4025 96.6999C10.3869 96.9412 10.3713 97.1825 10.3557 97.4316C10.3557 97.4316 10.5739 97.6029 10.6284 97.743C11.0648 97.7741 11.5012 97.8053 11.9454 97.8286C11.9454 97.7819 11.9454 97.7352 11.9531 97.6807C12.148 97.6418 12.3506 97.6106 12.5454 97.5717C12.5454 97.6184 12.5454 97.6651 12.5376 97.7196C12.8259 97.743 13.122 97.7586 13.4103 97.7819C13.4103 97.8286 13.4103 97.8753 13.4025 97.9298C13.6986 97.8987 13.9948 97.8753 14.2909 97.8442C14.2909 97.8909 14.2909 97.9376 14.2831 97.9921C14.7272 97.9765 15.1636 97.9532 15.6078 97.9376C15.6078 97.9843 15.6078 98.031 15.6 98.0855C15.9195 98.1711 16.0441 97.9687 16.0441 97.9687C16.8701 98.0232 17.6961 98.0777 18.5221 98.1322C18.5221 98.0855 18.5221 98.0388 18.5299 97.9843C18.8182 98.0077 19.1143 98.0232 19.4027 98.0466C19.4027 97.9999 19.4027 97.9532 19.4105 97.8987C19.5585 97.9065 19.6988 97.922 19.8468 97.9298C19.8468 97.8831 19.8468 97.8364 19.8546 97.7819C20.0494 97.7975 20.2442 97.8053 20.4391 97.8208C20.4391 97.7741 20.4391 97.7274 20.4468 97.6729C20.6884 97.6885 20.93 97.7041 21.1793 97.7196C21.1793 97.6729 21.1793 97.6262 21.1871 97.5717C21.4754 97.5951 21.7716 97.6107 22.0599 97.634C22.0599 97.5873 22.0599 97.5406 22.0677 97.4861C22.1144 97.4861 22.1612 97.4861 22.2157 97.4939C22.2157 97.5406 22.2157 97.5873 22.2079 97.6418L22.3638 97.5095C22.4105 97.5095 22.4573 97.5095 22.5118 97.5172C22.5118 97.5639 22.5118 97.6107 22.504 97.6651C22.5508 97.6651 22.5975 97.6651 22.6521 97.6729C22.6521 97.6262 22.6521 97.5795 22.6599 97.525C22.7534 97.525 22.8547 97.5406 22.9482 97.5484C22.9482 97.5017 22.9482 97.455 22.956 97.4005C23.1586 97.4472 23.4313 97.6885 23.821 97.6029C23.821 97.5562 23.821 97.5095 23.8287 97.455C24.9508 97.4783 26.073 97.5095 27.1951 97.5328C27.1951 97.4861 27.1951 97.4394 27.2028 97.3849C27.9821 97.3849 28.7691 97.3849 29.5484 97.3927C30.0315 97.4238 30.5224 97.455 31.0055 97.4939C32.377 97.1981 34.0679 97.2136 35.4394 96.91C35.8758 96.9412 36.3121 96.9723 36.7563 96.9957C36.7563 96.949 36.7563 96.9023 36.7641 96.8478C37.2472 96.8789 37.7382 96.91 38.2213 96.949C38.2213 96.9023 38.2213 96.8556 38.2291 96.8011C38.8135 96.84 39.3979 96.8789 39.9824 96.9178C39.9824 96.8711 39.9824 96.8244 39.9902 96.7699C40.4733 96.8478 40.9564 96.9334 41.4395 97.0112C41.4395 97.0112 41.4395 96.8244 41.7434 96.8867C41.7434 96.8867 41.7824 97.0735 42.024 97.0502C42.024 97.0502 42.0785 96.8711 42.3279 96.9256C42.3279 96.9256 42.3824 97.1202 42.6084 97.0891C42.6084 97.0891 42.6863 96.9567 42.9123 96.9645C43.0526 97.019 43.2006 97.0813 43.3409 97.1358C43.3409 97.0891 43.3409 97.0424 43.3487 96.9879C44.5643 97.019 45.7877 97.0502 47.0033 97.0891C47.0033 97.0424 47.0033 96.9957 47.0111 96.9412C47.3929 97.019 47.7825 97.0891 48.1722 97.1669C48.1722 97.1202 48.1722 97.0735 48.18 97.019L48.3124 97.1747C48.4137 97.1358 48.515 97.0891 48.6163 97.0502C48.6397 97.0502 48.6553 97.2448 48.8969 97.2136C48.8969 97.2136 48.9982 97.0112 49.341 97.0969C49.341 97.1436 49.341 97.1903 49.3332 97.2448C49.6371 97.2993 49.6371 97.1202 49.6371 97.1202C50.0735 97.1514 50.5099 97.1825 50.9541 97.2059C50.9541 97.1591 50.9541 97.1124 50.9618 97.058C51.1021 97.1124 51.2502 97.1747 51.3904 97.2292C51.3904 97.1825 51.3904 97.1358 51.3982 97.0813C52.0372 97.0813 52.6684 97.0657 53.3074 97.0657C53.3074 97.019 53.3074 96.9723 53.3151 96.9178C53.4632 96.9256 53.6035 96.9334 53.7515 96.949C53.7515 96.9023 53.7515 96.8556 53.7593 96.8011C53.8061 96.8011 53.8528 96.8011 53.9074 96.8088C53.9074 96.8556 53.9074 96.9023 53.8996 96.9568C53.9463 96.9568 53.9931 96.9567 54.0476 96.9645C54.0476 96.9178 54.0476 96.8711 54.0554 96.8166C54.4918 96.8478 54.9282 96.8789 55.3723 96.9023C55.3723 96.8556 55.3723 96.8088 55.3801 96.7543C55.9646 96.7933 56.549 96.8322 57.1334 96.8711C57.1334 96.8244 57.1334 96.7777 57.1412 96.7232C57.4841 96.7466 57.8191 96.7699 58.162 96.7933C58.162 96.7466 58.162 96.6999 58.1698 96.6454C58.6529 96.6765 59.1439 96.7076 59.627 96.7466C59.627 96.6999 59.627 96.6532 59.6348 96.5987C59.775 96.6532 59.9231 96.7154 60.0634 96.7699C60.0634 96.7232 60.0634 96.6765 60.0711 96.622C61.4816 96.7154 62.892 96.8088 64.3024 96.9023C64.3024 96.8556 64.3024 96.8088 64.3102 96.7543C64.8946 96.7933 65.4791 96.8322 66.0635 96.8711C66.2583 96.9334 65.9934 97.0424 66.196 97.0268C66.196 96.9801 66.196 96.9334 66.2038 96.8789C66.7414 96.9178 67.2713 96.949 67.809 96.9879C68.0038 97.0502 68.1908 97.1124 68.3856 97.1747C68.3856 97.128 68.3856 97.0813 68.3934 97.0268C69.2194 97.0813 70.0454 97.1358 70.8714 97.1903C70.8714 97.1436 70.8714 97.0969 70.8792 97.0424C71.2065 96.9879 71.3078 97.2136 71.3078 97.2136C71.4558 97.1747 71.6039 97.1358 71.7519 97.0969C71.7831 97.0969 71.7909 97.2915 72.0325 97.2604C72.0325 97.2136 72.0325 97.1669 72.0403 97.1124C72.087 97.1124 72.1338 97.1124 72.1883 97.1202C72.2818 97.1747 72.3753 97.2292 72.4688 97.2837C72.4688 97.2837 72.5935 97.0813 72.913 97.1669C72.913 97.2136 72.913 97.2604 72.9052 97.3148C73.0065 97.2759 73.1078 97.2292 73.2091 97.1903C73.3494 97.2448 73.4974 97.3071 73.6377 97.3615C73.6377 97.3148 73.6377 97.2681 73.6455 97.2136C73.7858 97.2681 73.9338 97.3304 74.0741 97.3849C74.0741 97.3382 74.0741 97.2915 74.0819 97.237C74.2767 97.2526 74.4715 97.2603 74.6663 97.2759C74.6663 97.3226 74.6663 97.3693 74.6585 97.4238C75.017 97.4083 75.7027 97.2603 76.2715 97.3849C76.365 97.4394 76.4585 97.4939 76.552 97.5484C76.552 97.5017 76.5521 97.455 76.5598 97.4005C78.3131 97.4705 80.0664 97.5406 81.8197 97.6029C81.8197 97.5562 81.8197 97.5095 81.8275 97.455C82.3184 97.4394 82.8093 97.4238 83.3003 97.4083C83.3003 97.455 83.3003 97.5017 83.2925 97.5562C83.534 97.5717 83.7756 97.5873 84.025 97.6029C84.2042 97.525 85.0769 95.7735 85.1938 95.4855C85.2172 95.1429 85.2406 94.8082 85.2639 94.4657C85.3652 94.4268 85.4665 94.3801 85.5678 94.3411C85.638 94.0064 85.7081 93.6639 85.7782 93.3291C85.825 93.3291 85.8717 93.3291 85.9263 93.3369C85.9341 93.189 85.9419 93.0489 85.9575 92.901C86.0042 92.901 86.051 92.901 86.1055 92.9088C86.1834 92.5195 86.2536 92.1381 86.3315 91.7489C86.3783 91.7489 86.425 91.7489 86.4796 91.7567C86.4796 91.6632 86.4951 91.562 86.5029 91.4686C86.5497 91.4686 86.5964 91.4686 86.651 91.4764C86.6588 91.3285 86.6744 91.1884 86.6822 91.0405C86.7289 91.0405 86.7757 91.0405 86.8302 91.0483C86.8458 90.8536 86.8536 90.659 86.8692 90.4644C86.9159 90.4644 86.9627 90.4644 87.0172 90.4722C87.0328 90.2776 87.0406 90.083 87.0562 89.8884C87.103 89.8884 87.1497 89.8884 87.2043 89.8961C87.29 89.3668 87.3757 88.8374 87.4614 88.3003C87.5081 88.3003 87.5549 88.3003 87.6095 88.3081C87.6095 88.2147 87.625 88.1135 87.6328 88.0201C87.6796 88.0201 87.7263 88.0201 87.7809 88.0278C87.7965 87.8332 87.8043 87.6386 87.8198 87.444C87.8666 87.444 87.9134 87.444 87.9679 87.4518C87.9757 87.3039 87.9913 87.1638 87.9991 87.0158C88.0458 87.0158 88.0926 87.0159 88.1471 87.0236C88.2251 86.6344 88.2952 86.253 88.3731 85.8637C88.4199 85.8637 88.4666 85.8637 88.5212 85.8715C88.529 85.7236 88.5445 85.5835 88.5523 85.4356C88.5991 85.4356 88.6458 85.4356 88.7004 85.4434C88.7627 85.202 88.8329 84.9607 88.8952 84.7272C88.942 84.7272 88.9887 84.7272 89.0433 84.735C89.0433 84.6416 89.0588 84.5404 89.0666 84.4469C89.1134 84.4469 89.1601 84.4469 89.2147 84.4547C89.464 83.5906 89.7212 82.7343 89.9706 81.8702C90.0173 81.8702 90.0641 81.8702 90.1186 81.878C90.1264 81.7301 90.142 81.59 90.1498 81.4421C90.1965 81.4421 90.2433 81.4421 90.2978 81.4499C90.3602 81.2086 90.4303 80.9672 90.4926 80.7337C90.5394 80.7337 90.5861 80.7337 90.6407 80.7415C90.6407 80.6481 90.6563 80.5469 90.6641 80.4535C90.7108 80.4535 90.7576 80.4535 90.8121 80.4612C90.9446 79.9786 91.0693 79.5037 91.2017 79.0211C91.2485 79.0211 91.2953 79.0211 91.3498 79.0289C91.3498 78.9355 91.3654 78.8343 91.3654 78.7408C91.4121 78.7408 91.4589 78.7409 91.5134 78.7486C91.529 78.5073 91.5446 78.266 91.5602 78.0169C91.6069 78.0169 91.6537 78.0169 91.7083 78.0247C91.7238 77.8301 91.7316 77.6354 91.7472 77.4408C91.794 77.4408 91.8407 77.4408 91.8953 77.4486C91.8953 77.3552 91.9109 77.254 91.9186 77.1606C91.9654 77.1606 92.0122 77.1606 92.0667 77.1684C92.0823 76.9737 92.0901 76.7791 92.1057 76.5845C92.1524 76.5845 92.1992 76.5845 92.2537 76.5923C92.2693 76.3977 92.2771 76.2031 92.2927 76.0085C92.3394 76.0085 92.3862 76.0085 92.4407 76.0163C92.4485 75.8683 92.4641 75.7282 92.4719 75.5803C92.5187 75.5803 92.5654 75.5803 92.62 75.5881C92.6355 75.3468 92.6511 75.1055 92.6667 74.8563C92.7135 74.8563 92.7602 74.8563 92.8148 74.8641C92.8148 74.7707 92.8304 74.6695 92.8382 74.5761C92.8849 74.5761 92.9317 74.5761 92.9862 74.5839C92.994 74.436 93.0018 74.2959 93.0174 74.1479C93.0641 74.1479 93.1109 74.1479 93.1654 74.1557C93.1732 74.0078 93.1888 73.8677 93.1966 73.7198C93.2433 73.7198 93.2901 73.7198 93.3447 73.7276C93.3524 73.5797 93.368 73.4396 93.3758 73.2916C93.4226 73.2916 93.4693 73.2916 93.5239 73.2994C93.5317 73.1515 93.5472 73.0114 93.555 72.8635C93.6018 72.8635 93.6486 72.8635 93.7031 72.8713C93.7732 72.5365 93.8434 72.194 93.9213 71.8593C93.968 71.8593 94.0148 71.8593 94.0693 71.8671C94.2018 71.3377 94.3343 70.8084 94.4668 70.2868C94.5135 70.2868 94.5603 70.2868 94.6148 70.2946C94.6148 70.2012 94.6304 70.1 94.6382 70.0066C94.6849 70.0066 94.7317 70.0066 94.7862 70.0143C94.7862 69.9209 94.8018 69.8197 94.8096 69.7263C94.9109 69.6874 95.0122 69.6407 95.1135 69.6018C95.1291 69.4071 95.1369 69.2125 95.1525 69.0179C95.3941 68.6365 95.659 68.9946 95.7915 68.185C95.8616 68.0915 96.0019 68.1927 95.9551 67.9047C95.8616 67.8502 95.7681 67.7957 95.6746 67.7412C95.6512 67.3987 95.62 67.0562 95.5967 66.7137C95.5499 66.7137 95.5031 66.7137 95.4486 66.7059C95.4876 66.1221 95.5265 65.5382 95.5655 64.9544C95.4486 64.4562 95.3395 63.9657 95.2226 63.4675C95.2694 63.4675 95.3161 63.4675 95.3707 63.4753C95.3395 63.1795 95.3161 62.8837 95.285 62.5879C95.2382 62.5879 95.1914 62.5879 95.1369 62.5801C95.1603 62.2375 95.1837 61.9028 95.207 61.5603C95.1603 61.5603 95.1135 61.5603 95.059 61.5525C95.0746 61.3112 95.0901 61.0699 95.1057 60.8208C95.059 60.8208 95.0122 60.8208 94.9577 60.813C94.9733 60.6261 95.2226 60.4627 95.1525 60.0968C95.1057 60.0968 95.059 60.0968 95.0044 60.089C95.0356 59.6064 95.0668 59.1159 95.1057 58.6333C95.059 58.6333 95.0122 58.6333 94.9577 58.6255C94.9655 58.4776 94.9811 58.3375 94.9888 58.1896C94.9421 58.1896 94.8953 58.1896 94.8408 58.1818C94.872 57.7458 94.9031 57.3099 94.9265 56.8662C94.8798 56.8662 94.833 56.8662 94.7785 56.8584C94.794 56.6171 94.8096 56.3758 94.8252 56.1267C94.7785 56.1267 94.7317 56.1267 94.6772 56.1189C94.7317 55.9787 94.794 55.8308 94.8486 55.6907C94.8018 55.6907 94.7551 55.6907 94.7005 55.6829C94.6771 55.2937 94.6538 54.8967 94.6304 54.5075C94.5836 54.5075 94.5369 54.5075 94.4823 54.4997C94.5213 53.8691 94.5681 53.2386 94.607 52.608C94.5603 52.608 94.5135 52.608 94.459 52.6002C94.4979 52.0631 94.5291 51.5338 94.5681 50.9966C94.5213 50.9966 94.4745 50.9966 94.42 50.9888C94.42 50.8954 94.4356 50.7942 94.4434 50.7008C94.3966 50.7008 94.3499 50.7008 94.2953 50.693C94.3187 50.3505 94.3421 50.0158 94.3655 49.6732C94.4122 49.6732 94.459 49.6732 94.5135 49.681C94.5135 49.6343 94.5135 49.5876 94.5213 49.5331C94.4745 49.5331 94.4278 49.5331 94.3732 49.5253C94.3888 49.284 94.4044 49.0427 94.42 48.7936C94.3732 48.7936 94.3265 48.7936 94.2719 48.7858C94.2719 48.6924 94.2875 48.5912 94.2953 48.4978C94.2486 48.4978 94.2018 48.4978 94.1473 48.49C94.1862 47.8594 94.233 47.2289 94.2719 46.5983C94.2252 46.5983 94.1784 46.5983 94.1239 46.5906C94.1317 46.4426 94.1395 46.3025 94.1551 46.1546C94.1083 46.1546 94.0616 46.1546 94.007 46.1468C94.0382 45.6642 94.0693 45.1738 94.1083 44.6911C94.0615 44.6911 94.0148 44.6911 93.9603 44.6833C94.0304 44.3953 94.0927 44.1073 94.1628 43.8192C94.1628 43.8192 93.9525 43.7492 93.8979 43.36C94.0927 43.3755 94.2875 43.3833 94.4823 43.3989C94.4823 43.3522 94.4823 43.3055 94.4901 43.251C94.5369 43.251 94.5836 43.251 94.6382 43.2588C94.8018 43.3833 94.5681 43.43 94.7707 43.4145C94.7707 43.3677 94.7707 43.321 94.7785 43.2665C95.1681 43.3444 95.5499 43.4144 95.9395 43.4923C95.9395 43.4456 95.9395 43.3989 95.9473 43.3444C96.485 43.3833 97.0149 43.4145 97.5525 43.4534C97.5915 43.4689 97.5837 43.648 97.8331 43.6168C97.8331 43.5701 97.8331 43.5234 97.8409 43.4689C98.5656 43.5624 99.2902 43.6636 100.023 43.7648C100.67 43.6324 103.724 43.6636 104.558 43.9204C104.558 43.9672 104.558 44.0139 104.55 44.0684C104.698 44.0294 104.846 43.9905 104.994 43.9516C105.283 43.9749 105.579 43.9905 105.867 44.0139C105.867 44.0606 105.867 44.1073 105.859 44.1618C106.155 44.1306 106.451 44.1073 106.748 44.0761C106.748 44.1228 106.748 44.1696 106.74 44.224C107.519 44.2785 108.298 44.3252 109.077 44.3797C109.077 44.4264 109.077 44.4732 109.07 44.5276C109.459 44.551 109.849 44.5821 110.239 44.6055C110.239 44.6522 110.239 44.6989 110.231 44.7534C110.472 44.769 110.714 44.7845 110.963 44.8001C110.963 44.7534 110.963 44.7067 110.971 44.6522C111.649 44.5199 111.478 44.1696 111.906 43.8348C111.891 43.3444 111.875 42.854 111.859 42.3635L111.953 42.2935ZM58.6841 25.6968C58.6841 25.6968 58.9101 25.5956 58.8555 25.2686C58.8088 25.2686 58.762 25.2686 58.7075 25.2608C58.7776 24.9728 58.84 24.6848 58.9101 24.3967C58.8633 24.3967 58.8166 24.3967 58.762 24.389C58.7231 24.062 58.9335 23.9686 58.9335 23.9608C58.9646 23.4782 58.9958 22.9877 59.0348 22.5051C58.988 22.5051 58.9413 22.5051 58.8867 22.4973C58.8166 22.147 59.0893 21.8823 59.0815 21.7811C59.0348 21.7811 58.988 21.7811 58.9335 21.7733C59.0114 20.6056 59.0893 19.438 59.1672 18.2781C59.1205 18.2781 59.0737 18.2781 59.0192 18.2703C59.0815 18.1302 59.1361 17.9822 59.1906 17.8421C59.1439 17.8421 59.0971 17.8421 59.0426 17.8343C59.0426 17.7876 59.0426 17.7409 59.0503 17.6864C59.0971 17.6864 59.1439 17.6864 59.1984 17.6942C59.2452 17.017 59.2919 16.3319 59.3387 15.6547C59.2919 15.6547 59.2452 15.6547 59.1906 15.6469C59.2607 15.3121 59.3309 14.9696 59.401 14.6349C59.3543 14.6349 59.3075 14.6349 59.2529 14.6271C59.3231 14.2924 59.3932 13.9498 59.4711 13.6151C59.4244 13.6151 59.3776 13.6151 59.3231 13.6073C59.3387 13.3193 59.362 13.0235 59.3854 12.7354C59.3387 12.7354 59.2919 12.7354 59.2374 12.7277C59.3153 12.245 59.401 11.7624 59.4789 11.2797C59.3543 10.3456 59.6971 8.03356 59.814 6.32096C59.8608 5.6437 59.9075 4.95866 59.9543 4.2814C60.001 4.2814 60.0478 4.2814 60.1023 4.28918C60.188 3.71312 60.2815 3.12928 60.3673 2.55322L60.4997 2.70891C60.6945 2.66999 60.8971 2.63885 61.092 2.59993C61.092 2.64664 61.092 2.69334 61.0842 2.74784C61.1309 2.74784 61.1777 2.74784 61.2322 2.75562C61.2322 2.70891 61.2322 2.66221 61.24 2.60771C61.2868 2.60771 61.3335 2.60771 61.3881 2.6155C61.3881 2.6155 61.3881 2.81011 61.6686 2.77897C61.6686 2.73227 61.6686 2.68556 61.6764 2.63107C61.7699 2.68556 61.8634 2.74005 61.9569 2.79454C61.9569 2.79454 62.1128 2.59215 62.4011 2.67778C62.4011 2.72448 62.4011 2.77119 62.3933 2.82568C62.7284 2.9191 62.8063 2.67778 62.9855 2.7167C62.9855 2.76341 62.9855 2.81011 62.9777 2.86461C63.4141 2.89574 63.8505 2.92688 64.2946 2.95024C64.2946 2.90353 64.2946 2.85682 64.3024 2.80233C64.3492 2.80233 64.3959 2.80233 64.4505 2.81011C64.4505 2.85682 64.4505 2.90353 64.4427 2.95802C64.8323 2.98137 65.2219 3.01251 65.6115 3.03587C65.8687 3.04365 66.157 2.9191 66.2038 2.92688C66.2038 2.97359 66.2038 3.0203 66.196 3.07479C66.6869 3.05922 67.1778 3.04365 67.6687 3.02808C67.8713 2.98916 67.622 2.84904 67.8246 2.89574C67.8246 2.94245 67.8246 2.98916 67.8168 3.04365C68.0116 3.00473 68.2142 2.97359 68.409 2.93467C68.409 2.98137 68.409 3.02808 68.4012 3.08257C68.5493 3.04365 68.6973 3.00473 68.8454 2.9658C68.8454 3.01251 68.8454 3.05922 68.8376 3.11371C68.8843 3.11371 68.9311 3.11371 68.9856 3.1215C68.9856 3.07479 68.9856 3.02808 68.9934 2.97359C69.1337 3.02808 69.2818 3.09036 69.422 3.14485C69.5701 3.15263 69.7103 3.1682 69.8584 3.17599C69.8584 3.12928 69.8584 3.08257 69.8662 3.02808C70.0766 3.02808 69.7961 3.16042 69.9987 3.18377C70.1467 3.14485 70.2948 3.10593 70.4428 3.067C70.6376 3.12928 70.8246 3.19156 71.0195 3.25383C71.0195 3.20713 71.0195 3.16042 71.0273 3.10593C71.074 3.10593 71.1208 3.10593 71.1753 3.11371C71.4714 3.11371 71.4558 3.27719 71.4558 3.27719C71.6506 3.29276 71.8455 3.30054 72.0403 3.31611C72.0403 3.2694 72.0403 3.2227 72.048 3.1682C72.352 3.1215 72.4766 3.33946 72.4766 3.33946C72.8195 3.43288 72.9208 3.2227 72.9208 3.2227C73.1624 3.28497 73.4039 3.35503 73.6377 3.41731C73.6377 3.3706 73.6377 3.32389 73.6455 3.2694C74.2767 3.36282 74.9001 3.44845 75.5312 3.54186C75.5312 3.49516 75.5312 3.44845 75.539 3.39396L75.6715 3.54965C75.7728 3.51073 75.8741 3.46402 75.9754 3.42509C75.9754 3.4718 75.9754 3.51851 75.9676 3.573C76.9417 3.83768 79.1469 3.82211 79.9184 3.68977C80.2612 3.62749 80.308 3.89217 80.495 3.8766C80.495 3.82989 80.495 3.78319 80.5028 3.72869C80.6976 3.74426 80.8924 3.75205 81.0872 3.76762C81.0872 3.81432 81.0872 3.86103 81.0794 3.91552C81.547 4.07121 82.0301 3.78319 82.2561 3.84546C82.2561 3.89217 82.2561 3.93888 82.2483 3.99337C82.4431 4.00894 82.6379 4.01672 82.8327 4.03229C82.8327 4.079 82.8327 4.12571 82.8249 4.1802C83.0821 4.19577 83.0977 3.91552 83.1366 3.90774C83.3782 3.97001 83.6198 4.04008 83.8535 4.10235C83.8535 4.05565 83.8535 4.00894 83.8613 3.95445C83.9081 3.95445 83.9548 3.95445 84.0094 3.96223C84.0094 4.00894 84.0094 4.05565 84.0016 4.11014C84.8587 4.32032 87.025 4.39038 87.6562 4.21134C87.6562 4.30475 87.6406 4.40595 87.6406 4.49937C87.7887 4.50715 87.9289 4.52272 88.077 4.5305C88.1004 5.36345 88.3341 6.24311 88.5056 6.9048C88.4822 7.19283 88.4666 7.48864 88.4432 7.77667C88.49 7.77667 88.5368 7.77667 88.5913 7.78446C88.5835 7.93236 88.5679 8.07249 88.5601 8.22039C88.6069 8.22039 88.6536 8.22039 88.7082 8.22818C88.7004 8.37608 88.6848 8.51621 88.677 8.66411C88.7238 8.66411 88.7705 8.66411 88.8251 8.6719C88.8173 8.8198 88.8017 8.95993 88.7939 9.10783C88.8407 9.10783 88.8874 9.10783 88.942 9.11562C89.0043 9.65275 89.0666 10.1977 89.129 10.7348C89.1757 10.7348 89.2225 10.7348 89.277 10.7426C89.2459 11.1785 89.2147 11.6145 89.1913 12.0582C89.1913 12.0582 89.3705 12.0348 89.316 12.3618C89.2692 12.3618 89.2225 12.3618 89.1679 12.354C89.1679 12.4007 89.1679 12.4474 89.1601 12.5019C89.2069 12.5019 89.2536 12.5019 89.3082 12.5097C89.3082 12.6031 89.2926 12.7043 89.2926 12.7977C89.3394 12.7977 89.3861 12.7977 89.4407 12.8055C89.4251 13.0468 89.4095 13.2881 89.3939 13.5373C89.4407 13.5373 89.4874 13.5373 89.542 13.545C89.5186 13.8331 89.503 14.1289 89.4796 14.4169C89.5264 14.4169 89.5731 14.4169 89.6277 14.4247C89.6121 14.666 89.5965 14.9073 89.5809 15.1564C89.6277 15.1564 89.6744 15.1564 89.729 15.1642C89.7134 15.3588 89.7056 15.5535 89.69 15.7481C89.7368 15.7481 89.7835 15.7481 89.8381 15.7559C89.8147 16.0984 89.7913 16.4331 89.7679 16.7756C89.8147 16.7756 89.8615 16.7756 89.916 16.7834C89.9082 16.9313 89.8926 17.0715 89.8848 17.2194C89.9316 17.2194 89.9783 17.2194 90.0329 17.2271C90.0173 17.4218 90.0095 17.6164 89.9939 17.811C90.0407 17.811 90.0874 17.811 90.142 17.8188C90.1576 18.3092 90.1731 18.7996 90.1887 19.2901C90.2355 19.2901 90.2822 19.2901 90.3368 19.2978C90.3368 19.3913 90.3212 19.4925 90.3134 19.5859C90.3602 19.5859 90.4069 19.5859 90.4615 19.5937C90.4459 19.7883 90.4381 19.9829 90.4225 20.1775C90.4693 20.1775 90.516 20.1775 90.5706 20.1853C90.5706 20.2787 90.555 20.3799 90.5472 20.4733C90.5939 20.4733 90.6407 20.4733 90.6952 20.4811C90.6797 20.6757 90.6719 20.8703 90.6563 21.0649C90.703 21.0649 90.7498 21.0649 90.8043 21.0727C90.7887 21.2673 90.781 21.462 90.7654 21.6566C90.8121 21.6566 90.8589 21.6566 90.9134 21.6644C90.929 22.2015 90.9368 22.7386 90.9524 23.2758C90.9991 23.2758 91.0459 23.2758 91.1004 23.2835C91.0849 23.5249 91.0693 23.7662 91.0537 24.0153C91.4277 25.5099 91.1862 27.7052 91.5914 29.1765C91.5758 29.4178 91.5602 29.6591 91.5446 29.9082C91.5914 29.9082 91.6381 29.9082 91.6927 29.916C91.6927 30.0094 91.6771 30.1106 91.6693 30.204C91.716 30.204 91.7628 30.204 91.8173 30.2118C91.794 30.4998 91.7784 30.7957 91.755 31.0837C91.8018 31.0837 91.8485 31.0837 91.9031 31.0915C91.9031 31.1382 91.9031 31.1849 91.8953 31.2394C91.3108 31.2472 90.7186 31.2549 90.1342 31.2705C90.1342 31.3172 90.1342 31.3639 90.1264 31.4184C89.9861 31.3639 89.8381 31.3017 89.6978 31.2472C89.6978 31.2939 89.6978 31.3406 89.69 31.3951C89.4017 31.3795 89.1056 31.3561 88.8173 31.3328C88.8173 31.3795 88.8173 31.4262 88.8095 31.4807C88.5212 31.4651 88.2251 31.4418 87.9367 31.4184C87.9367 31.4651 87.9367 31.5118 87.9289 31.5663C87.29 31.5663 86.6588 31.5819 86.0198 31.5819C86.0198 31.6286 86.0198 31.6753 86.012 31.7298C85.7704 31.7142 85.5289 31.6987 85.2795 31.6831C85.2795 31.7298 85.2795 31.7765 85.2717 31.831C85.0691 31.8154 85.0536 31.5741 84.6951 31.6442C84.6951 31.6909 84.6951 31.7376 84.6873 31.7921C84.399 31.7687 84.1029 31.7532 83.8146 31.7298C83.8146 31.7765 83.8146 31.8232 83.8068 31.8777C83.3704 31.8466 82.934 31.8154 82.4899 31.7921C82.4899 31.8388 82.4899 31.8855 82.4821 31.94C82.1392 31.9166 81.8041 31.8933 81.4613 31.8699C81.4613 31.9166 81.4613 31.9633 81.4535 32.0178C81.1106 31.9945 80.7755 31.9711 80.4327 31.9478C80.4327 31.9945 80.4327 32.0412 80.4249 32.0957C80.2768 32.0879 80.1366 32.0801 79.9885 32.0645C79.9885 32.1112 79.9885 32.158 79.9807 32.2124C79.8404 32.158 79.6924 32.0957 79.5521 32.0412C79.5521 32.0879 79.5521 32.1346 79.5443 32.1891C79.3028 32.1735 79.0612 32.158 78.8118 32.1424C78.8118 32.1891 78.8118 32.2358 78.8041 32.2903C78.5859 32.3136 78.5235 32.1268 78.5235 32.1268C78.43 32.1268 78.3287 32.1112 78.2352 32.1035C78.2352 32.1502 78.2352 32.1969 78.2274 32.2514C78.1339 32.1969 78.0404 32.1424 77.9469 32.0879C77.9469 32.1346 77.9469 32.1813 77.9391 32.2358C77.6975 32.2202 77.456 32.2047 77.2066 32.1891C77.2066 32.1424 77.2066 32.0957 77.2144 32.0412C77.1676 32.0412 77.1209 32.0412 77.0664 32.0334C77.0664 32.0801 77.0664 32.1268 77.0586 32.1813C76.0923 32.3136 75.0247 31.8077 74.4091 32.2981C74.2143 32.2825 74.0195 32.2747 73.8247 32.2592C73.9806 32.01 74.0507 32.049 74.152 31.6987C74.7442 31.6675 75.1494 31.3561 75.5157 31.0603C75.5702 30.9669 75.6248 30.8735 75.6793 30.7801C75.7728 30.7801 75.8741 30.7957 75.9676 30.8034C76.0767 30.6633 76.178 30.5232 76.2871 30.3831C76.3339 30.3831 76.3806 30.3831 76.4352 30.3909C76.4897 30.2507 76.552 30.1028 76.6066 29.9627C77.191 29.5579 78.0716 29.2232 78.3209 28.4681C78.9131 28.3591 79.6145 27.6118 79.8794 27.1058C79.9729 27.1058 80.0742 27.1213 80.1677 27.1213C80.2223 26.9812 80.2846 26.8333 80.3391 26.6932C80.3859 26.6932 80.4327 26.6932 80.4872 26.701C80.4872 26.6076 80.5028 26.5064 80.5028 26.4129C80.6041 26.374 80.7054 26.3273 80.8067 26.2884C80.8067 26.195 80.8223 26.0938 80.8301 26.0004C81.0327 25.868 81.2353 25.7357 81.4457 25.6033C81.4457 25.5099 81.4613 25.4087 81.4691 25.3153C81.7262 25.1363 81.9834 24.9572 82.2405 24.7782C82.3028 24.5836 82.3652 24.3967 82.4275 24.2021C82.4743 24.2021 82.521 24.2021 82.5756 24.2099C82.7314 24.0231 82.8951 23.844 83.0509 23.6572C83.1444 23.6572 83.2457 23.6728 83.3392 23.6806C83.5107 23.1901 83.947 22.8865 84.2899 22.5751C84.3912 22.5362 84.4925 22.4895 84.5938 22.4506C84.5938 22.3572 84.6094 22.256 84.6094 22.1626C84.7107 22.1236 84.812 22.0769 84.9133 22.038C84.9133 21.9913 84.9133 21.9446 84.9211 21.8901C85.2484 21.5943 85.5367 21.5787 85.7081 21.0649C85.8016 21.0649 85.9029 21.0805 85.9964 21.0883C86.1133 20.8003 86.2302 20.52 86.3471 20.232C86.4406 20.232 86.5419 20.2476 86.6354 20.2553C87.3445 17.3595 87.2744 13.3893 86.9315 11.4899C86.9783 10.7582 87.0328 10.0342 87.0796 9.30245C86.8068 9.02999 86.9783 8.9755 86.8302 8.70304C86.7367 8.64854 86.6432 8.59405 86.5497 8.53956C86.5107 8.39165 86.4718 8.24375 86.4328 8.09584C86.3393 8.09584 86.238 8.08027 86.1445 8.08027C86.1055 7.97907 86.0588 7.87787 86.0198 7.77667C85.825 7.71439 85.638 7.65212 85.4432 7.58984C85.4042 7.48864 85.3575 7.38744 85.3185 7.28624C85.0302 7.16947 84.7496 7.05271 84.4613 6.93594C84.4224 6.83474 84.3756 6.73354 84.3367 6.63234C84.1886 6.62455 84.0483 6.60898 83.9003 6.6012C83.8613 6.5 83.8146 6.3988 83.7756 6.2976C83.5808 6.23533 83.3938 6.17305 83.199 6.11077C83.16 6.00957 83.1132 5.90837 83.0743 5.80717C82.7392 5.73711 82.3963 5.66705 82.0613 5.58921C80.2924 4.75626 78.1105 4.44487 75.8196 4.7329C75.7027 5.05207 75.6715 5.09099 75.4923 5.29339C75.4455 5.29339 75.3988 5.29339 75.3442 5.28561C75.2897 5.42573 75.2273 5.57364 75.1728 5.71376C75.0715 5.75268 74.9702 5.79939 74.8689 5.83831C74.8689 5.93173 74.8533 6.03293 74.8455 6.12634C74.7988 6.12634 74.752 6.12634 74.6975 6.11856C74.6975 6.21197 74.6819 6.31317 74.6741 6.40659C74.5728 6.44551 74.4715 6.49222 74.3702 6.53114C74.3702 6.62455 74.3546 6.72575 74.3546 6.81917C74.3078 6.81917 74.2611 6.81917 74.2065 6.81138C74.1988 6.95929 74.1832 7.09941 74.1754 7.24732C74.1286 7.24732 74.0819 7.24732 74.0273 7.23954C74.0273 7.33295 74.0117 7.43415 74.0039 7.52757C73.9572 7.52757 73.9104 7.52756 73.8559 7.51978C73.8559 7.61319 73.8403 7.71439 73.8403 7.80781C73.739 7.84673 73.6377 7.89344 73.5364 7.93236C73.4819 8.07248 73.4195 8.22039 73.365 8.36051C73.2091 8.44614 73.0611 8.53177 72.9052 8.62519C72.9052 8.71861 72.8896 8.8198 72.8896 8.91322L72.5779 9.18568C72.5779 9.27909 72.5623 9.38029 72.5546 9.47371C72.5078 9.47371 72.461 9.47371 72.4065 9.46592C72.4065 9.55934 72.3909 9.66054 72.3909 9.75395C72.2896 9.79288 72.1883 9.83958 72.087 9.87851C72.0247 10.1198 71.9545 10.3611 71.8922 10.5947C71.7909 10.6336 71.6896 10.6803 71.5883 10.7192C71.5805 10.8671 71.5649 11.0073 71.5571 11.1552C71.4558 11.1941 71.3545 11.2408 71.2532 11.2797C71.2532 11.3731 71.2376 11.4743 71.2299 11.5678C71.1286 11.6067 71.0272 11.6534 70.9259 11.6923C70.9259 11.7857 70.9104 11.8869 70.9026 11.9803C70.8013 12.0193 70.7 12.066 70.5987 12.1049C70.5987 12.1983 70.5831 12.2995 70.5831 12.3929L70.2714 12.6654C70.2714 12.7588 70.2558 12.86 70.248 12.9534C70.2013 12.9534 70.1545 12.9534 70.1 12.9456C70.1 13.039 70.0844 13.1402 70.0844 13.2337C69.9831 13.2726 69.8818 13.3193 69.7805 13.3582C69.7805 13.4516 69.7649 13.5528 69.7649 13.6462C69.6636 13.6852 69.5623 13.7319 69.461 13.7708C69.3986 13.9654 69.3363 14.1522 69.274 14.3469C69.1181 14.4325 68.9701 14.5181 68.8142 14.6115C68.8142 14.7049 68.7986 14.8061 68.7908 14.8996C68.6895 14.9385 68.5882 14.9852 68.4869 15.0241C68.4246 15.2187 68.3623 15.4056 68.2999 15.6002C68.1986 15.6391 68.0973 15.6858 67.996 15.7247C67.996 15.8181 67.9804 15.9193 67.9726 16.0128C67.8713 16.0517 67.77 16.0984 67.6687 16.1373C67.6687 16.2307 67.6531 16.3319 67.6453 16.4253C67.5441 16.4643 67.4427 16.511 67.3414 16.5499C67.3414 16.6433 67.3259 16.7445 67.3181 16.8379C67.2168 16.8768 67.1155 16.9235 67.0142 16.9625C67.0064 17.1104 66.9986 17.2505 66.983 17.3984C66.7804 17.5307 66.5778 17.6631 66.3674 17.7954C66.2505 18.0834 66.1336 18.3637 66.0167 18.6517C65.97 18.6517 65.9232 18.6517 65.8687 18.6439C65.6895 18.8541 65.6427 18.8853 65.5414 19.2044C65.4479 19.2044 65.3466 19.1889 65.2531 19.1811C65.183 19.508 65.2063 19.5547 65.0661 19.7571C65.0193 19.7571 64.9726 19.7571 64.918 19.7493C64.9102 19.8973 64.8946 20.0374 64.8868 20.1853C64.731 20.2709 64.5829 20.3565 64.4271 20.45C64.4271 20.5434 64.4115 20.6446 64.4037 20.738C64.2011 20.8703 63.9985 21.0027 63.7881 21.135C63.7881 21.2284 63.7725 21.3296 63.7647 21.423C63.6089 21.5087 63.4608 21.5943 63.305 21.6877C63.305 21.7811 63.2894 21.8823 63.2816 21.9757C63.2349 21.9757 63.1881 21.9757 63.1336 21.9679C63.079 22.1081 63.0167 22.256 62.9621 22.3961C62.8063 22.4817 62.6582 22.5674 62.5024 22.6608C62.3855 22.9488 62.2686 23.2291 62.1517 23.5171C62.0504 23.556 61.9491 23.6027 61.8478 23.6416C61.8478 23.7351 61.8322 23.8362 61.8244 23.9297C61.6218 24.062 61.4192 24.1943 61.2088 24.3267C61.1465 24.5213 61.0842 24.7081 61.0218 24.9027C60.9751 24.9027 60.9283 24.9027 60.8738 24.8949C60.8192 25.0351 60.7569 25.183 60.7023 25.3231C60.601 25.362 60.4997 25.4087 60.3984 25.4477C60.3984 25.5411 60.3828 25.6423 60.3751 25.7357C60.2192 25.8213 60.0711 25.9069 59.9153 26.0004C59.9153 26.0938 59.8997 26.195 59.8919 26.2884C59.7906 26.3273 59.6893 26.374 59.588 26.4129C59.588 26.4596 59.588 26.5064 59.5802 26.5608C59.4789 26.5998 59.3776 26.6465 59.2763 26.6854C59.2763 26.7788 59.2607 26.88 59.2529 26.9734C59.2062 26.9734 59.1594 26.9734 59.1049 26.9656C59.1049 27.0591 59.0893 27.1603 59.0893 27.2537C58.988 27.2926 58.8867 27.3393 58.7854 27.3782C58.7854 27.4716 58.7698 27.5728 58.762 27.6663C58.7153 27.6663 58.6685 27.6663 58.614 27.6585C58.614 27.7052 58.614 27.7519 58.6062 27.8064C58.5594 27.8064 58.5127 27.8064 58.4581 27.7986C58.5049 27.0668 58.5594 26.3429 58.6062 25.6111L58.6841 25.6968ZM8.42319 27.6118C8.45436 27.1291 8.48553 26.6387 8.52449 26.156C8.57125 26.156 8.618 26.156 8.67255 26.1638C8.71151 25.6267 8.74268 25.0973 8.78164 24.5602C8.82839 24.5602 8.87515 24.5602 8.9297 24.568C8.96866 24.0309 8.99983 23.5015 9.03879 22.9644C9.08554 22.9644 9.1323 22.9644 9.18684 22.9722C9.21801 22.5362 9.24918 22.1003 9.27256 21.6566C9.31931 21.6566 9.36607 21.6566 9.42062 21.6644C9.38165 21.5632 9.3349 21.462 9.29594 21.3608C9.34269 21.3608 9.38945 21.3608 9.44399 21.3685C9.56088 19.5703 9.68556 17.7721 9.80244 15.9738C10.3557 14.5415 10.4804 12.533 11.0103 11.0773C11.1271 10.7582 10.9323 10.0498 10.9323 10.0498C10.9791 10.0498 11.0258 10.0498 11.0804 10.0576C11.0882 9.90964 11.1038 9.76952 11.1116 9.62162C11.1583 9.62162 11.2051 9.62162 11.2596 9.6294C11.322 8.75753 11.3765 7.87787 11.4388 7.006C11.4856 7.006 11.5324 7.006 11.5869 7.01378C11.6025 6.72575 11.6259 6.42994 11.6492 6.14191C11.696 6.14191 11.7427 6.14191 11.7973 6.1497C11.8363 5.56585 11.8752 4.98201 11.9142 4.39817C11.9609 4.39817 12.0077 4.39817 12.0622 4.40595C12.0856 4.06343 12.109 3.72869 12.1324 3.38617C12.1791 3.38617 12.2259 3.38617 12.2804 3.39396C12.2415 3.29276 12.1947 3.19156 12.1557 3.09036C12.2025 3.09036 12.2493 3.09036 12.3038 3.09814C12.3194 2.85682 12.335 2.6155 12.3506 2.36639C12.3973 2.36639 12.4441 2.36639 12.4986 2.37418C12.522 2.17178 12.3817 2.42088 12.3661 2.21849C12.3817 2.02387 12.3895 1.82926 12.4051 1.63464C12.5999 1.65021 12.7947 1.658 12.9895 1.67357C12.9895 1.72027 12.9895 1.76698 12.9817 1.82147C13.309 1.93046 13.4025 1.67357 13.574 1.71249C14.8597 2.03166 16.7143 1.93824 18.2338 2.17178C18.5767 2.22627 18.8962 2.49095 19.3949 2.39753C19.4494 2.38975 19.4416 2.21849 19.6988 2.27298C19.6988 2.31968 19.6988 2.36639 19.691 2.42088C19.7377 2.42088 19.7845 2.42088 19.839 2.42867C19.839 2.38196 19.839 2.33525 19.8468 2.28076C20.9378 2.14064 22.317 2.55322 23.2131 2.35861C24.4755 2.44424 25.7457 2.52987 27.008 2.6155C27.008 2.56879 27.008 2.52208 27.0158 2.46759C27.5613 2.35082 28.1769 2.57658 28.6289 2.42867C28.7224 2.48316 28.8159 2.53765 28.9094 2.59214C28.9094 2.54544 28.9094 2.49873 28.9172 2.44424C29.0652 2.45202 29.2055 2.46759 29.3535 2.47538C29.3535 2.42867 29.3535 2.38196 29.3613 2.32747C29.6497 2.35082 29.9458 2.36639 30.2341 2.38975C30.2341 2.34304 30.2341 2.29633 30.2419 2.24184C30.5847 2.26519 30.9198 2.28855 31.2627 2.3119C31.2627 2.26519 31.2627 2.21849 31.2705 2.16399C31.6133 2.18735 31.9484 2.2107 32.2913 2.23405C32.2913 2.28076 32.2913 2.32747 32.2835 2.38196C32.3302 2.38196 32.377 2.38196 32.4315 2.38975C32.4315 2.34304 32.4315 2.29633 32.4393 2.24184C33.3666 2.30412 34.2861 2.36639 35.2134 2.42867C35.2134 2.38196 35.2134 2.33525 35.2212 2.28076C35.268 2.28076 35.3147 2.28076 35.3693 2.28855C35.3693 2.33525 35.3693 2.38196 35.3615 2.43645C35.6108 2.40532 35.8524 2.37418 36.1018 2.34304C36.1018 2.29633 36.1018 2.24962 36.1096 2.19513C36.1563 2.19513 36.2031 2.19513 36.2576 2.20292C36.2576 2.24962 36.2576 2.29633 36.2498 2.35082C36.5381 2.37418 36.8342 2.38975 37.1226 2.4131C37.1226 2.36639 37.1226 2.31968 37.1304 2.26519C37.5667 2.29633 38.0031 2.32747 38.4473 2.35082C38.4473 2.30412 38.4473 2.25741 38.4551 2.20292C38.6966 2.21849 38.9382 2.23405 39.1875 2.24962C39.1875 2.20292 39.1875 2.15621 39.1953 2.10172C39.3901 2.11729 39.585 2.12507 39.7798 2.14064C39.7798 2.09393 39.7798 2.04722 39.7876 1.99273L39.92 2.14842C40.5122 2.09393 41.0967 2.03166 41.6889 1.97716C41.6889 1.93046 41.6889 1.88375 41.6967 1.82926L41.8292 1.98495C41.8759 1.98495 41.9227 1.98495 41.9772 1.99273C41.9772 1.94603 41.9772 1.89932 41.985 1.84483C42.1798 1.8604 42.3746 1.86818 42.5694 1.88375C42.5694 1.83704 42.5694 1.79033 42.5772 1.73584C42.6707 1.79033 42.7643 1.84483 42.8578 1.89932C42.8578 1.85261 42.8578 1.8059 42.8656 1.75141C43.2785 1.68135 44.0656 1.99273 44.1669 1.98495C44.1669 1.93824 44.1669 1.89153 44.1747 1.83704C44.8059 1.87596 45.437 1.92267 46.0682 1.96159C46.0682 1.91489 46.0682 1.86818 46.076 1.81369C46.1695 1.81369 46.2708 1.82926 46.3643 1.83704C46.3643 1.79033 46.3643 1.74363 46.3721 1.68913C46.6293 1.64243 47.4397 2.06279 47.9696 1.94603C47.9696 1.89932 47.9696 1.85261 47.9774 1.79812C48.3202 1.82147 48.6553 1.84483 48.9982 1.86818C48.9982 1.82147 48.9982 1.77476 49.006 1.72027C49.2008 1.72027 49.2319 1.97716 49.5826 1.9071C49.5826 1.8604 49.5826 1.81369 49.5904 1.7592C50.1826 1.64243 50.9463 2.02387 51.3515 1.72806C51.3982 1.72806 51.445 1.72806 51.4995 1.73584C51.4372 2.47538 51.2735 3.19934 51.0709 3.75983C50.9073 4.21912 51.0709 4.97422 51.1177 5.23112C51.0943 5.57364 51.0709 5.90837 51.0476 6.2509C51.0008 6.2509 50.9541 6.2509 50.8995 6.24311C50.8995 6.28982 50.8995 6.33653 50.8917 6.39102C50.9385 6.39102 50.9852 6.39102 51.0398 6.3988C51.0164 6.78803 50.9852 7.17726 50.9618 7.56649C51.0086 7.56649 51.0554 7.56649 51.1099 7.57427C51.0476 8.54734 50.9774 9.52042 50.9151 10.4935C50.9618 10.4935 51.0086 10.4935 51.0631 10.5013C50.9774 11.0306 50.8917 11.5678 50.806 12.0971C50.8527 12.0971 50.8995 12.0971 50.9541 12.1049C50.9463 12.2528 50.9385 12.3929 50.9229 12.5408C50.9696 12.5408 51.0164 12.5408 51.0709 12.5486C51.0086 12.7899 50.9385 13.0313 50.8761 13.2648C50.9229 13.2648 50.9696 13.2648 51.0242 13.2726C51.0008 13.6151 50.9774 13.9498 50.9541 14.2924C50.9073 14.2924 50.8605 14.2924 50.806 14.2846C50.806 14.3313 50.806 14.378 50.7982 14.4325C50.7982 15.0708 50.8138 15.7014 50.8138 16.3397C50.8605 16.3397 50.9073 16.3397 50.9618 16.3475C51.0709 16.8768 50.6891 17.3128 50.7281 17.6475C50.7748 17.6475 50.8216 17.6475 50.8761 17.6553C50.8605 17.8966 50.845 18.1379 50.8294 18.387C50.8761 18.387 50.9229 18.387 50.9774 18.3948C50.9618 18.6362 50.9463 18.8775 50.9307 19.1266C50.9774 19.1266 51.0242 19.1266 51.0787 19.1344C51.0242 19.2745 50.9618 19.4224 50.9073 19.5625C50.9541 19.5625 51.0008 19.5625 51.0554 19.5703C51.0164 20.2009 50.9696 20.8314 50.9307 21.462C50.9774 21.462 51.0242 21.462 51.0787 21.4697C51.0787 21.5164 51.0787 21.5632 51.0709 21.6176C51.032 22.2015 50.993 22.7853 50.9541 23.3692C51.0008 23.3692 51.0476 23.3692 51.1021 23.377C51.0865 23.5716 51.0787 23.7662 51.0631 23.9608C51.0164 23.9608 50.9696 23.9608 50.9151 23.953C50.8294 24.2722 51.032 24.389 51.032 24.3967C50.9774 25.1752 50.9307 25.9537 50.8761 26.7321C50.9229 26.7321 50.9696 26.7321 51.0242 26.7399C51.0086 26.9812 50.993 27.2225 50.9774 27.4716C50.9696 27.5106 50.7826 27.5028 50.8138 27.7519C50.8605 27.7519 50.9073 27.7519 50.9618 27.7597C50.9385 28.0477 50.9229 28.3435 50.8995 28.6315C50.9463 28.6315 50.993 28.6315 51.0476 28.6393C51.0709 28.8807 50.8917 28.8884 50.8839 28.9196C50.8683 29.1142 50.8605 29.3088 50.845 29.5034C50.8917 29.5034 50.9385 29.5034 50.993 29.5112C50.993 29.5579 50.993 29.6046 50.9852 29.6591C50.9385 29.6591 50.8917 29.6591 50.8372 29.6513C50.8216 29.8926 50.806 30.134 50.7904 30.3831C50.3385 30.4453 49.9488 30.64 49.5904 30.7412C49.2475 30.7645 48.9047 30.7957 48.5618 30.819C48.5618 30.8657 48.5618 30.9124 48.554 30.9669C48.4605 30.9124 48.367 30.8579 48.2735 30.8034C48.1644 30.9436 48.0631 31.0837 47.954 31.2238C47.8059 31.2627 47.6579 31.3017 47.5098 31.3406C47.5098 31.3873 47.5098 31.434 47.502 31.4885C47.1981 31.6053 46.5124 31.2705 46.489 31.2705C46.489 31.3172 46.489 31.3639 46.4812 31.4184C46.2241 31.4184 46.2007 31.2549 46.2007 31.2549C46.0526 31.2939 45.9046 31.3328 45.7565 31.3717C45.7565 31.325 45.7565 31.2783 45.7643 31.2238C45.2812 31.1927 44.7903 31.1615 44.3071 31.1226C44.3071 31.0759 44.3071 31.0292 44.3149 30.9747C44.2136 31.0136 44.1123 31.0603 44.011 31.0993C44.011 31.0525 44.011 31.0058 44.0188 30.9513C43.824 30.9358 43.6292 30.928 43.4344 30.9124C43.4344 30.8657 43.4344 30.819 43.4422 30.7645C42.6629 30.71 41.8837 30.6633 41.1045 30.6088C41.1045 30.5621 41.1045 30.5154 41.1123 30.4609C41.0655 30.4609 41.0188 30.4609 40.9642 30.4531C40.9642 30.4998 40.9642 30.5466 40.9564 30.601C40.8084 30.5933 40.6681 30.5777 40.52 30.5699C40.52 30.5232 40.52 30.4765 40.5278 30.422L40.372 30.5543C40.1694 30.5232 40.4343 30.4609 40.2395 30.3986C39.8031 30.3675 39.3668 30.3364 38.9226 30.313C38.9226 30.2663 38.9226 30.2196 38.9304 30.1651C38.5797 30.0406 37.9408 30.2507 37.9018 30.243C37.9018 30.1962 37.9018 30.1495 37.9096 30.095C37.3719 30.0561 36.842 30.025 36.3044 29.9861C36.3044 29.9394 36.3044 29.8926 36.3121 29.8382C36.0706 29.8226 35.829 29.807 35.5797 29.7914C35.5797 29.7447 35.5797 29.698 35.5875 29.6435C35.1511 29.6124 34.7147 29.5813 34.2705 29.5579C33.8809 29.5346 33.4913 29.5034 33.1017 29.4801C33.1017 29.4334 33.1017 29.3866 33.1095 29.3322C33.0627 29.3322 33.016 29.3322 32.9614 29.3244C32.9614 29.3711 32.9614 29.4178 32.9536 29.4723C32.6108 29.4489 32.2757 29.4256 31.9328 29.4022C31.9328 29.3555 31.9328 29.3088 31.9406 29.2543C31.738 29.2465 31.6913 29.4723 31.3484 29.3633C31.3484 29.3166 31.3484 29.2699 31.3562 29.2154C30.8731 29.1842 30.3821 29.1531 29.899 29.1142C28.4964 29.0208 26.9535 29.0441 26.2522 28.8729C25.247 28.616 22.2157 28.5381 21.4287 28.6938C20.5559 28.6315 19.6754 28.5771 18.8027 28.5148C18.8027 28.5615 18.8027 28.6082 18.7949 28.6627C18.5143 28.7094 18.5923 28.5381 18.5143 28.4992C18.4676 28.4992 18.4208 28.4992 18.3663 28.4914C18.3663 28.5381 18.3663 28.5848 18.3585 28.6393C18.0156 28.616 17.6805 28.5926 17.3377 28.5693C17.3377 28.616 17.3377 28.6627 17.3299 28.7172C17.1818 28.7094 17.0416 28.6938 16.8935 28.686C16.8935 28.7327 16.8935 28.7795 16.8857 28.8339C16.7922 28.8339 16.6909 28.8184 16.5974 28.8106C16.5974 28.8573 16.5974 28.904 16.5896 28.9585C16.4416 28.9507 16.3013 28.9351 16.1532 28.9274C16.1532 28.9741 16.1532 29.0208 16.1454 29.0753C16.0519 29.0753 15.9506 29.0597 15.8571 29.0519C15.8026 29.1453 15.748 29.2387 15.6935 29.3322C15.5454 29.3244 15.4052 29.3088 15.2571 29.301C14.9376 29.7214 14.6181 30.134 14.2909 30.5543C13.2233 30.4843 12.148 30.4142 11.0804 30.3364C11.0804 30.3831 11.0804 30.4298 11.0726 30.4843C10.9323 30.4298 10.7843 30.3675 10.644 30.313C10.644 30.313 10.6206 30.4998 10.3401 30.4376C10.3401 30.3909 10.3401 30.3442 10.3479 30.2897L10.1921 30.422C10.0986 30.3675 10.005 30.313 9.91154 30.2585C9.81024 30.2974 9.70893 30.3442 9.60763 30.3831C9.58426 30.3831 9.56867 30.1807 9.32711 30.2196C9.32711 30.2663 9.32711 30.313 9.31931 30.3675C9.12451 30.3519 8.9297 30.3442 8.73489 30.3286C8.73489 30.3753 8.73489 30.422 8.72709 30.4765C8.5167 30.4687 8.78943 30.3675 8.59462 30.3208C8.39981 30.3052 8.205 30.2974 8.01019 30.2819C8.08033 29.301 8.2128 28.2812 8.48553 27.5339L8.42319 27.6118ZM2.21266 67.7568C2.29837 66.4724 2.43864 65.2891 2.74254 64.2771C2.82826 63.9813 2.62565 63.8334 2.62565 63.8334C2.61007 63.5454 2.78929 63.5531 2.78929 63.5531C2.8828 63.2106 2.65682 63.1561 2.6802 62.9615C2.72695 62.9615 2.77371 62.9615 2.82826 62.9693C2.8828 62.1908 2.92956 61.4124 2.9841 60.6339C3.03086 60.6339 3.07761 60.6339 3.13216 60.6417C3.15554 60.2992 3.17891 59.9645 3.20229 59.6219C3.24904 59.6219 3.2958 59.6219 3.35035 59.6297C3.32697 59.2405 3.30359 58.8435 3.28021 58.4542C3.32697 58.4542 3.37372 58.4542 3.42827 58.462C3.44385 58.174 3.46723 57.8782 3.49061 57.5902C3.53736 57.5902 3.58412 57.5902 3.63866 57.5979C3.67763 56.9674 3.72438 56.3368 3.76334 55.7063C3.76334 55.7063 3.93477 55.7452 3.92698 55.426C3.88023 55.426 3.83347 55.426 3.77893 55.4183C3.77893 55.3716 3.77893 55.3248 3.78672 55.2704C3.83347 55.2704 3.88023 55.2704 3.93477 55.2781C3.95036 55.0368 3.96594 54.7955 3.98153 54.5464C3.93477 54.5464 3.88802 54.5464 3.83347 54.5386C3.92698 53.1763 4.0127 51.814 4.10621 50.4595C4.70622 48.8325 5.30624 46.069 5.52442 44.551C5.47767 44.551 5.43091 44.551 5.37637 44.5432C5.43091 44.4498 5.48546 44.3564 5.54001 44.263C5.76599 43.1031 5.99197 41.951 6.21015 40.791C6.25691 40.2461 6.42055 39.6623 6.29587 39.4755C6.33483 39.094 6.38938 38.985 6.49068 38.7593C7.9011 38.806 9.31932 38.8527 10.7297 38.8994C10.7297 38.8527 10.7297 38.806 10.7375 38.7515C11.0648 38.7048 11.1661 38.9228 11.1661 38.9228C11.7505 38.9617 12.335 39.0006 12.9194 39.0395C13.1142 39.0551 13.309 39.0629 13.5038 39.0784C13.7064 39.0551 13.4571 38.9227 13.6597 38.9461C13.6597 38.9928 13.6597 39.0395 13.6519 39.094C14.0883 39.1252 14.5246 39.1563 14.9688 39.1796C14.9688 39.1329 14.9688 39.0862 14.9766 39.0317C15.0233 39.0317 15.0701 39.0317 15.1246 39.0395C15.1246 39.0862 15.1246 39.1329 15.1169 39.1874C15.5299 39.2964 16.2312 39.2886 16.4416 39.1329C17.0494 39.2497 17.1585 39.5299 17.5715 39.7946C17.5715 39.888 17.5559 39.9892 17.5481 40.0827C17.7429 40.1449 17.9299 40.2072 18.1247 40.2695C18.1637 40.3707 18.2104 40.4719 18.2494 40.5731C18.3429 40.5731 18.4442 40.5886 18.5377 40.5964C18.5377 40.6431 18.5377 40.6898 18.5299 40.7443C18.8182 40.8611 19.0988 40.9779 19.3871 41.0946C19.3871 41.1414 19.3871 41.1881 19.3793 41.2426C19.6676 41.3126 19.9559 41.3827 20.2442 41.445C20.2442 41.4917 20.2442 41.5384 20.2365 41.5929C20.8676 41.6863 21.491 41.7719 22.1222 41.8653C22.1222 41.912 22.1222 41.9587 22.1144 42.0132C22.2625 41.9743 22.4105 41.9354 22.5586 41.8965C22.5586 41.9432 22.5586 41.9899 22.5508 42.0444C22.8391 42.0599 23.1352 42.0833 23.4235 42.0989C23.4235 42.1456 23.4235 42.1923 23.4157 42.2468C23.7586 42.3635 23.8132 42.1144 24.008 42.1378C24.008 42.1845 24.008 42.2312 24.0002 42.2857C24.343 42.309 24.6781 42.3324 25.021 42.3557C25.021 42.4025 25.021 42.4492 25.0132 42.5037C25.1612 42.4647 25.3093 42.4258 25.4574 42.3869C25.4574 42.4336 25.4574 42.4803 25.4496 42.5348C25.6989 42.5037 25.9405 42.4725 26.1898 42.4414C26.1898 42.4881 26.1898 42.5348 26.182 42.5893C26.9613 42.5893 27.7483 42.5893 28.5276 42.5971C28.5276 42.5504 28.5276 42.5037 28.5353 42.4492C28.7302 42.5114 28.9172 42.5737 29.112 42.636C29.112 42.5893 29.112 42.5426 29.1198 42.4881C29.4704 42.4414 29.5016 42.6749 29.6964 42.6749C29.6964 42.6282 29.6964 42.5815 29.7042 42.527C30.0938 42.5037 30.4912 42.4803 30.8809 42.4569C30.8809 42.5037 30.8809 42.5504 30.8731 42.6049C30.9198 42.6049 30.9666 42.6049 31.0211 42.6126C31.0211 42.5659 31.0211 42.5192 31.0289 42.4647C32.0575 42.3246 32.5328 42.6282 33.5303 42.3402C33.6472 42.5114 33.5069 42.3635 33.6627 42.4959C33.3588 42.924 33.0316 42.8851 32.5952 43.1576C32.3302 43.43 32.0731 43.7103 31.8081 43.9827C31.6601 44.0216 31.512 44.0606 31.364 44.0995C31.3094 44.2396 31.2471 44.3875 31.1926 44.5276C30.8185 44.8546 30.8185 44.4109 30.5692 45.0726C30.4757 45.0726 30.3744 45.057 30.2808 45.0492C30.0938 45.6019 29.9224 45.4618 29.5016 45.7265C29.3925 45.8666 29.2912 46.0067 29.1821 46.1468C29.1354 46.1468 29.0886 46.1468 29.0341 46.1391C29.0341 46.2325 29.0185 46.3337 29.0107 46.4271C28.9172 46.5361 28.7146 46.5205 28.5509 46.6918C28.4574 46.6918 28.3561 46.6762 28.2626 46.6762C28.2626 46.7696 28.247 46.8708 28.2392 46.9642C27.9899 46.9954 27.7483 47.0265 27.499 47.0576C27.499 47.1043 27.499 47.151 27.4912 47.2055C27.234 47.3534 27.2808 47.2834 27.1717 47.6259C27.0782 47.6259 26.9769 47.6103 26.8834 47.6103C26.8834 47.657 26.8834 47.7038 26.8756 47.7582C26.5639 47.984 26.26 48.202 25.9483 48.4277C25.9483 48.5211 25.9327 48.6223 25.9249 48.7157C25.769 48.8014 25.621 48.887 25.4651 48.9804C25.4651 49.0738 25.4496 49.175 25.4418 49.2685C25.2937 49.3074 25.1457 49.3463 24.9976 49.3852C24.9353 49.5253 24.8807 49.6732 24.8262 49.8134C24.7794 49.8134 24.7327 49.8134 24.6781 49.8056C24.4521 50.0391 24.3119 50.1325 24.195 50.5062C23.5872 50.6307 24.0391 50.5918 23.7274 50.911C23.6807 50.911 23.6339 50.911 23.5794 50.9032C23.5794 50.9499 23.5794 50.9966 23.5716 51.0511C23.2054 51.3158 23.2989 50.8721 23.1041 51.4559C22.6053 51.526 22.3794 51.7284 22.0443 51.9697C22.0443 52.0164 22.0443 52.0631 22.0365 52.1176C21.8884 52.1565 21.7404 52.1954 21.5923 52.2344C21.5378 52.3745 21.4754 52.5224 21.4209 52.6625C21.2728 52.6547 21.1326 52.647 20.9845 52.6314C20.9845 52.6781 20.9845 52.7248 20.9767 52.7793C20.665 53.005 20.3611 53.223 20.0494 53.4488C20.0494 53.5422 20.0339 53.6434 20.0261 53.7368C19.6131 54.0482 19.2001 54.3673 18.7871 54.6787C18.7871 54.7721 18.7715 54.8733 18.7637 54.9668C18.6702 54.9668 18.5689 54.9512 18.4754 54.9434C18.413 55.0835 18.3585 55.2314 18.3039 55.3716C18.2572 55.3716 18.2104 55.3716 18.1559 55.3638C18.1559 55.4572 18.1403 55.5584 18.1325 55.6518C18.039 55.5973 17.9455 55.5428 17.852 55.4883C17.6961 55.6752 17.5325 55.8542 17.3766 56.041C17.2831 56.041 17.1818 56.0255 17.0883 56.0177C16.3169 56.4925 14.9922 57.6369 14.7116 58.6411C14.6181 58.6411 14.5168 58.6255 14.4233 58.6177C14.2051 59.2716 13.6363 59.5519 13.4415 60.1591C12.7791 60.2992 12.8804 60.6806 12.2259 60.813C11.9921 61.5214 11.3453 61.9729 10.9401 62.4867C10.9401 62.5801 10.9245 62.6813 10.9168 62.7747C10.6051 63.0004 10.3012 63.2184 9.98946 63.4442C9.92712 63.6388 9.86478 63.8256 9.80244 64.0202C9.59984 64.1526 9.39724 64.2849 9.18684 64.4172C9.17905 64.5651 9.16347 64.7053 9.15567 64.8532C8.99203 65.149 8.67255 65.5149 8.36864 65.6783C8.36864 66.052 8.34527 66.1843 8.46215 66.4179C8.50891 66.4179 8.55566 66.4179 8.61021 66.4257C8.72709 66.8694 8.84398 67.3209 8.96087 67.7646C7.96344 67.749 7.12186 67.9903 6.29587 68.1694C5.953 68.146 5.61793 68.1227 5.27507 68.0993C3.93477 68.0137 3.0932 67.8424 2.22045 67.749L2.21266 67.7568ZM43.3175 95.2519C43.3175 95.2986 43.3175 95.3453 43.3097 95.3998C43.2162 95.3453 43.1227 95.2908 43.0292 95.2364C42.7409 95.2208 42.4448 95.1974 42.1564 95.1741C42.1564 95.2208 42.1564 95.2675 42.1487 95.322C41.798 95.3843 41.759 95.1274 41.572 95.1352C41.572 95.1819 41.572 95.2286 41.5642 95.2831C40.3954 95.2052 39.2265 95.1274 38.0654 95.0495C38.0654 95.0962 38.0654 95.1429 38.0576 95.1974C37.5745 95.1663 37.0836 95.1352 36.6005 95.0962C36.6005 95.1429 36.6005 95.1897 36.5927 95.2441C36.1563 95.213 35.7199 95.1819 35.2758 95.1585C33.9355 95.4699 32.2991 95.4465 30.9822 95.7501C30.5458 95.719 30.1094 95.6879 29.6652 95.6645C29.6652 95.7112 29.6652 95.7579 29.6575 95.8124C28.9795 95.7657 28.2938 95.719 27.6158 95.6723C26.3067 95.9759 24.8418 95.7579 23.782 95.9992C22.6599 95.9759 21.5378 95.9448 20.4157 95.9214C20.4157 95.9681 20.4157 96.0148 20.4079 96.0693C20.2598 96.0615 20.1196 96.046 19.9715 96.0382C19.9715 96.0849 19.9715 96.1316 19.9637 96.1861C19.5741 96.2094 19.1767 96.2328 18.7871 96.2561C18.7871 96.3028 18.7871 96.3495 18.7793 96.404C18.7325 96.404 18.6858 96.404 18.6312 96.3963C18.6312 96.3496 18.6312 96.3028 18.639 96.2484C18.5923 96.2484 18.5455 96.2484 18.491 96.2406C18.491 96.2873 18.491 96.334 18.4832 96.3885C18.2884 96.3729 18.0935 96.3651 17.8987 96.3495C17.8987 96.3963 17.8987 96.443 17.8909 96.4975C17.6961 96.4819 17.5013 96.4741 17.3065 96.4585C17.3065 96.5052 17.3065 96.5519 17.2987 96.6064C17.0961 96.622 17.3611 96.5052 17.1663 96.4508C16.5351 96.4118 15.9039 96.3651 15.2727 96.3262C15.2727 96.3729 15.2727 96.4196 15.2649 96.4741C14.8909 96.552 14.7428 96.3184 14.548 96.2795C14.548 96.3262 14.548 96.3729 14.5402 96.4274C14.4935 96.4274 14.4467 96.4274 14.3922 96.4196C14.3922 96.3729 14.3922 96.3262 14.4 96.2717C14.0493 96.1783 14.0181 96.3807 13.8077 96.3807C13.6363 96.2717 13.8779 96.2172 13.6753 96.225C13.6753 96.2717 13.6753 96.3184 13.6675 96.3729C13.4571 96.3729 13.7298 96.2795 13.535 96.2172C13.2934 96.2016 13.0519 96.1861 12.8025 96.1705C12.8025 96.1238 12.8025 96.0771 12.8103 96.0226C12.7636 96.0226 12.7168 96.0226 12.6623 96.0148L12.5064 96.1472C12.3661 95.7891 12.2882 95.4933 12.1402 95.0962C12.0934 95.0962 12.0467 95.0962 11.9921 95.0885C12.0077 94.8471 12.0233 94.6058 12.0389 94.3567C11.9454 94.3022 11.8518 94.2477 11.7583 94.1932C11.7583 94.0998 11.7739 93.9986 11.7739 93.9052C11.7272 93.9052 11.6804 93.9052 11.6259 93.8974C11.6259 93.804 11.6414 93.7028 11.6492 93.6094C11.6025 93.6094 11.5557 93.6094 11.5012 93.6016C11.509 93.4537 11.5168 93.3136 11.5324 93.1657C11.4856 93.1657 11.4388 93.1657 11.3843 93.1579C11.3453 92.9633 11.3142 92.7609 11.2752 92.5663C11.2285 92.5663 11.1817 92.5663 11.1271 92.5585C11.1349 92.4106 11.1505 92.2704 11.1583 92.1225C11.0648 92.068 10.9713 92.0135 10.8778 91.9591C10.7609 91.5153 10.644 91.0638 10.5271 90.6201C10.4336 90.5656 10.3401 90.5111 10.2466 90.4566C10.2154 90.2075 10.1843 89.9662 10.1531 89.7171C10.1063 89.7171 10.0596 89.7171 10.005 89.7093C10.005 89.6159 10.0206 89.5147 10.0284 89.4213C9.93491 89.3668 9.84141 89.3123 9.7479 89.2578C9.66997 88.962 9.59205 88.6584 9.51412 88.3626C9.42062 88.3081 9.32711 88.2536 9.2336 88.1991C9.07775 87.6542 8.91411 87.1015 8.75826 86.5566C8.618 86.4476 8.47774 86.3464 8.33747 86.2374C8.34527 86.0895 8.36085 85.9494 8.36864 85.8015C8.32189 85.8015 8.27514 85.8015 8.22059 85.7937C8.22059 85.7003 8.23617 85.5991 8.23617 85.5056C8.14266 85.4511 8.04916 85.3967 7.95565 85.3422C7.95565 85.2487 7.97123 85.1476 7.97123 85.0541C7.92448 85.0541 7.87772 85.0541 7.82318 85.0463C7.83097 84.8984 7.84655 84.7583 7.85435 84.6104C7.80759 84.6104 7.76084 84.6104 7.70629 84.6026C7.70629 84.5092 7.72188 84.408 7.72967 84.3146C7.68291 84.3146 7.63616 84.3146 7.58161 84.3068C7.58161 84.2134 7.5972 84.1122 7.60499 84.0188C7.51148 83.9643 7.41797 83.9098 7.32446 83.8553C7.25433 83.4116 7.19199 82.9679 7.12186 82.5242C7.07511 82.5242 7.02835 82.5241 6.97381 82.5164C6.94264 82.2673 6.91147 82.0259 6.8803 81.7768C6.83354 81.7768 6.78679 81.7768 6.73224 81.7691C6.73224 81.6756 6.74783 81.5744 6.75562 81.481C6.70886 81.481 6.66211 81.481 6.60756 81.4732C6.57639 81.1774 6.55302 80.8816 6.52185 80.5858C6.47509 80.5858 6.42834 80.5858 6.37379 80.578C6.37379 80.4846 6.38938 80.3834 6.39717 80.29C6.35041 80.29 6.30366 80.29 6.24911 80.2822C6.00755 78.8031 5.76599 77.3241 5.52442 75.8372C5.47767 75.8372 5.43091 75.8372 5.37637 75.8294C5.3374 75.6348 5.30624 75.4324 5.26727 75.2378C5.22052 75.2378 5.17376 75.2378 5.11922 75.23C5.12701 75.0821 5.1348 74.942 5.15039 74.7941C5.05688 74.7396 4.96337 74.6851 4.86986 74.6306C4.86986 74.5372 4.88545 74.436 4.88545 74.3426C4.83869 74.3426 4.79194 74.3426 4.73739 74.3348C4.73739 74.2414 4.75298 74.1402 4.76077 74.0468C4.71401 74.0468 4.66726 74.0468 4.61271 74.039C4.61271 73.9455 4.6283 73.8443 4.6283 73.7509L4.35556 73.4396C4.35556 73.3461 4.37115 73.2449 4.37115 73.1515C4.27764 73.097 4.18413 73.0425 4.09062 72.9881C4.09062 72.8946 4.10621 72.7934 4.10621 72.7L3.83347 72.3886C3.83347 72.2952 3.84906 72.194 3.84906 72.1006C3.8023 72.1006 3.75555 72.1006 3.701 72.0928C3.66204 71.8982 3.63087 71.6958 3.59191 71.5012C3.54516 71.5012 3.4984 71.5012 3.44385 71.4934C3.45165 71.3455 3.46723 71.2054 3.47502 71.0575C3.42827 71.0575 3.38152 71.0575 3.32697 71.0497C3.32697 70.9563 3.34255 70.8551 3.34255 70.7617C3.2958 70.7617 3.24904 70.7617 3.1945 70.7539C3.16333 70.5048 3.13216 70.2635 3.10099 70.0143C3.05423 70.0143 3.00748 70.0143 2.95293 70.0066C2.96852 69.8119 2.97631 69.6173 2.9919 69.4227C4.05166 69.8976 6.14002 69.7574 7.09069 69.5473C7.6985 69.4149 8.17383 69.6796 8.57125 69.3526C8.91411 69.376 9.24918 69.3994 9.59205 69.4227C9.7401 69.5161 9.75569 69.9832 9.83361 70.17C9.88037 70.17 9.92712 70.17 9.98167 70.1778C9.97388 70.3257 9.95829 70.4658 9.9505 70.6138C10.044 70.6682 10.1375 70.7227 10.231 70.7772C10.2154 70.9718 10.2076 71.1665 10.1921 71.3611C10.2388 71.3611 10.2856 71.3611 10.3401 71.3689C10.3323 71.5168 10.3167 71.6569 10.3089 71.8048C10.3557 71.8048 10.4025 71.8048 10.457 71.8126C10.457 71.906 10.4414 72.0072 10.4336 72.1006C10.4804 72.1006 10.5271 72.1006 10.5817 72.1084C10.6129 72.4042 10.6362 72.7 10.6674 72.9958C10.7609 73.0503 10.8544 73.1048 10.9479 73.1593C10.9791 73.4551 11.0025 73.7509 11.0336 74.0468C11.1271 74.1012 11.2207 74.1557 11.3142 74.2102C11.2986 74.4048 11.2908 74.5995 11.2752 74.7941C11.322 74.7941 11.3687 74.7941 11.4233 74.8018C11.4233 74.8953 11.4077 74.9965 11.3999 75.0899C11.4466 75.0899 11.4934 75.0899 11.5479 75.0977C11.5401 75.2456 11.5246 75.3857 11.5168 75.5336C11.5635 75.5336 11.6103 75.5336 11.6648 75.5414C11.657 75.6893 11.6414 75.8294 11.6337 75.9773C11.6804 75.9773 11.7272 75.9773 11.7817 75.9851C11.7817 76.0318 11.7817 76.0785 11.7739 76.133C11.9142 76.1875 12.0622 76.2498 12.2025 76.3043C12.2415 77.2618 13.0285 77.6277 13.6986 78.0169C13.761 78.0792 13.6441 78.2582 13.8311 78.1726C13.8311 78.1259 13.8311 78.0792 13.8389 78.0247C14.135 78.0947 13.9714 78.048 14.1194 78.1881C14.8207 78.157 15.8026 77.1528 15.9896 76.5534C16.0831 76.5534 16.1844 76.569 16.2779 76.5767C16.652 75.4791 17.9922 75.1366 18.3507 74.0779C18.4442 74.0779 18.5455 74.0935 18.639 74.1012C18.8104 73.6108 18.9741 73.7509 19.1377 73.2527C19.2312 73.2527 19.3325 73.2683 19.426 73.2761C19.4806 73.1359 19.5429 72.988 19.5975 72.8479C19.7533 72.7623 19.9014 72.6767 20.0572 72.5832C20.0572 72.4898 20.0728 72.3886 20.0806 72.2952C20.4936 71.9838 20.9066 71.6647 21.3196 71.3533C21.3196 71.2599 21.3352 71.1587 21.343 71.0653C21.5456 70.9329 21.7482 70.8006 21.9586 70.6682C21.9664 70.5203 21.9742 70.3802 21.9897 70.2323C22.0365 70.2323 22.0833 70.2323 22.1378 70.2401C22.2469 70.1 22.3482 69.9598 22.4573 69.8197C23.3768 69.9287 24.2963 70.0377 25.2236 70.1545C25.2236 70.2012 25.2236 70.2479 25.2158 70.3024C25.4184 70.3257 25.1612 70.1622 25.3716 70.17C25.5119 70.2323 25.66 70.2868 25.8002 70.3491C26.3301 70.4659 27.2028 70.2557 27.4132 70.3102C27.4132 70.3569 27.4132 70.4036 27.4054 70.4581C27.7483 70.4347 28.0912 70.4036 28.434 70.3802C28.434 70.3335 28.434 70.2868 28.4418 70.2323C28.5353 70.2868 28.6289 70.3413 28.7224 70.3958C28.7224 70.3491 28.7224 70.3024 28.7302 70.2479C28.9717 70.2634 29.2133 70.279 29.4626 70.2946C29.4626 70.2479 29.4626 70.2012 29.4704 70.1467C29.5639 70.2012 29.6575 70.2557 29.751 70.3102C29.751 70.3102 29.8912 70.1077 30.1951 70.1934C30.1951 70.2401 30.1951 70.2868 30.1873 70.3413C30.4912 70.4036 30.4912 70.2167 30.4912 70.2167C31.1692 70.2634 31.8549 70.3102 32.5328 70.3569C32.5328 70.3102 32.5328 70.2635 32.5406 70.209C32.9303 70.2323 33.3199 70.2635 33.7095 70.2868C33.7095 70.2401 33.7095 70.1934 33.7173 70.1389C33.764 70.1389 33.8108 70.1389 33.8653 70.1467C33.8653 70.1934 33.8653 70.2401 33.8575 70.2946C34.1537 70.2635 34.4498 70.2401 34.7459 70.209C34.7459 70.1622 34.7459 70.1155 34.7537 70.0611C35.0965 69.9988 35.1433 70.2634 35.3303 70.2479C35.3303 70.2012 35.3303 70.1545 35.3381 70.1C35.5329 70.1233 35.8134 70.388 36.2031 70.3024C36.2031 70.2557 36.2031 70.209 36.2108 70.1545C36.6005 70.1778 36.9901 70.209 37.3797 70.2323C37.3797 70.1856 37.3797 70.1389 37.3875 70.0844C37.4343 70.0844 37.481 70.0844 37.5356 70.0922C37.5356 70.1389 37.5356 70.1856 37.5278 70.2401C38.4629 70.1545 39.3979 70.0688 40.333 69.991C41.4551 70.0143 42.5772 70.0455 43.6993 70.0688C43.6993 70.0221 43.6993 69.9754 43.7071 69.9209C44.05 69.9443 44.3851 69.9676 44.7279 69.991C44.7279 69.9443 44.7279 69.8976 44.7357 69.8431C45.1253 69.8664 45.515 69.8976 45.9046 69.9209C45.9046 69.8742 45.9046 69.8275 45.9124 69.773C46.2552 69.7964 46.5903 69.8197 46.9332 69.8431C46.9332 69.7964 46.9332 69.7497 46.941 69.6952C47.0345 69.7497 47.128 69.8042 47.2215 69.8587C47.2215 69.8119 47.2215 69.7652 47.2293 69.7107C47.3228 69.7107 47.4241 69.7263 47.5176 69.7341C47.5176 69.6874 47.5176 69.6407 47.5254 69.5862L47.6579 69.7419C48.2423 69.7341 48.8345 69.7263 49.4189 69.7107C49.3956 69.9988 49.38 70.2946 49.3566 70.5826C49.3099 70.5826 49.2631 70.5826 49.2086 70.5748C49.2086 70.6215 49.2086 70.6682 49.2008 70.7227C49.2475 70.7227 49.2943 70.7227 49.3488 70.7305C49.3332 70.9251 49.3254 71.1198 49.3099 71.3144C49.3021 71.3533 49.115 71.3455 49.1462 71.5946C49.193 71.5946 49.2397 71.5946 49.2943 71.6024C49.2553 72.1862 49.2164 72.7701 49.1774 73.3539C49.2241 73.3539 49.2709 73.3539 49.3254 73.3617C49.3099 73.5563 49.3021 73.7509 49.2865 73.9455C49.3332 73.9455 49.38 73.9455 49.4345 73.9533C49.4189 74.1947 49.4034 74.436 49.3878 74.6851C49.4345 74.6851 49.4813 74.6851 49.5358 74.6929C49.4969 75.23 49.4657 75.7594 49.4267 76.2965C49.7229 77.5965 49.5203 78.8732 49.7696 79.9786C49.7306 81.9792 49.6995 83.9799 49.6605 85.9727C49.8397 86.7667 49.8319 87.7398 49.7696 88.7596C49.7384 89.2422 49.7073 89.7327 49.6683 90.2153C49.7151 90.2153 49.7618 90.2153 49.8164 90.2231C49.8086 90.371 49.793 90.5111 49.7852 90.659C49.7384 90.659 49.6917 90.659 49.6371 90.6512C49.6371 90.698 49.6371 90.7447 49.6293 90.7991C49.6761 90.7991 49.7229 90.7992 49.7774 90.8069C49.754 91.1495 49.7306 91.4842 49.7073 91.8267C49.754 91.8267 49.8008 91.8267 49.8553 91.8345C49.8397 92.0758 49.8242 92.3171 49.8086 92.5663C49.8553 92.5663 49.9021 92.5662 49.9566 92.574C49.9333 92.9166 49.9099 93.2513 49.8865 93.5938C49.9332 93.5938 49.98 93.5938 50.0345 93.6016C50.0112 93.9908 49.98 94.3801 49.9566 94.7693C50.0034 94.7693 50.0501 94.7693 50.1047 94.7771C50.1359 95.0262 50.167 95.2675 50.1982 95.5166C47.9072 95.4621 45.6163 95.4076 43.3175 95.3531V95.2519ZM50.6813 46.5438C50.6579 46.9331 50.6268 47.3223 50.6034 47.7115C50.6502 47.7115 50.6969 47.7115 50.7514 47.7193C50.7514 47.766 50.7515 47.8127 50.7437 47.8672C50.6969 47.8672 50.6502 47.8672 50.5956 47.8594C50.5411 48.6379 50.4943 49.4164 50.4398 50.1948C50.4787 50.3427 50.5177 50.4906 50.5566 50.6385C50.5099 50.6385 50.4631 50.6385 50.4086 50.6308C50.3696 51.2146 50.3307 51.7984 50.2917 52.3823C50.3385 52.3823 50.3852 52.3823 50.4398 52.3901C50.4398 52.4368 50.4398 52.4835 50.432 52.538C50.3852 52.538 50.3385 52.538 50.2839 52.5302C50.2839 52.5769 50.2839 52.6236 50.2761 52.6781C50.3229 52.6781 50.3696 52.6781 50.4242 52.6859C50.4242 52.7326 50.4242 52.7793 50.4164 52.8338C50.3696 52.8338 50.3229 52.8338 50.2683 52.826C50.2605 52.9739 50.2527 53.114 50.2372 53.2619C50.2839 53.2619 50.3307 53.2619 50.3852 53.2697C50.3229 53.4098 50.2683 53.5578 50.2138 53.6979C50.2527 53.7991 50.2995 53.9003 50.3385 54.0015C50.3385 54.0015 50.1359 54.056 50.1748 54.2817C50.2216 54.2817 50.2683 54.2817 50.3229 54.2895C50.2605 55.1614 50.206 56.041 50.1436 56.9129C50.1904 56.9129 50.2372 56.9129 50.2917 56.9207C50.2372 57.0608 50.1748 57.2087 50.1203 57.3488C50.167 57.3488 50.2138 57.3488 50.2683 57.3566C50.2449 57.6991 50.2216 58.0339 50.1982 58.3764C50.1436 58.4698 50.0891 58.5632 50.0345 58.6566C50.0813 58.6566 50.1281 58.6566 50.1826 58.6644C50.167 58.859 50.1592 59.0537 50.1436 59.2483C50.0969 59.2483 50.0501 59.2483 49.9956 59.2405C49.98 59.4429 50.1125 59.1938 50.1281 59.3962C50.0891 60.0267 50.0423 60.6573 50.0034 61.2878C49.9566 61.2878 49.9099 61.2878 49.8553 61.28C49.7073 61.6848 49.9255 62.6657 49.9021 62.7513C49.8553 62.7513 49.8086 62.7513 49.754 62.7435C49.6839 63.0316 49.6216 63.3196 49.5514 63.6076C49.5982 63.6076 49.6449 63.6076 49.6995 63.6154C49.6449 63.7088 49.5904 63.8022 49.5358 63.8957C49.5358 63.8957 49.7073 63.9891 49.6527 64.3394C49.5982 64.4328 49.5436 64.5262 49.4891 64.6196C49.5358 64.6196 49.5826 64.6196 49.6371 64.6274C49.6293 64.7753 49.6138 64.9154 49.606 65.0634C49.6527 65.0634 49.6995 65.0633 49.754 65.0711C49.6839 65.3592 49.6216 65.6472 49.5514 65.9352C49.5982 65.9352 49.6449 65.9352 49.6995 65.943C49.793 66.4801 49.6138 66.9861 49.7462 67.4143C49.7462 67.461 49.7462 67.5077 49.7384 67.5622C49.6371 67.6011 49.5358 67.6478 49.4345 67.6868C49.4345 67.7802 49.4189 67.8814 49.4112 67.9748C47.4786 67.858 45.5617 67.9981 43.9643 68.3407C43.4811 68.3095 42.9902 68.2784 42.5071 68.2395C40.598 68.652 38.7356 68.2005 36.9122 68.5975C36.1329 68.5431 35.3537 68.4963 34.5744 68.4419C34.5744 68.4886 34.5744 68.5353 34.5667 68.5898C34.3329 68.6287 34.2939 68.4263 34.2861 68.4263C34.2394 68.4263 34.1926 68.4263 34.1381 68.4185C34.1381 68.4652 34.1381 68.5119 34.1303 68.5664C33.6939 68.5353 33.2575 68.5041 32.8134 68.4808C32.8134 68.5275 32.8134 68.5742 32.8056 68.6287C32.6108 68.6131 32.416 68.6053 32.2211 68.5898C32.2211 68.6365 32.2211 68.6832 32.2134 68.7377C31.6757 68.6987 31.1458 68.6676 30.6081 68.6287C30.6081 68.582 30.6081 68.5353 30.6159 68.4808C30.5692 68.4808 30.5224 68.4808 30.4679 68.473C30.4679 68.5197 30.4679 68.5664 30.4601 68.6209C29.9769 68.5898 29.486 68.5586 29.0029 68.5197C29.0029 68.5664 29.0029 68.6131 28.9951 68.6676C28.6055 68.6443 28.2159 68.6131 27.8262 68.5898C27.8262 68.6365 27.8262 68.6832 27.8184 68.7377C27.5769 68.7221 27.3353 68.7065 27.086 68.691C27.086 68.7377 27.086 68.7844 27.0782 68.8389C27.0314 68.8389 26.9847 68.8389 26.9301 68.8311C26.821 68.7377 26.9457 68.6443 26.6496 68.6676C26.6496 68.7143 26.6496 68.761 26.6418 68.8155C26.595 68.8155 26.5483 68.8155 26.4937 68.8077C26.4937 68.761 26.4937 68.7143 26.5015 68.6598C25.6288 68.3718 24.5534 68.9089 24.0313 68.3484C23.9378 68.3484 23.8365 68.3329 23.743 68.3251C23.743 68.2784 23.743 68.2317 23.7508 68.1772C24.1249 67.9748 23.8521 68.0137 24.0703 67.7568C24.3275 67.5778 24.5846 67.3987 24.8418 67.2197C24.8418 67.1263 24.8573 67.0251 24.8651 66.9316C25.021 66.846 25.169 66.7604 25.3249 66.667C25.3249 66.5736 25.3405 66.4724 25.3483 66.3789C25.4496 66.34 25.5509 66.2933 25.6522 66.2544C25.6522 66.161 25.6677 66.0598 25.6677 65.9664C25.769 65.9274 25.8704 65.8807 25.9717 65.8418C26.0262 65.7017 26.0885 65.5538 26.1431 65.4137C26.4548 65.1879 26.7587 64.9699 27.0704 64.7442C27.0704 64.6508 27.086 64.5496 27.0938 64.4562C27.2964 64.3238 27.499 64.1915 27.7094 64.0591C27.7094 63.9657 27.7249 63.8645 27.7249 63.7711C27.8262 63.7322 27.9275 63.6855 28.0288 63.6466C28.4107 63.2963 28.8237 62.9927 28.9951 62.3932C29.0886 62.3932 29.1899 62.4088 29.2834 62.4088C29.4081 62.0196 29.5016 62.0896 29.6263 61.7004C30.2497 61.5836 30.3899 61.21 30.7172 60.7507C30.764 60.7507 30.8107 60.7507 30.8653 60.7585C30.8653 60.6651 30.8809 60.5639 30.8886 60.4705C31.0367 60.4315 31.1848 60.3926 31.3328 60.3537C31.5432 60.1201 31.7536 59.8944 31.964 59.6609C32.0653 59.6219 32.1666 59.5752 32.2679 59.5363C32.2679 59.4429 32.2835 59.3417 32.2835 59.2483C32.5406 59.0692 32.7978 58.8902 33.0549 58.7111C33.0549 58.6177 33.0705 58.5165 33.0783 58.4231C33.1718 58.4231 33.2731 58.4387 33.3666 58.4387C33.5848 57.8159 33.8576 57.9716 34.1537 57.6135C34.2082 57.4734 34.2705 57.3255 34.3251 57.1854C34.4264 57.1464 34.5277 57.0997 34.629 57.0608C34.629 56.9674 34.6446 56.8662 34.6446 56.7728C34.9563 56.547 35.2602 56.3291 35.5719 56.1033C35.5719 56.0099 35.5875 55.9087 35.5875 55.8153C35.9459 55.5428 36.3044 55.2781 36.6706 55.0057C36.6706 54.9123 36.6862 54.8111 36.6862 54.7177C36.9433 54.5386 37.2005 54.3596 37.4576 54.1805C37.4576 54.0871 37.4732 53.9859 37.481 53.8925C37.7304 53.7602 37.9875 53.6356 38.2369 53.5033C38.2992 53.3086 38.3615 53.1218 38.4239 52.9272C38.5719 52.8883 38.72 52.8493 38.8681 52.8104C39.133 52.538 39.3901 52.2577 39.6551 51.9853C39.7486 51.9853 39.8499 52.0008 39.9434 52.0086C40.0993 51.5571 40.2629 51.5571 40.5746 51.3158C40.5746 51.2691 40.5746 51.2224 40.5824 51.1679C40.7304 51.129 40.8785 51.09 41.0265 51.0511C41.0265 50.9577 41.0421 50.8565 41.0499 50.7631C41.1434 50.7631 41.2447 50.7787 41.3382 50.7787C41.4006 50.6385 41.4551 50.4906 41.5097 50.3505C41.6032 50.3505 41.7045 50.3661 41.798 50.3739C41.9071 50.187 42.0162 50.0002 42.1253 49.8134C42.2188 49.8134 42.3201 49.8289 42.4136 49.8289C42.6396 49.1906 43.0058 49.3463 43.224 48.708C43.3175 48.708 43.4188 48.7235 43.5123 48.7235C43.5201 48.5756 43.5279 48.4355 43.5435 48.2876C43.6915 48.2487 43.8396 48.2097 43.9877 48.1708C44.0422 48.0307 44.1045 47.8828 44.1591 47.7427C44.2058 47.7427 44.2526 47.7427 44.3071 47.7505C44.4942 47.5481 44.5331 47.5014 44.6344 47.19C44.7279 47.19 44.8292 47.2055 44.9227 47.2055C45.1643 46.5205 45.6552 46.6295 45.889 45.9522C45.9825 45.9522 46.0838 45.9678 46.1773 45.9756C46.1773 45.8822 46.1929 45.781 46.2007 45.6875C46.302 45.6486 46.4033 45.6019 46.5046 45.563C46.8085 45.2672 47.1514 45.0492 47.2994 44.5899C47.954 44.4654 48.9904 43.3522 49.3254 42.8228C49.4189 42.8228 49.5202 42.8384 49.6138 42.8462C49.7696 42.3635 50.6034 41.6707 51.0242 41.4761C51.0242 41.4294 51.0242 41.3827 51.032 41.3282C51.0787 41.3282 51.1255 41.3282 51.18 41.336C50.8138 42.7995 50.7982 44.8624 50.6813 46.575V46.5438ZM92.4875 70.1311C92.4719 70.3724 92.4563 70.6138 92.4407 70.8629C92.3394 70.9018 92.2381 70.9485 92.1368 70.9874C92.129 71.1353 92.1134 71.2754 92.1057 71.4233C92.0589 71.4233 92.0122 71.4233 91.9576 71.4156C91.9498 71.5635 91.9342 71.7036 91.9264 71.8515C91.8797 71.8515 91.8329 71.8515 91.7784 71.8437C91.5914 72.4665 91.4043 73.0892 91.2173 73.712C91.1706 73.712 91.1238 73.712 91.0693 73.7042C91.0693 73.7976 91.0537 73.8988 91.0459 73.9923C90.9991 73.9923 90.9524 73.9923 90.8978 73.9845C90.7654 74.5605 90.6251 75.1366 90.4926 75.7126C90.4459 75.7126 90.3991 75.7126 90.3446 75.7049C90.3446 75.7983 90.329 75.8995 90.3212 75.9929C90.2745 75.9929 90.2277 75.9929 90.1731 75.9851C90.0952 76.3743 90.0251 76.7558 89.9472 77.145C89.9004 77.145 89.8537 77.145 89.7991 77.1372C89.7913 77.2851 89.7835 77.4253 89.7679 77.5732C89.7212 77.5732 89.6744 77.5732 89.6199 77.5654C89.6043 77.8067 89.5887 78.048 89.5731 78.2971C89.5264 78.2971 89.4796 78.2971 89.4251 78.2893C89.4251 78.3828 89.4095 78.484 89.4017 78.5774C89.3549 78.5774 89.3082 78.5774 89.2536 78.5696C89.2381 78.7642 89.2303 78.9588 89.2147 79.1534C89.1679 79.1534 89.1212 79.1534 89.0666 79.1456C89.0043 79.3403 88.9419 79.5271 88.8796 79.7217C88.8329 79.7217 88.7861 79.7217 88.7316 79.7139C88.5991 80.1966 88.4744 80.6714 88.3419 81.1541C88.2406 81.193 88.1393 81.2397 88.038 81.2786C88.0147 81.6211 87.9913 81.9559 87.9679 82.2984C87.8666 82.3373 87.7653 82.384 87.664 82.423C87.6484 82.6643 87.6328 82.9056 87.6172 83.1547C87.5705 83.1547 87.5237 83.1547 87.4692 83.1469C87.4692 83.2403 87.4536 83.3415 87.4458 83.4349C87.3991 83.4349 87.3523 83.4349 87.2978 83.4272C87.29 83.5751 87.2744 83.7152 87.2666 83.8631C87.2198 83.8631 87.1731 83.8631 87.1185 83.8553C87.0406 84.2445 86.9705 84.626 86.8926 85.0152C86.7913 85.0541 86.69 85.1008 86.5887 85.1398C86.5887 85.2332 86.5731 85.3344 86.5653 85.4278C86.5185 85.4278 86.4718 85.4278 86.4172 85.42C86.4094 85.5679 86.3938 85.708 86.386 85.8559C86.3393 85.8559 86.2925 85.8559 86.238 85.8482C86.2302 85.9961 86.2146 86.1362 86.2068 86.2841C86.1601 86.2841 86.1133 86.2841 86.0588 86.2763C86.051 86.4242 86.0354 86.5643 86.0276 86.7122C85.9808 86.7122 85.9341 86.7122 85.8795 86.7045C85.8562 86.9925 85.8406 87.2883 85.8172 87.5763C85.7704 87.5763 85.7237 87.5763 85.6692 87.5686C85.6692 87.662 85.6536 87.7632 85.6458 87.8566C85.599 87.8566 85.5523 87.8566 85.4977 87.8488C85.4743 88.1913 85.451 88.5261 85.4276 88.8686C85.1782 89.5147 84.812 90.371 84.5548 91.0093C84.5393 91.2507 84.5237 91.492 84.5081 91.7411C84.4613 91.7411 84.4146 91.7411 84.36 91.7333C84.3444 91.9279 84.3366 92.1225 84.3211 92.3171C84.2743 92.3171 84.2276 92.3171 84.173 92.3094C84.1652 92.4573 84.1496 92.5974 84.1418 92.7453C84.0951 92.7453 84.0483 92.7453 83.9938 92.7375C83.986 92.8854 83.9782 93.0255 83.9626 93.1734C83.9159 93.1734 83.8691 93.1734 83.8146 93.1657C83.8068 93.3136 83.7912 93.4537 83.7834 93.6016C83.7366 93.6016 83.6899 93.6016 83.6353 93.5938C83.5496 94.1232 83.4639 94.6603 83.3782 95.1897C83.2769 95.2286 83.1756 95.2753 83.0743 95.3142C83.0119 95.5088 82.9496 95.6956 82.8873 95.8903C82.3028 95.898 81.7106 95.9058 81.1262 95.9214C81.1262 95.9681 81.1262 96.0148 81.1184 96.0693C80.9781 96.007 80.8301 95.9525 80.6898 95.898C80.3469 95.8747 80.0119 95.8513 79.669 95.828C79.669 95.8747 79.669 95.9214 79.6612 95.9759C79.6145 95.9759 79.5677 95.9759 79.5132 95.9681C79.5132 95.9214 79.5132 95.8747 79.521 95.8202C79.4197 95.8591 79.3184 95.9058 79.2171 95.9448C79.2171 95.898 79.217 95.8513 79.2248 95.7968C79.1781 95.7968 79.1313 95.7969 79.0768 95.7891C79.0768 95.8358 79.0768 95.8825 79.069 95.937C77.2222 95.8124 75.3754 95.6879 73.5208 95.5633C73.5208 95.61 73.5208 95.6567 73.513 95.7112C73.3728 95.6567 73.2247 95.5945 73.0844 95.54C73.0844 95.5867 73.0844 95.6334 73.0766 95.6879C72.1026 95.8436 69.8116 95.213 68.409 95.3765C68.409 95.4232 68.409 95.4699 68.4012 95.5244C68.3077 95.4699 68.2142 95.4154 68.1207 95.3609C66.757 95.2675 65.3933 95.1819 64.0375 95.0885C63.0478 95.2986 61.5595 94.8316 60.3828 94.9873C59.6114 95.0884 57.5932 95.0417 56.4165 95.1585C56.5334 94.092 56.6581 93.0255 56.775 91.9591C56.8217 91.9591 56.8685 91.9591 56.923 91.9668C56.9776 91.1417 57.0321 90.3165 57.0867 89.4913C57.0867 89.4913 57.2581 89.5303 57.2503 89.2111C57.2036 89.2111 57.1568 89.2111 57.1022 89.2033C57.1022 89.1566 57.1022 89.1099 57.11 89.0554C57.1568 89.0554 57.2036 89.0554 57.2581 89.0632C57.6399 87.7787 57.2815 85.9883 57.6867 84.8439C57.7958 83.2403 57.9049 81.6367 58.0062 80.0331C57.9672 79.9319 57.9204 79.8307 57.8815 79.7295C57.9282 79.7295 57.975 79.7295 58.0295 79.7373C58.0607 79.3013 58.0919 78.8654 58.1153 78.4217C58.162 78.4217 58.2088 78.4217 58.2633 78.4295C58.3023 77.7989 58.349 77.1684 58.388 76.5378C58.4347 76.5378 58.4815 76.5378 58.5361 76.5456C58.5594 76.2576 58.575 75.9618 58.5984 75.6737C58.5516 75.6737 58.5049 75.6737 58.4503 75.6659C58.5049 75.5258 58.5672 75.3779 58.6218 75.2378C58.6451 74.9498 58.6607 74.6539 58.6841 74.3659C58.6373 74.3659 58.5906 74.3659 58.5361 74.3581C58.5361 74.3114 58.536 74.2647 58.5438 74.2102C58.5906 74.2102 58.6373 74.2102 58.6919 74.218C58.7231 73.7821 58.7542 73.3461 58.7776 72.9024C58.7309 72.9024 58.6841 72.9024 58.6296 72.8946C58.6296 72.8479 58.6296 72.8012 58.6373 72.7467C58.6841 72.7467 58.7309 72.7467 58.7854 72.7545C58.8322 72.0228 58.8867 71.2988 58.9335 70.567C58.9802 70.567 59.027 70.567 59.0815 70.5748C59.2062 70.1467 59.3309 69.7107 59.4633 69.2826C59.8062 69.3527 60.4919 69.5161 61.0686 69.3916C61.0686 69.3449 61.0686 69.2982 61.0764 69.2437C61.4192 69.267 61.7543 69.2904 62.0972 69.3137C62.0972 69.267 62.0972 69.2203 62.105 69.1658C62.5959 69.1503 63.0868 69.1347 63.5777 69.1191C63.5777 69.1658 63.5777 69.2125 63.5699 69.267C63.8193 69.2359 64.0609 69.2047 64.3102 69.1736C64.3102 69.1269 64.3102 69.0802 64.318 69.0257C64.3648 69.0257 64.4115 69.0257 64.4661 69.0335C64.4661 69.0802 64.4661 69.1269 64.4583 69.1814C64.6063 69.1425 64.7544 69.1035 64.9024 69.0646C64.9024 69.1113 64.9024 69.158 64.8946 69.2125C65.1362 69.2281 65.3778 69.2437 65.6271 69.2592C65.6271 69.2125 65.6271 69.1658 65.6349 69.1113C66.0245 69.1347 66.4142 69.1658 66.8038 69.1892C66.8038 69.1425 66.8038 69.0958 66.8116 69.0413C67.2479 69.0724 67.6843 69.1035 68.1285 69.1269C68.183 69.0335 68.2376 68.9401 68.2921 68.8467C68.7285 68.8778 69.1649 68.9089 69.609 68.9323C69.609 68.8856 69.609 68.8389 69.6168 68.7844C69.8116 68.7999 70.0064 68.8077 70.2013 68.8233C70.2013 68.7766 70.2013 68.7299 70.209 68.6754C70.5519 68.6987 70.887 68.7221 71.2299 68.7455C71.2299 68.6987 71.2299 68.652 71.2376 68.5975C71.3312 68.652 71.4247 68.7065 71.5182 68.761C71.5182 68.7143 71.5182 68.6676 71.526 68.6131C71.9623 68.6443 72.3987 68.6754 72.8429 68.6987C72.8429 68.652 72.8429 68.6053 72.8507 68.5508C72.8974 68.5508 72.9442 68.5508 72.9987 68.5586C72.9987 68.6053 72.9987 68.652 72.9909 68.7065C73.0377 68.7065 73.0844 68.7065 73.139 68.7143C73.139 68.6676 73.139 68.6209 73.1468 68.5664C73.5832 68.5975 74.0195 68.6287 74.4637 68.652C74.4637 68.6053 74.4637 68.5586 74.4715 68.5041C74.6741 68.4808 74.4481 68.5353 74.604 68.6598C74.752 68.6209 74.9001 68.582 75.0481 68.5431C75.0481 68.5431 75.1494 68.7688 75.4767 68.7221C75.4767 68.6754 75.4767 68.6287 75.4845 68.5742C76.4118 68.6365 77.3313 68.6987 78.2586 68.761C78.2586 68.7143 78.2586 68.6676 78.2664 68.6131C78.4534 68.5975 78.4924 68.87 78.843 68.7999C78.843 68.7532 78.843 68.7065 78.8508 68.652C79.0924 68.6676 79.3339 68.6832 79.5833 68.6987C79.5833 68.652 79.5833 68.6053 79.5911 68.5508C79.7859 68.5664 79.9807 68.5742 80.1755 68.5898C80.1755 68.6365 80.1755 68.6832 80.1677 68.7377C80.4327 68.7922 80.4716 68.6131 80.4716 68.6131C80.7054 68.5898 80.7288 68.7766 80.7522 68.7766C80.7677 68.7766 81.2119 68.6365 81.4924 68.6832C81.4924 68.7299 81.4924 68.7766 81.4846 68.8311C81.5314 68.8311 81.5781 68.8311 81.6327 68.8389C81.6327 68.7922 81.6327 68.7455 81.6405 68.691C82.2249 68.7299 82.8093 68.7688 83.3938 68.8077C83.3938 68.761 83.3938 68.7143 83.4016 68.6598C83.4483 68.6598 83.4951 68.6598 83.5496 68.6676C83.5496 68.7143 83.5496 68.761 83.5418 68.8155C83.8301 68.8389 84.1263 68.8544 84.4146 68.8778C84.4146 68.8311 84.4146 68.7844 84.4224 68.7299C84.7652 68.7532 85.1003 68.7766 85.4432 68.7999C85.4432 68.7532 85.4432 68.7065 85.451 68.652C85.4977 68.652 85.5445 68.652 85.599 68.6598C85.7549 68.7999 85.5289 68.7999 85.7315 68.8155C85.9341 68.8311 85.6769 68.691 85.8873 68.6832C85.9808 68.7377 86.0744 68.7922 86.1679 68.8467C86.5185 68.8934 86.5497 68.7377 86.7601 68.7377C86.8692 68.8311 86.7445 68.9323 87.0406 68.9011C87.0406 68.8544 87.0406 68.8077 87.0484 68.7532C87.0952 68.7532 87.1419 68.7532 87.1965 68.761C87.1965 68.8077 87.1965 68.8544 87.1887 68.9089C87.2354 68.9089 87.2822 68.9089 87.3367 68.9167C87.3367 68.87 87.3367 68.8233 87.3445 68.7688C87.4848 68.8233 87.6328 68.8856 87.7731 68.9401C87.7731 68.8934 87.7731 68.8467 87.7809 68.7922C87.8276 68.7922 87.8744 68.7922 87.9289 68.7999C87.9289 68.8466 87.9289 68.8934 87.9212 68.9479C89.0433 68.9245 90.1731 68.9011 91.2953 68.8778C91.3342 68.979 91.381 69.0802 91.4199 69.1814C91.5602 69.2359 91.7083 69.2982 91.8485 69.3526C91.8485 69.3994 91.8485 69.4461 91.8407 69.5006C92.0901 69.7185 92.1134 69.7497 92.5498 69.8431C92.4719 70.1389 92.3862 70.1155 92.3862 70.1233L92.4875 70.1311ZM91.6615 67.1496C91.6615 67.243 91.6459 67.3442 91.6381 67.4376C90.5082 67.4999 88.4978 67.243 86.8068 67.4065C85.6692 67.5155 84.2198 67.0173 83.2925 67.3209L83.16 67.1652C83.1132 67.1652 83.0665 67.1652 83.0119 67.1574C83.0119 67.2041 83.0119 67.2508 83.0042 67.3053C82.2717 67.2586 81.547 67.2041 80.8145 67.1574C80.8145 67.2041 80.8145 67.2508 80.8067 67.3053C80.7599 67.3053 80.7132 67.3053 80.6586 67.2975C80.6586 67.2508 80.6586 67.2041 80.6664 67.1496C79.6378 67.1263 78.617 67.1107 77.5884 67.0873C77.5884 67.134 77.5884 67.1808 77.5807 67.2353C76.2637 67.1496 74.9546 67.0562 73.6377 66.9706C73.6377 67.0173 73.6377 67.064 73.6299 67.1185C72.952 67.0718 72.2662 67.0251 71.5883 66.9784C71.5883 67.0251 71.5883 67.0718 71.5805 67.1263C71.2376 67.1029 70.9026 67.0796 70.5597 67.0562C69.609 67.2664 68.3778 67.3754 67.4427 67.5778C66.9051 67.5388 66.3752 67.5077 65.8375 67.4688C65.8375 67.5155 65.8375 67.5622 65.8297 67.6167C65.3934 67.5856 64.957 67.5544 64.5128 67.5311C64.5128 67.5778 64.5128 67.6245 64.505 67.679C63.9206 67.64 63.3362 67.6011 62.7517 67.5622C62.7517 67.6089 62.7517 67.6556 62.7439 67.7101C61.8634 67.8969 60.5621 67.3676 59.9543 67.8191C59.6114 67.7646 59.5958 67.7335 59.3776 67.6323C59.4088 66.4179 59.44 65.1957 59.4789 63.9813C59.4322 63.9813 59.3854 63.9813 59.3309 63.9735C59.3387 63.7633 59.44 64.0358 59.4867 63.8412C59.5101 63.4519 59.5413 63.0627 59.5646 62.6735C59.5179 62.6735 59.4711 62.6735 59.4166 62.6657C59.4244 62.5178 59.4322 62.3777 59.4478 62.2298C59.4945 62.2298 59.5413 62.2298 59.5958 62.2375C59.5569 62.1363 59.5101 62.0351 59.4711 61.9339C59.4711 61.9106 59.6659 61.8872 59.6348 61.6537C59.588 61.6537 59.5413 61.6537 59.4867 61.6459C59.5646 61.1633 59.6504 60.6806 59.7283 60.198C59.7517 59.8555 59.775 59.5207 59.7984 59.1782C59.7517 59.1782 59.7049 59.1782 59.6504 59.1704C59.6504 59.1237 59.6504 59.077 59.6581 59.0225C59.7049 59.0225 59.7517 59.0225 59.8062 59.0303C59.9309 58.5165 60.0244 56.6638 59.9854 56.4069C59.9387 56.4069 59.8919 56.4069 59.8374 56.3991C59.7906 56.0722 60.0088 55.9788 60.0088 55.971C60.0634 55.1925 60.1101 54.4141 60.1647 53.6356C60.1179 53.6356 60.0711 53.6356 60.0166 53.6278C59.9698 53.3242 60.188 53.1997 60.188 53.1997C60.2426 52.9428 60.0634 52.8961 60.0634 52.8961C60.0322 52.608 60.1725 52.7092 60.227 52.6158C60.227 52.5691 60.227 52.5224 60.2348 52.4679C60.188 52.4679 60.1413 52.4679 60.0867 52.4601C60.1335 51.7829 60.1802 51.0978 60.227 50.4206C60.1802 50.4206 60.1335 50.4206 60.0789 50.4128C60.1335 50.2727 60.1958 50.1248 60.2504 49.9846C60.2036 49.9846 60.1569 49.9846 60.1023 49.9768C60.1647 49.7355 60.2348 49.4942 60.2971 49.2607C60.2504 49.2607 60.2036 49.2607 60.1491 49.2529C60.2114 48.381 60.266 47.5014 60.3283 46.6295C60.2815 46.6295 60.2348 46.6295 60.1802 46.6217C60.1958 46.4271 60.2036 46.2325 60.2192 46.0379C60.266 46.0379 60.3127 46.0379 60.3673 46.0456C60.4296 45.7498 60.2426 45.742 60.2426 45.742C60.2815 45.1582 60.3205 44.5744 60.3595 43.9905C60.3127 43.9905 60.266 43.9905 60.2114 43.9827C60.2893 43.5935 60.3595 43.2121 60.4374 42.8228C60.3906 42.8228 60.3439 42.8228 60.2893 42.815C60.0945 41.8264 60.8036 40.9779 60.3127 40.324C60.3439 39.7713 60.3984 39.2186 60.5543 38.876C62.4322 39.1641 64.2635 39.4677 66.0401 40.1216C67.3025 40.2072 68.5726 40.2928 69.835 40.3785C70.7078 40.4874 71.5805 40.5964 72.4533 40.6976C72.4533 40.7443 72.4533 40.791 72.4455 40.8455C72.5935 40.8066 72.7416 40.7677 72.8896 40.7288C72.8896 40.7755 72.8896 40.8222 72.8818 40.8767C73.0299 40.8845 73.1702 40.8922 73.3182 40.9078C73.3182 40.9545 73.3182 41.0012 73.3104 41.0557C73.6533 41.0791 73.9884 41.1024 74.3312 41.1258C74.3312 41.1725 74.3312 41.2192 74.3234 41.2737C75.0014 41.3204 75.6871 41.3671 76.365 41.4138C76.365 41.4605 76.365 41.5072 76.3572 41.5617C76.9417 41.6006 77.5261 41.6396 78.1105 41.6785C78.1105 41.6785 78.0638 41.8108 78.3911 41.842C78.5391 41.803 78.6872 41.7641 78.8352 41.7252C78.8352 41.7719 78.8352 41.8186 78.8274 41.8731C79.1703 41.8965 79.5054 41.9198 79.8482 41.9432C79.8482 41.9899 79.8482 42.0366 79.8404 42.0911C79.9807 42.0833 82.0846 42.0755 82.6145 42.2779C82.6145 42.3246 82.6145 42.3713 82.6067 42.4258C84.6406 42.6593 86.6822 42.8929 88.716 43.1264C89.3783 43.1731 90.7965 43.4612 91.2095 43.1498C91.4511 43.1653 91.6927 43.1809 91.942 43.1965C91.942 43.2432 91.942 43.2899 91.9342 43.3444C92.2459 43.7025 92.4174 45.1815 92.355 45.8588C92.3005 45.9989 92.2381 46.1468 92.1836 46.287C92.2303 46.287 92.2771 46.287 92.3316 46.2947C92.3706 47.1277 92.4174 47.9606 92.4563 48.7936C92.4096 48.7936 92.3628 48.7936 92.3083 48.7858C92.3083 48.8325 92.3083 48.8792 92.3005 48.9337C92.3472 48.9337 92.394 48.9337 92.4485 48.9415C92.4485 49.0349 92.4329 49.1361 92.4329 49.2295C92.4797 49.2295 92.5265 49.2295 92.581 49.2373C92.5576 49.5798 92.5342 49.9146 92.5109 50.2571C92.5576 50.2571 92.6044 50.2571 92.6589 50.2649C92.7368 50.623 92.4563 50.8721 92.4641 50.9811C92.5109 50.9811 92.5576 50.9811 92.6122 50.9888C92.6122 51.7206 92.6122 52.4523 92.6122 53.1841C92.6589 53.1841 92.7057 53.1841 92.7602 53.1919C92.7213 53.7757 92.6823 54.3596 92.6433 54.9434C92.6901 54.9434 92.7368 54.9434 92.7914 54.9512C92.768 55.2937 92.7446 55.6284 92.7213 55.971C92.768 55.971 92.8148 55.971 92.8693 55.9788C92.8459 56.3213 92.8226 56.656 92.7992 56.9985C92.8459 56.9985 92.8927 56.9985 92.9472 57.0063C92.9317 57.2009 92.9239 57.3955 92.9083 57.5902C92.955 57.5902 93.0018 57.5902 93.0563 57.5979C93.033 57.9405 93.0096 58.2752 92.9862 58.6177C93.033 58.6177 93.0797 58.6177 93.1343 58.6255C93.1187 58.8668 93.1031 59.1082 93.0875 59.3573C93.1343 59.3573 93.181 59.3573 93.2356 59.365C93.22 59.6531 93.1966 59.9489 93.1732 60.2369C93.22 60.2369 93.2667 60.2369 93.3213 60.2447C93.2667 60.3381 93.2122 60.4315 93.1576 60.5249C93.2044 60.5249 93.2511 60.5249 93.3057 60.5327C93.2823 60.922 93.2511 61.3112 93.2278 61.7004C93.2745 61.7004 93.3213 61.7004 93.3758 61.7082C93.3602 61.9028 93.3524 62.0974 93.3369 62.292C93.3836 62.292 93.4304 62.292 93.4849 62.2998C93.5005 62.4867 93.2278 62.5256 93.2979 62.8759C93.3447 62.8759 93.3914 62.8759 93.446 62.8837C93.4615 63.4208 93.4693 63.9579 93.4849 64.4951C93.5317 64.4951 93.5784 64.4951 93.633 64.5029C93.6096 64.8454 93.5862 65.1801 93.5628 65.5226C93.6563 65.9274 93.781 66.4646 93.7577 67.0017C92.7446 66.9394 92.4174 67.064 91.6927 67.1574L91.6615 67.1496Z" fill="#DAC46D"/>
</svg>
