<svg width="96" height="75" viewBox="0 0 96 75" fill="none" xmlns="http://www.w3.org/2000/svg">
<g clip-path="url(#clip0_795_6966)">
<path d="M5.5531 62.1086C4.96154 61.5145 4.36998 60.9203 3.77842 60.3262C3.70587 60.0404 3.63332 59.7601 3.55519 59.4743C2.79621 59.1436 3.23709 58.0394 2.44462 57.7311C2.43346 57.5237 2.4223 57.322 2.41114 57.0978C2.21023 56.8792 1.99816 56.655 1.78051 56.4196V54.5531C1.56286 54.3177 1.35079 54.0879 1.13315 53.8525V52.6306C0.965723 52.4625 0.815043 52.3111 0.669943 52.1654C0.625297 51.9748 0.536005 51.7843 0.536005 51.5937C0.519263 50.6577 0.530425 49.7216 0.530425 48.8641L0.00583454 48.3372C-0.0388114 47.9841 0.312776 47.8944 0.49136 47.6029V39.4982C0.709009 39.2516 0.909915 39.0218 1.13873 38.7583V36.2921C1.35638 36.0567 1.56844 35.8325 1.78609 35.5971V34.9806C2.16 34.605 2.52833 34.2351 2.94131 33.8203C2.99153 33.3719 3.05292 32.8787 3.10873 32.4023C3.3208 32.0212 3.67238 32.1893 3.97375 32.1276C4.42021 31.9203 4.16907 31.3766 4.42021 31.0851C4.69366 30.7712 5.02851 30.5134 4.90015 29.9585C5.53077 29.3252 6.18372 28.6638 6.80318 28.0416C6.81993 27.7726 6.83667 27.5652 6.84225 27.4587C7.38916 26.8702 7.88585 26.3321 8.34905 25.8333C8.61693 25.8221 8.82341 25.8109 9.0299 25.8052C9.39823 25.4353 9.77214 25.0598 10.1405 24.6899C10.905 24.6114 11.424 24.1686 11.8091 23.5913V17.3249C11.597 17.0671 11.4185 16.8541 11.2455 16.6411L11.7366 16.1479C11.9207 15.5426 11.8147 14.9204 11.8259 14.3039C11.8426 13.5696 11.8147 12.8298 11.837 12.0955C11.8538 11.479 11.7254 10.8568 11.9431 10.2571C12.0993 10.1001 12.2444 9.95441 12.423 9.77505C12.2388 9.56207 12.0547 9.34347 11.8593 9.11927C12.0491 8.91189 12.2556 8.68769 12.4621 8.45789V6.58583C12.5402 6.50736 12.6127 6.37284 12.6909 6.36724C13.5168 6.31679 14.3428 6.28316 15.258 6.24393C15.4199 6.1038 15.6487 5.90203 15.8998 5.68904C16.0728 5.67783 16.2793 5.66101 16.5081 5.6442C16.7202 5.44802 16.9434 5.24064 17.1834 5.01644H17.7805C18.0149 4.79785 18.2381 4.58486 18.4725 4.36627H20.3198C20.6434 4.09723 20.8388 3.68807 21.3466 3.74411C21.6982 3.78335 21.8433 3.43024 22.1447 3.18362C22.3679 3.1668 22.6692 3.14999 22.965 3.11636C23.1604 3.09394 23.4617 3.11636 23.5343 3.00426C23.8524 2.50542 24.416 2.56707 24.8402 2.33727C25.0187 2.24199 25.1415 2.05142 25.3089 1.87766H26.5255C26.7599 1.65907 26.9887 1.44608 27.2231 1.22749H27.8203C28.0547 1.00889 28.2779 0.795905 28.5123 0.577311H30.3372C30.5827 0.364323 30.8004 0.179359 31.0125 0C31.1966 0.184964 31.3417 0.330693 31.5538 0.543681C32.815 0.683805 34.1544 0.510052 35.4157 0.638966C35.6277 0.851954 35.7728 0.997683 35.9626 1.18825H38.34C38.9371 1.55818 39.311 2.06823 39.7631 2.483C39.9863 2.27001 40.2151 2.06263 40.4328 1.86085C40.656 1.87206 40.8569 1.88327 41.0634 1.89448C41.4317 2.26441 41.8056 2.63994 42.174 3.00986C42.7767 3.22285 43.4017 3.08273 44.0882 3.12757C44.2723 3.2789 44.5067 3.46947 44.8025 3.71609H46.7223C47.0292 4.17009 47.3864 4.69135 47.6096 5.01644H51.0641C51.2985 5.23503 51.5217 5.44802 51.7338 5.6442C51.957 5.65541 52.1635 5.67222 52.3421 5.67783C52.5876 5.89082 52.8164 6.09259 53.0285 6.27756C53.2629 6.24953 53.4638 6.22151 53.6647 6.19909C53.8154 6.04775 53.9605 5.90203 54.1056 5.7563C54.4795 5.67783 54.5186 6.0982 55.0934 6.23832H56.003C56.2486 6.45692 56.4774 6.6587 56.7397 6.8885H58.5646C58.799 7.10709 59.0278 7.32008 59.2566 7.53867H60.49C60.7244 7.75727 60.9476 7.97026 61.182 8.18885H64.9155C65.0829 8.357 65.228 8.50273 65.3787 8.65406C66.054 8.99597 66.8018 8.64846 67.4547 8.86705C67.7115 9.01838 67.7896 9.38271 68.1468 9.32105C68.2974 9.16972 68.4425 9.02399 68.6267 8.83903C68.8388 9.01838 69.0508 9.20335 69.2852 9.39952C69.4638 9.41073 69.6703 9.42194 69.8935 9.43315C70.1112 9.63493 70.3344 9.84792 70.5688 10.0665H72.4272C72.6616 10.2851 72.8904 10.4981 73.1248 10.7167H74.3414C74.5088 10.8848 74.6595 11.0362 74.8046 11.1819C75.4798 11.507 76.2221 11.1819 76.9085 11.4061C77.2768 11.776 77.6508 12.1516 78.0191 12.5215C78.6888 12.6448 78.8004 12.684 79.3306 13.2053H81.1834C81.4178 13.4239 81.641 13.6369 81.8754 13.8555H83.1031C83.3375 14.0741 83.5664 14.287 83.8007 14.5056H84.9894C85.2573 14.7411 85.4861 14.9372 85.648 15.0773C86.1447 15.1222 86.5521 15.1558 86.9594 15.1951C87.2496 15.6939 87.8245 15.6435 88.2374 15.8901C88.5834 16.0975 88.8234 16.3945 89.2978 16.4113C89.5433 16.4225 89.7721 16.77 90.0456 16.9942H91.2343C91.4687 17.2128 91.6975 17.4258 91.9263 17.6444H92.5234C92.7634 17.863 92.9866 18.076 93.2266 18.2946H94.4432C94.7613 18.6141 95.0571 18.9111 95.3585 19.2138V23.6081C95.5705 23.8379 95.7714 24.0621 95.9724 24.2807C95.8161 24.4376 95.6654 24.589 95.4757 24.7795C95.1576 25.6259 95.5259 26.5787 95.2971 27.4811C95.1464 27.6325 95.0013 27.7782 94.8506 27.9295C94.845 28.0024 94.806 28.1089 94.8395 28.1481C94.9734 28.3107 95.1297 28.4508 95.2748 28.5965C95.5984 29.2243 95.1464 29.5438 94.7557 29.9193C94.9511 30.1379 95.1464 30.3565 95.3585 30.5919V31.1972C95.1464 31.4214 94.9343 31.6512 94.7167 31.8866V36.9031C94.5548 37.0656 94.4042 37.217 94.2591 37.3627C94.2088 37.4468 94.1195 37.5252 94.114 37.6149C94.0916 37.8223 94.1084 38.0353 94.1084 38.2427C94.1084 40.6584 94.1084 43.0797 94.1084 45.4955C94.1084 45.5908 94.0693 45.6861 94.047 45.7813C93.8963 45.9327 93.7512 46.0784 93.6061 46.2241C93.4945 46.6109 93.9465 46.6333 93.9689 46.7678C94.3539 47.5133 93.9019 47.8384 93.5112 48.2139V53.2191C93.2936 53.4601 93.0871 53.6843 92.8639 53.9253V57.6751C92.6518 57.9049 92.4509 58.1291 92.2612 58.3365C92.4565 58.5663 92.6406 58.7792 92.8248 58.9978C92.6462 59.1772 92.4955 59.3285 92.3225 59.5023C92.0323 60.5896 92.4118 61.7443 92.1384 62.8372L91.6417 63.3361V64.5243C91.424 64.7766 91.2287 65.0064 90.9943 65.2754V66.5645C90.7097 66.7943 90.386 67.0522 89.8838 67.4557C89.521 67.5678 88.896 67.4445 88.2151 67.4837C88.031 67.6463 87.8245 67.977 87.5733 68.0218C87.0487 68.1171 86.5967 68.2572 86.2953 68.7281H85.6814C85.4415 68.9523 85.2127 69.1596 84.9783 69.3782H84.3867C84.1468 69.6024 83.9179 69.8098 83.678 70.0284H81.8698C81.5963 70.2638 81.362 70.46 81.1108 70.6786H79.9333L79.4422 71.1718C78.8395 71.396 78.2088 71.155 77.4164 71.368C77.3438 71.4296 77.1094 71.6258 76.8248 71.8668H75.6584C75.4185 72.0854 75.1896 72.2928 74.9385 72.517H74.3581C73.9005 72.9542 73.454 73.3802 72.9964 73.8174H71.1492C70.753 74.2153 70.3846 74.5852 69.9661 75.0056C69.7596 74.8375 69.5475 74.6637 69.2852 74.4451H65.6019C65.362 74.2265 65.1331 74.0191 64.882 73.7949H59.904C59.664 73.5763 59.4408 73.3634 59.2008 73.1448H56.0979C55.8524 72.9206 55.6236 72.7132 55.3836 72.4946H53.5475C53.3745 72.3208 53.2238 72.1695 53.0397 71.9845C52.2695 71.7547 51.438 71.9509 50.6176 71.8949C49.8977 71.8444 49.1722 71.9789 48.4579 71.8052C48.3072 71.6538 48.1565 71.5025 47.9891 71.3344C47.1966 71.1662 46.3651 71.3119 45.4722 71.2559C45.2824 71.099 45.0536 70.9028 44.769 70.6618H42.972C42.732 70.4432 42.5032 70.2358 42.2744 70.034C42.0568 70.2302 41.8335 70.432 41.6215 70.6281H41.0187C40.7732 70.4039 40.5444 70.1965 40.3044 69.978H35.3264C35.1534 69.8042 35.0027 69.6529 34.813 69.4623C33.7526 69.1821 32.603 69.5464 31.498 69.2886L31.0013 68.7897H29.8293C29.5782 68.5767 29.3438 68.3805 29.0592 68.1395H26.6372C26.3972 67.9209 26.1684 67.7136 25.9172 67.4894H23.4561C23.2162 67.2708 22.9873 67.0578 22.753 66.8392H17.7638C17.5182 66.615 17.295 66.4076 17.055 66.189H14.5883C13.6898 65.3595 13.6396 65.3595 12.8248 66.1161C12.6295 66.1498 12.4342 66.1946 12.2388 66.2058C12.0323 66.2226 11.8203 66.2058 11.5524 66.2058C11.3571 66.0377 11.1227 65.8415 10.8381 65.6061H9.67169C9.43172 65.3875 9.20291 65.1801 8.95177 64.9559H8.37695C8.13698 64.7373 7.91375 64.5243 7.67378 64.3057H7.07106C6.54647 63.7789 6.02746 63.2576 5.50845 62.7363C5.50845 62.5234 5.50845 62.316 5.50845 62.103L5.5531 62.1086ZM35.0808 3.11636C34.9655 2.76885 34.5879 2.3354 33.9479 1.81601C33.7191 1.90008 33.4568 1.98976 33.2224 2.07384C33.2113 2.52597 33.3341 2.87348 33.5908 3.11636H35.0808C34.9915 3.64323 35.5608 3.74412 35.7115 4.14207C35.7226 4.32143 35.7338 4.52321 35.7449 4.70256C35.957 4.94918 36.1579 5.17899 36.303 5.34153V6.44571C35.717 7.12951 35.2427 7.6844 34.852 8.1328H31.5147C31.3194 7.54428 30.7781 7.53867 30.5827 7.50505C29.8238 6.87729 29.2657 6.41208 28.836 6.05336V4.0636C29.1764 3.69928 29.461 3.39661 29.5447 3.30693C30.4432 2.89216 31.2134 3.40221 31.8663 2.87535C31.6598 2.41574 31.2971 2.10747 30.8897 1.85524C30.2367 1.62544 30.0749 2.41013 29.7512 2.45497C29.1652 2.483 28.7634 2.50542 28.4453 2.52223C27.9989 2.97063 27.6249 3.34616 27.2455 3.7273H25.3927C25.1583 3.94589 24.935 4.15888 24.7006 4.37748H23.4729C23.2329 4.59607 23.0097 4.80906 22.7697 5.02765H21.5587C21.235 5.3135 21.0229 5.69464 20.5207 5.6498C20.1802 5.61617 20.0407 5.9917 19.7952 6.15985C19.4771 6.37284 18.9636 6.15425 18.746 6.64749C18.785 6.91652 18.6511 7.25843 19.0641 7.49944H20.2249C20.4704 7.71803 20.6992 7.91981 20.956 8.14962H22.7864C23.0208 8.36821 23.2441 8.5812 23.4785 8.79979H27.2231C27.4519 9.01838 27.6808 9.23137 27.9151 9.44997H30.3707C30.633 9.67977 30.8618 9.88155 31.1073 10.1001H32.9267C33.1108 10.2851 33.2559 10.4308 33.4066 10.5822C34.2995 10.8848 35.2427 10.5261 36.1412 10.8008C36.2919 10.9465 36.4369 11.0978 36.5876 11.2492C37.6982 11.4902 38.8423 11.1483 39.8914 11.4173C40.0923 11.6191 40.2374 11.7648 40.4104 11.9386H42.8771C43.1171 12.1572 43.3403 12.3645 43.5859 12.5887H46.6888C46.9232 12.8073 47.152 13.0147 47.3864 13.2389H48.5918C48.8429 13.4631 49.0662 13.6705 49.3117 13.8891H51.1087C51.3878 14.1301 51.6222 14.3263 51.8119 14.4888C52.4872 14.5225 53.1066 14.4104 53.7149 14.5841C53.86 14.7298 54.0107 14.8812 54.1781 15.0493C54.6469 15.1054 55.1436 15.1558 55.5957 15.2119C55.7854 15.4024 55.9305 15.5482 56.1091 15.7275H57.3145C57.5545 15.9461 57.7833 16.1535 58.0344 16.3777H59.8649C60.1049 16.5963 60.3281 16.8093 60.5625 17.0279H62.4097C62.6497 17.2521 62.8785 17.4595 63.1185 17.6781H64.9267C65.2001 17.9135 65.4289 18.1096 65.5908 18.2498C66.506 18.3506 67.3375 18.1825 68.1021 18.3506C68.3756 18.5748 68.61 18.7598 68.6044 18.7598C69.475 19.0513 70.1112 18.7598 70.7027 19.0288C70.8534 19.1802 71.0041 19.3315 71.1827 19.5109H73.0076C73.2531 19.7295 73.4819 19.9312 73.7219 20.1442C73.9061 20.1554 74.107 20.1667 74.3302 20.1779C74.5479 20.3796 74.7711 20.5926 74.9999 20.8112H77.4889C77.7233 21.0298 77.9465 21.2428 78.1419 21.4222H82.5339C82.8576 21.1475 83.0585 20.7552 83.5664 20.8C84.0184 20.8393 84.1412 20.1835 84.5597 20.1947C85.0508 20.2115 85.302 19.9144 85.6535 19.5445C86.4125 19.5445 87.2385 19.5445 88.0644 19.5389C88.1481 19.5389 88.2319 19.4492 88.3546 19.382C88.6058 19.1073 88.8848 18.8103 89.0857 18.5917C89.1638 18.1489 89.0857 17.863 88.8067 17.6556H87.5677C87.3389 17.437 87.1101 17.2241 86.8757 17.0055H85.0452C84.7885 16.7757 84.5597 16.5739 84.3142 16.3553H83.159C82.8688 16.1143 82.6399 15.9181 82.3832 15.7051H81.2782C80.949 15.4473 80.7146 15.2623 80.5695 15.1502C80.0505 15.0717 79.6263 15.2511 79.258 14.9933C78.8785 14.6121 78.5102 14.2422 78.1363 13.8667H77.5224C77.288 13.6481 77.0648 13.4407 76.8304 13.2165H75.6249C75.3738 12.9923 75.145 12.7849 74.905 12.5663H73.1136C72.829 12.3253 72.6002 12.1291 72.4049 11.9666C71.7408 11.9386 71.0655 12.1347 70.686 11.4229C70.1781 11.3444 69.687 11.2492 69.3913 10.7111C69.1569 10.9185 68.9392 11.1146 68.716 11.3052C68.4983 11.109 68.2751 10.9017 68.0407 10.6887H66.2047C65.9535 10.4645 65.7303 10.2571 65.4903 10.0385H62.4321C62.153 9.80308 61.9242 9.6013 61.7289 9.43876C61.0536 9.40513 60.4342 9.51162 59.8259 9.34347C59.6808 9.19774 59.5301 9.04641 59.385 8.90068C58.4865 8.64285 57.5433 8.99597 56.6616 8.68769C56.5053 8.53075 56.3602 8.38502 56.1816 8.20567H54.3511C54.1112 7.98707 53.8824 7.78529 53.6312 7.55549H51.1701C50.9357 7.3369 50.7125 7.12391 50.4781 6.90531H49.2503C49.0104 6.68672 48.7871 6.47373 48.5472 6.25514H47.3641C47.0962 6.01973 46.8618 5.82356 46.6162 5.60496H45.4778C45.1708 5.35834 44.9364 5.16778 44.7746 5.03326C44.2667 5.00523 43.8649 4.98842 43.5412 4.9716C43.318 4.7474 43.1673 4.59607 43.0222 4.45034C42.3581 4.32143 42.2577 4.27098 41.7108 3.76653H39.2329C38.9985 3.54794 38.7753 3.33495 38.5465 3.12196H35.1031L35.0808 3.11636ZM32.7592 21.411C33.2001 21.708 33.4289 21.9827 33.6968 22.0219C34.506 22.1452 35.3431 21.9098 36.1133 22.134C36.2974 22.319 36.4481 22.4703 36.6211 22.6441H38.4572C38.6972 22.8626 38.926 23.07 39.1715 23.2942H42.2688C42.5032 23.5128 42.732 23.7258 42.972 23.9444H44.1774C44.4286 24.1686 44.6574 24.376 44.8974 24.5946H47.3194C47.604 24.8356 47.8328 25.0318 47.9835 25.1551C48.9155 25.2728 49.747 25.0822 50.5562 25.284C50.7125 25.4409 50.8576 25.5867 51.025 25.7548C51.505 25.8109 51.9961 25.8669 52.4481 25.923C52.6379 26.1135 52.783 26.2593 52.956 26.433H56.0533C56.2932 26.6516 56.5221 26.859 56.762 27.0832H57.9842C58.2186 27.3018 58.4474 27.5092 58.6874 27.7334H60.5402C60.875 28.1761 61.2713 28.4676 61.8126 28.4172C62.0637 28.6245 62.2925 28.8207 62.4879 28.9833C63.4924 28.9833 64.4356 28.9833 65.3787 28.9833C65.468 28.9833 65.5629 29.0449 65.6522 29.0785C65.8028 29.2299 65.9479 29.3756 66.1098 29.5382C66.5897 29.5942 67.0864 29.6559 67.5329 29.7063C67.7226 29.8969 67.8733 30.0482 68.0407 30.2164H69.2573C69.4973 30.4349 69.7205 30.6479 69.9605 30.8665H71.8133C72.0477 31.0851 72.2709 31.2981 72.4886 31.4999C72.7062 31.5111 72.9127 31.5223 73.0969 31.5279C73.3368 31.7409 73.5657 31.9483 73.7833 32.1389C74.2967 32.038 74.866 32.3574 75.2789 31.825V28.0809C75.5022 27.8398 75.7087 27.61 75.9096 27.3971C75.9096 25.7044 75.9096 24.0229 75.9096 22.3414C75.9096 21.921 75.9877 22.4142 75.6919 22.1172C74.7934 21.8706 73.8447 22.2349 72.9853 21.921C72.8067 21.7417 72.6616 21.5959 72.4886 21.4278H71.272C71.0376 21.2092 70.8088 20.9962 70.5744 20.7776H68.0909C67.8566 20.559 67.6333 20.346 67.3989 20.1274H66.1991C65.9368 19.8976 65.708 19.6958 65.4624 19.4772H63.0571C62.7613 19.2306 62.5269 19.0401 62.3595 18.8999C61.8628 18.8775 61.461 18.8551 61.1262 18.8439C60.9085 18.6253 60.7578 18.474 60.5737 18.289H58.7599C58.5144 18.0704 58.28 17.8686 58.0177 17.6388H56.1928C55.9584 17.4202 55.7296 17.2072 55.5008 16.9886H54.2674C54.033 16.77 53.8098 16.5571 53.5754 16.3385H52.3811C52.1188 16.1087 51.89 15.9069 51.6389 15.6883H49.2392C48.9378 15.4417 48.7034 15.2511 48.5248 15.0998C47.8328 15.0549 47.2134 15.1951 46.6106 14.9821C46.46 14.8307 46.3149 14.685 46.1307 14.5H44.9364C44.6909 14.2814 44.4621 14.0797 44.1998 13.8499H41.1136C40.8792 13.6313 40.6504 13.4183 40.4216 13.1997H37.3075C37.0732 12.9811 36.8443 12.7681 36.61 12.5495H34.7906C34.5228 12.3141 34.2939 12.1179 34.093 11.9442C33.2169 11.8937 32.3853 12.0226 31.5761 11.8769C31.4143 11.7144 31.2636 11.563 31.1185 11.4173C30.2256 11.1371 29.2769 11.5014 28.3839 11.1931C28.2333 11.0418 28.0882 10.896 27.9375 10.7447C26.8269 10.5429 25.6773 10.8344 24.6448 10.5934C24.4272 10.3748 24.2765 10.2235 24.1147 10.0609H21.6312C21.3968 9.84231 21.168 9.62933 20.9392 9.41073H19.0864C18.8464 9.19214 18.6232 8.97915 18.3832 8.76056H16.5695C16.296 8.52515 16.0672 8.32897 15.9165 8.19446H14.739C14.326 8.55317 14.0135 8.82782 13.7233 9.07444V12.2412C13.4945 12.4991 13.2936 12.7289 13.1429 12.897V14.1357C13.3829 14.4272 13.5782 14.6626 13.7401 14.8588C13.7233 15.8508 13.7289 15.8508 14.0749 16.3553H14.672C14.912 16.5795 15.1408 16.7869 15.3529 16.9774C15.5873 16.9942 15.7882 17.0111 15.9612 17.0279C16.2123 17.2409 16.4411 17.437 16.6365 17.6052C17.5182 17.6556 18.3497 17.5211 19.1534 17.6781L19.6389 18.1657C20.1077 18.2161 20.6044 18.2722 21.0564 18.3226C21.2462 18.5132 21.3913 18.6589 21.5419 18.8103C22.4404 19.0345 23.3892 18.6589 24.2263 18.984C24.4216 19.1802 24.5723 19.3315 24.7285 19.4885H25.9563C26.1963 19.707 26.4251 19.92 26.6595 20.1386H28.5011C28.7467 20.3628 28.9755 20.5702 29.2155 20.7888H30.3874C30.6665 21.0242 30.9008 21.226 31.0962 21.3941H32.7816L32.7592 21.411ZM20.303 63.6836C19.9514 64.0871 19.678 64.3954 19.1924 64.3169C18.986 64.2833 18.7627 64.2665 18.5674 64.3282C18.4111 64.3786 18.2884 64.5468 18.1544 64.6645C18.227 64.7373 18.2995 64.8102 18.4056 64.9167H19.611C19.851 65.1353 20.0798 65.3427 20.3309 65.5669H24.6727C24.9127 65.7854 25.1359 65.9984 25.3703 66.2114H26.5869C26.8213 66.4188 27.039 66.615 27.2566 66.8112C27.424 66.643 27.5636 66.4805 27.7254 66.3459C27.9877 66.133 28.3002 66.1498 28.5681 66.3011C28.8248 66.4468 29.0313 66.6822 29.182 66.8168C29.6898 66.8448 30.0916 66.8616 30.4153 66.8784C30.6441 67.1082 30.7892 67.2539 30.9678 67.4333C31.1799 67.2483 31.3975 67.0634 31.6208 66.8672C31.8328 67.0578 32.0505 67.2652 32.2793 67.4725H34.1321C34.3721 67.6911 34.5953 67.9041 34.8353 68.1227H39.1659C39.4338 68.3581 39.6626 68.5543 39.9082 68.7673H44.8639C45.048 68.9523 45.1987 69.1036 45.4052 69.311C46.6665 69.4455 48.0058 69.2717 49.2671 69.4063C49.4792 69.6192 49.6243 69.765 49.7749 69.9163C50.6734 70.1573 51.6166 69.7986 52.476 70.1069C52.6546 70.2862 52.7997 70.432 52.9671 70.6001H55.4394C55.6738 70.8187 55.9026 71.0261 56.137 71.2503H59.251C59.4799 71.4633 59.7087 71.6763 59.9375 71.8949H63.6542C63.8942 72.1078 64.1119 72.2928 64.3072 72.4666C64.5695 72.2424 64.8039 72.0462 64.9434 71.9341H66.227C66.4223 72.1303 66.573 72.2816 66.7181 72.4273C67.6166 72.6796 68.5597 72.3264 69.4359 72.6291L69.9493 73.1448C70.2005 73.1448 70.513 73.1223 70.8143 73.1448C71.3668 73.2008 71.4673 72.9318 71.5175 72.4049C71.5454 72.1022 71.551 71.794 71.5622 71.5193C71.8858 71.2054 72.1649 70.9532 72.176 70.4656C72.176 70.219 72.4941 69.9724 72.7062 69.6753C72.5611 69.5015 72.377 69.2829 72.1816 69.0531C72.3714 68.8458 72.5667 68.6272 72.7732 68.3974V66.5197C72.1147 65.7686 71.1659 66.5197 70.446 66.0769C70.3009 65.9256 70.1502 65.7798 69.9772 65.6061C69.7652 65.7967 69.5475 65.9816 69.3075 66.1946H67.4547C67.2371 65.9928 67.0139 65.7854 66.7795 65.5725H61.1597C60.9197 65.3539 60.6965 65.1409 60.4565 64.9223H56.7564C56.4886 64.6869 56.2598 64.4907 56.0142 64.2721H51.7282C51.4268 64.0928 51.3487 63.7284 50.986 63.7901C50.8353 63.9414 50.6902 64.0871 50.506 64.2721C50.2939 64.0928 50.0819 63.9078 49.8307 63.6948H47.3808C47.1464 63.4762 46.9232 63.2632 46.6888 63.0446H43.5747C43.3459 62.826 43.1171 62.6186 42.9162 62.4281H40.4272C40.1816 62.6411 39.964 62.826 39.7519 63.0054C39.5733 62.826 39.4226 62.6747 39.2496 62.5009C38.167 62.2151 37.0173 62.5906 35.9291 62.3216C35.7673 62.159 35.6166 62.0077 35.3878 61.7779C34.6455 61.7779 33.8196 61.7779 32.9936 61.7835C32.9099 61.7835 32.8206 61.8676 32.7369 61.918C32.5918 62.0694 32.4411 62.2151 32.296 62.3664C32.0951 62.3832 31.8886 62.4001 31.6654 62.4169C31.4533 62.2207 31.2245 62.0133 30.9846 61.7891H28.4955C28.2723 61.9965 28.0491 62.2039 27.8091 62.4281H26.6093C26.3581 62.6523 26.1293 62.8597 25.8893 63.0783H22.8367C22.552 63.3193 22.3232 63.5154 22.1279 63.678H20.303V63.6836ZM18.2381 61.7835C19.3041 60.713 20.2584 59.7545 21.235 58.7736C21.0118 58.1291 22.0833 57.9217 21.8879 57.2211C22.1558 56.6381 22.7027 56.3019 23.1045 55.8366C23.1157 55.6349 23.1324 55.4275 23.1492 55.2033C23.3445 54.9903 23.5566 54.7661 23.7742 54.5251V53.9197C23.9919 53.6899 24.204 53.4601 24.4216 53.2303V52.0197C24.6504 51.7618 24.8513 51.5376 25.069 51.291V50.0691C25.3927 49.7721 25.7275 49.5311 25.6773 49.0322C25.6494 48.7352 25.7052 48.4269 25.7163 48.2307C25.9675 47.9112 26.1516 47.6758 26.2744 47.5189C26.347 47.0032 26.1795 46.5772 26.4195 46.2073C26.5758 46.0504 26.7209 45.9046 26.8715 45.7589C26.8883 45.5571 26.905 45.3554 26.9274 45.1256C26.732 44.9126 26.5311 44.6828 26.3079 44.4361V43.8308C26.5088 43.6122 26.7153 43.388 26.9218 43.1638V40.664C26.6985 40.423 26.4921 40.1932 26.28 39.9578V37.5084C26.0456 37.2394 25.8503 37.004 25.6382 36.7573V33.0244C25.0913 32.7218 25.0355 32.2061 24.9406 31.7129C24.5667 31.3373 24.1984 30.9674 23.83 30.5975C23.8189 30.3957 23.8021 30.1883 23.791 29.9305C23.0655 29.2411 22.3121 28.5237 21.4805 27.7334H21.0062C20.5486 27.2962 20.1021 26.8702 19.678 26.461C19.438 26.4442 19.2371 26.4274 19.0306 26.4106C18.6623 26.0407 18.2939 25.6707 17.92 25.2952C17.3173 25.1102 16.6978 25.2223 16.084 25.2055C15.565 25.1887 15.0404 25.1831 14.5158 25.2055C13.9019 25.2279 13.2824 25.099 12.6853 25.312C12.3114 25.6875 11.9431 26.0575 11.5524 26.4498H10.3972C9.39823 27.4475 8.44392 28.406 7.44497 29.4092V29.9417L6.55763 30.8329C6.23953 30.9618 5.73168 30.6872 5.65355 31.2813C5.86562 31.4943 6.00514 31.7185 6.07211 31.9539C5.70378 32.3238 5.33545 32.6937 4.95038 33.0805V33.6802C4.73273 33.9156 4.52066 34.1454 4.30301 34.3752V34.975C4.08536 35.216 3.87329 35.4402 3.67238 35.6644C3.91236 36.3314 3.20918 36.5331 3.01386 37.1049V38.1754C2.82411 38.366 2.67901 38.5117 2.52833 38.663C2.48927 39.0161 2.83527 39.1058 3.0027 39.3749C2.83527 39.5766 2.65111 39.7896 2.43904 40.0419V41.2469C2.22139 41.4823 2.00932 41.7065 1.80842 41.9251C2.00374 42.1381 2.20465 42.3623 2.38881 42.5641C2.17116 42.8107 1.97026 43.0405 1.83074 43.2087V44.2119C1.97026 44.7724 2.38881 44.8173 2.31068 45.1872C2.16558 45.3329 2.0149 45.4843 1.8698 45.63C1.5517 46.2578 2.0149 46.5772 2.39997 46.9472V48.2139C2.22139 48.4045 2.0149 48.6343 1.79725 48.8697V50.1084C2.00932 50.3326 2.21581 50.5624 2.43346 50.7922V52.0028C2.66227 52.2551 2.86318 52.4849 3.08083 52.7315V54.5307C3.3208 54.8165 3.51612 55.0463 3.72819 55.3042V56.4812C4.14675 56.9016 4.51508 57.2715 4.88341 57.6414C4.90015 57.8432 4.91689 58.045 4.93921 58.2804C5.12338 58.4878 5.32987 58.7176 5.5531 58.9642V60.1244C6.54647 61.1165 7.50078 62.075 8.47741 63.0558C8.63925 63.0614 8.84574 63.0726 9.0299 63.0839C9.26987 63.2968 9.49868 63.4986 9.74424 63.7172H11.5691C11.7477 63.8966 11.8817 64.0703 12.0491 64.188C12.317 64.3842 12.6239 64.373 12.8918 64.2048C13.1429 64.0479 13.3494 63.8293 13.528 63.6836C14.1419 63.6836 14.6665 63.6836 15.1855 63.6836C15.6542 63.5379 15.844 62.8204 16.5193 63.0614C16.9601 62.6411 17.4066 62.2151 17.8642 61.7779C18.0595 61.7779 18.266 61.7779 18.2549 61.7779L18.2381 61.7835ZM93.1876 20.1554H91.3236C91.0948 20.374 90.866 20.5814 90.6316 20.8H88.176C87.9193 21.0298 87.6905 21.2316 87.445 21.4502H86.2897C85.9995 21.6912 85.7652 21.8874 85.5922 22.0275C85.1011 22.0499 84.6937 22.0667 84.3588 22.0836C84.1468 22.2965 83.9961 22.4479 83.8454 22.5992C83.1311 22.7561 82.4055 22.6384 81.6856 22.6833C81.4959 22.6945 81.3062 22.7674 81.1164 22.8122C80.9657 22.9635 80.8206 23.1093 80.6699 23.2606C80.469 23.2774 80.2626 23.2942 80.0337 23.311C79.8217 23.5016 79.5984 23.7146 79.3585 23.9332H78.0972C77.8238 24.2246 77.5391 24.5329 77.1652 24.9309C77.1652 26.9094 77.1597 29.0001 77.182 31.0907C77.182 31.2309 77.4275 31.371 77.5336 31.4887H79.3585C79.6375 31.2533 79.8663 31.0571 80.1174 30.8385H81.2448C81.5573 30.5863 81.7917 30.4013 81.9647 30.2556C82.6623 30.2051 83.2873 30.3565 83.8845 30.1267C84.0295 29.9809 84.1802 29.8296 84.3588 29.6503H85.5587C85.8042 29.4317 86.0275 29.2299 86.2842 29.0001H87.4896C87.724 28.7815 87.9472 28.5685 88.1816 28.3499H88.7788C89.0187 28.1313 89.242 27.9183 89.4819 27.6997H90.6874C91.0166 27.4139 91.2231 27.0552 91.731 27.072C92.2388 27.0888 92.4174 26.3153 93.0425 26.4386C93.1764 26.4666 93.3773 26.248 93.5224 26.1135C93.7456 25.9005 93.941 25.6651 94.1028 25.4914V21.7585C93.8684 21.4446 93.6005 21.226 93.528 20.957C93.4499 20.6655 93.4778 20.3516 93.1876 20.1498V20.1554ZM34.7795 52.3335C34.5451 52.5521 34.3218 52.7651 34.1098 52.9613C33.8865 52.9725 33.6801 52.9893 33.4736 53.0005C33.401 53.0734 33.3285 53.1519 33.2503 53.2247C32.6867 53.7348 32.5304 53.7348 31.9556 53.2976C31.325 52.8212 31.2301 52.8212 30.6609 53.2976C30.5827 53.3648 30.5102 53.4433 30.3986 53.5554H26.8381C26.0233 54.3793 25.2922 55.1136 24.4216 55.9936V57.0697C24.6504 57.3051 24.9294 57.6078 25.2252 57.8937C25.4094 58.073 25.8949 58.073 26.0679 57.8993C26.4418 57.5349 26.8102 57.1594 27.1785 56.7895C27.3794 56.7783 27.5859 56.7615 27.8091 56.7502C28.0268 56.952 28.25 57.165 28.4844 57.3836H29.0871C29.3159 57.1706 29.5391 56.9576 29.7735 56.739H34.1154C34.3721 56.5092 34.6009 56.3075 34.8409 56.0945C35.8845 56.1281 36.9225 56.1505 37.9605 56.1954C38.0386 56.1954 38.1447 56.3243 38.167 56.414C38.1837 56.4644 38.0833 56.5989 38.0107 56.6269C37.5475 56.7895 37.0341 56.8175 36.7048 57.2883C36.6267 57.4004 36.3253 57.3612 36.13 57.3836C35.8342 57.4172 35.5384 57.4397 35.3096 57.4565C35.0976 57.6695 34.9469 57.8208 34.7795 57.9889H31.0571C30.8171 58.2075 30.5939 58.4149 30.3484 58.6391H27.2455C27.0111 58.8465 26.7878 59.0539 26.5758 59.2445C26.3581 59.0539 26.1405 58.8633 25.9451 58.6896C25.6828 58.9138 25.454 59.1043 25.1973 59.3229H24.0812C23.7631 59.5751 23.5287 59.7601 23.3445 59.9058H22.9427C22.8367 59.9058 22.7306 59.889 22.6302 59.9058C22.4349 59.9395 22.2172 59.9451 22.0609 60.046C21.7484 60.2421 21.9214 60.6065 21.8266 60.8923C21.6815 61.038 21.5364 61.1838 21.3857 61.3351C21.2406 61.4808 21.2908 61.6322 21.5475 61.7891H24.0477C24.2653 61.5873 24.4942 61.3743 24.7285 61.1614H26.5702C26.8157 60.9372 27.0446 60.7298 27.2845 60.5112H29.0871C29.3661 60.2758 29.595 60.0796 29.6787 60.0011C30.46 59.7937 31.085 60.0235 31.6933 59.8162L32.1454 59.3622C32.8541 59.1772 33.5796 59.3173 34.2995 59.2669C35.1199 59.2108 35.9514 59.3958 36.7271 59.1772C36.9057 58.9978 37.0564 58.8465 37.235 58.6671H39.6905C39.9361 58.4486 40.1593 58.2468 40.4049 58.0338C40.589 58.0226 40.7955 58.017 41.0801 58.0002C41.3145 57.7311 41.588 57.4116 41.9172 57.0249C41.9228 56.9744 41.8335 56.7671 41.6047 56.7559C40.8736 56.7166 40.1426 56.7334 39.4115 56.7446C39.1883 56.7446 39.0153 56.683 38.8925 56.4756C38.8757 56.2738 38.859 56.0664 38.8367 55.8086C39.1994 55.5172 39.4338 55.0239 40.0421 54.8053C40.5555 54.9903 41.1917 54.682 41.7833 54.9567C41.934 55.108 42.0791 55.2537 42.2298 55.4051C42.4307 55.4275 42.6316 55.4499 42.8548 55.4779C43.4464 54.9398 44.1049 54.4466 44.5011 53.7628C44.4453 53.0958 44.6127 52.4681 44.3616 51.8739C44.2835 51.8123 44.2053 51.7002 44.1216 51.7002C43.2901 51.689 42.4586 51.6946 41.694 51.6946C41.4094 51.9468 41.175 52.1486 41.0187 52.2887H39.7463C38.859 51.4704 38.8143 51.4704 37.9326 52.2887C37.7205 52.1093 37.5085 51.93 37.2741 51.7282C37.0676 51.9188 36.8499 52.1205 36.6211 52.3279H34.7627L34.7795 52.3335ZM90.0623 58.6447C89.8335 58.8633 89.6047 59.0763 89.3926 59.2725C89.1694 59.2837 88.9629 59.3005 88.7843 59.3061C88.5388 59.5191 88.31 59.7209 88.0644 59.9395H86.2451C86.0609 60.1244 85.9382 60.3262 85.7596 60.4103C85.4973 60.5336 85.2015 60.5728 84.9169 60.6457C84.5486 61.0156 84.1802 61.3856 83.8063 61.7611C83.6054 61.7723 83.3989 61.7891 83.1701 61.8059C82.958 62.0021 82.7348 62.2151 82.4949 62.4337H81.2671C81.0383 62.6523 80.8095 62.8597 80.5751 63.0839H78.7223C78.5604 63.2464 78.4097 63.3921 78.2646 63.5435C78.0247 63.7957 77.6675 63.6163 77.4219 63.7733C77.1708 63.9358 76.9643 64.1656 76.7913 64.3169C76.0268 64.4627 75.251 63.975 74.6483 64.6589V65.2698C74.4307 65.5052 74.2186 65.735 74.0177 65.9536C74.0233 65.9704 74.5758 67.2483 74.5646 67.2259C74.3693 67.4669 74.1795 67.7023 74.0233 67.8929C74.0233 68.7 74.0009 69.4343 74.04 70.1685C74.0456 70.3311 74.2521 70.4824 74.3581 70.6337H74.9553C75.2008 70.4095 75.4296 70.2022 75.6696 69.9836H76.8806C77.1931 69.6809 77.4164 69.3166 77.9186 69.3726C78.2144 69.4062 78.5214 69.3446 78.7836 69.3334C78.9734 69.1428 79.1185 68.9971 79.2636 68.8514C80.1565 68.5879 81.1052 68.9466 81.9926 68.6328C82.1433 68.4814 82.2828 68.3189 82.4446 68.19C82.5116 68.1339 82.6344 68.1115 82.7292 68.1283C83.2371 68.2068 83.4268 67.7696 83.7561 67.5062H84.9727C85.2071 67.2876 85.4359 67.0746 85.6647 66.856H86.2619C86.5018 66.6374 86.7251 66.4244 86.965 66.2058H88.0979C88.6951 65.6453 89.2252 65.1465 89.7387 64.6589V63.3921C89.9619 63.1399 90.1684 62.9101 90.386 62.6691V60.2029C91.1673 59.3958 91.1617 59.3846 90.6706 58.6559H90.0568L90.0623 58.6447ZM29.1318 39.7168H41.2308C41.5322 39.33 41.9172 38.8424 42.1907 38.4893H43.5691C43.8593 38.6686 43.9431 39.0218 44.2946 38.9825C44.4453 38.8312 44.5904 38.6855 44.7802 38.4949H45.8963C46.3986 38.1866 46.7557 37.8335 47.0571 37.3234V36.2585C47.2301 35.939 47.6152 35.8718 47.5203 35.485C47.2301 35.2104 46.9343 34.9245 46.672 34.6779C46.4097 34.6499 46.2088 34.6275 46.047 34.6106C45.7903 34.3977 45.5615 34.2015 45.3661 34.0389C44.1551 34.0389 43.0055 34.0389 41.8559 34.0389C41.7666 34.0389 41.6717 34.1006 41.5824 34.1342L41.1359 34.5826C40.7397 34.7452 40.3267 34.6499 39.9193 34.6667C39.6068 34.6835 39.2887 34.6891 38.9762 34.6667C38.5744 34.6387 38.1558 34.7844 37.7819 34.549C37.6256 34.3921 37.4805 34.2463 37.3299 34.095C37.129 34.0782 36.9281 34.0558 36.6992 34.0389C36.4872 34.2351 36.2584 34.4369 36.0128 34.6611H35.4101C35.198 34.4649 34.9692 34.2631 34.7571 34.067C34.5283 34.2743 34.2995 34.4817 34.1209 34.6443H31.0069C30.7446 34.4313 30.5325 34.2519 30.3539 34.1006C30.0637 34.3304 29.8293 34.521 29.6452 34.6667C29.0425 34.6667 28.5179 34.6387 27.9989 34.6835C27.837 34.6947 27.6975 34.9077 27.558 35.0142V36.8694C27.7868 37.1273 27.9877 37.3571 28.144 37.5364C28.1774 38.4332 28.1998 39.2684 28.2444 40.0979C28.2444 40.1764 28.3839 40.2492 28.4676 40.3333C28.6853 40.1315 28.9085 39.9298 29.1318 39.7224V39.7168ZM33.4178 41.516C32.5974 40.7537 32.5472 40.7537 31.6208 41.6112C30.6553 41.6112 29.6229 41.6112 28.5904 41.6168C28.5067 41.6168 28.423 41.7065 28.3393 41.757C28.0658 44.055 28.0882 45.0919 28.4509 46.028C31.7491 46.028 35.0752 46.028 38.3958 46.028C38.4851 46.028 38.5688 45.9495 38.6581 45.9103C38.8032 45.7645 38.9539 45.6132 39.1325 45.4338C39.3445 45.6188 39.5566 45.8038 39.8077 46.0167H43.5412C43.7366 45.8374 43.9598 45.63 44.1998 45.4058H45.4666C45.7289 45.1199 46.0079 44.8117 46.3651 44.4193C46.2423 43.9485 46.5716 43.573 46.9957 43.2311V41.9251C46.6665 41.6449 46.4265 41.1741 46.0358 41.0171H37.8712C37.687 41.2021 37.5419 41.3478 37.3913 41.4991C37.302 41.5384 37.2127 41.6056 37.1234 41.6056C35.9793 41.6112 34.8353 41.6112 33.6912 41.6056C33.6019 41.6056 33.5071 41.5496 33.4178 41.516ZM20.9448 25.1999C21.408 25.6651 21.7819 26.0407 22.1502 26.4106C22.3511 26.4274 22.5521 26.4442 22.792 26.4666C22.9985 26.6572 23.2273 26.8646 23.4729 27.0888H25.3145C25.5489 27.3074 25.7777 27.5204 26.0177 27.739H37.2741C37.514 27.952 37.7317 28.1425 37.927 28.3163C38.1893 28.0921 38.4181 27.8959 38.619 27.7334C40.0365 27.7334 41.3982 27.7334 42.7599 27.7334C42.8492 27.7334 42.9441 27.6773 42.8213 27.7165C43.3013 27.3186 43.6194 27.0552 43.8928 26.831C43.8761 26.5339 43.8593 26.3265 43.8482 26.1191C43.5524 25.8221 43.2566 25.525 42.9497 25.2167H40.4607C40.2263 24.9981 39.9975 24.7908 39.7575 24.5666H29.7568C29.5112 24.3424 29.2824 24.135 29.0704 23.9444C26.213 23.9444 23.3836 23.9444 20.5597 23.9444C20.2528 23.9444 19.9458 23.9668 19.6389 24.0061C19.5552 24.0173 19.4882 24.1462 19.4157 24.219C19.4045 24.4264 19.3933 24.6282 19.3766 24.8356C19.8007 25.2111 19.7952 25.2223 20.9448 25.1999ZM52.0184 32.4135C51.1924 32.0996 51.6668 30.973 50.8799 30.6591C50.8074 30.3733 50.7348 30.0874 50.6567 29.8072C50.1433 29.3588 49.7638 28.7535 49.1443 28.4172C48.815 28.7647 48.5304 29.0673 48.3016 29.3083V31.2309C48.6086 31.5503 48.9211 31.7857 48.9322 32.2846C48.9322 32.5368 49.2392 32.7834 49.4903 33.1534C49.4736 33.0973 49.5294 33.1926 49.5294 33.2823C49.535 34.3304 49.5294 35.3841 49.5405 36.4323C49.5405 36.6228 49.6187 36.819 49.6633 37.0096C49.814 37.1609 49.9591 37.3066 50.1098 37.458C50.1265 37.6597 50.1433 37.8615 50.1656 38.0913C49.9703 38.3043 49.7638 38.5341 49.5573 38.7639C49.7526 38.9825 49.9591 39.2067 50.1488 39.4197V42.5473C49.9256 42.7939 49.7191 43.0237 49.5015 43.2647V45.7029C49.2615 45.9831 49.0662 46.2185 48.9099 46.4091C48.8541 47.3003 48.9992 48.1354 48.8318 48.9369C48.6644 49.1051 48.4244 49.234 48.3853 49.4077C48.2626 49.9066 48.1509 50.3718 47.7156 50.7193C47.604 50.809 47.6654 51.1061 47.6431 51.3527C47.2413 51.7786 46.8171 52.227 46.3818 52.6866V53.2696C46.1586 53.5218 45.9521 53.746 45.7568 53.9702C46.0023 54.6428 45.2713 54.8334 45.1373 55.3098C45.2266 55.7974 44.9085 56.3691 45.4554 56.7502H46.0693C46.3037 56.5317 46.5102 56.1841 46.7446 56.1449C47.5705 56.0216 47.5761 56.0608 47.6542 55.2033C48.0561 54.7773 48.4802 54.3289 48.9155 53.8637V53.3817C49.2782 52.7371 49.8921 52.4625 50.16 51.8739C49.9368 51.2294 50.7404 51.078 50.7795 50.6464C50.8353 49.9514 50.6679 49.3237 50.919 48.7239C51.0697 48.5726 51.2148 48.4269 51.3878 48.2531V45.7757C51.6054 45.5347 51.8119 45.3049 52.0351 45.0639V42.5809C52.2528 42.3455 52.4593 42.1157 52.6602 41.8971V38.7695C52.437 38.5173 52.2305 38.2931 52.0128 38.0521V32.4079L52.0184 32.4135ZM29.1318 51.7002H34.1321C34.3609 51.4816 34.5897 51.2742 34.8018 51.0724C35.025 51.0612 35.2315 51.05 35.4101 51.0388C35.6501 50.8258 35.8789 50.624 36.0909 50.4335C36.3253 50.4615 36.5262 50.4839 36.7104 50.5007C36.9504 50.652 37.0341 50.9996 37.3857 50.9659C37.5364 50.8146 37.6815 50.6689 37.8377 50.5119C37.9828 50.6072 38.167 50.6745 38.2619 50.809C38.4907 51.1117 38.7976 51.0668 39.1269 51.0724C39.3389 50.8762 39.5677 50.6689 39.8077 50.4447H45.4108C45.7177 50.2597 45.7624 49.9795 45.7791 49.6544C45.8014 49.2228 46.3763 49.1051 46.3986 48.6567C46.3986 48.5502 46.3986 48.4493 46.3986 48.3372C46.1251 47.9 45.7791 47.5413 45.3885 47.3115H31.6431C31.3585 47.5525 31.1297 47.7487 30.9343 47.9112C29.9354 47.9112 28.9978 47.8944 28.0547 47.928C27.8872 47.928 27.7198 48.1242 27.558 48.2251V50.1028C27.3403 50.3326 27.1338 50.5624 26.9274 50.7754C26.9162 50.9939 26.905 51.2013 26.8995 51.4087C26.7544 51.5544 26.6093 51.7114 26.453 51.8515C26.2912 52.0028 26.3358 52.1486 26.6093 52.3111H28.4844C28.6853 52.1205 28.9141 51.9076 29.1429 51.6946L29.1318 51.7002ZM44.183 29.6166H30.3874C30.153 29.398 29.9298 29.185 29.7345 29.0057H28.4732C28.3784 29.101 28.3114 29.1738 28.2333 29.2467C27.6696 29.7567 27.5189 29.7624 26.9385 29.3196C26.3135 28.8375 26.3135 28.8319 25.6773 29.3196V29.9193C25.9005 30.1715 26.107 30.3957 26.3246 30.6423V31.8418C26.6539 32.1781 26.9441 32.4752 27.2343 32.7666H29.1094C29.3382 32.5592 29.5559 32.3575 29.7624 32.1725C30.0135 32.3911 30.2423 32.5929 30.4042 32.7274H41.1025C41.2866 32.5424 41.4373 32.3911 41.694 32.1333H44.0547C44.2667 32.1333 44.4732 32.1445 44.6797 32.1333C44.769 32.1276 44.8583 32.0604 44.9643 32.0155C45.2322 31.7297 45.5168 31.4326 45.7791 31.1524C45.7177 30.278 45.7122 30.2668 44.8639 30.2388C44.6462 30.037 44.423 29.824 44.1942 29.611L44.183 29.6166ZM30.0749 5.30229C30.22 5.41439 30.3595 5.61057 30.5102 5.62178C30.8227 5.6498 31.1073 5.67783 31.3082 5.95247C31.3696 6.03654 31.4422 6.12622 31.5259 6.16546C31.6598 6.23272 31.7826 6.09259 31.9668 5.93005C32.4802 5.48726 32.6923 5.50407 33.2392 6.00291C33.3173 6.07017 33.3843 6.14864 33.4568 6.22151C34.4 6.27756 34.4669 6.2103 34.3777 5.25185C34.0875 4.96039 33.7917 4.66333 33.5015 4.37187H32.8876C32.6644 4.15888 32.4411 3.94589 32.2346 3.74972H31.6152L30.0749 5.29669V5.30229ZM27.7477 22.5712C27.8872 22.644 28.0323 22.5712 28.1551 22.3526C28.1663 22.3302 28.0379 22.2013 27.9542 22.1508C27.8203 22.0667 27.6696 22.1452 27.5468 22.3638C27.5357 22.3862 27.6752 22.4983 27.7477 22.5656V22.5712Z" fill="#DAC46D"/>
<path d="M26.1849 13.6258C26.0398 13.7715 25.8891 13.9228 25.6993 14.1134C25.8668 14.3208 26.0453 14.5338 26.2407 14.7748C26.0677 14.9766 25.8779 15.1896 25.6659 15.4306V16.1256C25.1859 16.5796 24.6781 17.0952 24.12 17.5661C23.9972 17.6726 23.7293 17.6109 23.5005 17.6277C23.2885 17.4315 23.0596 17.2242 22.8197 17.0056H20.978C20.7492 16.7926 20.526 16.5796 20.2972 16.3666C19.4656 16.3666 18.6341 16.3666 17.8026 16.3666C17.6966 16.2041 17.5012 16.0415 17.4956 15.8734C17.4733 14.304 17.4789 12.7402 17.4845 11.1708C17.4845 11.0811 17.5459 10.9914 17.4845 11.1652C17.9086 10.6383 18.1653 10.3188 18.383 10.0498C18.6899 10.0722 18.8908 10.0834 19.0694 10.0946C19.315 10.3076 19.5382 10.5094 19.7838 10.7224H20.9725C21.151 10.9018 21.3017 11.0531 21.4524 11.2044C21.8263 11.423 22.2504 11.3277 22.6467 11.3053C23.1992 11.2773 23.6568 11.3782 23.9861 11.8546C25.5431 12.4824 25.3199 12.5216 26.1793 13.6258H26.1849Z" fill="#DAC46D"/>
<path d="M70.2557 24.9701V27.4195C69.9543 27.7221 69.6641 28.0136 69.346 28.3331H68.0848C67.9062 28.1705 67.6774 27.9632 67.4263 27.739H66.8459C66.617 27.5204 66.3938 27.313 66.165 27.0944H64.3066C64.0834 26.8814 63.8602 26.674 63.6258 26.4554H63.023C62.7161 25.951 62.7105 25.951 62.7217 24.9589C62.8891 24.7627 63.0844 24.5329 63.2965 24.2807C63.3411 23.8155 63.3858 23.3223 63.4249 22.8907C63.5867 22.7842 63.6704 22.6889 63.7485 22.6889C64.5745 22.6777 65.3949 22.6833 66.1762 22.6833C66.3659 22.8739 66.511 23.0196 66.6617 23.1709C67.3314 23.524 68.0736 23.1597 68.6205 23.3335C69.2177 23.9332 69.7311 24.4488 70.2557 24.9757V24.9701Z" fill="#DAC46D"/>
<path d="M10.9047 61.1614C10.6703 60.9428 10.447 60.7298 10.235 60.5336C10.0117 60.5224 9.80525 60.5056 9.59877 60.4944C8.78398 59.6761 7.97477 58.8633 7.15998 58.045C6.98698 57.8713 6.85862 57.5518 6.7191 56.9689C6.35077 56.5989 5.98244 56.229 5.60853 55.8535C5.59179 55.6517 5.56947 55.4499 5.55272 55.2089C5.36856 55.0015 5.16207 54.7717 4.93884 54.5251V53.9422C4.72119 53.7068 4.50912 53.477 4.29148 53.2416V51.3919C4.06825 51.1453 3.86176 50.9155 3.69434 50.7305V43.1582C3.86734 42.9845 4.01244 42.8387 4.16312 42.6874C4.47564 42.0092 4.16312 41.2638 4.38077 40.5743C4.52587 40.4286 4.67655 40.2773 4.88862 40.0643C4.90536 39.728 4.9221 39.3244 4.94442 38.8256C5.08394 38.6518 5.27927 38.422 5.51924 38.125V36.337C5.73689 36.0904 5.9378 35.8606 6.14986 35.6196C6.16103 35.4402 6.17219 35.2328 6.18335 35.0086C6.6019 34.5714 7.02604 34.123 7.45576 33.6634V32.4359C7.77386 32.1221 8.06406 31.825 8.371 31.5167H8.9793C9.64899 30.8609 10.3187 30.2164 10.9772 29.5662H12.1938C12.3891 29.37 12.5342 29.2243 12.6849 29.073C12.8802 29.0449 13.0756 28.9889 13.2765 28.9833C14.3201 28.9721 15.3693 28.9777 16.4129 28.9833C16.5021 28.9833 16.5859 29.0617 16.6752 29.1066C16.8203 29.2523 16.9709 29.4037 17.1495 29.583H18.2378C19.2646 30.6143 20.2189 31.5728 21.2569 32.6153V34.3248C21.4746 34.5546 21.6811 34.7844 21.8876 34.9974C21.8987 35.2216 21.9099 35.4234 21.9211 35.6083C22.1331 35.8494 22.334 36.0792 22.5517 36.3258V40.6808L23.0316 41.1629C23.1153 41.5328 22.7358 41.6 22.4456 42.1325C22.2838 42.4464 22.7303 42.7715 23.1209 43.1414C22.9256 43.36 22.7303 43.5786 22.5349 43.7972C22.7247 44.0102 22.9256 44.2288 23.1153 44.4418C22.92 44.666 22.7358 44.8846 22.5517 45.0975C22.7303 45.2769 22.8809 45.4282 23.026 45.574C23.1098 45.9439 22.7303 46.0112 22.5907 46.269C22.574 46.3306 22.5238 46.4259 22.5182 46.5212C22.5126 47.4684 22.5182 48.4101 22.5182 49.4078C22.3452 49.6095 22.1499 49.8393 21.9155 50.114V51.93C21.6978 52.171 21.4913 52.3952 21.2681 52.6418V53.236C21.0505 53.4714 20.844 53.7012 20.6207 53.9366V54.5139C20.3975 54.7661 20.191 54.9959 19.9734 55.2369V56.442C18.8349 57.5854 17.7243 58.7008 16.6193 59.8106C15.9497 59.9339 15.8325 59.9731 15.3246 60.4776C15.1181 60.4888 14.9172 60.5 14.694 60.5112C14.4763 60.713 14.2531 60.926 14.0243 61.1389H10.9102L10.9047 61.1614ZM13.0923 33.0693V36.2249C13.3044 36.4491 13.5164 36.6789 13.7285 36.9031V38.1362L15.2855 39.7H17.1886C17.8918 38.9769 18.6117 38.2259 19.3707 37.4412V35.6252C19.1697 35.4122 18.9577 35.1824 18.7456 34.9582V34.3416C18.4498 34.0446 18.1541 33.7475 17.8583 33.4504C17.6574 33.4336 17.4565 33.4168 17.1663 33.3888C16.5747 32.7947 15.9329 32.1501 15.28 31.4943C14.934 31.9875 14.5098 32.2229 13.9908 32.2061C13.6727 32.5088 13.3714 32.7947 13.0867 33.0693H13.0923Z" fill="#DAC46D"/>
</g>
<defs>
<clipPath id="clip0_795_6966">
<rect width="96" height="75" fill="white"/>
</clipPath>
</defs>
</svg>
