<svg width="272" height="58" viewBox="0 0 272 58" fill="none" xmlns="http://www.w3.org/2000/svg">
<path d="M192 49C192 22.4903 166.928 1 136 1C105.072 1 80 22.4903 80 49" stroke="#57AACE" stroke-width="2"/>
<line x1="192" y1="48" x2="272" y2="48" stroke="#57AACE" stroke-width="2"/>
<line y1="48" x2="80" y2="48" stroke="#57AACE" stroke-width="2"/>
<path d="M105.821 21.4192C106.273 21.4192 106.666 21.56 106.999 21.8416C107.331 22.1147 107.498 22.5328 107.498 23.096C107.498 23.4629 107.489 23.7701 107.472 24.0176C107.464 24.2651 107.451 24.4869 107.434 24.6832C107.425 24.8709 107.421 25.0672 107.421 25.272C107.421 25.5109 107.434 25.6816 107.459 25.784C107.493 25.8779 107.579 25.9248 107.715 25.9248C107.835 25.9248 108.014 25.8693 108.253 25.7584L108.483 26.3216C108.176 26.5349 107.882 26.7141 107.6 26.8592C107.319 26.9957 107.02 27.064 106.704 27.064C106.44 27.064 106.209 26.9616 106.013 26.7568C105.817 26.5435 105.719 26.2107 105.719 25.7584C105.719 25.3403 105.736 24.9307 105.77 24.5296C105.812 24.12 105.834 23.7573 105.834 23.4416C105.834 23.1771 105.795 22.9637 105.719 22.8016C105.642 22.6395 105.514 22.5285 105.335 22.4688C104.942 22.4859 104.567 22.5584 104.208 22.6864C103.85 22.8144 103.483 22.9765 103.107 23.1728L102.775 22.6224C103.261 22.264 103.752 21.9739 104.247 21.752C104.75 21.5301 105.275 21.4192 105.821 21.4192ZM106.73 23.4288L105.962 24.4912C105.774 24.5339 105.608 24.5765 105.463 24.6192C105.317 24.6619 105.185 24.696 105.066 24.7216C104.776 24.7813 104.575 24.8581 104.464 24.952C104.353 25.0373 104.298 25.1909 104.298 25.4128C104.298 25.592 104.345 25.7328 104.439 25.8352C104.532 25.9376 104.66 25.9888 104.823 25.9888C105.019 25.9888 105.266 25.8992 105.565 25.72C105.872 25.5323 106.132 25.2976 106.346 25.016L106.589 25.5408C106.452 25.7115 106.256 25.9205 106 26.168C105.753 26.4155 105.454 26.6373 105.104 26.8336C104.754 27.0213 104.37 27.1152 103.952 27.1152C103.739 27.1152 103.53 27.0597 103.325 26.9488C103.129 26.8293 102.962 26.6544 102.826 26.424C102.698 26.1936 102.634 25.9077 102.634 25.5664C102.634 25.208 102.74 24.9307 102.954 24.7344C103.176 24.5296 103.474 24.3717 103.85 24.2608C104.225 24.1499 104.639 24.056 105.091 23.9792C105.399 23.928 105.684 23.864 105.949 23.7872C106.213 23.7019 106.474 23.5824 106.73 23.4288ZM115.244 17.4384C115.244 17.9845 115.239 18.5819 115.231 19.2304C115.231 19.8789 115.231 20.6171 115.231 21.4448C115.231 22.136 115.231 22.8059 115.231 23.4544C115.231 24.0944 115.231 24.6619 115.231 25.1568C115.239 25.6432 115.248 26.0101 115.256 26.2576L116.216 26.5264L116.024 27C115.802 26.9829 115.585 26.9744 115.372 26.9744C115.158 26.9744 114.898 26.9744 114.591 26.9744C114.36 26.9744 114.168 26.9787 114.015 26.9872C113.861 26.9872 113.725 26.9915 113.605 27C113.597 26.8293 113.58 26.6715 113.554 26.5264C113.537 26.3728 113.52 26.2149 113.503 26.0528C113.511 25.6688 113.516 25.2848 113.516 24.9008C113.524 24.5168 113.528 24.1456 113.528 23.7872C113.528 23.5397 113.528 23.2965 113.528 23.0576C113.528 22.8187 113.524 22.5712 113.516 22.3152C113.516 21.9227 113.507 21.496 113.49 21.0352C113.481 20.5744 113.464 20.1136 113.439 19.6528C113.422 19.192 113.396 18.7739 113.362 18.3984L112.325 18.232L112.21 17.6816C112.355 17.6816 112.556 17.6731 112.812 17.656C113.068 17.6389 113.345 17.6219 113.644 17.6048C113.951 17.5792 114.245 17.5536 114.527 17.528C114.808 17.4939 115.047 17.464 115.244 17.4384ZM111.903 21.4192C112.372 21.4192 112.786 21.5429 113.144 21.7904C113.503 22.0379 113.763 22.3877 113.925 22.84L113.528 23.928C113.528 23.6293 113.464 23.3605 113.336 23.1216C113.217 22.8741 113.068 22.6736 112.888 22.52C112.709 22.3579 112.538 22.2597 112.376 22.2256C112.035 22.328 111.766 22.5627 111.57 22.9296C111.382 23.2965 111.288 23.7189 111.288 24.1968C111.288 24.8453 111.412 25.3275 111.66 25.6432C111.907 25.9589 112.189 26.1168 112.504 26.1168C112.803 26.1168 113.085 25.9547 113.349 25.6304C113.622 25.3061 113.81 24.8795 113.912 24.3504L114.309 24.9264C114.079 25.5493 113.763 26.0656 113.362 26.4752C112.969 26.8848 112.483 27.0896 111.903 27.0896C111.519 27.0896 111.143 26.9829 110.776 26.7696C110.418 26.5477 110.124 26.2235 109.893 25.7968C109.663 25.3616 109.548 24.8197 109.548 24.1712C109.548 23.5653 109.667 23.0576 109.906 22.648C110.145 22.2384 110.444 21.9312 110.802 21.7264C111.169 21.5216 111.536 21.4192 111.903 21.4192ZM120.517 21.6368L120.735 22.1232L119.762 22.4048C119.898 22.7205 120.014 22.9936 120.107 23.224C120.201 23.4459 120.295 23.6635 120.389 23.8768C120.491 24.0816 120.607 24.312 120.735 24.568C120.871 24.8155 121.042 25.1227 121.247 25.4896C121.264 25.5749 121.234 25.7072 121.157 25.8864C121.08 26.0571 120.982 26.2405 120.863 26.4368C120.752 26.6245 120.637 26.7867 120.517 26.9232C120.406 27.0512 120.317 27.1152 120.248 27.1152C120.018 26.6459 119.805 26.2192 119.608 25.8352C119.421 25.4512 119.237 25.0843 119.058 24.7344C118.887 24.3845 118.704 24.0219 118.507 23.6464C118.311 23.2709 118.089 22.8571 117.842 22.4048L116.984 22.1232L117.112 21.6368C117.368 21.6453 117.616 21.6539 117.855 21.6624C118.102 21.6709 118.388 21.6752 118.712 21.6752C119.071 21.6752 119.403 21.6709 119.711 21.6624C120.018 21.6539 120.287 21.6453 120.517 21.6368ZM124.063 21.6368L124.267 22.1232L123.307 22.4048C122.983 23.0107 122.706 23.5653 122.475 24.0688C122.254 24.5637 122.04 25.0544 121.835 25.5408C121.631 26.0272 121.405 26.552 121.157 27.1152H120.248C120.607 26.3813 120.948 25.6389 121.272 24.888C121.605 24.1285 121.904 23.3008 122.168 22.4048L121.183 22.1232L121.375 21.6368C121.648 21.6453 121.887 21.6539 122.091 21.6624C122.305 21.6709 122.522 21.6752 122.744 21.6752C123.034 21.6752 123.269 21.6709 123.448 21.6624C123.627 21.6539 123.832 21.6453 124.063 21.6368ZM128.416 21.4192C128.868 21.4192 129.261 21.56 129.594 21.8416C129.926 22.1147 130.093 22.5328 130.093 23.096C130.093 23.4629 130.084 23.7701 130.067 24.0176C130.059 24.2651 130.046 24.4869 130.029 24.6832C130.02 24.8709 130.016 25.0672 130.016 25.272C130.016 25.5109 130.029 25.6816 130.054 25.784C130.088 25.8779 130.174 25.9248 130.31 25.9248C130.43 25.9248 130.609 25.8693 130.848 25.7584L131.078 26.3216C130.771 26.5349 130.477 26.7141 130.195 26.8592C129.914 26.9957 129.615 27.064 129.299 27.064C129.035 27.064 128.804 26.9616 128.608 26.7568C128.412 26.5435 128.314 26.2107 128.314 25.7584C128.314 25.3403 128.331 24.9307 128.365 24.5296C128.407 24.12 128.429 23.7573 128.429 23.4416C128.429 23.1771 128.39 22.9637 128.314 22.8016C128.237 22.6395 128.109 22.5285 127.93 22.4688C127.537 22.4859 127.162 22.5584 126.803 22.6864C126.445 22.8144 126.078 22.9765 125.702 23.1728L125.37 22.6224C125.856 22.264 126.347 21.9739 126.842 21.752C127.345 21.5301 127.87 21.4192 128.416 21.4192ZM129.325 23.4288L128.557 24.4912C128.369 24.5339 128.203 24.5765 128.058 24.6192C127.912 24.6619 127.78 24.696 127.661 24.7216C127.371 24.7813 127.17 24.8581 127.059 24.952C126.948 25.0373 126.893 25.1909 126.893 25.4128C126.893 25.592 126.94 25.7328 127.034 25.8352C127.127 25.9376 127.255 25.9888 127.418 25.9888C127.614 25.9888 127.861 25.8992 128.16 25.72C128.467 25.5323 128.727 25.2976 128.941 25.016L129.184 25.5408C129.047 25.7115 128.851 25.9205 128.595 26.168C128.348 26.4155 128.049 26.6373 127.699 26.8336C127.349 27.0213 126.965 27.1152 126.547 27.1152C126.334 27.1152 126.125 27.0597 125.92 26.9488C125.724 26.8293 125.557 26.6544 125.421 26.424C125.293 26.1936 125.229 25.9077 125.229 25.5664C125.229 25.208 125.335 24.9307 125.549 24.7344C125.771 24.5296 126.069 24.3717 126.445 24.2608C126.82 24.1499 127.234 24.056 127.686 23.9792C127.994 23.928 128.279 23.864 128.544 23.7872C128.808 23.7019 129.069 23.5824 129.325 23.4288ZM137.045 21.432C137.531 21.432 137.928 21.6155 138.235 21.9824C138.551 22.3493 138.726 22.8229 138.76 23.4032C138.769 23.5568 138.769 23.8 138.76 24.1328C138.752 24.4571 138.743 24.8112 138.735 25.1952C138.735 25.5792 138.735 25.9333 138.735 26.2576L139.695 26.5264L139.49 27C139.268 26.9829 139.016 26.9744 138.735 26.9744C138.453 26.9659 138.176 26.9616 137.903 26.9616C137.57 26.9616 137.271 26.9659 137.007 26.9744C136.742 26.9829 136.499 26.9915 136.277 27L136.111 26.5264L137.045 26.2576C137.053 25.9675 137.062 25.7243 137.071 25.528C137.079 25.3232 137.083 25.1227 137.083 24.9264C137.092 24.7216 137.092 24.4827 137.083 24.2096C137.075 23.6891 136.981 23.3093 136.802 23.0704C136.623 22.8315 136.358 22.6736 136.008 22.5968C135.633 22.8443 135.36 23.1472 135.189 23.5056C135.018 23.864 134.937 24.2053 134.946 24.5296L134.472 23.9664C134.532 23.48 134.677 23.0448 134.907 22.6608C135.146 22.2768 135.449 21.9781 135.816 21.7648C136.183 21.5429 136.593 21.432 137.045 21.432ZM134.959 21.368C134.959 21.6496 134.959 21.88 134.959 22.0592C134.959 22.2299 134.954 22.4048 134.946 22.584C134.946 22.7547 134.937 22.9851 134.92 23.2752L134.971 26.2576L135.906 26.5264L135.739 27C135.449 26.9829 135.176 26.9744 134.92 26.9744C134.664 26.9659 134.383 26.9616 134.075 26.9616C133.743 26.9616 133.452 26.9659 133.205 26.9744C132.966 26.9829 132.723 26.9915 132.475 27L132.271 26.5264L133.231 26.2576C133.231 25.9845 133.239 25.6645 133.256 25.2976C133.282 24.9221 133.295 24.568 133.295 24.2352C133.295 23.9877 133.29 23.7829 133.282 23.6208C133.282 23.4501 133.273 23.2752 133.256 23.096C133.239 22.9083 133.213 22.6651 133.179 22.3664L132.181 22.1232L132.027 21.6368C132.531 21.6112 133.004 21.5771 133.448 21.5344C133.9 21.4832 134.404 21.4277 134.959 21.368ZM143.049 19.9344C143.032 20.2331 143.019 20.5829 143.01 20.984C143.002 21.3765 142.993 21.7861 142.985 22.2128C142.985 22.6309 142.985 23.032 142.985 23.416C142.993 23.8 142.998 24.1328 142.998 24.4144C143.006 24.696 143.015 24.8923 143.023 25.0032C143.04 25.3189 143.096 25.5408 143.19 25.6688C143.283 25.7968 143.433 25.8608 143.638 25.8608C143.783 25.8608 143.936 25.8352 144.098 25.784C144.26 25.7328 144.474 25.6261 144.738 25.464L144.994 25.976C144.781 26.1552 144.551 26.3344 144.303 26.5136C144.064 26.6928 143.8 26.8421 143.51 26.9616C143.228 27.0725 142.912 27.128 142.562 27.128C142.366 27.128 142.174 27.0853 141.986 27C141.799 26.9232 141.645 26.7867 141.526 26.5904C141.415 26.3856 141.359 26.1125 141.359 25.7712C141.359 25.7797 141.359 25.7029 141.359 25.5408C141.368 25.3787 141.372 25.1653 141.372 24.9008C141.38 24.6277 141.389 24.3419 141.398 24.0432C141.406 23.7445 141.41 23.4629 141.41 23.1984C141.419 22.9339 141.423 22.7205 141.423 22.5584C141.432 22.3877 141.436 22.3109 141.436 22.328C141.427 22.2341 141.372 22.1531 141.27 22.0848C141.176 22.0165 141.065 21.9568 140.937 21.9056C140.809 21.8544 140.694 21.8075 140.591 21.7648C140.489 21.7221 140.433 21.6752 140.425 21.624C140.63 21.5899 140.804 21.5557 140.95 21.5216C141.095 21.4875 141.252 21.4491 141.423 21.4064C141.611 21.1589 141.777 20.9285 141.922 20.7152C142.076 20.4933 142.251 20.2331 142.447 19.9344C142.524 19.9344 142.622 19.9344 142.742 19.9344C142.861 19.9344 142.963 19.9344 143.049 19.9344ZM144.815 21.6112V22.5456L140.425 22.2896V21.624L144.815 21.6112ZM149.061 21.4192C149.513 21.4192 149.906 21.56 150.239 21.8416C150.571 22.1147 150.738 22.5328 150.738 23.096C150.738 23.4629 150.729 23.7701 150.712 24.0176C150.704 24.2651 150.691 24.4869 150.674 24.6832C150.665 24.8709 150.661 25.0672 150.661 25.272C150.661 25.5109 150.674 25.6816 150.699 25.784C150.733 25.8779 150.819 25.9248 150.955 25.9248C151.075 25.9248 151.254 25.8693 151.493 25.7584L151.723 26.3216C151.416 26.5349 151.122 26.7141 150.84 26.8592C150.559 26.9957 150.26 27.064 149.944 27.064C149.68 27.064 149.449 26.9616 149.253 26.7568C149.057 26.5435 148.959 26.2107 148.959 25.7584C148.959 25.3403 148.976 24.9307 149.01 24.5296C149.052 24.12 149.074 23.7573 149.074 23.4416C149.074 23.1771 149.035 22.9637 148.959 22.8016C148.882 22.6395 148.754 22.5285 148.575 22.4688C148.182 22.4859 147.807 22.5584 147.448 22.6864C147.09 22.8144 146.723 22.9765 146.347 23.1728L146.015 22.6224C146.501 22.264 146.992 21.9739 147.487 21.752C147.99 21.5301 148.515 21.4192 149.061 21.4192ZM149.97 23.4288L149.202 24.4912C149.014 24.5339 148.848 24.5765 148.703 24.6192C148.557 24.6619 148.425 24.696 148.306 24.7216C148.016 24.7813 147.815 24.8581 147.704 24.952C147.593 25.0373 147.538 25.1909 147.538 25.4128C147.538 25.592 147.585 25.7328 147.679 25.8352C147.772 25.9376 147.9 25.9888 148.063 25.9888C148.259 25.9888 148.506 25.8992 148.805 25.72C149.112 25.5323 149.372 25.2976 149.586 25.016L149.829 25.5408C149.692 25.7115 149.496 25.9205 149.24 26.168C148.993 26.4155 148.694 26.6373 148.344 26.8336C147.994 27.0213 147.61 27.1152 147.192 27.1152C146.979 27.1152 146.77 27.0597 146.565 26.9488C146.369 26.8293 146.202 26.6544 146.066 26.424C145.938 26.1936 145.874 25.9077 145.874 25.5664C145.874 25.208 145.98 24.9307 146.194 24.7344C146.416 24.5296 146.714 24.3717 147.09 24.2608C147.465 24.1499 147.879 24.056 148.331 23.9792C148.639 23.928 148.924 23.864 149.189 23.7872C149.453 23.7019 149.714 23.5824 149.97 23.4288ZM154.311 24.6576L154.925 24.8112C154.729 25.1525 154.631 25.4085 154.631 25.5792C154.631 25.8096 154.754 25.9504 155.002 26.0016C155.249 26.0528 155.544 26.0869 155.885 26.104C156.15 26.1211 156.423 26.1509 156.704 26.1936C156.986 26.2277 157.246 26.3045 157.485 26.424C157.733 26.5349 157.929 26.7141 158.074 26.9616C158.228 27.2005 158.304 27.5333 158.304 27.96C158.304 28.3781 158.189 28.7707 157.959 29.1376C157.737 29.5131 157.391 29.816 156.922 30.0464C156.453 30.2768 155.86 30.392 155.143 30.392C154.597 30.392 154.14 30.3109 153.773 30.1488C153.406 29.9867 153.129 29.7733 152.941 29.5088C152.753 29.2443 152.66 28.9627 152.66 28.664C152.66 28.2885 152.8 27.9216 153.082 27.5632C153.372 27.2133 153.807 26.9403 154.388 26.744L154.631 26.8848C154.46 27.0896 154.332 27.2944 154.247 27.4992C154.17 27.704 154.132 27.9045 154.132 28.1008C154.132 28.4848 154.285 28.8091 154.592 29.0736C154.908 29.3381 155.343 29.4704 155.898 29.4704C156.256 29.4704 156.576 29.3851 156.858 29.2144C157.14 29.0523 157.28 28.7835 157.28 28.408C157.28 28.1349 157.118 27.9259 156.794 27.7808C156.478 27.6443 155.919 27.576 155.117 27.576C154.562 27.576 154.106 27.4693 153.748 27.256C153.389 27.0427 153.21 26.6885 153.21 26.1936C153.474 25.8523 153.684 25.5707 153.837 25.3488C153.991 25.1269 154.149 24.8965 154.311 24.6576ZM154.989 22.0208C154.818 22.1403 154.699 22.3237 154.631 22.5712C154.571 22.8187 154.541 23.0448 154.541 23.2496C154.541 23.4715 154.592 23.7019 154.695 23.9408C154.797 24.1797 154.938 24.3803 155.117 24.5424C155.296 24.7045 155.505 24.7856 155.744 24.7856C155.889 24.7173 156.005 24.568 156.09 24.3376C156.184 24.1072 156.231 23.8469 156.231 23.5568C156.231 23.3349 156.171 23.1088 156.052 22.8784C155.932 22.6395 155.778 22.4389 155.591 22.2768C155.403 22.1061 155.202 22.0208 154.989 22.0208ZM155.335 21.4832C155.924 21.4832 156.397 21.5771 156.756 21.7648C157.122 21.944 157.391 22.1829 157.562 22.4816C157.733 22.7717 157.818 23.0832 157.818 23.416C157.818 23.7744 157.724 24.1072 157.536 24.4144C157.349 24.7131 157.067 24.9563 156.692 25.144C156.316 25.3232 155.847 25.4128 155.284 25.4128C154.789 25.4128 154.362 25.3275 154.004 25.1568C153.654 24.9776 153.385 24.7429 153.197 24.4528C153.009 24.1627 152.916 23.8427 152.916 23.4928C152.916 23.1344 153.005 22.8059 153.184 22.5072C153.372 22.2 153.645 21.9525 154.004 21.7648C154.362 21.5771 154.806 21.4832 155.335 21.4832ZM159.085 21.5856C159.085 21.7989 159.081 22.0336 159.072 22.2896C159.064 22.5371 159.06 22.7205 159.06 22.84C158.641 22.6608 158.274 22.5243 157.959 22.4304C157.652 22.3365 157.349 22.2725 157.05 22.2384L156.448 21.752C156.721 21.7179 157.037 21.688 157.396 21.6624C157.754 21.6368 158.087 21.6197 158.394 21.6112C158.71 21.5941 158.94 21.5856 159.085 21.5856ZM162.441 21.4064C162.868 21.4064 163.26 21.5003 163.619 21.688C163.986 21.8757 164.276 22.1616 164.489 22.5456C164.711 22.9211 164.822 23.3947 164.822 23.9664C164.634 24.0005 164.387 24.0304 164.08 24.056C163.772 24.0816 163.435 24.1029 163.068 24.12C162.701 24.1285 162.334 24.1328 161.968 24.1328C161.694 24.1328 161.46 24.1285 161.264 24.12C161.067 24.1115 160.935 24.1029 160.867 24.0944V23.48C160.961 23.48 161.101 23.48 161.289 23.48C161.485 23.48 161.703 23.4757 161.942 23.4672C162.181 23.4587 162.411 23.4459 162.633 23.4288C162.864 23.4117 163.056 23.3904 163.209 23.3648C163.201 23.1856 163.149 23.0064 163.056 22.8272C162.97 22.6395 162.838 22.4816 162.659 22.3536C162.48 22.2256 162.249 22.1616 161.968 22.1616C161.797 22.3237 161.66 22.5499 161.558 22.84C161.456 23.1216 161.404 23.4501 161.404 23.8256C161.404 24.5936 161.562 25.1611 161.878 25.528C162.202 25.8864 162.599 26.0656 163.068 26.0656C163.546 26.0656 164.05 25.8949 164.579 25.5536L164.86 26.1424C164.493 26.4752 164.101 26.7141 163.683 26.8592C163.265 27.0043 162.851 27.0768 162.441 27.0768C161.963 27.0768 161.515 26.9744 161.097 26.7696C160.688 26.5563 160.355 26.2405 160.099 25.8224C159.851 25.4043 159.728 24.8837 159.728 24.2608C159.728 23.6293 159.856 23.1045 160.112 22.6864C160.376 22.2597 160.713 21.9397 161.123 21.7264C161.541 21.5131 161.98 21.4064 162.441 21.4064ZM166.069 26.6672C166.137 26.3429 166.193 26.0741 166.235 25.8608C166.287 25.6389 166.329 25.4 166.363 25.144H167.003L167.208 26.1424C167.319 26.2363 167.451 26.3088 167.605 26.36C167.759 26.4112 167.912 26.4368 168.066 26.4368C168.279 26.4368 168.467 26.3856 168.629 26.2832C168.8 26.1808 168.885 26.0229 168.885 25.8096C168.885 25.6304 168.817 25.4853 168.68 25.3744C168.552 25.2549 168.386 25.1525 168.181 25.0672C167.976 24.9733 167.759 24.8837 167.528 24.7984C167.298 24.7045 167.08 24.5893 166.875 24.4528C166.671 24.3163 166.5 24.1456 166.363 23.9408C166.235 23.736 166.171 23.4757 166.171 23.16C166.171 22.7248 166.278 22.3835 166.491 22.136C166.705 21.88 166.982 21.6965 167.323 21.5856C167.673 21.4747 168.04 21.4192 168.424 21.4192C168.723 21.4192 169.034 21.4533 169.359 21.5216C169.683 21.5899 169.977 21.688 170.242 21.816C170.174 22.1147 170.11 22.3792 170.05 22.6096C169.999 22.84 169.952 23.0661 169.909 23.288L169.243 23.2752L169.077 22.4048C168.923 22.2 168.672 22.0976 168.322 22.0976C168.134 22.0976 167.959 22.1403 167.797 22.2256C167.643 22.3109 167.567 22.4517 167.567 22.648C167.567 22.8357 167.635 22.9893 167.771 23.1088C167.908 23.2197 168.083 23.3179 168.296 23.4032C168.518 23.4885 168.753 23.5824 169 23.6848C169.248 23.7787 169.478 23.8981 169.691 24.0432C169.913 24.1883 170.093 24.376 170.229 24.6064C170.366 24.8283 170.434 25.1141 170.434 25.464C170.434 25.8736 170.323 26.2021 170.101 26.4496C169.879 26.6885 169.585 26.8635 169.218 26.9744C168.851 27.0768 168.454 27.128 168.027 27.128C167.703 27.128 167.375 27.0939 167.042 27.0256C166.709 26.9573 166.385 26.8379 166.069 26.6672ZM129.439 33.375C131.356 33.375 132.898 34.0667 134.064 35.45C135.231 36.8167 135.814 38.8083 135.814 41.425C135.814 43.075 135.548 44.475 135.014 45.625C134.481 46.775 133.739 47.65 132.789 48.25C131.839 48.85 130.723 49.15 129.439 49.15C128.156 49.15 127.031 48.85 126.064 48.25C125.114 47.65 124.373 46.775 123.839 45.625C123.306 44.475 123.039 43.075 123.039 41.425C123.039 38.8083 123.623 36.8167 124.789 35.45C125.973 34.0667 127.523 33.375 129.439 33.375ZM129.289 34.7C128.856 34.7 128.423 34.9167 127.989 35.35C127.556 35.7833 127.189 36.4917 126.889 37.475C126.606 38.4583 126.464 39.775 126.464 41.425C126.464 42.975 126.614 44.225 126.914 45.175C127.214 46.1083 127.606 46.7833 128.089 47.2C128.573 47.6167 129.081 47.825 129.614 47.825C130.048 47.825 130.473 47.6167 130.889 47.2C131.323 46.7833 131.681 46.1083 131.964 45.175C132.248 44.225 132.389 42.975 132.389 41.425C132.389 39.775 132.239 38.4583 131.939 37.475C131.656 36.4917 131.273 35.7833 130.789 35.35C130.323 34.9167 129.823 34.7 129.289 34.7ZM145.65 33.25C145.633 34.3667 145.617 35.3083 145.6 36.075C145.6 36.8417 145.592 37.5 145.575 38.05C145.575 38.5833 145.567 39.0833 145.55 39.55C145.55 40.0167 145.55 40.5083 145.55 41.025C145.55 41.775 145.55 42.475 145.55 43.125C145.567 43.7583 145.583 44.4 145.6 45.05C145.617 45.7 145.633 46.4333 145.65 47.25L148.7 47.875L148.3 49C147.833 48.9667 147.175 48.95 146.325 48.95C145.492 48.9333 144.658 48.925 143.825 48.925C143.358 48.925 142.817 48.9333 142.2 48.95C141.6 48.95 141.017 48.9583 140.45 48.975C139.883 48.975 139.417 48.9833 139.05 49L138.65 47.875L141.825 47.25C141.858 46.4667 141.875 45.7667 141.875 45.15C141.892 44.5333 141.9 43.9333 141.9 43.35C141.917 42.75 141.925 42.0917 141.925 41.375C141.925 40.725 141.917 40.1833 141.9 39.75C141.9 39.3 141.892 38.8583 141.875 38.425C141.875 37.975 141.858 37.4167 141.825 36.75L138.875 36.825L138.425 35.575C139.375 35.4417 140.375 35.2 141.425 34.85C142.475 34.5 143.433 33.9667 144.3 33.25H145.65Z" fill="#57AACE"/>
</svg>
