<svg width="809" height="45" viewBox="0 0 809 45" fill="none" xmlns="http://www.w3.org/2000/svg">
<path d="M404.5 6.73704C413.195 6.73704 420.263 13.8052 420.263 22.5C420.263 31.1948 413.195 38.263 404.5 38.263C395.805 38.263 388.737 31.1948 388.737 22.5C388.737 13.8052 395.805 6.73704 404.5 6.73704ZM404.5 0C392.077 0 382 10.0768 382 22.5C382 34.9232 392.077 45 404.5 45C416.923 45 427 34.9232 427 22.5C427 10.0768 416.923 0 404.5 0Z" fill="#F39556"/>
<path d="M411.381 22.0537C413.742 22.0537 415.411 24.5585 414.418 26.761C412.691 30.6046 408.905 33.2821 404.5 33.2821C400.095 33.2821 396.323 30.619 394.581 26.761C393.588 24.5585 395.258 22.0537 397.619 22.0537H411.366H411.381Z" fill="#F39556"/>
<path d="M347.423 0.185126C332.709 -1.67205 320.328 10.7091 322.185 25.4225C323.452 35.457 331.543 43.548 341.577 44.8149C356.291 46.672 368.672 34.2909 366.815 19.5775C365.548 9.54297 357.457 1.45203 347.423 0.185126ZM346.731 38.106C341.678 38.8115 336.999 37.0839 333.688 33.9454C332.867 33.168 333.155 31.7571 334.25 31.4547C335.344 31.1524 336.567 30.6917 337.806 30.0007C340.944 28.2731 343.233 25.7681 344.558 24.0404C345.177 23.2342 344.615 22.0825 343.607 22.0825H330.694C329.614 22.0825 328.764 21.1179 328.937 20.0526C330.103 12.5087 336.639 6.70683 344.5 6.70683C353.8 6.70683 361.243 14.7978 360.164 24.314C359.357 31.3396 353.757 37.0982 346.746 38.0772L346.731 38.106Z" fill="#F39556"/>
<path d="M442.185 19.5775C440.328 34.2909 452.709 46.6721 467.423 44.8149C477.457 43.548 485.548 35.457 486.815 25.4225C488.672 10.7091 476.291 -1.67205 461.577 0.185126C451.543 1.45203 443.452 9.54298 442.185 19.5775ZM448.836 24.3428C447.757 14.8266 455.2 6.73562 464.5 6.73562C472.375 6.73562 478.897 12.5375 480.063 20.0814C480.221 21.1467 479.372 22.1113 478.306 22.1113H465.393C464.385 22.1113 463.823 23.263 464.442 24.0692C465.767 25.7968 468.056 28.2875 471.194 30.0295C472.433 30.7205 473.642 31.1812 474.75 31.4835C475.859 31.7859 476.133 33.1824 475.312 33.9742C472.001 37.1126 467.322 38.8403 462.269 38.1348C455.257 37.1558 449.657 31.3972 448.851 24.3716L448.836 24.3428Z" fill="#F39556"/>
<g clip-path="url(#clip0_17_471)">
<path d="M0 27.5C8.81 27.5 8.81 35.49 17.61 35.49C26.41 35.49 26.42 27.5 35.23 27.5C44.04 27.5 44.04 35.49 52.85 35.49C61.66 35.49 61.66 27.5 70.47 27.5C79.28 27.5 79.28 35.49 88.09 35.49" stroke="#F39556" stroke-width="2" stroke-miterlimit="10"/>
</g>
<g clip-path="url(#clip1_17_471)">
<path d="M70 27.5C78.81 27.5 78.81 35.49 87.61 35.49C96.41 35.49 96.42 27.5 105.23 27.5C114.04 27.5 114.04 35.49 122.85 35.49C131.66 35.49 131.66 27.5 140.47 27.5C149.28 27.5 149.28 35.49 158.09 35.49" stroke="#F39556" stroke-width="2" stroke-miterlimit="10"/>
</g>
<g clip-path="url(#clip2_17_471)">
<path d="M140 27.5C148.81 27.5 148.81 35.49 157.61 35.49C166.41 35.49 166.42 27.5 175.23 27.5C184.04 27.5 184.04 35.49 192.85 35.49C201.66 35.49 201.66 27.5 210.47 27.5C219.28 27.5 219.28 35.49 228.09 35.49" stroke="#F39556" stroke-width="2" stroke-miterlimit="10"/>
</g>
<g clip-path="url(#clip3_17_471)">
<path d="M210 27.5C218.81 27.5 218.81 35.49 227.61 35.49C236.41 35.49 236.42 27.5 245.23 27.5C254.04 27.5 254.04 35.49 262.85 35.49C271.66 35.49 271.66 27.5 280.47 27.5C289.28 27.5 289.28 35.49 298.09 35.49" stroke="#F39556" stroke-width="2" stroke-miterlimit="10"/>
</g>
<g clip-path="url(#clip4_17_471)">
<path d="M0 15.5C8.81 15.5 8.81 23.49 17.61 23.49C26.41 23.49 26.42 15.5 35.23 15.5C44.04 15.5 44.04 23.49 52.85 23.49C61.66 23.49 61.66 15.5 70.47 15.5C79.28 15.5 79.28 23.49 88.09 23.49" stroke="#F39556" stroke-width="2" stroke-miterlimit="10"/>
</g>
<g clip-path="url(#clip5_17_471)">
<path d="M70 15.5C78.81 15.5 78.81 23.49 87.61 23.49C96.41 23.49 96.42 15.5 105.23 15.5C114.04 15.5 114.04 23.49 122.85 23.49C131.66 23.49 131.66 15.5 140.47 15.5C149.28 15.5 149.28 23.49 158.09 23.49" stroke="#F39556" stroke-width="2" stroke-miterlimit="10"/>
</g>
<g clip-path="url(#clip6_17_471)">
<path d="M140 15.5C148.81 15.5 148.81 23.49 157.61 23.49C166.41 23.49 166.42 15.5 175.23 15.5C184.04 15.5 184.04 23.49 192.85 23.49C201.66 23.49 201.66 15.5 210.47 15.5C219.28 15.5 219.28 23.49 228.09 23.49" stroke="#F39556" stroke-width="2" stroke-miterlimit="10"/>
</g>
<g clip-path="url(#clip7_17_471)">
<path d="M210 15.5C218.81 15.5 218.81 23.49 227.61 23.49C236.41 23.49 236.42 15.5 245.23 15.5C254.04 15.5 254.04 23.49 262.85 23.49C271.66 23.49 271.66 15.5 280.47 15.5C289.28 15.5 289.28 23.49 298.09 23.49" stroke="#F39556" stroke-width="2" stroke-miterlimit="10"/>
</g>
<g clip-path="url(#clip8_17_471)">
<path d="M0 2.5C8.81 2.5 8.81 10.49 17.61 10.49C26.41 10.49 26.42 2.5 35.23 2.5C44.04 2.5 44.04 10.49 52.85 10.49C61.66 10.49 61.66 2.5 70.47 2.5C79.28 2.5 79.28 10.49 88.09 10.49" stroke="#F39556" stroke-width="2" stroke-miterlimit="10"/>
</g>
<g clip-path="url(#clip9_17_471)">
<path d="M70 2.5C78.81 2.5 78.81 10.49 87.61 10.49C96.41 10.49 96.42 2.5 105.23 2.5C114.04 2.5 114.04 10.49 122.85 10.49C131.66 10.49 131.66 2.5 140.47 2.5C149.28 2.5 149.28 10.49 158.09 10.49" stroke="#F39556" stroke-width="2" stroke-miterlimit="10"/>
</g>
<g clip-path="url(#clip10_17_471)">
<path d="M140 2.5C148.81 2.5 148.81 10.49 157.61 10.49C166.41 10.49 166.42 2.5 175.23 2.5C184.04 2.5 184.04 10.49 192.85 10.49C201.66 10.49 201.66 2.5 210.47 2.5C219.28 2.5 219.28 10.49 228.09 10.49" stroke="#F39556" stroke-width="2" stroke-miterlimit="10"/>
</g>
<g clip-path="url(#clip11_17_471)">
<path d="M210 2.5C218.81 2.5 218.81 10.49 227.61 10.49C236.41 10.49 236.42 2.5 245.23 2.5C254.04 2.5 254.04 10.49 262.85 10.49C271.66 10.49 271.66 2.5 280.47 2.5C289.28 2.5 289.28 10.49 298.09 10.49" stroke="#F39556" stroke-width="2" stroke-miterlimit="10"/>
</g>
<g clip-path="url(#clip12_17_471)">
<path d="M511 27.5C519.81 27.5 519.81 35.49 528.61 35.49C537.41 35.49 537.42 27.5 546.23 27.5C555.04 27.5 555.04 35.49 563.85 35.49C572.66 35.49 572.66 27.5 581.47 27.5C590.28 27.5 590.28 35.49 599.09 35.49" stroke="#F39556" stroke-width="2" stroke-miterlimit="10"/>
</g>
<g clip-path="url(#clip13_17_471)">
<path d="M581 27.5C589.81 27.5 589.81 35.49 598.61 35.49C607.41 35.49 607.42 27.5 616.23 27.5C625.04 27.5 625.04 35.49 633.85 35.49C642.66 35.49 642.66 27.5 651.47 27.5C660.28 27.5 660.28 35.49 669.09 35.49" stroke="#F39556" stroke-width="2" stroke-miterlimit="10"/>
</g>
<g clip-path="url(#clip14_17_471)">
<path d="M651 27.5C659.81 27.5 659.81 35.49 668.61 35.49C677.41 35.49 677.42 27.5 686.23 27.5C695.04 27.5 695.04 35.49 703.85 35.49C712.66 35.49 712.66 27.5 721.47 27.5C730.28 27.5 730.28 35.49 739.09 35.49" stroke="#F39556" stroke-width="2" stroke-miterlimit="10"/>
</g>
<g clip-path="url(#clip15_17_471)">
<path d="M721 27.5C729.81 27.5 729.81 35.49 738.61 35.49C747.41 35.49 747.42 27.5 756.23 27.5C765.04 27.5 765.04 35.49 773.85 35.49C782.66 35.49 782.66 27.5 791.47 27.5C800.28 27.5 800.28 35.49 809.09 35.49" stroke="#F39556" stroke-width="2" stroke-miterlimit="10"/>
</g>
<g clip-path="url(#clip16_17_471)">
<path d="M511 15.5C519.81 15.5 519.81 23.49 528.61 23.49C537.41 23.49 537.42 15.5 546.23 15.5C555.04 15.5 555.04 23.49 563.85 23.49C572.66 23.49 572.66 15.5 581.47 15.5C590.28 15.5 590.28 23.49 599.09 23.49" stroke="#F39556" stroke-width="2" stroke-miterlimit="10"/>
</g>
<g clip-path="url(#clip17_17_471)">
<path d="M581 15.5C589.81 15.5 589.81 23.49 598.61 23.49C607.41 23.49 607.42 15.5 616.23 15.5C625.04 15.5 625.04 23.49 633.85 23.49C642.66 23.49 642.66 15.5 651.47 15.5C660.28 15.5 660.28 23.49 669.09 23.49" stroke="#F39556" stroke-width="2" stroke-miterlimit="10"/>
</g>
<g clip-path="url(#clip18_17_471)">
<path d="M651 15.5C659.81 15.5 659.81 23.49 668.61 23.49C677.41 23.49 677.42 15.5 686.23 15.5C695.04 15.5 695.04 23.49 703.85 23.49C712.66 23.49 712.66 15.5 721.47 15.5C730.28 15.5 730.28 23.49 739.09 23.49" stroke="#F39556" stroke-width="2" stroke-miterlimit="10"/>
</g>
<g clip-path="url(#clip19_17_471)">
<path d="M721 15.5C729.81 15.5 729.81 23.49 738.61 23.49C747.41 23.49 747.42 15.5 756.23 15.5C765.04 15.5 765.04 23.49 773.85 23.49C782.66 23.49 782.66 15.5 791.47 15.5C800.28 15.5 800.28 23.49 809.09 23.49" stroke="#F39556" stroke-width="2" stroke-miterlimit="10"/>
</g>
<g clip-path="url(#clip20_17_471)">
<path d="M511 2.5C519.81 2.5 519.81 10.49 528.61 10.49C537.41 10.49 537.42 2.5 546.23 2.5C555.04 2.5 555.04 10.49 563.85 10.49C572.66 10.49 572.66 2.5 581.47 2.5C590.28 2.5 590.28 10.49 599.09 10.49" stroke="#F39556" stroke-width="2" stroke-miterlimit="10"/>
</g>
<g clip-path="url(#clip21_17_471)">
<path d="M581 2.5C589.81 2.5 589.81 10.49 598.61 10.49C607.41 10.49 607.42 2.5 616.23 2.5C625.04 2.5 625.04 10.49 633.85 10.49C642.66 10.49 642.66 2.5 651.47 2.5C660.28 2.5 660.28 10.49 669.09 10.49" stroke="#F39556" stroke-width="2" stroke-miterlimit="10"/>
</g>
<g clip-path="url(#clip22_17_471)">
<path d="M651 2.5C659.81 2.5 659.81 10.49 668.61 10.49C677.41 10.49 677.42 2.5 686.23 2.5C695.04 2.5 695.04 10.49 703.85 10.49C712.66 10.49 712.66 2.5 721.47 2.5C730.28 2.5 730.28 10.49 739.09 10.49" stroke="#F39556" stroke-width="2" stroke-miterlimit="10"/>
</g>
<g clip-path="url(#clip23_17_471)">
<path d="M721 2.5C729.81 2.5 729.81 10.49 738.61 10.49C747.41 10.49 747.42 2.5 756.23 2.5C765.04 2.5 765.04 10.49 773.85 10.49C782.66 10.49 782.66 2.5 791.47 2.5C800.28 2.5 800.28 10.49 809.09 10.49" stroke="#F39556" stroke-width="2" stroke-miterlimit="10"/>
</g>
<defs>
<clipPath id="clip0_17_471">
<rect width="88" height="13" fill="white" transform="translate(0 25)"/>
</clipPath>
<clipPath id="clip1_17_471">
<rect width="88" height="13" fill="white" transform="translate(70 25)"/>
</clipPath>
<clipPath id="clip2_17_471">
<rect width="88" height="13" fill="white" transform="translate(140 25)"/>
</clipPath>
<clipPath id="clip3_17_471">
<rect width="88" height="13" fill="white" transform="translate(210 25)"/>
</clipPath>
<clipPath id="clip4_17_471">
<rect width="88" height="13" fill="white" transform="translate(0 13)"/>
</clipPath>
<clipPath id="clip5_17_471">
<rect width="88" height="13" fill="white" transform="translate(70 13)"/>
</clipPath>
<clipPath id="clip6_17_471">
<rect width="88" height="13" fill="white" transform="translate(140 13)"/>
</clipPath>
<clipPath id="clip7_17_471">
<rect width="88" height="13" fill="white" transform="translate(210 13)"/>
</clipPath>
<clipPath id="clip8_17_471">
<rect width="88" height="13" fill="white"/>
</clipPath>
<clipPath id="clip9_17_471">
<rect width="88" height="13" fill="white" transform="translate(70)"/>
</clipPath>
<clipPath id="clip10_17_471">
<rect width="88" height="13" fill="white" transform="translate(140)"/>
</clipPath>
<clipPath id="clip11_17_471">
<rect width="88" height="13" fill="white" transform="translate(210)"/>
</clipPath>
<clipPath id="clip12_17_471">
<rect width="88" height="13" fill="white" transform="translate(511 25)"/>
</clipPath>
<clipPath id="clip13_17_471">
<rect width="88" height="13" fill="white" transform="translate(581 25)"/>
</clipPath>
<clipPath id="clip14_17_471">
<rect width="88" height="13" fill="white" transform="translate(651 25)"/>
</clipPath>
<clipPath id="clip15_17_471">
<rect width="88" height="13" fill="white" transform="translate(721 25)"/>
</clipPath>
<clipPath id="clip16_17_471">
<rect width="88" height="13" fill="white" transform="translate(511 13)"/>
</clipPath>
<clipPath id="clip17_17_471">
<rect width="88" height="13" fill="white" transform="translate(581 13)"/>
</clipPath>
<clipPath id="clip18_17_471">
<rect width="88" height="13" fill="white" transform="translate(651 13)"/>
</clipPath>
<clipPath id="clip19_17_471">
<rect width="88" height="13" fill="white" transform="translate(721 13)"/>
</clipPath>
<clipPath id="clip20_17_471">
<rect width="88" height="13" fill="white" transform="translate(511)"/>
</clipPath>
<clipPath id="clip21_17_471">
<rect width="88" height="13" fill="white" transform="translate(581)"/>
</clipPath>
<clipPath id="clip22_17_471">
<rect width="88" height="13" fill="white" transform="translate(651)"/>
</clipPath>
<clipPath id="clip23_17_471">
<rect width="88" height="13" fill="white" transform="translate(721)"/>
</clipPath>
</defs>
</svg>
