<svg width="126" height="225" viewBox="0 0 126 225" fill="none" xmlns="http://www.w3.org/2000/svg">
<path d="M3.00026 206.219C3.02318 204.12 4.53629 202.734 6.04939 201.349L11.3516 196.888C13.5488 195.948 15.9992 195.03 17.925 193.277C53.2307 188.753 85.3942 189.065 104.19 193.277C104.19 193.277 122.191 199.895 122.191 202.787C122.191 206.219 125.004 211.074 120.137 213.578C107.918 219.866 91.6084 222.111 77.704 221.996C33.5145 221.628 15.4207 221.219 6.40474 212.864C4.49043 211.09 2.97733 208.319 3.00026 206.219Z" fill="#D9ECF2"/>
<path d="M6.55382 205.025C6.1403 205.616 6.00789 205.901 5.94319 206.251C5.91409 206.415 5.91753 206.69 5.95376 206.968C5.99581 207.255 5.80304 207.158 5.83812 207.374C5.91769 207.806 6.17003 208.179 6.33393 208.632C6.38944 208.785 6.07121 208.731 6.13719 208.891C6.51233 209.774 7.13994 210.492 7.77945 211.181C7.8104 211.215 7.84143 211.247 7.87252 211.28C11.4664 214.99 16.9249 216.715 22.4837 217.83C24.3467 218.204 26.6605 218.75 28.6407 218.865C28.8771 218.878 28.7609 218.643 28.8075 218.63C29.5331 218.427 29.2462 218.845 29.6898 218.951C31.482 219.369 33.4605 219.549 35.2113 219.583C35.9624 219.597 35.2512 219.109 35.9731 219.404C36.0228 219.424 35.8232 219.646 36.0209 219.684C36.4679 219.77 37.345 219.781 37.7079 219.82C38.4147 219.898 38.5028 219.9 39.1548 219.937C40.0433 219.99 41.1106 220.157 42.059 220.145C42.264 220.142 42.0034 219.89 42.3316 219.863C42.6556 219.836 43.5457 219.892 43.8171 219.959C44.1015 220.027 43.9724 220.211 44.0215 220.256C44.4242 220.638 45.4454 220.167 45.5771 220.159C47.9263 220.026 49.9114 220.368 52.1414 220.419C53.7822 220.456 55.6176 220.396 57.183 220.436C59.1137 220.485 60.6656 220.639 62.5435 220.641C62.7349 220.641 62.5142 220.355 62.7482 220.355C65.2562 220.355 67.7664 220.413 70.2923 220.628C70.5411 220.65 70.2177 220.895 70.4663 220.932C71.9866 221.151 74.4583 221.663 75.3643 220.589C76.0934 220.625 76.9408 220.662 77.7142 220.759C78.0347 220.801 78.342 220.852 78.6208 220.917C79.22 221.057 78.6408 221.329 79.3741 221.211C79.5396 221.184 79.3229 220.949 79.5709 220.926C80.619 220.833 81.7589 220.886 82.7901 220.729C83 220.697 82.9354 220.486 82.9933 220.446C83.4778 220.12 84.3325 220.595 84.5152 220.623C85.9111 220.833 86.9167 220.66 88.2027 220.568C88.5017 220.546 88.1264 220.289 88.4125 220.258C89.8945 220.099 91.4305 219.971 92.8951 219.924C93.2209 219.914 92.9533 220.191 93.1107 220.198C93.8061 220.227 93.8989 219.752 94.5617 219.764C94.7015 219.766 94.6521 219.982 94.6802 220.002C95.1215 220.304 95.3929 219.752 95.4912 219.726C96.7398 219.391 97.6347 219.786 98.8511 219.498C98.9959 219.462 98.6203 219.262 99.0296 219.178C101.756 218.621 104.635 218.056 107.344 217.524C107.765 217.441 107.523 217.713 107.556 217.729C108.084 217.978 108.219 217.407 108.347 217.35C109.364 216.912 110.479 217.007 110.997 216.195C114.026 215.34 116.893 214.059 119.692 212.712C120.912 212.133 121.813 211.316 122.229 210.042C122.245 209.991 122.474 210.133 122.505 210.028C122.809 208.717 122.346 208.921 121.824 208.119C121.689 207.926 122.162 207.169 122.19 207.093C122.307 206.843 122.715 207.016 122.732 206.935C122.855 206.254 121.657 206.589 121.494 205.735C121.49 205.708 121.736 205.778 121.744 205.701C121.771 205.463 121.639 205.255 121.676 205.018C121.766 204.465 122.317 204.208 121.892 203.456C121.845 203.355 121.184 203.578 121.147 202.787C121.146 202.8 121.147 202.811 121.15 202.821C121.173 202.911 121.17 202.785 120.94 202.529C120.733 202.292 120.423 202.03 120.305 201.91C120.06 201.665 120.383 201.628 120.37 201.606C119.75 200.785 120.109 200.899 119.926 200.245C119.721 199.593 119.28 200.561 119.044 200.553C118.817 200.55 118.287 199.959 118.168 199.797C118.046 199.631 118.32 199.619 118.198 199.495C117.381 198.69 117.528 199.726 117.133 199.704C116.208 199.664 115.971 198.676 115.297 198.267C115.116 198.157 115.195 198.392 115.018 198.326C114.319 198.064 114.015 197.655 113.152 197.51C113.01 197.486 112.197 197.636 111.93 197.144C111.892 197.074 112.134 196.967 111.859 196.8C111.451 196.551 110.685 196.177 110.184 196.038C109.819 195.937 110.091 196.398 109.696 196.126C109.519 196.004 109.954 195.982 109.61 195.765C109.268 195.549 108.343 195.181 107.976 195.041C107.618 194.905 107.723 195.208 107.688 195.212C107.491 195.233 106.751 195.066 106.699 195.045C105.751 194.682 104.829 194.291 103.954 193.918L104.04 193.943C101.956 193.373 99.9089 192.826 97.7235 192.577C97.4762 192.548 97.6004 192.827 97.5623 192.825C96.7023 192.801 97.473 192.23 96.911 191.915C96.9224 192.442 96.5745 192.294 95.9817 192.267C95.6927 192.254 95.8197 192.475 95.7908 192.492C95.326 192.735 95.0822 192.304 95.0158 192.213C94.7729 191.88 94.4087 192.186 94.2479 191.965C94.0828 191.745 94.5594 191.512 93.99 191.443C93.8069 191.607 94.1674 192.143 93.7262 192.166C92.0356 192.246 89.0447 191.552 87.6982 191.399C86.3944 191.245 85.9505 191.247 85.1836 191.121C83.8074 190.897 84.2885 191.295 83.4097 191.4C82.5234 191.507 83.0072 190.65 82.8937 190.451C82.7842 190.253 82.6388 190.44 82.4934 190.326C82.3483 190.212 82.6848 190.103 82.3303 190.042C81.9762 189.98 80.971 190.262 80.8314 190.455C80.5401 190.863 80.9498 191.328 80.0195 191.124C79.9659 191.112 80.1534 190.888 79.9474 190.853C78.301 190.59 76.5784 190.51 74.92 190.301C74.6939 190.272 74.9045 190.019 74.7728 189.999C73.397 189.794 73.8772 190.246 73.1055 190.713C73.2933 190.07 72.874 189.663 71.8303 189.639C71.1993 189.625 71.3027 189.91 70.8903 190.103C70.7668 190.161 70.32 189.961 70.2365 190.092C69.9636 190.524 70.3738 191.014 69.303 190.809C69.2558 190.8 69.4085 190.563 69.2454 190.547C68.1907 190.444 68.0525 190.898 66.9105 190.95C66.0245 190.991 64.4095 190.72 63.398 190.686C63.4132 189.957 62.4468 190.135 62.0594 190.642C61.3878 190.631 60.6851 190.672 60.0397 190.615C59.8183 190.596 59.9591 190.383 59.9308 190.36C59.4955 190.012 59.2156 190.507 59.0722 190.529C57.5323 190.751 56.2394 190.42 54.7823 190.833C54.7302 190.848 54.6639 191.356 54.2549 191.002C54.2282 190.977 54.7092 190.729 54.0115 190.737C53.3101 190.745 51.9892 190.528 51.0318 190.807C50.8003 190.874 50.2253 191.312 49.7338 191.016C49.6688 190.975 49.7305 190.827 49.6356 190.751C49.3287 190.509 49.1942 191.027 48.8255 190.612C48.4567 190.196 47.7157 189.909 46.7498 190.265C46.7187 190.275 46.5128 190.693 46.2067 190.704C45.7184 190.722 45.0184 190.68 44.5056 190.715C44.2601 190.732 44.4332 190.973 44.3909 190.981C42.7529 191.227 41.5687 191.084 39.8003 191.118C39.4768 191.124 38.5765 191.537 37.9278 191.317C37.2159 191.077 37.8206 189.788 36.2675 190.212C35.6403 190.383 34.9654 192.012 33.7529 191.306C31.5578 191.706 29.4672 191.494 27.2737 192.014C27.1754 192.038 26.907 192.506 26.6723 192.525C26.3237 192.553 26.1106 192.37 25.8604 192.384C24.8093 192.437 23.8783 192.718 22.8727 192.808C22.4906 192.843 22.5994 192.617 22.143 192.659C21.6874 192.701 21.4134 193.014 20.7857 192.955C20.3102 192.909 19.7767 192.402 19.1506 192.413C19.1965 192.973 18.7716 193.014 18.0359 193.257C17.8946 193.304 18.0748 193.478 18.0093 193.51C17.9921 193.519 17.975 193.526 17.9578 193.533L18.0988 193.468C17.9436 193.696 17.6665 193.754 17.5312 193.991C17.4954 194.053 17.6109 194.206 17.5868 194.266C17.3825 194.788 16.4838 194.862 16.3391 194.859C15.7682 194.877 15.6944 195.202 15.3058 195.284C14.9212 195.361 15.3503 194.976 14.9336 195.118C14.0741 195.41 13.0313 195.896 12.1791 196.245C11.8402 196.385 12.1701 196.523 12.1239 196.549C11.8695 196.683 11.5955 196.773 11.343 196.868C10.9848 197.144 10.6904 197.41 10.694 197.822C9.44369 197.153 10.4259 198.214 9.42598 198.711C9.34686 198.749 8.86285 198.343 9.0551 198.062C9.24739 197.781 9.75342 197.609 10.0101 197.207C10.071 197.112 10.168 196.268 10.2098 196.187C10.2985 196.014 10.4125 195.937 10.5328 195.915C10.5936 195.866 10.7789 195.748 10.8513 195.719C11.1814 195.756 11.4295 196.199 11.4677 196.223C12.0488 196.577 12.498 195.705 12.6597 195.588C13.4057 195.051 14.1426 194.855 14.7211 194.388C15.0976 194.082 14.833 193.529 15.1434 193.367C15.9911 192.909 16.7213 193.117 17.1406 192.415C17.2655 192.307 17.6122 192.138 17.7769 192.121C17.932 192.054 18.0961 191.956 18.2744 191.816C18.5161 191.627 18.1734 190.998 19.1759 191.4C19.2391 191.426 19.9924 191.815 20.3562 191.466C20.4018 191.421 20.3768 191.229 20.4412 191.205C20.8731 191.046 21.1895 191.164 21.6683 191.032C22.1467 190.901 22.7192 190.722 23.2814 190.724C23.6203 190.725 24.0892 191.036 24.2585 191.106C24.7393 191.308 25.1799 190.839 25.4939 191.115C25.8102 191.393 25.3101 191.922 26.0713 192.04C26.0441 191.536 26.0513 191.014 26.0408 190.505C27.6617 190.348 29.2892 190.344 30.9111 190.165C31.1139 190.142 30.88 189.892 31.0969 189.861C32.0121 189.73 32.8302 189.848 33.7698 189.686C34.4984 189.56 35.2863 189.203 36.0487 189.066C36.5659 189.602 37.6903 189.313 38.5274 189.301C38.8197 189.296 38.8121 189.452 39.0226 189.486C39.8153 189.612 39.4118 189.131 39.6193 189.035C40.5075 188.625 40.6754 189.77 41.7546 189.665C41.8117 189.66 42.4694 188.998 42.5633 188.953C43.1585 188.662 42.6792 189.16 43.0647 189.18C43.7645 189.216 44.2705 189.331 45.0802 189.1C45.3166 189.032 45.8689 188.615 46.3499 188.884C46.4132 188.919 46.3913 189.124 46.441 189.133C47.3447 189.28 47.3353 188.641 47.8349 188.397C48.3356 188.153 49.1459 188.553 49.3115 188.672C49.7459 188.98 48.9984 188.829 48.9771 188.862C48.7307 189.26 49.3004 189.164 49.7384 189.175C49.8334 189.798 50.4474 189.73 50.1975 189.184C50.1692 189.124 49.8286 189.199 49.7384 189.175C50.0958 188.542 50.7731 188.43 51.5434 188.971C51.9034 189.225 51.5894 189.552 52.6384 189.393C53.1166 189.322 52.9146 188.898 53.3363 188.764C54.3051 188.457 55.5633 188.815 56.5736 188.722C56.9373 188.688 56.5753 188.462 56.8237 188.431C57.4829 188.348 58.0667 188.509 58.7235 188.403C58.7838 188.393 58.6301 188.149 58.8377 188.141C60.4107 188.076 61.7636 188.211 63.4008 188.199C64.1811 188.192 65.6036 188.048 66.4167 188.077C67.8296 188.122 69.5675 188.495 70.7837 188.426C71.5757 188.383 71.4057 188.133 71.7469 187.97C72.4015 187.655 73.5511 188.267 73.7042 188.362C73.7092 188.365 73.0252 188.407 73.3864 188.542C73.5914 188.812 73.6964 188.363 73.7042 188.362C73.8071 188.422 75.1576 188.516 75.4248 188.478C75.5734 188.457 75.4983 188.221 75.5757 188.214C77.4083 188.064 79.2297 188.082 81.0643 188.293C81.0967 188.3 81.0331 188.559 81.1094 188.571C82.1791 188.747 82.8539 188.468 83.7639 188.338C84.6645 188.208 85.3427 188.323 85.8361 188.813C86.5119 188.808 87.4405 189.086 87.9721 189.255C88.5137 189.425 88.6359 188.924 88.6856 188.919C90.2138 188.738 91.0718 189.12 92.6085 189.343C93.3633 189.452 94.8157 189.56 95.6407 189.619C96.2857 189.663 96.6281 189.833 97.2372 189.846C97.3185 189.848 97.2716 189.612 97.2973 189.607C97.9958 189.437 97.5955 189.939 97.7157 190.057C98.1528 190.49 98.3995 190.722 99.2704 190.695C99.4695 190.689 100.166 189.997 100.523 190.013C100.986 190.036 100.758 190.286 101.255 190.307C101.298 190.309 101.322 190.133 101.618 190.197C102.609 190.409 103.682 190.69 104.712 190.947C104.773 190.962 104.955 191.012 105.014 191.035C105.37 191.177 105.759 191.328 106.108 191.456C106.299 191.527 106.168 191.177 106.426 191.268C107.692 191.718 109.032 192.261 110.183 192.875C110.462 193.026 110.205 193.133 110.246 193.212C110.505 193.7 111.255 193.458 111.352 193.489C113.641 194.189 115.117 195.343 117.423 196.236C117.545 196.28 118.73 196.265 118.929 196.909C118.942 196.952 119.119 197.593 119.641 197.509C119.673 197.504 119.542 197.144 119.971 197.416C120.415 197.698 121.217 197.982 121.704 198.649C121.858 198.864 122.005 199.529 122.88 199.793C122.898 199.794 123.325 199.866 123.744 200.122C123.978 200.279 124.206 200.483 124.379 200.769C124.573 201.089 124.667 201.442 124.616 201.788C124.574 201.951 124.335 201.954 124.293 202.787C124.252 202.854 124.26 202.966 124.374 203.131C124.445 203.232 124.569 203.031 124.681 203.3C124.854 203.71 124.801 204.399 125.212 205.031C125.282 205.137 125.806 205.574 125.566 206.085C125.528 206.164 125.297 206.067 125.315 206.308C125.391 207.447 125.732 208.798 125.36 210.32C125.216 210.852 124.938 210.515 124.718 211.03C124.507 211.553 123.953 212.544 123.706 213.103C123.46 213.671 124.328 213.494 123.716 214.252C123.021 215.055 122.195 215.621 121.397 216.027C119.51 216.984 117.519 217.661 115.56 218.386C115.172 218.529 115.562 218.588 114.993 218.809C112.904 219.64 109.246 220.963 107.266 221.035C105.688 221.102 107.502 220.373 106.331 220.535C105.769 220.612 105.322 221.37 105.192 221.421C103.931 221.929 102.958 221.852 101.796 222.174C101.555 222.24 101.845 222.444 101.639 222.498C100.936 222.682 100.165 222.71 99.4874 222.85C99.1833 222.914 99.2732 223.097 98.9885 223.13C98.3077 223.212 97.6967 223.227 97.0114 223.146C96.9492 223.139 97.3156 222.836 96.8163 222.903C96.0077 223.011 94.9838 222.971 94.0787 223.273C93.8103 223.364 93.853 223.811 93.222 223.574C93.0894 223.524 93.1876 222.973 92.5487 223.513C92.4428 223.604 91.3417 224.353 90.7281 224.005C90.5662 223.914 90.1425 223.512 89.816 223.61C89.7718 223.625 89.9743 223.849 89.7002 223.897C88.7343 224.061 87.7126 224.113 86.7152 224.252C86.4489 224.289 86.8634 224.512 86.4655 224.56C85.3714 224.691 83.9921 224.693 82.9164 224.649C82.5183 224.633 82.7863 224.418 82.7566 224.397C82.2822 224.047 82.0242 224.546 81.871 224.578C80.9159 224.774 80.1837 224.552 79.3031 224.618C79.0604 224.636 79.2334 224.87 79.1852 224.891C78.6826 225.097 79.0563 224.674 78.7374 224.628C78.3956 224.578 78.0405 224.548 77.6829 224.531C77.1032 224.503 76.5173 224.513 75.9702 224.527C75.6451 224.535 76.008 224.811 75.7165 224.815C74.0133 224.848 72.1913 224.805 70.5293 224.639C70.2165 224.607 70.4155 224.4 70.3507 224.351C69.9105 224.012 69.2319 224.462 69.0749 224.504C68.3672 224.696 68.0974 224.508 67.4822 224.536C64.4868 224.677 60.747 224.507 57.9165 224.383C54.2396 224.224 51.3264 223.964 47.7953 223.912C47.5699 223.908 47.7887 224.194 47.5944 224.194C45.1099 224.187 42.6077 223.986 40.1072 223.945C39.8974 223.941 40.1863 224.22 39.8495 224.222C39.154 224.228 38.3185 224.17 37.6246 224.045C37.2856 223.985 37.7561 223.785 37.4152 223.729C36.6154 223.597 35.8113 223.528 34.9793 223.514C34.6292 223.508 35.1367 223.814 34.6834 223.786C31.632 223.599 28.606 223.376 25.5457 222.616C25.3359 222.564 25.2237 221.994 24.7674 222.036C24.7126 222.183 24.6891 222.361 24.6515 222.52C20.1567 221.949 15.7044 220.888 11.3116 218.927C11.1248 218.842 11.3302 219.254 10.9665 219.089C8.88701 218.137 6.83495 216.998 5.18769 215.185C5.03799 215.017 5.39546 214.746 4.99824 214.381C4.96581 214.351 4.92895 214.32 4.8871 214.288C4.77187 214.215 3.95411 213.456 3.69333 213.298C3.65511 213.278 3.60343 213.591 3.3653 213.314C2.01677 211.677 0.932564 209.723 0.699566 207.257C0.674238 206.856 0.977428 207.249 0.965095 206.967C0.956861 206.721 0.954577 206.462 0.965592 206.197C0.98828 204.283 2.03757 202.403 3.1267 201.549C3.96303 200.887 4.0082 201.489 4.6768 201.438C4.77081 201.431 5.20096 201.043 5.39301 201.21C5.87725 201.626 6.14848 202.32 6.6889 202.741C6.80158 202.835 7.25178 202.21 7.16001 202.771C7.15088 202.811 6.83713 203.258 6.831 203.429C6.82456 203.549 7.11319 203.629 7.05909 203.826C7.00766 204.021 6.72122 203.997 6.62611 204.273C6.54348 204.543 6.81039 204.674 6.55382 205.025ZM90.3788 190.028C90.8618 190.325 91.0316 189.44 90.4574 189.596C90.4295 189.605 90.3537 190.013 90.3788 190.028ZM29.3434 191.022C30.0389 191.35 30.4295 190.727 29.9369 190.469C29.4436 190.211 29.1311 190.923 29.3434 191.022ZM22.5742 192.05C23.3754 192.27 23.3506 190.993 22.5588 191.344C22.5127 191.364 22.5273 192.037 22.5742 192.05ZM3.17491 203.348C3.18703 203.345 3.45785 202.984 3.45693 202.971C3.37479 202.596 2.81054 203.346 3.17491 203.348ZM16.1381 194.211C16.4344 194.232 16.872 193.676 16.5109 193.67C16.2303 193.664 15.7813 194.185 16.1381 194.211ZM115.468 197.863C115.469 197.879 115.726 198.016 115.754 197.945C115.843 197.718 115.446 197.603 115.468 197.863ZM6.55744 200.499C7.89016 199.44 9.3561 199.581 7.86202 200.682C7.59147 200.882 8.19959 199.96 7.81181 200.163C7.10275 200.534 7.13054 201.373 6.29273 201.615C6.1406 201.659 6.47992 200.557 6.55881 200.496C6.55836 200.497 6.5579 200.498 6.55744 200.499ZM90.5593 191.13C90.5684 191.143 90.9711 191.197 90.9818 191.187C91.2313 190.927 90.4188 190.817 90.5593 191.13ZM122.176 211.023C122.163 211.044 121.714 211.747 121.699 211.77C121.74 212.089 122.057 211.922 122.252 211.619C122.449 211.316 122.476 210.943 122.176 211.023ZM63.3818 190.666C62.9454 190.957 62.4194 190.997 62.0615 190.643C62.5015 190.656 62.9427 190.653 63.3818 190.666Z" fill="#D9ECF2"/>
<g clip-path="url(#clip0_826_955)">
<path d="M10.4469 17.886C9.54552 17.0244 8.68707 16.2041 7.82861 15.3838V14.345C8.31364 13.9163 8.8373 14.0647 9.35666 14.2255C9.42534 14.2461 9.48972 14.3533 9.5026 14.4275C9.53693 14.5965 9.53693 14.7737 9.5541 14.9469C9.81593 15.1983 10.0821 15.4539 10.3525 15.7136H10.9362C11.1723 15.9609 11.4212 16.2289 11.7088 16.5298C11.7217 16.6328 11.7475 16.806 11.7689 16.975C11.8118 17.0492 11.8376 17.1316 11.8977 17.1934C12.0222 17.3253 12.1595 17.449 12.2926 17.5768C12.357 17.6386 12.417 17.7087 12.49 17.7664C12.5587 17.8159 12.6359 17.8695 12.7175 17.886C12.8935 17.9189 13.0738 17.9148 13.2455 17.9602C13.3227 17.9808 13.3785 18.0797 13.4644 18.1621C13.4644 18.6774 13.4901 19.2174 13.4515 19.7492C13.4343 19.947 13.2412 20.0171 13.0823 19.9759C12.3698 19.2875 11.6487 18.5908 10.9276 17.8942H10.4555L10.4469 17.886Z" fill="#3F3F3F"/>
<path d="M87.0381 21.6247C86.802 21.398 86.5402 21.1466 86.2741 20.8951C86.2655 20.7179 86.2569 20.5447 86.2483 20.3675C86.3899 20.2562 86.9394 20.0295 86.9909 20.0171C87.5574 19.473 88.0124 19.036 88.5103 18.5579C88.5189 18.4589 88.5361 18.2858 88.5489 18.1127C88.8794 17.7953 89.2057 17.482 89.5448 17.1563C89.7079 16.876 89.5319 16.4473 89.9439 16.2618H91.0428C91.2574 16.3896 91.326 16.5339 91.2016 16.6411C90.914 16.8843 90.7509 17.1399 90.7294 17.5397C90.7208 17.7458 90.4075 17.9437 90.2186 18.158C90.2101 18.3064 90.2015 18.4796 90.1972 18.5826C89.1155 19.6214 88.0768 20.6189 87.0338 21.6206L87.0381 21.6247Z" fill="#3F3F3F"/>
<path d="M80.0416 8.94507C80.0416 8.76369 80.0416 8.58644 80.0416 8.40094C80.5052 7.95988 80.9687 7.51469 81.4495 7.05713H81.9946C82.2693 7.27972 82.1019 6.86751 82.2006 7.21377C82.3294 7.65072 82.3423 8.06293 82.2006 8.48751C82.1749 8.56583 82.0804 8.62354 82.0332 8.67713H81.4452C81.3765 8.74308 81.2735 8.79667 81.252 8.87087C81.2005 9.03163 81.1919 9.20888 81.1662 9.37789C81.1276 9.45209 81.1061 9.54278 81.046 9.60049C80.0545 10.5568 79.063 11.509 78.0672 12.4654C78.0028 12.4035 77.8912 12.3541 77.874 12.284C77.7195 11.6698 77.6079 11.0597 78.2818 10.631C78.226 10.0168 78.6724 9.67881 79.0844 9.33667C79.2003 9.23774 79.4278 9.27484 79.5866 9.21301C79.7454 9.15117 79.8871 9.03988 80.033 8.94919L80.0416 8.94507Z" fill="#3F3F3F"/>
<path d="M60.293 5.68858V4.62507C60.4818 4.43133 60.6707 4.23759 60.8638 4.03972V3.5327C61.0613 3.32659 61.2458 3.13285 61.4347 2.93911V1.88797C61.7137 1.62415 61.9755 1.36858 62.2374 1.11713C62.5636 1.08003 62.9155 0.993464 63.0701 1.40156C62.9069 1.5582 62.7739 1.68598 62.6408 1.81377C62.4005 2.58049 62.688 3.3843 62.4648 4.15102C61.997 4.38598 61.9927 4.84766 61.8811 5.25163C61.5506 5.56904 61.2201 5.88644 60.8939 6.19972C60.778 7.13957 60.529 7.26736 59.7393 6.79331V6.24919C59.9109 6.07606 60.0998 5.88232 60.293 5.68858Z" fill="#3F3F3F"/>
<path d="M43.3643 4.592C43.1797 4.78574 42.9995 4.97536 42.8235 5.16086C42.9952 5.34636 43.1669 5.53597 43.3386 5.72147C43.0553 5.99353 42.7891 6.2491 42.523 6.50468H41.965C41.5358 5.93994 41.5444 5.93994 41.9693 5.40819C42.3642 4.91765 42.3599 4.78162 41.9049 4.29933C41.8406 4.23338 41.7719 4.17155 41.6903 4.09323C41.8663 3.90773 42.0423 3.71811 42.2312 3.51613C42.2312 2.46086 42.2312 1.38498 42.2312 0.309104C42.2312 0.140096 42.626 -0.0536443 42.9179 0.0164321C43.0767 0.0535313 43.3386 0.189562 43.3386 0.284371C43.3643 1.71887 43.3557 3.1575 43.3557 4.592H43.3643Z" fill="#3F3F3F"/>
<path d="M24.7401 6.77266C24.7615 7.01586 24.7744 7.18899 24.7873 7.3209C24.9761 7.54762 25.2766 7.74548 25.2852 7.95159C25.2981 8.35556 25.5299 8.56991 25.7573 8.84609C26.0106 9.15525 25.9247 9.48915 25.6028 9.75296H24.9847C24.5684 9.34075 24.1048 8.90792 23.6842 8.438C23.5897 8.33082 23.6413 8.10411 23.6112 7.7867C23.2764 7.52289 22.8515 7.18899 22.4995 6.91281V5.71327C22.6326 5.61846 22.7613 5.46594 22.9116 5.43296C23.0704 5.39586 23.3107 5.41647 23.4181 5.51128C23.8945 5.9235 24.3323 6.37281 24.7444 6.76854L24.7401 6.77266Z" fill="#3F3F3F"/>
<path d="M16.8509 42.8949C17.0355 42.6971 17.2157 42.5116 17.396 42.322C17.2501 42.1818 17.117 42.054 16.9797 41.9221C16.9367 41.7614 16.8595 41.5965 16.8552 41.4316C16.8423 40.8091 16.8509 40.1867 16.8509 39.6261C17.0526 39.4323 17.1857 39.3046 17.3402 39.1562C17.5119 38.476 17.3788 37.7588 17.4089 37.0498C17.4346 36.4314 17.4132 35.809 17.4132 35.2937C17.6493 35.067 17.7823 34.9392 17.9454 34.7826V32.6679C18.1386 32.4577 18.3231 32.2598 18.512 32.0496C18.5206 31.893 18.4819 31.6951 18.5506 31.5426C18.6708 31.2746 18.9326 31.2004 19.2288 31.2252C19.4177 31.2417 19.6065 31.2375 19.7911 31.2252C19.8726 31.221 19.9542 31.1716 20.0357 31.1427C20.1688 31.0149 20.3019 30.8872 20.4349 30.7594C20.5165 30.7346 20.6023 30.6893 20.6839 30.6893C21.5295 30.6852 22.375 30.6893 23.2678 30.6893C23.4481 30.5409 23.6541 30.3719 23.9031 30.1699H27.7876C28.0022 29.9803 28.2039 29.803 28.4228 29.6134H30.1097C30.5647 29.1682 31.0239 28.7148 31.5047 28.2407V27.7543C31.7021 27.5482 31.891 27.3504 32.0841 27.1484V26.0931C32.2816 25.8829 32.4704 25.6891 32.6421 25.5078C32.6593 25.3058 32.6765 25.1327 32.6893 24.9554C32.8224 24.8276 32.9555 24.6998 33.0885 24.572C33.1272 24.4072 33.1915 24.2464 33.2001 24.0774C33.2173 23.7188 33.2044 23.356 33.2044 22.9191C33.3332 22.7624 33.5006 22.5604 33.7281 22.2843V21.3238C33.9212 21.1053 34.0972 20.9033 34.3075 20.6601V19.745C35.2261 18.8588 36.0888 18.0343 37.0159 17.1398H39.1192C39.3295 16.9502 39.5355 16.7688 39.7458 16.5833H43.6604C43.8106 16.4391 43.9437 16.3113 44.0767 16.1835C44.6991 15.9568 45.3344 16.0351 45.9696 16.1299C46.1027 16.2577 46.2357 16.3855 46.3688 16.5133C46.6864 16.5462 46.7637 16.2453 47.0212 16.0887H50.3949C50.5495 16.2206 50.7512 16.3937 50.9701 16.5792C51.159 16.4143 51.3564 16.2371 51.5538 16.0681H52.6613C52.8759 16.2577 53.0819 16.4391 53.275 16.6081C53.4768 16.5916 53.6613 16.5792 53.8416 16.5669C54.6228 15.8743 54.6743 15.8702 55.4512 16.5669C55.6315 16.4267 55.8204 16.2783 56.0393 16.1052C56.2152 16.2536 56.4127 16.4143 56.6273 16.5957H62.2201C62.4347 16.7853 62.6408 16.9667 62.8511 17.1522H65.0702C65.2891 17.3459 65.4951 17.5232 65.714 17.7087H66.7442C67.0232 17.9107 67.2163 18.1456 67.461 18.2075C67.7228 18.2734 68.0061 18.2528 68.1864 18.5043V19.0319C68.3795 19.2339 68.5684 19.4276 68.7658 19.6296V21.7649C68.9161 21.9091 69.0491 22.0369 69.2251 22.2059C69.2723 22.5893 69.3238 23.0139 69.3753 23.4343C69.5127 23.5662 69.6457 23.694 69.8432 23.8795C69.8561 24.1681 69.8732 24.5143 69.8947 24.943C70.0192 25.0914 70.1909 25.2893 70.4098 25.5449V27.7461C70.8733 28.0882 71.3884 28.4716 72.1267 29.024H72.8692C73.0924 29.2094 73.3027 29.3785 73.5474 29.5804H74.6119C74.8265 29.7701 75.0282 29.9473 75.2471 30.1369H76.9125C77.1229 30.3224 77.3246 30.5038 77.5349 30.6934H78.638C78.9342 31.0809 79.3033 31.3117 79.8098 31.2788C80.1446 31.6003 80.4751 31.9177 80.8443 32.2722H81.9087C82.1319 32.4577 82.338 32.6308 82.5612 32.8163C82.72 32.8246 82.9045 32.8369 83.1793 32.8575C83.5698 33.2739 84.0077 33.7397 84.5227 34.292V37.9319C84.7202 38.1421 84.9047 38.3359 85.0893 38.5337C84.9133 38.7192 84.7331 38.913 84.5571 39.0985V39.6137C84.7459 39.8198 84.9176 40.0094 85.085 40.1908C84.3467 40.9575 84.3467 40.9988 85.0764 41.7572C84.9219 41.9345 84.7674 42.1159 84.5742 42.3426V46.609C84.3768 46.8151 84.1922 47.013 83.9948 47.2191V49.8985C83.8016 50.1004 83.6128 50.2942 83.4153 50.5003V54.2432C83.2265 54.4534 83.0591 54.6389 82.896 54.8244C83.6299 55.5911 83.6299 55.6282 82.9389 56.3496C82.9131 56.432 82.8702 56.5104 82.8702 56.5928C82.8659 57.5862 82.8702 58.5797 82.8702 59.6143C82.7114 59.7875 82.5354 59.9853 82.3251 60.2203V63.9549C82.1276 64.161 81.9388 64.3548 81.7456 64.5609V65.6203C81.5525 65.8223 81.3593 66.016 81.1791 66.2015C81.1533 66.9311 81.1447 66.9064 80.3764 67.0094C80.1704 67.0383 79.9815 67.3269 79.7755 67.5041C79.5823 67.3351 79.3806 67.162 79.1874 66.9971H78.6466C78.4234 67.1908 78.2217 67.3681 78.0328 67.5288C77.8225 67.5453 77.6379 67.5618 77.4577 67.5783C77.3246 67.7061 77.1915 67.8339 77.0585 67.9617C76.8868 67.9988 76.7151 68.0688 76.5434 68.0688C75.0368 68.0771 73.5345 68.0688 72.028 68.0771C71.7575 68.0771 71.4871 68.1059 71.2553 68.1183C71.0836 68.2832 70.9506 68.411 70.8175 68.5388C70.736 68.5635 70.6501 68.613 70.5686 68.613C69.3453 68.6171 68.122 68.613 66.8515 68.613C66.6712 68.7572 66.4652 68.9262 66.2334 69.1159C66.0531 68.9633 65.86 68.7985 65.6453 68.6171H65.1045C64.9071 68.7902 64.7053 68.9716 64.4864 69.1612H62.8253C62.5506 69.425 62.2845 69.6806 62.0012 69.9527V71.0368C62.1686 71.2099 62.3575 71.4036 62.5378 71.5933C62.3489 71.787 62.1643 71.9849 61.9669 72.191V74.8662C61.6793 75.1424 61.4132 75.398 61.1428 75.6577H57.2068C56.9964 75.8432 56.7947 76.0246 56.5973 76.2018C56.3998 76.2101 56.2152 76.2183 56.0307 76.2265C55.7646 76.4821 55.4984 76.7377 55.2237 77.0015V78.0774C55.374 78.3206 55.6358 78.3288 55.9062 78.3866C56.1509 78.4401 56.3526 78.6627 56.6616 78.873H58.297C58.4386 78.7534 58.6447 78.5803 58.8679 78.3948C59.0524 78.5556 59.2499 78.7287 59.4559 78.9059H60.0053C60.3315 79.1698 60.4002 79.483 60.1684 79.8252C60.0697 79.9736 59.9066 80.0849 59.7521 80.2333C59.9238 80.4188 60.0912 80.6084 60.28 80.8145V81.3339C60.0997 81.5235 59.9109 81.7172 59.7349 81.9027V85.1304C59.9366 85.3447 60.1212 85.5426 60.3144 85.7528V87.311C60.5247 87.6449 60.8294 87.5336 61.0913 87.5913C61.3059 87.6407 61.3745 87.7974 61.3316 87.9334C61.1986 88.0612 61.0655 88.189 60.8938 88.3539V89.4916C60.9882 89.7719 61.6321 89.9409 61.4132 90.518C61.5935 90.7076 61.7823 90.9055 61.9669 91.0992C61.7952 91.2847 61.6192 91.4743 61.4475 91.6557C61.6364 91.8577 61.8167 92.0556 62.0141 92.2658V93.3004C62.1772 93.4571 62.3103 93.5849 62.4734 93.7415C62.6536 94.4093 62.4905 95.1265 62.5463 95.8026C62.5936 96.2107 63.1301 96.3096 63.1 96.693C63.0657 97.1299 63.4005 97.3113 63.6537 97.5916V100.803C63.8512 101.009 64.04 101.203 64.2332 101.405V103.004C64.4263 103.206 64.6195 103.4 64.8127 103.602V104.657C64.9586 104.797 65.0917 104.925 65.2548 105.082C65.4951 105.469 65.3234 105.922 65.3578 106.355C65.3835 106.706 65.3621 107.06 65.3621 107.353C65.5595 107.542 65.6926 107.67 65.8943 107.864C65.9158 108.404 65.9415 109.01 65.963 109.554C66.1604 109.744 66.2935 109.871 66.4609 110.032V111.059C66.654 111.273 66.8343 111.471 67.0403 111.698V113.812C67.2378 114.014 67.4266 114.212 67.6198 114.41V116.022C67.8344 116.479 68.5383 116.075 68.7057 116.582C68.5212 116.788 68.3409 116.986 68.2164 117.122V118.763C68.3838 118.924 68.5169 119.051 68.6499 119.179C68.6886 119.484 68.3709 119.558 68.2207 119.793C68.3752 119.967 68.5383 120.152 68.7315 120.366V121.401C68.9289 121.603 69.1178 121.801 69.3109 121.999V123.598C69.5084 123.804 69.6972 123.998 69.8904 124.204V125.226C70.1007 125.461 70.2767 125.659 70.4355 125.832C70.4355 126.327 70.4355 126.78 70.4355 127.23C70.4355 127.312 70.4827 127.391 70.5085 127.469C70.6415 127.597 70.7746 127.724 70.9506 127.893V128.899C71.1437 129.118 71.3154 129.32 71.5172 129.551C71.5172 129.971 71.6416 130.379 72.1395 130.585C71.9249 130.816 71.7489 131.01 71.5816 131.191C71.7661 131.389 71.955 131.583 72.1481 131.793V133.376C72.4185 133.652 72.7104 133.85 72.7147 134.279C72.7147 134.493 72.9894 134.707 73.204 135.021C73.3242 135.425 73.2212 135.96 73.2555 136.571C73.4616 136.785 73.7105 137.045 73.9466 137.288C74.1355 137.333 74.3071 137.411 74.4745 137.411C75.6892 137.424 76.904 137.416 78.0457 137.416C78.5307 137.848 78.2303 138.331 78.329 138.747C78.1401 138.945 77.9513 139.139 77.7538 139.345V142.568C77.4791 142.832 77.213 143.088 76.9512 143.339C76.6936 143.413 76.3631 143.261 76.1914 143.541C76.1056 143.677 76.0927 143.867 76.0756 144.036C76.0584 144.213 76.0798 144.398 76.067 144.576C76.0627 144.654 76.0112 144.732 75.9854 144.811C75.8524 144.938 75.7193 145.066 75.5476 145.231C75.7021 145.413 75.8609 145.594 76.0541 145.816V147.375C76.2515 147.581 76.4361 147.779 76.6335 147.985V150.668C76.8267 150.87 77.0156 151.064 77.213 151.266V153.949C77.3589 154.09 77.492 154.217 77.6251 154.345C77.6723 154.415 77.7581 154.489 77.7581 154.56C77.7667 155.273 77.7624 155.99 77.7624 156.682C78.5565 156.954 78.0843 157.948 78.8698 158.22C78.6981 158.418 78.535 158.603 78.359 158.805C78.5221 158.983 78.7024 159.168 78.887 159.37V160.969C79.0801 161.171 79.2733 161.365 79.4664 161.567V163.686C79.6725 163.913 79.8527 164.111 80.0459 164.321V165.347C80.209 165.508 80.3421 165.632 80.4794 165.764C80.7198 166.279 80.4494 166.823 80.7241 167.581C80.7155 167.573 80.8872 167.775 81.1104 168.031V170.644C81.3035 170.858 81.4838 171.056 81.6898 171.283V172.285C81.8572 172.577 82.0933 172.631 82.3895 172.647C82.544 172.656 82.6856 172.816 82.8359 172.907V174.519C83.0333 174.721 83.2222 174.915 83.3982 175.1C83.411 175.298 83.4239 175.471 83.4368 175.648C83.5698 175.776 83.7029 175.904 83.836 176.032C83.8789 176.193 83.9562 176.357 83.9562 176.522C83.969 177.145 83.9604 177.767 83.9604 178.324C84.1622 178.517 84.2952 178.645 84.4927 178.835C84.5056 179.123 84.5227 179.474 84.5442 179.898C84.673 180.047 84.8447 180.245 85.0636 180.5V182.038C85.2567 182.248 85.4413 182.446 85.6344 182.656C85.643 182.813 85.6516 182.99 85.6602 183.18C85.8447 183.369 86.0336 183.563 86.2268 183.765V185.364C86.4242 185.57 86.6131 185.768 86.8062 185.97V187.557C86.9607 187.706 87.0938 187.833 87.2311 187.965C87.4586 188.283 87.2998 188.65 87.3685 189.099C87.4801 189.227 87.6733 189.408 87.8149 189.622C87.9651 189.853 87.9737 190.121 87.7977 190.348C87.6861 190.492 87.5359 190.608 87.3642 190.772C87.7333 191.143 88.1068 191.514 88.4845 191.894V195.113C88.6862 195.323 88.8708 195.521 89.0639 195.727V196.783C89.8194 197.046 89.3558 198.036 90.1027 198.295C90.2529 198.996 90.1241 199.713 90.1756 200.48C90.3259 200.641 90.4976 200.843 90.6864 201.028C90.8109 201.148 90.9568 201.309 91.1114 201.333C91.3861 201.375 91.6651 201.346 91.8539 201.622V204.301C92.0514 204.503 92.2359 204.701 92.4334 204.907V208.114C92.6351 208.329 92.8197 208.527 92.9613 208.679V209.652C92.442 210.213 92.0084 210.682 91.6007 211.119H90.4289C90.2744 211.268 90.1413 211.396 90.0082 211.523C89.8409 211.565 89.6692 211.635 89.4975 211.639C88.6605 211.651 87.8235 211.643 87.0638 211.643C86.4585 211.062 85.9263 210.551 85.3812 210.027H84.8661C84.2309 209.784 84.8876 208.819 83.9948 208.852V207.673C83.8016 207.459 83.6214 207.261 83.4153 207.03V204.841C83.1578 204.643 82.8702 204.417 82.5783 204.19C82.3466 203.959 81.8572 204.211 81.707 203.617C81.707 203.568 81.7199 203.39 81.7285 203.213C81.8401 203.04 81.9946 202.949 82.1877 202.974C82.5054 203.015 82.7887 202.883 82.8101 202.611C82.8616 201.902 82.8273 201.185 82.8273 200.534C82.6298 200.344 82.4968 200.216 82.3465 200.072C82.0933 199.136 82.4367 198.143 82.1834 197.207C82.0332 197.063 81.9002 196.935 81.7328 196.774V195.748C81.5396 195.534 81.3593 195.336 81.1533 195.109V192.99C80.9559 192.788 80.767 192.594 80.5739 192.393V191.333C80.3764 191.131 80.1875 190.937 80.0116 190.752C80.0201 190.472 79.9686 190.204 80.2433 190.006C80.3635 189.919 80.4279 189.763 80.5138 189.635C80.3721 189.499 80.2391 189.371 80.106 189.243C80.0759 189.074 80.0201 188.909 80.0159 188.74C79.9901 188.097 79.9944 188.097 79.4793 187.553V186.523C79.2862 186.312 79.1016 186.114 78.8999 185.892V183.773C78.7024 183.571 78.5136 183.373 78.3247 183.184V182.664C78.5136 182.462 78.6853 182.273 78.8569 182.091C78.7325 181.889 78.5694 181.856 78.3805 181.832C77.8182 181.753 77.5736 181.345 77.8397 180.958C77.9384 180.809 78.1358 180.719 78.2217 180.566C78.3032 180.422 78.3075 180.236 78.3161 180.063C78.3161 179.989 78.2689 179.874 78.2088 179.845C77.6379 179.573 77.9212 178.831 77.4147 178.53C77.3375 178.484 77.2817 178.406 77.213 178.34C77.389 178.151 77.565 177.957 77.7367 177.771C77.5521 177.573 77.3632 177.38 77.1958 177.198C77.1787 176.996 77.1615 176.819 77.1443 176.646C77.0113 176.518 76.8782 176.39 76.7451 176.263C76.7065 176.098 76.6421 175.933 76.6335 175.768C76.5906 175.145 76.7065 174.519 76.552 173.909C76.2172 173.587 75.8824 173.266 75.5261 172.924V171.341C75.3287 171.135 75.1441 170.937 74.9467 170.727V170.22C74.7535 170.018 74.5647 169.82 74.3672 169.614V168.035C74.1655 167.82 73.9809 167.623 73.7878 167.412V165.838C73.0495 165.067 73.0495 165.026 73.7449 164.3C73.6633 164.176 73.5817 164.049 73.4873 163.929C73.4315 163.859 73.3543 163.801 73.2899 163.735C73.277 163.649 73.2512 163.566 73.247 163.48C73.2427 163.208 73.247 162.94 73.247 162.643C73.071 162.458 72.8864 162.264 72.689 162.058V160.462C72.5001 160.265 72.3198 160.075 72.1481 159.894C72.3241 159.696 72.4915 159.51 72.6546 159.329C72.4915 159.172 72.3585 159.044 72.2039 158.896C71.9464 157.964 72.2855 156.971 72.0408 156.031C71.8949 155.891 71.7618 155.763 71.6288 155.635C71.4957 155.108 71.5816 154.572 71.5558 153.995C71.4013 153.822 71.221 153.624 71.0107 153.393V152.367C70.8132 152.165 70.6244 151.967 70.4312 151.765V151.245C70.2381 151.043 70.0449 150.85 69.8518 150.648V149.617C69.6629 149.403 69.4998 149.217 69.3367 149.032C69.4998 148.875 69.6329 148.747 69.7659 148.62C69.7659 148.558 69.7917 148.471 69.7616 148.43C69.5985 148.224 69.3624 148.092 69.2895 147.799C69.1693 147.313 69.1393 147.321 68.7572 146.913C68.9332 146.723 69.1135 146.534 69.2895 146.352C69.1049 146.163 68.9161 145.965 68.7401 145.783C68.7272 145.586 68.7143 145.412 68.7014 145.235C68.5684 145.107 68.4353 144.98 68.3023 144.852C68.2593 144.687 68.195 144.526 68.1778 144.361C68.1349 143.92 68.2422 143.471 68.1091 143.042C67.9675 142.906 67.8344 142.778 67.6799 142.63C67.5168 141.95 67.6627 141.233 67.6026 140.462C67.4653 140.301 67.2936 140.103 67.1047 139.885C67.1391 139.423 66.8944 139.073 66.4909 138.788V137.185C66.2935 136.983 66.1046 136.789 65.9115 136.587V136.076C65.7226 135.874 65.5509 135.684 65.3878 135.511C65.5638 135.305 65.7226 135.124 65.8771 134.942C65.7054 134.777 65.5724 134.65 65.4436 134.526C65.2075 134.118 65.5037 133.64 65.2376 133.244C64.5766 132.947 64.9457 132.016 64.2418 131.743C64.4178 131.554 64.5938 131.36 64.7654 131.175C64.5809 130.977 64.3963 130.783 64.1989 130.573V128.99C64.04 128.837 63.907 128.71 63.7439 128.553C63.4821 127.634 63.8211 126.64 63.5808 125.688C63.4434 125.556 63.3104 125.428 63.1773 125.301C63.0228 124.777 63.1258 124.237 63.0915 123.656C62.9412 123.487 62.7652 123.289 62.5549 123.046V121.492C62.3575 121.286 62.1729 121.088 61.9755 120.878V119.286C61.7823 119.084 61.5935 118.887 61.396 118.68V116.018C61.1943 115.799 61.0097 115.605 60.8166 115.395V114.389C60.6234 114.158 60.4689 113.977 60.3229 113.804C60.5032 113.631 60.6363 113.503 60.808 113.338C60.6535 113.157 60.4946 112.975 60.3015 112.753V111.191C60.104 110.984 59.9195 110.791 59.722 110.58V108.981C59.5289 108.779 59.34 108.585 59.1426 108.383V106.244C58.9966 106.104 58.8636 105.976 58.7305 105.848C58.3914 105.271 58.7434 104.624 58.5331 104.03C58.4 103.903 58.2669 103.775 58.1339 103.647C57.8592 102.876 58.1854 102.06 57.9364 101.289C57.8034 101.161 57.6703 101.034 57.4686 100.84C57.4686 99.834 57.4686 98.7582 57.4686 97.6452C57.3098 97.4679 57.1295 97.2701 56.9235 97.0392V96.0128C56.726 95.8108 56.5372 95.613 56.344 95.411V93.8075C56.1509 93.6055 55.9577 93.4117 55.7646 93.2098V89.9862C55.6143 89.842 55.4813 89.7142 55.3053 89.5452C55.2581 89.1659 55.2066 88.7414 55.1551 88.3168C55.0864 88.2508 55.022 88.1313 54.9533 88.1313C53.8287 88.1189 52.6999 88.123 51.5624 88.123C51.4723 88.2426 51.2877 88.3786 51.2834 88.5146C51.2577 89.5081 51.2706 90.5015 51.2663 91.4949C51.2663 91.5733 51.2019 91.6475 51.1718 91.7258C51.0388 91.8536 50.9057 91.9814 50.7426 92.138C50.9057 92.3194 51.0688 92.5049 51.2577 92.7192V96.491C51.0903 96.66 50.9014 96.8578 50.7126 97.0557V98.1192C50.91 98.3212 51.0989 98.5191 51.2577 98.684V99.7722C51.1074 99.9165 50.9744 100.044 50.8156 100.197C50.5881 100.588 50.7426 101.042 50.7169 101.479C50.6911 101.928 50.6997 102.382 50.7169 102.835C50.7297 103.276 50.6439 103.725 50.7769 104.154C50.9186 104.29 51.0517 104.418 51.1847 104.546C51.2148 104.851 50.9057 104.925 50.7426 105.172V107.328C50.88 107.476 51.0602 107.674 51.2491 107.876C51.0774 108.058 50.9014 108.247 50.7297 108.429C50.9057 108.618 51.0774 108.804 51.2534 108.993C51.1032 109.138 50.9701 109.265 50.837 109.393C50.7984 109.558 50.7211 109.723 50.7211 109.888C50.7126 112.056 50.7211 114.224 50.7126 116.389C50.7126 116.648 50.6825 116.912 50.6696 117.139C50.5022 117.3 50.3692 117.427 50.2318 117.559C50.279 117.967 50.9358 118.132 50.6868 118.709C50.5452 118.862 50.3606 119.06 50.1589 119.274V120.333C50.3391 120.519 50.5237 120.717 50.704 120.902V122.506C50.5151 122.712 50.3434 122.897 50.176 123.083L50.5967 123.487C50.6353 123.561 50.7083 123.635 50.7083 123.714C50.7126 127.147 50.7126 130.577 50.7083 134.011C50.7083 134.18 50.6568 134.349 50.6267 134.518C50.4937 134.645 50.3606 134.773 50.1932 134.934C50.1803 135.157 50.1546 135.42 50.1503 135.68C50.1417 136.311 50.146 136.946 50.1503 137.576C50.1503 137.651 50.2232 137.725 50.2662 137.803C50.6653 138.133 51.1632 137.844 51.5925 137.993C51.8586 138.248 52.1247 138.504 52.3951 138.763V139.843C52.2149 140.033 52.026 140.227 51.8285 140.437V141.476C51.6268 141.694 51.4422 141.888 51.2491 142.098V143.149C50.4894 143.413 50.9572 144.403 50.219 144.658C50.0558 145.363 50.2061 146.084 50.1202 146.81C50.3005 147.012 50.4765 147.21 50.6739 147.428C50.5108 147.601 50.3348 147.791 50.1503 147.993V148.512C50.3391 148.706 50.528 148.9 50.7126 149.089C50.704 149.275 50.6954 149.452 50.6868 149.613C50.4937 149.823 50.3134 150.021 50.1159 150.231V168.604C49.9528 168.76 49.8198 168.888 49.6867 169.016C49.5966 169.346 49.9915 169.37 50.0129 169.473C50.322 170.112 49.9829 170.413 49.5837 170.702C49.7768 170.908 49.9571 171.098 50.1417 171.295V172.355C49.9571 172.549 49.7768 172.738 49.6095 172.915C49.7854 173.117 49.9485 173.299 50.1116 173.484C49.9442 173.645 49.8112 173.773 49.6781 173.901C49.6309 174.21 49.9528 174.28 50.1116 174.535V175.603C49.9829 175.743 49.8026 175.941 49.6095 176.155C49.7768 176.333 49.9571 176.522 50.1288 176.708C49.9571 176.893 49.7768 177.083 49.6009 177.268C49.7511 177.413 49.8842 177.54 50.0215 177.672C50.2361 178.085 50.1503 178.513 50.073 178.942C49.94 179.07 49.8069 179.198 49.6481 179.35C49.4807 180.034 49.6052 180.747 49.5837 181.461C49.5579 182.273 49.6009 183.085 49.5708 183.897C49.5451 184.606 49.6867 185.323 49.4978 185.995C49.3347 186.152 49.206 186.275 49.0429 186.432V189.152C49.1802 189.301 49.3605 189.499 49.5536 189.705C49.382 189.886 49.1974 190.076 49.0085 190.278V191.329C48.8111 191.535 48.6222 191.733 48.4291 191.939V192.986C48.3389 193.073 48.2746 193.188 48.2059 193.192C46.8967 193.205 45.5833 193.2 44.2098 193.2C44.0596 193.069 43.8578 192.887 43.6432 192.698H43.1024C42.8363 192.524 42.8534 192.261 42.7847 192.005C42.7204 191.77 42.48 191.58 42.2697 191.308V188.699C42.0722 188.489 41.892 188.295 41.6902 188.077V186.968C41.9306 186.758 42.2096 186.518 42.5272 186.242C42.6388 186.23 42.8534 186.263 42.9865 186.176C43.2912 185.983 43.5531 185.731 43.8149 185.521C43.8321 185.422 43.875 185.331 43.8492 185.298C43.1711 184.585 43.1753 184.544 43.8836 183.79C43.9007 183.773 43.8321 183.658 43.7848 183.604C43.6604 183.472 43.523 183.349 43.39 183.221C43.5144 183.093 43.6389 182.965 43.7634 182.837C43.8192 182.776 43.8707 182.71 43.9222 182.648C43.7891 182.52 43.6518 182.396 43.523 182.264C43.4629 182.203 43.4243 182.124 43.3814 182.058C43.1539 181.535 43.8149 181.374 43.8578 180.962C43.7205 180.83 43.5874 180.702 43.4543 180.574C43.4286 180.496 43.3814 180.414 43.3814 180.335C43.3814 176.271 43.3814 172.206 43.3814 168.101C43.5359 167.928 43.7162 167.73 43.9093 167.507C43.7462 167.334 43.5702 167.144 43.3857 166.942V165.883C43.5659 165.693 43.7505 165.504 43.9179 165.322C43.7419 165.125 43.5745 164.939 43.4114 164.754C43.5745 164.597 43.7076 164.469 43.8406 164.341C43.905 164.028 43.5702 163.966 43.3985 163.669C43.1668 163.228 43.5788 162.956 43.9265 162.635V154.539C44.1239 154.337 44.3128 154.139 44.5059 153.937V150.169C44.6948 149.972 44.8708 149.782 45.0425 149.605C44.8665 149.403 44.7034 149.217 44.5446 149.04C45.2786 148.277 45.2786 148.24 44.5746 147.507C44.6004 147.445 44.6047 147.366 44.6476 147.317C44.7721 147.181 44.9094 147.057 45.0597 146.917V145.289C44.8923 145.116 44.7034 144.922 44.5102 144.72V144.201C44.3128 143.999 44.1239 143.801 43.9308 143.599V142.572C43.7205 142.342 43.5445 142.144 43.42 142.008V140.907L43.8578 140.487C43.8879 140.186 43.5788 140.107 43.4458 139.909C43.5574 139.444 44.0038 139.654 44.2312 139.555C44.5446 139.271 44.8193 139.023 45.0811 138.784V131.739C45.2786 131.529 45.4674 131.335 45.6176 131.175V130.111C45.4245 129.889 45.2657 129.703 45.1154 129.526C45.8408 128.771 45.8408 128.73 45.1283 127.984C45.1112 127.902 45.0811 127.819 45.0768 127.733C45.0682 127.461 45.0768 127.193 45.0768 126.892C45.2442 126.71 45.4288 126.513 45.6305 126.298V120.923C45.8237 120.721 46.0039 120.527 46.1885 120.329C46.0555 120.202 45.9224 120.074 45.7893 119.946C45.7378 119.876 45.6477 119.806 45.6477 119.736C45.6391 119.018 45.6391 118.305 45.6391 117.671C45.858 117.415 46.0125 117.234 46.1628 117.056C45.9868 116.887 45.8537 116.76 45.6777 116.591C45.8323 116.413 45.9868 116.228 46.1799 116.005V113.858C46.0297 113.701 45.8451 113.503 45.6563 113.305C45.8323 113.12 46.0168 112.922 46.1885 112.74V109.517C45.9997 109.307 45.8323 109.121 45.6649 108.936C45.8237 108.783 45.9567 108.655 46.0898 108.528C46.2958 108.012 46.1585 107.472 46.2057 106.883C46.0683 106.718 45.8966 106.516 45.6906 106.269C45.828 106.108 45.9868 105.927 46.1799 105.704V104.64C46.0254 104.48 45.8365 104.282 45.6391 104.076V101.928C45.828 101.734 46.0168 101.541 46.2014 101.351C46.1928 101.161 46.1842 100.984 46.1756 100.827C45.9825 100.617 45.8022 100.419 45.6606 100.267C45.5318 99.7433 45.8966 99.4589 46.2229 99.2281C45.9782 98.9931 45.8451 98.8653 45.6777 98.7046V97.0639C45.8022 96.9279 45.9825 96.7301 46.1885 96.4992V94.8916C46.0254 94.7226 45.8366 94.5288 45.6434 94.3269V93.2675C45.828 93.0737 46.0082 92.8841 46.1756 92.7027C45.9825 92.4884 45.8022 92.2905 45.6348 92.1091C45.6606 91.903 45.682 91.734 45.7078 91.5609C45.8408 91.4331 45.9739 91.3053 46.1713 91.1157C46.1842 90.8313 46.2014 90.4809 46.2229 90.0893C46.064 89.9079 45.8923 89.7059 45.6734 89.4504C45.5704 89.2443 45.785 88.8156 45.3987 88.7207C44.8751 89.1659 44.3901 89.5864 43.9308 89.978V91.1033C43.7763 91.2517 43.6432 91.3795 43.4887 91.5279C43.214 92.274 43.5316 93.0902 43.3127 93.8652C43.1796 93.993 43.0466 94.1207 42.9135 94.2485C42.7418 94.772 42.8534 95.3079 42.8191 95.8974C42.6774 96.0623 42.5058 96.2601 42.3126 96.4827C42.2954 96.6229 42.3298 96.8249 42.2482 96.965C42.1152 97.1917 41.9091 97.3772 41.7074 97.6122V98.0945C41.5099 98.3006 41.3211 98.4943 41.1279 98.6963V100.292C40.9305 100.502 40.7416 100.696 40.5485 100.902V102.489C40.394 102.637 40.2609 102.765 40.1107 102.909C39.836 103.659 40.1536 104.476 39.9304 105.251C39.7973 105.378 39.6643 105.506 39.4883 105.675V106.685C39.2951 106.903 39.1192 107.105 38.9088 107.349V108.354C38.7114 108.565 38.5268 108.758 38.3294 108.973V109.476C38.1319 109.682 37.9431 109.876 37.7499 110.082V111.669C37.5482 111.883 37.3636 112.077 37.1705 112.287V114.41C37.0117 114.562 36.8786 114.69 36.7455 114.818C36.4708 115.325 36.7799 115.877 36.4279 116.714C36.5009 116.623 36.3335 116.825 36.1446 117.056C36.1747 117.436 36.9387 117.559 36.2906 118.499C36.458 118.322 36.2734 118.52 36.0716 118.73V120.325C35.8785 120.527 35.6896 120.725 35.4922 120.931V121.982C35.3463 122.122 35.2132 122.25 35.0415 122.415C34.7539 123.141 35.0887 123.957 34.8827 124.732C34.7496 124.86 34.6166 124.987 34.4835 125.115C34.2775 125.63 34.4148 126.17 34.3676 126.772C34.2388 126.925 34.0715 127.127 33.8611 127.374C33.8096 127.749 33.7796 128.207 33.2645 128.38V131.669C33.0671 131.875 32.8782 132.069 32.6851 132.275V133.875C32.4919 134.077 32.2987 134.27 32.1056 134.472V136.047C31.9167 136.261 31.7493 136.447 31.5905 136.628C32.3245 137.395 32.3245 137.432 31.5905 138.195V139.757C31.3974 139.971 31.2171 140.169 31.0239 140.379C31.0154 140.532 31.0025 140.709 30.9896 140.903C30.8093 141.088 30.6205 141.282 30.4273 141.484V143.632C30.2342 143.834 30.0453 144.027 29.8479 144.229V145.26C29.6418 145.487 29.4616 145.685 29.2684 145.899V146.925C29.101 147.086 28.968 147.214 28.8349 147.342C28.6546 147.861 28.7748 148.401 28.7319 148.991C28.5945 149.151 28.4228 149.353 28.2039 149.609V151.142C28.0108 151.353 27.8262 151.55 27.6245 151.777V153.356C27.427 153.558 27.2382 153.752 27.045 153.954V155.553C26.8476 155.759 26.6587 155.953 26.487 156.134C26.4741 156.332 26.457 156.509 26.4441 156.682C26.311 156.81 26.178 156.938 26.0063 157.103C25.9591 157.49 25.9076 157.915 25.8561 158.331C25.7144 158.467 25.5814 158.595 25.4483 158.723C25.2766 159.246 25.3882 159.782 25.3539 160.372C25.2122 160.537 25.0405 160.734 24.8216 160.986V162.528C24.6285 162.738 24.4439 162.936 24.2422 163.154V164.189C24.0447 164.395 23.8559 164.593 23.6627 164.795V166.938C23.4395 167.219 23.0317 167.371 23.1004 167.816C23.1133 167.895 23.1004 168.035 23.0532 168.06C22.4995 168.34 22.6626 169.016 22.2591 169.374C22.1905 169.436 22.1261 169.502 22.0402 169.585C21.89 170.269 22.0231 170.986 21.9716 171.753C21.8299 171.918 21.6539 172.116 21.4393 172.359V174.449C21.2419 174.659 21.0573 174.853 20.8599 175.067V176.654C20.6624 176.86 20.4736 177.054 20.2804 177.26V178.32C20.1388 178.456 20.0057 178.583 19.7997 178.781C19.6065 179.663 19.8254 180.649 19.6752 181.609C19.5421 181.737 19.4091 181.865 19.2417 182.025C19.1945 182.413 19.1472 182.842 19.1 183.245L18.6794 183.649C18.4948 184.173 18.6966 184.713 18.5163 185.381C18.4476 185.459 18.2716 185.657 18.0742 185.88C18.233 186.053 18.409 186.242 18.5807 186.428C18.4047 186.613 18.2201 186.807 18.0227 187.017V189.152C17.8767 189.293 17.7437 189.42 17.6106 189.548C17.2715 190.125 17.6149 190.772 17.4132 191.366C17.2801 191.494 17.1471 191.622 16.9797 191.782C16.9367 192.174 16.8852 192.599 16.838 192.998C16.6792 193.151 16.5461 193.279 16.4131 193.407C16.3873 193.489 16.3444 193.567 16.3401 193.65C16.3358 194.643 16.3401 195.637 16.3401 196.671C16.1856 196.844 16.0053 197.042 15.795 197.277V199.384C15.5975 199.59 15.4087 199.783 15.2155 199.99V200.505C15.0224 200.707 14.8292 200.901 14.6361 201.103V203.242C14.4901 203.382 14.3571 203.51 14.224 203.638C14.1768 203.708 14.0953 203.782 14.091 203.856C14.0824 204.932 14.0867 206.008 14.0867 207.022C14.2841 207.212 14.4172 207.339 14.5502 207.467C14.7734 208.073 14.5717 208.679 14.6618 209.182C14.4215 209.413 14.2884 209.541 14.121 209.701V211.268C13.9279 211.482 13.7476 211.68 13.5416 211.907V214.087C13.0823 214.487 12.5973 214.908 12.0307 215.398H8.7986C8.58399 215.588 8.37796 215.765 8.15905 215.955H7.61394C7.41649 215.782 7.21476 215.6 7.00014 215.411H5.83694C5.75968 215.336 5.64379 215.279 5.6352 215.209C5.58799 214.858 5.57082 214.504 5.53648 214.087C5.39913 213.939 5.21885 213.741 5.0257 213.531C5.01712 213.374 5.00853 213.197 4.99566 213.007C5.18022 212.818 5.36908 212.624 5.55794 212.43V211.367C5.3605 211.161 5.17164 210.967 4.99566 210.781C4.99995 210.497 4.95702 210.233 5.23173 210.035C5.35191 209.949 5.412 209.792 5.49785 209.668C5.35621 209.532 5.22315 209.405 5.04287 209.231C5.18881 209.058 5.34333 208.877 5.53648 208.642V207.1C5.73392 206.89 5.9142 206.692 6.11594 206.474V205.983C6.18461 205.905 6.23183 205.802 6.3048 205.773C6.9143 205.546 7.57531 205.748 8.15476 205.645C8.37796 205.278 8.38654 205.254 8.39513 204.858C8.58828 204.656 8.77285 204.458 8.97029 204.252V201.581C9.12481 201.432 9.25787 201.305 9.39093 201.177C9.61413 200.666 9.4639 200.126 9.51541 199.516C9.63559 199.367 9.80299 199.165 10.0305 198.889V197.929C10.2236 197.71 10.3996 197.508 10.6099 197.265V195.715C10.8074 195.505 10.9919 195.311 11.1894 195.097V192.425C11.3868 192.219 11.5757 192.026 11.7517 191.836V191.321C11.5628 191.115 11.3911 190.925 11.2237 190.74C11.4941 190.467 11.7774 190.265 11.786 189.837C11.786 189.622 12.0607 189.408 12.2753 189.107C12.3912 188.691 12.2968 188.155 12.3268 187.574C12.4771 187.405 12.6531 187.207 12.8505 186.984C12.6917 186.811 12.5157 186.622 12.3311 186.42V185.719C12.6359 185.447 13.0394 185.08 13.4815 184.68V182.611C13.6446 182.454 13.7776 182.326 13.9107 182.198C14.1897 181.428 13.8635 180.611 14.1081 179.841C14.2412 179.713 14.3743 179.585 14.5073 179.457C14.679 178.934 14.4901 178.394 14.6532 177.738C14.7348 177.648 14.9151 177.45 15.1082 177.231C14.9451 177.054 14.7691 176.869 14.5932 176.679C14.7734 176.493 14.9623 176.3 15.1597 176.094V174.519C15.3658 174.296 15.546 174.098 15.7392 173.884V172.854C15.9023 172.697 16.0354 172.569 16.1727 172.437C16.4088 171.922 16.1555 171.378 16.4002 170.64C16.4131 170.628 16.5805 170.426 16.8037 170.166V167.553C16.9968 167.338 17.1771 167.14 17.3831 166.914V165.339C17.5806 165.137 17.7694 164.939 17.9626 164.741V163.138C18.1557 162.936 18.3446 162.742 18.542 162.54V160.405C18.6923 160.26 18.8253 160.133 18.9841 159.98C19.2631 159.238 18.9412 158.422 19.1558 157.647C19.2889 157.519 19.422 157.391 19.555 157.264C19.7353 156.744 19.6151 156.204 19.6537 155.615C19.7911 155.454 19.9628 155.252 20.1817 155.001V152.923C20.3748 152.713 20.5594 152.515 20.7611 152.292V150.714C20.9586 150.512 21.1474 150.318 21.3406 150.116V149.056C21.538 148.85 21.7269 148.657 21.9201 148.451V146.319C22.272 145.981 22.6068 145.66 22.9888 145.297C22.8429 145.12 22.6884 144.938 22.5124 144.728C22.6626 144.559 22.8343 144.374 23.0232 144.163V143.648C22.654 143.273 22.272 142.89 21.9286 142.543V136.026C22.2162 135.75 22.4823 135.495 22.7442 135.243C22.9459 135.425 23.1476 135.606 23.3451 135.779C23.5425 135.767 23.7271 135.758 23.9117 135.746C24.1821 135.523 24.3666 135.173 24.8216 135.231C25.135 135.272 25.2594 135.528 25.4783 135.68C25.6028 135.767 25.7745 135.693 25.8475 135.482C25.9033 135.322 25.8604 135.128 25.8604 134.967C26.0106 134.823 26.1436 134.695 26.3239 134.522C26.6158 133.8 26.2767 132.984 26.4784 132.205C27.191 131.463 27.191 131.418 26.5042 130.705C26.7145 130.21 27.2081 129.946 27.5515 129.551V127.399C27.7447 127.197 27.9335 127.003 28.1095 126.822V126.306C27.9206 126.096 27.7532 125.911 27.5944 125.733C27.7232 125.515 27.882 125.486 28.0837 125.474C28.5001 125.445 28.6589 125.321 28.6847 125.086C28.719 124.736 28.6074 124.377 28.7748 124.043C28.9122 123.911 29.0452 123.784 29.2126 123.623C29.0538 123.442 28.895 123.26 28.719 123.054C28.8821 122.881 29.0581 122.691 29.2469 122.489V120.894C29.4358 120.696 29.6161 120.507 29.7835 120.329C29.6075 120.131 29.4444 119.946 29.2813 119.76C29.4444 119.604 29.5775 119.476 29.7406 119.319C29.9122 118.647 29.7577 117.93 29.8135 117.213C30.0582 116.722 30.5432 116.43 30.9209 116.009V114.414C31.1184 114.212 31.3072 114.014 31.5004 113.816V111.669C31.6935 111.467 31.8824 111.273 32.0798 111.071V110.02L32.4962 109.62C32.5391 109.459 32.6164 109.294 32.6207 109.129C32.6335 108.326 32.625 107.522 32.625 106.784C33.0284 106.396 33.3589 106.079 33.7238 105.729V104.158C33.9169 103.948 34.1015 103.75 34.2947 103.54C34.123 103.358 33.9427 103.169 33.7581 102.979V102.46C33.9556 102.254 34.1444 102.06 34.3161 101.879C34.3333 101.681 34.2861 101.388 34.3676 101.347C35.0415 101.034 34.6938 100.127 35.3548 99.8299C35.3935 99.4836 35.4364 99.1333 35.4879 98.6798C35.5909 98.5603 35.7669 98.3624 35.9815 98.111V95.345C36.3678 95.0771 36.8228 94.7597 37.1318 94.5453V92.711C36.943 92.5049 36.7713 92.3194 36.6039 92.138C36.7284 91.9319 36.8872 91.8536 37.0846 91.8866C37.4108 91.9401 37.6512 91.7794 37.6855 91.5032C37.737 91.058 37.6984 90.6004 37.6984 90.0728C37.8315 89.9203 38.0332 89.7389 38.1706 89.5204C38.3165 89.2896 38.3251 89.0217 38.1448 88.7949C38.0332 88.6548 37.883 88.5352 37.7242 88.3868V82.418C37.8701 82.2614 38.0547 82.0676 38.2564 81.8533V80.7898C38.0804 80.6043 37.9002 80.4105 37.7242 80.225C38.1877 79.7757 38.647 79.3264 39.1063 78.8853H40.7931C40.9992 79.0626 41.1966 79.2357 41.3812 79.3924C41.5915 79.2233 41.7847 79.0667 41.9735 78.9183C42.1409 79.0791 42.274 79.2069 42.4156 79.3429C42.8534 79.211 43.0895 78.8606 43.3213 78.572V76.9891C43.0208 76.6841 42.7633 76.4203 42.5143 76.1688H36.8571C36.5867 75.9091 36.3206 75.6536 36.033 75.3774V71.0368C36.1918 70.8719 36.3807 70.6782 36.5738 70.472V69.932C36.312 69.6888 36.0459 69.4374 35.7411 69.153H26.7746C26.5557 68.9633 26.354 68.7902 26.1265 68.5965H21.6582C21.4436 68.4069 21.2419 68.2255 21.0273 68.04H19.937C19.7138 67.8462 19.5121 67.669 19.3232 67.5082C19.1129 67.4876 18.8683 67.5412 18.7609 67.4464C18.2759 67.0301 17.8252 66.5684 17.3703 66.1356V63.9673C17.22 63.823 17.0784 63.7035 16.9539 63.5675C16.7522 63.3407 16.7608 63.0604 16.8981 62.842C17.4733 61.9145 17.499 61.9145 16.8509 61.3085V57.5698C16.6577 57.3595 16.4732 57.1617 16.28 56.9514C16.4517 56.7701 16.632 56.5804 16.8166 56.3867V42.8702L16.8509 42.8949ZM42.5358 59.4082H43.6432C43.8492 59.5937 44.0553 59.7751 44.2656 59.9647H46.4718C46.7079 60.1626 46.9139 60.3357 47.0684 60.4676C47.7166 60.6902 47.8711 60.0348 48.3089 59.9482C49.5279 59.9482 50.7512 59.9482 51.9702 59.9482C52.0517 59.9482 52.1333 59.8905 52.2149 59.8617C52.3479 59.7339 52.481 59.6061 52.614 59.4783C53.1634 59.3505 53.7214 59.433 54.2751 59.4082C54.4168 59.3052 54.5928 59.2227 54.6958 59.0908C54.9018 58.8311 55.1765 58.8682 55.477 58.8641C55.8633 58.5096 56.2625 58.1427 56.6745 57.7676H58.3399C59.3486 56.7989 60.3444 55.8426 61.3359 54.8821C61.3917 54.8285 61.4003 54.7296 61.4303 54.6513C61.4475 54.1278 61.3102 53.5548 61.9669 53.2127V52.1656C62.16 51.9554 62.3446 51.7575 62.5335 51.5514C62.542 51.3948 62.5506 51.2175 62.5592 51.0279C62.7438 50.8383 62.9326 50.6446 63.1258 50.4467V47.2191C63.3232 47.0171 63.5078 46.8192 63.6709 46.6543V42.8826C63.4649 42.6559 63.2846 42.458 63.0915 42.2436V40.7143C62.8725 40.4588 62.7009 40.2568 62.5764 40.1125C62.5549 39.6838 62.5378 39.3334 62.5249 39.049C61.9283 38.4801 61.4003 37.969 60.8681 37.4578V36.9137C60.4045 36.4685 59.9366 36.0233 59.4602 35.5699H58.9237C58.5116 35.1948 58.1081 34.8279 57.7261 34.4775C57.4171 34.4775 57.1424 34.5023 56.9492 34.2426C56.7775 34.02 56.5372 33.9581 56.241 33.9128C56.0006 33.8798 55.7903 33.649 55.4684 33.4429C54.5971 33.2409 53.5669 33.5624 52.6012 33.3151C52.4381 33.1585 52.3093 33.0348 52.1505 32.8823C51.9573 33.043 51.7642 33.2038 51.5453 33.3852H49.9056C49.691 33.5748 49.485 33.7562 49.2789 33.9417H47.0513C46.8366 34.1313 46.6306 34.3127 46.416 34.4981H45.3172C45.0296 34.9186 44.6261 35.0794 44.1454 35.0917C43.6132 35.6029 43.0809 36.114 42.5358 36.6375H42.0422C41.5486 37.1116 41.0893 37.5527 40.5828 38.0391C40.5742 38.1421 40.5614 38.3152 40.5442 38.5214C40.1793 38.8882 39.7973 39.2757 39.4196 39.6549C39.411 39.8404 39.4024 40.0177 39.3939 40.1949C38.8616 40.7061 38.3294 41.2172 37.7971 41.7284C37.7886 42.1942 37.6169 42.5775 37.2005 42.8414C37.1876 43.0186 37.1748 43.1917 37.1576 43.3896C36.9816 43.571 36.797 43.7647 36.5996 43.9708V52.6149C36.9773 52.9983 37.3593 53.3817 37.7499 53.7774V54.9027C38.2865 55.0676 38.2736 55.5417 38.3551 55.9498C39.3681 56.9226 40.3639 57.8789 41.3597 58.8352C41.5443 58.8476 41.7246 58.8559 41.9306 58.8682C42.1237 59.0414 42.3255 59.2227 42.5315 59.4082H42.5358ZM17.9798 55.3562V56.9597C18.1643 57.1575 18.3446 57.343 18.512 57.5203C18.336 57.7223 18.1729 57.9078 18.0398 58.0562C18.3231 58.3571 18.5764 58.625 18.7953 58.86H22.1948C22.4308 58.6704 22.6154 58.4313 22.8558 58.3447C23.1004 58.2581 23.4181 58.3571 23.5897 58.085C23.8172 57.7264 24.2465 57.8501 24.5512 57.6934C24.71 57.611 24.8216 57.4461 25.0277 57.2482C25.7659 57.1905 26.5986 57.3142 27.3584 57.2029C27.6502 56.8401 27.9249 56.6134 28.3799 56.7123C28.6417 56.4733 28.9079 56.2301 29.1697 55.991C29.3414 52.8334 29.3371 50.7723 29.1697 50.3725C29.0366 50.2447 28.9036 50.1169 28.7705 49.9891C28.749 49.816 28.7276 49.647 28.7018 49.4409C28.8692 49.2595 29.0495 49.0617 29.2384 48.8514C29.2469 48.6948 29.2598 48.5217 29.2727 48.3279C29.0924 48.1424 28.9036 47.9446 28.7061 47.7467V44.5191C28.8907 44.3212 29.071 44.1357 29.2427 43.9543C29.0495 43.74 28.8692 43.5421 28.7018 43.3607C28.7276 43.1546 28.749 42.9856 28.7705 42.8249C28.8993 42.6146 29.2255 42.5487 29.1697 42.2395C29.0366 42.1117 28.9036 41.9839 28.7061 41.7943C28.7061 40.9617 28.719 40.0672 28.689 39.1768C28.689 39.0531 28.44 38.814 28.3542 38.8346C27.8262 38.9583 27.6202 38.4389 27.221 38.34C27.0751 38.4801 26.942 38.6079 26.766 38.7769C26.5815 38.6285 26.3883 38.4801 26.1565 38.2946H25.1006C24.886 38.105 24.68 37.9278 24.4611 37.7381H23.3537C23.1562 37.9113 22.9545 38.0927 22.7399 38.2823H19.3833C19.1086 38.5461 18.8425 38.8017 18.5635 39.0696C18.7438 39.2592 18.9241 39.4488 19.1086 39.6426V40.162C18.9112 40.364 18.7266 40.5577 18.5292 40.7597V47.2067C18.3403 47.4252 18.1772 47.6065 18.0141 47.792C18.1815 47.9528 18.3146 48.0806 18.4948 48.2537C18.5764 48.9957 18.5764 49.7789 18.4948 50.5209L17.9798 51.0156C17.9798 51.5762 17.9883 52.1986 17.9755 52.8211C17.9712 53.0189 17.9798 53.1838 18.1128 53.3116C18.2459 53.4394 18.3789 53.5672 18.5292 53.7114V54.7997C18.3661 54.9687 18.1772 55.1624 17.9798 55.3644V55.3562ZM58.3356 20.9363C58.1296 20.7508 57.9279 20.5694 57.7304 20.3922H51.5667C51.3564 20.2108 51.1632 20.0418 50.9787 19.8852C50.7512 20.0748 50.5495 20.2438 50.3306 20.4252H48.1715C47.8496 20.7178 47.5792 20.961 47.3217 21.196C47.3217 22.8407 47.3217 24.4566 47.3217 26.0766C47.1328 26.2704 46.944 26.4641 46.768 26.6414V27.1814C47.2401 27.6348 47.7037 28.08 48.1672 28.5252C49.4764 28.5252 50.7855 28.5252 52.0947 28.5252C52.2964 28.3479 52.4939 28.1748 52.687 28.0058C52.8844 28.1707 53.0776 28.3356 53.2536 28.4881C53.4682 28.3149 53.6571 28.1665 53.8459 28.0182C54.0176 28.183 54.1507 28.3108 54.288 28.4427C54.713 28.4015 54.8804 27.7708 55.4856 28.0099C55.6401 28.1418 55.8418 28.3149 56.0736 28.5128H57.181C57.357 28.352 57.5587 28.1707 57.769 27.9852H58.8764C59.1383 27.8162 59.1254 27.5565 59.1941 27.3009C59.2542 27.0701 59.4945 26.8804 59.6834 26.6331C59.546 26.4765 59.3786 26.291 59.1898 26.0807V25.0172C59.3572 24.8482 59.546 24.6545 59.7263 24.4649C59.5503 24.2794 59.3701 24.0939 59.1984 23.9125C59.3915 23.7023 59.5718 23.5085 59.7091 23.3601V21.7319C59.4173 21.4475 59.1512 21.1919 58.8936 20.9404H58.3356V20.9363ZM71.294 36.1099H68.4782C68.2207 36.3614 67.9589 36.621 67.6885 36.8807C67.74 37.3672 67.4696 37.701 67.0833 37.9937V38.5296C67.2592 38.7151 67.4481 38.9088 67.637 39.1067V44.5108C68.1005 44.956 68.5684 45.4053 69.0405 45.8588H71.852C72.0494 45.6856 72.2511 45.5043 72.4615 45.3188H73.0066C73.277 45.0591 73.5431 44.8035 73.8264 44.5314V42.9403C74.0196 42.7383 74.2084 42.5404 74.4059 42.3385V37.9978C73.9509 37.5774 73.4787 37.1446 72.9722 36.6705H71.9164C71.706 36.4809 71.5043 36.2995 71.2983 36.114L71.294 36.1099ZM23.8988 31.7734H23.3365C23.0875 32.0207 22.8257 32.2763 22.5553 32.5443C22.5381 32.6061 22.5038 32.6844 22.4995 32.7668C22.4909 32.9441 22.4823 33.1255 22.4995 33.3027C22.5167 33.4676 22.5381 33.6531 22.624 33.785C22.8 34.0488 23.1219 33.9004 23.3494 33.9705C23.5683 34.156 23.77 34.3291 23.9803 34.5105H25.0277C25.2723 34.7125 25.4783 34.8815 25.62 34.9969H26.7231C26.9849 34.7867 27.191 34.6259 27.4099 34.4487H28.3069C28.9207 33.9417 29.4058 33.5336 29.8393 33.1749C29.8178 32.8946 29.8693 32.6638 29.7749 32.5566C29.35 32.0867 28.8821 31.6539 28.4572 31.2334H24.4954C24.3023 31.4065 24.1048 31.5879 23.8988 31.7734ZM50.7083 140.157C50.7083 140.07 50.7383 139.967 50.704 139.897C50.6053 139.703 50.4636 139.629 50.3391 139.695C50.2619 139.736 50.1846 139.806 50.1503 139.881C50.1202 139.955 50.1417 140.054 50.1417 140.14C50.1417 140.478 50.3177 140.697 50.5108 140.606C50.704 140.511 50.7684 140.359 50.704 140.161L50.7083 140.157ZM74.6892 138.52C74.2857 138.883 74.2857 139.246 74.6892 139.609C75.0926 139.246 75.0926 138.883 74.6892 138.52ZM42.4328 90.3861C42.3684 90.4479 42.2439 90.5386 42.2568 90.5633C42.3641 90.753 42.5015 90.8189 42.6216 90.7447C42.6946 90.6994 42.8148 90.5922 42.8019 90.5716C42.6946 90.382 42.5616 90.3243 42.4371 90.3861H42.4328ZM23.7185 141.051C23.7829 141.113 23.8773 141.233 23.9031 141.22C24.1005 141.117 24.1692 140.985 24.0919 140.87C24.0447 140.8 23.9331 140.684 23.9117 140.697C23.7142 140.8 23.6541 140.928 23.7185 141.047V141.051ZM89.6434 205.983C89.579 205.921 89.5275 205.851 89.4545 205.806C89.3344 205.736 89.197 205.798 89.0897 205.987C89.0768 206.008 89.197 206.115 89.27 206.16C89.3902 206.231 89.5189 206.16 89.6434 205.983Z" fill="#3F3F3F"/>
<path d="M57.1853 38.814C57.3914 38.9995 57.5974 39.1809 57.7905 39.354C58.5503 39.3787 58.5546 39.387 58.6104 40.1372C58.9709 40.5 59.3529 40.8833 59.7435 41.279V42.3261C59.941 42.5363 60.1298 42.7342 60.28 42.8949V48.3155C60.1255 48.4639 59.9925 48.5917 59.8594 48.7195C59.6233 49.2307 59.7821 49.7706 59.7306 50.3354C59.5589 50.5868 59.2842 50.8465 59.1941 51.1598C59.1211 51.4195 59.0997 51.671 58.8636 51.84C58.6919 51.9595 58.5975 52.0997 58.6061 52.281C58.6318 52.7221 58.4301 52.9282 57.9622 52.9076C57.636 52.8911 57.533 53.2168 57.3012 53.3281C57.0737 53.4394 56.799 53.4641 56.3312 53.5836C55.5414 54.3421 54.6143 55.2325 53.627 56.1806H52.657C52.4982 56.3331 52.3651 56.4609 52.2321 56.5887C52.0604 56.6258 51.8887 56.6917 51.7127 56.6917C50.3134 56.7 48.9184 56.6958 47.605 56.6958C47.3904 56.4897 47.2573 56.3619 47.1243 56.2342C46.5791 56.0858 46.0211 56.1847 45.4632 56.1558C44.9438 55.9209 44.6905 55.3974 44.1326 55.08H43.699C42.8406 54.2308 41.995 53.394 41.1108 52.5201C41.1065 52.4129 41.0936 52.2398 41.085 52.0626C40.6386 51.6297 40.6 51.5267 40.4884 50.9455C40.3554 50.8177 40.2223 50.6899 40.0764 50.5497C39.8918 50.1375 40.012 49.6882 39.9948 49.2513C39.9733 48.8019 39.9819 48.3485 39.9948 47.8992C40.0077 47.4581 39.9304 47.0129 40.0463 46.6213C40.218 46.4565 40.3511 46.3287 40.4841 46.2009C40.6172 45.6732 40.5313 45.1374 40.5571 44.5603C40.7116 44.3871 40.8876 44.1893 41.0979 43.9584V43.0145C42.3384 41.8232 43.5316 40.6772 44.8322 39.4282C45.1927 39.321 45.579 39.1355 45.8237 38.9047C46.3688 38.7398 46.9268 38.8511 47.4762 38.8181C47.9827 38.5667 48.296 38.1091 48.7382 37.734C50.6783 37.734 52.6441 37.734 54.6143 37.734C55.022 37.734 55.0134 37.734 55.2281 38.3894C55.2796 38.5461 55.4083 38.678 55.5028 38.8181C56.065 38.8181 56.6316 38.8181 57.1853 38.8181V38.814Z" fill="#3F3F3F"/>
</g>
<defs>
<clipPath id="clip0_826_955">
<rect width="88" height="216" fill="white" transform="translate(5)"/>
</clipPath>
</defs>
</svg>
