<svg width="215" height="76" viewBox="0 0 215 76" fill="none" xmlns="http://www.w3.org/2000/svg">
<path d="M50.8185 0.115189C41.6634 -1.04039 33.9596 6.66345 35.1152 15.8185C35.9035 22.0621 40.9378 27.0965 47.1815 27.8848C56.3366 29.0404 64.0404 21.3366 62.8848 12.1815C62.0965 5.93785 57.0621 0.903488 50.8185 0.115189ZM50.3885 23.7104C47.2442 24.1493 44.3329 23.0744 42.2726 21.1216C41.762 20.6378 41.9411 19.76 42.6219 19.5718C43.3027 19.3837 44.0642 19.0971 44.8346 18.6671C46.7874 17.5921 48.2117 16.0335 49.0358 14.9585C49.421 14.4569 49.0717 13.7402 48.4446 13.7402H40.4093C39.7375 13.7402 39.209 13.14 39.3165 12.4771C40.0421 7.78319 44.109 4.17314 49 4.17314C54.7868 4.17314 59.4181 9.2075 58.7462 15.1287C58.2446 19.5002 54.76 23.0834 50.3974 23.6925L50.3885 23.7104Z" fill="#F39556"/>
<path d="M107.115 12.1815C105.96 21.3366 113.663 29.0404 122.818 27.8848C129.062 27.0965 134.097 22.0621 134.885 15.8185C136.04 6.66345 128.337 -1.04039 119.182 0.115189C112.938 0.903488 107.903 5.93785 107.115 12.1815ZM111.254 15.1466C110.582 9.22542 115.213 4.19105 121 4.19105C125.9 4.19105 129.958 7.8011 130.684 12.4951C130.782 13.158 130.254 13.7581 129.591 13.7581H121.555C120.928 13.7581 120.579 14.4748 120.964 14.9764C121.788 16.0514 123.213 17.6011 125.165 18.685C125.936 19.115 126.688 19.4016 127.378 19.5898C128.068 19.7779 128.238 20.6468 127.727 21.1395C125.667 23.0923 122.756 24.1673 119.612 23.7283C115.249 23.1192 111.764 19.536 111.263 15.1645L111.254 15.1466Z" fill="#F39556"/>
<path d="M85 4.19194C90.4101 4.19194 94.8081 8.58989 94.8081 14C94.8081 19.4101 90.4101 23.8081 85 23.8081C79.5899 23.8081 75.1919 19.4101 75.1919 14C75.1919 8.58989 79.5899 4.19194 85 4.19194ZM85 0C77.27 0 71 6.26999 71 14C71 21.73 77.27 28 85 28C92.73 28 99 21.73 99 14C99 6.26999 92.73 0 85 0Z" fill="#F39556"/>
<path d="M89.2813 13.7223C90.7502 13.7223 91.7893 15.2808 91.1712 16.6513C90.0964 19.0428 87.7406 20.7089 84.9998 20.7089C82.2589 20.7089 79.9121 19.0518 78.8283 16.6513C78.2102 15.2808 79.2493 13.7223 80.7182 13.7223H89.2723H89.2813Z" fill="#F39556"/>
<g clip-path="url(#clip0_1184_4556)">
<g clip-path="url(#clip1_1184_4556)">
<path d="M0 59.5C8.81 59.5 8.81 67.49 17.61 67.49C26.41 67.49 26.42 59.5 35.23 59.5C44.04 59.5 44.04 67.49 52.85 67.49C61.66 67.49 61.66 59.5 70.47 59.5C79.28 59.5 79.28 67.49 88.09 67.49" stroke="#F39556" stroke-width="2" stroke-miterlimit="10"/>
</g>
<g clip-path="url(#clip2_1184_4556)">
<path d="M70 59.5C78.81 59.5 78.81 67.49 87.61 67.49C96.41 67.49 96.42 59.5 105.23 59.5C114.04 59.5 114.04 67.49 122.85 67.49C131.66 67.49 131.66 59.5 140.47 59.5C149.28 59.5 149.28 67.49 158.09 67.49" stroke="#F39556" stroke-width="2" stroke-miterlimit="10"/>
</g>
<g clip-path="url(#clip3_1184_4556)">
<path d="M140 59.5C148.81 59.5 148.81 67.49 157.61 67.49C166.41 67.49 166.42 59.5 175.23 59.5C184.04 59.5 184.04 67.49 192.85 67.49C201.66 67.49 201.66 59.5 210.47 59.5C219.28 59.5 219.28 67.49 228.09 67.49" stroke="#F39556" stroke-width="2" stroke-miterlimit="10"/>
</g>
<g clip-path="url(#clip4_1184_4556)">
<path d="M210 59.5C218.81 59.5 218.81 67.49 227.61 67.49C236.41 67.49 236.42 59.5 245.23 59.5C254.04 59.5 254.04 67.49 262.85 67.49C271.66 67.49 271.66 59.5 280.47 59.5C289.28 59.5 289.28 67.49 298.09 67.49" stroke="#F39556" stroke-width="2" stroke-miterlimit="10"/>
</g>
<g clip-path="url(#clip5_1184_4556)">
<path d="M0 47.5C8.81 47.5 8.81 55.49 17.61 55.49C26.41 55.49 26.42 47.5 35.23 47.5C44.04 47.5 44.04 55.49 52.85 55.49C61.66 55.49 61.66 47.5 70.47 47.5C79.28 47.5 79.28 55.49 88.09 55.49" stroke="#F39556" stroke-width="2" stroke-miterlimit="10"/>
</g>
<g clip-path="url(#clip6_1184_4556)">
<path d="M70 47.5C78.81 47.5 78.81 55.49 87.61 55.49C96.41 55.49 96.42 47.5 105.23 47.5C114.04 47.5 114.04 55.49 122.85 55.49C131.66 55.49 131.66 47.5 140.47 47.5C149.28 47.5 149.28 55.49 158.09 55.49" stroke="#F39556" stroke-width="2" stroke-miterlimit="10"/>
</g>
<g clip-path="url(#clip7_1184_4556)">
<path d="M140 47.5C148.81 47.5 148.81 55.49 157.61 55.49C166.41 55.49 166.42 47.5 175.23 47.5C184.04 47.5 184.04 55.49 192.85 55.49C201.66 55.49 201.66 47.5 210.47 47.5C219.28 47.5 219.28 55.49 228.09 55.49" stroke="#F39556" stroke-width="2" stroke-miterlimit="10"/>
</g>
<g clip-path="url(#clip8_1184_4556)">
<path d="M210 47.5C218.81 47.5 218.81 55.49 227.61 55.49C236.41 55.49 236.42 47.5 245.23 47.5C254.04 47.5 254.04 55.49 262.85 55.49C271.66 55.49 271.66 47.5 280.47 47.5C289.28 47.5 289.28 55.49 298.09 55.49" stroke="#F39556" stroke-width="2" stroke-miterlimit="10"/>
</g>
<g clip-path="url(#clip9_1184_4556)">
<path d="M0 34.5C8.81 34.5 8.81 42.49 17.61 42.49C26.41 42.49 26.42 34.5 35.23 34.5C44.04 34.5 44.04 42.49 52.85 42.49C61.66 42.49 61.66 34.5 70.47 34.5C79.28 34.5 79.28 42.49 88.09 42.49" stroke="#F39556" stroke-width="2" stroke-miterlimit="10"/>
</g>
<g clip-path="url(#clip10_1184_4556)">
<path d="M70 34.5C78.81 34.5 78.81 42.49 87.61 42.49C96.41 42.49 96.42 34.5 105.23 34.5C114.04 34.5 114.04 42.49 122.85 42.49C131.66 42.49 131.66 34.5 140.47 34.5C149.28 34.5 149.28 42.49 158.09 42.49" stroke="#F39556" stroke-width="2" stroke-miterlimit="10"/>
</g>
<g clip-path="url(#clip11_1184_4556)">
<path d="M140 34.5C148.81 34.5 148.81 42.49 157.61 42.49C166.41 42.49 166.42 34.5 175.23 34.5C184.04 34.5 184.04 42.49 192.85 42.49C201.66 42.49 201.66 34.5 210.47 34.5C219.28 34.5 219.28 42.49 228.09 42.49" stroke="#F39556" stroke-width="2" stroke-miterlimit="10"/>
</g>
<g clip-path="url(#clip12_1184_4556)">
<path d="M210 34.5C218.81 34.5 218.81 42.49 227.61 42.49C236.41 42.49 236.42 34.5 245.23 34.5C254.04 34.5 254.04 42.49 262.85 42.49C271.66 42.49 271.66 34.5 280.47 34.5C289.28 34.5 289.28 42.49 298.09 42.49" stroke="#F39556" stroke-width="2" stroke-miterlimit="10"/>
</g>
</g>
<defs>
<clipPath id="clip0_1184_4556">
<rect width="215" height="46" fill="white" transform="translate(0 30)"/>
</clipPath>
<clipPath id="clip1_1184_4556">
<rect width="88" height="13" fill="white" transform="translate(0 57)"/>
</clipPath>
<clipPath id="clip2_1184_4556">
<rect width="88" height="13" fill="white" transform="translate(70 57)"/>
</clipPath>
<clipPath id="clip3_1184_4556">
<rect width="88" height="13" fill="white" transform="translate(140 57)"/>
</clipPath>
<clipPath id="clip4_1184_4556">
<rect width="88" height="13" fill="white" transform="translate(210 57)"/>
</clipPath>
<clipPath id="clip5_1184_4556">
<rect width="88" height="13" fill="white" transform="translate(0 45)"/>
</clipPath>
<clipPath id="clip6_1184_4556">
<rect width="88" height="13" fill="white" transform="translate(70 45)"/>
</clipPath>
<clipPath id="clip7_1184_4556">
<rect width="88" height="13" fill="white" transform="translate(140 45)"/>
</clipPath>
<clipPath id="clip8_1184_4556">
<rect width="88" height="13" fill="white" transform="translate(210 45)"/>
</clipPath>
<clipPath id="clip9_1184_4556">
<rect width="88" height="13" fill="white" transform="translate(0 32)"/>
</clipPath>
<clipPath id="clip10_1184_4556">
<rect width="88" height="13" fill="white" transform="translate(70 32)"/>
</clipPath>
<clipPath id="clip11_1184_4556">
<rect width="88" height="13" fill="white" transform="translate(140 32)"/>
</clipPath>
<clipPath id="clip12_1184_4556">
<rect width="88" height="13" fill="white" transform="translate(210 32)"/>
</clipPath>
</defs>
</svg>
