<svg width="100" height="28" viewBox="0 0 100 28" fill="none" xmlns="http://www.w3.org/2000/svg">
<path d="M15.8185 0.115189C6.66344 -1.04039 -1.04039 6.66345 0.115189 15.8185C0.903488 22.0621 5.93785 27.0965 12.1815 27.8848C21.3366 29.0404 29.0404 21.3366 27.8848 12.1815C27.0965 5.93785 22.0621 0.903488 15.8185 0.115189ZM15.3885 23.7104C12.2442 24.1493 9.33291 23.0744 7.27258 21.1216C6.76198 20.6378 6.94114 19.76 7.62194 19.5718C8.30275 19.3837 9.06417 19.0971 9.83456 18.6671C11.7874 17.5921 13.2117 16.0335 14.0358 14.9585C14.421 14.4569 14.0717 13.7402 13.4446 13.7402H5.40933C4.73749 13.7402 4.20897 13.14 4.31646 12.4771C5.04206 7.78319 9.10896 4.17314 14 4.17314C19.7868 4.17314 24.4181 9.2075 23.7462 15.1287C23.2446 19.5002 19.76 23.0834 15.3974 23.6925L15.3885 23.7104Z" fill="#F39556"/>
<path d="M72.1152 12.1815C70.9596 21.3366 78.6634 29.0404 87.8185 27.8848C94.0621 27.0965 99.0965 22.0621 99.8848 15.8185C101.04 6.66345 93.3366 -1.04039 84.1815 0.115189C77.9379 0.903488 72.9035 5.93785 72.1152 12.1815ZM76.2538 15.1466C75.5819 9.22542 80.2132 4.19105 86 4.19105C90.9 4.19105 94.9579 7.8011 95.6835 12.4951C95.7821 13.158 95.2536 13.7581 94.5907 13.7581H86.5554C85.9283 13.7581 85.579 14.4748 85.9642 14.9764C86.7883 16.0514 88.2126 17.6011 90.1655 18.685C90.9358 19.115 91.6883 19.4016 92.3781 19.5898C93.0678 19.7779 93.238 20.6468 92.7274 21.1395C90.6671 23.0923 87.7558 24.1673 84.6115 23.7283C80.249 23.1192 76.7644 19.536 76.2627 15.1645L76.2538 15.1466Z" fill="#F39556"/>
<path d="M50 4.19194C55.4101 4.19194 59.8081 8.58989 59.8081 14C59.8081 19.4101 55.4101 23.8081 50 23.8081C44.5899 23.8081 40.1919 19.4101 40.1919 14C40.1919 8.58989 44.5899 4.19194 50 4.19194ZM50 0C42.27 0 36 6.26999 36 14C36 21.73 42.27 28 50 28C57.73 28 64 21.73 64 14C64 6.26999 57.73 0 50 0Z" fill="#F39556"/>
<path d="M54.2813 13.7222C55.7502 13.7222 56.7893 15.2807 56.1712 16.6511C55.0964 19.0427 52.7406 20.7087 49.9998 20.7087C47.2589 20.7087 44.9121 19.0517 43.8283 16.6511C43.2102 15.2807 44.2493 13.7222 45.7182 13.7222H54.2723H54.2813Z" fill="#F39556"/>
</svg>
