<svg width="88" height="110" viewBox="0 0 88 110" fill="none" xmlns="http://www.w3.org/2000/svg">
<g clip-path="url(#clip0_6_724)">
<path d="M32.6588 117.859L52.101 119.308L56.4721 109.615L60.052 119.364L79.7099 117.701L76.8891 85.0744L45.2287 51.7432L34.5447 54.1664L27.3768 68.1039L17.1562 71.5883C17.1562 71.5883 20.5604 96.1293 24.1484 99.1227L35.0881 94.1733L32.6588 117.851V117.859Z" fill="#A5C3CF"/>
<path d="M26.154 72.3877C25.4588 72.4754 24.7396 72.5712 24.0284 72.651C23.9165 72.667 23.7967 72.6351 23.6768 72.6271C23.517 72.6111 23.3651 72.5553 23.2133 72.5712C22.2144 72.6351 21.2156 72.7388 20.2167 72.7867C19.5135 72.8186 18.8103 72.7867 18.0351 72.7867C18.0911 73.0341 18.147 73.2017 18.171 73.3613C18.2349 73.7843 18.2908 74.2072 18.3548 74.6382C18.3708 74.7659 18.3947 74.9175 18.4667 75.0213C18.6664 75.3165 18.7144 75.6278 18.7224 75.9709C18.7224 76.2183 18.8103 76.4737 18.8582 76.7211C18.8902 76.9127 18.9941 77.1202 18.9541 77.2957C18.8502 77.7746 18.9941 78.1736 19.2258 78.5726C19.6893 79.3866 19.6573 80.2805 19.5694 81.1583C19.5454 81.4377 19.5534 81.6372 19.7532 81.8527C19.897 82.0043 20.0249 82.2118 20.0649 82.4113C20.2087 83.1375 20.3206 83.8717 20.4404 84.606C20.4964 84.9332 20.5523 85.2604 20.6162 85.5876C20.792 86.4415 20.9199 87.3194 21.1916 88.1493C21.3434 88.6202 21.4713 89.0751 21.5032 89.5699C21.5192 89.7455 21.6471 89.921 21.735 90.0966C21.8389 90.3041 21.9907 90.5036 22.0546 90.7191C22.2144 91.3017 22.3263 91.9002 22.4702 92.4828C22.582 92.9217 22.7418 93.3447 22.8457 93.7757C23.0056 94.478 23.1414 95.1962 23.2852 95.9065C23.2932 95.9623 23.3012 96.0262 23.3252 96.0741C23.5889 96.5689 23.8526 97.0716 24.1403 97.6063C24.6197 97.5106 25.1631 97.5984 25.6346 97.2712C25.7704 97.1754 25.9782 97.1834 26.138 97.1275C26.3378 97.0557 26.5775 97.0158 26.7294 96.8881C27.4246 96.3135 28.1677 95.8586 29.0707 95.7229C29.1427 95.7149 29.2226 95.6671 29.2705 95.6112C29.5582 95.292 29.8938 95.0845 30.3253 95.0127C30.4532 94.9887 30.5651 94.8291 30.6609 94.7094C31.0126 94.2625 31.46 94.0151 32.0274 93.9832C32.2751 93.9752 32.4669 93.8954 32.6667 93.7437C32.9064 93.5522 33.1941 93.4245 33.5057 93.2489C33.4338 93.1213 33.3379 93.0095 33.306 92.8898C33.2261 92.6504 33.0822 92.3711 33.1382 92.1636C33.3379 91.4214 33.1382 90.6792 33.242 89.945C33.298 89.538 33.4418 89.131 33.4099 88.7239C33.3779 88.1813 33.4099 87.6625 33.5457 87.1518C33.6176 86.8724 33.7535 86.6091 33.8254 86.3298C33.9532 85.8589 34.0651 85.3881 34.177 84.9172C34.201 84.8214 34.161 84.7177 34.177 84.6219C34.2169 84.2309 34.5206 83.9755 34.8962 83.9914C35.2478 84.0074 35.5195 84.2628 35.5435 84.6379C35.5754 85.1646 35.5994 85.6913 35.6234 86.218C35.6234 86.2739 35.6154 86.3377 35.6234 86.3936C35.935 87.3433 35.6953 88.293 35.6793 89.2507C35.6713 89.7375 35.6793 90.2243 35.6713 90.7111C35.6713 90.8867 35.6074 91.0623 35.5834 91.2299C35.5594 91.4373 35.5115 91.6608 35.5515 91.8603C35.6473 92.3232 35.5514 92.7302 35.2478 93.0734C35.0161 93.3208 34.9761 93.5841 35.064 93.8874C35.072 93.9273 35.104 93.9592 35.104 93.9991C35.064 94.9488 35.5754 95.8825 35.1599 96.8322C35.072 97.0317 35.0001 97.2313 34.9361 97.4388C34.9202 97.4946 34.9361 97.5585 34.9361 97.6143C34.9841 98.1969 35.032 98.7795 35.08 99.3461C35.5355 99.3461 35.943 99.3461 36.3506 99.3461C36.4305 99.3461 36.5184 99.3381 36.5743 99.2903C36.9099 99.0429 37.3095 99.0508 37.701 99.0029C38.2204 98.9311 38.7319 98.7715 39.2593 98.6997C39.7627 98.6358 40.2821 98.6039 40.7776 98.6438C41.0653 98.6678 41.305 98.6997 41.5607 98.5481C41.8963 98.3406 42.2639 98.3246 42.6475 98.4363C42.9511 98.5241 43.2468 98.5401 43.5744 98.4762C43.974 98.3964 44.3895 98.4044 44.7811 98.6119C44.9809 98.7156 45.2366 98.6997 45.4603 98.7715C45.9158 98.9152 46.0277 99.1546 45.7959 99.5616C45.6361 99.8409 45.6121 100.056 45.756 100.376C46.0437 100.998 45.9238 101.645 45.6521 102.267C45.5882 102.411 45.4763 102.562 45.5003 102.698C45.6041 103.336 45.2685 103.807 44.9169 104.254C44.7571 104.462 44.5014 104.605 44.2617 104.725C43.966 104.877 43.6304 104.949 43.3347 105.092C42.7194 105.387 42.0721 105.348 41.4248 105.276C41.313 105.26 41.1771 105.172 41.0892 105.204C40.442 105.459 39.7547 105.26 39.0995 105.363C38.9237 105.395 38.7479 105.363 38.5721 105.379C38.3643 105.395 38.1565 105.419 37.9488 105.451C37.757 105.475 37.5572 105.571 37.3734 105.539C37.0058 105.475 36.6542 105.387 36.2786 105.419C36.1108 105.435 35.911 105.292 35.7672 105.164C35.4635 104.901 35.4476 104.557 35.7912 104.382C36.3186 104.127 36.6462 103.648 37.1177 103.344C37.3334 103.201 37.5492 103.065 37.8289 103.153C37.9008 103.177 38.0047 103.193 38.0606 103.161C38.7079 102.81 39.4271 103.041 40.0983 102.929C40.1782 102.913 40.2582 102.913 40.3301 102.929C41.1771 103.185 42.0082 102.905 42.8313 102.818C43.2548 102.778 43.6384 102.379 44.0299 102.123C44.0938 102.083 44.1018 101.948 44.1098 101.852C44.1578 101.365 44.1977 100.878 44.2457 100.36C43.7822 100.32 43.3267 100.312 42.8952 100.567C42.5436 100.775 42.152 100.838 41.7525 100.695C41.5127 100.607 41.321 100.687 41.0812 100.767C40.6018 100.926 40.0903 101.086 39.5949 101.078C38.9396 101.07 38.3004 101.118 37.6531 101.166C36.9818 101.214 36.3026 101.078 35.6234 101.23C35.3836 101.285 35.096 101.134 34.7843 101.07C34.8243 101.581 34.8163 102.036 34.5686 102.467C34.5206 102.554 34.6245 102.762 34.6964 102.897C34.9202 103.304 34.9681 103.712 34.7923 104.142C34.7444 104.246 34.6724 104.382 34.7044 104.478C34.9521 105.244 34.6804 105.994 34.6644 106.752C34.6485 107.215 34.4567 107.67 34.3688 108.125C34.3288 108.324 34.2729 108.572 34.3448 108.747C34.6005 109.378 34.0332 109.992 34.4007 110.647C34.7284 111.237 34.3368 111.876 34.2729 112.498C34.2249 112.969 34.1211 113.416 34.2569 113.895C34.3768 114.318 34.2169 114.717 33.9053 115.028C33.7135 115.22 33.7055 115.395 33.8334 115.603C34.161 116.161 34.185 116.712 33.8494 117.279C33.7774 117.39 33.7774 117.582 33.8174 117.717C33.9453 118.196 33.8653 118.659 33.7295 119.114C33.5697 119.633 33.0902 119.952 32.6108 119.904C32.1153 119.856 31.6998 119.481 31.6279 118.946C31.5719 118.484 31.516 118.005 31.7397 117.55C31.7957 117.438 31.8037 117.271 31.7557 117.159C31.476 116.528 31.5879 115.97 31.9875 115.443C32.0434 115.363 32.0674 115.267 32.0913 115.228C31.9555 114.876 31.7877 114.581 31.7238 114.262C31.6838 114.046 31.7397 113.791 31.8117 113.576C32.0034 112.961 32.0194 112.969 31.524 112.53C31.9795 112.267 31.9315 111.86 31.8596 111.429C31.7957 111.046 31.8676 110.679 32.0833 110.351C32.2352 110.12 32.2671 109.888 32.2272 109.617C32.1713 109.242 32.1872 108.875 32.355 108.524C32.419 108.396 32.403 108.221 32.371 108.069C32.2192 107.295 32.1553 106.521 32.2831 105.731C32.355 105.276 32.2272 104.797 32.4669 104.35C32.5149 104.27 32.4669 104.119 32.435 104.007C32.3311 103.56 32.379 103.137 32.6827 102.778C32.8904 102.53 32.9064 102.299 32.7706 102.02C32.7146 101.9 32.6747 101.74 32.7066 101.621C32.8665 100.934 32.7226 100.256 32.7226 99.5776C32.7226 99.0349 32.8745 98.4922 32.9703 97.9495C33.1222 97.0956 33.1302 97.0876 32.8505 96.2337C32.427 96.3694 31.9395 96.4093 31.5879 96.6567C31.0925 97.0078 30.605 97.343 30.0297 97.5265C29.3584 98.2608 28.5034 98.5959 27.5285 98.6997C27.4725 98.6997 27.4086 98.7236 27.3607 98.7476C26.7054 99.0588 26.0421 99.3461 25.4029 99.6813C25.0353 99.8728 24.6757 99.9846 24.2761 99.8649C24.2202 99.8489 24.1642 99.825 24.1083 99.817C23.1574 99.7771 22.582 99.3381 22.566 98.3406C22.4062 98.2767 22.2784 98.2368 22.1505 98.173C21.679 97.9495 21.4073 97.5824 21.4233 97.0557C21.4313 96.7684 21.3035 96.5369 21.2315 96.2736C20.9519 95.292 20.3845 94.4221 20.2327 93.3846C20.1528 92.834 19.8731 92.3152 19.7212 91.7645C19.6254 91.4134 19.5854 91.0383 19.5215 90.6792C19.4735 90.4158 19.4815 90.1205 19.3696 89.8891C19.1938 89.53 19.074 89.1788 19.058 88.7718C19.042 88.3489 18.9781 87.886 18.7863 87.5269C18.4906 86.9842 18.5466 86.3777 18.3388 85.827C18.2109 85.4838 18.115 85.1167 18.0192 84.7576C17.9392 84.4783 17.8833 84.191 17.8194 83.9037C17.7794 83.7361 17.7794 83.5445 17.7155 83.3849C17.5557 82.9779 17.5237 82.5789 17.6755 82.1719C17.7634 81.9404 17.7075 81.7808 17.5956 81.5733C17.0682 80.6476 16.7646 79.666 16.9484 78.5806C16.9803 78.3971 16.9883 78.1736 16.9004 78.022C16.7086 77.6788 16.6287 77.3356 16.6207 76.9526C16.6207 76.7211 16.5408 76.4897 16.4929 76.2583C16.4609 76.1066 16.365 75.947 16.389 75.8034C16.5408 74.8936 15.9974 74.0556 16.1253 73.1458C16.1253 73.1219 16.0853 73.09 16.0374 73.0181C15.9175 73.1299 15.7897 73.2336 15.7497 73.2735C15.3741 73.2575 15.0944 73.2416 14.8068 73.2256C14.7348 73.2256 14.631 73.2017 14.607 73.1538C14.5031 72.9383 14.3113 72.9942 14.1435 72.9942C13.7599 72.9942 13.4003 72.9543 13.0807 72.7069C12.8729 72.5473 12.6652 72.5473 12.4334 72.7149C12.1058 72.9623 11.7382 72.9463 11.3626 72.8027C11.2268 72.7468 11.067 72.7388 10.9231 72.7468C10.5396 72.7867 10.148 72.8904 9.76443 72.8904C8.9014 72.8904 8.03837 72.7707 7.18333 72.9543C7.14338 72.9623 7.10342 72.9702 7.06347 72.9543C6.35227 72.7069 5.62509 72.8984 4.90589 72.8904C4.49835 72.8904 4.10679 72.7787 3.69126 72.7947C3.41956 72.8027 3.036 72.6031 2.89216 72.3717C2.60448 71.9168 2.11703 71.8131 1.74145 71.5178C0.806502 70.7836 0.359005 70.2967 0.414942 69.0917C0.430924 68.6847 0.366996 68.2777 0.351014 67.8706C0.351014 67.6791 0.303067 67.4477 0.390969 67.296C0.550789 67.0008 0.462888 66.7454 0.414942 66.4501C0.239139 65.4605 -0.0325553 64.4629 0.303067 63.4494C0.335031 63.3616 0.335031 63.2499 0.303067 63.1621C0.0153907 62.396 0.119274 61.6139 0.151238 60.8318C0.159229 60.5046 0.0873099 60.1694 0.0553459 59.8422C0.0393638 59.7225 -0.0245643 59.5868 0.0233818 59.499C0.319049 58.9005 0.0553459 58.254 0.223157 57.6475C0.263112 57.5039 0.279094 57.3203 0.223157 57.1846C-0.0405464 56.5143 0.16722 55.9556 0.574762 55.4129C0.470879 55.1416 0.24713 54.8543 0.271103 54.5989C0.32704 53.9924 0.0793189 53.4178 0.119274 52.8272C0.151238 52.2446 0.303067 51.6381 0.199184 51.0795C0.095301 50.5208 0.199184 49.9702 0.103292 49.4115C-0.0245643 48.7013 0.151238 47.9351 0.199184 47.1929C0.207175 47.0573 0.263112 46.9216 0.263112 46.7859C0.263112 46.1235 0.239139 45.4532 0.263112 44.7908C0.279094 44.4875 0.406951 44.1922 0.510834 43.7852C0.191193 43.0909 0.414942 42.2529 0.430924 41.415C0.430924 41.1835 0.502843 40.9361 0.462888 40.7127C0.335031 40.0583 0.582753 39.5475 1.02226 39.1245C1.22203 38.933 1.33391 38.7495 1.31793 38.4622C1.29395 38.119 1.48574 37.8716 1.77341 37.688C1.88529 37.6162 2.01315 37.5444 2.09306 37.4406C2.66841 36.6745 3.58738 36.4271 4.46639 36.7782C4.62621 36.8421 4.83397 36.7942 5.02576 36.7782C5.23353 36.7543 5.48924 36.6266 5.64906 36.6984C6.13651 36.9219 6.56803 36.7224 7.01552 36.6186C7.33516 36.5468 7.67079 36.5069 7.99842 36.475C8.42993 36.4351 8.86145 36.3872 9.29296 36.3952C10.132 36.3952 10.9711 36.4431 11.89 36.467C11.922 36.2435 11.9859 36.044 11.97 35.8445C11.93 35.1263 12.3855 34.6794 12.849 34.2484C12.9528 34.1526 13.1366 34.0888 13.2805 34.0968C13.8638 34.1287 14.4552 34.1526 15.0305 34.2644C15.6059 34.3841 15.6378 34.424 15.9335 33.9212C16.1253 33.594 16.397 33.4264 16.7646 33.4823C17.3239 33.5621 17.8833 33.6658 18.4347 33.7935C18.6984 33.8494 18.9461 33.985 19.2658 34.1047C19.7692 33.9611 20.3525 33.7935 20.9359 33.6419C21.5272 33.4982 22.0786 33.6259 22.5501 34.001C22.7339 34.1447 22.9017 34.2165 23.1334 34.2005C23.4451 34.1846 23.7647 34.2165 24.0763 34.2324C24.1722 34.2324 24.2841 34.2324 24.364 34.2723C25.0033 34.5756 25.5707 34.9746 26.0102 35.6211C26.13 35.6211 26.3218 35.645 26.4337 35.645C26.7374 35.9882 27.065 36.2356 27.2488 36.5628C27.5684 37.1374 28.2716 37.5843 27.8881 38.518C28.2956 38.4223 28.5913 38.3584 28.8789 38.2786C29.0468 38.2307 29.2066 38.1509 29.3824 38.103C29.9977 37.9115 30.7568 38.2626 30.9726 38.8612C31.0765 39.1485 31.0765 39.4438 30.9087 39.7151C30.4532 40.4733 30.2614 41.3272 30.0376 42.1731C29.9418 42.5402 29.7899 42.9393 29.5582 43.2266C29.3424 43.482 29.2385 43.7533 29.1267 44.0406C28.9908 44.4077 28.831 44.7668 28.7111 45.1339C28.6232 45.4053 28.5673 45.6926 28.5034 45.9799C28.4554 46.1874 28.4554 46.4188 28.3835 46.6183C28.2796 46.9136 28.3116 47.169 28.4155 47.4643C28.5833 47.9192 28.6632 48.414 28.5114 48.9088C28.4714 49.0524 28.4474 49.22 28.4794 49.3557C28.6552 50.0659 28.7351 50.7682 28.6073 51.5104C28.5433 51.8935 28.6073 52.3564 28.7591 52.7075C29.0068 53.2502 29.0068 53.761 28.9029 54.3116C28.863 54.5191 28.847 54.7346 28.823 54.9501C28.9509 54.982 29.0388 54.9979 29.1986 55.0378C29.1986 55.9237 29.2066 56.8255 29.1906 57.7273C29.1906 57.8869 29.0707 58.0465 28.9828 58.1902C28.7751 58.5413 28.6152 58.9404 28.7751 59.3075C28.9988 59.8422 28.9429 60.3769 28.9509 61.0073C29.2545 60.7679 29.5422 60.5844 29.5662 60.2332C29.6141 59.3554 30.1415 58.693 30.5651 57.9986C30.9087 57.424 31.0126 56.6819 31.6838 56.3227C31.7078 56.3068 31.7078 56.2509 31.7238 56.211C32.0114 55.5726 32.2671 54.9102 32.6028 54.2957C32.9624 53.6492 33.314 52.9789 33.9453 52.524C34.4087 52.1888 34.8882 51.9573 35.4875 52.1169C35.6074 52.1489 35.7672 52.1249 35.8711 52.0691C36.3905 51.7578 36.9579 51.6142 37.5572 51.5982C37.8049 51.5902 37.9647 51.4865 38.1006 51.3029C38.4921 50.7682 39.0116 50.6166 39.6588 50.7124C39.9465 50.7523 40.2661 50.6086 40.5618 50.5208C41.1611 50.3373 41.7525 50.1457 42.3438 49.9383C42.5596 49.8664 42.7753 49.7707 42.9671 49.643C43.3507 49.3876 43.7502 49.2599 44.1977 49.4275C44.7571 49.643 45.1966 49.3956 45.6121 49.0843C45.8439 48.9088 46.0676 48.7412 46.3313 48.5975C46.667 48.414 47.0026 48.1586 47.0345 47.6638C47.0505 47.3924 47.2183 47.1131 47.3702 46.8737C47.5859 46.5465 47.9056 46.2831 48.0814 45.94C48.2971 45.525 48.5608 45.126 48.4729 44.5833C48.385 44.0166 48.4569 43.4181 48.4569 42.8435C47.8017 42.5323 47.2024 42.229 46.587 41.9656C46.2115 41.806 45.8039 41.7103 45.4124 41.5746C45.0448 41.4469 44.6852 41.2953 44.3176 41.1516C44.1018 41.0718 43.8861 40.9601 43.6623 40.9122C42.6395 40.7286 42.0002 39.9386 42.0641 38.917C42.0801 38.6058 42.0402 38.3504 41.8244 38.103C41.6886 37.9514 41.5447 37.696 41.5847 37.5204C41.7365 36.8261 41.2411 36.2356 41.305 35.5732C41.305 35.5333 41.305 35.4934 41.281 35.4615C40.7856 34.5836 41.0413 33.7057 41.289 32.8358C41.289 32.8199 41.289 32.7959 41.289 32.7161C40.4899 32.1734 40.6737 31.2477 40.4979 30.4417C40.442 30.1783 40.41 29.899 40.386 29.6276C40.37 29.4122 40.3141 29.1648 40.402 28.9892C40.5698 28.6141 40.5219 28.3108 40.37 27.9437C40.2022 27.5287 40.1063 27.0659 40.0903 26.619C40.0744 26.2838 40.2182 25.9326 40.3061 25.5256C39.7387 24.935 39.6988 24.145 39.7308 23.315C39.7467 22.9239 39.6508 22.5329 39.6429 22.1418C39.6429 21.7268 39.6908 21.3198 39.6908 20.9048C39.6908 20.3622 39.6508 19.8195 39.6269 19.3406C39.0196 19.2608 38.4842 19.213 37.9488 19.1172C37.3494 19.0055 37.1177 18.5905 37.2455 17.9839C37.3175 17.6567 37.4054 17.3295 37.4213 17.0023C37.4373 16.7789 37.3894 16.5235 37.2775 16.3399C37.1017 16.0367 37.0378 15.7334 37.0458 15.3823C37.0538 15.0551 36.9898 14.7199 36.9739 14.3927C36.9579 13.9617 36.9739 13.5388 36.9419 13.1078C36.9179 12.6609 36.846 12.222 36.814 11.775C36.7901 11.3441 36.7901 10.9131 36.7821 10.4822C36.7821 10.4263 36.7821 10.3545 36.814 10.3066C37.0777 9.8597 37.1736 9.39682 37.1177 8.85414C37.0857 8.55886 37.1736 8.26358 37.0218 7.96032C36.854 7.63311 36.9659 7.30591 37.1736 7.01861C37.3255 6.81111 37.4933 6.61958 37.6051 6.38814C37.749 6.0769 37.9328 5.85344 38.3083 5.85344C38.3643 5.85344 38.4442 5.83748 38.4682 5.79757C38.8038 5.22297 39.547 5.24691 39.9705 4.8C40.0983 4.67231 40.3221 4.64039 40.5059 4.56856C40.6337 4.52068 40.7776 4.49674 40.8974 4.44087C42.0162 3.91415 43.1429 3.43532 44.3815 3.25975C44.4774 3.24378 44.5733 3.20388 44.6452 3.14802C45.1806 2.77293 45.7879 2.64524 46.4192 2.58139C46.5311 2.56543 46.659 2.54947 46.7549 2.49361C47.0745 2.30207 47.4021 2.21429 47.7697 2.30207C47.8416 2.31804 47.9375 2.34198 48.0015 2.30207C48.5289 2.02275 49.1122 1.92699 49.6876 1.82324C50.0871 1.75141 50.4947 1.64767 50.8942 1.60776C51.2138 1.57584 51.5015 1.54392 51.7972 1.40027C52.0289 1.28854 52.3406 1.24065 52.5883 1.29652C52.868 1.36036 53.0518 1.3444 53.2755 1.15287C53.6351 0.849606 54.0666 0.729897 54.5461 0.833644C54.6819 0.865567 54.8498 0.817683 54.9936 0.785761C55.3132 0.713936 55.6329 0.618168 55.9525 0.538362C56.2162 0.474518 56.4879 0.402692 56.7596 0.362789C57.0633 0.314906 57.3749 0.290964 57.6866 0.259041C57.8624 0.2351 58.0302 0.211158 58.206 0.179235C58.4217 0.139332 58.6295 0.0595265 58.8453 0.0675071C59.1969 0.0914489 59.4766 -0.0362406 59.7962 -0.171911C60.0999 -0.307581 60.4834 -0.275658 60.827 -0.323542C61.0508 -0.355464 61.2825 -0.395367 61.5063 -0.419309C61.8179 -0.451232 62.1296 -0.507096 62.4332 -0.483154C62.673 -0.467193 62.8647 -0.451232 63.0885 -0.610843C63.2963 -0.762475 63.5919 -0.786417 63.8476 -0.866223C64.463 -1.05776 65.1022 -0.938048 65.7096 -0.882184C66.3568 -0.818339 66.9961 -0.546999 67.6034 -0.283639C67.939 -0.139988 68.0269 0.24308 68.0749 0.618168C68.1149 0.921431 68.2028 1.22469 68.3066 1.512C68.6423 2.42976 69.2176 3.25176 69.4174 4.23338C69.4254 4.28924 69.4414 4.35309 69.4813 4.40097C69.9927 5.09528 70.0966 5.91728 70.2165 6.7313C70.2724 7.11437 70.7679 7.88051 71.0555 8.15983C71.2713 8.36733 71.4791 8.56684 71.6629 8.79828C71.8546 9.0377 72.1343 9.14144 72.3501 9.31702C72.9414 9.80383 73.6047 10.2667 73.7166 11.1286C73.7485 11.3441 73.7725 11.5675 73.8444 11.7671C74.0762 12.3736 73.9483 12.9801 73.8764 13.5787C73.8444 13.8181 73.7086 14.0735 73.5407 14.249C73.2291 14.5762 73.1652 14.9433 73.285 15.3344C73.4289 15.8292 73.4528 16.3 73.1891 16.7629C73.1332 16.8587 73.1332 16.9864 73.1172 17.1061C73.1012 17.2018 73.1012 17.3056 73.0933 17.4014C73.0773 17.7924 72.8535 18.0957 72.7257 18.4388C72.6138 18.7421 72.7816 19.1332 72.7416 19.4683C72.7097 19.7078 72.5339 19.9312 72.398 20.1387C72.2462 20.3781 72.1583 20.6016 72.2622 20.9048C72.43 21.3917 72.2782 21.8146 71.9346 22.2057C71.7028 22.469 71.535 22.7962 71.3352 23.0995C71.2713 23.0596 71.1994 23.0197 71.1355 22.9718C71.2473 23.0277 71.3512 23.0915 71.4631 23.1394C71.8147 23.299 72.0944 23.5305 72.2462 23.9055C72.3101 24.0652 72.406 24.2168 72.5179 24.3525C72.9095 24.8473 72.9654 25.2463 72.6218 25.7491C72.462 25.9805 72.406 26.18 72.4779 26.4593C72.5738 26.8264 72.406 27.1457 72.2142 27.4569C72.0704 27.6883 71.9585 27.9437 71.8147 28.1752C71.6948 28.3747 71.575 28.5902 71.3992 28.7418C71.0316 29.069 70.64 29.3643 70.2564 29.6596C69.8329 29.9788 69.3455 30.1145 68.826 30.1384C68.5943 30.1464 68.3546 30.1384 68.0829 30.1384C68.0829 30.9045 68.0909 31.6467 68.0829 32.3889C68.0829 32.6204 68.011 32.8518 67.979 33.0832C67.963 33.195 67.9231 33.3226 67.947 33.4264C68.0829 34.0489 67.9231 34.6315 67.7153 35.2141C67.6833 35.3098 67.6114 35.4056 67.6274 35.4934C67.6913 35.9882 67.4915 36.4191 67.3397 36.866C67.2119 37.2571 67.1799 37.6641 67.108 38.0631C66.9721 38.8133 66.8762 39.6433 66.0212 40.0343C65.8854 40.0982 65.8054 40.2578 65.6776 40.3536C65.4858 40.4892 65.286 40.6967 65.0863 40.7047C64.5429 40.7207 64.1833 41.0718 63.7677 41.3112C63.3682 41.5347 63.2004 41.8379 63.3682 42.245C63.528 42.636 63.4881 43.0111 63.4561 43.3862C63.4241 43.6894 63.488 43.8969 63.7438 44.0965C63.9276 44.2401 64.0794 44.4875 64.1513 44.7189C64.2312 44.9983 64.3751 45.1339 64.6228 45.2696C64.8385 45.3813 65.0143 45.5888 65.1821 45.7724C65.35 45.9559 65.5018 46.1634 65.6536 46.3629C65.9093 46.7061 66.237 47.0253 66.4048 47.4084C66.6845 48.0229 67.1639 48.3661 67.7473 48.5656C68.0749 48.6773 68.4425 48.7013 68.7861 48.6853C69.4094 48.6614 69.9688 48.821 70.4083 49.2439C70.616 49.4435 70.7838 49.4834 71.0316 49.3956C71.4871 49.236 71.9346 49.2838 72.3421 49.5233C72.7816 49.7786 73.2131 50.05 73.6207 50.3532C73.8124 50.4969 73.9962 50.5208 74.22 50.5208C74.5636 50.5208 74.9152 50.6006 75.2588 50.6405C75.4266 50.6565 75.6024 50.6485 75.7702 50.6804C76.0579 50.7283 76.3935 50.7124 76.6093 50.872C77.0009 51.1513 77.4084 51.1513 77.8399 51.1752C78.3274 51.1992 78.8228 51.2231 79.3023 51.3189C79.558 51.3668 79.8057 51.5344 80.0215 51.694C80.2452 51.8696 80.461 51.9893 80.7487 52.0451C81.2361 52.1329 81.7955 52.1249 82.0032 52.7394C82.0112 52.7714 82.0592 52.7953 82.0991 52.8033C82.6745 52.923 83.0501 53.338 83.4816 53.6732C83.5935 53.761 83.7772 53.753 83.9211 53.8009C84.1288 53.8647 84.3686 53.8807 84.5204 54.0084C84.7761 54.2158 84.9999 54.4154 85.3754 54.3994C85.5113 54.3994 85.7031 54.6069 85.791 54.7665C86.1346 55.397 86.2944 56.0753 86.3583 56.7856C86.3823 57.0968 86.4143 57.4161 86.5102 57.7113C86.6061 58.0226 86.686 58.3019 86.6061 58.6291C86.5741 58.7408 86.638 58.8845 86.678 59.0122C86.7179 59.1399 86.8378 59.2596 86.8458 59.3873C86.8937 59.9858 86.9737 60.6003 86.9257 61.1909C86.8698 61.8054 86.9417 62.3401 87.2134 62.8987C87.4771 63.4414 87.557 64.0479 87.549 64.6704C87.549 65.3488 87.4291 66.0431 87.6849 66.6975C87.9885 67.4796 87.8367 68.2777 87.8447 69.0757C87.8607 70.0573 87.9006 71.031 87.9006 72.0126C87.9006 72.8745 87.8447 73.7284 87.8127 74.5903C87.8127 74.6701 87.7967 74.7579 87.7488 74.8138C87.3492 75.3086 87.4291 75.9231 87.3412 76.4897C87.2533 77.0483 87.2134 77.607 87.3173 78.1896C87.4291 78.812 87.4132 79.4345 86.9497 79.9772C86.8218 80.1288 86.8458 80.4241 86.8138 80.6556C86.7978 80.8072 86.8378 80.9748 86.8138 81.1264C86.694 81.8846 86.5581 82.6347 86.4303 83.3929C86.4063 83.5445 86.4303 83.7042 86.4303 83.8638C86.4303 84.0234 86.4782 84.2149 86.4063 84.3266C86.1106 84.8214 86.1106 85.3641 86.0467 85.9068C86.0307 86.0185 85.9828 86.1462 85.9188 86.234C85.5672 86.7049 85.4634 87.2635 85.2796 87.8062C85.1757 88.1015 85.2156 88.3249 85.3275 88.5883C85.4154 88.7958 85.5033 89.0751 85.4314 89.2666C85.1677 90.0168 85.1996 90.8069 85.0079 91.565C84.8161 92.3312 84.6483 93.0973 84.4565 93.8634C84.4245 93.9911 84.3766 94.1348 84.2887 94.2385C83.8172 94.8131 83.7533 95.4755 83.7693 96.1778C83.7693 96.3853 83.7453 96.6327 83.6334 96.8003C83.1939 97.5186 82.9542 98.2927 82.8503 99.1147C82.8503 99.1705 82.8343 99.2344 82.8023 99.2823C82.2989 100.04 82.2909 101.022 81.6596 101.724C81.6197 101.764 81.5877 101.828 81.5797 101.884C81.4039 102.786 80.8286 103.472 80.3411 104.198C80.0854 104.581 79.7498 104.909 79.4301 105.292C79.534 105.531 79.6539 105.85 79.8057 106.138C80.0534 106.624 80.1493 107.119 80.0854 107.678C80.0454 108.013 80.1174 108.396 80.2532 108.715C80.5089 109.338 80.5009 109.984 80.4929 110.631C80.4929 110.878 80.5569 111.133 80.5728 111.381C80.5888 111.676 80.6128 111.971 80.5728 112.259C80.5009 112.73 80.5169 113.145 80.8445 113.536C80.9884 113.703 81.0443 113.959 81.0843 114.19C81.2121 114.828 81.308 115.467 81.4279 116.105C81.5318 116.648 81.4359 117.135 80.9964 117.494C80.6128 117.805 80.1733 117.869 79.7178 117.662C79.2064 117.422 78.9746 116.999 78.9267 116.441C78.8787 115.858 78.7669 115.275 78.7029 114.693C78.671 114.406 78.631 114.086 78.7269 113.823C78.8787 113.408 78.8228 113.041 78.647 112.682C78.4552 112.283 78.3354 111.892 78.3274 111.445C78.3274 111.102 78.1276 110.766 78.0637 110.423C77.9917 110.04 77.9838 109.649 77.9438 109.266C77.8959 108.859 77.8639 108.452 77.792 108.045C77.7041 107.59 77.4484 107.151 77.8159 106.696C77.8719 106.632 77.8399 106.473 77.8159 106.369C77.752 106.058 77.6641 105.755 77.5842 105.411C76.7212 105.539 75.9381 105.204 75.2508 104.573C75.091 104.43 74.8912 104.342 74.6995 104.238C74.0282 103.871 73.341 103.536 72.6777 103.153C71.9825 102.746 71.2953 102.331 70.648 101.86C70.0087 101.389 69.4334 100.838 68.826 100.32C68.6023 100.12 68.6023 99.7132 68.1948 99.6813C68.003 99.6653 67.8192 99.5855 67.6274 99.5855C67.108 99.5855 66.7004 99.386 66.4447 98.9391C66.3169 98.7157 66.189 98.572 65.9093 98.556C65.4698 98.5241 65.1582 98.2528 64.8705 97.9415C64.3191 97.351 63.6878 96.8562 62.9926 96.4492C62.7928 96.3295 62.5451 96.2018 62.4572 96.0102C62.1216 95.3239 61.5223 94.9328 60.9229 94.5338C60.7631 94.4301 60.6432 94.2625 60.5394 94.0949C60.2437 93.648 59.8362 93.3447 59.3487 93.1691C58.4777 92.8659 57.8464 92.3392 57.5267 91.4373C56.5359 91.3256 56.0085 90.5834 55.489 89.8412C55.4251 89.7455 55.3532 89.6178 55.2653 89.5938C54.642 89.4103 54.3623 88.9314 54.2025 88.3329C54.0347 88.285 53.8669 88.2451 53.707 88.1892C53.3075 88.0536 52.9958 87.7982 52.892 87.3992C52.7801 86.9842 52.5883 86.6969 52.1648 86.5612C52.0289 86.5133 51.8691 86.3936 51.8052 86.2659C51.5974 85.803 51.1579 85.5955 50.7983 85.3003C50.5826 85.1247 50.4307 84.8534 50.2629 84.6219C50.0951 84.3905 49.9672 84.1032 49.7595 83.9196C49.4079 83.6084 49.1282 83.2812 48.9764 82.8343C48.9364 82.7066 48.7926 82.6028 48.6807 82.515C48.3051 82.2357 47.8896 82.0043 47.546 81.693C47.3542 81.5254 47.1864 81.4377 46.9387 81.4057C46.5151 81.3499 46.0996 81.2461 45.6761 81.1583C45.4843 81.1184 45.2845 81.0945 45.1007 81.0386C44.6532 80.903 44.2057 80.7593 43.7582 80.6077C43.5584 80.5359 43.3667 80.4241 43.1669 80.3443C42.7114 80.1608 42.2319 80.0331 41.8963 79.6261C41.8164 79.5303 41.6566 79.5064 41.5367 79.4425C41.1292 79.2031 40.7057 78.9956 40.434 78.5806C40.3221 78.405 40.1063 78.3093 39.9545 78.1576C39.6029 77.7985 39.0915 77.4793 38.9476 77.0404C38.7798 76.5136 38.4921 76.0667 38.3243 75.556C38.2204 75.2447 38.1246 74.9255 38.0367 74.6063C37.9408 74.2711 37.9488 73.9439 38.1725 73.6486C38.3004 73.481 38.5401 73.2975 38.5241 73.1458C38.4842 72.8266 38.3563 72.4914 38.1805 72.2281C37.6851 71.4938 37.757 70.8235 38.3723 70.201C38.652 69.9217 38.8358 69.5546 39.0595 69.2273C39.0995 69.2832 39.1394 69.3391 39.1794 69.4029C39.1314 68.964 38.9956 68.5091 39.0515 68.0781C39.0995 67.6711 39.3392 67.2881 39.523 66.8172C39.507 66.7933 39.4431 66.6736 39.3552 66.5698C38.9876 66.1389 38.612 65.7079 38.2444 65.277C38.1805 65.2051 38.1166 65.1253 38.0766 65.0296C37.8529 64.431 37.5892 63.8724 36.8859 63.7128C36.6622 63.3297 36.4145 62.9546 36.2147 62.5556C36.0069 62.1406 35.7752 61.7096 35.6713 61.2627C35.4795 60.4248 35.4076 59.8023 36.2866 59.3474C37.0458 58.9483 37.773 58.9962 38.5401 59.2037C39.2273 59.3873 39.7547 59.8262 40.2901 60.2651C40.5778 60.4966 40.9134 60.6721 41.2331 60.8717C41.5687 61.0792 41.8404 61.3425 42.0801 61.6697C42.3198 61.9889 42.6555 62.2842 43.0151 62.4438C43.3187 62.5715 43.5505 62.7551 43.7902 62.9546C44.0459 63.1701 44.3016 63.3856 44.5413 63.625C44.6772 63.7606 44.7651 63.9362 44.869 64.0958C45.0767 64.3991 45.2126 64.7742 45.6921 64.8061C45.8119 64.1038 45.8519 63.4095 45.74 62.7072C45.6441 62.0927 45.8599 61.5899 46.3473 61.1989C46.7469 60.8796 46.7628 60.7919 46.4752 60.4008C46.4672 60.3848 46.4432 60.3769 46.4352 60.3609C46.1875 59.7703 45.9158 59.1957 45.7 58.5892C45.5722 58.2221 45.5322 57.8231 45.4523 57.44C45.4523 57.424 45.4523 57.3921 45.4363 57.3841C45.0128 56.9133 44.9249 56.2988 44.7651 55.7242C44.5653 55.0139 44.2457 54.3276 44.2617 53.5614C44.2617 53.4657 44.2297 53.3699 44.1977 53.2821C44.0299 52.8113 43.8541 52.3484 43.6543 51.7977C43.6304 51.7977 43.4785 51.7099 43.3667 51.7419C42.8153 51.9095 42.2 51.8696 41.7045 52.2686C41.4728 52.4601 41.1452 52.5399 40.8575 52.6676C40.5378 52.8113 40.2262 53.0347 39.8906 53.0746C39.3871 53.1385 38.9876 53.4178 38.5241 53.5614C38.0207 53.7211 37.5332 53.9285 37.0378 54.1121C36.9099 54.16 36.7741 54.2318 36.6462 54.2318C35.8391 54.2557 35.3357 54.6787 34.9202 55.3491C34.5765 55.9157 34.1131 56.4105 33.6895 56.9213C33.4738 57.1766 33.2261 57.3921 33.2261 57.7752C33.2261 57.9428 33.1541 58.1423 33.0423 58.262C32.6028 58.7408 32.4749 59.3713 32.2192 59.9379C32.0514 60.313 31.8356 60.6642 31.5959 60.9994C31.4281 61.2308 31.2842 61.4383 31.2683 61.7336C31.2523 62.0927 31.0605 62.3561 30.7968 62.5875C30.6609 62.7152 30.5331 62.8748 30.4692 63.0424C30.1815 63.7686 29.9258 64.5028 29.6301 65.2291C29.5102 65.5323 29.3185 65.8117 29.1666 66.1069C29.1506 66.1389 29.1267 66.1788 29.1267 66.2187C29.1107 66.8412 29.1267 67.4716 29.0867 68.0941C29.0468 68.6767 28.9748 69.2593 28.8789 69.8339C28.847 70.0094 28.6872 70.1691 28.5913 70.3367C28.4155 70.6399 28.1997 70.9272 28.0798 71.2544C28.0239 71.3981 28.1198 71.6375 28.2077 71.7971C28.4394 72.2281 28.5593 72.6829 28.5273 73.1538C28.5114 73.4092 28.5673 73.5927 28.7431 73.7843C29.0787 74.1514 29.1586 74.6143 28.9269 75.0452C28.7111 75.4283 28.8869 75.7156 29.0308 76.0348C29.3025 76.6413 29.6061 77.2399 29.8299 77.8624C30.0776 78.5407 29.758 79.1472 29.1347 79.3228C28.5353 79.4984 27.952 79.1791 27.7842 78.5088C27.6244 77.8703 27.4406 77.2239 27.5205 76.5376C27.5684 76.1465 27.5125 75.7475 27.089 75.4682C26.7054 75.2128 26.5616 74.7739 26.6894 74.311C26.7613 74.0317 26.6894 73.8401 26.5695 73.6007C26.3858 73.2176 26.2979 72.7867 26.162 72.3717L26.154 72.3877Z" fill="black"/>
<path d="M56.241 111.263C55.9933 111.912 55.8654 112.474 55.5778 112.941C55.2901 113.401 55.338 113.86 55.2581 114.343C55.1542 115 54.8346 115.634 54.5949 116.267C54.467 116.616 54.3072 116.948 54.1553 117.281C54.0275 117.558 53.8916 117.835 53.7478 118.113C53.6439 118.318 53.5241 118.524 53.4122 118.73C53.1085 119.293 52.6051 119.522 52.0937 119.308C51.5902 119.095 51.3665 118.556 51.6062 117.978C51.8539 117.368 51.9658 116.719 52.2775 116.117C52.5252 115.642 52.5651 115.072 52.717 114.549C52.8608 114.042 52.9967 113.527 53.4681 113.187C53.54 113.132 53.564 112.989 53.588 112.886C53.6599 112.569 53.7238 112.245 53.7958 111.928C53.8197 111.817 53.8916 111.698 53.8837 111.595C53.8277 110.93 54.2752 110.423 54.459 109.837C54.475 109.782 54.5149 109.726 54.5549 109.695C55.0024 109.354 55.1143 108.824 55.338 108.356C55.6017 107.81 56.0093 107.62 56.5207 107.937C57.0881 108.301 57.7273 108.634 57.8152 109.433C57.8312 109.568 57.991 109.679 58.0709 109.813C58.3426 110.289 58.6303 110.748 58.8461 111.239C58.942 111.453 58.918 111.738 58.91 111.983C58.902 112.213 58.918 112.411 59.1098 112.561C59.7331 113.068 59.9648 113.82 60.2365 114.517C60.4922 115.167 60.66 115.856 60.8678 116.529C60.8758 116.568 60.8998 116.608 60.8998 116.64C60.8598 117.059 61.0037 117.4 61.2674 117.748C61.547 118.12 61.4911 118.564 61.2034 118.952C60.9157 119.34 60.5162 119.467 60.0527 119.364C59.5813 119.261 59.2616 118.944 59.2217 118.485C59.1817 118.073 58.9819 117.788 58.7901 117.455C58.3746 116.727 58.063 115.951 57.7433 115.167C57.4956 114.557 57.2878 113.923 57.3438 113.234C57.3598 113.092 57.2559 112.878 57.136 112.791C56.7125 112.482 56.4568 112.094 56.4168 111.571C56.4168 111.508 56.3449 111.445 56.233 111.263H56.241Z" fill="black"/>
<path d="M41.1206 56.1939C41.3444 56.5265 41.5202 56.8037 41.704 57.0729C42.0316 57.556 42.2713 58.0786 42.6869 58.5142C43.0545 58.9101 43.3182 59.4011 43.5659 59.8842C43.8536 60.4385 43.5579 61.27 43.0625 61.4521C42.583 61.6264 41.8638 61.4363 41.5761 61.0166C41.2964 60.6127 41.0088 60.2088 40.817 59.7654C40.5852 59.219 40.2017 58.823 39.7781 58.4429C38.9711 57.7223 38.9471 56.6928 39.7062 55.8851C39.8181 55.7663 39.89 55.5921 39.954 55.4337C40.1138 55.0615 40.2496 54.6814 40.4094 54.3013C40.4574 54.1983 40.5293 54.0954 40.6092 54.0162C40.8809 53.739 41.2885 53.6123 41.5122 53.7311C41.7919 53.8736 42.0316 54.4121 41.9517 54.7526C41.8159 55.307 41.5761 55.8217 41.1126 56.1781L41.1206 56.1939Z" fill="black"/>
<path d="M55.4017 100.049C55.8572 100.041 56.3606 100.437 56.5204 100.944C56.5764 101.11 56.6083 101.284 56.6563 101.451C56.8241 102.021 56.7202 102.417 56.1848 102.686C55.7773 102.892 55.3058 103.011 54.8503 103.058C54.3788 103.114 54.0512 102.789 53.9473 102.322C53.9074 102.132 53.8594 101.942 53.8354 101.752C53.8195 101.617 53.8115 101.474 53.8354 101.348C53.9154 100.92 54.9702 100.065 55.3937 100.057L55.4017 100.049Z" fill="black"/>
<path d="M69.0824 51.3552C69.4021 51.3552 69.7297 51.3315 70.0573 51.3632C70.1932 51.379 70.361 51.474 70.4409 51.577C70.8724 52.163 71.4717 52.3055 72.167 52.2738C72.5585 52.258 72.9501 52.258 73.3416 52.2738C73.4855 52.2818 73.6213 52.3926 73.7572 52.456C74.0688 52.6064 74.3885 52.749 74.7001 52.9074C74.9239 53.0182 75.1636 53.1212 75.3474 53.2796C75.8189 53.6755 76.2823 53.921 76.9616 53.7468C77.2652 53.6676 77.6648 53.8972 78.0164 54.0081C78.1762 54.0635 78.32 54.2061 78.4799 54.2378C78.8554 54.309 79.1671 54.4674 79.4947 54.6733C79.8144 54.8713 80.2139 54.9663 80.5895 55.0613C81.037 55.1801 81.4046 55.4098 81.7881 55.6473C82.4914 56.0829 83.1546 56.6689 84.0816 56.6055C84.3213 56.5897 84.4412 56.7164 84.4571 56.954C84.5051 57.5717 84.5131 58.2052 84.6409 58.807C84.7608 59.3376 84.7848 59.8603 84.8487 60.3829C84.9286 61.0481 85.2083 61.6896 85.3521 62.3468C85.4241 62.6794 85.432 63.0437 85.3521 63.3763C85.2163 64.0415 85.2562 64.683 85.3841 65.3402C85.504 65.9658 85.5999 66.5994 85.6957 67.225C85.7117 67.3358 85.7037 67.4625 85.6638 67.5655C85.472 68.0248 85.5359 68.4287 85.7996 68.8484C85.9115 69.0226 85.9355 69.2918 85.9195 69.5056C85.8955 69.8145 85.7837 70.1154 85.7357 70.4163C85.7037 70.5826 85.6718 70.7885 85.7357 70.9311C85.8875 71.2874 85.8556 71.6279 85.8076 72.0081C85.7357 72.5624 85.7837 73.1246 85.7677 73.6869C85.7677 73.8769 85.7277 74.067 85.7277 74.265C85.7277 74.6134 85.7757 74.9619 85.7597 75.3024C85.7357 75.7617 85.6798 76.221 85.6238 76.6724C85.5519 77.2584 85.3681 77.8048 85.1044 78.3354C84.8567 78.8343 84.7448 79.3569 84.9526 79.9192C85.0245 80.1171 84.9286 80.3705 84.8887 80.6002C84.8247 80.9407 84.7368 81.2812 84.6569 81.6218C84.4811 82.3582 84.2973 83.0947 84.1135 83.8312C84.1055 83.8708 84.0656 83.9024 84.0736 83.942C84.1854 84.8131 83.674 85.6209 83.8738 86.5236C83.9777 87.0146 83.8498 87.5689 83.7859 88.0837C83.7699 88.2104 83.6101 88.3371 83.5062 88.44C83.2185 88.7093 83.0827 89.034 83.0827 89.4299C83.0827 89.6358 83.0028 89.8417 82.9468 90.0397C82.835 90.4515 82.7071 90.8633 82.6032 91.2751C82.4194 91.9957 82.2516 92.7163 82.0838 93.4369C82.0518 93.5874 82.0199 93.7537 82.0518 93.9042C82.1637 94.5694 81.916 95.1237 81.5484 95.6543C81.4206 95.8443 81.3007 96.074 81.2847 96.2957C81.2368 97.0718 80.9411 97.7449 80.5895 98.4339C80.2379 99.1228 80.0221 99.8751 79.7424 100.604C79.6226 100.913 79.5507 101.245 79.3749 101.514C78.9833 102.1 78.9354 102.805 78.6317 103.415C78.5837 103.518 78.5278 103.613 78.4479 103.755C77.8805 103.114 77.1534 102.916 76.3862 102.766C76.1305 102.718 75.8588 102.56 75.675 102.378C75.1316 101.847 74.4604 101.522 73.8131 101.158C73.2697 100.849 72.7183 100.548 72.167 100.255C71.9112 100.121 71.6316 100.018 71.3679 99.8989C71.28 99.8593 71.1761 99.8355 71.1121 99.7642C70.6646 99.3129 70.0573 99.1782 69.49 98.9882C69.1064 98.8615 68.9146 98.5922 68.8187 98.2517C68.6669 97.7053 68.3393 97.3648 67.7719 97.2698C67.5481 97.2302 67.4682 97.0876 67.3484 96.9134C67.1646 96.6441 66.9568 96.3274 66.6771 96.2086C66.0618 95.9473 65.6063 95.4801 65.0629 95.1395C64.8871 95.0287 64.7593 94.8386 64.5995 94.6961C64.4237 94.5456 64.2559 94.316 64.0561 94.2684C63.3209 94.0942 62.8414 93.6032 62.362 93.0885C62.2501 92.9618 62.0823 92.8747 61.9225 92.8113C61.419 92.6134 61.0435 92.2491 60.8037 91.8056C60.3562 90.982 59.7249 90.4436 58.774 90.2456C58.5742 89.3349 57.7751 88.9627 57.0879 88.4955C56.976 88.4242 56.8082 88.3688 56.7683 88.2658C56.5365 87.6561 56.0331 87.4264 55.4338 87.2918C55.3938 87.1651 55.3539 87.0384 55.3139 86.9117C55.1541 86.4524 54.8504 86.1198 54.371 86.0327C53.9794 85.9535 53.7397 85.7713 53.5958 85.407C53.5399 85.2724 53.428 85.114 53.3002 85.0586C52.8926 84.8765 52.6689 84.536 52.4771 84.1796C52.2853 83.8391 52.0216 83.6174 51.646 83.4748C51.4702 83.4035 51.3024 83.2293 51.1905 83.0709C50.8949 82.6433 50.6951 82.1602 50.0798 82.0335C49.88 81.9939 49.7442 81.6455 49.5684 81.4238C49.7601 81.1149 49.9359 80.8615 50.0878 80.5844C50.1997 80.3785 50.3115 80.1726 50.3755 79.9508C50.4314 79.7291 50.5353 79.5786 50.7271 79.444C50.9348 79.3015 51.1106 79.1114 51.2545 78.9055C51.5741 78.4383 51.8538 77.9394 52.1814 77.4801C52.4212 77.1475 52.7328 76.8703 52.9805 76.5457C53.428 75.9597 53.8515 75.3499 54.2911 74.756C54.347 74.6768 54.4349 74.5421 54.4828 74.558C54.9303 74.6451 55.0422 74.2729 55.242 73.9957C55.3539 74.067 55.4737 74.1145 55.5377 74.1937C55.9212 74.7005 56.5445 74.851 57.0559 75.1757C57.1758 75.2549 57.3596 75.2549 57.5114 75.2628C57.7991 75.2786 57.9669 75.4053 57.927 75.6983C57.887 76.0151 58.0628 76.1814 58.2706 76.3873C58.6941 76.8228 59.0617 77.3138 59.4533 77.781L59.6131 77.6543C59.717 77.6147 59.8208 77.5831 59.9007 77.5514C60.1804 77.8127 60.4521 78.0661 60.7238 78.3195C60.7957 78.3829 60.8597 78.4858 60.9476 78.5096C61.5149 78.6838 61.7627 79.2065 62.1542 79.5707C62.6017 79.9825 63.0732 80.3547 63.5367 80.7427C63.5686 80.7665 63.6006 80.7982 63.6405 80.7982C64.3597 80.8378 64.6874 81.3842 65.0629 81.8752C65.6383 82.6116 66.4534 82.9205 67.3644 83.1739C67.4523 83.9183 67.9637 84.3538 68.6189 84.6547C68.8507 84.7577 69.0984 84.829 69.3461 84.8686C69.8016 84.9477 70.0254 85.1378 70.1293 85.5971C70.2571 86.1356 70.4968 86.3415 71.0562 86.4207C71.1921 86.4365 71.3279 86.4603 71.4558 86.5078C71.9272 86.7058 72.3907 86.9196 72.8542 87.1255C73.1179 87.2443 73.3017 87.3947 73.3656 87.7115C73.5015 88.3608 73.7412 88.5034 74.4124 88.4084C74.4923 88.4004 74.5723 88.3925 74.6442 88.3767C75.3074 88.2658 75.6111 87.9728 75.675 87.363C75.7469 86.7216 75.4752 86.1752 74.8839 86.0247C74.2286 85.8584 73.8051 85.415 73.3496 84.9953C73.1499 84.8131 72.9501 84.6072 72.7183 84.4726C72.4387 84.3142 72.3747 84.0846 72.4387 83.8312C72.5186 83.5144 72.6384 83.1976 72.7982 82.9126C72.998 82.5641 73.1179 82.2078 73.1019 81.8039C73.0859 81.4396 73.1019 81.0674 73.1259 80.7032C73.1419 80.5606 73.2617 80.4339 73.3177 80.2914C73.4215 80.0063 73.5254 79.7133 73.6133 79.4203C73.6613 79.254 73.6693 79.0797 73.7172 78.9134C73.909 78.2403 74.0688 77.5593 74.0528 76.8545C74.0528 76.7436 74.0688 76.609 74.1248 76.5219C74.4044 76.1101 74.4284 75.6429 74.4684 75.1757C74.5323 74.36 74.5882 73.5443 74.6442 72.7287C74.6761 72.2456 74.3885 71.8497 73.949 71.7784C73.5095 71.7071 73.0939 72.0397 72.99 72.5386C72.8302 73.283 72.6544 74.0195 72.4786 74.756C72.3587 75.2311 72.1989 75.6983 72.3188 76.1972C72.3348 76.2685 72.3348 76.3556 72.3028 76.4269C71.9672 77.1158 71.8713 77.8681 71.6955 78.6046C71.5756 79.1114 71.4238 79.5866 71.4717 80.1409C71.4957 80.4577 71.232 80.8299 71.0402 81.1387C70.7605 81.598 70.6726 82.0731 70.7366 82.5958C70.7525 82.7383 70.6886 82.8888 70.6487 83.1343C69.9534 82.4533 69.3781 81.7089 68.3712 81.891C68.1395 81.5822 67.9317 81.3288 67.7399 81.0595C67.2765 80.3943 66.5732 80.0934 65.8541 79.8162C65.6783 79.7449 65.4785 79.7291 65.3986 79.4995C65.1588 78.8343 64.5515 78.5017 64.0721 78.0503C63.9762 77.9552 63.8483 77.884 63.7284 77.8285C63.1291 77.5831 62.8015 77.0366 62.354 76.6169C61.8665 76.1655 61.3311 75.7696 60.8197 75.342C60.6679 75.2073 60.54 75.041 60.3962 74.8747C60.6199 74.6213 60.7957 74.4154 60.9795 74.2095C61.3152 73.8136 61.5549 73.386 61.5629 72.8396C61.5709 72.4594 61.6987 72.0793 61.7706 71.6992C61.7706 71.6834 61.7706 71.6517 61.7866 71.6438C62.4818 71.0894 62.2421 70.1312 62.7296 69.4819C62.8255 69.3552 62.8095 69.1414 62.8574 68.9751C62.9293 68.6821 62.9293 68.3653 63.217 68.1357C63.3369 68.0406 63.3369 67.8189 63.4088 67.6526C63.6885 66.9874 63.9921 66.338 64.2479 65.6728C64.4556 65.1502 64.6154 64.6038 64.7913 64.0732C64.8152 64.0019 64.7833 63.899 64.8232 63.8435C65.1908 63.3209 65.2867 62.7032 65.4865 62.1172C65.6223 61.7133 65.8221 61.3253 65.942 60.9135C66.0219 60.6442 66.0378 60.3433 66.0378 60.0582C66.0378 59.6623 66.0778 59.3139 66.3815 58.9892C66.757 58.5932 67.1166 58.1577 67.0527 57.5479C67.0447 57.4608 67.0847 57.3499 67.1406 57.2707C67.3963 56.8906 67.6121 56.5026 67.5641 56.0195C67.5641 55.9562 67.6041 55.8691 67.66 55.8136C67.9477 55.489 68.0436 55.1326 68.0676 54.6891C68.0835 54.3882 68.3473 54.1031 68.4751 53.8022C68.595 53.5171 68.7148 53.232 68.7947 52.939C68.9386 52.4243 69.0505 51.8937 69.1783 51.3552H69.0824Z" fill="#A5C3CF"/>
<path d="M65.3261 14.0483C65.462 14.4838 65.6058 14.8481 65.6777 15.2203C65.7177 15.4341 65.6138 15.6717 65.5898 15.9013C65.5658 16.1468 65.4699 16.4477 65.5658 16.6378C65.7736 17.0496 65.7896 17.4851 65.7496 17.889C65.6857 18.4592 65.9654 18.9502 65.9574 19.4966C65.9574 19.7262 66.0053 19.9559 66.0453 20.1855C66.0613 20.3201 66.0533 20.4785 66.1252 20.5815C66.4289 21.0012 66.4129 21.5001 66.5248 21.9752C66.6926 22.6563 66.8204 23.3452 67.212 23.955C67.5156 24.4222 67.9152 24.6756 68.4905 24.636C68.6663 24.6202 68.8422 24.6598 69.018 24.6598C69.2097 24.6598 69.4095 24.6756 69.5933 24.636C70.0408 24.5252 70.2406 24.5885 70.4164 25.0161C70.6162 25.515 70.776 26.0298 70.9598 26.5445C70.4563 27.1463 69.9849 27.7165 69.4974 28.2709C69.4095 28.3659 69.2657 28.4213 69.1538 28.4926C68.7143 28.7856 68.2748 29.0865 67.8353 29.3874C67.8193 29.3954 67.7953 29.4112 67.7873 29.427C67.6435 29.6963 67.5636 30.0368 67.3398 30.2031C67.0841 30.4011 66.9243 30.607 66.8444 30.892C66.5967 31.7869 66.1732 32.6342 66.1012 33.5924C66.0693 34.0201 65.7496 34.416 65.6697 34.8436C65.5019 35.7781 65.1343 36.665 65.0704 37.6232C65.0464 38.035 64.8147 38.431 64.6788 38.8269C64.6708 38.8586 64.6389 38.9061 64.6069 38.9219C64.2074 39.1199 63.8158 39.3258 63.4083 39.5C63.2165 39.5792 62.9847 39.5951 62.777 39.6426C62.5213 39.698 62.3614 39.8168 62.3215 40.1019C62.2975 40.2603 62.1537 40.3949 62.0818 40.5533C61.9299 40.9096 61.7781 41.266 61.6662 41.6382C61.5543 42.0104 61.5304 42.4063 61.4025 42.7627C61.2507 43.1824 61.1468 43.5783 61.2827 44.0139C61.3226 44.1564 61.2827 44.3148 61.2827 44.3544C60.9071 44.6553 60.6194 44.9008 60.3157 45.1305C60.2278 45.1938 60.108 45.2413 60.0041 45.2572C59.5646 45.2968 59.2529 45.5264 58.9493 45.8353C58.4618 46.3342 57.9344 46.8093 57.391 47.2528C56.8317 47.7041 56.544 47.6645 55.9686 47.2607C55.4732 46.9202 54.9458 46.6192 54.3305 46.5005C54.2186 46.4767 54.1067 46.4292 54.0028 46.3817C53.6113 46.2074 53.2117 46.0491 52.8282 45.8511C52.4126 45.6373 52.0051 45.4076 51.6215 45.1463C51.3178 44.9404 51.0541 44.6791 50.7585 44.4257C50.7185 43.7446 50.6946 43.024 50.6386 42.3113C50.5987 41.8045 50.0633 41.2739 49.5039 41.1868C48.9285 41.0997 48.4091 40.9413 47.9856 40.4978C47.7459 40.2444 47.4023 40.2365 47.0586 40.1969C46.3954 40.1177 45.7481 39.9752 45.0928 39.8405C45.0209 39.8247 44.957 39.7693 44.9011 39.7138C44.5974 39.4367 44.3017 39.1516 43.9981 38.8823C43.8462 38.7477 43.7903 38.621 43.8542 38.423C43.9821 38.0271 43.9102 37.6549 43.6545 37.3144C43.6225 37.2669 43.5746 37.2194 43.5666 37.1639C43.4946 36.665 43.3268 36.1503 43.3908 35.6672C43.4867 34.9466 43.199 34.3606 42.9033 33.7825C42.7275 33.4499 42.6556 33.2123 42.8873 32.8797C43.0072 32.7055 43.0551 32.4363 43.0471 32.2145C43.0232 31.7077 42.9433 31.2088 42.8793 30.702C42.8634 30.5515 42.8314 30.3931 42.8394 30.2348C42.8713 29.8467 42.7675 29.5062 42.5357 29.1895C42.4398 29.0628 42.4079 28.8806 42.3999 28.7143C42.3759 28.1758 42.4079 27.6215 42.3359 27.0909C42.296 26.8217 42.0882 26.5683 41.9204 26.3307C41.8085 26.1723 41.7446 26.0456 41.8325 25.8555C42.0243 25.4279 42.0003 24.9845 41.9124 24.5331C41.7686 23.7649 41.7047 22.9809 41.5209 22.2286C41.377 21.6347 41.3051 21.0487 41.2651 20.4469C41.2412 20.0509 41.3371 19.9242 41.7366 19.8688C41.8565 19.8529 41.9763 19.8608 42.0882 19.8688C42.4638 19.8846 42.7675 19.75 43.0551 19.5124C43.223 19.3778 43.4627 19.2986 43.6784 19.2511C44.2538 19.1323 44.8451 19.0848 45.2687 18.578C45.3566 18.475 45.5483 18.4433 45.6922 18.4275C46.3874 18.3483 47.0586 18.2533 47.5381 17.6514C47.602 17.5643 47.7938 17.5802 47.9137 17.5247C48.1694 17.4218 48.505 17.3822 48.6409 17.1921C48.9365 16.7803 49.3601 16.6457 49.7836 16.5349C50.3509 16.3844 50.7665 16.131 51.0462 15.5846C51.2699 15.1332 51.8053 15.0619 52.2688 14.8798C52.2208 15.6083 52.109 16.2656 51.4777 16.7328C51.166 16.9625 51.0222 17.3347 51.0701 17.7227C51.1021 17.984 51.0142 18.1662 50.8464 18.3483C50.7265 18.475 50.6466 18.6413 50.5587 18.7918C50.4069 19.0452 50.3749 19.3065 50.5747 19.552C50.7745 19.7975 51.0222 19.9321 51.3498 19.8767C51.7893 19.8054 52.2368 19.7341 52.6763 19.6708C52.7482 19.6629 52.8361 19.6629 52.9081 19.6787C53.5633 19.8529 54.1467 19.5995 54.746 19.4095C54.9058 19.3619 55.0816 19.2907 55.2494 19.2907C55.8967 19.2907 56.488 19.164 57.0075 18.7363C57.1353 18.6334 57.375 18.6096 57.5508 18.6255C57.9184 18.6572 58.2461 18.6017 58.5737 18.4354C59.0052 18.2216 59.5326 18.1899 59.8203 17.7148C59.8523 17.6594 59.9961 17.6356 60.092 17.6435C60.6673 17.691 61.0749 17.3743 61.4105 16.9862C61.6982 16.6536 62.0178 16.4636 62.4413 16.3686C63.0167 16.2418 63.5121 15.9805 63.68 15.3391C63.7119 15.2203 63.8717 15.0698 63.9916 15.0382C64.503 14.9115 64.8946 14.658 65.0944 14.1591C65.1183 14.1037 65.2142 14.072 65.2941 14.0166L65.3261 14.0483Z" fill="white"/>
<path d="M53.3548 17.7861C53.3228 17.1922 53.4507 16.7171 53.8263 16.2974C54.0101 16.0915 54.098 15.7985 54.2019 15.5292C54.2818 15.3154 54.2898 15.062 54.4016 14.8719C54.929 13.9137 54.985 12.9159 54.7373 11.8785C54.7053 11.7518 54.7373 11.6093 54.7373 11.4747C54.7772 10.6986 54.3777 10.3581 53.6824 10.6986C52.9712 11.047 52.2281 11.4351 52.0683 12.3458C52.0523 12.417 52.0203 12.4962 51.9804 12.6229C51.2931 12.6784 50.8217 13.0822 50.494 13.6841C50.3422 13.9612 50.0865 14.1434 49.7269 14.1671C49.3673 14.183 49.1116 14.3889 48.8798 14.6502C48.728 14.8244 48.5762 15.0145 48.3924 15.157C48.2326 15.2837 48.0248 15.355 47.841 15.45C47.6013 15.5688 47.3296 15.6559 47.1298 15.8222C46.93 15.9964 46.7542 16.1311 46.4745 16.1469C45.9551 16.1707 45.5636 16.4874 45.172 16.7883C44.9483 16.9626 44.7405 17.0338 44.4368 17.0497C44.0213 17.0734 43.5898 17.2318 43.2222 17.4298C42.4151 17.8812 41.5601 17.992 40.6651 17.9445C40.4333 17.9287 40.1936 17.8812 39.9619 17.897C39.7541 17.9128 39.5463 18.0079 39.3226 18.0791C39.0029 17.7782 38.8431 17.4615 39.0429 17.0022C39.1468 16.7487 39.1388 16.4399 39.1388 16.1548C39.1388 15.7668 39.1068 15.3788 39.0669 14.9986C39.0269 14.6106 38.947 14.2305 38.923 13.8504C38.8991 13.4069 38.923 12.9635 38.8991 12.52C38.8591 11.8865 38.971 11.2292 38.5315 10.6669C38.4436 10.5481 38.4755 10.3343 38.4675 10.1601C38.4516 9.95422 38.4516 9.74041 38.4516 9.53451C38.4516 9.40781 38.4436 9.24943 38.4995 9.14648C38.6913 8.8218 38.7233 8.49712 38.6114 8.13285C38.5235 7.83984 38.6274 7.76065 38.931 7.77649C39.2187 7.79233 39.5064 7.76857 39.7941 7.74481C40.0498 7.72897 40.2975 7.68146 40.5532 7.64978C40.6731 7.63395 40.7929 7.64978 40.9048 7.60227C41.4562 7.4043 41.9836 7.13505 42.551 6.99251C43.43 6.76285 44.253 6.41442 45.0761 6.05014C45.4597 5.88384 45.9232 5.9076 46.3387 5.80465C46.8102 5.69378 47.2337 5.40078 47.7451 5.43246C48.2486 5.02859 48.8798 5.06818 49.4632 4.93356C50.2064 4.76726 50.9335 4.54553 51.6687 4.35547C51.7406 4.33963 51.8285 4.31587 51.9004 4.33171C52.4199 4.43466 52.8754 4.30004 53.2509 3.912C53.8822 4.18125 54.4895 4.20501 55.0489 3.77738C55.1048 3.73779 55.2007 3.72987 55.2727 3.72195C56.2795 3.68235 57.2225 3.36559 58.1894 3.12802C58.8526 2.96172 59.4919 2.60536 60.2431 2.73207C60.5387 2.77958 60.8744 2.55785 61.194 2.47074C61.4098 2.40739 61.6415 2.38363 61.8573 2.32028C62.1529 2.23317 62.4566 2.13814 62.7283 2.00352C62.936 1.90057 63.0959 1.85306 63.3356 1.90849C63.5673 1.96392 63.839 1.956 64.0788 1.90849C64.5343 1.81346 65.0217 1.83722 65.4372 1.56797C65.5012 1.52046 65.7729 1.663 65.8528 1.78179C66.4441 2.64496 66.8117 3.60316 66.9555 4.64055C66.9795 4.81477 67.0434 4.98107 67.1153 5.13945C67.3551 5.67795 67.5948 6.20852 67.6428 6.81037C67.6587 6.96083 67.7227 7.11129 67.7946 7.25383C68.0743 7.78441 68.5058 8.28331 68.6336 8.85348C68.8734 9.93838 69.8403 10.3185 70.4796 11.0075C70.6394 11.1738 70.7672 11.3638 70.9191 11.538C71.0949 11.7439 71.2547 11.9657 71.4545 12.1399C71.6702 12.3141 71.7262 12.5041 71.6622 12.7576C71.5743 13.1377 71.5024 13.5257 71.4065 13.8979C71.3186 14.2147 71.3346 14.5235 71.4705 14.8086C71.6463 15.1729 71.5823 15.4975 71.3346 15.7905C70.975 16.2103 70.7672 16.6696 70.8392 17.2397C70.8631 17.406 70.7912 17.5882 70.7353 17.7465C70.6074 18.1267 70.6554 18.4989 70.6714 18.8948C70.6873 19.2432 70.3837 19.5996 70.2958 19.9639C70.2478 20.1777 70.3437 20.4232 70.3837 20.6528C70.4236 20.8666 70.4556 21.0725 70.2718 21.2547C69.8483 21.6744 69.7923 22.1654 70.0001 22.7118C70.056 22.8543 70.064 23.0127 70.104 23.1869C69.7604 23.3136 69.4807 23.2582 69.2809 22.9573C68.9373 22.4584 68.5937 21.9595 68.282 21.4368C68.0503 21.0567 67.8745 20.6528 67.8905 20.1777C67.8905 19.9005 67.7147 19.6313 67.6507 19.3462C67.4909 18.6493 67.2832 17.9524 67.2272 17.2476C67.1793 16.5983 67.1633 15.9648 66.9236 15.3312C66.8037 15.0224 67.0514 14.5869 67.0754 14.2067C67.1074 13.7237 67.1473 13.2248 67.0594 12.7576C66.9955 12.4012 67.0434 12.1082 67.2032 11.8152C67.3791 11.4905 67.3391 11.1738 67.2032 10.857C67.0274 10.4531 66.7717 10.3739 66.4121 10.6273C66.2843 10.7144 66.1644 10.8174 66.0605 10.9362C65.5731 11.4905 65.1096 12.0686 64.6142 12.615C64.4064 12.8447 64.1667 13.0664 63.895 13.201C63.5993 13.3515 63.3596 13.5178 63.1997 13.8029C63.0959 13.9771 62.992 14.1434 62.7523 14.1117C62.1529 14.0404 61.7214 14.3414 61.3938 14.7848C61.1541 15.1095 60.8664 15.2758 60.4668 15.3312C59.9714 15.3946 59.4999 15.5292 59.1963 15.9806C59.1563 16.036 59.0604 16.0994 59.0045 16.0915C58.4531 16.0123 58.0455 16.4161 57.5421 16.4953C57.4862 16.5033 57.4143 16.5191 57.3823 16.5587C56.8868 17.1685 56.1437 17.1051 55.4724 17.2556C55.3366 17.2872 55.1768 17.2952 55.0809 17.3744C54.5695 17.802 53.9302 17.6198 53.3229 17.8099L53.3548 17.7861Z" fill="#9E9898"/>
<path d="M1.64594 44.5367C1.6859 44.1012 1.70987 43.7369 1.74983 43.3805C1.76581 43.2301 1.80576 43.0796 1.83773 42.9291C1.88567 42.6995 1.93362 42.4698 1.99755 42.2481C2.05349 42.066 2.10143 41.868 2.20532 41.7175C2.485 41.3057 2.58089 40.8623 2.53295 40.3792C2.50897 40.1258 2.53295 39.9357 2.74071 39.7536C2.86857 39.6427 2.94049 39.4685 3.01241 39.3101C3.18821 38.9221 3.2841 38.8746 3.67566 38.9855C3.71562 38.9934 3.74758 39.0251 3.78754 39.0251C4.17111 39.0013 4.56267 38.9063 4.93824 38.9538C5.31382 39.0013 5.65744 39.0884 6.01703 38.8746C6.16087 38.7875 6.4006 38.8033 6.58439 38.8271C7.21568 38.9142 7.83099 38.9696 8.46228 38.8429C8.70201 38.7954 8.97371 38.9221 9.22143 38.8904C9.98058 38.7875 10.7397 38.7796 11.5069 38.7875C11.6747 38.7875 11.8425 38.6845 12.0183 38.6529C12.4098 38.5816 12.7694 38.4074 13.2089 38.5737C13.4806 38.6766 13.8322 38.5895 14.1439 38.5657C14.3836 38.5499 14.5434 38.6133 14.6953 38.8033C15.1108 39.3181 15.6222 39.6348 16.3414 39.421C16.7889 39.2943 17.2444 39.1993 17.6919 39.0884C18.523 39.7457 18.7707 39.7774 20.2011 39.3972C20.3689 39.6269 20.5287 39.8645 20.7125 40.0862C20.8963 40.3079 21.0961 40.5059 21.3438 40.7672C21.0961 40.8068 20.9283 40.8623 20.7525 40.8623C20.249 40.8702 19.7456 40.8623 19.2342 40.8623C19.1782 40.8623 19.1063 40.886 19.0584 40.8623C18.475 40.6089 17.8997 40.791 17.3163 40.8781C17.0287 40.9256 16.725 40.9098 16.4293 40.9256C15.5743 40.9573 14.7193 41.0365 13.8642 41.0048C13.3128 40.989 12.7774 40.989 12.234 41.1236C11.9144 41.2028 11.5868 41.2582 11.2591 41.3216C11.2032 41.3295 11.1233 41.3612 11.0913 41.3374C10.6678 41.0048 10.2283 41.2741 9.78879 41.282C8.93375 41.2978 8.07871 41.2582 7.21568 41.2661C6.74421 41.2661 6.27274 41.2978 5.83324 41.5195C5.68141 41.5987 5.48962 41.5987 5.31382 41.6067C4.65856 41.6542 4.3549 42.0818 4.37088 42.7312C4.37887 43.1825 4.28298 43.6418 4.16311 44.0774C3.96334 44.7505 4.28298 45.289 4.57865 45.8354C4.64258 45.9463 4.83436 46.0176 4.9782 46.0413C5.45766 46.1126 5.9531 46.2076 6.43256 46.1997C7.11979 46.1839 7.79104 46.2551 8.46228 46.366C8.91777 46.4452 9.39723 46.3739 9.8687 46.366C9.92464 46.366 9.99656 46.366 10.0365 46.3343C10.476 45.9938 10.9155 46.1601 11.363 46.3185C11.6587 46.4293 11.9544 46.4135 12.2181 46.263C12.4258 46.1443 12.6176 46.1443 12.8414 46.2076C13.3128 46.3422 13.7763 46.3502 14.2318 46.1522C14.4236 46.0651 14.5914 46.0492 14.7912 46.1522C14.927 46.2234 15.1188 46.2947 15.2387 46.2472C15.7101 46.0651 16.1816 46.0888 16.6611 46.1205C17.628 46.1759 18.5549 45.8117 19.5298 45.9384C20.0093 46.0017 20.4968 45.9384 20.9762 45.9938C21.2639 46.0255 21.5196 46.0017 21.7753 45.8671C21.9751 45.7641 22.1749 45.7325 22.3986 45.8354C22.7662 46.0096 23.1418 45.9384 23.4854 45.7721C23.813 45.6137 24.1007 45.4632 24.3564 45.1385C24.772 44.6 24.7799 44.1249 24.5242 43.5706C24.3644 43.2301 24.2925 42.9371 24.4843 42.5253C24.6441 42.1927 24.5722 41.7175 24.5162 41.3216C24.4523 40.9335 24.0607 40.7831 23.6212 40.886C23.3495 40.9494 23.1098 40.9045 22.9021 40.7514C23.1897 40.1812 23.6692 39.714 23.7811 39.0488C23.797 38.9538 23.9329 38.8746 23.9968 38.7796C24.1007 38.6212 24.1966 38.4549 24.2845 38.2807C24.3884 38.0827 24.4843 37.8847 24.5882 37.6709C24.9478 37.8055 25.2354 37.9085 25.5231 38.0352C25.7868 38.154 25.9227 38.3361 25.9866 38.6529C26.1544 39.5319 26.3781 40.403 26.5859 41.2661C26.6339 41.4562 26.7697 41.6146 26.8097 41.8046C26.8976 42.2164 27.0574 42.6282 26.8017 43.0479C26.7218 43.1905 26.7218 43.3884 26.7218 43.5627C26.7218 43.9428 26.8336 44.3308 26.7058 44.7109C26.6818 44.7822 26.6898 44.8851 26.7298 44.9406C27.0814 45.4553 26.8097 45.9859 26.7857 46.5085C26.7777 46.754 26.7697 47.0154 26.8416 47.245C26.9215 47.5142 26.9615 47.7518 26.8736 48.0369C26.7218 48.5279 26.6898 49.0268 26.8736 49.5257C26.9215 49.6682 26.9455 49.8345 26.9215 49.9771C26.7937 50.6977 26.7298 51.4025 27.0014 52.1073C27.0254 52.1786 27.0574 52.2577 27.0574 52.3369C27.0414 53.1684 27.0174 53.9999 27.0014 54.8314C27.0014 55.0848 26.9615 55.3462 27.0014 55.5917C27.0814 56.0589 27.0973 56.5023 27.0254 56.9775C26.9695 57.3259 27.1133 57.6981 27.1693 58.0624C27.1932 58.197 27.2731 58.3396 27.2412 58.4504C27.1133 58.8701 27.0814 59.2819 27.1453 59.7175C27.2012 60.0738 27.1932 60.446 27.1772 60.8182C27.1613 61.5151 27.1373 62.2199 27.0893 62.9168C27.0574 63.3523 27.3051 63.6453 27.5768 63.9621C27.5129 64.1046 27.4569 64.2551 27.385 64.3897C27.2172 64.6748 27.2092 64.9599 27.2572 65.2845C27.3211 65.7043 27.3131 66.1477 27.2572 66.5674C27.1852 67.0822 27.2412 67.5731 27.361 68.072C27.5289 68.8006 27.425 69.5054 27.1213 70.1706C27.0254 70.3765 26.7457 70.5032 26.538 70.6378C26.3941 70.7328 26.1704 70.7487 26.0665 70.8675C25.7069 71.2713 25.2115 71.208 24.764 71.3109C24.708 71.3268 24.6281 71.3426 24.5882 71.3109C24.0608 70.9625 23.5174 71.2238 22.982 71.2555C22.8062 71.2634 22.6224 71.2872 22.4625 71.2397C22.1429 71.1525 21.8472 71.1525 21.5516 71.3109C21.4397 71.3664 21.2879 71.3901 21.16 71.3664C20.6486 71.2476 20.1452 71.113 19.5938 71.2001C19.1782 71.2634 18.7387 71.1684 18.3072 71.1525C18.1874 71.1525 18.0675 71.1525 17.9556 71.2001C17.3323 71.4376 16.709 71.4851 16.0697 71.2634C15.9259 71.2159 15.7581 71.2397 15.6063 71.2634C15.2147 71.303 14.8311 71.3901 14.4396 71.3822C13.9281 71.3822 13.4247 71.3505 12.9213 71.5247C12.7774 71.5723 12.5617 71.5247 12.4258 71.4456C12.0343 71.208 11.6587 71.1921 11.2511 71.398C11.1393 71.4535 10.9715 71.4851 10.8596 71.4456C10.2123 71.208 9.58103 71.3109 8.94973 71.5168C8.87782 71.5406 8.79791 71.5802 8.72599 71.5802C8.11068 71.5643 7.48738 71.5485 6.87207 71.5247C6.81613 71.5247 6.74421 71.4851 6.69627 71.501C6.15288 71.7148 5.60949 71.4535 5.0661 71.4931C4.90628 71.501 4.73048 71.4772 4.60262 71.5327C4.21905 71.7069 3.83548 71.6435 3.41995 71.5723C3.31607 71.1842 3.00442 71.01 2.66879 70.8279C2.11741 70.5349 1.96558 69.9568 1.83773 69.4024C1.75782 69.0619 1.76581 68.7214 1.92563 68.373C2.01353 68.1829 2.01353 67.8899 1.92563 67.6998C1.79777 67.4148 1.85371 67.1693 1.94161 66.9079C2.0455 66.5912 2.07746 66.2823 2.0375 65.9339C1.98157 65.4984 2.0375 65.047 2.0375 64.6035C2.0375 64.5085 2.06148 64.3897 2.01353 64.3105C1.72585 63.8116 1.8617 63.2969 1.88567 62.7742C1.90166 62.4337 1.79777 62.0853 1.78978 61.7368C1.7738 61.2775 1.80576 60.8103 1.81376 60.351C1.81376 60.1372 1.82175 59.9234 1.81376 59.7175C1.81376 59.4324 1.78179 59.1473 1.7738 58.8622C1.7738 58.2841 1.71786 57.714 1.90166 57.1359C1.98157 56.8745 1.78978 56.4865 1.63795 56.2093C1.51809 55.9797 1.45416 55.8134 1.59001 55.5679C1.78179 55.2195 1.90166 54.8473 1.71786 54.4434C1.6859 54.38 1.67791 54.285 1.70188 54.2217C2.02152 53.3743 1.75782 52.5349 1.66992 51.6955C1.65394 51.5688 1.66992 51.4342 1.66992 51.2995C1.66992 51.1095 1.66992 50.9194 1.64594 50.7215C1.64594 50.6264 1.57402 50.5156 1.60599 50.4364C1.9496 49.5178 1.74184 48.5912 1.69389 47.6647C1.69389 47.5855 1.67791 47.5063 1.67791 47.4351C1.71786 46.7619 1.78978 46.0809 1.78978 45.4078C1.78978 45.091 1.65394 44.7822 1.58202 44.4971L1.64594 44.5367Z" fill="#D9D9D9"/>
<path d="M39.8981 74.9297C40.1538 75.1435 40.2897 75.2702 40.4415 75.3811C40.889 75.7137 41.4484 75.6345 41.736 75.1989C42.0237 74.7634 41.8879 74.209 41.3764 73.9635C41.0009 73.7893 40.7132 73.5676 40.5214 73.2033C40.4815 73.1241 40.4015 73.037 40.3136 72.9974C39.7303 72.6965 39.6903 72.1501 39.6664 71.6037C39.6504 71.2632 39.8661 71.081 40.1858 70.986C40.3216 71.176 40.4575 71.3423 40.5614 71.5245C40.7691 71.9046 41.0888 72.1422 41.4723 72.3322C41.6641 72.4273 41.8399 72.554 42.0077 72.6807C42.3194 72.9103 42.631 72.9024 42.8548 72.6648C43.0785 72.4193 43.0546 72.1422 42.7989 71.8254C42.679 71.6749 42.5272 71.5245 42.4792 71.3503C42.3274 70.8118 41.9438 70.4554 41.5523 70.0911C41.5203 70.0674 41.4723 70.0595 41.4564 70.0278C41.2086 69.5685 40.9609 69.1171 40.7452 68.6499C40.7132 68.5865 40.8091 68.4281 40.889 68.3727C41.0089 68.2856 41.1767 68.246 41.2885 68.2064C41.6721 68.4281 42.0317 68.634 42.3833 68.832C42.663 68.9904 42.9507 68.9904 43.2144 68.7845C43.4541 68.5944 43.51 68.3331 43.4461 68.0401C43.3103 67.4224 43.1584 66.8127 42.4073 66.6068C42.2874 66.5751 42.1756 66.4088 42.1116 66.2821C41.8399 65.6723 41.3445 65.2843 40.8411 64.8725C40.3776 64.4924 40.034 63.9539 39.4266 63.7401C39.139 63.1145 38.5956 62.8136 38.0042 62.4968C37.6287 62.2988 37.3809 61.8237 37.1492 61.4277C36.9894 61.1585 37.1572 60.9843 37.4768 61.008C37.6526 61.0239 37.8284 61.0714 38.0042 61.0555C38.3479 61.0159 38.6275 61.1426 38.8593 61.3723C39.2588 61.7762 39.6504 62.188 40.026 62.6077C40.3057 62.9165 40.5933 63.2016 41.0089 63.3283C41.1287 63.3679 41.2406 63.4708 41.3365 63.5579C41.6641 63.8668 41.9838 64.1756 42.3114 64.4845C42.3514 64.5241 42.4233 64.5637 42.4313 64.6112C42.4792 65.3635 43.1984 65.5377 43.6219 65.9574C43.9575 66.2821 44.2932 66.5989 44.6448 66.8998C44.9644 67.1769 45.324 67.4145 45.6437 67.6917C45.9313 67.9451 46.187 68.2381 46.4747 68.4915C46.6745 68.6657 46.8982 68.832 47.138 68.9587C47.2578 69.0221 47.4576 69.03 47.5855 68.9825C47.8332 68.8795 48.0649 68.7291 48.2967 68.5865C48.5204 68.4361 48.5284 68.2143 48.3846 68.0243C47.977 67.4779 47.8572 66.8127 47.6414 66.195C47.6015 66.0841 47.5535 65.9732 47.5455 65.8624C47.5375 65.4268 47.5455 64.9834 47.5455 64.5082C47.9131 64.6033 48.1928 64.8883 48.5044 65.1338C48.7282 65.316 48.9599 65.4981 49.2236 65.6169C49.4953 65.7357 49.7191 65.902 49.791 66.1712C49.9348 66.6939 50.2864 66.9631 50.7419 67.2165C51.1415 67.4462 51.4531 67.8184 51.8047 68.1272C51.8287 68.151 51.8447 68.1985 51.8527 68.2302C51.9406 68.927 52.412 69.4576 52.6678 70.0832C52.9634 70.8039 52.9794 71.572 53.0673 72.3243C53.0833 72.451 52.9634 72.6094 52.8675 72.7282C52.3641 73.33 51.8367 73.9081 51.3492 74.51C51.0775 74.8426 50.8059 75.191 50.63 75.579C50.3024 76.3076 49.7351 76.854 49.2796 77.4875C49.1437 77.6776 48.936 77.8755 48.928 78.0814C48.888 78.7229 48.2967 78.8892 47.961 79.2693C47.8811 79.3643 47.6254 79.3327 47.4576 79.3168C47.0101 79.2851 46.5546 79.2297 46.1071 79.1822C46.0512 79.1822 45.9873 79.1822 45.9313 79.1584C45.1562 78.9367 44.3891 78.715 43.6139 78.5011C43.3502 78.4299 43.0785 78.3903 42.8148 78.3032C42.5431 78.2081 42.2555 78.1052 42.0237 77.9389C41.6961 77.6934 41.4324 77.3846 41.1287 77.1074C40.9369 76.9411 40.7372 76.7827 40.5294 76.6402C40.2977 76.4739 40.1378 76.3076 40.1378 75.975C40.1378 75.6741 40.01 75.3811 39.9141 74.9455L39.8981 74.9297Z" fill="white"/>
<path d="M59.2365 54.6414C59.3963 54.7127 59.5162 54.7602 59.6521 54.8156C59.7479 54.6731 59.8279 54.5464 59.9237 54.3959C59.9877 54.3959 60.0676 54.3801 60.1395 54.3959C60.6589 54.4988 61.1144 54.3721 61.49 53.992C61.8895 53.5882 62.361 53.2793 62.8884 53.0576C63.0322 53.0021 63.1921 52.9071 63.264 52.7804C63.6635 52.0835 64.4467 51.7113 64.7663 50.9353C64.8862 50.6502 65.2777 50.4839 65.5095 50.3018C65.949 50.4839 66.3166 50.6581 66.7081 50.7848C67.0757 50.9036 67.4593 50.9828 67.8349 51.0699C67.6271 51.5134 67.4833 51.9252 67.2515 52.2894C67.0358 52.63 66.9319 52.9863 66.844 53.3743C66.7641 53.7386 66.7161 54.1504 66.3325 54.388C66.3006 54.4038 66.2686 54.4513 66.2686 54.483C66.1887 55.2512 65.5175 55.7896 65.4216 56.5499C65.4056 56.6766 65.3656 56.8429 65.2777 56.9221C64.8143 57.3418 64.8063 57.904 64.8382 58.4425C64.8622 58.8306 64.7503 59.1552 64.4946 59.3928C63.9512 59.9075 63.7754 60.5807 63.5597 61.2458C63.4797 61.4993 63.3599 61.7447 63.256 61.9902C63.2001 62.1169 63.0962 62.2357 63.0882 62.3624C63.0163 63.0593 62.5688 63.6136 62.345 64.2551C62.2172 64.6194 62.1932 65.0153 62.0733 65.3875C61.9135 65.8864 61.7057 66.3695 61.5379 66.8684C61.3541 67.3989 61.1943 67.9453 61.0025 68.5709C60.8986 68.4126 60.8028 68.3096 60.7468 68.1829C60.6989 68.08 60.7308 67.9295 60.6669 67.8424C60.3872 67.4781 60.4671 67.1376 60.619 66.7496C60.6909 66.5674 60.7149 66.2903 60.619 66.1319C60.3073 65.5617 60.4671 64.9995 60.555 64.4372C60.603 64.1205 60.579 63.8512 60.3473 63.6295C60.1555 63.4473 60.1075 63.2573 60.1954 62.996C60.2514 62.8217 60.2754 62.6 60.2274 62.4179C59.9957 61.4359 59.7799 60.4381 59.2925 59.5353C59.1566 59.274 59.1087 59.0285 59.1646 58.7514C59.2845 58.1258 59.0527 57.6189 58.6931 57.128C58.6052 57.0092 58.5653 56.8112 58.5733 56.6607C58.5813 56.4548 58.6452 56.241 58.7171 56.0351C58.8849 55.5679 59.0687 55.1165 59.2525 54.6335L59.2365 54.6414Z" fill="white"/>
<path d="M51.941 65.0784C51.6853 64.9675 51.4695 64.8804 51.2537 64.7854C50.9101 64.6349 50.5905 64.4924 50.4706 64.0648C50.4147 63.8668 50.1909 63.6926 50.0151 63.55C49.5037 63.1462 49.1361 62.6789 49.0402 62.0217C49.0163 61.8554 48.9284 61.6891 48.8644 61.5307C48.7126 61.1189 48.3051 60.7705 48.5128 60.2557C48.5208 60.224 48.5128 60.1686 48.4889 60.1449C48.0254 59.5509 47.9215 58.7907 47.5699 58.1493C47.4101 57.8483 47.2423 57.5791 47.2742 57.1831C47.2982 56.8901 47.0425 56.5813 46.9306 56.2725C46.8347 56.019 46.7468 55.7736 46.6669 55.5122C46.4591 54.8074 46.3473 54.0631 45.8039 53.4929C45.7879 53.477 45.7719 53.4612 45.7639 53.4454C45.5881 52.8989 45.4203 52.3525 45.2285 51.7428C45.5881 51.6873 45.9237 51.6319 46.3073 51.5765V51.2676C46.555 51.1964 46.7948 51.1251 47.0744 51.0459C47.434 51.3627 47.7936 51.6873 48.1692 51.9962C48.321 52.1229 48.4729 52.2813 48.6487 52.3209C49.3759 52.4872 49.8633 53.0098 50.4307 53.4137C50.5266 53.485 50.6225 53.6037 50.7183 53.6037C51.4615 53.6037 51.877 54.3006 52.5563 54.4273C52.6602 54.4432 52.78 54.5857 52.82 54.7045C53.0757 55.3697 53.4433 55.9953 53.5312 56.7238C53.5552 56.9456 53.691 57.1594 53.8109 57.3574C54.1864 58.0146 54.2024 58.8224 53.6351 59.4084C53.3794 59.6697 53.2675 59.9865 53.1956 60.3428C53.1157 60.7388 52.9798 61.1347 52.812 61.5069C52.5803 62.0217 52.4924 62.5443 52.5403 63.0987C52.5882 63.6055 52.2526 64.6904 51.933 65.0784H51.941Z" fill="white"/>
<path d="M55.705 57.9595C56.275 58.1549 56.8184 58.1417 57.3352 57.9199C57.3511 58.0387 57.3511 58.1417 57.3751 58.2446C57.447 58.5851 57.5269 58.9177 57.5989 59.2582C57.6468 59.4641 57.7347 59.67 57.7187 59.868C57.6708 60.8737 57.8626 61.8478 58.0464 62.8218C58.1023 63.1306 58.398 63.392 58.4619 63.7008C58.5258 64.0097 58.39 64.3581 58.4299 64.6749C58.5258 65.4272 58.6776 66.1715 58.7895 66.9239C58.8135 67.0743 58.7895 67.2327 58.7895 67.399C58.9254 67.4307 59.0692 67.4624 59.237 67.494C58.9174 69.0066 59.0213 70.4637 59.5167 71.9287C59.0532 72.4038 58.9014 73.0215 58.8614 73.7817C58.6217 73.6075 58.4539 73.5204 58.326 73.3937C58.0304 73.1165 57.6947 72.9502 57.2712 72.9186C57.0954 72.9027 56.9196 72.7919 56.7598 72.6889C56.3762 72.4276 56.0006 72.1425 55.5052 71.7861C55.5052 71.5011 55.4253 71.0655 55.5052 70.6616C55.657 69.8301 55.3294 69.2125 54.7301 68.6977C54.4664 68.476 54.2107 68.2859 54.2346 67.9454C53.9709 67.7791 53.7472 67.6286 53.5234 67.4861C53.6273 67.1773 53.6833 66.9001 53.8111 66.6625C54.1627 65.9815 53.931 65.2371 54.0748 64.5402C54.1547 64.1601 54.2906 63.7958 54.3785 63.4236C54.5063 62.8535 54.6182 62.2833 54.7301 61.7052C54.8979 60.8262 55.1136 59.9551 55.1136 59.0523C55.1136 58.9652 55.1536 58.8623 55.2016 58.7831C55.3454 58.5218 55.5052 58.2604 55.689 57.9595H55.705Z" fill="#E59D5C"/>
<path d="M22.9896 42.1299C23.0056 42.217 23.0056 42.2883 23.0296 42.3358C23.3652 42.9218 23.0376 43.4682 22.9097 44.0146C22.8458 44.2839 22.1665 44.561 21.8709 44.466C21.2236 44.2601 20.5763 44.3314 19.9051 44.363C19.114 44.4026 18.3149 44.5927 17.5078 44.3789C17.2361 44.3076 16.9244 44.3947 16.6368 44.4106C16.1413 44.4343 15.6459 44.6323 15.1504 44.4581C14.655 44.7748 14.1515 44.6323 13.6321 44.5214C13.4883 44.4898 13.3125 44.5214 13.1607 44.561C12.7611 44.6481 12.4015 44.759 11.97 44.5848C11.7223 44.4818 11.3547 44.6165 11.059 44.7036C10.7953 44.7828 10.5796 44.8303 10.3318 44.664C10.204 44.5848 10.0282 44.5135 9.89234 44.5373C9.11721 44.6561 8.31012 44.363 7.56695 44.7352C7.53499 44.7511 7.48704 44.759 7.45508 44.759C6.93566 44.7511 6.41624 44.7352 5.84888 44.7273C5.76098 44.173 5.64911 43.5949 5.58518 43.0089C5.5612 42.8109 5.68107 42.605 5.71303 42.4546C6.67995 42.4942 7.59891 42.5417 8.50989 42.5496C8.87748 42.5496 9.23707 42.4546 9.60466 42.4466C9.8364 42.4466 10.0681 42.51 10.2999 42.5417C10.4357 42.5575 10.5955 42.605 10.7074 42.5575C11.4106 42.2645 12.1138 42.4466 12.8171 42.5338C13.0088 42.5575 13.2086 42.5654 13.4004 42.5417C13.8079 42.5021 14.2075 42.3675 14.631 42.5021C14.7189 42.5258 14.8308 42.4942 14.9187 42.4704C15.8856 42.2249 16.8525 42.2645 17.8354 42.3358C18.219 42.3595 18.6105 42.2803 18.9941 42.2407C19.09 42.2328 19.1859 42.1932 19.2818 42.2012C20.2567 42.2328 21.2396 42.2724 22.2145 42.2883C22.4622 42.2883 22.7019 42.2012 22.9976 42.1457L22.9896 42.1299Z" fill="white"/>
<path d="M60.1153 52.4719C60.1073 51.8384 59.9075 51.4424 59.452 51.1811C59.3641 51.1336 59.3082 50.999 59.2762 50.896C59.1803 50.5793 58.9806 50.3655 58.7009 50.1833C58.2454 49.8903 58.2134 49.3677 58.621 49.0192C58.8687 48.8054 59.1484 48.6154 59.4201 48.4174C59.8516 48.1165 60.2831 47.8235 60.7146 47.5146C60.8265 47.4354 60.9783 47.3483 61.0103 47.2374C61.1861 46.6039 61.8094 46.4455 62.2169 46.0654C62.4247 46.2001 62.6005 46.3505 62.8083 46.4614C63.0001 46.5643 63.1039 46.699 63.1279 46.9128C63.1679 47.2612 63.3676 47.5067 63.6074 47.7601C63.8551 48.0294 64.0069 48.3778 64.1428 48.5916C63.8551 49.6211 62.9201 50.0091 62.3688 50.7297C61.8094 51.4583 61.0103 51.9334 60.1233 52.4798L60.1153 52.4719Z" fill="white"/>
<path d="M48.1603 49.4071C48.3122 49.2883 48.416 49.2328 48.496 49.1537C48.6877 48.9398 48.9035 48.7339 49.0314 48.4805C49.1992 48.1321 49.2791 47.7441 49.4149 47.3798C49.5108 47.1343 49.6387 46.9047 49.7905 46.5879C50.214 46.8017 50.5576 47.0393 50.9332 47.1581C51.7483 47.4115 52.2837 48.1479 53.1387 48.3459C53.5143 48.433 53.834 48.7577 54.2095 49.0032C53.8979 49.4467 53.7061 49.9852 53.2666 50.389C52.8591 50.7691 52.939 51.4818 52.4675 51.759C51.8522 51.4739 51.2928 51.2126 50.7255 50.9513C50.5656 50.88 50.3659 50.8325 50.262 50.7058C49.9184 50.2861 49.4709 50.096 48.9754 49.9139C48.7037 49.8189 48.48 49.613 48.1523 49.4071H48.1603Z" fill="white"/>
<path d="M57.2306 56.241C56.6952 55.9401 56.1917 55.948 55.6963 56.3202C55.6084 56.1856 55.5205 56.0985 55.4885 55.9955C55.3287 55.4174 55.2008 54.8314 55.041 54.2533C54.9771 54.0316 54.8972 53.8099 54.7693 53.6119C54.3378 52.9309 54.3378 52.6774 54.9052 52.139C55.097 51.9568 55.1849 51.7588 55.2808 51.5213C55.5205 50.9194 55.8561 50.3493 56.1358 49.7949C56.4634 50.1038 56.7671 50.373 57.0308 50.666C57.1507 50.8006 57.1986 50.9907 57.2865 51.157C57.4144 51.3946 57.5023 51.6638 57.6781 51.8539C58.0616 52.2736 58.2694 52.7012 58.0297 53.2635C57.726 53.9683 57.5982 54.7047 57.5182 55.4649C57.4943 55.7263 57.3344 55.9718 57.2226 56.241H57.2306Z" fill="#E59D5C"/>
<path d="M15.8145 37.8693C15.8624 37.4892 15.8944 37.1249 15.9503 36.7607C15.9663 36.6577 16.0302 36.5469 16.0941 36.4597C16.2779 36.2222 16.4777 36.0004 16.6455 35.755C17.2768 35.2006 17.8282 35.6758 18.3956 35.9213C18.6033 36.0084 18.6273 36.3172 18.4275 36.4518C17.9241 36.8003 17.6844 37.3229 17.4286 37.8377C17.2848 38.1307 16.8213 38.289 16.4218 38.1465C16.238 38.0831 16.0702 37.9881 15.8145 37.8693Z" fill="white"/>
<path d="M18.9611 38.1695C19.097 37.726 19.2168 37.3301 19.3447 36.8866C20.0079 36.7124 20.1678 36.0076 20.6312 35.5166C20.9189 35.5958 21.2146 35.6671 21.5502 35.7621C21.3504 36.2214 21.2705 36.6569 20.9109 37.0054C20.7591 37.1558 20.7431 37.4647 20.6952 37.7102C20.6632 37.8606 20.7032 38.019 20.6792 38.1774C20.6312 38.4862 20.4474 38.6129 20.1438 38.5338C19.7842 38.4466 19.4326 38.3199 18.9531 38.1695H18.9611Z" fill="white"/>
<path d="M23.9802 36.4756C23.7325 36.9903 23.6766 37.513 23.1811 37.806C23.0772 37.8693 23.0293 38.0277 22.9813 38.1465C22.8295 38.5424 22.6937 38.9384 22.5498 39.3264C22.2542 39.366 22.0784 39.2948 22.0064 39.0493C21.9345 38.8038 21.7347 38.5979 21.9585 38.297C22.1503 38.0436 22.2302 37.711 22.366 37.4179C22.398 37.3467 22.414 37.2675 22.4619 37.2121C22.6857 36.9507 23.4448 36.5785 23.9882 36.4835L23.9802 36.4756Z" fill="white"/>
<path d="M28.2951 42.9611C28.2951 42.4939 28.2552 42.1296 28.3031 41.7812C28.3591 41.4011 28.3351 41.0606 28.0234 40.7042C28.4949 40.4271 28.9344 40.1737 29.3979 39.8965C29.7495 40.5458 29.27 41.0131 29.1741 41.504C29.0783 41.995 28.6387 42.4147 28.2951 42.9532V42.9611Z" fill="white"/>
<path d="M14.9354 36.1343C14.7197 36.6253 14.5359 37.0529 14.3441 37.4726C14.3201 37.5201 14.2802 37.5835 14.2322 37.5993C13.8646 37.726 13.7048 37.3222 13.4011 37.2509C13.3452 37.2351 13.2813 36.9737 13.3132 36.8549C13.497 36.2848 13.8007 36.1026 14.408 36.1343C14.5678 36.1422 14.7197 36.1343 14.9274 36.1343H14.9354Z" fill="white"/>
<path d="M71.4223 65.3322C71.2305 65.2213 71.1746 65.158 71.1027 65.1501C70.5273 65.055 70.1437 64.7462 69.912 64.2077C69.8561 64.081 69.6563 63.9384 69.5124 63.9226C68.6894 63.8355 68.4097 63.1782 68.0581 62.6001C67.9622 62.4418 67.9702 62.2279 67.8903 62.0616C67.6106 61.4835 67.8423 61.0559 68.4816 60.9926C68.5535 60.9926 68.6334 60.9926 68.7693 60.9926C68.7693 60.462 68.977 60.0581 69.5124 59.8681C69.5924 59.8364 69.6563 59.6859 69.6723 59.583C69.7362 59.2108 69.9759 58.9732 70.2396 58.7198C70.9668 58.0071 71.662 57.2627 72.3732 56.5342C72.3972 56.5104 72.3972 56.4629 72.4052 56.4233C72.1495 56.2253 71.8618 56.0511 71.654 55.8135C71.4463 55.5839 71.2625 55.3067 71.1746 55.0137C70.9988 54.4594 70.8789 53.8892 70.775 53.319C70.7351 53.0973 70.8709 52.8676 71.1027 52.8201C71.2705 52.7885 71.5262 52.828 71.6381 52.9389C72.2214 53.5091 72.8367 54.0713 73.3082 54.7286C73.5799 55.1008 73.7557 55.5522 74.0913 55.9086C74.339 56.1699 74.395 56.5342 74.2272 56.8984C74.1552 57.0568 74.1632 57.2389 74.0993 57.4052C74.0194 57.6191 73.9555 57.8646 73.8036 58.0309C73.0844 58.8544 72.3572 59.678 71.5901 60.462C71.3744 60.6837 71.0228 60.7788 70.6951 60.953C70.5513 61.1509 70.3675 61.4044 70.1757 61.6657C70.3435 61.9191 70.5193 62.22 70.7431 62.4813C70.839 62.6001 71.0228 62.6872 71.1826 62.711C71.5981 62.7744 71.9098 62.9644 72.1815 63.2812C72.3013 63.4237 72.4771 63.5187 72.6369 63.6138C72.9006 63.7801 73.1963 63.9068 73.436 64.1047C74.0993 64.6749 73.9475 65.641 73.1244 65.9578C72.7089 66.1162 72.4052 66.33 72.2294 66.7339C72.1814 66.8368 72.1095 66.9398 72.0216 67.011C71.5102 67.4387 71.1666 68.0167 70.7191 68.484C70.0478 69.1888 69.3766 69.9015 68.6814 70.5667C68.3218 70.9072 67.9063 71.1844 67.6106 71.6041C67.4268 71.8654 67.1151 72.0475 66.8275 72.2059C66.396 72.4435 66.1003 72.7919 65.8606 73.1879C65.5329 73.7264 64.9975 74.0273 64.4941 74.352C64.2623 74.5024 63.4073 74.2569 63.2395 74.0273C63.1756 73.9402 63.1436 73.8056 63.1516 73.7026C63.1676 73.5284 63.1836 73.3304 63.2715 73.1958C63.6311 72.6573 63.9107 72.0475 64.558 71.7228C64.9256 71.5407 65.2133 71.1923 65.5169 70.8913C65.8606 70.5508 66.0923 70.0915 66.5877 69.9094C66.6916 69.8698 66.8195 69.7906 66.8594 69.6956C67.243 68.8482 68.098 68.476 68.6974 67.8425C69.2328 67.2803 69.8481 66.7972 70.3675 66.2191C70.6632 65.8865 70.8789 65.4906 71.4463 65.3164L71.4223 65.3322Z" fill="black"/>
<path d="M50.3757 30.5045C50.6234 30.6391 50.8871 30.7895 51.1668 30.9242C51.3026 30.9875 51.4545 31.035 51.5983 31.0667C52.0058 31.138 52.3415 31.336 52.6132 31.621C53.0527 32.0803 52.9248 32.7139 52.3255 32.9514C51.7821 33.1652 51.2467 33.1573 50.7752 32.7535C50.6713 32.6664 50.5595 32.5396 50.4396 32.5317C49.9522 32.4842 49.6725 32.207 49.4247 31.819C49.3368 31.6765 49.1211 31.5814 48.9453 31.5418C48.314 31.3993 47.9624 30.9796 48.1062 30.3698C48.2581 29.7363 48.298 29.0553 48.8574 28.5643C49.0572 28.3822 49.1371 28.0654 49.2489 27.7961C49.4887 27.1785 49.7124 26.5529 49.9522 25.9352C49.9761 25.8639 50.0081 25.7768 50.064 25.7293C50.7113 25.2225 50.983 24.4622 51.4465 23.8287C51.6782 23.512 52.1657 23.4248 52.5173 23.5991C52.8689 23.7733 53.0926 24.2247 52.9008 24.5969C52.6851 25.0245 52.6771 25.5551 52.2775 25.9035C52.1976 25.9748 52.2136 26.149 52.1657 26.2757C52.0618 26.5687 51.9899 26.8696 51.838 27.1389C51.5264 27.6774 51.1668 28.1921 50.8472 28.7306C50.7433 28.9127 50.7113 29.1345 50.6554 29.3404C50.5595 29.7284 50.4716 30.1243 50.3837 30.5045H50.3757Z" fill="black"/>
<path d="M51.8213 35.4059C52.5725 35.2475 53.1399 35.1129 53.7152 35.0179C53.9869 34.9704 54.1787 34.8516 54.3305 34.6219C54.4744 34.416 54.6262 34.2022 54.81 34.0359C55.2255 33.6558 55.8248 33.6241 56.2164 33.933C56.6319 34.2656 56.7118 34.8595 56.3922 35.3663C56.1205 35.8019 55.697 36.0474 55.2415 36.2374C55.0977 36.3008 54.8979 36.3087 54.81 36.4116C54.4344 36.863 53.875 36.966 53.3796 37.1877C53.02 37.3461 52.6444 37.3619 52.2928 37.2035C52.0611 37.1006 51.8533 37.0848 51.6216 37.1877C51.23 37.3619 50.8544 37.3223 50.4948 37.0927C50.4149 37.0452 50.327 36.9739 50.2311 36.9581C49.3441 36.7601 48.9446 36.0553 48.561 35.3505C48.3133 34.8991 48.4651 34.3448 48.8806 34.0439C49.2882 33.7508 49.8635 33.7825 50.2391 34.131C50.3989 34.2735 50.5108 34.4715 50.6786 34.5982C51.0782 34.8991 51.4937 35.1763 51.8213 35.4059Z" fill="black"/>
<path d="M59.0441 27.2573C58.4768 27.2653 58.0612 27.091 57.7496 26.5842C57.4539 26.1091 57.406 25.6894 57.7656 25.238C57.7896 25.2063 57.8135 25.1746 57.8375 25.143C58.309 24.3273 58.4928 24.2402 59.3798 24.4303C60.2987 24.6203 60.8981 26.0299 60.3786 26.7822C60.2827 26.9168 60.1229 27.0356 59.9631 27.0831C59.6674 27.1702 59.3478 27.2098 59.0441 27.2653V27.2573Z" fill="black"/>
<path d="M46.3233 23.8048C47.0824 23.8444 47.3381 24.0265 47.5619 24.7472C47.5858 24.8184 47.6178 24.8897 47.6418 24.9689C47.9135 25.9509 47.1783 26.7111 46.1634 26.5131C45.8118 26.4418 45.4762 26.3785 45.2445 26.0538C44.797 25.4361 45.0047 24.2641 45.652 23.9553C45.8518 23.8602 46.0995 23.8523 46.3233 23.7969V23.8048Z" fill="black"/>
<path d="M13.8878 68.8642C13.1607 69.3473 12.4095 69.181 11.6743 69.0701C11.4106 69.0305 11.2029 68.9909 10.9631 69.1572C10.7234 69.3235 10.4357 69.3315 10.18 69.181C9.98822 69.0701 9.8284 69.0939 9.62064 69.1493C9.14917 69.276 8.66171 69.3869 8.18225 69.1176C8.07837 69.0622 7.8786 69.0385 7.79069 69.1018C7.30324 69.4423 6.83976 69.2364 6.39227 69.0464C6.10459 68.9197 5.89682 68.8959 5.66508 69.1572C5.42535 69.4344 5.09772 69.5057 4.75411 69.3315C4.4025 69.1572 4.24268 68.8405 4.26666 68.4604C4.30661 67.7872 4.18674 67.1062 4.37853 66.441C4.41848 66.3143 4.43447 66.1559 4.38652 66.0371C4.18674 65.5382 4.26665 65.0393 4.35456 64.5325C4.37853 64.3821 4.38652 64.2158 4.33857 64.0732C4.23469 63.7644 4.24268 63.4635 4.34657 63.1546C4.39451 63.02 4.38652 62.8458 4.34657 62.7032C4.2267 62.339 4.3146 62.0143 4.47442 61.6896C4.69817 61.2303 4.72214 60.2721 4.60228 59.7653C4.45045 59.0922 4.23469 58.4428 4.45844 57.7063C4.63424 57.1362 4.53835 56.4789 4.56232 55.8612C4.56232 55.8295 4.54634 55.782 4.52237 55.7503C4.07487 55.2198 4.29063 54.6337 4.41049 54.0715C4.47442 53.7785 4.48241 53.5172 4.42648 53.2162C4.37054 52.9391 4.4904 52.6302 4.5863 52.3372C4.46643 51.9413 4.33857 51.5612 4.52237 51.1019C4.61826 50.8643 4.52237 50.5238 4.45844 50.2466C4.32259 49.6527 4.69817 49.1538 4.75411 48.5994C4.7621 48.5123 4.94589 48.3856 5.06576 48.3619C5.40937 48.2985 5.76098 48.2748 6.10459 48.2273C6.21646 48.2114 6.32834 48.2035 6.44021 48.1797C6.5361 48.156 6.624 48.061 6.71191 48.0768C7.42311 48.1639 8.15029 47.8155 8.8535 48.1322C9.03729 48.2193 9.18113 48.1877 9.34095 48.0768C9.63662 47.8709 9.96425 47.8867 10.3079 47.9659C10.4677 48.0055 10.6435 47.9818 10.8113 47.9659C10.9631 47.958 11.1389 47.863 11.2748 47.9026C11.8661 48.0926 12.4734 47.9818 13.0728 48.0293C13.4723 48.061 13.8878 47.9659 14.2954 47.9184C14.7029 47.8709 15.1264 47.9422 15.502 47.7204C15.534 47.7046 15.5819 47.6967 15.6139 47.7046C16.3491 47.8709 17.0523 47.4591 17.7715 47.6016C18.4667 47.7363 19.1619 47.5779 19.8491 47.7125C20.0489 47.7521 20.2647 47.6254 20.4804 47.6096C21.4394 47.5621 22.4063 47.5383 23.3652 47.4829C23.6848 47.467 23.9326 47.5858 24.1883 47.7521C24.452 47.9342 24.404 48.2114 24.4839 48.4648C24.6198 48.94 24.7476 49.3913 24.6917 49.8902C24.6517 50.2545 24.6358 50.6188 24.6198 50.9831C24.6118 51.181 24.5878 51.3711 24.6198 51.5691C24.7237 52.3372 24.6917 52.6619 24.412 53.3984C24.7876 53.9131 24.8036 54.4595 24.5558 55.0455C24.4999 55.1722 24.5718 55.3861 24.6438 55.5207C24.8355 55.8533 24.8595 56.17 24.7317 56.5264C24.6677 56.7006 24.6997 56.8986 24.6917 57.0886C24.6917 57.1282 24.7157 57.1678 24.7077 57.2074C24.6757 57.7776 24.5878 58.3319 24.8275 58.9021C24.9075 59.0842 24.7317 59.3772 24.7317 59.6148C24.7476 59.9949 24.7636 60.3671 24.7796 60.7472C24.7796 60.8819 24.8036 61.0165 24.8196 61.1511C24.8355 61.3095 24.9154 61.4758 24.8755 61.6104C24.7237 62.0776 24.8515 62.5369 24.8755 62.9962C24.8915 63.2259 24.9714 63.4476 25.0113 63.6773C25.0673 63.9861 25.1312 64.287 25.1552 64.5959C25.1871 64.9443 25.2191 65.2928 25.1951 65.6333C25.1712 65.9263 25.0593 66.2193 24.9075 66.4964C24.9714 66.734 25.0673 66.9716 25.1072 67.2171C25.2351 68.0327 24.5399 68.7296 23.6928 68.6504C23.2853 68.6108 22.8857 68.5791 22.4782 68.5475C22.4222 68.5475 22.3503 68.5316 22.3024 68.5554C21.711 68.8484 21.0558 68.7059 20.4644 68.8326C19.7133 68.9989 18.9941 68.983 18.2589 68.9276C18.0272 68.9117 17.7875 68.8959 17.5557 68.8801C17.4758 68.8801 17.3799 68.8246 17.332 68.8563C16.7806 69.2048 16.1493 69.0226 15.558 69.1256C15.0945 69.2048 14.3593 69.0701 13.8719 68.8484L13.8878 68.8642Z" fill="black"/>
<path d="M15.0866 52.6778C15.6619 52.5986 16.2373 52.5035 16.8127 52.4402C16.9405 52.4244 17.0844 52.456 17.2042 52.5115C17.5398 52.6698 17.8355 52.6302 18.1551 52.4481C18.5547 52.2185 18.6586 52.266 18.8584 52.6857C18.9622 52.9153 19.0661 53.145 19.162 53.3746C18.8264 53.7864 18.7145 54.214 18.8344 54.7129C18.8743 54.8951 18.7705 55.1168 18.7305 55.291C18.1711 55.4415 17.6757 55.4336 17.1643 55.3306C16.9085 55.2752 16.6209 55.3386 16.3492 55.3306C15.9576 55.3148 15.574 55.299 15.1905 55.2435C15.1266 55.2356 15.0147 55.0139 15.0466 54.9347C15.3024 54.1745 15.1345 53.4063 15.0786 52.6857L15.0866 52.6778Z" fill="#D9D9D9"/>
<path d="M18.9307 64.8812C19.0586 65.1584 19.1785 65.396 19.2823 65.6494C19.4102 65.9503 19.2504 66.2195 19.1465 66.4809C19.0426 66.7501 18.8828 67.0035 18.7549 67.2569C18.2755 67.3282 17.788 67.4787 17.3166 67.4628C16.7013 67.4391 16.0939 67.2886 15.3907 67.1777C15.3668 66.8451 15.3668 66.5046 15.3188 66.172C15.2868 65.9424 15.2149 65.7206 15.159 65.491C15.0311 64.9604 15.159 64.8179 15.7024 64.8971C15.8542 64.9208 16.014 64.8971 16.1659 64.8971C16.3976 64.8971 16.6213 64.9129 16.8531 64.9208C16.9889 64.9208 17.1487 64.9842 17.2606 64.9367C17.82 64.7149 18.3874 64.9208 18.9387 64.8812H18.9307Z" fill="#D9D9D9"/>
<path d="M10.2445 53.0018C11.0196 52.796 11.7148 52.6851 12.45 52.7326C12.8656 52.7564 13.2971 52.6297 13.7206 52.5742C13.7526 52.5742 13.7925 52.5821 13.8165 52.5901C13.7845 53.184 13.7446 53.77 13.7126 54.3639C13.7126 54.4431 13.7126 54.5223 13.7206 54.5936C13.7845 54.8866 14.0003 55.2113 13.5208 55.3617C13.2331 55.4488 12.9774 55.7022 12.6418 55.4567C12.5299 55.3776 12.3381 55.3538 12.1863 55.3617C11.6269 55.3776 11.0596 55.4092 10.4842 55.4409C10.3324 55.1558 10.2365 54.8787 10.3644 54.554C10.4123 54.4352 10.3803 54.2847 10.3644 54.1501C10.3244 53.77 10.2765 53.3978 10.2285 53.0098L10.2445 53.0018Z" fill="#D9D9D9"/>
<path d="M23.2528 55.4487C22.7494 55.4487 22.3019 55.4645 21.8544 55.4487C21.4308 55.4249 20.9993 55.3616 20.5678 55.322C20.368 55.1003 20.3441 54.8706 20.392 54.5697C20.44 54.3005 20.424 53.9441 20.2801 53.7382C20.0084 53.3502 20.2002 53.0809 20.376 52.78C20.5678 52.4553 20.8874 52.3682 21.2231 52.384C21.6945 52.4157 22.158 52.4236 22.6135 52.2336C22.9092 52.1148 23.045 52.2177 23.1249 52.5266C23.1889 52.7721 23.2608 53.0096 23.3087 53.2551C23.3247 53.3422 23.3327 53.461 23.2848 53.5244C22.9172 54.055 22.9971 54.5855 23.2368 55.1319C23.2608 55.1953 23.2368 55.2745 23.2368 55.4487H23.2528Z" fill="#D9D9D9"/>
<path d="M18.5075 56.8744C18.5874 57.4208 18.6913 57.9118 18.7073 58.4107C18.7233 58.767 18.6354 59.1313 18.5794 59.5589C17.4127 59.0838 16.278 59.4085 15.1113 59.3768C15.2312 58.8621 15.2871 58.3632 15.1593 57.8326C15.1033 57.5792 15.2711 57.2783 15.3431 56.9694C15.7346 56.8902 16.1182 56.7398 16.5417 56.8586C16.7415 56.914 16.9892 56.8981 17.189 56.8348C17.6685 56.6843 18.116 56.7873 18.4995 56.8665L18.5075 56.8744Z" fill="#D9D9D9"/>
<path d="M13.4957 64.6592C13.7994 64.8096 13.9512 64.9759 13.8873 65.2848C13.7515 65.9817 13.6316 66.6785 13.5037 67.3912C13.0243 67.4388 12.5448 67.4784 12.0653 67.5338C11.9295 67.5496 11.7777 67.5496 11.6658 67.613C11.2742 67.8585 10.9226 67.7238 10.5391 67.5259C10.555 67.0982 10.5151 66.6706 10.7308 66.243C10.8347 66.0371 10.7868 65.7124 10.7229 65.459C10.6509 65.1818 10.7229 65.063 10.9866 64.9839C11.3462 64.8809 11.6898 64.778 12.0733 64.9126C12.5768 65.0868 13.0323 64.873 13.4957 64.6592Z" fill="#D9D9D9"/>
<path d="M13.536 56.9539C13.6319 57.4686 13.7597 57.9438 13.6638 58.4585C13.6159 58.7436 13.7358 59.0683 13.7837 59.3692C12.7609 59.4405 11.73 59.5197 10.6992 59.5909C10.3396 58.8149 10.4515 57.9913 10.5154 57.1519C11.0907 57.1044 11.6661 57.0569 12.2494 56.9935C12.4013 56.9777 12.5771 56.9618 12.6969 56.8826C12.9926 56.6847 13.2483 56.7559 13.536 56.9618V56.9539Z" fill="#D9D9D9"/>
<path d="M8.76564 55.5679C7.77475 55.6154 6.90373 55.655 5.97677 55.7025C6.23249 55.1561 6.10463 54.6493 5.97677 54.1425C5.87556 53.7571 5.89686 53.3479 6.0407 52.915H8.86952C8.94144 53.7941 8.80559 54.6889 8.77363 55.5758L8.76564 55.5679Z" fill="#D9D9D9"/>
<path d="M20.6159 64.762C20.9755 64.5402 21.431 64.6353 21.8785 64.6194C22.318 64.6115 22.7655 64.564 23.2689 64.5244C23.3169 64.8333 23.4127 65.1342 23.4048 65.4272C23.4048 66.0845 23.3808 66.0845 23.7164 66.5517C23.7164 66.5913 23.7164 66.6309 23.7084 66.6625C23.6525 66.7813 23.5806 66.9001 23.5646 66.9397C22.6136 67.3594 21.6947 66.9951 20.7997 67.1298C20.2163 66.4171 20.0805 65.6568 20.6239 64.7541L20.6159 64.762Z" fill="#D9D9D9"/>
<path d="M18.7549 63.0355C18.2115 63.0592 17.74 63.3127 17.2126 63.0988C17.0848 63.0513 16.909 63.1305 16.7572 63.1543C16.6453 63.1701 16.5254 63.2097 16.4135 63.2018C16.0699 63.1859 15.7343 63.1464 15.3507 63.1147C15.3827 62.6554 15.3028 62.1802 14.8633 61.8318C15.0231 61.5705 15.1749 61.325 15.3667 61.0082C15.7343 61.032 16.1339 61.0716 16.5334 61.0716C17.1887 61.0716 17.8599 61.1983 18.4672 60.9053C18.9227 61.5546 18.715 62.2673 18.7549 63.0355Z" fill="#D9D9D9"/>
<path d="M6.36739 65.0945C7.26238 65.0786 8.07747 64.9203 8.89255 65.2687C8.74072 65.7201 8.78067 66.124 8.95648 66.5674C9.07634 66.8525 8.98045 67.2168 8.98045 67.5652C8.68478 67.6761 8.37313 67.787 8.06947 67.8978C7.98157 67.9295 7.84573 67.977 7.78979 67.9374C7.23042 67.589 6.72698 67.9533 6.18359 68.072C6.24752 67.0901 6.30346 66.116 6.37538 65.0945H6.36739Z" fill="#D9D9D9"/>
<path d="M20.6393 56.962C21.4464 56.8669 22.2615 56.7719 23.1325 56.6689C23.1405 56.8511 23.1645 56.9619 23.1485 57.0649C23.0686 57.7143 23.3163 58.3874 22.9967 59.0288C22.9567 59.108 23.0366 59.2506 23.0686 59.4327C22.2775 59.6069 21.4864 59.694 20.6233 59.5831C20.4475 59.1397 20.3037 58.6725 20.4955 58.126C20.6073 57.7855 20.5914 57.4054 20.6393 56.962Z" fill="#D9D9D9"/>
<path d="M6.02415 59.773C6.0721 59.5196 6.10406 59.2345 6.18397 58.9574C6.28785 58.6089 6.26388 58.2764 6.16 57.9279C6.0721 57.6191 6.05612 57.2944 5.99219 56.8984C6.52759 57.0172 6.94312 57.1519 7.37463 57.1994C7.79816 57.2469 8.23766 57.2073 8.67717 57.2073C8.81302 58.0229 8.97284 58.8782 8.66119 59.773C8.30159 59.8443 7.942 59.9314 7.50249 59.8047C7.07098 59.678 6.57553 59.781 6.01616 59.781L6.02415 59.773Z" fill="#D9D9D9"/>
<path d="M10.4922 61.3489C11.563 61.2935 12.5938 61.2381 13.6566 61.1826C13.8085 61.3806 13.9603 61.5706 14.0881 61.7449C13.9363 62.0616 13.7685 62.3309 13.6886 62.616C13.6087 62.901 13.7925 63.2416 13.5048 63.5346C13.337 63.4871 13.1532 63.4158 12.9694 63.3841C12.7377 63.3445 12.482 63.2495 12.2742 63.3128C11.7388 63.4791 11.2354 63.4316 10.676 63.2099C10.5481 63.0198 10.4682 62.7743 10.5481 62.4813C10.684 61.9428 10.676 61.9428 10.4922 61.341V61.3489Z" fill="#D9D9D9"/>
<path d="M14.031 51.2915H10.1074V49.7631C10.3711 49.5414 10.6828 49.478 11.0424 49.6602C11.1063 49.6918 11.2102 49.7077 11.2741 49.676C11.8734 49.4226 12.5367 49.5176 13.16 49.3513C13.3518 49.3038 13.5675 49.3117 13.8312 49.2959C13.6794 49.9849 13.6554 50.5946 14.039 51.2915H14.031Z" fill="#D9D9D9"/>
<path d="M15.0859 51.015V49.3441C15.3976 49.3441 15.7572 49.3441 16.1168 49.3441C16.4684 49.3441 16.812 49.3679 17.1636 49.3441C17.667 49.3045 18.1705 49.2253 18.6819 49.1858C18.8177 49.1778 18.9935 49.2095 19.0974 49.2887C19.1534 49.3362 19.0974 49.5263 19.0735 49.653C19.0255 49.9381 18.9456 50.2152 18.9216 50.5003C18.8897 50.9675 18.554 51.2051 18.1225 51.015C17.7869 50.8646 17.4912 50.8408 17.1636 51.015C17.0517 51.0784 16.8999 51.1101 16.772 51.1022C16.2127 51.0863 15.6533 51.0546 15.0939 51.023L15.0859 51.015Z" fill="#D9D9D9"/>
<path d="M9.03791 51.4819C8.01506 51.5928 7.0002 51.6957 5.94539 51.8066C5.90543 51.4503 5.6657 51.1652 5.7536 50.7613C5.83351 50.4129 5.76958 50.0327 5.76958 49.6843C6.08123 49.5338 6.33695 49.5101 6.60065 49.6526C6.69654 49.7081 6.83239 49.7239 6.94426 49.7239C7.63948 49.7001 8.3347 49.6606 9.03791 49.621V51.4819Z" fill="#D9D9D9"/>
<path d="M20.6475 61.0475C21.4866 60.9841 22.2937 60.9208 23.1167 60.8574C23.1647 61.2455 23.2126 61.6414 23.2606 62.0294C23.3085 62.4254 23.3565 62.8213 23.4044 63.2173C22.5973 63.2173 21.8462 63.2331 21.095 63.2173C20.7194 63.2094 20.5996 63.0431 20.5756 62.663C20.5676 62.4887 20.5916 62.2987 20.5356 62.1403C20.3918 61.7602 20.4717 61.4197 20.6395 61.0475H20.6475Z" fill="#D9D9D9"/>
<path d="M5.96875 61.2061C6.632 61.4515 7.18338 61.5149 7.7907 61.3407C8.11833 61.2456 8.50989 61.3882 8.80556 61.4199C8.86949 61.8554 8.90944 62.2276 8.98935 62.5919C9.08525 63.0512 8.91744 63.3204 8.43797 63.4155C8.11034 63.4788 7.7907 63.5659 7.46307 63.5818C7.13544 63.5976 6.79982 63.5342 6.41625 63.4947C6.31236 63.2967 6.15254 63.067 6.25643 62.7819C6.40826 62.3622 6.30437 61.9821 6.09661 61.6099C6.04067 61.5149 6.03268 61.404 5.97674 61.2061H5.96875Z" fill="#D9D9D9"/>
<path d="M23.2206 49.1299C23.1806 49.6605 23.1327 50.1673 23.0848 50.7533C22.861 50.7533 22.6772 50.8008 22.5254 50.7454C22.0699 50.5791 21.6384 50.6899 21.1909 50.777C20.9751 50.8166 20.7514 50.777 20.5116 50.777C20.4877 50.4286 20.5037 50.1594 20.4477 49.898C20.3998 49.6605 20.2 49.4466 20.4477 49.1299H23.2126H23.2206Z" fill="#D9D9D9"/>
<path d="M46.9383 28.762C46.9143 29.4905 46.0673 30.0528 45.0524 30.0211C44.0375 29.9894 43.2305 29.3718 43.2544 28.6432C43.2784 27.9147 44.1254 27.3524 45.1403 27.3841C46.1552 27.4158 46.9623 28.0334 46.9383 28.762Z" fill="#F5E2CF"/>
<path d="M63.1681 29.593C63.1441 30.3215 61.9534 30.8759 60.5071 30.8204C59.0607 30.765 57.91 30.1473 57.934 29.4188C57.9579 28.6902 59.1486 28.1359 60.595 28.1913C62.0413 28.2388 63.1921 28.8644 63.1681 29.593Z" fill="#F5E2CF"/>
</g>
<defs>
<clipPath id="clip0_6_724">
<rect width="88" height="110" fill="white"/>
</clipPath>
</defs>
</svg>
