<svg width="96" height="110" viewBox="0 0 96 110" fill="none" xmlns="http://www.w3.org/2000/svg">
<g clip-path="url(#clip0_6_777)">
<path d="M67.8414 115.913L61.9695 116.652L59.3489 113.178L57.0394 116.332C57.0394 116.332 51.3723 116.192 46.7861 115.839C43.7969 115.609 41.9543 115.428 41.422 114.714C40.8651 113.966 41.0125 112.061 41.1517 108.653C41.4711 100.621 42.2327 87.3906 41.9379 84.8857C41.9379 84.8857 33.6665 95.3403 31.6764 95.2171C27.8846 94.9872 17.918 70.5794 17.918 70.5794L24.2157 66.5799L31.66 77.9379C31.66 77.9379 38.3754 57.6364 40.0543 56.8973C41.7332 56.1582 51.4214 53.793 51.4214 53.793L70.9944 86.2408L67.8496 115.905L67.8414 115.913Z" fill="#A5C3CF"/>
<path d="M89.47 69.7741C89.7402 70.3819 89.9859 70.9403 90.2398 71.4988C90.379 71.7944 90.5019 72.0983 90.6738 72.3775C91.0506 72.9852 91.3536 73.6258 91.5501 74.3239C91.7794 75.1123 92.0742 75.8843 92.41 76.6398C92.6967 77.2722 92.9178 77.9456 93.1635 78.6026C93.229 78.7833 93.3191 78.9476 93.3846 79.1282C93.4665 79.3418 93.6221 79.5717 93.5975 79.7688C93.5402 80.1877 93.7203 80.4833 93.9333 80.779C94.2035 81.1321 94.3509 81.5099 94.2936 81.9616C94.2363 82.3722 94.5229 82.6679 94.7358 82.9307C95.1945 83.4891 95.4647 84.0968 95.5302 84.8195C95.5384 84.9509 95.5384 85.1234 95.6203 85.2055C96.169 85.764 95.9889 86.5113 96.1199 87.1683C96.2591 87.8664 95.9561 88.5234 95.7432 89.1804C95.7104 89.2872 95.6285 89.4104 95.6531 89.5007C95.7595 89.8785 95.6367 90.2234 95.5876 90.5848C95.5302 91.0529 95.4401 91.4881 95.1945 91.8988C95.1208 92.022 95.1208 92.1944 95.1208 92.3422C95.1208 92.7365 94.9733 93.0485 94.7113 93.3278C94.5802 93.4674 94.441 93.6234 94.3919 93.7959C94.2035 94.5186 93.9415 95.2166 93.9087 95.9722C93.8841 96.4978 93.5811 96.9166 93.3436 97.3519C93.0898 97.8118 92.9178 98.2717 92.8359 98.8055C92.7622 99.2901 92.5083 99.7418 92.3363 100.21C92.2626 100.423 92.1643 100.629 92.1152 100.85C91.9678 101.499 91.804 102.132 91.1406 102.468C90.9113 102.583 90.8049 102.789 90.8294 103.043C90.8704 103.487 90.682 103.832 90.3872 104.127C90.1497 104.374 90.0187 104.636 89.9941 104.998C89.9777 105.228 89.8221 105.466 89.6665 105.647C89.0032 106.443 88.9622 107.314 89.3553 108.234C89.4864 108.546 89.5109 108.841 89.47 109.186C89.4208 109.597 89.5109 110.024 89.5355 110.443C89.5519 110.673 89.5437 110.903 89.5437 111.133C89.5437 111.248 89.5109 111.379 89.5437 111.469C89.732 111.88 89.6993 112.291 89.6338 112.718C89.6092 112.882 89.6665 113.054 89.7075 113.219C89.8876 113.892 89.8467 114.516 89.3471 115.058C89.1915 115.222 89.0605 115.428 88.9704 115.633C88.6428 116.405 88.1105 116.881 87.2424 116.955C87.0786 116.972 86.9066 117.111 86.7838 117.243C86.4562 117.588 86.1696 117.982 85.6864 118.163C85.4161 118.261 85.1623 118.286 84.9002 118.163C84.5562 118.007 84.2041 117.85 83.7291 117.637C83.639 117.768 83.4998 117.916 83.4261 118.089C83.2377 118.524 82.8446 118.68 82.4597 118.861C82.0421 119.058 81.649 119.041 81.2641 118.754C80.9201 118.507 80.5516 118.302 80.1994 118.08C79.8554 118.204 79.5279 118.31 79.2085 118.434C78.9137 118.54 78.6352 118.483 78.3813 118.319C78.1275 118.146 77.8654 117.982 77.6525 117.76C77.3822 117.481 77.1529 117.152 76.8499 116.775C76.4404 117.005 75.8016 116.807 75.3512 117.259C75.3348 117.276 75.3184 117.284 75.3021 117.292C74.7206 117.464 74.1473 117.653 73.5577 117.785C73.2383 117.859 72.9926 117.982 72.7961 118.245C72.3293 118.91 71.9443 118.967 71.24 118.524C71.1418 118.466 71.0435 118.392 70.937 118.376C70.2 118.22 69.4957 117.982 68.906 117.473C68.8487 117.423 68.7668 117.407 68.7013 117.382C68.3491 117.251 67.997 117.12 67.5629 116.955C66.6621 117.3 65.9578 116.89 65.5975 115.707C65.4337 115.173 65.3681 114.648 65.7121 114.171C65.5565 113.949 65.4009 113.769 65.3026 113.564C65.2044 113.342 65.1225 113.095 65.0897 112.857C65.0406 112.496 65.0651 112.126 65.0078 111.765C64.975 111.568 64.8522 111.371 64.7212 111.223C64.41 110.87 64.2544 110.484 64.3035 110.007C64.3526 109.515 64.1888 109.079 63.9514 108.636C63.722 108.201 63.6156 107.7 63.46 107.232C63.4354 107.158 63.46 107.067 63.419 107.002C63.0014 106.23 62.9768 105.384 62.8621 104.546C62.813 104.177 62.5755 103.84 62.4527 103.478C62.3708 103.224 62.338 102.961 62.2889 102.698C62.2725 102.624 62.2889 102.542 62.2643 102.468C62.0514 101.795 61.8139 101.121 61.6173 100.44C61.4454 99.8567 61.3225 99.2572 61.1751 98.6659C61.0768 98.2964 60.9704 97.9268 60.8721 97.549C60.6755 96.8017 60.4872 96.0625 60.2988 95.3152C60.2824 95.2413 60.2661 95.1592 60.2742 95.0852C60.3234 94.6418 60.176 94.264 60.0368 93.8369C59.8566 93.2703 59.7829 92.6707 59.4389 92.1616C59.3652 92.0466 59.3816 91.8659 59.3488 91.677C58.9066 91.6113 58.6282 91.3567 58.4971 90.9215C58.4644 90.8229 58.3497 90.749 58.276 90.6669C58.1777 90.5519 58.0467 90.4451 57.9894 90.3055C57.7273 89.7142 57.4816 89.1065 57.2277 88.5152C57.1868 88.4084 57.1213 88.3099 57.0721 88.2031C56.6053 87.193 56.1467 86.1828 55.6799 85.1727C55.598 85.0002 55.5079 84.8278 55.4342 84.6553C55.2131 84.1625 54.9838 83.6698 55.1066 83.1031C55.1722 82.8239 55.1067 82.5611 54.8773 82.364C54.5989 82.1176 54.4761 81.822 54.4515 81.4442C54.4351 81.2224 54.3532 80.9925 54.2467 80.7872C54.0584 80.3848 53.8045 80.0152 53.9028 79.5306C53.911 79.4814 53.8782 79.4075 53.8373 79.3746C53.4605 79.0625 53.3705 78.6437 53.3705 78.1838C53.3705 78.0442 53.264 77.9046 53.2067 77.7567C53.1493 77.5925 53.0265 77.42 53.0511 77.2722C53.1248 76.7466 52.9118 76.3113 52.6907 75.8596C52.5106 75.4983 52.4942 75.0877 52.486 74.677C52.4696 74.291 52.3386 73.8804 52.1584 73.5355C51.9291 73.0838 51.7244 72.6485 51.6589 72.1311C51.5933 71.6055 51.4132 71.0881 51.2821 70.5625C51.2412 70.3901 51.1757 70.2258 51.1757 70.0534C51.1757 69.4867 51.233 68.9282 50.8235 68.4355C50.7334 68.3287 50.7744 68.0988 50.799 67.9345C50.8808 67.4746 50.8153 67.0558 50.5451 66.6698C50.4714 66.563 50.4304 66.4316 50.3731 66.3084C50.111 65.7089 50.2011 65.0108 49.8408 64.436C49.7916 64.3621 49.7916 64.2389 49.8244 64.1567C50.0046 63.6393 49.7753 63.1712 49.677 62.6867C49.5705 62.1611 49.505 61.6355 49.3166 61.1263C49.2266 60.8881 49.2839 60.5925 49.2675 60.3215C49.2593 60.1736 49.2675 60.0094 49.2184 59.878C48.9809 59.2621 48.8089 58.6543 48.9317 57.9727C48.9891 57.6524 48.9727 57.3075 48.8253 56.9625C48.686 56.6258 48.7106 56.2152 48.6779 55.8374C48.6615 55.6567 48.7024 55.4761 48.7188 55.2133C48.2684 55.4022 47.9326 55.5828 47.5723 55.6896C47.302 55.7717 47.0154 55.8046 46.7287 55.7964C46.4667 55.7881 46.2538 55.8128 46.0326 55.977C45.6559 56.2563 45.2219 56.4123 44.7469 56.4369C44.362 56.4616 43.9853 56.5191 43.6822 56.8147C43.584 56.9133 43.4038 57.0036 43.2728 56.9954C42.8223 56.9954 42.4784 57.2253 42.1017 57.406C41.8314 57.5374 41.5202 57.5703 41.2254 57.6524C40.7504 57.7838 40.2672 57.9234 39.8332 58.0466C39.6366 58.3669 39.4482 58.6625 39.2681 58.9746C39.2189 59.0567 39.1862 59.1471 39.1616 59.2292C38.9569 59.8287 38.7603 60.4282 38.5556 61.0278C38.4819 61.2495 38.4164 61.4712 38.3508 61.693C38.1379 62.4403 37.794 63.122 37.3845 63.7707C37.3108 63.8939 37.2534 64.05 37.2453 64.1978C37.2207 64.7152 37.0897 65.1833 36.7211 65.5693C36.3854 65.9142 36.369 66.407 36.3362 66.8176C36.2789 67.5814 35.9104 68.2137 35.6647 68.8954C35.6155 69.035 35.5418 69.1828 35.5418 69.3307C35.5418 69.7413 35.3862 70.0616 35.1487 70.3901C34.9604 70.6447 34.8785 70.9814 34.7966 71.2935C34.6983 71.663 34.6655 72.0572 34.5509 72.4186C34.4608 72.706 34.3216 72.9935 34.1332 73.2234C33.9858 73.4123 33.8957 73.5848 33.8712 73.8394C33.8466 74.1596 33.7401 74.4717 33.6746 74.7838C33.6337 74.9727 33.5927 75.1616 33.5763 75.3505C33.5436 75.7529 33.4207 76.1142 33.085 76.3606C32.8966 76.5002 32.8639 76.6891 32.8065 76.9026C32.7164 77.2558 32.5854 77.5925 32.4298 77.921C32.2906 78.2002 32.2169 78.4384 32.3889 78.734C32.4871 78.8901 32.5772 79.1118 32.5445 79.2761C32.3807 80.1137 32.8966 80.8857 32.7246 81.7152C33.085 82.4625 32.6673 83.1524 32.569 83.8587C32.5117 84.2364 32.135 84.5485 31.8156 84.5485C31.5126 84.5485 31.185 84.2529 31.0785 83.8997C30.9884 83.5877 30.8902 83.2756 30.8001 82.9553C30.7837 82.8978 30.7428 82.8485 30.7428 82.791C30.7182 82.0848 30.6854 81.3703 30.7018 80.664C30.7018 80.434 30.7182 80.2205 30.6609 79.9906C30.579 79.6785 30.5053 79.3171 30.5872 79.0297C30.7346 78.5451 30.4889 78.2741 30.2104 77.9703C29.6617 77.379 29.154 76.7794 29.1294 75.8925C29.1294 75.7282 28.9247 75.5558 28.7936 75.3997C28.638 75.2108 28.4579 75.0384 28.2941 74.8577C28.1794 74.7263 28.0812 74.5949 27.9747 74.4553C27.86 74.3075 27.7126 74.1596 27.6307 73.9954C27.4014 73.5273 27.1967 73.0509 26.9838 72.5828C26.9592 72.5335 26.951 72.4679 26.9101 72.4268C26.476 71.9422 26.1648 71.4002 26.1075 70.735C25.7144 70.3901 25.6652 69.8152 25.2476 69.4621C25.0101 69.2567 24.9118 68.8708 24.7644 68.5587C24.5351 68.0741 24.314 67.5896 24.0847 67.105C23.4213 67.5732 22.8317 68.0084 22.2174 68.4191C21.8735 68.649 21.4804 68.7968 21.161 69.0843C20.7761 69.421 20.3011 69.6592 19.867 69.9302C19.7524 70.0041 19.6377 70.1026 19.5149 70.1108C19.0808 70.1519 18.8679 70.3983 18.7778 70.7432C18.9662 71.2442 19.1382 71.7123 19.3183 72.1722C19.3839 72.3282 19.4739 72.4761 19.5477 72.6321C19.6541 72.8538 19.7606 73.0756 19.8589 73.3055C19.9162 73.4287 19.9162 73.593 20.0063 73.6751C20.3502 74.0282 20.4567 74.4307 20.3093 74.907C20.8416 75.2519 21.0873 75.7611 21.2675 76.3195C21.4149 76.7712 21.6032 77.2065 21.7752 77.6582C21.8243 77.7978 21.8653 77.9538 21.9062 78.1017C21.9144 78.1345 21.8981 78.1838 21.9062 78.2166C22.1847 78.7258 22.4304 79.2596 22.7661 79.7278C22.9627 79.9988 23.1265 80.2451 23.2166 80.5736C23.3067 80.9186 23.5278 81.2224 23.6588 81.5592C23.9291 82.2079 24.3959 82.7993 24.3631 83.5466C24.3549 83.8012 24.445 83.949 24.6415 84.064C25.0428 84.3022 25.3295 84.6142 25.3786 85.107C25.3868 85.2137 25.4523 85.3287 25.526 85.4108C25.7963 85.7311 25.9764 86.0843 26.0092 86.5031C26.0092 86.577 26.0502 86.6592 26.0911 86.7166C26.3614 87.1273 26.6807 87.5133 26.9101 87.9485C27.1066 88.3345 27.2049 88.7698 27.385 89.2872C27.6062 89.4761 27.9419 89.7307 28.245 90.0263C28.3842 90.1659 28.5234 90.3877 28.5316 90.5765C28.548 90.9297 28.7281 91.1022 28.9656 91.3157C29.2523 91.5867 29.5389 91.9316 29.6617 92.293C29.8255 92.7857 30.2022 93.0896 30.4889 93.4509C30.8165 93.8616 31.357 93.7548 31.8402 93.7384C32.5772 93.7137 33.1341 93.3606 33.6173 92.8268C33.8875 92.5311 34.2315 92.3094 34.5099 92.0137C34.9849 91.5128 35.419 90.9708 35.894 90.4698C36.3362 90.0017 36.8194 89.5664 37.2862 89.1229C37.3927 89.0162 37.5319 88.9094 37.6711 88.8765C38.0642 88.7862 38.228 88.4988 38.359 88.1621C38.3754 88.1292 38.3836 88.0881 38.3918 88.0553C38.5392 87.4722 38.8176 87.0205 39.4646 86.9466C39.481 86.1664 39.7676 85.5915 40.4392 85.2548C40.865 85.0413 41.1107 84.7703 41.0043 84.2118C40.9142 83.7273 40.9797 83.2181 40.9715 82.7171C40.9715 82.3476 41.1271 82.1176 41.4219 82.0765C41.7249 82.0355 41.9461 82.1915 42.0116 82.5693C42.118 83.1935 42.1836 83.8258 42.2736 84.45C42.3473 84.9592 42.4948 85.4601 42.5275 85.9693C42.5767 86.7659 42.6585 87.5625 42.7323 88.3592C42.7404 88.4659 42.6995 88.5973 42.6504 88.6959C42.2654 89.4186 42.3228 90.1249 42.6667 90.8476C42.765 91.0529 42.8305 91.2993 42.8141 91.521C42.7732 92.4736 42.8223 93.4427 42.4866 94.3708C42.4456 94.4775 42.4866 94.6253 42.5111 94.7485C42.5603 95.0113 42.6749 95.2741 42.6585 95.5369C42.6176 96.1118 42.5193 96.6785 42.4456 97.2534C42.4292 97.4094 42.3719 97.5654 42.3883 97.7133C42.4538 98.3128 42.4374 98.8959 42.159 99.4543C42.118 99.5364 42.1262 99.6432 42.1344 99.7336C42.1836 100.128 42.2818 100.53 42.29 100.924C42.2982 101.286 42.2163 101.639 42.1754 102C42.1508 102.23 42.0607 102.468 42.118 102.674C42.3064 103.363 42.2818 104.045 42.118 104.727C42.1017 104.809 42.118 104.916 42.1426 104.998C42.462 105.893 42.5275 106.788 42.29 107.724C42.2245 107.995 42.29 108.299 42.2818 108.587C42.2818 109.203 42.2409 109.81 42.2327 110.426C42.2163 111.363 41.9297 112.274 41.5366 113.136C41.3728 113.498 41.078 113.72 40.6521 113.646C40.2508 113.572 40.0707 113.276 40.0133 112.915C39.9642 112.619 39.9642 112.307 39.9396 112.003C39.9232 111.79 39.915 111.584 39.9069 111.371C39.8905 110.985 39.8413 110.599 39.8659 110.221C39.915 109.433 39.9888 108.652 40.0543 107.872C40.0543 107.831 40.0543 107.79 40.0379 107.757C39.7267 107.035 39.9888 106.304 40.0379 105.581C40.0379 105.564 40.0379 105.54 40.0461 105.523C40.3081 105.047 40.2672 104.546 40.2263 104.029C40.1935 103.569 40.2508 103.109 40.4064 102.665C40.4801 102.444 40.4637 102.156 40.39 101.935C40.1853 101.245 40.3655 100.588 40.5293 99.9471C40.6112 99.6268 40.6603 99.3476 40.5456 99.0519C40.4146 98.7152 40.3737 98.3867 40.4965 98.0336C40.5456 97.8939 40.5456 97.7297 40.5456 97.5736C40.5211 96.9413 40.4556 96.3089 40.4637 95.6765C40.4637 95.3563 40.5538 95.036 40.6603 94.7321C40.7258 94.5432 40.7422 94.3872 40.7258 94.1901C40.6603 93.607 40.6521 93.0075 40.6275 92.4162C40.6275 92.2601 40.6275 92.1123 40.6275 91.9563C40.6275 91.4881 40.6849 91.0529 40.9224 90.6176C41.1926 90.1331 41.2172 89.5418 40.9961 89.0572C40.7913 88.6055 40.7258 88.1867 40.775 87.7186C40.775 87.6447 40.7749 87.5707 40.7668 87.4886C40.4719 87.4311 40.2918 87.5133 40.2836 87.8171C40.2672 88.3181 39.9806 88.6137 39.5547 88.8437C39.1207 89.0736 38.7603 89.3529 38.6702 89.9113C38.6293 90.1741 38.4327 90.4451 38.2362 90.6505C37.45 91.5128 36.8276 92.5147 35.9759 93.3113C35.5828 93.6809 35.1569 94.0094 34.7474 94.3543C34.5427 94.5268 34.3462 94.7075 34.1414 94.8717C34.0104 94.9785 33.8712 95.1017 33.7156 95.1592C33.2897 95.3234 32.8557 95.5534 32.4052 95.5862C31.8238 95.6273 31.2014 95.6026 30.6527 95.422C29.801 95.1427 29.1049 94.5843 28.6299 93.7959C28.5889 93.7302 28.5398 93.6645 28.4824 93.6234C27.8764 93.221 27.4833 92.6872 27.3359 91.9727C27.3113 91.8659 27.1721 91.7674 27.0657 91.7099C26.7217 91.5128 26.5415 91.2171 26.4842 90.8311C26.4269 90.4944 26.345 90.1577 26.2631 89.8046C25.7553 89.4925 25.2885 89.1229 25.2148 88.4577C24.789 88.0799 24.8053 87.4229 24.3467 87.0534C24.2566 86.9877 24.1911 86.8727 24.1502 86.7741C23.9782 86.3471 23.8226 85.9282 23.5114 85.5669C23.3722 85.4026 23.364 85.0906 23.364 84.8524C23.364 84.5567 23.2903 84.3761 23.0446 84.179C22.7743 83.9572 22.5942 83.6123 22.3894 83.3166C21.9144 82.635 21.8981 81.7316 21.3248 81.0993C21.2511 80.4751 20.9235 79.9249 20.7515 79.3335C20.686 79.0954 20.6123 78.8901 20.4649 78.6683C20.1782 78.2495 19.9653 77.7732 19.736 77.3133C19.5886 77.0258 19.4494 76.722 19.3593 76.4099C19.2692 76.106 19.2528 75.7775 19.1791 75.3587C18.8679 75.1451 18.6878 74.7509 18.5403 74.2664C18.3929 73.7901 18.1718 73.3055 17.9998 72.821C17.8197 72.32 17.6067 71.8273 17.3774 71.2688C16.9925 71.236 16.5667 70.9567 16.0671 71.1128C15.9524 71.1456 15.7805 71.1128 15.674 71.0471C15.0598 70.6693 14.3555 70.6693 13.6839 70.5707C13.1762 70.4886 12.6766 70.4147 12.2426 70.0451C11.8822 69.7249 11.3909 69.8891 10.9732 69.963C10.2689 70.078 9.57279 70.1437 8.87668 69.9712C8.69651 69.9302 8.49996 69.9137 8.3116 69.922C7.88574 69.9384 7.46808 69.9712 7.04222 70.0041C6.75559 70.0287 6.51809 69.9384 6.28878 69.7741C6.14137 69.6674 5.95301 69.5278 5.78922 69.536C4.76553 69.577 4.14312 69.0268 3.66813 68.1398C3.2996 68.1727 2.92288 68.1891 2.54616 68.2302C1.95651 68.3041 1.50609 67.9427 1.44057 67.3186C1.39962 66.9819 1.35868 66.6451 1.31773 66.2838C1.12937 66.2756 1.02291 66.2756 0.908252 66.2674C0.482396 66.2345 0.334984 66.0949 0.253089 65.6843C0.220331 65.5036 0.154814 65.3229 0.0729189 65.1587C-0.164578 64.6823 -0.115441 64.2389 0.285847 63.9021C0.547912 63.6886 0.850925 63.4997 1.16213 63.3765C1.68626 63.1712 2.03022 62.7524 2.43151 62.4157C2.7509 62.1447 3.01297 61.8162 3.31598 61.5287C3.38149 61.463 3.47158 61.422 3.56166 61.3891C3.97114 61.2331 4.38062 61.0688 4.79829 60.9292C5.10949 60.8307 5.42069 60.7239 5.74008 60.7075C6.23146 60.6746 6.72283 60.7732 7.17325 60.42C7.32066 60.305 7.61549 60.379 7.8448 60.379C8.16419 60.379 8.49177 60.3954 8.81116 60.379C9.37624 60.3461 9.94132 60.2804 10.5064 60.2558C10.7275 60.2476 10.9568 60.3133 11.1861 60.3379C11.4318 60.3625 11.6693 60.3707 11.9969 60.3872C11.9068 60.2147 11.8741 60.1079 11.8167 60.0258C11.7512 59.9355 11.6284 59.878 11.5792 59.7794C11.481 59.5988 11.3663 59.4017 11.3417 59.1964C11.2598 58.6133 11.2107 58.0302 11.1616 57.4471C11.1616 57.3649 11.2189 57.2336 11.2926 57.2007C11.7348 56.9543 12.1689 56.634 12.6521 56.5191C13.1844 56.3959 13.6594 56.749 14.0361 57.1104C14.2245 57.291 14.4046 57.4224 14.6339 57.521C15.2236 57.7756 15.805 58.063 16.4029 58.3258C16.5011 58.3669 16.624 58.3587 16.7386 58.3587C17.5248 58.3587 18.3192 58.3094 19.0808 58.6215C19.1464 58.6461 19.2365 58.6461 19.3102 58.6379C19.8343 58.564 20.3011 58.7365 20.7433 58.991C21.2429 59.2785 21.7506 59.5495 22.2338 59.8534C22.5778 60.0669 22.889 60.3297 23.0446 60.7321C23.0773 60.8224 23.1265 60.9292 23.2002 60.9703C23.7898 61.2823 23.9946 61.8819 24.1502 62.4403C24.2976 62.9577 24.3303 63.5654 24.2075 64.0828C24.0683 64.6823 24.3303 65.1422 24.6497 65.4215C25.0265 65.75 25.3049 66.1031 25.5588 66.5055C25.8864 67.0229 26.2385 67.5321 26.5825 68.0413C26.6807 68.1891 26.8363 68.3369 26.8363 68.4848C26.8282 69.0268 27.2376 69.3881 27.3769 69.8645C27.4178 70.0123 27.598 70.1191 27.7044 70.2505C27.8928 70.4722 28.1467 70.6611 28.2368 70.9157C28.4824 71.5891 28.9984 72.0654 29.3423 72.665C29.5061 72.9442 29.6454 73.2316 29.7928 73.5191C29.8583 73.634 29.9238 73.7572 29.9648 73.8804C30.0548 74.1268 30.1695 74.3732 30.2104 74.636C30.2514 74.9234 30.3497 75.1205 30.5953 75.3012C30.8492 75.4819 31.0376 75.7611 31.2751 76.0239C31.2833 75.9664 31.316 75.9089 31.2996 75.8514C31.2014 75.3833 31.3324 74.9809 31.6272 74.6031C31.7419 74.4553 31.7828 74.2582 31.8729 74.0939C32.0531 73.7572 32.307 73.4534 32.4216 73.092C32.5363 72.7389 32.4544 72.3282 32.5526 71.9587C32.6509 71.5727 32.8884 71.2278 33.0195 70.8418C33.1505 70.4476 33.3716 70.078 33.2979 69.6263C33.2651 69.4374 33.3307 69.1828 33.4371 69.0186C33.7975 68.493 33.9285 67.9017 34.0841 67.3021C34.1332 67.1215 34.2151 66.9408 34.3134 66.7765C34.5755 66.3495 34.8621 65.9389 35.116 65.5118C35.1979 65.3722 35.2306 65.1833 35.2306 65.0191C35.2306 64.5099 35.4436 64.0828 35.7711 63.7133C35.9349 63.5326 35.9595 63.3191 36.0332 63.0973C36.2298 62.4567 36.4673 61.8326 36.7539 61.2249C37.0241 60.6582 37.3845 60.1244 37.7039 59.5741C37.7448 59.5084 37.753 59.4181 37.8103 59.3688C38.2935 58.9582 38.3181 58.3176 38.5965 57.8084C38.6375 57.7345 38.6293 57.6278 38.6211 57.5292C38.6129 57.25 38.7358 57.0529 38.9569 56.8968C39.5711 56.478 40.1853 56.0509 40.8077 55.6403C40.9306 55.5582 41.0862 55.5171 41.2418 55.4761C41.7331 55.3529 42.2573 55.3365 42.6995 55.0079C42.7978 54.934 42.9697 54.9176 43.0926 54.9422C43.5103 55.0408 43.8542 54.8683 44.1818 54.6794C44.6322 54.4166 45.1154 54.3509 45.6232 54.3427C45.7788 54.3427 45.9671 54.3017 46.09 54.2113C46.9007 53.5954 47.7361 53.4147 48.7434 53.6939C48.8171 53.6036 48.9235 53.5133 48.9891 53.4065C49.2511 53.0123 49.5541 52.6756 50.0619 52.6017C50.1192 52.6017 50.1847 52.577 50.2175 52.5442C50.6434 52.1336 51.0528 51.7147 51.4869 51.3123C51.8226 51.0002 52.1666 50.6964 52.5433 50.4336C53.0101 50.105 53.5097 49.8176 54.0911 49.4563C54.4597 48.5611 53.9683 47.5099 54.2386 46.5079C53.7308 46.2369 53.2149 46.1302 52.6662 46.2451C52.6088 46.2534 52.5433 46.2698 52.4942 46.2451C51.8472 45.9577 51.0938 46.0234 50.4878 45.6046C50.3649 45.5224 50.2175 45.4567 50.0701 45.4321C49.6442 45.3664 49.3494 45.1364 49.0546 44.8326C48.8007 44.5698 48.4567 44.3398 48.1128 44.2084C47.5805 44.0031 47.1464 43.7321 46.9581 43.1408C46.2456 43.1079 45.7378 42.7302 45.312 42.1881C45.2055 42.0567 45.0499 41.9582 44.927 41.835C44.5749 41.4901 44.3128 41.1123 44.19 40.6195C44.1081 40.291 43.9689 39.9379 43.7396 39.6997C43.371 39.3055 43.24 38.8456 43.109 38.3611C43.068 38.205 42.9779 38.0244 42.8551 37.9505C42.4047 37.663 42.1917 37.2442 42.1754 36.735C42.159 36.3408 42.0116 36.0369 41.7741 35.7413C41.643 35.577 41.5202 35.3799 41.4874 35.191C41.3728 34.4848 40.9961 33.7949 41.3482 33.0558C41.381 32.9983 41.3728 32.8997 41.3482 32.834C41.0862 32.0867 41.2499 31.3147 41.1926 30.5592C41.1844 30.4195 41.1353 30.2635 41.0534 30.1485C40.3982 29.2041 39.8823 28.2022 39.8004 27.0195C39.7922 26.8553 39.7349 26.6746 39.6448 26.535C39.3582 26.0833 39.3664 25.607 39.5629 25.1471C39.7185 24.7775 39.7021 24.4408 39.5875 24.0794C39.3991 23.4799 39.2681 22.8886 39.6612 22.2973C39.7431 22.1741 39.7103 21.9606 39.7021 21.7881C39.6776 21.2297 39.7676 20.7616 40.1689 20.3017C40.4228 20.0224 40.4392 19.5215 40.5375 19.1108C40.7012 18.3799 40.8323 17.6408 40.9797 16.9099C40.9797 16.8688 40.9961 16.836 41.0124 16.8031C41.3237 16.2118 41.643 15.6205 41.9542 15.0292C42.0935 14.7582 42.2327 14.4872 42.3719 14.2162C42.4047 14.1505 42.4292 14.0683 42.4784 14.0108C42.8633 13.5674 43.2564 13.1239 43.6495 12.6968C43.8542 12.4751 44.0835 12.2616 44.2965 12.048C45.0089 11.3582 45.7051 10.6519 46.4503 10.0031C46.868 9.64176 47.3512 9.31326 47.8507 9.09973C48.3339 8.89442 48.7188 8.54949 49.1774 8.30312C49.7016 8.02389 50.2175 7.74466 50.5533 7.19442C50.6761 6.98089 50.9709 6.74273 51.192 6.74273C52.0192 6.74273 52.5351 5.78186 53.436 6.05287C53.7636 6.15142 54.083 6.07751 54.386 5.92969C54.8364 5.71616 55.3196 5.5437 55.7127 5.25626C56.0239 5.0263 56.2368 4.64853 56.4579 4.32002C56.7036 3.94225 57.023 3.61374 57.195 3.17027C57.2769 2.96495 57.5635 2.84998 57.7519 2.68572C58.1204 2.35722 58.6282 2.2094 58.9066 1.75771C58.923 1.72486 58.9721 1.70022 59.0049 1.70022C59.6437 1.6263 60.1186 1.20746 60.6592 0.920024C60.8639 0.813261 61.0604 0.706498 61.2406 0.566884C61.5928 0.29587 61.9695 0.172681 62.4117 0.156256C63.0014 0.139831 63.5992 0.00842991 64.1807 0.024855C64.6884 0.0412802 65.2044 0.156256 65.6957 0.287657C66.0479 0.377995 66.3673 0.566884 66.703 0.706498C66.7931 0.739348 66.8832 0.788623 66.9733 0.796836C67.7349 0.846111 68.1772 1.24853 68.2836 1.92196C68.644 2.15191 68.947 2.3408 69.2991 2.56254C69.7168 2.42292 70.2 2.23403 70.6913 2.10263C71.0926 1.98766 71.5103 1.93838 71.928 1.85626C71.9853 1.84804 72.059 1.87268 72.1 1.83983C72.5913 1.4949 73.1728 1.59345 73.7133 1.50312C74.0491 1.44563 74.3685 1.47027 74.6551 1.67558C74.909 1.86447 75.1792 1.88089 75.474 1.80698C75.8753 1.70843 76.2193 1.81519 76.5633 2.05336C77.0219 2.36543 77.5132 2.63645 77.9964 2.89925C78.4305 3.13742 78.758 3.46592 79.0201 3.88476C79.3641 4.435 79.8145 4.91954 80.1339 5.478C80.5024 6.12679 80.8628 6.80022 81.0757 7.5065C81.1903 7.89249 81.1903 8.31954 81.3705 8.70553C81.436 8.83693 81.4278 9.0094 81.4115 9.15722C81.3705 9.74853 81.5425 10.2988 81.7145 10.8408C81.7472 10.9393 81.8373 11.0379 81.9274 11.079C82.1321 11.1857 82.3451 11.2596 82.558 11.3418C82.8856 11.465 83.2459 11.6046 83.3524 11.9577C83.467 12.3355 83.7127 12.393 84.0321 12.4587C84.2287 12.4997 84.4907 12.5654 84.5808 12.7133C84.7856 13.0171 85.0804 13.1814 85.3752 13.3621C85.7929 13.6249 86.0713 13.9862 86.3334 14.4133C86.6773 14.9717 86.9558 15.5548 87.226 16.1543C87.2506 16.2036 87.2752 16.2611 87.3243 16.2939C87.8648 16.7128 87.873 17.3123 87.8976 17.92C87.9058 18.1828 88.004 18.4374 88.0532 18.692C88.1187 19.0451 88.2334 19.4065 88.2252 19.7678C88.2252 20.1867 88.1269 20.6137 88.0286 21.0244C87.9303 21.4514 87.7993 21.8703 87.7993 22.3302C87.7993 22.5683 87.5946 22.8065 87.4881 23.0529C87.4226 23.2007 87.2916 23.3567 87.2916 23.5046C87.2916 24.2026 86.964 24.6297 86.317 24.8432C86.2433 24.8678 86.1778 24.9089 86.1123 24.9418C86.0795 24.9582 86.0631 24.9993 85.9812 25.0896C86.3006 25.7384 86.6364 26.4118 86.9558 27.0935C87.0295 27.2495 87.0622 27.422 87.1032 27.5862C87.2178 28.1282 87.3407 28.6703 87.439 29.2123C87.5536 29.8036 87.6273 30.3949 87.3489 30.9698C87.267 31.134 87.2342 31.3311 87.2015 31.52C87.095 32.136 86.9394 32.7273 86.4972 33.2036C86.3907 33.3186 86.3498 33.5075 86.317 33.6717C86.1942 34.2302 86.1041 34.805 85.9567 35.3635C85.8748 35.6756 85.8092 35.963 86.0877 36.2094C86.145 36.2587 86.186 36.3326 86.2105 36.4065C86.5299 37.3099 87.3489 37.5398 88.1351 37.8601C88.2497 38.4678 87.8566 39.0427 87.2424 39.1577C86.7019 39.2563 86.1696 39.4287 85.6209 39.4944C84.9575 39.5848 84.286 39.6012 83.6226 39.6422C83.5326 39.6422 83.4261 39.6258 83.3442 39.593C82.6235 39.322 81.8865 39.1659 81.1166 39.1823C80.699 39.1906 80.3632 39.0345 80.1011 38.7307C79.8718 38.4596 79.6016 38.2707 79.233 38.2133C79.0201 38.1804 78.7908 38.049 78.627 37.9012C78.0783 37.4166 77.4723 36.9896 77.1038 36.3326C77.071 36.2669 77.0055 36.2258 76.94 36.1519C76.6861 36.2915 76.6861 36.5379 76.6615 36.7596C76.5551 37.5398 76.2602 38.2297 75.7115 38.8046C75.6378 38.8867 75.5559 38.9852 75.5314 39.092C75.4167 39.4862 75.2529 39.8476 74.9499 40.1432C74.868 40.2253 74.8516 40.3896 74.8434 40.5128C74.8025 41.063 74.5322 41.4572 74.0491 41.7036C73.7542 41.8514 73.5741 42.1142 73.3448 42.3442C72.9107 42.8041 72.5176 43.2886 72.1327 43.7814C72.0426 43.8964 71.8952 43.9867 71.7642 44.0524C71.0107 44.4466 70.3392 44.9393 69.6513 45.4321C69.4711 45.5553 69.2254 45.6128 69.0043 45.6374C68.3819 45.7195 67.825 45.8756 67.35 46.3519C67.1207 46.5901 66.7194 46.6476 66.3427 46.8118C66.2281 47.1485 66.1953 47.5509 66.5229 47.8959C66.5638 47.9369 66.5802 47.9944 66.5966 48.0519C66.7112 48.8075 67.3009 49.0703 67.8987 49.3413C68.1035 49.4316 68.3082 49.563 68.4474 49.7355C68.8733 50.2282 69.2009 50.8031 69.7741 51.1645C69.9789 51.2877 70.1099 51.534 70.2655 51.7311C70.3228 51.805 70.3638 51.9282 70.4375 51.9611C71.2974 52.2978 71.3547 53.2258 71.8461 53.8336C71.928 53.9321 71.9853 54.0553 72.0754 54.2031C72.8288 53.7104 73.5741 53.2997 74.4094 54.0389C74.868 53.8582 75.3266 53.7843 75.7934 54.0389C75.8671 54.0799 75.9818 54.0553 76.0719 54.0389C76.4732 53.9403 76.8253 54.0142 77.1775 54.236C77.3167 54.3181 77.5051 54.3838 77.6607 54.3674C78.2094 54.3181 78.6516 54.507 79.0119 54.893C79.2167 55.1065 79.4296 55.2133 79.7244 55.1886C79.8554 55.1804 80.0029 55.205 80.1175 55.2543C80.4615 55.4186 80.8218 55.435 81.1903 55.3857C81.5507 55.3365 81.8701 55.4186 82.1813 55.5992C82.5416 55.8128 82.8938 56.0509 83.3524 56.0017C83.467 55.9852 83.6308 56.0756 83.7045 56.1659C84.0321 56.5355 84.3351 56.9297 84.6381 57.3239C84.6955 57.3978 84.7364 57.4964 84.7446 57.5867C84.761 58.2355 85.1541 58.7282 85.3998 59.2867C85.5636 59.6563 85.6536 60.0505 85.8092 60.42C86.186 61.2988 86.6446 62.1529 86.9476 63.0563C87.1933 63.7872 87.4144 64.5099 87.8484 65.1587C88.0286 65.4215 88.1351 65.75 88.2252 66.0621C88.2989 66.3166 88.348 66.5959 88.3071 66.8422C88.2497 67.1543 88.3071 67.3843 88.5446 67.5649C89.0032 67.9181 89.1915 68.4355 89.3471 68.9447C89.4372 69.2403 89.3635 69.5852 89.3635 69.8316L89.47 69.7741Z" fill="black"/>
<path d="M45.688 64.5097C45.5078 64.1648 45.2703 64.017 45.0001 63.8445C44.2302 63.3682 43.6406 62.6865 43.0673 61.9967C42.9772 61.8899 42.9936 61.701 42.9609 61.5532C42.9363 61.4218 42.9609 61.2658 42.8872 61.1754C42.6415 60.8633 42.6579 60.5841 42.8872 60.2802C42.9609 60.1735 43.01 60.0421 43.051 59.9107C43.3048 59.1798 43.657 58.4981 44.1156 57.874C44.3531 57.5455 44.6807 57.4305 44.9591 57.5947C45.2294 57.759 45.2949 58.0875 45.0983 58.4653C44.7134 59.1962 44.3203 59.9107 43.96 60.5841C44.3449 60.9372 44.7052 61.2658 45.0738 61.586C45.1884 61.6846 45.344 61.7339 45.4669 61.8242C45.8026 62.0542 46.1138 62.3005 46.2694 62.7029C46.3186 62.8344 46.4578 62.9411 46.5479 63.0561C46.6544 63.1875 46.7608 63.3189 46.8755 63.4503C46.9901 63.5899 47.0884 63.7624 47.2358 63.8691C47.5388 64.0991 47.6125 64.3865 47.5388 64.7397C47.5224 64.8136 47.4979 64.8875 47.4651 64.9614C47.1457 65.6841 46.7362 66.3329 46.0975 66.8257C45.8845 66.9899 45.7044 67.2691 45.6307 67.5319C45.5078 67.9508 45.3031 68.2711 44.8363 68.4928C45.3358 68.9199 45.4177 69.5522 45.8927 69.9546C46.0647 70.1025 46.1794 70.3817 46.2203 70.6117C46.3268 71.2604 46.769 71.7532 47.0147 72.3281C47.0556 72.4184 47.1457 72.4841 47.1621 72.5745C47.3259 73.4532 47.9729 74.1431 48.153 75.0054C48.2923 75.6788 48.5543 76.2537 48.8655 76.8532C49.2095 77.502 49.3487 78.2658 49.6517 78.9474C49.8974 79.5058 50.2168 80.0315 50.5608 80.5406C50.7901 80.8773 51.003 81.1976 51.0849 81.6165C51.134 81.8793 51.3142 82.1421 51.4944 82.3474C51.7237 82.602 51.9038 82.8484 51.9612 83.1933C51.9857 83.3329 52.0513 83.5054 52.1577 83.5793C52.7801 83.9899 52.9521 84.6962 53.3288 85.2793C53.4681 85.501 53.5991 85.7392 53.7793 85.9281C54.0249 86.1909 54.2215 86.4455 54.287 86.815C54.3198 86.9875 54.4672 87.1353 54.5654 87.2914C54.7702 87.6116 54.9913 87.9237 55.196 88.244C55.2288 88.2933 55.2288 88.359 55.2616 88.4001C55.9331 89.2459 56.2607 90.2807 56.834 91.1841C57.0469 91.5208 56.9814 91.8411 56.6784 92.1121C56.3917 92.3667 56.0641 92.3749 55.7284 92.1532C55.196 91.8083 54.8848 91.2827 54.5654 90.7571C54.4098 90.4943 54.1724 90.2807 54.0249 90.0179C53.6892 89.443 53.3862 88.8517 53.0586 88.2687C52.9685 88.1044 52.8784 87.9237 52.731 87.8252C52.428 87.6116 52.2642 87.3324 52.1168 87.0039C52.0267 86.7986 51.8793 86.6179 51.7401 86.4455C51.437 86.0759 51.1013 85.7228 50.8146 85.3368C50.6918 85.1725 50.6099 84.959 50.569 84.7619C50.5198 84.4991 50.3806 84.3266 50.2004 84.1377C50.0121 83.9406 49.8237 83.6778 49.7828 83.415C49.7172 83.029 49.5534 82.7252 49.2832 82.4624C49.0375 82.2242 48.9147 81.945 48.8082 81.6247C48.5543 80.8609 48.2677 80.1136 47.7845 79.4566C47.6699 79.3005 47.6207 79.1117 47.5306 78.9392C47.416 78.7174 47.3505 78.4546 47.1785 78.2822C46.8345 77.9208 46.7281 77.4856 46.6216 77.0339C46.5725 76.8203 46.4742 76.5904 46.3431 76.4179C45.8845 75.8431 45.7207 75.1532 45.5406 74.4633C45.4832 74.2498 45.385 74.0445 45.3113 73.831C45.1393 73.3629 44.9264 72.903 44.8281 72.4184C44.7626 72.0817 44.6315 71.8025 44.4432 71.5315C44.2384 71.244 44.0992 70.9401 44.091 70.5706C44.091 70.4063 43.9846 70.2503 43.9354 70.0943C43.829 69.7493 43.7143 69.4044 43.616 69.0513C43.5915 68.9609 43.6242 68.8295 43.5751 68.772C43.051 68.1561 43.5341 67.5976 43.6815 67.0392C43.7307 66.8503 43.9682 66.686 44.1484 66.5629C44.5005 66.3083 44.8199 66.0619 44.91 65.602C44.9345 65.4624 45.0574 65.3392 45.1475 65.216C45.3276 64.9778 45.5242 64.7479 45.7044 64.5261L45.688 64.5097Z" fill="black"/>
<path d="M40.7426 62.243C40.7426 62.3005 40.7016 62.4319 40.7426 62.5222C41.0292 63.0807 40.9882 63.6473 40.9719 64.2551C40.9555 64.9285 41.1275 65.6266 41.324 66.2754C41.4632 66.7353 41.5533 67.1623 41.4632 67.6304C41.4387 67.77 41.4632 67.9425 41.5206 68.0739C41.7417 68.5338 41.7171 69.0019 41.6352 69.4865C41.6025 69.7 41.6352 69.9299 41.6516 70.1517C41.7007 70.8169 41.7581 71.4821 41.8072 72.1473C41.8318 72.4676 41.84 72.7961 41.8481 73.1164C41.8645 73.7077 41.8973 74.2908 41.8973 74.8821C41.8973 75.2435 41.8809 75.6213 41.7908 75.9744C41.668 76.4754 41.1684 76.6314 40.7426 76.3357C40.2021 75.958 39.9973 75.4324 40.0383 74.7836C40.0546 74.5372 40.0137 74.2908 39.9973 74.0527C39.9727 73.6502 39.9072 73.2478 39.94 72.8536C40.0219 71.9174 39.7762 70.9729 40.0137 70.0449C40.0546 69.8971 39.9727 69.7082 39.9154 69.544C39.768 69.1169 39.7271 68.6899 39.8335 68.2382C39.8745 68.0657 39.8499 67.8604 39.8008 67.6797C39.6861 67.2609 39.6452 66.8585 39.7271 66.4232C39.7844 66.1111 39.7271 65.7744 39.7107 65.4541C39.7107 65.413 39.6779 65.3802 39.6861 65.3391C39.7189 64.7396 39.6288 64.1647 39.3831 63.6063C39.3094 63.4502 39.3503 63.2203 39.3913 63.0396C39.4486 62.8014 39.4404 62.5879 39.3258 62.3744C39.0965 61.9309 39.2684 61.4628 39.3094 61.0193C39.3503 60.5758 40.0055 60.428 40.243 60.814C40.4969 61.2246 40.8572 61.6271 40.7508 62.2348L40.7426 62.243Z" fill="black"/>
<path d="M58.0785 102.772C58.1031 102.328 58.1768 101.753 58.7419 101.408C59.0039 101.252 59.2578 101.179 59.5526 101.343C59.6837 101.417 59.8392 101.45 59.9785 101.507C60.5845 101.762 61.0513 102.657 60.8875 103.256C60.6418 104.151 59.8065 104.505 58.9302 104.225C58.2341 103.995 58.0785 103.536 58.0703 102.772H58.0785Z" fill="black"/>
<path d="M41.8634 25.8777C41.6833 25.4753 41.5113 25.155 41.4048 24.8101C41.3557 24.6458 41.3885 24.4323 41.4458 24.2598C41.5113 24.0381 41.6423 23.841 41.716 23.6275C41.7815 23.4468 41.8798 23.2333 41.8307 23.069C41.6669 22.5434 41.8716 22.0917 42.0272 21.6154C42.0928 21.4101 42.1173 21.1309 42.0354 20.942C41.888 20.6135 41.9044 20.3014 42.019 19.9975C42.2484 19.4062 42.4777 18.8149 42.7643 18.2565C42.969 17.8623 43.1164 17.4516 43.2884 17.0492C43.5669 16.4086 43.6651 15.6695 44.1893 15.1439C44.2384 15.0864 44.3039 15.0207 44.3121 14.9468C44.3858 14.3637 44.9181 14.0681 45.1393 13.5835C45.1884 13.4768 45.3276 13.4028 45.4341 13.3207C45.5569 13.2304 45.7289 13.1729 45.8026 13.0497C46.2612 12.327 47.0556 12.0888 47.7026 11.6289C48.1694 11.3004 48.628 10.9309 49.0293 10.5202C49.2668 10.2821 49.5125 10.1014 49.7991 9.94535C50.1185 9.76468 50.4051 9.53473 50.7327 9.36226C50.962 9.23907 51.2241 9.13231 51.478 9.09946C51.912 9.04197 52.2887 8.88593 52.6163 8.59028C52.7473 8.47531 52.9357 8.36854 53.1077 8.3439C53.5172 8.28642 53.8447 8.10574 54.0986 7.81009C54.4508 7.39946 54.8684 7.26806 55.3926 7.40767C55.5727 7.45695 55.7775 7.46516 55.9658 7.44873C56.8503 7.39125 57.7266 7.31733 58.6111 7.24342C58.7257 7.23521 58.8567 7.24342 58.9468 7.18593C59.733 6.72603 60.4783 7.11202 61.2481 7.26806C61.9606 7.40767 62.7058 7.51444 63.4101 7.44873C63.8851 7.39946 64.2291 7.51444 64.6468 7.66226C65.2364 7.87579 65.867 7.98255 66.4976 8.06468C67.0381 8.13859 67.5704 8.41782 68.1437 8.22072C68.1928 8.20429 68.2911 8.26178 68.3402 8.31105C68.6678 8.63134 69.0691 8.69704 69.495 8.76274C69.9454 8.83666 70.3876 8.9927 70.8299 9.1241C70.9036 9.14873 70.9773 9.18159 71.0264 9.23907C71.7307 10.0439 72.6561 10.4874 73.6061 10.9226C73.7535 10.9883 73.8927 11.128 73.9992 11.2594C74.3432 11.6782 74.7035 12.0806 75.2932 12.1381C75.3259 12.3188 75.3423 12.4502 75.3751 12.5816C75.3996 12.713 75.3996 12.869 75.4733 12.9676C75.8992 13.5753 76.3087 14.1995 76.7837 14.7743C76.9638 14.9961 77.1686 15.1439 77.2095 15.4724C77.2423 15.7434 77.4388 15.998 77.5453 16.2608C77.7582 16.8357 77.9629 17.4188 78.1595 17.9937C78.4052 18.7082 78.6345 19.4226 78.8638 20.1371C78.8884 20.2275 78.9047 20.3342 78.8884 20.4246C78.8065 20.9091 78.7819 21.369 78.9539 21.8454C79.0194 22.0425 78.8474 22.3135 78.8966 22.5188C79.0276 23.0033 78.9784 23.4714 78.9293 23.9478C78.9129 24.1367 78.872 24.3255 78.8474 24.5144C78.8228 24.7444 78.7328 24.9908 78.7901 25.1961C78.9457 25.771 78.7573 26.2884 78.6591 26.8386C78.5854 27.2656 78.2987 27.4463 77.9302 27.5531C77.7828 27.5941 77.6026 27.5941 77.488 27.6845C77.0621 28.0212 76.6117 28.0294 76.1285 27.8487C75.7927 27.7255 75.4815 27.8077 75.2113 28.0294C75.0557 28.1526 74.9164 28.2676 74.6953 28.1772C74.3268 28.0212 73.9828 28.1444 73.6307 28.2594C73.3604 28.3497 73.0738 28.3908 72.7953 28.4729C72.4268 28.5879 72.0829 28.5386 71.7307 28.3826C71.5505 28.3004 71.313 28.3004 71.1083 28.3251C70.5432 28.3908 69.9454 28.1937 69.4131 28.5386C69.3803 28.5632 69.2984 28.5386 69.2493 28.5222C68.2583 28.1937 67.2756 28.3826 66.2847 28.5304C66.1045 28.555 65.8997 28.555 65.736 28.4893C65.3838 28.3579 65.0398 28.2922 64.6631 28.399C64.5239 28.44 64.3601 28.4072 64.2127 28.3826C63.5002 28.2676 62.8123 27.9309 62.067 28.0623C62.0343 28.0623 61.9933 28.0541 61.9524 28.0376C61.1089 27.627 60.208 27.4792 59.2908 27.3642C59.2007 27.356 59.0942 27.3231 59.0205 27.2739C58.1606 26.6743 57.0796 26.5758 56.1951 26.0173C55.8839 25.8202 55.4827 25.7463 55.0404 25.5821C54.7128 24.8265 53.8775 24.5391 53.1896 24.071C53.0995 24.0053 52.9603 23.9806 52.8948 23.8985C52.5836 23.5043 52.2887 23.1019 51.9857 22.7077C51.7892 22.4531 51.5762 22.2067 51.3797 21.9521C51.2978 21.8454 51.2405 21.7304 51.1831 21.6072C51.1504 21.5415 51.1668 21.4512 51.1258 21.3855C50.6836 20.6627 50.5034 19.7676 49.8155 19.2009C49.5698 19.0038 49.447 18.7574 49.4797 18.4454C49.5207 17.9526 49.5289 17.4845 49.2095 17.0574C49.1358 16.9589 49.1685 16.7946 49.1276 16.6632C49.0539 16.4251 48.9883 16.1869 48.8737 15.9734C48.7836 15.8173 48.7263 15.7024 48.7427 15.5053C48.7754 15.0946 48.5379 14.84 48.194 14.8565C47.85 14.8647 47.6043 15.1521 47.6944 15.5463C47.7599 15.8666 47.6698 15.9487 47.3832 16.0801C46.4332 16.5318 45.6061 17.1396 45.2212 18.1908C45.1802 18.2893 45.0983 18.3879 45.0082 18.4536C44.525 18.8149 44.2302 19.2748 44.0337 19.8497C43.8863 20.2768 43.657 20.6874 43.4113 21.0734C43.1738 21.4429 43.0837 21.7961 43.182 22.2231C43.2229 22.3874 43.1983 22.642 43.0919 22.7487C42.3466 23.4879 42.1255 24.4323 41.9781 25.4178C41.9535 25.5656 41.9044 25.7053 41.8553 25.9024L41.8634 25.8777Z" fill="#CAAE96"/>
<path d="M83.7295 82.4467C83.5493 82.0197 83.3855 81.6829 83.2627 81.3216C83.2053 81.1491 83.1808 80.952 83.189 80.7631C83.2053 80.2129 83.1153 79.7201 82.6485 79.367C82.5911 79.3259 82.5092 79.252 82.5092 79.1945C82.5256 78.7018 82.1407 78.4061 81.9442 78.0201C81.895 77.9216 81.8213 77.823 81.7476 77.7409C81.5347 77.4945 81.2644 77.4124 80.9696 77.5192C80.6912 77.6177 80.5437 77.8395 80.5192 78.1351C80.5028 78.3076 80.5192 78.48 80.5192 78.6936C80.2817 78.6607 80.0606 78.6443 79.8476 78.6032C79.5119 78.5293 79.2007 78.5375 78.8976 78.7182C78.8157 78.7675 78.7093 78.8168 78.6274 78.8003C77.8985 78.6689 77.2925 79.0796 76.621 79.2274C76.1705 79.3259 75.7529 79.4655 75.368 79.7694C75.155 79.9337 74.7865 79.9337 74.4835 79.9337C74.0576 79.9337 73.6891 80.024 73.3533 80.2868C73.2387 80.3771 73.0585 80.4593 72.9357 80.4264C72.215 80.2622 71.6335 80.6646 71.0111 80.8699C70.9374 80.8945 70.8719 80.9767 70.8064 80.9684C70.3232 80.9356 69.8973 81.0259 69.537 81.3709C69.4879 81.4201 69.3486 81.3873 69.2586 81.3709C68.6443 81.2477 68.1284 81.4448 67.6698 81.839C67.5797 81.9211 67.4323 82.0032 67.3258 81.995C66.7362 81.9375 66.1793 81.995 65.6306 82.225C65.606 82.2332 65.5651 82.2003 65.4668 82.1757C66.0646 81.5187 66.0483 80.6482 66.3267 79.8844C66.5232 79.3341 66.687 78.7921 66.6707 78.1926C66.6707 78.0366 66.7689 77.8723 66.859 77.7245C67.0228 77.4453 67.1375 77.1496 67.0228 76.8457C66.8426 76.3694 67.031 75.9834 67.2521 75.5974C67.3176 75.4825 67.4159 75.3675 67.4405 75.2443C67.5715 74.5709 67.6943 73.8892 67.8172 73.2158C67.8336 73.1419 67.8172 73.0351 67.8581 72.994C68.3905 72.4192 68.2267 71.639 68.4724 70.982C68.5461 70.7849 68.628 70.5878 68.6771 70.3825C68.7426 70.1114 68.7754 69.824 68.8245 69.5448C68.8491 69.3805 68.8327 69.1916 68.9228 69.0684C69.1685 68.7071 69.234 68.3293 69.1603 67.9105C69.1029 67.5902 69.1603 67.3274 69.4142 67.0728C69.5698 66.9085 69.6926 66.6293 69.6844 66.3994C69.668 65.8902 69.84 65.4549 70.0529 65.0197C70.2659 64.5844 70.4542 64.1491 70.4133 63.6399C70.3969 63.4839 70.4706 63.2868 70.5607 63.1636C70.7982 62.8515 70.8719 62.5066 70.8719 62.1288C70.8719 62.0139 70.8391 61.8742 70.8965 61.7921C71.5025 60.7738 71.5516 59.6076 71.7646 58.4825C71.8219 58.2032 71.912 57.9322 71.9693 57.6448C72.1085 56.9139 72.2395 56.1911 72.3788 55.3945C73.0257 55.8216 73.6645 56.0023 74.3279 55.8709C74.9585 55.7559 75.4908 55.9612 76.0559 56.1665C76.3016 56.2569 76.5718 56.2733 76.8257 56.3308C76.9731 56.3636 77.1369 56.3883 77.2515 56.4704C77.6774 56.7825 78.1524 56.8071 78.6356 56.6839C78.9222 56.61 79.1351 56.7003 79.4054 56.7742C80.0851 56.9713 80.7321 57.2506 81.3873 57.5052C81.9114 57.7105 82.501 57.768 83.0497 57.8912C83.1316 58.4496 83.1316 58.9752 83.4838 59.3941C83.5166 59.4351 83.5329 59.5008 83.5493 59.5501C83.7622 60.1414 83.9424 60.7573 84.2045 61.3322C84.5484 62.0878 84.7122 62.9008 85.0234 63.6646C85.0234 63.681 85.0234 63.7056 85.0398 63.7221C85.5476 64.4858 85.6704 65.3974 85.9816 66.2351C86.0389 66.3747 86.0881 66.5226 86.1208 66.6704C86.2027 67.0235 86.3583 67.3274 86.6777 67.5163C86.9316 67.6641 87.0135 67.9023 86.9725 68.1569C86.8743 68.7071 87.1118 69.1752 87.2755 69.668C87.3001 69.7583 87.3411 69.8733 87.4148 69.9143C88.0208 70.2757 88.0781 70.9491 88.3074 71.5076C88.5367 72.0742 88.6514 72.6902 88.8316 73.2733C89.0199 73.8564 89.2001 74.4477 89.4376 75.0143C89.7734 75.811 90.1255 76.5912 90.4203 77.4042C90.6578 78.0776 90.9363 78.7511 91.2229 79.4163C91.2966 79.5887 91.3376 79.7776 91.4031 79.9583C91.4768 80.1554 91.5177 80.4018 91.6651 80.525C92.0173 80.8206 92.091 81.1984 92.1319 81.6008C92.1729 82.0114 92.3449 82.3317 92.6397 82.611C92.7544 82.7259 92.8444 82.8902 92.8854 83.0462C92.9591 83.3419 93.0246 83.654 93.041 83.9578C93.0656 84.7544 93.4914 85.354 93.991 85.8878C94.5888 86.5119 94.7608 87.2593 94.4086 88.0477C94.3186 88.253 94.2612 88.4829 94.1957 88.6965C94.1711 88.7868 94.1793 88.9182 94.122 88.9675C93.7043 89.2796 93.6716 89.8134 93.4177 90.2076C93.3686 90.2897 93.3194 90.38 93.2949 90.4704C93.1884 91.0206 93.0492 91.5462 92.7707 92.039C92.6806 92.2032 92.738 92.4496 92.7298 92.6631C92.7216 92.852 92.7707 93.0655 92.697 93.2298C92.394 93.8868 92.1811 94.5931 91.7388 95.1844C91.4276 95.595 91.3949 96.0878 91.3212 96.5559C91.2311 97.1143 91.0837 97.6235 90.7725 98.1081C90.535 98.4858 90.4531 98.9704 90.2893 99.3974C90.2156 99.5945 90.1583 99.7916 90.0518 99.9641C89.716 100.514 89.4048 101.065 89.585 101.754C89.6505 101.984 89.5686 102.181 89.3721 102.313C89.0281 102.543 88.8725 102.888 88.807 103.282C88.7579 103.578 88.635 103.808 88.3893 104.013C88.201 104.177 88.0863 104.44 87.9553 104.67C87.8406 104.867 87.7505 105.072 87.6359 105.319C87.079 105.089 86.5712 104.892 86.0717 104.67C85.7605 104.53 85.4493 104.481 85.1135 104.547C84.8924 104.596 84.6631 104.637 84.4092 104.678C84.098 104.226 83.6558 104.029 83.0989 104.005C82.7304 103.988 82.5338 103.725 82.5092 103.364C82.501 103.192 82.4437 103.019 82.4601 102.847C82.501 102.469 82.4929 102.058 82.6566 101.738C82.9351 101.171 83.3282 100.646 83.4756 100.022C83.7049 99.0525 84.2864 98.1902 84.3601 97.1718C84.3601 97.0815 84.3764 96.9583 84.4338 96.9008C84.8269 96.5148 84.8678 96.0139 84.9006 95.5129C84.9088 95.3404 84.9497 95.1598 85.0234 95.0119C85.3674 94.3878 85.5967 93.7554 85.4657 93.0245C85.4493 92.9095 85.5557 92.7453 85.6458 92.6303C85.9243 92.2936 86.0553 91.924 85.957 91.5052C85.8997 91.2506 85.9407 91.0453 86.1126 90.8646C86.1372 90.8399 86.17 90.8071 86.1782 90.7742C86.3911 90.1501 86.6695 89.5342 86.7924 88.8854C86.9234 88.2366 86.8988 87.5549 86.9398 86.8897C86.9643 86.5284 86.8087 86.1834 86.473 86.1013C85.8915 85.9699 85.6622 85.5182 85.4493 85.0912C85.1381 84.4834 84.7122 83.9168 84.573 83.2187C84.4993 82.8573 84.3109 82.7341 83.7786 82.4221L83.7295 82.4467Z" fill="#A5C3CF"/>
<path d="M47.4898 17.9033C47.6782 18.2729 47.8911 18.6014 48.0222 18.9545C48.1122 19.2009 48.145 19.4801 48.1204 19.7429C48.0713 20.3178 48.2187 20.7941 48.489 21.3197C48.8002 21.9275 49.0459 22.5352 49.6191 22.9294C49.7665 23.4714 50.1596 23.8492 50.4872 24.2681C50.5364 24.3255 50.5773 24.3995 50.6101 24.4652C50.8803 24.9908 51.4618 25.1961 51.7812 25.7053C52.0678 26.1816 52.5592 26.5511 53.0178 26.8879C53.2962 27.0932 53.6811 27.1507 54.1561 27.3231C54.5574 27.9637 55.3109 28.3415 56.1708 28.5796C56.2445 28.5961 56.31 28.6371 56.3837 28.6782C57.047 29.0313 57.7104 29.3681 58.4966 29.3352C58.5867 29.3352 58.6768 29.3845 58.7668 29.4173C59.4384 29.6473 60.0854 29.984 60.7733 30.0825C61.3547 30.1647 61.9198 30.2714 62.4931 30.3946C62.8289 30.4685 63.181 30.4275 63.5332 30.411C63.9918 30.3782 64.4504 30.3289 64.9008 30.5014C65.0318 30.5507 65.2284 30.5589 65.3512 30.5014C65.8017 30.2714 66.2357 30.4111 66.6861 30.4521C67.546 30.526 68.4141 30.5589 69.2495 30.2714C69.3314 30.2468 69.4296 30.255 69.5197 30.2714C70.3387 30.4603 71.1576 30.641 72.0011 30.37C72.1567 30.3207 72.3451 30.3371 72.5171 30.3371C73.1313 30.3371 73.7455 30.3536 74.3515 30.3207C74.5481 30.3125 74.8102 30.2468 74.933 30.1154C75.4244 29.5734 76.0386 29.6555 76.661 29.6391C77.0377 29.6391 77.4144 29.5241 77.7748 29.4091C78.1187 29.2941 78.4136 29.1874 78.7166 29.5077C78.8476 29.6473 79.0851 29.6966 79.2816 29.7869C79.6502 30.7724 79.1916 31.6019 78.7739 32.4396C78.7002 32.5956 78.561 32.7188 78.4873 32.8748C78.045 33.7125 77.3243 34.1149 76.4153 34.2381C75.8502 34.312 75.6455 34.5584 75.4899 35.1168C75.408 35.4207 75.2606 35.7328 75.0558 35.971C74.6382 36.4801 74.2287 37.3507 74.1714 37.9912C74.155 38.1309 74.0895 38.2787 74.0158 38.4101C73.9503 38.5251 73.8274 38.6154 73.7865 38.7386C73.6472 39.0999 73.4016 39.3135 73.0658 39.5024C72.8201 39.642 72.6399 39.9376 72.5089 40.2086C72.3697 40.4879 72.2059 40.7014 71.9766 40.9231C71.5507 41.342 71.043 41.6376 70.6007 42.0154C69.9619 42.5574 69.3068 43.0255 68.5452 43.3623C68.3486 43.4526 68.1766 43.6415 68.0374 43.8139C67.6934 44.2328 67.3167 44.5202 66.7189 44.4874C66.1538 44.4545 65.7034 44.8159 65.5805 45.3661C65.4905 45.7768 65.2693 46.1053 65.0892 46.4584C65.0155 46.6062 64.8762 46.8115 64.9172 46.9265C65.0564 47.3125 64.8517 47.5753 64.6961 47.8874C64.5159 48.2487 64.5077 48.6429 64.6551 49.0125C64.7698 49.3082 64.6961 49.5217 64.475 49.7352C64.0327 50.1623 63.6069 50.6057 63.1728 51.041C63.1482 51.0656 63.1073 51.0903 63.0909 51.1231C62.6159 52.0183 61.625 52.4125 61.0517 53.2255C60.9043 53.4309 60.6504 53.5869 60.4048 53.6937C60.2901 53.7429 60.0362 53.6772 59.9625 53.5705C59.5367 52.9792 58.816 52.7985 58.3164 52.3139C58.2509 52.2482 58.1444 52.2072 58.0544 52.199C57.7022 52.1579 57.4647 51.969 57.26 51.6816C57.1535 51.5338 56.9651 51.4106 56.7932 51.3613C56.4656 51.271 56.3673 51.0328 56.3427 50.7618C56.31 50.3758 56.3427 49.9898 56.3264 49.612C56.3018 49.1768 56.2527 48.7333 56.2117 48.298C56.1789 47.912 56.1462 47.526 56.0971 47.1482C56.0725 46.9594 56.0315 46.7623 55.9414 46.598C55.8104 46.3763 55.7531 46.1545 55.7367 45.8917C55.7121 45.3825 55.3846 45.0705 54.8686 45.0869C54.582 45.0951 54.41 45.0048 54.2135 44.8241C53.9023 44.5449 53.5419 44.3067 53.198 44.0685C53.0915 43.9946 52.9523 43.9207 52.8294 43.9125C52.4527 43.8879 52.1415 43.7154 51.7975 43.5922C51.4126 43.4608 51.0441 43.3376 50.7001 43.1077C50.5527 43.0091 50.3316 42.9598 50.1514 42.9681C49.7174 42.9681 49.4226 42.7627 49.1769 42.4425C48.964 42.1632 48.7019 41.9251 48.3416 41.8758C48.1368 41.8429 48.0467 41.728 47.9976 41.5391C47.9566 41.3912 47.8993 41.2352 47.801 41.1284C47.2687 40.5536 46.7364 39.9623 46.1631 39.4284C45.9011 39.1821 45.6554 38.9357 45.5735 38.599C45.4834 38.2048 45.2623 37.8927 45.0084 37.6053C44.8282 37.4082 44.7218 37.2193 44.7709 36.94C44.8364 36.554 44.6972 36.2091 44.4433 35.9299C44.2468 35.7082 44.1403 35.4536 44.0666 35.1661C44.0011 34.9115 43.8701 34.6652 43.7063 34.4516C43.4852 34.1642 43.4115 33.8768 43.5097 33.5318C43.6489 33.0555 43.6162 32.6038 43.436 32.1193C43.3214 31.799 43.3459 31.3966 43.4033 31.0434C43.4524 30.7478 43.4688 30.4768 43.3377 30.1975C43.0429 29.5569 43.2067 28.9328 43.3869 28.2922C43.5425 27.7173 43.6653 27.1342 43.8045 26.5511C43.911 26.1241 43.9683 25.6724 44.1403 25.2782C44.3778 24.7115 44.4597 24.1284 44.427 23.5289C44.4106 23.184 44.4597 22.9458 44.7955 22.7734C44.9838 22.6748 45.1558 22.4695 45.2459 22.2724C45.4425 21.8618 45.5735 21.4101 45.7455 20.9912C45.8192 20.8188 45.9338 20.6627 46.0157 20.4903C46.1386 20.2275 46.2942 19.9647 46.3433 19.6937C46.4661 18.9381 46.9575 18.4453 47.4489 17.9115L47.4898 17.9033Z" fill="white"/>
<path d="M74.1636 82.865C74.6385 83.0046 75.0071 82.7993 75.4411 82.5611C75.8997 82.2983 76.3338 81.9781 76.8989 81.8384C77.4803 81.6988 78.1355 81.5017 78.5368 80.9433C78.6023 80.8447 78.7497 80.8037 78.8644 80.7544C79.323 80.5655 79.798 80.4012 80.2484 80.1795C80.4613 80.0727 80.6251 79.8756 80.8872 79.6621C80.9281 79.851 80.9854 79.9906 80.9773 80.122C80.9445 80.6558 81.1738 81.0665 81.5669 81.3867C81.8044 81.5838 81.9109 81.8138 81.9928 82.1095C82.0665 82.3969 82.2466 82.6597 82.4186 82.9964C82.1074 83.5549 82.3285 84.0723 82.6807 84.6471C83.0492 85.2467 83.2458 85.9447 83.5242 86.6017C83.6143 86.8152 83.7126 87.0206 83.8272 87.2177C83.9992 87.5133 84.1712 87.809 84.3595 88.0964C84.7117 88.6302 84.5888 89.1558 84.4578 89.7307C84.3104 90.3631 84.2039 90.9872 83.7863 91.5046C83.8845 92.178 83.4833 92.679 83.2212 93.2457C83.0492 93.6153 83.041 94.0669 82.9346 94.4694C82.8608 94.7239 82.7462 94.9703 82.6152 95.2085C82.4514 95.5041 82.394 95.808 82.3695 96.1447C82.3449 96.4732 82.1893 96.8017 82.0992 97.1302C81.9928 97.5162 81.8945 97.9022 81.7962 98.2882C81.7634 98.4196 81.7471 98.5592 81.6897 98.6742C81.313 99.4544 81.1574 100.284 81.1083 101.13C81.0837 101.606 80.8954 101.992 80.576 102.304C80.1911 102.674 80.0355 103.076 80.1501 103.602C80.232 103.988 80.1747 104.029 79.7488 104.119C79.6587 104.136 79.5359 104.136 79.4704 104.185C78.7661 104.727 77.9144 105.113 77.554 106.016C77.5049 106.139 77.423 106.279 77.4394 106.402C77.4885 106.846 77.2838 107.207 77.0545 107.527C76.5958 108.168 76.4075 108.882 76.3584 109.638C76.342 109.901 76.2601 110.081 76.039 110.196C75.1872 110.665 75.0153 111.56 74.7123 112.356C74.5403 112.808 74.8351 113.301 75.2937 113.473C76.0144 113.728 76.7515 113.835 77.4885 113.547C77.767 113.44 78.0208 113.268 78.2993 113.12C78.4385 113.325 78.3484 113.473 78.2256 113.596C78.0044 113.835 77.898 114.106 77.8652 114.426C77.8243 114.812 77.6359 114.951 77.2756 114.845C76.5303 114.615 75.8834 114.804 75.2528 115.206C75.1463 115.272 75.0071 115.296 74.8842 115.329C74.7942 115.354 74.6713 115.329 74.6058 115.37C74.139 115.707 73.5493 115.674 73.0498 115.929C72.9106 116.003 72.7304 116.003 72.5175 116.052C72.5175 115.855 72.5093 115.723 72.5175 115.6C72.5584 115.181 72.4601 114.82 72.2308 114.451C72.0097 114.089 71.8459 113.687 71.9114 113.202C71.9524 112.923 71.805 112.611 71.7394 112.315C71.6739 112.036 71.5838 111.765 71.5101 111.494C71.4364 111.198 71.3709 110.894 71.2972 110.599C71.1907 110.188 71.0106 109.794 70.9614 109.383C70.8795 108.743 70.3882 108.217 70.5028 107.536C70.1752 107.092 70.249 106.542 70.1015 106.049C69.9459 105.523 69.6839 105.022 69.6675 104.448C69.6675 104.275 69.5119 104.103 69.4136 103.938C69.2089 103.61 68.9222 103.314 68.8158 102.961C68.6847 102.534 68.6356 102.058 68.6766 101.614C68.7175 101.179 68.6684 100.801 68.5291 100.382C68.3162 99.709 68.177 99.0273 67.8167 98.395C67.6283 98.0582 67.6529 97.6148 67.5464 97.2288C67.4563 96.9167 67.3089 96.621 67.2024 96.3172C67.1451 96.1611 67.0878 95.9887 67.096 95.8244C67.1042 95.3481 66.9977 94.921 66.7111 94.5186C66.49 94.2066 66.3344 93.8781 66.3589 93.451C66.3671 93.221 66.1788 92.9582 66.015 92.7611C65.8675 92.5805 65.7201 92.408 65.802 92.2027C66.0395 91.5539 65.6956 91.0447 65.4581 90.5027C65.3926 90.3631 65.327 90.2235 65.2943 90.0756C65.0814 89.164 64.8766 88.2442 64.6719 87.308C65.1387 87.3983 65.6055 87.2834 65.9249 86.8235C66.5555 86.7413 67.096 86.3964 67.6856 86.2075C67.9968 86.109 68.3162 86.0679 68.5701 85.8297C68.6602 85.7394 68.7994 85.6983 68.9223 85.6573C69.5856 85.4602 70.2244 85.1974 70.7813 84.7621C70.8386 84.7128 70.9041 84.6471 70.9696 84.6389C72.0015 84.4993 72.755 83.7766 73.664 83.3824C73.8442 83.3003 73.9752 83.1114 74.1881 82.9143L74.1636 82.865Z" fill="white"/>
<path d="M58.0057 85.0663C57.8009 84.6146 57.629 84.2861 57.5143 83.9411C57.3259 83.3827 57.1048 82.8653 56.6134 82.4957C56.4005 82.3315 56.3432 82.1097 56.3514 81.8305C56.3514 81.5595 56.2695 81.2721 56.1958 81.001C56.1139 80.7054 55.9583 80.4262 55.9173 80.1223C55.8764 79.7692 55.8354 79.4407 55.6061 79.1532C55.5488 79.0793 55.5652 78.9397 55.5652 78.8329C55.5652 78.718 55.6471 78.5866 55.6143 78.4962C55.3359 77.8228 55.385 77.059 55.0165 76.4267C54.8936 76.2131 54.8281 76.0242 54.8281 75.7779C54.8445 75.2112 54.6889 74.6938 54.3859 74.1928C54.1975 73.8808 54.132 73.4701 54.1156 73.1006C54.0911 72.575 54.0419 72.0822 53.8208 71.5812C53.5751 71.0228 53.4687 70.4068 53.2639 69.8238C53.1657 69.5363 52.9691 69.2899 52.8463 69.0107C52.7807 68.8629 52.707 68.6904 52.7316 68.5426C52.7971 68.1566 52.7234 67.8199 52.4941 67.5078C52.2402 67.1465 52.1829 66.7605 52.232 66.3088C52.2812 65.8817 52.1338 65.4382 52.101 64.9948C52.0601 64.3049 51.8471 63.6725 51.6424 63.0155C51.4295 62.3339 51.4377 61.5783 51.3558 60.8556C51.3476 60.7817 51.3558 60.6914 51.3148 60.6339C50.9053 59.9276 50.9872 59.1146 50.8071 58.3672C50.7579 58.1701 50.6351 57.9895 50.545 57.8006C50.4058 57.4967 50.1765 57.2175 50.242 56.7494C50.3403 56.9054 50.3976 56.9875 50.4549 57.0696C50.6023 57.2667 50.7415 57.4721 50.9135 57.6445C51.1756 57.9238 51.495 58.1537 51.7243 58.4576C52.2566 59.1474 52.9609 59.5498 53.7635 59.7798C54.0829 59.8701 54.3122 59.9851 54.476 60.289C54.648 60.6093 54.951 60.716 55.3113 60.6421C55.4751 60.6093 55.6635 60.6257 55.8191 60.5764C55.9747 60.5271 56.204 60.4614 56.2531 60.3382C56.6462 59.3856 57.5552 58.8928 58.1285 58.1126C58.2923 57.8827 58.407 57.6199 58.5544 57.3817C58.6199 57.275 58.6772 57.1271 58.7755 57.0779C59.2423 56.8315 59.6026 56.5112 59.7419 55.9856C59.7582 55.9363 59.8156 55.8952 59.8565 55.8624C59.8811 55.8378 59.922 55.8295 60.0367 55.7803C60.2824 56.2238 60.7819 56.4866 60.9621 57.0204C60.9949 57.1271 61.044 57.2421 61.1259 57.3242C61.5681 57.8006 62.0349 58.2523 62.4608 58.745C62.6737 58.9832 62.8703 59.2542 63.0095 59.5416C63.3534 60.2479 63.8612 60.7242 64.672 60.8064C64.9176 60.831 65.2043 60.831 65.2862 60.601C65.4663 60.1247 65.8922 59.9769 66.2444 59.7552C66.7849 59.4102 67.2762 59.0324 67.7185 58.5725C67.9805 58.3015 68.3163 58.0962 68.6275 57.8663C68.8814 57.6692 69.0452 57.4228 69.1271 57.1107C69.1598 56.9711 69.2254 56.7904 69.3318 56.7247C69.8232 56.4044 70.3391 56.117 70.896 55.7803C70.896 55.9774 70.937 56.1498 70.896 56.2977C70.5193 57.4228 70.118 58.5397 69.7249 59.6566C69.6021 60.0015 69.471 60.3382 69.3564 60.6832C69.3154 60.8064 69.2827 60.9542 69.3072 61.0774C69.3482 61.3073 69.2663 61.4716 69.1516 61.6687C69.0206 61.8986 68.8486 62.1696 68.8732 62.4078C68.906 62.8349 68.7176 63.1305 68.5456 63.4754C68.3982 63.7793 68.3491 64.1325 68.2917 64.4774C68.218 64.9783 68.1443 65.4547 67.8413 65.8899C67.7185 66.0706 67.6693 66.3827 67.7185 66.5962C67.7922 66.9165 67.7512 67.1629 67.5547 67.401C67.2435 67.7706 67.0551 68.173 67.1206 68.674C67.137 68.7725 67.0879 68.9122 67.0142 68.9861C66.7193 69.2899 66.6948 69.6595 66.6375 70.0537C66.5719 70.489 66.4081 70.8996 66.2771 71.3267C66.2362 71.4581 66.1379 71.573 66.1297 71.6962C66.0969 72.2711 66.0314 72.8213 65.7939 73.3634C65.6711 73.6426 65.6629 73.9629 65.5646 74.2503C65.45 74.587 65.3845 74.8991 65.4336 75.2687C65.4827 75.6629 65.4582 76.0735 65.1306 76.3938C64.9013 76.6238 64.8685 76.9276 64.8685 77.2561C64.8685 77.4943 64.8194 77.7407 64.762 77.9788C64.6146 78.5783 64.459 79.1697 64.2871 79.761C64.025 80.6808 63.7547 81.6006 63.4681 82.5122C63.4272 82.6354 63.3125 82.775 63.1897 82.8242C62.5754 83.1035 61.953 83.3581 61.3306 83.6044C61.2078 83.6537 61.0522 83.6044 60.9375 83.6537C60.2496 83.9165 59.4716 83.9329 58.8574 84.4093C58.5953 84.6146 58.3251 84.8199 57.9975 85.0663H58.0057Z" fill="white"/>
<path d="M58.0867 4.73136C58.1686 4.61638 58.2259 4.41928 58.3324 4.38643C58.8401 4.2386 59.0449 3.75406 59.4134 3.45841C59.4543 3.42556 59.4789 3.35165 59.5199 3.32701C60.3142 2.96566 60.9039 2.23474 61.8047 2.08691C61.9358 2.06227 62.075 2.08691 62.206 2.08691C62.4353 2.07049 62.6974 2.11155 62.8858 2.02121C63.6146 1.67628 64.3517 1.77483 65.0806 1.96372C65.662 2.11976 66.2517 2.25116 66.7267 2.71928C66.9642 2.95744 67.4146 2.97387 67.8814 3.12991C68.0534 3.58981 68.6921 3.62266 69.118 3.96759C69.1671 4.00865 69.2736 4.02508 69.3391 4.00865C69.8469 3.88546 70.3464 3.76227 70.846 3.63087C71.4193 3.48305 71.9925 3.3188 72.5658 3.17097C72.6149 3.15454 72.6805 3.17918 72.7378 3.18739C73.2701 3.26131 73.7942 3.34343 74.3266 3.41735C74.4003 3.42556 74.4903 3.43377 74.5559 3.40913C74.9244 3.26131 75.2028 3.34343 75.4813 3.63087C75.6123 3.77049 75.858 3.80334 76.0545 3.86082C76.4558 3.9758 76.7998 4.14826 77.0209 4.53425C77.111 4.69851 77.2502 4.84633 77.3976 4.96952C77.8972 5.40479 78.2739 5.92218 78.495 6.55455C78.5442 6.69416 78.6588 6.81735 78.7325 6.94875C78.8718 7.20334 79.0028 7.44971 79.1338 7.71252C79.183 7.81928 79.183 7.95889 79.2648 8.03281C79.7153 8.45165 79.7153 9.0758 79.9937 9.56855C80.1821 9.90527 80.1493 10.1927 79.8954 10.5212C79.4942 11.0468 79.5105 11.6299 79.8627 12.0734C80.2066 12.5087 80.6898 12.6483 81.3204 12.4265C81.6071 12.3198 81.8691 12.369 82.0902 12.5169C82.5243 12.8043 82.9747 12.9686 83.5152 12.8372C83.7118 13.2642 83.8919 13.6666 84.326 13.8637C84.3506 13.8801 84.3751 13.9212 84.3833 13.9623C84.6699 14.7507 85.2924 15.3338 85.6691 16.0729C85.7837 16.2946 85.9066 16.5492 85.882 16.7792C85.8329 17.2473 85.9639 17.6579 86.1686 18.0603C86.2833 18.2903 86.316 18.512 86.2587 18.7748C86.1932 19.0869 86.2178 19.4236 86.2178 19.7521C86.2178 20.4009 86.2997 21.0251 86.0048 21.6739C85.8247 22.0681 85.6855 22.4541 85.4152 22.8072C85.1859 23.1029 85.0958 23.5053 84.9484 23.8584C84.9074 23.9487 84.8993 24.0555 84.8419 24.1294C84.5553 24.5072 84.6863 24.8111 84.8419 25.2299C85.1122 25.9937 85.6609 26.6671 85.6363 27.5376C85.6363 27.6608 85.7182 27.7922 85.751 27.9236C85.8574 28.3014 85.9066 28.6628 85.7673 29.057C85.6445 29.4183 85.6281 29.8207 85.4807 30.1739C85.1204 31.0362 84.9074 31.9478 84.629 32.8347C84.4898 33.27 84.285 33.6806 84.2605 34.157C84.2277 34.7811 84.3178 35.3806 84.6126 35.9473C84.6454 36.013 84.7027 36.0869 84.6945 36.1608C84.6781 36.8014 84.9238 37.3024 85.4234 37.7459C85.0549 37.713 84.6781 37.6884 84.3096 37.6555C84.1786 37.6473 84.0312 37.6062 83.9083 37.6473C83.2777 37.8773 82.7864 37.5816 82.3523 37.1956C82.0657 36.941 81.779 36.7521 81.3941 36.7275C81.1321 36.7111 80.9355 36.6043 80.7635 36.3826C80.6079 36.1773 80.3704 36.0212 80.1575 35.8652C79.7972 35.6106 79.4286 35.3724 79.011 35.0932C79.3549 34.7893 79.6334 34.4937 79.9528 34.2637C80.4196 33.927 80.739 33.4835 81.0174 32.9908C81.2795 32.5391 81.5415 32.0956 81.6316 31.5782C81.7463 30.9459 81.7381 30.2888 81.7381 29.6565C81.7381 29.0077 81.3941 28.3589 80.9028 27.8497C80.9519 27.6033 81.0174 27.3652 81.0584 27.1188C81.0911 26.8724 81.0993 26.626 81.1075 26.3797C81.1321 25.9773 81.1812 25.5748 81.4187 25.2299C81.4678 25.156 81.4842 25.0492 81.4842 24.9507C81.4842 24.4169 81.4187 23.8666 81.5088 23.3492C81.6398 22.6183 81.5252 21.912 81.5088 21.1893C81.5088 20.8526 81.3778 20.5159 81.304 20.1874C81.2467 19.9328 81.1976 19.67 81.1484 19.4154C81.0174 18.7338 80.9028 18.0521 80.7472 17.3787C80.567 16.5821 80.264 15.8512 79.7644 15.1859C79.5187 14.8574 79.4286 14.414 79.0519 14.1512C78.97 14.0937 78.9618 13.913 78.9455 13.7816C78.9127 13.4038 78.7653 13.0835 78.5032 12.8043C78.323 12.6072 78.1675 12.3772 78.0528 12.1391C77.8317 11.671 77.5123 11.3343 77.0045 11.2193C76.7425 11.1618 76.5951 11.0304 76.5541 10.7676C76.4968 10.3816 76.2593 10.1188 75.9563 9.88884C75.5796 9.6014 75.2274 9.29754 74.8998 8.92797C74.5231 8.50092 74.0809 8.07387 73.4912 7.86034C73.0408 7.69609 72.6477 7.39223 72.1318 7.43329C72.0826 7.43329 72.0171 7.40044 71.9762 7.35938C71.493 6.88305 70.8378 6.72701 70.2645 6.42314C70.0844 6.32459 69.8551 6.19319 69.6749 6.22604C69.118 6.32459 68.6676 6.06179 68.1598 5.9386C67.4064 5.75793 66.6038 5.70044 65.8176 5.88111C65.4655 5.96324 65.1133 6.02894 64.712 6.11107C64.7038 6.09464 64.6465 6.04537 64.6219 5.97967C64.4418 5.48691 64.0651 5.24875 63.5901 5.15841C63.0823 5.05986 62.5746 4.91203 62.0586 4.91203C61.469 4.91203 60.8875 5.05165 60.2979 5.13377C60.1668 5.1502 60.0358 5.23232 59.9212 5.20768C59.3233 5.0845 58.7337 4.93667 58.0703 4.78063L58.0867 4.73136Z" fill="#CAAE96"/>
<path d="M1.79215 64.9451C1.78396 64.1485 1.89042 64.0335 2.52102 64.0335C2.94687 64.0335 3.34816 63.9514 3.75764 63.8282C4.27358 63.6722 4.78952 63.4504 5.37098 63.5654C5.63304 63.6147 5.93606 63.5079 6.20631 63.4258C6.46838 63.3437 6.71406 63.3026 6.99251 63.3683C7.20544 63.4176 7.45112 63.4176 7.66405 63.3683C8.27827 63.2451 8.90067 63.1959 9.53127 63.163C9.84247 63.1466 10.1537 62.892 10.4321 62.7031C10.5058 62.6538 10.514 62.3664 10.4485 62.3089C10.2028 62.079 9.9735 61.8161 9.57221 61.8326C8.81059 61.8654 8.02439 61.7833 7.27914 61.9147C6.69768 62.0132 6.13261 62.1364 5.53477 62.1118C5.32184 62.1036 5.10072 62.2514 4.8796 62.3171C4.78952 62.3417 4.68306 62.3171 4.58478 62.3171C4.58478 62.2678 4.5684 62.2186 4.56021 62.1693C4.83866 62.0872 5.12529 62.0133 5.40374 61.9229C6.04252 61.7094 6.6813 61.5041 7.36104 61.4794C7.56577 61.4794 7.77051 61.4794 7.98344 61.4794C8.92524 61.4794 9.85885 61.4959 10.8006 61.4876C10.9481 61.4876 11.0955 61.4302 11.2429 61.3809C12.0291 61.1181 12.7743 61.1017 13.4622 61.6847C13.8963 62.0543 14.5023 61.9393 14.7726 61.5041C15.0264 61.0934 14.9118 60.5514 14.445 60.305C13.8062 59.9683 13.4213 59.4838 13.3722 58.7529C13.3722 58.679 13.3394 58.6132 13.3066 58.4736C13.4541 58.4983 13.5769 58.4736 13.6424 58.5393C14.0928 58.9007 14.5678 59.1799 15.1247 59.377C15.829 59.6316 16.5661 59.8205 17.2049 60.2722C17.5243 60.5021 17.9993 60.5761 18.4087 60.6089C18.7609 60.6335 19.0721 60.7321 19.4079 60.8389C19.7354 60.9456 20.0876 60.962 20.4315 61.0031C21.013 61.077 21.5371 61.5451 21.6272 62.1282C21.6845 62.5142 21.8565 62.8099 22.1268 63.0809C22.6837 63.6393 22.7901 64.2306 22.4626 64.9533C22.2742 65.364 22.4052 65.7417 22.5199 66.1606C22.3725 66.2674 22.2332 66.3659 22.0858 66.4562C21.2096 66.9983 20.3169 67.4992 19.4652 68.0823C19.0967 68.3369 18.8346 68.7393 18.507 69.0596C18.376 69.1828 18.1958 69.3635 18.0484 69.3471C17.6225 69.2978 17.1967 69.1746 16.779 69.0678C16.6889 69.0432 16.607 68.9446 16.5251 68.9446C16.001 68.92 15.5342 68.7147 15.051 68.5176C14.6661 68.3616 14.2321 68.3205 13.8226 68.2055C13.4213 68.0905 13.0364 68.1891 12.6433 68.2219C12.0127 68.2712 11.4067 68.5094 10.7269 68.378C10.1537 68.2712 9.49851 68.2055 8.90886 68.4765C8.44206 68.6901 7.99982 68.4765 7.55759 68.4108C6.79596 68.2959 6.79596 68.2712 6.12442 68.5669C5.89511 68.2959 5.65761 68.0084 5.41192 67.7128C5.73132 67.2036 6.14079 66.9736 6.69768 67.0968C7.41836 67.2611 8.10628 67.0722 8.79421 66.9326C9.06446 66.8751 9.35929 66.8422 9.62954 66.8915C9.91617 66.9408 10.1537 66.9408 10.3912 66.7683C10.5304 66.6698 10.6942 66.6205 10.8416 66.5384C10.989 66.4562 11.12 66.3577 11.2429 66.2756C11.1037 65.7828 10.8334 65.635 10.3748 65.6514C9.31015 65.6843 8.23732 65.6678 7.17268 65.6678C7.0744 65.6678 6.97613 65.6678 6.88604 65.7089C6.32915 65.9471 5.75589 66.0785 5.14167 66.021C4.99426 66.0046 4.82228 66.1277 4.67487 66.2099C4.4947 66.3166 4.33909 66.4562 4.26539 66.5137C3.65936 66.4562 3.16799 66.4152 2.62748 66.3659C2.82403 66.0292 3.02877 65.8074 3.37273 65.7171C3.57747 65.6596 3.77402 65.5775 3.96238 65.479C4.5684 65.1833 5.19081 65.1669 5.82959 65.2901C5.91968 65.3065 6.03433 65.3311 6.11623 65.2901C6.77139 64.9944 7.50026 65.134 8.17999 64.9287C8.41749 64.8548 8.70412 64.9041 8.96619 64.9287C9.59678 64.9944 10.1537 64.8302 10.5959 64.3703C10.8825 64.0746 10.8498 63.9021 10.5058 63.6722C10.0308 63.3519 9.48213 63.3355 9.01532 63.5408C8.50757 63.7543 8.0162 63.7133 7.51664 63.7461C7.32828 63.7543 7.14811 63.7872 6.95975 63.8036C6.72225 63.8282 6.47657 63.8364 6.23088 63.8693C6.00976 63.8939 5.78864 63.9186 5.56753 63.9678C5.38736 64.0089 5.21538 64.091 5.0434 64.1403C4.70762 64.2471 4.40461 64.2306 4.05246 64.1074C3.61841 63.9596 3.19256 64.2306 2.79127 64.4113C2.47188 64.5591 2.15249 64.7316 1.76758 64.9287L1.79215 64.9451Z" fill="white"/>
<path d="M60.0121 87.4636C60.3315 87.2665 60.528 87.324 60.7573 87.4307C60.9785 87.5293 61.2569 87.6114 61.4698 87.5539C61.9612 87.4143 62.3707 87.5539 62.7965 87.7428C62.9358 87.8085 63.0832 87.8496 63.247 87.9153C63.378 88.367 63.509 88.8269 63.6483 89.2868C63.8858 90.0752 64.1888 90.8471 64.2215 91.6848C64.2297 91.9066 64.4099 92.1365 64.5655 92.3172C64.7784 92.5636 64.8357 92.7935 64.7702 93.1056C64.7211 93.3356 64.7047 93.6476 64.8276 93.8201C65.0814 94.1897 65.1142 94.5839 65.0732 94.9781C65.0323 95.4051 65.1142 95.7829 65.3435 96.136C65.5073 96.3824 65.54 96.6534 65.5728 96.9491C65.6383 97.4747 65.7693 98.0085 65.9577 98.5095C66.0642 98.7887 66.1706 99.0433 66.1379 99.3389C66.1051 99.7331 66.1952 100.103 66.3672 100.456C66.4573 100.637 66.4491 100.866 66.5146 101.064C66.6047 101.335 66.7111 101.597 66.834 101.852C66.9732 102.123 67.1288 102.386 67.309 102.632C67.6857 103.15 67.5792 103.733 67.5465 104.299C67.5219 104.694 67.571 105.047 67.7348 105.416C67.8986 105.778 67.9396 106.188 68.0215 106.582C68.1279 107.108 68.3491 107.593 68.4719 108.118C68.5866 108.586 68.7421 109.038 68.8404 109.514C69.037 110.451 69.3973 111.346 69.6839 112.257C69.7331 112.405 69.7658 112.553 69.7658 112.709C69.7822 113.128 69.9296 113.473 70.1589 113.834C70.3473 114.122 70.4374 114.516 70.4374 114.861C70.4374 115.288 70.5029 115.666 70.7404 116.019C70.3882 116.002 69.5365 115.69 69.2745 115.559C68.9141 115.378 68.5374 115.238 68.1525 115.132C67.8659 115.05 67.7103 114.926 67.6038 114.631C67.4973 114.335 67.2762 114.08 67.0633 113.826C67.0551 113.793 67.0223 113.744 67.0387 113.719C67.2598 112.955 66.9241 112.315 66.5637 111.707C66.3672 111.379 66.3262 111.066 66.4163 110.713C66.5228 110.286 66.4327 109.917 66.1788 109.572C65.8922 109.186 65.7939 108.751 65.7939 108.266C65.7939 107.724 65.7448 107.19 65.5073 106.689C65.4336 106.533 65.3926 106.361 65.3763 106.188C65.3107 105.63 65.1797 105.104 64.8767 104.603C64.6801 104.291 64.5655 103.922 64.5573 103.511C64.5573 103.035 64.5245 102.542 64.2133 102.131C64.1888 102.098 64.1724 102.066 64.1642 102.024C64.0168 101.392 63.8776 100.751 63.7302 100.119C63.6728 99.881 63.5827 99.6428 63.509 99.4128C63.4763 99.3061 63.4353 99.1993 63.4108 99.0843C63.2879 98.5834 63.1651 98.0824 63.0422 97.5814C62.9767 97.3186 62.9358 97.0558 62.8621 96.8013C62.6901 96.1935 62.5181 95.5858 62.3379 94.9781C62.3134 94.9041 62.2888 94.8302 62.2478 94.7645C61.994 94.3211 61.8302 93.8776 61.7483 93.352C61.6664 92.8346 61.3961 92.3336 61.478 91.7669C61.4944 91.6684 61.4371 91.5206 61.3634 91.4467C61.0112 91.0771 61.0112 90.609 60.9457 90.1573C60.8966 89.7959 60.7492 89.4592 60.6509 89.1143C60.4871 88.5558 60.3315 88.0056 60.0039 87.4882L60.0121 87.4636Z" fill="white"/>
<path d="M87.3397 115.526C86.5781 115.124 86.1523 115.222 85.6363 115.863C85.2432 116.35 84.7955 116.391 84.2932 115.986C83.9247 115.69 83.679 115.641 83.3023 115.912C82.9911 116.134 82.729 116.421 82.4506 116.684C82.3032 116.824 82.1639 116.98 81.9674 117.177C81.7954 116.98 81.6808 116.799 81.5252 116.668C80.8536 116.093 80.526 116.06 79.7562 116.487C79.4205 116.668 79.4286 116.684 79.0601 116.61C79.1502 116.216 79.2321 115.822 79.3304 115.436C79.3549 115.329 79.3959 115.206 79.4696 115.124C79.7317 114.861 79.8463 114.557 79.8463 114.187C79.8463 114.064 79.9282 113.933 79.9937 113.818C80.2148 113.407 80.3131 112.964 80.4523 112.528C80.6489 111.904 80.5834 111.182 81.1239 110.664C81.345 110.451 81.3204 110.122 81.1648 109.851C81.0174 109.597 80.7799 109.465 80.4851 109.49C80.1985 109.506 79.9118 109.531 79.6252 109.58C79.2321 109.646 78.9045 109.835 78.6834 110.188C78.5196 110.442 78.5114 110.434 78.0938 110.516C78.2575 110.237 78.364 110.007 78.5114 109.802C78.7899 109.408 78.9045 108.972 78.8963 108.496C78.8963 108.34 78.9045 108.184 78.8963 108.036C78.839 107.379 79.1174 106.829 79.486 106.336C79.748 105.983 80.092 105.696 80.5997 105.778C80.8045 105.811 81.0256 105.811 81.2303 105.794C81.3532 105.786 81.4842 105.745 81.5825 105.671C81.8855 105.441 82.1803 105.4 82.5079 105.63C82.9338 105.934 83.376 106.131 83.9083 105.926C84.0803 106.139 84.2277 106.353 84.3997 106.525C84.5799 106.698 84.7764 106.87 84.9975 106.96C85.4152 107.141 85.8492 107.338 86.2997 107.387C86.7747 107.445 87.1268 107.757 87.5772 107.864C87.8065 107.913 87.8475 108.135 87.7656 108.332C87.6346 108.652 87.7001 108.964 87.741 109.293C87.782 109.646 87.6837 110.015 87.6428 110.377C87.6346 110.475 87.5772 110.574 87.5936 110.664C87.7902 111.412 87.3479 112.192 87.7247 112.931C87.7738 113.029 87.7165 113.194 87.7165 113.325C87.7165 113.596 87.6428 113.892 87.7247 114.13C87.9212 114.688 87.6509 115.091 87.3643 115.542L87.3397 115.526Z" fill="white"/>
<path d="M61.6172 54.7449C63.6973 53.5048 65.1059 51.6569 66.5555 49.8584C66.6619 49.9405 66.7357 49.9652 66.7438 50.0062C66.8503 50.7043 67.4236 51.0985 67.8167 51.5995C67.8494 51.6405 67.9231 51.6734 67.9395 51.7227C68.2507 52.6425 69.1843 53.1763 69.43 54.1289C69.0942 54.6217 68.7667 55.1144 68.4227 55.599C68.3572 55.6893 68.2507 55.7961 68.1606 55.7961C67.44 55.8125 67.0632 56.3627 66.5964 56.7816C66.0641 57.2497 65.5154 57.6932 64.9667 58.1449C64.7702 58.3091 64.5736 58.2763 64.3934 58.1284C64.3197 58.071 64.246 58.0053 64.1887 57.9231C63.8366 57.4222 63.4762 56.9294 63.1486 56.4202C62.9439 56.1082 62.731 55.8454 62.4116 55.6318C62.1249 55.4347 61.9284 55.1062 61.6172 54.7449Z" fill="white"/>
<path d="M58.2099 54.9099C57.9887 55.2959 57.784 55.6572 57.5793 56.0186C57.5301 56.1007 57.4728 56.1992 57.3991 56.2239C56.6293 56.4867 56.2853 57.193 55.8103 57.7596C55.581 58.0306 55.3845 58.3263 55.147 58.6384C54.7866 58.2442 54.4754 57.9074 54.1642 57.5789C53.8366 57.2258 53.4681 56.9302 53.0177 56.7248C52.7147 56.5852 52.469 56.3142 52.1987 56.1089C52.1086 56.035 52.0267 55.92 51.9285 55.9036C51.2651 55.8132 51.0358 55.263 50.7246 54.8359C50.9212 54.5239 51.1177 54.2282 51.3143 53.9244C51.347 53.8751 51.3716 53.8176 51.4207 53.793C51.8711 53.563 52.1987 53.1524 52.6 52.906C53.1569 52.5611 53.5091 52.0437 53.984 51.633C54.0578 51.5756 54.0823 51.4688 54.1069 51.4277C54.2461 51.4606 54.2953 51.4606 54.3116 51.477C54.6065 51.9041 54.844 52.3804 55.4336 52.4543C55.6957 52.9553 56.1297 53.2509 56.6456 53.448C56.9569 54.1707 57.7267 54.3925 58.218 54.9016L58.2099 54.9099Z" fill="white"/>
<path d="M60.791 85.6238C61.0449 85.5089 61.2906 85.3939 61.5445 85.2871C61.6673 85.2378 61.7983 85.1968 61.9212 85.1804C62.5026 85.0818 63.1005 85.0161 63.6737 84.8765C64.075 84.7779 64.4927 84.6383 64.8366 84.4166C65.3034 84.1127 65.8276 84.1374 66.3271 84.0388C66.7939 83.9485 67.2116 83.7842 67.572 83.4886C67.7521 83.3407 67.9077 83.2915 68.1452 83.3407C68.4155 83.3982 68.7103 83.3572 69.0133 83.3736C68.4974 83.5543 68.1534 84.0552 67.5556 84.1127C67.4982 84.1127 67.4245 84.1291 67.3918 84.1702C66.9004 84.704 66.1224 84.7615 65.5983 85.2461C65.4754 85.3528 65.3116 85.476 65.1642 85.476C64.6565 85.476 64.3289 85.7142 64.1323 86.1659C64.1078 86.2151 64.0586 86.248 64.0095 86.3137C63.6492 86.0673 63.2806 85.9605 62.822 86.0427C62.5108 86.0919 62.1423 86.0427 61.8475 85.8045C61.5444 85.5581 61.1677 85.5335 60.7992 85.6403L60.791 85.6238Z" fill="white"/>
<path d="M70.3799 82.9469C70.0687 83.0208 69.8394 83.0783 69.5938 83.1358C69.8476 82.6594 69.8558 82.6512 70.3799 82.9469Z" fill="white"/>
<path d="M75.6789 58.909C75.3267 58.3916 74.9991 57.9235 74.6879 57.4472C74.516 57.1844 74.3767 56.9298 74.5815 56.5931C74.7944 56.2399 75.0483 56.1414 75.5069 56.3631C76.0884 56.6588 76.4896 57.1597 76.8909 57.6525C77.0629 57.8578 77.2103 58.0878 77.3659 58.3095C77.7345 58.8269 77.5133 59.525 76.8909 59.6153C76.4323 59.6728 76.2358 59.9192 76.1457 60.2887C76.0392 60.7076 75.8181 60.9704 75.425 61.1182C75.3104 61.1675 75.1466 61.2414 75.1138 61.3399C74.9254 61.8902 74.5569 62.2926 74.1392 62.6457C74.1556 62.7197 74.1556 62.7771 74.1802 62.7854C74.9009 63.1385 75.294 63.8284 75.8181 64.3868C75.9246 64.5018 75.9983 64.6496 76.1211 64.7317C76.6944 65.1259 76.6944 65.6844 76.5879 66.2757C76.506 66.7274 76.4569 67.1873 76.3095 67.6143C76.0147 68.4274 75.9983 69.2979 75.6461 70.1027C75.4168 70.6201 75.3267 71.1868 75.1711 71.737C75.1548 71.7945 75.1466 71.852 75.122 71.9013C74.688 72.6979 74.4914 73.5931 74.1065 74.3979C73.9018 74.8332 73.7052 75.252 73.5496 75.7119C73.4349 76.0486 73.1565 76.3279 72.9927 76.6482C72.7306 77.1573 72.5259 77.6912 72.2638 78.2003C72.1246 78.4631 71.9117 78.6849 71.6824 78.997C71.6824 79.654 71.4858 80.0564 70.8962 80.5081C70.6587 80.6887 70.3966 80.7052 70.1346 80.582C69.8889 80.467 69.7251 80.2453 69.766 79.9742C69.8643 79.3583 69.7906 78.652 70.5522 78.4056C70.5768 77.6994 70.8061 77.0998 71.1173 76.5168C71.3057 76.1718 71.3876 75.7612 71.5104 75.3834C71.5514 75.252 71.5186 75.0878 71.5923 74.9892C71.9526 74.48 72.0591 73.8641 72.3212 73.3139C72.575 72.7965 72.8453 72.2873 73.05 71.7453C73.263 71.2032 73.3776 70.6201 73.5906 70.0699C73.8199 69.4868 74.0983 68.9201 74.3686 68.3535C74.6061 67.8525 74.8435 67.3598 75.0974 66.867C75.2448 66.5796 75.425 66.3168 75.6134 65.98C75.1302 65.6187 74.5897 65.2163 74.0574 64.8139C73.8444 64.6496 73.6397 64.4854 73.4268 64.3129C73.222 64.1404 73.0255 63.9515 72.8044 63.8037C72.444 63.5656 72.2966 63.237 72.3376 62.8182C72.3376 62.7443 72.3376 62.6129 72.3703 62.5965C72.8617 62.3994 72.7225 61.7752 73.1156 61.5042C73.4923 61.2496 73.8444 60.9457 74.1884 60.6419C74.303 60.5351 74.4013 60.3791 74.4423 60.223C74.5323 59.8863 74.6961 59.6482 75.0073 59.4675C75.2612 59.3197 75.4741 59.0815 75.6953 58.8926L75.6789 58.909Z" fill="black"/>
<path d="M79.8969 65.8573C79.5857 65.307 79.6266 64.7486 79.8232 64.1737C79.8641 64.0505 79.8723 63.9109 79.8887 63.7795C79.9215 63.492 79.9133 63.1964 79.987 62.9254C80.159 62.2602 80.4047 61.6196 80.5521 60.9462C80.6503 60.5273 80.765 60.1413 81.0189 59.7882C81.1827 59.5582 81.371 59.4268 81.6495 59.509C81.9361 59.5911 82.0262 59.8292 81.9852 60.1003C81.9443 60.4205 81.8624 60.7326 81.8214 61.0611C81.7559 61.6278 81.7068 62.1945 81.6495 62.7611C81.6495 62.835 81.6495 62.9172 81.6495 62.9911C81.5676 63.6399 81.4775 64.2804 81.4611 64.9292C81.4529 65.2742 81.2809 65.6191 81.1663 66.0379C81.2318 66.235 81.3546 66.5225 81.412 66.8181C81.4529 67.0152 81.4693 67.2698 81.3874 67.4423C81.1335 67.9843 81.1909 68.5263 81.2809 69.0766C81.3874 69.7829 81.5921 70.4727 81.6413 71.179C81.6986 72.0413 82.1163 72.8379 82.0917 73.7167C82.0835 74.1027 82.1572 74.4805 82.1654 74.8664C82.1654 75.1867 81.9443 75.4167 81.6413 75.4577C81.3465 75.4988 81.109 75.3181 80.9779 75.0143C80.8059 74.6119 80.6094 74.2259 80.3883 73.8399C80.1262 73.3882 79.8723 72.9365 79.8805 72.3862C79.8805 72.2959 79.8723 72.1809 79.8232 72.107C79.5366 71.6964 79.5529 71.2283 79.5529 70.7684C79.5529 69.8321 79.5775 68.8877 79.5857 67.9515C79.5857 67.8776 79.5857 67.7954 79.5693 67.7215C79.3564 66.8263 79.381 66.6621 79.8969 65.8408V65.8573Z" fill="black"/>
<path d="M59.602 41.3015C58.9714 41.2358 58.48 41.1865 57.9805 41.129C57.8658 41.1126 57.743 41.0798 57.6611 41.0059C57.096 40.5706 56.5063 40.1682 55.9986 39.6754C55.7201 39.4044 55.5482 39.0102 55.3762 38.6406C55.2288 38.3286 55.3762 37.9672 55.671 37.7865C55.9495 37.6059 56.318 37.6387 56.58 37.8851C56.8175 38.1068 57.0305 38.3532 57.2598 38.5914C57.53 38.8788 57.8822 38.9938 58.2507 39.1334C58.9632 39.4044 59.6593 39.2073 60.3554 39.2484C60.5765 39.2648 60.7403 39.1662 60.8959 38.9938C61.199 38.6571 61.5429 38.345 61.8951 38.0493C62.2063 37.7865 62.6076 37.7947 62.9024 38.0493C63.189 38.2875 63.2955 38.7146 63.0825 39.0431C62.845 39.4126 62.5584 39.7493 62.2718 40.0861C62.1899 40.1846 62.0507 40.2667 61.9278 40.2749C61.4365 40.3324 61.0925 40.6445 60.724 40.9155C60.3472 41.1865 59.9214 41.2851 59.6102 41.2933L59.602 41.3015Z" fill="black"/>
<path d="M58.5141 36.0373C58.6206 36.1359 58.7435 36.2426 58.8581 36.3658C59.1611 36.6861 59.2021 37.1953 58.9564 37.4745C58.6861 37.7866 58.1456 37.8359 57.7935 37.5895C57.556 37.4252 57.3267 37.261 57.0892 37.0967C56.7616 36.8668 56.3931 35.9223 56.5077 35.5364C56.5568 35.3639 56.6633 35.1504 56.8025 35.06C57.0646 34.8958 57.1793 34.633 57.3676 34.4277C57.6788 34.0909 57.9736 33.7542 58.1784 33.3354C58.2685 33.1465 58.3995 32.9822 58.4814 32.7934C58.7189 32.2595 59.2512 31.9885 59.6852 32.2021C60.152 32.4238 60.2995 33.0233 60.0292 33.5571C59.9391 33.7378 59.8818 33.9431 59.8081 34.1402C59.7671 34.247 59.7426 34.3702 59.6771 34.4605C59.3003 34.9779 58.9154 35.4871 58.506 36.0373H58.5141Z" fill="black"/>
<path d="M51.0768 33.3263C51.0441 32.1765 52.2234 31.3306 53.2716 31.7495C53.3699 31.7906 53.46 31.8727 53.5419 31.9548C53.632 32.0534 53.6811 32.2012 53.7876 32.2751C54.1889 32.5625 54.2462 32.891 54.1479 33.3756C53.9514 34.32 53.0669 34.8949 52.1087 34.6321C51.3143 34.4104 51.1014 34.1393 51.0768 33.3345V33.3263Z" fill="black"/>
<path d="M67.562 33.2203C67.5538 34.2386 66.8577 34.9613 66.1534 34.9695C65.4982 34.9695 64.6219 34.3536 64.4663 33.713C64.409 33.4831 64.4418 33.212 64.5237 32.9903C64.7694 32.3333 65.7439 31.7666 66.4318 31.8488C66.7512 31.8898 67.0461 32.0294 67.1935 32.3087C67.3736 32.6536 67.4965 33.0396 67.5702 33.2285L67.562 33.2203Z" fill="black"/>
<path d="M59.5695 70.7509C59.5695 70.6852 59.5695 70.5867 59.5695 70.4963C59.6104 70.0857 59.9135 69.8722 60.3393 69.9461C60.7897 70.0282 60.9699 70.291 60.888 70.7181C60.8552 70.8823 60.8389 71.0548 60.7979 71.219C60.7242 71.5065 60.3721 71.8268 60.1591 71.8103C59.8807 71.7857 59.5613 71.3915 59.5449 71.0712C59.5449 70.9727 59.5531 70.8823 59.5613 70.7509H59.5695Z" fill="black"/>
<path d="M59.4707 79.3334C59.4707 78.89 59.8228 78.6025 60.3306 78.6354C60.7237 78.66 60.9776 78.9557 60.953 79.3745C60.9448 79.5223 60.9039 79.6784 60.8793 79.8262C60.7728 80.3354 60.3797 80.4996 59.9457 80.2204C59.6836 80.0479 59.4707 79.6537 59.4789 79.3416L59.4707 79.3334Z" fill="black"/>
<path d="M60.7664 61.6431C60.7664 62.0455 60.4307 62.4069 60.054 62.4069C59.6609 62.4069 59.3333 62.1195 59.3169 61.7581C59.3005 61.3803 59.6936 60.904 60.013 60.9122C60.3897 60.9122 60.7583 61.2818 60.7583 61.6513L60.7664 61.6431Z" fill="black"/>
<path d="M16.0185 64.4934C16.2069 64.5181 16.4034 64.5099 16.5836 64.5674C16.862 64.6577 17.1159 64.7316 17.4189 64.6413C17.5663 64.6002 17.7547 64.6823 17.9185 64.7316C18.1314 64.7973 18.3443 64.8959 18.5573 64.9616C18.9176 65.0765 19.1305 65.364 19.0896 65.6843C19.0568 65.9799 18.8111 66.2017 18.459 66.2591C18.2133 66.3002 17.9758 66.3577 17.7301 66.3988C17.64 66.4152 17.5254 66.4562 17.4517 66.4316C16.6655 66.1688 15.8629 66.4645 15.0603 66.3166C14.7082 66.2509 14.2987 66.5055 13.922 66.6287C13.7582 66.678 13.6108 66.793 13.447 66.834C13.0703 66.9408 12.6935 66.7519 12.5298 66.4152C12.366 66.062 12.4724 65.5775 12.841 65.4132C13.3569 65.1833 13.9138 65.019 14.4461 64.8384C14.5935 64.7891 14.7409 64.7562 14.8883 64.7234C15.2569 64.6248 15.6172 64.5263 15.9857 64.4277C15.9857 64.4442 16.0021 64.4606 16.0021 64.477L16.0185 64.4934Z" fill="black"/>
<path d="M51.7665 38.2869C53.1596 38.2869 54.2889 37.7133 54.2889 37.0058C54.2889 36.2982 53.1596 35.7246 51.7665 35.7246C50.3734 35.7246 49.2441 36.2982 49.2441 37.0058C49.2441 37.7133 50.3734 38.2869 51.7665 38.2869Z" fill="#F5E2CF"/>
<path d="M69.4315 37.0058C69.4315 37.7121 68.3013 38.2869 66.9091 38.2869C65.5169 38.2869 64.3867 37.7121 64.3867 37.0058C64.3867 36.2995 65.5169 35.7246 66.9091 35.7246C68.3013 35.7246 69.4315 36.2995 69.4315 37.0058Z" fill="#F5E2CF"/>
</g>
<defs>
<clipPath id="clip0_6_777">
<rect width="96" height="110" fill="white"/>
</clipPath>
</defs>
</svg>
