<svg width="72" height="328" viewBox="0 0 72 328" fill="none" xmlns="http://www.w3.org/2000/svg">
<g clip-path="url(#clip0_16_406)">
<path d="M44.5 30C44.5 38.81 36.51 38.81 36.51 47.61C36.51 56.41 44.5 56.42 44.5 65.23C44.5 74.04 36.51 74.04 36.51 82.85C36.51 91.66 44.5 91.66 44.5 100.47C44.5 109.28 36.51 109.28 36.51 118.09" stroke="#F39556" stroke-width="2" stroke-miterlimit="10"/>
</g>
<g clip-path="url(#clip1_16_406)">
<path d="M44.5 100C44.5 108.81 36.51 108.81 36.51 117.61C36.51 126.41 44.5 126.42 44.5 135.23C44.5 144.04 36.51 144.04 36.51 152.85C36.51 161.66 44.5 161.66 44.5 170.47C44.5 179.28 36.51 179.28 36.51 188.09" stroke="#F39556" stroke-width="2" stroke-miterlimit="10"/>
</g>
<g clip-path="url(#clip2_16_406)">
<path d="M44.5 170C44.5 178.81 36.51 178.81 36.51 187.61C36.51 196.41 44.5 196.42 44.5 205.23C44.5 214.04 36.51 214.04 36.51 222.85C36.51 231.66 44.5 231.66 44.5 240.47C44.5 249.28 36.51 249.28 36.51 258.09" stroke="#F39556" stroke-width="2" stroke-miterlimit="10"/>
</g>
<g clip-path="url(#clip3_16_406)">
<path d="M44.5 240C44.5 248.81 36.51 248.81 36.51 257.61C36.51 266.41 44.5 266.42 44.5 275.23C44.5 284.04 36.51 284.04 36.51 292.85C36.51 301.66 44.5 301.66 44.5 310.47C44.5 319.28 36.51 319.28 36.51 328.09" stroke="#F39556" stroke-width="2" stroke-miterlimit="10"/>
</g>
<g clip-path="url(#clip4_16_406)">
<path d="M56.5 30C56.5 38.81 48.51 38.81 48.51 47.61C48.51 56.41 56.5 56.42 56.5 65.23C56.5 74.04 48.51 74.04 48.51 82.85C48.51 91.66 56.5 91.66 56.5 100.47C56.5 109.28 48.51 109.28 48.51 118.09" stroke="#F39556" stroke-width="2" stroke-miterlimit="10"/>
</g>
<g clip-path="url(#clip5_16_406)">
<path d="M56.5 100C56.5 108.81 48.51 108.81 48.51 117.61C48.51 126.41 56.5 126.42 56.5 135.23C56.5 144.04 48.51 144.04 48.51 152.85C48.51 161.66 56.5 161.66 56.5 170.47C56.5 179.28 48.51 179.28 48.51 188.09" stroke="#F39556" stroke-width="2" stroke-miterlimit="10"/>
</g>
<g clip-path="url(#clip6_16_406)">
<path d="M56.5 170C56.5 178.81 48.51 178.81 48.51 187.61C48.51 196.41 56.5 196.42 56.5 205.23C56.5 214.04 48.51 214.04 48.51 222.85C48.51 231.66 56.5 231.66 56.5 240.47C56.5 249.28 48.51 249.28 48.51 258.09" stroke="#F39556" stroke-width="2" stroke-miterlimit="10"/>
</g>
<g clip-path="url(#clip7_16_406)">
<path d="M56.5 240C56.5 248.81 48.51 248.81 48.51 257.61C48.51 266.41 56.5 266.42 56.5 275.23C56.5 284.04 48.51 284.04 48.51 292.85C48.51 301.66 56.5 301.66 56.5 310.47C56.5 319.28 48.51 319.28 48.51 328.09" stroke="#F39556" stroke-width="2" stroke-miterlimit="10"/>
</g>
<g clip-path="url(#clip8_16_406)">
<path d="M69.5 30C69.5 38.81 61.51 38.81 61.51 47.61C61.51 56.41 69.5 56.42 69.5 65.23C69.5 74.04 61.51 74.04 61.51 82.85C61.51 91.66 69.5 91.66 69.5 100.47C69.5 109.28 61.51 109.28 61.51 118.09" stroke="#F39556" stroke-width="2" stroke-miterlimit="10"/>
</g>
<g clip-path="url(#clip9_16_406)">
<path d="M69.5 100C69.5 108.81 61.51 108.81 61.51 117.61C61.51 126.41 69.5 126.42 69.5 135.23C69.5 144.04 61.51 144.04 61.51 152.85C61.51 161.66 69.5 161.66 69.5 170.47C69.5 179.28 61.51 179.28 61.51 188.09" stroke="#F39556" stroke-width="2" stroke-miterlimit="10"/>
</g>
<g clip-path="url(#clip10_16_406)">
<path d="M69.5 170C69.5 178.81 61.51 178.81 61.51 187.61C61.51 196.41 69.5 196.42 69.5 205.23C69.5 214.04 61.51 214.04 61.51 222.85C61.51 231.66 69.5 231.66 69.5 240.47C69.5 249.28 61.51 249.28 61.51 258.09" stroke="#F39556" stroke-width="2" stroke-miterlimit="10"/>
</g>
<g clip-path="url(#clip11_16_406)">
<path d="M69.5 240C69.5 248.81 61.51 248.81 61.51 257.61C61.51 266.41 69.5 266.42 69.5 275.23C69.5 284.04 61.51 284.04 61.51 292.85C61.51 301.66 69.5 301.66 69.5 310.47C69.5 319.28 61.51 319.28 61.51 328.09" stroke="#F39556" stroke-width="2" stroke-miterlimit="10"/>
</g>
<path d="M11.2989 40.0823C4.7596 39.2569 -0.743132 44.7596 0.082278 51.2989C0.645349 55.7587 4.24132 59.3547 8.7011 59.9177C15.2404 60.7431 20.7431 55.2404 19.9177 48.7011C19.3547 44.2413 15.7587 40.6453 11.2989 40.0823ZM10.9918 56.936C8.74589 57.2495 6.66636 56.4817 5.1947 55.0868C4.82999 54.7413 4.95796 54.1143 5.44424 53.9799C5.93053 53.8455 6.47441 53.6408 7.02468 53.3336C8.41956 52.5658 9.43693 51.4525 10.0256 50.6846C10.3007 50.3263 10.0512 49.8144 9.60329 49.8144H3.86381C3.38392 49.8144 3.00641 49.3857 3.08319 48.9122C3.60147 45.5594 6.5064 42.9808 10 42.9808C14.1335 42.9808 17.4415 46.5768 16.9616 50.8062C16.6033 53.9287 14.1143 56.4881 10.9982 56.9232L10.9918 56.936Z" fill="#F39556"/>
<path d="M0.082278 8.7011C-0.743132 15.2404 4.7596 20.7431 11.2989 19.9177C15.7587 19.3547 19.3547 15.7587 19.9177 11.2989C20.7431 4.7596 15.2404 -0.743132 8.7011 0.082278C4.24132 0.645349 0.645349 4.24132 0.082278 8.7011ZM3.0384 10.819C2.55851 6.58958 5.86655 2.99361 10 2.99361C13.5 2.99361 16.3985 5.57222 16.9168 8.92505C16.9872 9.39854 16.6097 9.82724 16.1362 9.82724H10.3967C9.94881 9.82724 9.69927 10.3391 9.97441 10.6974C10.5631 11.4653 11.5804 12.5722 12.9753 13.3464C13.5256 13.6536 14.0631 13.8583 14.5558 13.9927C15.0484 14.1271 15.17 14.7477 14.8053 15.0996C13.3336 16.4945 11.2541 17.2623 9.00823 16.9488C5.89214 16.5137 3.40312 13.9543 3.0448 10.8318L3.0384 10.819Z" fill="#F39556"/>
<path d="M27 22.9942C30.8644 22.9942 34.0058 26.1356 34.0058 30C34.0058 33.8644 30.8644 37.0058 27 37.0058C23.1356 37.0058 19.9942 33.8644 19.9942 30C19.9942 26.1356 23.1356 22.9942 27 22.9942ZM27 20C21.4786 20 17 24.4786 17 30C17 35.5214 21.4786 40 27 40C32.5214 40 37 35.5214 37 30C37 24.4786 32.5214 20 27 20Z" fill="#F39556"/>
<path d="M30.0582 29.8015C31.1074 29.8015 31.8496 30.9148 31.4082 31.8936C30.6404 33.6019 28.9577 34.7919 27 34.7919C25.0422 34.7919 23.3659 33.6083 22.5918 31.8936C22.1503 30.9148 22.8925 29.8015 23.9417 29.8015H30.0518H30.0582Z" fill="#F39556"/>
<defs>
<clipPath id="clip0_16_406">
<rect width="88" height="13" fill="white" transform="translate(47 30) rotate(90)"/>
</clipPath>
<clipPath id="clip1_16_406">
<rect width="88" height="13" fill="white" transform="translate(47 100) rotate(90)"/>
</clipPath>
<clipPath id="clip2_16_406">
<rect width="88" height="13" fill="white" transform="translate(47 170) rotate(90)"/>
</clipPath>
<clipPath id="clip3_16_406">
<rect width="88" height="13" fill="white" transform="translate(47 240) rotate(90)"/>
</clipPath>
<clipPath id="clip4_16_406">
<rect width="88" height="13" fill="white" transform="translate(59 30) rotate(90)"/>
</clipPath>
<clipPath id="clip5_16_406">
<rect width="88" height="13" fill="white" transform="translate(59 100) rotate(90)"/>
</clipPath>
<clipPath id="clip6_16_406">
<rect width="88" height="13" fill="white" transform="translate(59 170) rotate(90)"/>
</clipPath>
<clipPath id="clip7_16_406">
<rect width="88" height="13" fill="white" transform="translate(59 240) rotate(90)"/>
</clipPath>
<clipPath id="clip8_16_406">
<rect width="88" height="13" fill="white" transform="translate(72 30) rotate(90)"/>
</clipPath>
<clipPath id="clip9_16_406">
<rect width="88" height="13" fill="white" transform="translate(72 100) rotate(90)"/>
</clipPath>
<clipPath id="clip10_16_406">
<rect width="88" height="13" fill="white" transform="translate(72 170) rotate(90)"/>
</clipPath>
<clipPath id="clip11_16_406">
<rect width="88" height="13" fill="white" transform="translate(72 240) rotate(90)"/>
</clipPath>
</defs>
</svg>
