<svg width="16" height="21" viewBox="0 0 16 21" fill="none" xmlns="http://www.w3.org/2000/svg">
<rect x="0.5" y="2.99854" width="14.8247" height="15.6576" rx="1.5" stroke="#3F3F3F"/>
<rect x="2.99854" y="6.33032" width="9.82743" height="4.83016" rx="1.5" stroke="#3F3F3F"/>
<circle cx="6.24675" cy="2.0822" r="1.5822" fill="white" stroke="#3F3F3F"/>
<circle cx="9.57927" cy="2.08244" r="1.5822" fill="white" stroke="#3F3F3F"/>
<circle cx="11.2438" cy="15.4084" r="1.5822" fill="white" stroke="#3F3F3F"/>
<circle cx="4.58073" cy="15.4076" r="1.5822" fill="white" stroke="#3F3F3F"/>
<path d="M0.492527 19.9713C0.236136 20.0739 0.111428 20.3649 0.213984 20.6212C0.316541 20.8776 0.607526 21.0023 0.863918 20.8998L0.678223 20.4355L0.492527 19.9713ZM0.678223 20.4355L0.863918 20.8998L5.02832 19.234L4.84262 18.7698L4.65692 18.3055L0.492527 19.9713L0.678223 20.4355Z" fill="#3F3F3F"/>
<path d="M15.1779 19.9711C15.4343 20.0736 15.559 20.3646 15.4564 20.621C15.3539 20.8774 15.0629 21.0021 14.8065 20.8995L14.9922 20.4353L15.1779 19.9711ZM14.9922 20.4353L14.8065 20.8995L10.6421 19.2338L10.8278 18.7695L11.0135 18.3053L15.1779 19.9711L14.9922 20.4353Z" fill="#3F3F3F"/>
</svg>
