<svg width="149" height="74" viewBox="0 0 149 74" fill="none" xmlns="http://www.w3.org/2000/svg">
<g clip-path="url(#clip0_17_428)">
<path d="M0 63.5C8.81 63.5 8.81 71.49 17.61 71.49C26.41 71.49 26.42 63.5 35.23 63.5C44.04 63.5 44.04 71.49 52.85 71.49C61.66 71.49 61.66 63.5 70.47 63.5C79.28 63.5 79.28 71.49 88.09 71.49" stroke="#F39556" stroke-width="2" stroke-miterlimit="10"/>
</g>
<g clip-path="url(#clip1_17_428)">
<path d="M70 63.5C78.81 63.5 78.81 71.49 87.61 71.49C96.41 71.49 96.42 63.5 105.23 63.5C114.04 63.5 114.04 71.49 122.85 71.49C131.66 71.49 131.66 63.5 140.47 63.5C149.28 63.5 149.28 71.49 158.09 71.49" stroke="#F39556" stroke-width="2" stroke-miterlimit="10"/>
</g>
<g clip-path="url(#clip2_17_428)">
<path d="M140 63.5C148.81 63.5 148.81 71.49 157.61 71.49C166.41 71.49 166.42 63.5 175.23 63.5C184.04 63.5 184.04 71.49 192.85 71.49C201.66 71.49 201.66 63.5 210.47 63.5C219.28 63.5 219.28 71.49 228.09 71.49" stroke="#F39556" stroke-width="2" stroke-miterlimit="10"/>
</g>
<g clip-path="url(#clip3_17_428)">
<path d="M0 51.5C8.81 51.5 8.81 59.49 17.61 59.49C26.41 59.49 26.42 51.5 35.23 51.5C44.04 51.5 44.04 59.49 52.85 59.49C61.66 59.49 61.66 51.5 70.47 51.5C79.28 51.5 79.28 59.49 88.09 59.49" stroke="#F39556" stroke-width="2" stroke-miterlimit="10"/>
</g>
<g clip-path="url(#clip4_17_428)">
<path d="M70 51.5C78.81 51.5 78.81 59.49 87.61 59.49C96.41 59.49 96.42 51.5 105.23 51.5C114.04 51.5 114.04 59.49 122.85 59.49C131.66 59.49 131.66 51.5 140.47 51.5C149.28 51.5 149.28 59.49 158.09 59.49" stroke="#F39556" stroke-width="2" stroke-miterlimit="10"/>
</g>
<g clip-path="url(#clip5_17_428)">
<path d="M140 51.5C148.81 51.5 148.81 59.49 157.61 59.49C166.41 59.49 166.42 51.5 175.23 51.5C184.04 51.5 184.04 59.49 192.85 59.49C201.66 59.49 201.66 51.5 210.47 51.5C219.28 51.5 219.28 59.49 228.09 59.49" stroke="#F39556" stroke-width="2" stroke-miterlimit="10"/>
</g>
<g clip-path="url(#clip6_17_428)">
<path d="M0 38.5C8.81 38.5 8.81 46.49 17.61 46.49C26.41 46.49 26.42 38.5 35.23 38.5C44.04 38.5 44.04 46.49 52.85 46.49C61.66 46.49 61.66 38.5 70.47 38.5C79.28 38.5 79.28 46.49 88.09 46.49" stroke="#F39556" stroke-width="2" stroke-miterlimit="10"/>
</g>
<g clip-path="url(#clip7_17_428)">
<path d="M70 38.5C78.81 38.5 78.81 46.49 87.61 46.49C96.41 46.49 96.42 38.5 105.23 38.5C114.04 38.5 114.04 46.49 122.85 46.49C131.66 46.49 131.66 38.5 140.47 38.5C149.28 38.5 149.28 46.49 158.09 46.49" stroke="#F39556" stroke-width="2" stroke-miterlimit="10"/>
</g>
<g clip-path="url(#clip8_17_428)">
<path d="M140 38.5C148.81 38.5 148.81 46.49 157.61 46.49C166.41 46.49 166.42 38.5 175.23 38.5C184.04 38.5 184.04 46.49 192.85 46.49C201.66 46.49 201.66 38.5 210.47 38.5C219.28 38.5 219.28 46.49 228.09 46.49" stroke="#F39556" stroke-width="2" stroke-miterlimit="10"/>
</g>
<path d="M68.2989 12.0823C61.7596 11.2569 56.2569 16.7596 57.0823 23.2989C57.6453 27.7587 61.2413 31.3547 65.7011 31.9177C72.2404 32.7431 77.7431 27.2404 76.9177 20.7011C76.3547 16.2413 72.7587 12.6453 68.2989 12.0823ZM67.9918 28.936C65.7459 29.2495 63.6664 28.4817 62.1947 27.0868C61.83 26.7413 61.958 26.1143 62.4442 25.9799C62.9305 25.8455 63.4744 25.6408 64.0247 25.3336C65.4196 24.5658 66.4369 23.4525 67.0256 22.6846C67.3007 22.3263 67.0512 21.8144 66.6033 21.8144H60.8638C60.3839 21.8144 60.0064 21.3857 60.0832 20.9122C60.6015 17.5594 63.5064 14.9808 67 14.9808C71.1335 14.9808 74.4415 18.5768 73.9616 22.8062C73.6033 25.9287 71.1143 28.4881 67.9982 28.9232L67.9918 28.936Z" fill="#F39556"/>
<path d="M108.082 20.7011C107.257 27.2404 112.76 32.7431 119.299 31.9177C123.759 31.3547 127.355 27.7587 127.918 23.2989C128.743 16.7596 123.24 11.2569 116.701 12.0823C112.241 12.6453 108.645 16.2413 108.082 20.7011ZM111.038 22.819C110.559 18.5896 113.867 14.9936 118 14.9936C121.5 14.9936 124.399 17.5722 124.917 20.925C124.987 21.3985 124.61 21.8272 124.136 21.8272H118.397C117.949 21.8272 117.699 22.3391 117.974 22.6974C118.563 23.4653 119.58 24.5722 120.975 25.3464C121.526 25.6536 122.063 25.8583 122.556 25.9927C123.048 26.1271 123.17 26.7477 122.805 27.0996C121.334 28.4945 119.254 29.2623 117.008 28.9488C113.892 28.5137 111.403 25.9543 111.045 22.8318L111.038 22.819Z" fill="#F39556"/>
<path d="M92 2.99424C95.8644 2.99424 99.0058 6.13564 99.0058 10C99.0058 13.8644 95.8644 17.0058 92 17.0058C88.1356 17.0058 84.9942 13.8644 84.9942 10C84.9942 6.13564 88.1356 2.99424 92 2.99424ZM92 0C86.4786 0 82 4.47857 82 10C82 15.5214 86.4786 20 92 20C97.5214 20 102 15.5214 102 10C102 4.47857 97.5214 0 92 0Z" fill="#F39556"/>
<path d="M95.0582 9.80164C96.1074 9.80164 96.8496 10.9149 96.4082 11.8938C95.6404 13.602 93.9577 14.792 92 14.792C90.0422 14.792 88.3659 13.6084 87.5918 11.8938C87.1503 10.9149 87.8925 9.80164 88.9417 9.80164H95.0518H95.0582Z" fill="#F39556"/>
<defs>
<clipPath id="clip0_17_428">
<rect width="88" height="13" fill="white" transform="translate(0 61)"/>
</clipPath>
<clipPath id="clip1_17_428">
<rect width="88" height="13" fill="white" transform="translate(70 61)"/>
</clipPath>
<clipPath id="clip2_17_428">
<rect width="88" height="13" fill="white" transform="translate(140 61)"/>
</clipPath>
<clipPath id="clip3_17_428">
<rect width="88" height="13" fill="white" transform="translate(0 49)"/>
</clipPath>
<clipPath id="clip4_17_428">
<rect width="88" height="13" fill="white" transform="translate(70 49)"/>
</clipPath>
<clipPath id="clip5_17_428">
<rect width="88" height="13" fill="white" transform="translate(140 49)"/>
</clipPath>
<clipPath id="clip6_17_428">
<rect width="88" height="13" fill="white" transform="translate(0 36)"/>
</clipPath>
<clipPath id="clip7_17_428">
<rect width="88" height="13" fill="white" transform="translate(70 36)"/>
</clipPath>
<clipPath id="clip8_17_428">
<rect width="88" height="13" fill="white" transform="translate(140 36)"/>
</clipPath>
</defs>
</svg>
