<svg width="19" height="20" viewBox="0 0 19 20" fill="none" xmlns="http://www.w3.org/2000/svg">
<path fill-rule="evenodd" clip-rule="evenodd" d="M2.93649 8.81036L4.62715 7.92053C5.24232 7.59676 5.58857 6.89196 5.48398 6.17639L4.78783 1.41324C4.669 0.600185 4.0044 0 3.22291 0H1.58333C0.708883 0 0 0.746192 0 1.66667V5C0 6.18131 0.12996 7.33227 0.376164 8.43728C1.60716 13.9622 5.73587 18.3083 10.9846 19.604C12.0343 19.8632 13.1278 20 14.25 20H17.4167C18.2911 20 19 19.2538 19 18.3333V16.6075C19 15.7848 18.4298 15.0853 17.6574 14.9602L13.1324 14.2274C12.4526 14.1173 11.7831 14.4818 11.4755 15.1293L10.6302 16.909C6.98392 15.6819 4.10215 12.6485 2.93649 8.81036Z" fill="#3F3F3F"/>
</svg>
