<svg width="45" height="45" viewBox="0 0 45 45" fill="none" xmlns="http://www.w3.org/2000/svg">
<path d="M22.5 6.73704C31.1948 6.73704 38.2629 13.8052 38.2629 22.5C38.2629 31.1948 31.1948 38.263 22.5 38.263C13.8052 38.263 6.73704 31.1948 6.73704 22.5C6.73704 13.8052 13.8052 6.73704 22.5 6.73704ZM22.5 0C10.0768 0 0 10.0768 0 22.5C0 34.9232 10.0768 45 22.5 45C34.9232 45 45 34.9232 45 22.5C45 10.0768 34.9232 0 22.5 0Z" fill="#F39556"/>
<path d="M29.3812 22.0537C31.742 22.0537 33.4119 24.5585 32.4186 26.761C30.6911 30.6046 26.9051 33.2821 22.5002 33.2821C18.0952 33.2821 14.3236 30.619 12.5817 26.761C11.5885 24.5585 13.2583 22.0537 15.6192 22.0537H29.3668H29.3812Z" fill="#F39556"/>
</svg>
