<svg width="25" height="25" viewBox="0 0 25 25" fill="none" xmlns="http://www.w3.org/2000/svg">
<path d="M0.102848 10.8764C-0.928915 19.0505 5.9495 25.9289 14.1236 24.8972C19.6983 24.1933 24.1933 19.6983 24.8972 14.1236C25.9289 5.94951 19.0505 -0.928916 10.8764 0.102848C5.30165 0.806686 0.806686 5.30165 0.102848 10.8764ZM3.798 13.5238C3.19813 8.23698 7.33319 3.74201 12.5 3.74201C16.875 3.74201 20.4982 6.96527 21.146 11.1563C21.234 11.7482 20.7621 12.284 20.1702 12.284H12.9959C12.436 12.284 12.1241 12.9239 12.468 13.3718C13.2038 14.3316 14.4756 15.7153 16.2192 16.683C16.907 17.067 17.5788 17.3229 18.1947 17.4909C18.8105 17.6588 18.9625 18.4346 18.5066 18.8745C16.6671 20.6181 14.0676 21.5779 11.2603 21.186C7.36518 20.6421 4.2539 17.4429 3.806 13.5398L3.798 13.5238Z" fill="#F39556"/>
</svg>
