<svg width="75" height="305" viewBox="0 0 75 305" fill="none" xmlns="http://www.w3.org/2000/svg">
<g clip-path="url(#clip0_1097_7505)">
<path d="M10.5 0C10.5 8.81 2.51 8.81 2.51 17.61C2.51 26.41 10.5 26.42 10.5 35.23C10.5 44.04 2.51 44.04 2.51 52.85C2.51 61.66 10.5 61.66 10.5 70.47C10.5 79.28 2.51 79.28 2.51 88.09" stroke="#F39556" stroke-width="2" stroke-miterlimit="10"/>
</g>
<g clip-path="url(#clip1_1097_7505)">
<path d="M10.5 70C10.5 78.81 2.51 78.81 2.51 87.61C2.51 96.41 10.5 96.42 10.5 105.23C10.5 114.04 2.51 114.04 2.51 122.85C2.51 131.66 10.5 131.66 10.5 140.47C10.5 149.28 2.51 149.28 2.51 158.09" stroke="#F39556" stroke-width="2" stroke-miterlimit="10"/>
</g>
<g clip-path="url(#clip2_1097_7505)">
<path d="M10.5 140C10.5 148.81 2.51 148.81 2.51 157.61C2.51 166.41 10.5 166.42 10.5 175.23C10.5 184.04 2.51 184.04 2.51 192.85C2.51 201.66 10.5 201.66 10.5 210.47C10.5 219.28 2.51 219.28 2.51 228.09" stroke="#F39556" stroke-width="2" stroke-miterlimit="10"/>
</g>
<g clip-path="url(#clip3_1097_7505)">
<path d="M10.5 210C10.5 218.81 2.51 218.81 2.51 227.61C2.51 236.41 10.5 236.42 10.5 245.23C10.5 254.04 2.51 254.04 2.51 262.85C2.51 271.66 10.5 271.66 10.5 280.47C10.5 289.28 2.51 289.28 2.51 298.09" stroke="#F39556" stroke-width="2" stroke-miterlimit="10"/>
</g>
<g clip-path="url(#clip4_1097_7505)">
<path d="M22.5 0C22.5 8.81 14.51 8.81 14.51 17.61C14.51 26.41 22.5 26.42 22.5 35.23C22.5 44.04 14.51 44.04 14.51 52.85C14.51 61.66 22.5 61.66 22.5 70.47C22.5 79.28 14.51 79.28 14.51 88.09" stroke="#F39556" stroke-width="2" stroke-miterlimit="10"/>
</g>
<g clip-path="url(#clip5_1097_7505)">
<path d="M22.5 70C22.5 78.81 14.51 78.81 14.51 87.61C14.51 96.41 22.5 96.42 22.5 105.23C22.5 114.04 14.51 114.04 14.51 122.85C14.51 131.66 22.5 131.66 22.5 140.47C22.5 149.28 14.51 149.28 14.51 158.09" stroke="#F39556" stroke-width="2" stroke-miterlimit="10"/>
</g>
<g clip-path="url(#clip6_1097_7505)">
<path d="M22.5 140C22.5 148.81 14.51 148.81 14.51 157.61C14.51 166.41 22.5 166.42 22.5 175.23C22.5 184.04 14.51 184.04 14.51 192.85C14.51 201.66 22.5 201.66 22.5 210.47C22.5 219.28 14.51 219.28 14.51 228.09" stroke="#F39556" stroke-width="2" stroke-miterlimit="10"/>
</g>
<g clip-path="url(#clip7_1097_7505)">
<path d="M22.5 210C22.5 218.81 14.51 218.81 14.51 227.61C14.51 236.41 22.5 236.42 22.5 245.23C22.5 254.04 14.51 254.04 14.51 262.85C14.51 271.66 22.5 271.66 22.5 280.47C22.5 289.28 14.51 289.28 14.51 298.09" stroke="#F39556" stroke-width="2" stroke-miterlimit="10"/>
</g>
<g clip-path="url(#clip8_1097_7505)">
<path d="M35.5 0C35.5 8.81 27.51 8.81 27.51 17.61C27.51 26.41 35.5 26.42 35.5 35.23C35.5 44.04 27.51 44.04 27.51 52.85C27.51 61.66 35.5 61.66 35.5 70.47C35.5 79.28 27.51 79.28 27.51 88.09" stroke="#F39556" stroke-width="2" stroke-miterlimit="10"/>
</g>
<g clip-path="url(#clip9_1097_7505)">
<path d="M35.5 70C35.5 78.81 27.51 78.81 27.51 87.61C27.51 96.41 35.5 96.42 35.5 105.23C35.5 114.04 27.51 114.04 27.51 122.85C27.51 131.66 35.5 131.66 35.5 140.47C35.5 149.28 27.51 149.28 27.51 158.09" stroke="#F39556" stroke-width="2" stroke-miterlimit="10"/>
</g>
<g clip-path="url(#clip10_1097_7505)">
<path d="M35.5 140C35.5 148.81 27.51 148.81 27.51 157.61C27.51 166.41 35.5 166.42 35.5 175.23C35.5 184.04 27.51 184.04 27.51 192.85C27.51 201.66 35.5 201.66 35.5 210.47C35.5 219.28 27.51 219.28 27.51 228.09" stroke="#F39556" stroke-width="2" stroke-miterlimit="10"/>
</g>
<g clip-path="url(#clip11_1097_7505)">
<path d="M35.5 210C35.5 218.81 27.51 218.81 27.51 227.61C27.51 236.41 35.5 236.42 35.5 245.23C35.5 254.04 27.51 254.04 27.51 262.85C27.51 271.66 35.5 271.66 35.5 280.47C35.5 289.28 27.51 289.28 27.51 298.09" stroke="#F39556" stroke-width="2" stroke-miterlimit="10"/>
</g>
<path d="M49.2989 285.082C42.7596 284.257 37.2569 289.76 38.0823 296.299C38.6453 300.759 42.2413 304.355 46.7011 304.918C53.2404 305.743 58.7431 300.24 57.9177 293.701C57.3547 289.241 53.7587 285.645 49.2989 285.082ZM48.9918 301.936C46.7459 302.25 44.6664 301.482 43.1947 300.087C42.83 299.741 42.958 299.114 43.4442 298.98C43.9305 298.846 44.4744 298.641 45.0247 298.334C46.4196 297.566 47.4369 296.452 48.0256 295.685C48.3007 295.326 48.0512 294.814 47.6033 294.814H41.8638C41.3839 294.814 41.0064 294.386 41.0832 293.912C41.6015 290.559 44.5064 287.981 48 287.981C52.1335 287.981 55.4415 291.577 54.9616 295.806C54.6033 298.929 52.1143 301.488 48.9982 301.923L48.9918 301.936Z" fill="#F39556"/>
<path d="M38.0823 253.701C37.2569 260.24 42.7596 265.743 49.2989 264.918C53.7587 264.355 57.3547 260.759 57.9177 256.299C58.7431 249.76 53.2404 244.257 46.7011 245.082C42.2413 245.645 38.6453 249.241 38.0823 253.701ZM41.0384 255.819C40.5585 251.59 43.8665 247.994 48 247.994C51.5 247.994 54.3985 250.572 54.9168 253.925C54.9872 254.399 54.6097 254.827 54.1362 254.827H48.3967C47.9488 254.827 47.6993 255.339 47.9744 255.697C48.5631 256.465 49.5804 257.572 50.9753 258.346C51.5256 258.654 52.0631 258.858 52.5558 258.993C53.0484 259.127 53.17 259.748 52.8053 260.1C51.3336 261.495 49.2541 262.262 47.0082 261.949C43.8921 261.514 41.4031 258.954 41.0448 255.832L41.0384 255.819Z" fill="#F39556"/>
<path d="M65 267.994C68.8644 267.994 72.0058 271.136 72.0058 275C72.0058 278.864 68.8644 282.006 65 282.006C61.1356 282.006 57.9942 278.864 57.9942 275C57.9942 271.136 61.1356 267.994 65 267.994ZM65 265C59.4786 265 55 269.479 55 275C55 280.521 59.4786 285 65 285C70.5214 285 75 280.521 75 275C75 269.479 70.5214 265 65 265Z" fill="#F39556"/>
<path d="M68.0582 274.802C69.1074 274.802 69.8496 275.915 69.4082 276.894C68.6404 278.602 66.9577 279.792 65 279.792C63.0422 279.792 61.3659 278.608 60.5918 276.894C60.1503 275.915 60.8925 274.802 61.9417 274.802H68.0518H68.0582Z" fill="#F39556"/>
<defs>
<clipPath id="clip0_1097_7505">
<rect width="88" height="13" fill="white" transform="translate(13) rotate(90)"/>
</clipPath>
<clipPath id="clip1_1097_7505">
<rect width="88" height="13" fill="white" transform="translate(13 70) rotate(90)"/>
</clipPath>
<clipPath id="clip2_1097_7505">
<rect width="88" height="13" fill="white" transform="translate(13 140) rotate(90)"/>
</clipPath>
<clipPath id="clip3_1097_7505">
<rect width="88" height="13" fill="white" transform="translate(13 210) rotate(90)"/>
</clipPath>
<clipPath id="clip4_1097_7505">
<rect width="88" height="13" fill="white" transform="translate(25) rotate(90)"/>
</clipPath>
<clipPath id="clip5_1097_7505">
<rect width="88" height="13" fill="white" transform="translate(25 70) rotate(90)"/>
</clipPath>
<clipPath id="clip6_1097_7505">
<rect width="88" height="13" fill="white" transform="translate(25 140) rotate(90)"/>
</clipPath>
<clipPath id="clip7_1097_7505">
<rect width="88" height="13" fill="white" transform="translate(25 210) rotate(90)"/>
</clipPath>
<clipPath id="clip8_1097_7505">
<rect width="88" height="13" fill="white" transform="translate(38) rotate(90)"/>
</clipPath>
<clipPath id="clip9_1097_7505">
<rect width="88" height="13" fill="white" transform="translate(38 70) rotate(90)"/>
</clipPath>
<clipPath id="clip10_1097_7505">
<rect width="88" height="13" fill="white" transform="translate(38 140) rotate(90)"/>
</clipPath>
<clipPath id="clip11_1097_7505">
<rect width="88" height="13" fill="white" transform="translate(38 210) rotate(90)"/>
</clipPath>
</defs>
</svg>
