<svg width="58" height="35" viewBox="0 0 58 35" fill="none" xmlns="http://www.w3.org/2000/svg">
<path d="M0 1C5.70965 1 5.70965 8.99 11.4128 8.99C17.116 8.99 17.1225 1 22.8321 1C28.5418 1 28.5418 8.99 34.2514 8.99C39.9611 8.99 39.9611 1 45.6707 1C51.3803 1 51.3803 8.99 57.09 8.99" stroke="#F39556" stroke-width="2" stroke-miterlimit="10"/>
<path d="M0 14C5.70965 14 5.70965 21.99 11.4128 21.99C17.116 21.99 17.1225 14 22.8321 14C28.5418 14 28.5418 21.99 34.2514 21.99C39.9611 21.99 39.9611 14 45.6707 14C51.3803 14 51.3803 21.99 57.09 21.99" stroke="#F39556" stroke-width="2" stroke-miterlimit="10"/>
<path d="M0 26C5.70965 26 5.70965 33.99 11.4128 33.99C17.116 33.99 17.1225 26 22.8321 26C28.5418 26 28.5418 33.99 34.2514 33.99C39.9611 33.99 39.9611 26 45.6707 26C51.3803 26 51.3803 33.99 57.09 33.99" stroke="#F39556" stroke-width="2" stroke-miterlimit="10"/>
</svg>
