<svg width="15" height="21" viewBox="0 0 15 21" fill="none" xmlns="http://www.w3.org/2000/svg">
<path fill-rule="evenodd" clip-rule="evenodd" d="M6.80781 20.7454L6.81337 20.7501L6.81603 20.7523C7.215 21.0827 7.785 21.0827 8.18471 20.7516L8.18663 20.7501L8.19219 20.7454L8.21014 20.7304C8.22087 20.7214 8.23464 20.7098 8.25131 20.6956C8.25785 20.69 8.26484 20.684 8.27227 20.6777C8.32496 20.6325 8.39973 20.5674 8.49342 20.4835C8.6807 20.3157 8.94419 20.0719 9.25848 19.7599C9.88569 19.1374 10.7226 18.2363 11.5619 17.1196C13.2158 14.9192 15 11.7212 15 8.07766C15 3.61649 11.6421 0 7.5 0C3.35786 0 0 3.61649 0 8.07766C0 11.7212 1.78419 14.9192 3.4381 17.1196C4.2774 18.2363 5.11431 19.1374 5.74152 19.7599C6.05581 20.0719 6.3193 20.3157 6.50658 20.4835C6.60027 20.5674 6.67504 20.6325 6.72773 20.6777C6.75408 20.7003 6.77492 20.7179 6.78986 20.7304L6.80781 20.7454ZM7.5 10.501C8.74264 10.501 9.75 9.41601 9.75 8.07766C9.75 6.73931 8.74264 5.65436 7.5 5.65436C6.25736 5.65436 5.25 6.73931 5.25 8.07766C5.25 9.41601 6.25736 10.501 7.5 10.501Z" fill="#3F3F3F"/>
</svg>
