<svg width="71" height="32" viewBox="0 0 71 32" fill="none" xmlns="http://www.w3.org/2000/svg">
<path d="M11.2989 12.0823C4.7596 11.2569 -0.743132 16.7596 0.082278 23.2989C0.645349 27.7587 4.24132 31.3547 8.7011 31.9177C15.2404 32.7431 20.7431 27.2404 19.9177 20.7011C19.3547 16.2413 15.7587 12.6453 11.2989 12.0823ZM10.9918 28.936C8.74589 29.2495 6.66636 28.4817 5.1947 27.0868C4.82999 26.7413 4.95796 26.1143 5.44424 25.9799C5.93053 25.8455 6.47441 25.6408 7.02468 25.3336C8.41956 24.5658 9.43693 23.4525 10.0256 22.6846C10.3007 22.3263 10.0512 21.8144 9.60329 21.8144H3.86381C3.38392 21.8144 3.00641 21.3857 3.08319 20.9122C3.60147 17.5594 6.5064 14.9808 10 14.9808C14.1335 14.9808 17.4415 18.5768 16.9616 22.8062C16.6033 25.9287 14.1143 28.4881 10.9982 28.9232L10.9918 28.936Z" fill="#F39556"/>
<path d="M51.0823 20.7011C50.2569 27.2404 55.7596 32.7431 62.2989 31.9177C66.7587 31.3547 70.3547 27.7587 70.9177 23.2989C71.7431 16.7596 66.2404 11.2569 59.7011 12.0823C55.2413 12.6453 51.6453 16.2413 51.0823 20.7011ZM54.0384 22.819C53.5585 18.5896 56.8665 14.9936 61 14.9936C64.5 14.9936 67.3985 17.5722 67.9168 20.925C67.9872 21.3985 67.6097 21.8272 67.1362 21.8272H61.3967C60.9488 21.8272 60.6993 22.3391 60.9744 22.6974C61.5631 23.4653 62.5804 24.5722 63.9753 25.3464C64.5256 25.6536 65.0631 25.8583 65.5558 25.9927C66.0484 26.1271 66.17 26.7477 65.8053 27.0996C64.3336 28.4945 62.2541 29.2623 60.0082 28.9488C56.8921 28.5137 54.4031 25.9543 54.0448 22.8318L54.0384 22.819Z" fill="#F39556"/>
<path d="M35 2.99424C38.8644 2.99424 42.0058 6.13564 42.0058 10C42.0058 13.8644 38.8644 17.0058 35 17.0058C31.1356 17.0058 27.9942 13.8644 27.9942 10C27.9942 6.13564 31.1356 2.99424 35 2.99424ZM35 0C29.4786 0 25 4.47857 25 10C25 15.5214 29.4786 20 35 20C40.5214 20 45 15.5214 45 10C45 4.47857 40.5214 0 35 0Z" fill="#F39556"/>
<path d="M38.0582 9.80151C39.1074 9.80151 39.8496 10.9148 39.4082 11.8936C38.6404 13.6019 36.9577 14.7919 35 14.7919C33.0422 14.7919 31.3659 13.6083 30.5918 11.8936C30.1503 10.9148 30.8925 9.80151 31.9417 9.80151H38.0518H38.0582Z" fill="#F39556"/>
</svg>
