<svg width="75" height="165" viewBox="0 0 75 165" fill="none" xmlns="http://www.w3.org/2000/svg">
<g clip-path="url(#clip0_16_706)">
<path d="M10.5 0C10.5 8.81 2.51 8.81 2.51 17.61C2.51 26.41 10.5 26.42 10.5 35.23C10.5 44.04 2.51 44.04 2.51 52.85C2.51 61.66 10.5 61.66 10.5 70.47C10.5 79.28 2.51 79.28 2.51 88.09" stroke="#F39556" stroke-width="2" stroke-miterlimit="10"/>
</g>
<g clip-path="url(#clip1_16_706)">
<path d="M10.5 70C10.5 78.81 2.51 78.81 2.51 87.61C2.51 96.41 10.5 96.42 10.5 105.23C10.5 114.04 2.51 114.04 2.51 122.85C2.51 131.66 10.5 131.66 10.5 140.47C10.5 149.28 2.51 149.28 2.51 158.09" stroke="#F39556" stroke-width="2" stroke-miterlimit="10"/>
</g>
<g clip-path="url(#clip2_16_706)">
<path d="M22.5 0C22.5 8.81 14.51 8.81 14.51 17.61C14.51 26.41 22.5 26.42 22.5 35.23C22.5 44.04 14.51 44.04 14.51 52.85C14.51 61.66 22.5 61.66 22.5 70.47C22.5 79.28 14.51 79.28 14.51 88.09" stroke="#F39556" stroke-width="2" stroke-miterlimit="10"/>
</g>
<g clip-path="url(#clip3_16_706)">
<path d="M22.5 70C22.5 78.81 14.51 78.81 14.51 87.61C14.51 96.41 22.5 96.42 22.5 105.23C22.5 114.04 14.51 114.04 14.51 122.85C14.51 131.66 22.5 131.66 22.5 140.47C22.5 149.28 14.51 149.28 14.51 158.09" stroke="#F39556" stroke-width="2" stroke-miterlimit="10"/>
</g>
<g clip-path="url(#clip4_16_706)">
<path d="M35.5 0C35.5 8.81 27.51 8.81 27.51 17.61C27.51 26.41 35.5 26.42 35.5 35.23C35.5 44.04 27.51 44.04 27.51 52.85C27.51 61.66 35.5 61.66 35.5 70.47C35.5 79.28 27.51 79.28 27.51 88.09" stroke="#F39556" stroke-width="2" stroke-miterlimit="10"/>
</g>
<g clip-path="url(#clip5_16_706)">
<path d="M35.5 70C35.5 78.81 27.51 78.81 27.51 87.61C27.51 96.41 35.5 96.42 35.5 105.23C35.5 114.04 27.51 114.04 27.51 122.85C27.51 131.66 35.5 131.66 35.5 140.47C35.5 149.28 27.51 149.28 27.51 158.09" stroke="#F39556" stroke-width="2" stroke-miterlimit="10"/>
</g>
<path d="M49.2989 145.082C42.7596 144.257 37.2569 149.76 38.0823 156.299C38.6453 160.759 42.2413 164.355 46.7011 164.918C53.2404 165.743 58.7431 160.24 57.9177 153.701C57.3547 149.241 53.7587 145.645 49.2989 145.082ZM48.9918 161.936C46.7459 162.25 44.6664 161.482 43.1947 160.087C42.83 159.741 42.958 159.114 43.4442 158.98C43.9305 158.846 44.4744 158.641 45.0247 158.334C46.4196 157.566 47.4369 156.452 48.0256 155.685C48.3007 155.326 48.0512 154.814 47.6033 154.814H41.8638C41.3839 154.814 41.0064 154.386 41.0832 153.912C41.6015 150.559 44.5064 147.981 48 147.981C52.1335 147.981 55.4415 151.577 54.9616 155.806C54.6033 158.929 52.1143 161.488 48.9982 161.923L48.9918 161.936Z" fill="#F39556"/>
<path d="M38.0823 113.701C37.2569 120.24 42.7596 125.743 49.2989 124.918C53.7587 124.355 57.3547 120.759 57.9177 116.299C58.7431 109.76 53.2404 104.257 46.7011 105.082C42.2413 105.645 38.6453 109.241 38.0823 113.701ZM41.0384 115.819C40.5585 111.59 43.8665 107.994 48 107.994C51.5 107.994 54.3985 110.572 54.9168 113.925C54.9872 114.399 54.6097 114.827 54.1362 114.827H48.3967C47.9488 114.827 47.6993 115.339 47.9744 115.697C48.5631 116.465 49.5804 117.572 50.9753 118.346C51.5256 118.654 52.0631 118.858 52.5558 118.993C53.0484 119.127 53.17 119.748 52.8053 120.1C51.3336 121.495 49.2541 122.262 47.0082 121.949C43.8921 121.514 41.4031 118.954 41.0448 115.832L41.0384 115.819Z" fill="#F39556"/>
<path d="M65 127.994C68.8644 127.994 72.0058 131.136 72.0058 135C72.0058 138.864 68.8644 142.006 65 142.006C61.1356 142.006 57.9942 138.864 57.9942 135C57.9942 131.136 61.1356 127.994 65 127.994ZM65 125C59.4786 125 55 129.479 55 135C55 140.521 59.4786 145 65 145C70.5214 145 75 140.521 75 135C75 129.479 70.5214 125 65 125Z" fill="#F39556"/>
<path d="M68.0582 134.802C69.1074 134.802 69.8496 135.915 69.4082 136.894C68.6404 138.602 66.9577 139.792 65 139.792C63.0422 139.792 61.3659 138.608 60.5918 136.894C60.1503 135.915 60.8925 134.802 61.9417 134.802H68.0518H68.0582Z" fill="#F39556"/>
<defs>
<clipPath id="clip0_16_706">
<rect width="88" height="13" fill="white" transform="translate(13) rotate(90)"/>
</clipPath>
<clipPath id="clip1_16_706">
<rect width="88" height="13" fill="white" transform="translate(13 70) rotate(90)"/>
</clipPath>
<clipPath id="clip2_16_706">
<rect width="88" height="13" fill="white" transform="translate(25) rotate(90)"/>
</clipPath>
<clipPath id="clip3_16_706">
<rect width="88" height="13" fill="white" transform="translate(25 70) rotate(90)"/>
</clipPath>
<clipPath id="clip4_16_706">
<rect width="88" height="13" fill="white" transform="translate(38) rotate(90)"/>
</clipPath>
<clipPath id="clip5_16_706">
<rect width="88" height="13" fill="white" transform="translate(38 70) rotate(90)"/>
</clipPath>
</defs>
</svg>
