<svg width="298" height="38" viewBox="0 0 298 38" fill="none" xmlns="http://www.w3.org/2000/svg">
<g clip-path="url(#clip0_14_1137)">
<path d="M0 27.5C8.81 27.5 8.81 35.49 17.61 35.49C26.41 35.49 26.42 27.5 35.23 27.5C44.04 27.5 44.04 35.49 52.85 35.49C61.66 35.49 61.66 27.5 70.47 27.5C79.28 27.5 79.28 35.49 88.09 35.49" stroke="#F39556" stroke-width="2" stroke-miterlimit="10"/>
</g>
<g clip-path="url(#clip1_14_1137)">
<path d="M70 27.5C78.81 27.5 78.81 35.49 87.61 35.49C96.41 35.49 96.42 27.5 105.23 27.5C114.04 27.5 114.04 35.49 122.85 35.49C131.66 35.49 131.66 27.5 140.47 27.5C149.28 27.5 149.28 35.49 158.09 35.49" stroke="#F39556" stroke-width="2" stroke-miterlimit="10"/>
</g>
<g clip-path="url(#clip2_14_1137)">
<path d="M140 27.5C148.81 27.5 148.81 35.49 157.61 35.49C166.41 35.49 166.42 27.5 175.23 27.5C184.04 27.5 184.04 35.49 192.85 35.49C201.66 35.49 201.66 27.5 210.47 27.5C219.28 27.5 219.28 35.49 228.09 35.49" stroke="#F39556" stroke-width="2" stroke-miterlimit="10"/>
</g>
<g clip-path="url(#clip3_14_1137)">
<path d="M210 27.5C218.81 27.5 218.81 35.49 227.61 35.49C236.41 35.49 236.42 27.5 245.23 27.5C254.04 27.5 254.04 35.49 262.85 35.49C271.66 35.49 271.66 27.5 280.47 27.5C289.28 27.5 289.28 35.49 298.09 35.49" stroke="#F39556" stroke-width="2" stroke-miterlimit="10"/>
</g>
<g clip-path="url(#clip4_14_1137)">
<path d="M0 15.5C8.81 15.5 8.81 23.49 17.61 23.49C26.41 23.49 26.42 15.5 35.23 15.5C44.04 15.5 44.04 23.49 52.85 23.49C61.66 23.49 61.66 15.5 70.47 15.5C79.28 15.5 79.28 23.49 88.09 23.49" stroke="#F39556" stroke-width="2" stroke-miterlimit="10"/>
</g>
<g clip-path="url(#clip5_14_1137)">
<path d="M70 15.5C78.81 15.5 78.81 23.49 87.61 23.49C96.41 23.49 96.42 15.5 105.23 15.5C114.04 15.5 114.04 23.49 122.85 23.49C131.66 23.49 131.66 15.5 140.47 15.5C149.28 15.5 149.28 23.49 158.09 23.49" stroke="#F39556" stroke-width="2" stroke-miterlimit="10"/>
</g>
<g clip-path="url(#clip6_14_1137)">
<path d="M140 15.5C148.81 15.5 148.81 23.49 157.61 23.49C166.41 23.49 166.42 15.5 175.23 15.5C184.04 15.5 184.04 23.49 192.85 23.49C201.66 23.49 201.66 15.5 210.47 15.5C219.28 15.5 219.28 23.49 228.09 23.49" stroke="#F39556" stroke-width="2" stroke-miterlimit="10"/>
</g>
<g clip-path="url(#clip7_14_1137)">
<path d="M210 15.5C218.81 15.5 218.81 23.49 227.61 23.49C236.41 23.49 236.42 15.5 245.23 15.5C254.04 15.5 254.04 23.49 262.85 23.49C271.66 23.49 271.66 15.5 280.47 15.5C289.28 15.5 289.28 23.49 298.09 23.49" stroke="#F39556" stroke-width="2" stroke-miterlimit="10"/>
</g>
<g clip-path="url(#clip8_14_1137)">
<path d="M0 2.5C8.81 2.5 8.81 10.49 17.61 10.49C26.41 10.49 26.42 2.5 35.23 2.5C44.04 2.5 44.04 10.49 52.85 10.49C61.66 10.49 61.66 2.5 70.47 2.5C79.28 2.5 79.28 10.49 88.09 10.49" stroke="#F39556" stroke-width="2" stroke-miterlimit="10"/>
</g>
<g clip-path="url(#clip9_14_1137)">
<path d="M70 2.5C78.81 2.5 78.81 10.49 87.61 10.49C96.41 10.49 96.42 2.5 105.23 2.5C114.04 2.5 114.04 10.49 122.85 10.49C131.66 10.49 131.66 2.5 140.47 2.5C149.28 2.5 149.28 10.49 158.09 10.49" stroke="#F39556" stroke-width="2" stroke-miterlimit="10"/>
</g>
<g clip-path="url(#clip10_14_1137)">
<path d="M140 2.5C148.81 2.5 148.81 10.49 157.61 10.49C166.41 10.49 166.42 2.5 175.23 2.5C184.04 2.5 184.04 10.49 192.85 10.49C201.66 10.49 201.66 2.5 210.47 2.5C219.28 2.5 219.28 10.49 228.09 10.49" stroke="#F39556" stroke-width="2" stroke-miterlimit="10"/>
</g>
<g clip-path="url(#clip11_14_1137)">
<path d="M210 2.5C218.81 2.5 218.81 10.49 227.61 10.49C236.41 10.49 236.42 2.5 245.23 2.5C254.04 2.5 254.04 10.49 262.85 10.49C271.66 10.49 271.66 2.5 280.47 2.5C289.28 2.5 289.28 10.49 298.09 10.49" stroke="#F39556" stroke-width="2" stroke-miterlimit="10"/>
</g>
<defs>
<clipPath id="clip0_14_1137">
<rect width="88" height="13" fill="white" transform="translate(0 25)"/>
</clipPath>
<clipPath id="clip1_14_1137">
<rect width="88" height="13" fill="white" transform="translate(70 25)"/>
</clipPath>
<clipPath id="clip2_14_1137">
<rect width="88" height="13" fill="white" transform="translate(140 25)"/>
</clipPath>
<clipPath id="clip3_14_1137">
<rect width="88" height="13" fill="white" transform="translate(210 25)"/>
</clipPath>
<clipPath id="clip4_14_1137">
<rect width="88" height="13" fill="white" transform="translate(0 13)"/>
</clipPath>
<clipPath id="clip5_14_1137">
<rect width="88" height="13" fill="white" transform="translate(70 13)"/>
</clipPath>
<clipPath id="clip6_14_1137">
<rect width="88" height="13" fill="white" transform="translate(140 13)"/>
</clipPath>
<clipPath id="clip7_14_1137">
<rect width="88" height="13" fill="white" transform="translate(210 13)"/>
</clipPath>
<clipPath id="clip8_14_1137">
<rect width="88" height="13" fill="white"/>
</clipPath>
<clipPath id="clip9_14_1137">
<rect width="88" height="13" fill="white" transform="translate(70)"/>
</clipPath>
<clipPath id="clip10_14_1137">
<rect width="88" height="13" fill="white" transform="translate(140)"/>
</clipPath>
<clipPath id="clip11_14_1137">
<rect width="88" height="13" fill="white" transform="translate(210)"/>
</clipPath>
</defs>
</svg>
