<svg width="20" height="20" viewBox="0 0 20 20" fill="none" xmlns="http://www.w3.org/2000/svg">
<path fill-rule="evenodd" clip-rule="evenodd" d="M0 10C0 4.47715 4.47715 0 10 0C15.5228 0 20 4.47715 20 10C20 15.5228 15.5228 20 10 20C4.47715 20 0 15.5228 0 10ZM11.0714 3.92857C11.0714 3.33684 10.5917 2.85714 10 2.85714C9.40827 2.85714 8.92857 3.33684 8.92857 3.92857V10C8.92857 10.5917 9.40827 11.0714 10 11.0714H14.6429C15.2346 11.0714 15.7143 10.5917 15.7143 10C15.7143 9.40827 15.2346 8.92857 14.6429 8.92857H11.0714V3.92857Z" fill="#3F3F3F"/>
</svg>
