<svg width="20" height="20" viewBox="0 0 20 20" fill="none" xmlns="http://www.w3.org/2000/svg">
<path fill-rule="evenodd" clip-rule="evenodd" d="M11.5237 6.70854C12.0119 6.22039 12.8033 6.22039 13.2915 6.70854C15.5696 8.9866 15.5696 12.6801 13.2915 14.9581L9.95812 18.2915C7.68004 20.5695 3.98653 20.5695 1.70845 18.2915C-0.286376 16.2967 -0.533519 13.2192 0.962928 10.9544C1.3435 10.3784 2.11895 10.22 2.69494 10.6006C3.27093 10.9812 3.42935 11.7566 3.04877 12.3326C2.19411 13.6261 2.33796 15.3854 3.47624 16.5237C4.778 17.8254 6.88857 17.8254 8.19033 16.5237L11.5237 13.1904C12.8255 11.8886 12.8255 9.77806 11.5237 8.47631C11.0355 7.98816 11.0355 7.1967 11.5237 6.70854Z" fill="#3F3F3F"/>
<path fill-rule="evenodd" clip-rule="evenodd" d="M8.47629 13.2915C7.98813 13.7796 7.19667 13.7796 6.70851 13.2915C4.43042 11.0134 4.43042 7.31994 6.70851 5.04188L10.0419 1.70854C12.32 -0.569515 16.0135 -0.569514 18.2916 1.70854C20.2864 3.70335 20.5335 6.78078 19.0371 9.04558C18.6565 9.62156 17.881 9.77997 17.3051 9.3994C16.7291 9.01883 16.5707 8.24339 16.9512 7.66741C17.8059 6.37391 17.662 4.61457 16.5238 3.47631C15.222 2.17456 13.1114 2.17456 11.8097 3.47631L8.47629 6.80965C7.17453 8.11139 7.17453 10.2219 8.47629 11.5237C8.96445 12.0118 8.96446 12.8033 8.47629 13.2915Z" fill="#3F3F3F"/>
</svg>
