<svg width="400" height="32" viewBox="0 0 400 32" fill="none" xmlns="http://www.w3.org/2000/svg">
<mask id="path-1-inside-1_6_988" fill="white">
<path d="M0 32L-1.39876e-06 1.71661e-05L400 -3.18419e-07L400 32L0 32Z"/>
</mask>
<path d="M0 32L-1 32L-1 33L4.37114e-08 33L0 32ZM400 32L400 33L401 33L401 32L400 32ZM0 32L1 32L0.999999 1.71224e-05L-1.39876e-06 1.71661e-05L-1 1.72098e-05L-1 32L0 32ZM400 -3.18419e-07L399 -2.74708e-07L399 32L400 32L401 32L401 -3.6213e-07L400 -3.18419e-07ZM400 32L400 31L-4.37114e-08 31L0 32L4.37114e-08 33L400 33L400 32Z" fill="black" mask="url(#path-1-inside-1_6_988)"/>
</svg>
