<svg width="400" height="32" viewBox="0 0 400 32" fill="none" xmlns="http://www.w3.org/2000/svg">
<mask id="path-1-inside-1_6_987" fill="white">
<path d="M0 0L-1.39876e-06 32L400 32L400 1.74846e-05L0 0Z"/>
</mask>
<path d="M0 0L-1 -4.37114e-08L-1 -1L4.37114e-08 -1L0 0ZM400 1.74846e-05L400 -0.999983L401 -0.999982L401 1.75283e-05L400 1.74846e-05ZM0 0L1 4.37114e-08L0.999999 32L-1.39876e-06 32L-1 32L-1 -4.37114e-08L0 0ZM400 32L399 32L399 1.74408e-05L400 1.74846e-05L401 1.75283e-05L401 32L400 32ZM400 1.74846e-05L400 1.00002L-4.37114e-08 1L0 0L4.37114e-08 -1L400 -0.999983L400 1.74846e-05Z" fill="black" mask="url(#path-1-inside-1_6_987)"/>
</svg>
