<svg width="16" height="16" viewBox="0 0 16 16" fill="none" xmlns="http://www.w3.org/2000/svg">
<path fill-rule="evenodd" clip-rule="evenodd" d="M7.29292 0.292893C7.68345 -0.0976311 8.31661 -0.0976311 8.70714 0.292893L15.7071 7.29289C15.9931 7.57889 16.0787 8.00901 15.9239 8.38268C15.7691 8.75636 15.4045 9 15 9H14V15C14 15.5523 13.5523 16 13 16H11C10.4477 16 10 15.5523 10 15V12C10 11.4477 9.55231 11 9.00003 11H7.00003C6.44774 11 6.00003 11.4477 6.00003 12V15C6.00003 15.5523 5.55231 16 5.00003 16H3.00003C2.44774 16 2.00003 15.5523 2.00003 15V9H1.00003C0.595567 9 0.230931 8.75636 0.0761497 8.38268C-0.0786313 8.00901 0.00692445 7.57889 0.292922 7.29289L7.29292 0.292893Z" fill="#0F172A"/>
</svg>
