<svg width="15" height="16" viewBox="0 0 15 16" fill="none" xmlns="http://www.w3.org/2000/svg">
<path fill-rule="evenodd" clip-rule="evenodd" d="M7.33981 0C4.0261 0 1.33981 2.68629 1.33981 6C1.33981 7.88663 0.886079 9.6651 0.0824481 11.2343C-0.024243 11.4426 -0.0275557 11.6888 0.0734913 11.9C0.174538 12.1111 0.368358 12.2629 0.597532 12.3105C1.66522 12.5322 2.75166 12.7023 3.8541 12.818C4.01479 14.602 5.51405 16 7.33984 16C9.16564 16 10.6649 14.602 10.8256 12.818C11.928 12.7023 13.0144 12.5322 14.0821 12.3105C14.3113 12.2629 14.5051 12.1111 14.6061 11.9C14.7072 11.6888 14.7039 11.4426 14.5972 11.2343C13.7935 9.6651 13.3398 7.88663 13.3398 6C13.3398 2.68629 10.6535 0 7.33981 0ZM5.38914 12.9433C6.03462 12.9809 6.68502 13 7.33981 13C7.99463 13 8.64505 12.9809 9.29055 12.9433C9.08888 13.8345 8.29208 14.5 7.33984 14.5C6.38761 14.5 5.59081 13.8345 5.38914 12.9433Z" fill="#0F172A"/>
</svg>
