<svg width="16" height="16" viewBox="0 0 16 16" fill="none" xmlns="http://www.w3.org/2000/svg">
<path fill-rule="evenodd" clip-rule="evenodd" d="M0 1.5C0 0.671573 0.671573 0 1.5 0H10.5C11.3284 0 12 0.671573 12 1.5V13.25C12 14.7688 13.2312 16 14.75 16H2.75C1.23122 16 0 14.7688 0 13.25V1.5ZM3.75 8.5C3.33579 8.5 3 8.83579 3 9.25C3 9.66421 3.33579 10 3.75 10H8.25C8.66421 10 9 9.66421 9 9.25C9 8.83579 8.66421 8.5 8.25 8.5H3.75ZM3.75 11.5C3.33579 11.5 3 11.8358 3 12.25C3 12.6642 3.33579 13 3.75 13H8.25C8.66421 13 9 12.6642 9 12.25C9 11.8358 8.66421 11.5 8.25 11.5H3.75ZM3 3.75C3 3.33579 3.33579 3 3.75 3H8.25C8.66421 3 9 3.33579 9 3.75V6.25C9 6.66421 8.66421 7 8.25 7H3.75C3.33579 7 3 6.66421 3 6.25V3.75Z" fill="#0F172A"/>
<path d="M14.5 4.5H13.5V13.25C13.5 13.9404 14.0596 14.5 14.75 14.5C15.4404 14.5 16 13.9404 16 13.25V6C16 5.17157 15.3284 4.5 14.5 4.5Z" fill="#0F172A"/>
</svg>
