<svg width="12" height="18" viewBox="0 0 12 18" fill="none" xmlns="http://www.w3.org/2000/svg">
<path d="M6 0C2.68629 0 0 2.68629 0 6C0 7.86519 0.851973 9.53203 2.18519 10.6313C3.23747 11.4989 4 12.4427 4 13.4557V14.1003C4 14.4459 4.23625 14.7468 4.57205 14.8289C5.03046 14.9408 5.50883 15 6 15C6.49117 15 6.96954 14.9408 7.42795 14.8289C7.76375 14.7468 8 14.4459 8 14.1003V13.4557C8 12.4427 8.76252 11.4989 9.81481 10.6313C11.148 9.53203 12 7.86519 12 6C12 2.68629 9.31371 0 6 0Z" fill="#0F172A"/>
<path d="M4.8628 16.4144C4.45329 16.3522 4.07086 16.6337 4.00862 17.0432C3.94638 17.4527 4.22789 17.8352 4.6374 17.8974C5.08221 17.965 5.53731 18 6.0001 18C6.4629 18 6.918 17.965 7.3628 17.8974C7.77232 17.8352 8.05383 17.4527 7.99159 17.0432C7.92935 16.6337 7.54691 16.3522 7.1374 16.4144C6.76694 16.4708 6.38718 16.5 6.0001 16.5C5.61302 16.5 5.23326 16.4708 4.8628 16.4144Z" fill="#0F172A"/>
</svg>
