<svg width="18" height="14" viewBox="0 0 18 14" fill="none" xmlns="http://www.w3.org/2000/svg">
<path fill-rule="evenodd" clip-rule="evenodd" d="M4.5 14C2.01472 14 0 11.9853 0 9.5C0 7.5184 1.28084 5.83595 3.05979 5.2354C3.02046 4.9961 3 4.75044 3 4.5C3 2.01472 5.01472 0 7.5 0C9.14038 0 10.5758 0.877714 11.3621 2.18913C11.7189 2.06655 12.1017 2 12.5 2C14.433 2 16 3.567 16 5.5C16 5.83334 15.9534 6.15579 15.8664 6.4612C17.1353 7.13181 18 8.46492 18 10C18 12.2091 16.2091 14 14 14H4.5ZM9.75 4.75C9.75 4.33579 9.41421 4 9 4C8.58579 4 8.25 4.33579 8.25 4.75V9.3401L6.29959 7.23966C6.01774 6.93613 5.54319 6.91855 5.23966 7.20041C4.93613 7.48226 4.91855 7.95681 5.20041 8.26034L8.45041 11.7603C8.59231 11.9132 8.79145 12 9 12C9.20855 12 9.40769 11.9132 9.54959 11.7603L12.7996 8.26034C13.0814 7.95681 13.0639 7.48226 12.7603 7.20041C12.4568 6.91855 11.9823 6.93613 11.7004 7.23966L9.75 9.3401V4.75Z" fill="white"/>
</svg>
