<svg width="18" height="16" viewBox="0 0 18 16" fill="none" xmlns="http://www.w3.org/2000/svg">
<path d="M5.96289 6C7.61975 6 8.96289 4.65685 8.96289 3C8.96289 1.34315 7.61975 0 5.96289 0C4.30604 0 2.96289 1.34315 2.96289 3C2.96289 4.65685 4.30604 6 5.96289 6Z" fill="#0F172A"/>
<path d="M13.4629 7C14.8436 7 15.9629 5.88071 15.9629 4.5C15.9629 3.11929 14.8436 2 13.4629 2C12.0822 2 10.9629 3.11929 10.9629 4.5C10.9629 5.88071 12.0822 7 13.4629 7Z" fill="#0F172A"/>
<path d="M0.57817 14.428C0.180866 14.1736 -0.049262 13.721 0.00894023 13.2529C0.377048 10.292 2.90233 8 5.96279 8C9.02325 8 11.5485 10.2914 11.9166 13.2522C11.9748 13.7203 11.7447 14.1729 11.3474 14.4273C9.79311 15.4225 7.94532 16 5.96279 16C3.98026 16 2.13248 15.4231 0.57817 14.428Z" fill="#0F172A"/>
<path d="M13.463 14C13.4276 14 13.3924 13.9998 13.3572 13.9993C13.426 13.7025 13.4451 13.3885 13.4051 13.0671C13.2297 11.6562 12.663 10.367 11.8169 9.31165C12.3275 9.11049 12.8837 9 13.4657 9C15.4054 9 17.0585 10.2273 17.6908 11.9478C17.8267 12.3176 17.6674 12.7241 17.33 12.9275C16.2008 13.6083 14.8776 14 13.463 14Z" fill="#0F172A"/>
</svg>
