<svg width="271" height="187" viewBox="0 0 271 187" fill="none" xmlns="http://www.w3.org/2000/svg">
<g style="mix-blend-mode:multiply">
<path d="M267.847 151.51C266.919 151.287 266.013 151.327 265.453 150.904C252.255 140.893 237.282 134.956 221.185 131.596C209.777 129.213 198.423 126.536 186.943 124.53C180.013 123.322 172.915 123.138 165.682 122.463C164.316 127.612 162.491 131.77 158.212 134.209C155.574 135.718 153.035 137.528 150.224 138.621C144.465 140.852 138.994 144.049 132.488 143.965C129.644 143.932 127.183 143.359 124.96 141.551C120.457 137.904 119.866 133.5 123.997 129.417C126.223 127.212 129.036 125.282 131.941 124.142C140.202 120.904 148.915 119.736 157.778 119.677C159.064 119.665 160.342 119.348 161.78 119.152C160.859 113.344 156.67 110.951 152.647 108.492C141.064 101.4 128.296 97.6893 115.023 95.414C95.5742 92.0728 76.0246 91.9093 56.3777 92.9286C41.1462 93.7182 26.0123 95.3102 10.9662 97.6677C8.64569 98.0345 6.39404 98.8259 4.07675 99.2495C3.19731 99.4104 2.22261 99.0597 1.29396 98.9364C1.23865 98.4717 1.1767 97.9936 1.12139 97.5289C3.08175 96.907 4.99279 96.0343 7.00236 95.6965C24.6808 92.6424 42.4802 90.4207 60.3943 89.9439C74.0437 89.5803 87.7989 89.598 101.366 90.9018C114.205 92.1497 127.162 94.1065 139.243 99.1584C146.692 102.27 154.093 105.723 160.054 111.4C161.716 112.986 163.127 114.989 164.149 117.051C165.016 118.782 165.902 119.727 167.9 119.753C179.596 119.925 191.083 121.877 202.521 124.103C207.491 125.075 212.457 126.123 217.359 127.396C223.736 129.054 230.094 130.806 236.36 132.828C246.225 136.018 255.444 140.596 264.05 146.395C266.778 148.228 266.931 148.436 267.844 151.52L267.847 151.51ZM161.841 123.042C150.699 122.946 140.34 123.805 130.783 128.77C128.784 129.803 127.09 131.753 125.754 133.633C123.794 136.374 124.305 138.531 127.399 139.774C129.461 140.603 132.067 140.912 134.244 140.475C142.146 138.899 149.239 135.357 155.874 130.79C158.473 129 160.555 126.992 161.854 123.036L161.841 123.042Z" fill="#F5E2CF"/>
</g>
<path d="M120.397 7.9416C119.739 6.79277 118.947 5.69971 118.166 4.6178C113.693 -1.62828 109.154 -0.479449 104.402 1.9186C103.633 2.30898 102.952 2.90013 102.316 3.48012C99.0373 6.44701 95.7804 9.4362 92.5235 12.4365C90.1589 14.6115 87.9393 16.9315 85.4632 18.9949C78.5033 24.7502 71.3984 30.3383 64.4496 36.1159C56.7536 42.5293 49.1802 49.0653 41.5399 55.5456C34 61.9479 26.4489 68.339 18.9202 74.7635C17.3252 76.1242 15.6187 77.4404 14.3248 79.0354C12.1722 81.6788 10.3541 84.5676 8.33529 87.3003C8.33529 87.3003 -0.0634601 93.089 2.47959 95.1079C4.14149 96.6025 5.13417 95.9332 6.09339 95.2083C8.26836 94.3829 10.3318 92.6541 10.3318 92.6541C16.0202 90.6798 21.4632 88.0699 26.9843 85.6718C27.7651 85.3372 28.4343 84.7238 29.0812 84.1549C35.4834 78.5111 41.8633 72.8562 48.2544 67.2013C50.3848 65.3163 52.4817 63.3979 54.7013 61.6021C62.007 55.6683 69.3461 49.7903 76.6852 43.9012C77.9233 42.9085 79.2506 42.005 80.5221 41.0681C81.459 42.1166 82.2509 42.9866 83.3663 44.2469C85.4297 43.1539 87.5713 42.3508 89.2889 41.057C97.0965 35.1455 104.893 29.2117 112.466 23.0437C115.311 20.7238 117.664 17.8349 120.017 15.0465C121.847 12.8827 121.791 10.3731 120.397 7.96391V7.9416ZM10.2091 89.8433C10.6664 87.0214 12.886 85.5268 14.4141 83.1511C15.8083 84.4561 16.8344 85.4264 18.0279 86.5418C15.9421 88.6164 13.4102 89.5199 10.2091 89.8433ZM72.168 44.6931C66.6246 49.255 60.8804 53.6049 55.2701 58.111C52.8498 60.0517 50.5632 62.1375 48.2433 64.1786C42.2091 69.4878 36.2084 74.8304 30.1296 80.1061C28.6573 81.3888 27.0512 82.5934 25.3447 83.5749C22.4001 85.2591 19.3663 84.3668 16.8344 81.2438C17.3252 78.9573 19.3775 77.8865 21.0282 76.4589C27.5866 70.8151 34.0669 65.0821 40.6364 59.4494C48.2433 52.9245 55.8501 46.4108 63.5573 39.9974C71.9226 33.0263 80.3883 26.1779 88.8428 19.2961C89.8801 18.4484 91.0847 17.7792 92.4677 16.8534C94.9885 18.7607 97.2192 20.3111 98.0334 23.0549C89.3782 30.3048 80.8344 37.5659 72.1791 44.6931H72.168Z" fill="#F5E2CF" style="mix-blend-mode:multiply"/>
</svg>
