<svg width="476" height="225" viewBox="0 0 476 225" fill="none" xmlns="http://www.w3.org/2000/svg">
<g style="mix-blend-mode:multiply" clip-path="url(#clip0_790_1380)">
<path d="M98.5309 192.098C88.6347 196.962 78.4606 201.243 68.4086 205.779C54.2232 212.172 39.4678 215.986 23.7952 215.686C23.1312 215.675 22.4516 216.214 21.6267 216.557C24.0433 218.407 24.2731 218.471 27.3839 218.363C37.1977 218 46.8085 216.36 56.1206 213.304C62.0424 211.368 67.8867 209.151 73.6783 206.868C78.1358 205.109 82.5208 203.153 86.8597 201.116C92.5343 198.461 101.123 193.473 110.221 190.369C117.131 188.006 125.484 187.034 126.415 187.161C134.137 188.18 141.721 186.695 149.152 184.923C161.193 182.047 172.205 176.328 182.715 170.117C193.816 163.552 204.345 155.899 214.58 148.014C227.315 138.21 239.088 127.251 250.346 115.752C250.42 115.686 250.509 115.637 250.57 115.566C250.735 115.388 250.886 115.204 251.051 115.027C251.431 114.634 251.823 114.249 252.203 113.857C252.914 113.119 253.526 112.298 254.106 111.444C254.387 111.136 254.664 110.818 254.96 110.526C265.158 100.324 275.837 90.6847 287.045 81.5916C301.504 69.8715 316.542 59.091 333.277 50.8062C344.695 45.1482 356.526 40.8699 369.337 39.8372C373.774 39.479 378.321 38.9708 382.262 42.8991C381.272 43.8502 380.462 44.8074 379.494 45.5311C372.749 50.5154 366.738 56.2648 362.225 63.3457C360.639 65.8364 359.563 68.8798 359.09 71.8068C358.204 77.2222 361.113 80.2697 366.589 80.5489C369.294 80.6832 371.496 79.7494 373.692 78.1989C378.711 74.6277 381.125 69.14 384.276 64.2278C385.816 61.8249 386.752 59.0354 387.926 56.4017C389.838 52.1517 388.916 47.955 387.092 43.2559C392.986 39.7343 398.526 35.9157 404.502 32.9868C414.398 28.1223 424.572 23.8412 434.624 19.3051C448.81 12.9127 463.565 9.0981 479.238 9.39793C479.902 9.40915 480.581 8.87034 481.406 8.5269C478.99 6.67695 478.76 6.61297 475.649 6.72166C465.835 7.08388 456.224 8.72411 446.912 11.78C440.991 13.7166 435.146 15.9329 429.355 18.2165C424.897 19.9755 420.512 21.9318 416.173 23.968C406.185 28.6412 396.317 33.56 387.274 39.9382C385.731 41.0317 384.527 40.8026 382.9 39.9622C380.968 38.9554 378.773 38.2099 376.618 37.9236C368.896 36.9043 361.312 38.389 353.881 40.161C341.84 43.0378 330.828 48.7564 320.318 54.9674C309.217 61.5321 298.688 69.185 288.453 77.0706C275.718 86.8747 263.945 97.8338 252.687 109.333C252.613 109.398 252.524 109.447 252.463 109.519C252.298 109.696 252.147 109.88 251.982 110.058C251.602 110.45 251.21 110.835 250.83 111.228C250.119 111.965 249.507 112.787 248.927 113.64C248.646 113.948 248.369 114.266 248.073 114.559C237.875 124.76 227.196 134.4 215.988 143.493C201.529 155.213 186.491 165.993 169.756 174.278C158.338 179.936 146.507 184.214 133.696 185.247C131.476 185.421 126.996 183.676 119.513 184.982C112.03 186.288 101.522 190.643 98.5369 192.117L98.5309 192.098ZM384.232 55.0583C381.704 62.2487 378.254 68.9112 373.09 74.5199C371.666 76.0582 369.504 77.2836 367.465 77.7994C364.406 78.5732 362.813 77.2084 362.784 74.0199C362.768 71.8342 362.976 69.3992 363.919 67.4986C368.473 58.3815 375.907 51.9541 384.477 45.8083C385.685 49.5481 385.216 52.2538 384.226 55.0709L384.232 55.0583Z" fill="#F5E2CF"/>
</g>
<defs>
<clipPath id="clip0_790_1380">
<rect width="501.04" height="77.04" fill="white" transform="translate(0.988892 150.968) rotate(-17.4661)"/>
</clipPath>
</defs>
</svg>
