<svg width="240" height="16" viewBox="0 0 240 16" fill="none" xmlns="http://www.w3.org/2000/svg">
<path opacity="0.8" d="M92.4361 12.8642C90.8707 12.4261 90.3593 11.7736 89.5871 11.2168C88.6374 10.5369 87.8652 9.81133 87.072 9.09033C86.6963 8.74351 86.9364 8.48797 87.7712 8.32825C88.9296 8.10009 90.1193 7.8993 91.309 7.70308C93.0935 7.41103 94.8885 7.13267 96.673 6.84518C97.727 6.67633 98.6141 6.4071 99.6159 5.9462C98.875 5.92339 98.4367 5.88232 98.0192 5.90513C92.5822 6.22913 87.1764 6.62157 81.8541 7.22393C78.7025 7.57987 75.5091 7.87648 72.3575 8.23242C63.9253 9.17703 55.8584 10.546 48.1776 12.344C47.2071 12.5721 46.1322 12.7273 45.1199 12.9189C44.3581 13.0604 43.6693 12.9874 43.1788 12.7182C41.5509 11.8192 40.1107 10.87 39.1297 9.8022C38.9941 9.65161 38.9941 9.46908 38.921 9.25917C40.5594 8.92148 42.1353 8.60205 43.6902 8.26893C44.4729 8.10009 45.2451 7.91755 45.9861 7.72133C46.7688 7.51598 47.2801 7.21937 47.4262 6.83149C47.0192 6.57594 46.5079 6.70828 46.1113 6.75847C43.2832 7.10985 40.4447 7.44753 37.6583 7.85823C31.0837 8.82565 24.7074 9.99386 18.6546 11.4769C15.743 12.1888 12.9358 12.9828 10.1285 13.7768C8.65706 14.1967 7.39432 14.7306 6.41335 15.3786C6.15245 15.5474 5.83938 15.7163 5.46369 15.8349C4.681 16.0859 3.77308 16.0494 3.10518 15.7345C2.17639 15.3101 1.2163 14.8949 0.986707 14.2606C0.913656 14.037 0.464915 13.8362 0.22489 13.6217C-0.0777493 13.3525 -0.098621 13.065 0.308377 12.8277C0.924092 12.4672 1.55024 12.1021 2.29119 11.7918C5.51587 10.4411 9.05362 9.26373 12.9566 8.30544C14.6785 7.88105 16.3274 7.38821 18.0389 6.95013C19.8234 6.4938 21.5975 6.01922 23.4551 5.6359C25.9701 5.11568 28.5373 4.65022 31.1254 4.20758C33.6405 3.77863 36.2181 3.41813 38.754 3.00743C39.495 2.88879 40.142 2.65606 40.883 2.55566C44.5981 2.04914 48.3446 1.56543 52.2893 1.57455C53.1868 1.57455 54.0217 1.68407 54.7 1.95787C55.2218 2.16778 55.7645 2.3777 56.2445 2.60586C57.7786 3.35424 59.2918 4.11175 60.9198 4.91946C61.5564 4.85557 62.2451 4.80081 62.9235 4.71867C67.5257 4.17108 72.1592 3.66911 76.6988 3.0485C81.3323 2.4142 86.0389 1.94874 90.7976 1.56543C94.7111 1.24599 98.6767 1.10453 102.663 1.12278C103.373 1.12278 104.093 1.18667 104.803 1.20036C107.067 1.24143 108.632 1.75252 109.864 2.55566C110.918 3.24929 112.108 3.90184 113.308 4.62284C115.885 4.40837 118.474 4.25778 121.009 3.96573C122.7 3.77407 124.401 3.59154 126.102 3.43182C128.513 3.20822 130.923 2.98918 133.345 2.80208C137.091 2.51459 140.858 2.24992 144.605 1.98069C144.845 1.96243 145.085 1.96243 145.314 1.93962C149.572 1.56999 156.658 1.21861 161.094 1.04064C163.849 0.931125 166.614 0.885492 169.369 0.721213C172.98 0.506738 176.643 0.483921 180.295 0.401781C184.334 0.305952 188.383 0.228376 192.432 0.159926C195.605 0.105166 198.788 0.0595331 201.96 0.0367165C205.373 0.00933665 208.796 0.00477334 212.208 0.000210029C217.217 -0.00435328 222.237 0.0640964 227.205 0.337895C229.72 0.474794 232.203 0.748593 234.687 0.981322C235.105 1.02239 235.553 1.16385 235.814 1.31444C236.284 1.58824 236.701 1.89398 237.014 2.21342C237.933 3.1352 238.788 4.07525 239.686 5.0016C239.947 5.26627 240.218 5.5492 239.728 5.78193C239.122 6.06941 238.34 6.25195 237.39 6.18806C237.16 6.17437 236.941 6.12417 236.722 6.0831C234.583 5.67697 232.318 5.51269 230.043 5.35297C222.78 4.83732 215.454 4.88752 208.138 4.90577C205.039 4.91033 201.929 4.88752 198.83 4.92402C193.747 4.98791 188.655 5.06549 183.572 5.17957C178.887 5.28452 174.201 5.38948 169.536 5.58114C162.888 5.85494 156.23 6.13786 149.624 6.53943C139.303 7.16461 129.087 8.04076 118.974 9.14508C111.711 9.93454 104.573 10.8928 97.6122 12.093C97.1009 12.1842 96.6 12.2938 96.0886 12.3896C94.9198 12.6041 93.7405 12.8094 92.4465 12.8779L92.4361 12.8642Z" fill="#DAC46D"/>
</svg>
