<svg width="44" height="44" viewBox="0 0 44 44" fill="none" xmlns="http://www.w3.org/2000/svg">
<path d="M24.8576 0.181012C10.4711 -1.63489 -1.63489 10.4711 0.181012 24.8576C1.41977 34.6691 9.33091 42.5802 19.1424 43.819C33.5289 45.6349 45.6349 33.5289 43.819 19.1424C42.5802 9.33091 34.6691 1.41977 24.8576 0.181012ZM24.1819 37.2592C19.241 37.949 14.666 36.2598 11.4283 33.191C10.626 32.4309 10.9075 31.0514 11.9773 30.7557C13.0472 30.4601 14.2437 30.0097 15.4543 29.334C18.523 27.6448 20.7612 25.1954 22.0563 23.5062C22.6616 22.7179 22.1126 21.5918 21.1272 21.5918H8.50038C7.44462 21.5918 6.61409 20.6486 6.78301 19.6069C7.92323 12.2307 14.3141 6.55779 22 6.55779C31.0936 6.55779 38.3713 14.4689 37.3155 23.7737C36.5272 30.6431 31.0514 36.2738 24.196 37.2311L24.1819 37.2592Z" fill="#F39556"/>
</svg>
