<svg width="136" height="70" viewBox="0 0 136 70" fill="none" xmlns="http://www.w3.org/2000/svg">
<g clip-path="url(#clip0_795_6955)">
<path d="M109.591 5.71943C110.072 5.68265 110.504 5.54779 110.794 5.08803H111.915C112.137 4.88574 112.347 4.70183 112.575 4.49341H118.339C118.542 4.67731 118.752 4.86735 118.968 5.06964H120.077C120.305 5.27807 120.515 5.46197 120.743 5.66426H121.816C122.062 5.86043 122.253 6.01981 122.444 6.17306C122.629 5.98916 122.765 5.8543 122.901 5.71943C123.431 5.93399 123.708 6.43666 124.133 6.78608H124.694C124.91 6.98224 125.114 7.17841 125.323 7.36844C125.52 7.37457 125.712 7.38683 125.896 7.39296L126.92 8.41056C127.179 8.478 127.438 8.54543 127.703 8.61286C127.999 9.32395 129.022 8.90097 129.305 9.63046C129.49 9.64272 129.681 9.65498 129.928 9.67337C130.575 10.317 131.278 10.9668 131.919 11.6779C132.215 12.0028 132.61 11.8986 132.918 12.0764C132.998 12.1193 133.047 12.2112 133.115 12.2909V12.8427C133.67 13.3944 134.212 13.9338 134.761 14.4794C134.897 15.0863 134.964 15.2579 135.396 15.687V17.3667C135.599 17.5874 135.79 17.7958 135.994 18.0165V18.5682C135.809 18.7705 135.618 18.9789 135.408 19.1996V20.8915C135.168 21.1919 134.767 21.3635 134.835 21.8294C134.866 22.0256 134.767 22.1911 134.576 22.2953C134.101 22.5528 134.379 23.1597 133.972 23.4968C133.38 23.9872 132.868 24.5696 132.326 25.109C131.457 25.1213 131.075 25.8508 130.507 26.3412H129.959C129.336 26.942 128.72 27.5304 128.165 28.0638C127.888 28.1067 127.709 28.1312 127.524 28.1619C127.185 28.499 126.84 28.8423 126.501 29.1795C126.316 29.1978 126.131 29.2162 125.909 29.2346C125.718 29.4063 125.508 29.5902 125.28 29.7986H124.744C124.121 30.3994 123.505 30.9878 122.938 31.5273C122.296 31.5579 121.674 31.374 121.322 32.0238C120.854 32.0974 120.398 32.1832 120.139 32.6552H115.472C115.306 32.502 115.096 32.312 114.881 32.1219C114.683 32.2936 114.48 32.4775 114.283 32.6491C114.073 32.4591 113.863 32.2752 113.635 32.0729H111.373C111.077 31.7848 110.861 31.515 110.405 31.5089C109.955 31.5028 109.77 30.7978 109.197 30.9511C108.981 30.7733 108.753 30.6078 108.556 30.4177C107.187 29.063 105.825 27.7082 104.463 26.3535C104.272 26.3535 104.074 26.3535 103.889 26.3535C103.421 26.0899 103.729 25.4523 103.279 25.1581C102.965 24.9497 102.724 24.6309 102.453 24.355C102.385 24.2876 102.317 24.2202 102.262 24.165C101.96 23.9382 101.454 24.2263 101.269 23.5459C101.269 23.5459 101.269 23.3558 101.269 23.1964C101.06 22.9696 100.875 22.7612 100.702 22.5712C100.684 22.3505 100.665 22.1666 100.647 21.9827C100.308 21.6455 99.9626 21.3022 99.5804 20.9283V19.8494C99.3832 19.6164 99.1982 19.408 99.001 19.1751C99.1674 18.9912 99.3462 18.7889 99.5373 18.5743V14.3997C99.8948 14.1238 100.345 13.7683 100.727 13.4741V11.6473C101.578 10.8013 102.391 9.99214 103.224 9.16457C103.544 9.03584 103.933 9.11553 104.21 8.77837C104.635 8.26344 105.135 7.80368 105.572 7.35618H106.189C106.417 7.15389 106.626 6.96385 106.848 6.76156H108.537L109.585 5.71943H109.591ZM120.09 21.1735C120.564 20.7015 121.039 20.2295 121.514 19.7574C121.52 19.5735 121.532 19.3835 121.538 19.1812C121.723 18.985 121.92 18.7828 122.118 18.5682V18.0104C121.92 17.8019 121.723 17.5935 121.538 17.3973C121.526 17.195 121.52 17.005 121.514 16.8211C121.039 16.3491 120.564 15.8771 120.096 15.405H119.529C119.319 15.2089 119.109 15.0127 118.918 14.8349H114.924C114.221 15.5215 113.537 16.1836 112.865 16.8456V17.992C112.661 18.2065 112.47 18.4088 112.304 18.5927V20.3153C112.587 20.5973 112.859 20.867 113.13 21.1367C113.315 21.149 113.506 21.1551 113.709 21.1674C113.907 21.3513 114.11 21.5413 114.326 21.7375H118.345C118.542 21.5536 118.752 21.3574 118.961 21.1612C119.344 21.1612 119.726 21.1612 120.108 21.1612L120.09 21.1735Z" fill="#E59D5C"/>
<path d="M118.635 45.0564C118.444 45.2587 118.253 45.461 118.086 45.6449V46.7974C118.173 46.8832 118.234 46.9507 118.308 47.0181C118.814 47.4962 118.777 47.6434 118.376 48.2012C117.957 48.7897 117.938 48.8694 118.376 49.3843C118.438 49.4579 118.512 49.5192 118.616 49.6234V52.5168C118.493 52.6639 118.308 52.8724 118.111 53.0992C118.099 53.2586 118.086 53.4425 118.068 53.6509C118.253 53.8471 118.444 54.0555 118.647 54.2762V55.4102C118.456 55.6125 118.265 55.821 118.086 56.011V56.5627C118.296 56.7956 118.481 57.0041 118.629 57.1635V62.9197C117.87 63.7411 117.87 63.784 118.567 64.538C118.598 64.6238 118.647 64.7035 118.647 64.7893C118.647 66.0338 118.647 67.2782 118.647 68.5287C118.314 69.1111 117.753 69.4973 117.303 69.9754C117.273 70.0122 117.174 69.9877 117.106 69.9938C117.044 69.9264 116.921 69.8528 116.921 69.7854C116.909 67.4866 116.915 65.1878 116.915 62.9074C116.712 62.6928 116.52 62.4844 116.336 62.2882C116.348 62.086 116.36 61.8959 116.373 61.712C116.508 61.5772 116.644 61.4423 116.779 61.3074C116.823 61.2277 116.909 61.1542 116.909 61.0745C116.915 59.7442 116.909 58.4079 116.909 57.1451C116.779 57.0163 116.705 56.9489 116.644 56.8753C116.194 56.3481 116.194 56.2685 116.631 55.6922C117.038 55.1528 117.038 55.0302 116.576 54.5091C116.514 54.4355 116.44 54.3742 116.354 54.2884C116.533 54.0923 116.718 53.89 116.909 53.6754V49.0962C116.724 48.8939 116.539 48.6916 116.36 48.5016C116.551 48.287 116.742 48.0786 116.933 47.864V38.1294C117.229 37.8351 117.501 37.5654 117.778 37.2896C118.055 37.2896 118.351 37.3141 118.635 37.2834C118.857 37.2589 119.029 37.2834 119.128 37.4857C119.196 37.6145 119.11 37.7493 118.912 37.8903C118.838 37.9455 118.777 38.0252 118.678 38.1233V43.8182C118.481 44.0388 118.296 44.2473 118.099 44.4741C118.271 44.6641 118.456 44.8664 118.635 45.0564Z" fill="#E59D5C"/>
<path d="M6.36787 10.4457C6.3802 10.2557 6.39253 10.0718 6.40486 9.88173C6.78089 9.42197 7.2987 9.72235 7.83501 9.61201C8.38365 9.06642 8.98776 8.46567 9.54873 7.90783C10.3933 7.84653 10.3994 7.8404 10.4241 7.00057C10.6768 6.79827 10.9727 6.55307 11.3672 6.2343C11.3919 6.2343 11.5707 6.20365 11.7987 6.173C12.6864 5.51095 13.3522 4.56078 14.246 3.88033C14.4556 3.85581 14.7269 3.91098 14.807 3.80677C15.1276 3.40831 15.5467 3.27345 15.9906 3.23054C16.3543 2.86886 16.6933 2.5317 17.0385 2.18841C17.2235 2.17615 17.4146 2.16389 17.6242 2.1455C17.8214 1.96773 18.0248 1.77769 18.2468 1.5754H19.3749C19.5906 1.37924 19.794 1.18307 19.9975 0.999168C20.2009 0.986907 20.392 0.980777 20.5584 0.968517C20.7803 0.772353 20.9899 0.588449 21.218 0.386154H24.6331C24.9989 0.0346934 25.3626 0.0346934 25.7242 0.386154H27.9743C28.2023 0.582319 28.4119 0.766223 28.6585 0.980777H29.7558C29.9715 1.18307 30.1811 1.37311 30.3969 1.5754H31.1366C31.414 1.92482 31.7654 2.37845 32.0243 2.70335C32.4003 2.74626 32.5853 2.77078 32.7702 2.7953C33.3127 3.34088 33.8613 3.88033 34.4038 4.42591C34.5949 4.43817 34.7798 4.45043 34.9894 4.45656C35.1867 4.64047 35.3962 4.8305 35.612 5.0328H36.1791C36.5182 5.36995 36.8264 5.76228 37.2148 6.03814C37.5723 6.2956 38.1456 6.17913 38.3983 6.66341C39.0024 6.69406 39.4278 7.03735 39.7977 7.47259C39.921 7.61971 40.0689 7.74845 40.2045 7.88331C40.3956 7.89557 40.5805 7.9017 40.8518 7.91396C41.2586 8.36759 41.7086 8.86413 42.2265 9.44036C42.2265 9.4894 42.2449 9.67944 42.2634 9.89399C42.6395 10.2863 43.0278 10.697 43.4285 11.1139V12.2173C43.6381 12.4503 43.823 12.6587 44.0265 12.8855V14.5284C44.1929 14.792 44.5135 14.8717 44.4826 15.1966C44.347 15.3314 44.2114 15.4663 44.0018 15.6747C44.0018 16.5513 44.0018 17.5015 44.0018 18.4946C43.8415 18.6785 43.6566 18.893 43.4408 19.1382V20.2294C43.2374 20.444 43.0463 20.6524 42.8429 20.8731V22.1972C42.5285 22.4975 42.1217 22.896 41.6717 23.3312C41.6593 23.4416 41.7025 23.6807 41.6038 23.7971C41.16 24.2937 40.673 24.7473 40.2415 25.1764C39.9764 25.2009 39.7915 25.2193 39.6066 25.2316C39.1196 25.6484 38.7744 26.2676 37.8312 26.4576C37.3874 26.8806 36.7709 27.4691 36.1483 28.0698H35.5997C35.2483 28.4193 34.9154 28.7625 34.564 29.0936C34.2928 29.351 33.7688 29.0323 33.5839 29.6575V30.0805C33.3065 30.3564 33.0353 30.6261 32.764 30.8958C32.5791 30.9081 32.388 30.9265 32.1599 30.9449C31.9072 31.1839 31.6359 31.4414 31.3647 31.6989C31.34 32.4345 30.8654 32.8636 30.3167 33.2437C29.7435 33.0843 29.54 33.685 29.1085 33.8138C28.9359 33.8689 28.6893 33.8138 28.5784 33.9241C28.0112 34.4452 27.4749 34.9969 26.9263 35.5425H25.7859C25.5701 35.7386 25.3667 35.9348 25.1448 36.1371H24.0352C23.7948 36.3455 23.5852 36.5294 23.3571 36.7317H21.6804C21.5139 36.8972 21.3783 37.0321 21.2365 37.1731C20.5831 37.3141 19.9235 37.5041 19.4427 36.7378H17.7598C17.5317 36.5417 17.3221 36.3578 17.094 36.1616C16.9337 36.1494 16.7426 36.1371 16.533 36.1248C16.3358 35.9409 16.1262 35.7509 15.9104 35.5547H15.3556C15.1399 35.3586 14.9365 35.1624 14.733 34.9785C14.5234 34.9662 14.3385 34.954 14.1474 34.9478C13.6049 34.4023 13.0686 33.8506 12.5015 33.3295C12.3905 33.2314 12.144 33.2743 11.8542 33.2375C11.3118 32.6981 10.7076 32.0973 10.1282 31.5272C9.88777 31.5088 9.69667 31.4966 9.51174 31.4843C9.1727 31.1472 8.82749 30.8039 8.48844 30.4667C8.02611 30.3932 7.56378 30.3196 7.28021 29.8292H5.43704C5.13498 29.4491 4.78361 28.9955 4.50621 28.6461H3.93292C2.95893 27.6775 2.08358 26.807 1.12809 25.8569V24.8822L0.0739734 23.8339C0.0493156 23.7481 0.00616445 23.6623 0.00616445 23.5765C0 22.1113 0 20.6708 0 19.1873C0.160276 19.0034 0.345209 18.7888 0.560965 18.5436V16.8701C0.961654 16.4532 1.35001 16.0425 1.73837 15.6441C1.7507 15.4418 1.75687 15.2517 1.7692 15.0678C2.23153 14.6081 2.26852 14.4916 2.34865 14.0809C2.89729 13.4495 3.33497 12.9468 3.69867 12.5238C4.54936 12.4441 4.59251 12.4441 4.61717 11.9844C4.63566 11.6533 4.74662 11.4204 5.04252 11.3775C5.32608 11.3346 5.59732 11.3346 5.78841 11.0771C5.84389 11.0035 5.92403 10.9422 5.99184 10.8748C6.12129 10.7338 6.24458 10.5928 6.36787 10.4518V10.4457ZM19.6769 14.2341C19.4673 14.5345 19.1344 15.0065 18.8817 15.3682C18.5365 15.405 18.3022 15.3682 18.179 15.4602C17.8769 15.687 17.618 15.9751 17.3591 16.2203V16.8149C17.1557 17.0295 16.9646 17.2379 16.7981 17.4157V19.7145C17.0817 19.9965 17.3221 20.3214 17.6365 20.5298C18.0865 20.824 17.7659 21.4616 18.2529 21.719H18.8016C19.0173 21.9213 19.2269 22.1113 19.4365 22.3075H20.5399C20.7803 22.5159 20.9899 22.6998 21.181 22.8715C21.3968 22.847 21.5817 22.8286 21.7297 22.8102C21.9639 22.614 22.1797 22.4424 22.3523 22.2953C22.9811 22.2585 23.5482 22.3688 24.103 22.2033C24.1708 22.1359 24.2386 22.0684 24.3064 22.001C24.6886 21.5903 25.4098 21.7619 25.7057 21.198C25.7304 21.1489 25.8783 21.1367 25.9646 21.1428C26.6982 21.2041 26.5873 20.634 26.6736 20.2233C27.0188 19.88 27.3578 19.5428 27.74 19.1628C27.5797 18.9727 27.4195 18.7766 27.2407 18.562C27.401 18.3781 27.5797 18.1819 27.7708 17.9612V16.8394C27.5859 16.6433 27.3948 16.4348 27.1975 16.2203V15.0923C27.0126 14.8165 26.729 14.8226 26.4455 14.7858C26.2852 14.7674 26.1188 14.6081 26.0078 14.4732C25.7982 14.2035 25.4961 14.3016 25.2496 14.2096C25.003 14.1177 24.8119 13.8663 24.5776 13.664H21.1379C20.9468 13.8418 20.7434 14.0318 20.5276 14.228H19.6707L19.6769 14.2341Z" fill="#E59D5C"/>
<path d="M24.3064 69.2091C24.0413 69.4665 23.7639 69.7301 23.4804 69.9998C23.1351 69.8711 22.9071 69.5707 22.6975 69.2949C22.5434 69.0987 22.5803 68.7738 22.4694 68.5347C22.3954 68.3692 22.1673 68.2773 22.081 68.1179C21.9516 67.8727 21.9269 67.5846 22.1242 67.3455C22.2475 67.1984 22.3954 67.0696 22.5495 66.9164V64.6115C22.3954 64.4398 22.2043 64.2314 22.0132 64.023C22.1981 63.8268 22.3831 63.6184 22.5618 63.4222V60.5778C22.3708 60.3571 22.192 60.161 22.0194 59.9648C22.1797 59.8054 22.3153 59.6706 22.4509 59.5357C22.4879 59.3579 22.5618 59.1863 22.5618 59.0085C22.568 58.1564 22.5742 57.3043 22.5618 56.5319C22.3523 56.3235 22.2166 56.1887 22.0625 56.0354C21.8776 55.2201 22.0749 54.3864 21.9824 53.6753C22.2413 53.4178 22.3769 53.283 22.5125 53.1481C22.4817 53.0807 22.4694 53.001 22.4262 52.9458C22.2968 52.8048 22.155 52.67 22.0132 52.529C22.1981 52.3267 22.3769 52.1244 22.5557 51.9343C22.3769 51.732 22.1981 51.5359 22.0194 51.3336C22.605 50.7574 22.5988 50.7512 22.5002 50.1321C22.3646 49.9972 22.229 49.8624 22.0934 49.7275C22.0625 49.6478 22.0009 49.562 22.0009 49.4823C22.0009 47.8578 22.0009 46.2272 22.0009 44.6027C22.0009 44.523 22.0625 44.4372 22.0995 44.3575L22.5434 43.9161V42.7514C22.4139 42.6043 22.229 42.3959 22.0317 42.169C22.0194 42.0035 22.007 41.8196 21.9947 41.6357C22.1303 41.5192 22.2598 41.3231 22.4016 41.3108C22.7714 41.2863 23.1598 41.225 23.5235 41.3721C23.8009 41.648 23.7269 41.1943 23.7269 41.5744C23.7269 42.5307 23.7269 43.487 23.7269 44.4311C23.918 44.6395 24.1091 44.8418 24.2879 45.0379C24.0906 45.2586 23.9057 45.467 23.7331 45.6571C23.7578 45.8716 23.7762 46.0555 23.7947 46.2394C23.9304 46.3743 24.066 46.5092 24.2078 46.6502C24.3865 47.0977 24.3495 47.5452 24.2324 47.9988L23.7886 48.4402C23.7762 48.6792 23.7454 48.9551 23.7454 49.2309C23.7454 50.2853 23.7454 51.3397 23.7454 52.388C23.7454 52.4677 23.8194 52.5473 23.8564 52.627C23.992 52.7619 24.1276 52.8968 24.2879 53.0562C24.1153 53.2523 23.9427 53.4485 23.7454 53.6692V59.9709C23.9242 60.161 24.1153 60.3694 24.3126 60.5778V69.2029L24.3064 69.2091Z" fill="#E59D5C"/>
<path d="M83.041 34.3043H82.4862C82.2705 34.5005 82.0671 34.6966 81.8451 34.8989H80.7232C80.267 35.2729 79.9773 35.8001 79.4348 36.033C78.7999 35.8797 78.5903 36.8054 77.9369 36.6092C77.7211 36.787 77.4992 36.9587 77.2588 37.1548C77.1108 37.1609 76.9197 37.1732 76.6855 37.1855C76.0999 37.7617 75.4957 38.3625 74.9163 38.9326C74.3985 38.8161 74.1396 39.0981 73.893 39.3862C73.4368 39.564 71.6738 39.5578 68.4744 39.3862L68.0306 38.9448H66.9333C66.7052 38.7487 66.4957 38.5586 66.2737 38.3686C66.1073 38.3625 65.9162 38.3502 65.7128 38.3379C65.3059 37.9579 64.8929 37.5655 64.4799 37.1671H63.3456C63.0497 36.7257 62.6429 36.5418 62.1436 36.5418C61.7983 36.1985 61.4593 35.8614 61.1203 35.5242C60.9353 35.5058 60.7504 35.4813 60.3867 35.4445C60.1339 35.0951 59.8011 34.6231 59.5791 34.3104H58.8333C58.0874 33.5993 57.3969 32.9434 56.7065 32.2875V30.5588C56.5586 30.4117 56.423 30.2707 56.2812 30.1358C56.0531 29.9151 56.2072 29.5964 56.0716 29.3573C55.9545 29.1427 55.6216 29.0692 55.6524 28.7443C55.788 28.6094 55.9236 28.4746 56.0654 28.3336C56.238 27.7757 56.0408 27.1995 56.2134 26.5068C56.2997 26.4087 56.4784 26.2003 56.6819 25.9735C56.5093 25.7834 56.3305 25.5873 56.1394 25.3727V24.8026C56.4784 24.4716 56.8175 24.1344 57.1627 23.8034C57.2305 23.5398 57.2182 23.2149 57.3784 23.031C57.81 22.5283 58.3093 22.0808 58.7408 21.6517C59.0059 21.6272 59.1908 21.6088 59.3757 21.5965C59.9182 21.0571 60.4668 20.5115 61.034 19.9475H62.1436C62.3655 19.7452 62.5751 19.5613 62.8032 19.3529H63.3456C63.5614 19.1506 63.771 18.9606 63.9929 18.7583H65.1025C65.3306 18.5499 65.5402 18.366 65.7313 18.1943C65.9532 18.1759 66.1381 18.1575 66.3231 18.1391C66.6621 17.802 67.0073 17.4587 67.3464 17.1215C67.8333 17.097 68.2587 16.9438 68.5361 16.5147C68.721 16.4963 68.9121 16.484 69.1279 16.4656C69.319 16.294 69.5286 16.1039 69.7505 15.9016H70.8724C71.0882 15.7055 71.2978 15.5093 71.495 15.3315H75.5204C75.7547 15.54 75.9642 15.7239 76.1862 15.9262H77.8691C78.2389 16.294 78.578 16.6311 78.9293 16.9805C79.2561 17.0848 79.6506 17.0235 79.9157 17.3729C80.1437 17.6733 80.452 17.9246 80.7294 18.2004H82.0609C82.3629 18.5192 82.7575 18.9299 83.1828 19.3836H84.2308C85.2849 20.4318 86.3082 21.4433 87.3561 22.4915V23.5888C87.5534 23.8095 87.7445 24.0179 87.9541 24.2509V25.3482C88.1575 25.5689 88.3486 25.7773 88.5397 25.9796V28.26C88.3363 28.4807 88.1452 28.6891 87.9418 28.9098V30.0193C86.6904 31.2638 85.4637 32.4837 84.2369 33.7036C84.0458 33.7158 83.8609 33.7281 83.6513 33.7403C83.454 33.9242 83.2445 34.1143 83.0349 34.3166L83.041 34.3043ZM68.5854 30.2768H69.1525C69.3621 30.473 69.5717 30.6691 69.769 30.853C69.9724 30.8653 70.1635 30.8714 70.3299 30.8837C70.5395 31.0615 70.7368 31.2331 70.9156 31.3864C71.1621 31.1841 71.3779 31.0063 71.5505 30.8592C72.1793 30.8224 72.7464 30.9327 73.3074 30.7672C73.443 30.6324 73.5786 30.4975 73.7142 30.3626C73.893 30.3381 74.0841 30.332 74.2567 30.2768C74.5464 30.1849 74.7067 29.9948 74.6697 29.6577C74.6327 29.3205 74.8423 29.1243 75.1629 29.1366C75.4834 29.1489 75.8286 29.0079 75.7916 28.7565C75.7115 28.2171 76.2416 28.0209 76.3156 27.647C76.1184 27.3956 75.9519 27.1811 75.9334 27.1627C75.73 26.5742 75.9519 26.1819 75.693 25.8325L74.6697 24.8149V24.2877C74.4293 23.7605 73.7697 24.0976 73.4861 23.6501C73.1779 23.1536 72.3334 23.4969 72.0991 22.8164H70.9217C70.7491 22.9697 70.5395 23.1597 70.3176 23.362H69.7443C69.0847 24.0363 68.4128 24.7229 67.7224 25.4279V25.9428C67.5251 26.1512 67.3279 26.3597 67.1553 26.5436V27.6776C67.3648 27.9106 67.5498 28.119 67.747 28.3397V29.437C68.0429 29.7312 68.3142 30.001 68.5916 30.2768H68.5854Z" fill="#E59D5C"/>
<path d="M71.3593 69.8714C71.2977 69.7978 71.1929 69.7242 71.1929 69.6507C71.1805 68.1243 71.1867 66.5917 71.1867 65.1205C71.3963 64.8753 71.5627 64.6791 71.7292 64.483C71.5627 64.3175 71.4271 64.1826 71.2915 64.0477C71.0942 63.496 71.2237 62.9259 71.1806 62.3068C71.3285 62.129 71.5011 61.9144 71.686 61.6876C71.5874 61.2953 70.9525 61.1053 71.199 60.5106C71.3655 60.3329 71.5627 60.1244 71.7477 59.9221C71.5566 59.7199 71.3655 59.5114 71.1806 59.3153C71.1929 59.113 71.2052 58.9229 71.2114 58.7574C71.4086 58.5367 71.5936 58.3222 71.723 58.1751V57.0103C71.5504 56.8387 71.4148 56.7038 71.2792 56.569C71.199 56.2257 71.5936 56.1889 71.7169 55.6372V54.7544C71.5874 54.6073 71.4025 54.3989 71.2052 54.1721C71.3778 53.982 71.5627 53.7797 71.7415 53.5897C71.5627 53.3936 71.3778 53.1913 71.2052 53.0074C71.4025 52.7805 71.5874 52.5721 71.76 52.376C71.7354 52.1614 71.7107 51.9775 71.686 51.7936C71.5504 51.6587 71.4148 51.5239 71.273 51.3829C71.2237 51.058 71.5566 50.9844 71.723 50.7086V43.8735C71.9819 43.5976 72.2408 43.3217 72.4874 43.0581C72.5737 43.0459 72.6662 42.9968 72.7032 43.0275C73.0052 43.2604 73.295 43.5118 73.4737 43.6589V52.9951C73.2765 53.2219 73.11 53.4181 72.9436 53.6142C73.6956 54.4234 73.6956 54.4663 72.9806 55.2387C72.9991 55.3062 73.0052 55.392 73.0484 55.441C73.1778 55.582 73.3196 55.7169 73.4552 55.8517C73.4676 56.0356 73.4799 56.2257 73.4922 56.4096C73.4367 56.4831 73.3874 56.5628 73.3196 56.6241C73.1902 56.7651 73.0484 56.8939 72.9128 57.0349C72.9128 57.2249 72.9128 57.4149 72.9128 57.5988C73.1039 57.8072 73.2888 58.0095 73.4614 58.1934C73.2826 58.408 73.11 58.6042 72.9497 58.7942L73.3936 59.2356C73.4429 59.5605 73.11 59.634 72.9806 59.8608C72.9621 60.0325 72.9374 60.2103 72.9128 60.4309C73.0854 60.621 73.2703 60.8355 73.4676 61.0562C73.4799 61.2217 73.4861 61.4056 73.4984 61.6141C73.3135 61.8102 73.1162 62.0186 72.9189 62.2332C72.9189 64.6178 72.9189 67.0147 72.9189 69.4116C72.9189 69.761 72.7525 69.994 72.4628 69.9817C72.0929 69.9694 71.7045 70.092 71.3593 69.8775V69.8714Z" fill="#E59D5C"/>
</g>
<defs>
<clipPath id="clip0_795_6955">
<rect width="136" height="70" fill="white"/>
</clipPath>
</defs>
</svg>
