<svg width="298" height="38" viewBox="0 0 298 38" fill="none" xmlns="http://www.w3.org/2000/svg">
<g clip-path="url(#clip0_1150_15943)">
<path d="M298 10.4999C289.19 10.4999 289.19 2.50988 280.39 2.50988C271.59 2.50988 271.58 10.4999 262.77 10.4999C253.96 10.4999 253.96 2.50987 245.15 2.50987C236.34 2.50987 236.34 10.4999 227.53 10.4999C218.72 10.4999 218.72 2.50987 209.91 2.50987" stroke="#F39556" stroke-width="2" stroke-miterlimit="10"/>
</g>
<g clip-path="url(#clip1_1150_15943)">
<path d="M228 10.4999C219.19 10.4999 219.19 2.50988 210.39 2.50988C201.59 2.50988 201.58 10.4999 192.77 10.4999C183.96 10.4999 183.96 2.50987 175.15 2.50987C166.34 2.50987 166.34 10.4999 157.53 10.4999C148.72 10.4999 148.72 2.50987 139.91 2.50987" stroke="#F39556" stroke-width="2" stroke-miterlimit="10"/>
</g>
<g clip-path="url(#clip2_1150_15943)">
<path d="M158 10.4999C149.19 10.4999 149.19 2.50988 140.39 2.50988C131.59 2.50988 131.58 10.4999 122.77 10.4999C113.96 10.4999 113.96 2.50987 105.15 2.50987C96.34 2.50987 96.34 10.4999 87.53 10.4999C78.72 10.4999 78.72 2.50987 69.91 2.50987" stroke="#F39556" stroke-width="2" stroke-miterlimit="10"/>
</g>
<g clip-path="url(#clip3_1150_15943)">
<path d="M88 10.4999C79.19 10.4999 79.19 2.50988 70.39 2.50988C61.59 2.50988 61.58 10.4999 52.77 10.4999C43.96 10.4999 43.96 2.50987 35.15 2.50987C26.34 2.50987 26.34 10.4999 17.53 10.4999C8.72 10.4999 8.72 2.50987 -0.0899956 2.50987" stroke="#F39556" stroke-width="2" stroke-miterlimit="10"/>
</g>
<g clip-path="url(#clip4_1150_15943)">
<path d="M298 22.4999C289.19 22.4999 289.19 14.5099 280.39 14.5099C271.59 14.5099 271.58 22.4999 262.77 22.4999C253.96 22.4999 253.96 14.5099 245.15 14.5099C236.34 14.5099 236.34 22.4999 227.53 22.4999C218.72 22.4999 218.72 14.5099 209.91 14.5099" stroke="#F39556" stroke-width="2" stroke-miterlimit="10"/>
</g>
<g clip-path="url(#clip5_1150_15943)">
<path d="M228 22.4999C219.19 22.4999 219.19 14.5099 210.39 14.5099C201.59 14.5099 201.58 22.4999 192.77 22.4999C183.96 22.4999 183.96 14.5099 175.15 14.5099C166.34 14.5099 166.34 22.4999 157.53 22.4999C148.72 22.4999 148.72 14.5099 139.91 14.5099" stroke="#F39556" stroke-width="2" stroke-miterlimit="10"/>
</g>
<g clip-path="url(#clip6_1150_15943)">
<path d="M158 22.4999C149.19 22.4999 149.19 14.5099 140.39 14.5099C131.59 14.5099 131.58 22.4999 122.77 22.4999C113.96 22.4999 113.96 14.5099 105.15 14.5099C96.34 14.5099 96.34 22.4999 87.53 22.4999C78.72 22.4999 78.72 14.5099 69.91 14.5099" stroke="#F39556" stroke-width="2" stroke-miterlimit="10"/>
</g>
<g clip-path="url(#clip7_1150_15943)">
<path d="M88 22.4999C79.19 22.4999 79.19 14.5099 70.39 14.5099C61.59 14.5099 61.58 22.4999 52.77 22.4999C43.96 22.4999 43.96 14.5099 35.15 14.5099C26.34 14.5099 26.34 22.4999 17.53 22.4999C8.72 22.4999 8.72 14.5099 -0.0899956 14.5099" stroke="#F39556" stroke-width="2" stroke-miterlimit="10"/>
</g>
<g clip-path="url(#clip8_1150_15943)">
<path d="M298 35.5C289.19 35.5 289.19 27.51 280.39 27.51C271.59 27.51 271.58 35.5 262.77 35.5C253.96 35.5 253.96 27.51 245.15 27.51C236.34 27.51 236.34 35.5 227.53 35.5C218.72 35.5 218.72 27.51 209.91 27.51" stroke="#F39556" stroke-width="2" stroke-miterlimit="10"/>
</g>
<g clip-path="url(#clip9_1150_15943)">
<path d="M228 35.5C219.19 35.5 219.19 27.51 210.39 27.51C201.59 27.51 201.58 35.5 192.77 35.5C183.96 35.5 183.96 27.51 175.15 27.51C166.34 27.51 166.34 35.5 157.53 35.5C148.72 35.5 148.72 27.51 139.91 27.51" stroke="#F39556" stroke-width="2" stroke-miterlimit="10"/>
</g>
<g clip-path="url(#clip10_1150_15943)">
<path d="M158 35.5C149.19 35.5 149.19 27.51 140.39 27.51C131.59 27.51 131.58 35.5 122.77 35.5C113.96 35.5 113.96 27.51 105.15 27.51C96.34 27.51 96.34 35.5 87.53 35.5C78.72 35.5 78.72 27.51 69.91 27.51" stroke="#F39556" stroke-width="2" stroke-miterlimit="10"/>
</g>
<g clip-path="url(#clip11_1150_15943)">
<path d="M88 35.5C79.19 35.5 79.19 27.51 70.39 27.51C61.59 27.51 61.58 35.5 52.77 35.5C43.96 35.5 43.96 27.51 35.15 27.51C26.34 27.51 26.34 35.5 17.53 35.5C8.72 35.5 8.72 27.51 -0.0899956 27.51" stroke="#F39556" stroke-width="2" stroke-miterlimit="10"/>
</g>
<defs>
<clipPath id="clip0_1150_15943">
<rect width="88" height="13" fill="white" transform="translate(298 12.9999) rotate(-180)"/>
</clipPath>
<clipPath id="clip1_1150_15943">
<rect width="88" height="13" fill="white" transform="translate(228 12.9999) rotate(-180)"/>
</clipPath>
<clipPath id="clip2_1150_15943">
<rect width="88" height="13" fill="white" transform="translate(158 12.9999) rotate(-180)"/>
</clipPath>
<clipPath id="clip3_1150_15943">
<rect width="88" height="13" fill="white" transform="translate(88 12.9999) rotate(-180)"/>
</clipPath>
<clipPath id="clip4_1150_15943">
<rect width="88" height="13" fill="white" transform="translate(298 24.9999) rotate(-180)"/>
</clipPath>
<clipPath id="clip5_1150_15943">
<rect width="88" height="13" fill="white" transform="translate(228 24.9999) rotate(-180)"/>
</clipPath>
<clipPath id="clip6_1150_15943">
<rect width="88" height="13" fill="white" transform="translate(158 24.9999) rotate(-180)"/>
</clipPath>
<clipPath id="clip7_1150_15943">
<rect width="88" height="13" fill="white" transform="translate(88 24.9999) rotate(-180)"/>
</clipPath>
<clipPath id="clip8_1150_15943">
<rect width="88" height="13" fill="white" transform="translate(298 38) rotate(-180)"/>
</clipPath>
<clipPath id="clip9_1150_15943">
<rect width="88" height="13" fill="white" transform="translate(228 38) rotate(-180)"/>
</clipPath>
<clipPath id="clip10_1150_15943">
<rect width="88" height="13" fill="white" transform="translate(158 38) rotate(-180)"/>
</clipPath>
<clipPath id="clip11_1150_15943">
<rect width="88" height="13" fill="white" transform="translate(88 38) rotate(-180)"/>
</clipPath>
</defs>
</svg>
