<svg width="16" height="16" viewBox="0 0 16 16" fill="none" xmlns="http://www.w3.org/2000/svg">
<circle cx="8" cy="8" r="7.625" stroke="#F39556" stroke-width="0.75"/>
<path d="M7.594 13V10.508H4.78V9.934H7.594V8.87H4.78V8.296H7.272L3.828 3.046H4.794L6.684 6.056C6.84267 6.31733 6.98733 6.55533 7.118 6.77C7.24867 6.98467 7.37933 7.204 7.51 7.428C7.65 7.652 7.804 7.89933 7.972 8.17H8.028C8.20533 7.89933 8.35933 7.652 8.49 7.428C8.63 7.204 8.76533 6.98467 8.896 6.77C9.02667 6.546 9.16667 6.308 9.316 6.056L11.206 3.046H12.158L8.728 8.296H11.22V8.87H8.406V9.934H11.22V10.508H8.406V13H7.594Z" fill="#F39556"/>
</svg>
