<svg width="960" height="4" viewBox="0 0 960 4" fill="none" xmlns="http://www.w3.org/2000/svg">
<path d="M880.283 3.20998C882.452 3.34526 875.212 3.25658 880.02 3.45862C879.017 3.47227 878.008 3.48635 877.006 3.5C876.752 3.42517 876.491 3.35053 876.237 3.27571C877.583 3.25367 878.93 3.23164 880.283 3.20961C880.283 3.20973 880.283 3.20985 880.283 3.20998ZM882.122 2.27289C880.888 2.48631 876.968 2.54321 881.203 2.74015C881.539 2.66691 881.884 2.59368 882.221 2.52043C883.691 2.57724 885.17 2.63403 886.641 2.69053C887.169 2.66261 887.698 2.63465 888.226 2.60704C888.9 2.73432 889.567 2.86194 890.241 2.98953C889.643 2.9709 889.037 2.95195 888.439 2.93332C886.075 3.03667 883.972 3.06494 880.763 3.08419C881.045 3.1143 881.327 3.14416 881.609 3.17427C879.98 3.12305 878.353 3.07169 876.731 3.02047C878.14 2.97019 879.714 2.91427 881.019 2.8674C878.931 2.66784 875.247 2.77891 873.329 2.82053C870.718 2.87734 871.308 2.78245 869.37 2.82218C869.061 2.82839 869.026 2.90276 868.414 2.90402C865.329 2.90992 859.336 2.8705 862.841 2.69694C867.919 2.71929 872.251 2.57992 877.233 2.63084C875.915 2.43016 878.54 2.36187 882.122 2.27289ZM788.826 2.91189C790.365 2.81443 793.499 2.85376 795.623 2.92142C795.625 2.92142 795.628 2.92142 795.63 2.92142C796.098 2.93632 797.156 3.06585 795.63 3.06057C793.143 3.05152 791.94 2.84763 790.635 2.98605C790.051 2.96028 789.438 2.93735 788.826 2.91189ZM783.421 2.92398C781.895 2.87399 782.587 2.72036 784.497 2.76194C784.497 2.76182 784.497 2.76169 784.497 2.76157C785.294 2.77896 783.73 2.9004 786.588 2.77714C787.172 2.87303 787.747 2.96027 788.324 3.05306C787.624 3.05461 786.986 3.05713 786.251 3.05837C786.746 2.90075 784.946 2.97357 783.421 2.92398ZM860.263 2.78373C860.023 2.92553 861.027 2.92463 862.738 3.02303C861.123 3.01838 859.508 3.01341 857.901 3.00875C858.691 2.93365 859.473 2.85883 860.263 2.78373ZM898.198 2.8057C898.201 2.8057 898.203 2.8057 898.206 2.8057C898.735 2.78335 899.265 2.76091 899.788 2.73887C900.104 2.78948 900.416 2.83986 900.733 2.89047C902.602 2.84297 904.481 2.79547 906.35 2.74766C906.123 2.90225 902.768 2.87709 900.919 2.98513C898.171 2.93856 896.846 2.84883 896.668 2.71781C897.176 2.74699 897.683 2.77653 898.198 2.8057ZM448.66 2.1894C448.035 2.23223 447.418 2.2751 446.793 2.31793C447.624 2.33748 448.449 2.3524 449.287 2.37506C451.479 2.18879 451.685 2.35356 454.556 2.3421C463.359 2.30671 461.024 2.01741 468.974 2.44115C462.591 2.421 465.044 2.62011 461.196 2.77347C460.399 2.65673 464.212 2.39345 461.628 2.3388C457.176 2.46235 452.894 2.57742 447.954 2.65721C448.098 2.67739 448.242 2.69763 448.386 2.71781C449.169 2.70508 449.946 2.69227 450.73 2.67955C449.884 2.73357 449.058 2.78712 448.199 2.84177C449.285 2.71914 446.518 2.78766 446.888 2.64677C447.053 2.58405 448.276 2.49705 448.997 2.43713C447.135 2.40453 445.226 2.37468 443.343 2.34301C444.319 2.29305 445.293 2.24302 446.262 2.19306C447.059 2.19151 447.849 2.1904 448.646 2.18885C448.651 2.18903 448.656 2.18921 448.66 2.1894ZM47.8946 2.8414C50.2586 2.69548 54.5545 2.67133 56.8154 2.83371C53.8398 2.8362 50.8702 2.83892 47.8946 2.8414ZM896.488 2.60979C896.756 2.63459 897.015 2.65913 897.283 2.68394C896.101 2.72988 894.912 2.7755 893.731 2.82144C893.504 2.74976 893.272 2.67805 893.038 2.60667C894.186 2.6076 895.341 2.60885 896.488 2.60979ZM820.88 2.68962C821.745 2.68528 821.822 2.68763 822.898 2.69785C822.897 2.69779 822.896 2.69773 822.894 2.69767C823.321 2.70149 826.892 2.74336 826.494 2.79856C824.721 2.79949 822.83 2.79856 821.016 2.79856C820.961 2.76225 820.949 2.72623 820.88 2.68962ZM841.751 2.72184C841.753 2.72196 841.756 2.72208 841.758 2.72221C842.403 2.73059 843.015 2.74766 843.681 2.75077C841.283 2.83764 840.904 2.68179 838.726 2.72587C836.548 2.77026 835.202 2.85626 833.353 2.64274C834.041 2.61076 834.781 2.56501 835.488 2.52776C838.581 2.61313 839.413 2.53279 841.893 2.44866C841.845 2.53993 841.799 2.63057 841.751 2.72184ZM487.852 2.62132C488.443 2.51577 489.102 2.61934 489.171 2.62059C489.169 2.62071 489.168 2.62083 489.167 2.62095C494.401 2.5232 488.486 2.67938 493.426 2.69584C492.691 2.72222 491.968 2.75008 491.24 2.77677C490.113 2.72587 488.952 2.66819 487.852 2.62132ZM657.931 2.63121C657.98 2.66194 658.037 2.69275 658.085 2.72349C655.117 2.71635 654.359 2.83735 651.893 2.72715C653.906 2.69487 655.918 2.66281 657.931 2.63084C657.931 2.63096 657.931 2.63109 657.931 2.63121ZM805.917 2.46605C809.209 2.40737 811.644 2.38152 814.805 2.47466C814.807 2.47478 814.81 2.4749 814.812 2.47503C814.994 2.48076 814.113 2.54507 814.351 2.56126C815.003 2.55165 815.677 2.53686 816.336 2.52538C816.425 2.57687 816.51 2.62836 816.599 2.67955C814.744 2.66495 812.888 2.65038 811.026 2.63579C811.301 2.6659 811.582 2.69575 811.857 2.72587C810.277 2.74139 808.702 2.75685 807.122 2.77237C807.671 2.68796 808.22 2.60352 808.762 2.51879C807.815 2.5011 806.865 2.48405 805.917 2.46605ZM608.508 2.29486C609.03 2.32839 608.063 2.38463 608.874 2.41351C609.685 2.44201 611.18 2.37944 610.829 2.47411C609.738 2.48683 608.591 2.50142 607.479 2.51476C611.059 2.68547 614.631 2.531 614.686 2.7418C611.25 2.68716 608.424 2.71254 605.098 2.77091C605.236 2.60358 608.563 2.4589 606.468 2.30182C607.141 2.29964 607.848 2.29647 608.5 2.29523C608.503 2.2951 608.505 2.29498 608.508 2.29486ZM944.579 0.511501C946.613 0.52423 951.274 0.45594 953.844 0.55343C954.476 0.577455 956.583 0.88867 956.572 0.929693C956.51 1.06785 953.938 1.08666 956.693 1.17669C955.766 1.17762 954.867 1.18281 953.947 1.1853C954.112 1.27813 954.276 1.37071 954.434 1.46324C955.554 1.44926 956.675 1.43522 957.795 1.42094C957.85 1.45168 957.905 1.48248 957.96 1.51322C953.933 1.51384 956.31 1.63248 954.221 1.74301C956.145 1.79888 958.083 1.85448 960 1.91036C958.894 1.90353 957.588 1.89847 956.613 1.8904C956.482 2.0478 958.81 2.01027 959.209 2.03944C961.456 2.20429 950.016 2.12109 949.08 2.35015C950.907 2.37561 952.825 2.40045 954.694 2.42559C954.158 2.45384 953.615 2.48211 953.079 2.51036C948.839 2.35237 944.085 2.2964 939.144 2.198C938.698 2.20452 938.251 2.2112 937.811 2.21741C937.942 2.28848 938.065 2.35928 938.196 2.43035C937.522 2.43873 936.841 2.44705 936.167 2.45544C938.153 2.22136 935.403 2.22455 932.084 2.08174C933.85 1.99947 936.028 2.04935 935.878 1.89608C929.817 2.014 922.72 1.84735 916.824 1.98048C915.36 2.01339 915.365 2.21111 911.924 2.19287C912.041 2.17114 912.061 2.1319 912.136 2.10334C906.185 2.19804 902.574 2.25465 896.389 2.15809C896.746 2.22915 897.098 2.30051 897.455 2.37158C898.768 2.33618 900.082 2.30023 901.388 2.26483C902.281 2.38218 900.961 2.43397 904.878 2.43273C908.087 2.4318 906.177 2.37998 907.05 2.34521C908.232 2.29774 909.268 2.39113 910.54 2.33807C911.522 2.2974 910.459 2.20057 913.023 2.2251C911.992 2.35053 910.94 2.48005 909.902 2.60704C909.277 2.57879 908.657 2.5501 908.031 2.52153C908.663 2.488 909.285 2.45491 909.917 2.42138C907.691 2.48161 905.587 2.53841 903.285 2.60081C904.034 2.41949 901.655 2.48748 900.363 2.5089C898.35 2.54239 900.074 2.41761 898.755 2.43841C897.435 2.45953 896.013 2.59894 893.628 2.56914C894.906 2.48843 893.168 2.41605 893.504 2.34155C893.84 2.26705 896.362 2.25055 893.939 2.16926C889.28 2.23104 894.336 2.51475 891.189 2.56072C887.41 2.61598 886.51 2.1535 887.637 2.05409C888.523 1.97585 891.574 1.99158 892.467 1.91365C887.004 1.77301 886.957 2.05066 886.022 2.10499C882.627 2.30275 884.907 1.77492 880.888 1.96584C880.963 1.86713 881.024 1.77835 881.1 1.68368C880.406 1.70169 879.946 1.72562 879.108 1.73989C881.579 1.93222 879.556 1.92397 878.518 1.92427C876.883 1.92489 879.409 2.0187 878.976 2.04292C877.807 2.10772 875.96 2.0783 877.094 2.16303C876.585 2.1236 876.034 2.08405 875.512 2.04493C873.601 2.09406 869.11 2.50604 873.384 2.42284C872.985 2.57591 871.603 2.50234 870.524 2.47905C869.445 2.45579 869.465 2.55327 868.517 2.53527C864.745 2.46323 867.212 2.29648 867.81 2.16578C862.828 2.25581 867.706 2.31538 860.526 2.37561C859.832 2.4821 863.149 2.59573 860.387 2.65721C859.878 2.4722 857.844 2.3393 853.88 2.27783C853.495 2.32037 853.111 2.36328 852.726 2.40582C850.561 2.23505 851.668 2.05748 847.661 2.26923C849.812 1.87959 848.333 2.12886 844.746 1.97023C844.018 1.93825 845.701 1.85741 844.684 1.81643C844.223 1.79795 843.104 1.85897 841.978 1.81185C841.428 1.78857 838.858 1.63833 837.078 1.70968C838.384 1.89845 835.002 2.05904 837.902 2.21521C832.542 2.17671 828.79 2.26735 834.796 2.00996C833.436 1.95283 832.074 1.89595 830.713 1.83913C829.765 1.88415 828.808 1.92882 827.853 1.97353C827.709 1.81838 827.854 1.77486 824.118 1.80215C825.739 1.76553 827.353 1.7283 828.981 1.69137C829.036 1.66004 829.262 1.62748 829.208 1.59708C827.214 1.65667 821.6 1.68231 820.239 1.7236C818.879 1.76489 821.506 1.77619 821.115 1.81625C817.851 2.14652 818.11 1.90293 815.768 1.95961C814.394 1.99314 817.675 2.02955 816.94 2.04383C814.214 2.09618 812.949 1.92065 810.531 1.91841C811.39 2.01805 812.242 2.11923 813.08 2.21979C810.544 2.21451 807.717 2.21363 805.36 2.24561C804.435 2.25809 805.134 2.33219 804.983 2.33715C804.233 2.36261 801.183 2.40294 800.86 2.40325C798.428 2.40384 798.359 2.30121 795.996 2.29559C796.924 2.2869 797.796 2.27907 798.703 2.27069C799.115 2.1043 799.535 1.93791 799.948 1.7712C797.632 1.7591 795.316 1.74724 792.993 1.73513C794.691 1.7907 796.394 1.846 798.091 1.90157C795.439 2.036 792.786 2.17074 790.133 2.30548C788.752 2.2229 787.376 2.14033 785.995 2.05775C782.244 2.07953 782.999 2.41476 781.22 2.1211C780.114 2.14593 779.008 2.17074 777.902 2.19526C778.06 2.15335 778.216 2.11137 778.374 2.06947C777.041 2.09524 775.708 2.12084 774.375 2.14692C775.777 2.29531 777.151 2.45146 778.539 2.5955C775.916 2.62775 775.865 2.50186 775.474 2.47045C774.436 2.38724 772.376 2.49948 771.552 2.42248C771.273 2.39604 773.844 2.31317 772.958 2.21759C772.785 2.19907 769.343 1.84773 767.146 1.92885C767.188 1.9925 767.357 2.07054 767.447 2.13978C764.493 2.17844 762.986 1.8462 763.378 1.75308C761.804 1.81827 759.504 1.82372 759.181 1.92555C758.377 1.92804 757.579 1.93039 756.775 1.93288C757.613 1.68486 754.26 1.73021 754.04 1.9435C755.421 1.94878 756.804 1.95433 758.185 1.95961C757.141 2.22103 761.338 2.37882 752.604 2.13666C750.934 2.00067 755.573 2.15519 754.212 2.05336C751.848 1.99408 749.629 2.04368 747.382 1.94899C744.586 1.83071 748.026 1.71694 741.512 1.86751C755.881 2.24473 739.541 2.12234 732.792 2.23938C730.937 1.86681 725.237 1.7488 717.389 1.85964C718.207 1.96333 720.676 1.90991 722.099 1.94405C723.521 1.97819 721.982 2.03971 723.754 2.08814C725.526 2.13656 729.291 2.20239 731.086 2.27563C729.566 2.33432 722.065 2.47307 727.024 2.30639C723.322 2.20365 721.583 2.09807 716.994 2.07881C715.62 2.24056 715.721 2.34128 711.248 2.34594C713.894 2.12118 708.81 1.96496 709.93 1.73275C713.102 1.78684 711.329 2.01253 713.163 2.12055C713.351 2.13135 716.307 2.07477 716.994 2.07881C714.011 1.87607 712.98 1.8006 714.815 1.55936C712.705 1.58047 711.393 1.55019 711.2 1.66537C710.761 1.6154 710.319 1.56539 709.886 1.51542C709.199 1.51666 708.581 1.52129 707.853 1.52036C708.856 1.69412 706.913 1.58715 705.531 1.66592C704.15 1.74478 706.003 1.88195 702.21 1.88381C703.474 1.92448 704.63 1.95938 705.854 1.99788C703.408 2.04258 700.954 2.08757 698.507 2.13227C700.226 2.23844 703.949 2.39613 703.847 2.53581C702.72 2.48308 698.86 2.57576 698.438 2.57957C696.802 2.59386 697.694 2.50576 697.57 2.50359C695 2.46078 692.884 2.49077 691.908 2.3573C689.978 2.41752 688.521 2.38318 686.474 2.38659C685.347 2.38845 685.566 2.48649 684.906 2.46789C680.522 2.3437 684.699 2.21701 676.242 2.45818C677.266 2.52648 678.276 2.59635 679.3 2.66526C678.345 2.69103 677.395 2.71694 676.44 2.74271C675.801 2.73029 675.167 2.71778 674.528 2.70536C674.542 2.55728 674.558 2.40889 674.572 2.2608C673.871 2.25273 673.167 2.24489 672.466 2.23682C673.669 2.22223 674.874 2.20765 676.077 2.19306C676.187 2.167 676.29 2.14093 676.399 2.11488C674.613 2.07451 672.832 2.03379 671.045 1.99312C671.011 2.04463 670.977 2.0965 670.943 2.14802C666.916 2.0763 666.82 2.03269 662.992 2.17457C660.044 2.17301 657.644 2.3884 655.939 2.47905C655.328 2.45019 654.716 2.42095 654.097 2.39208C653.706 2.43493 653.31 2.47759 652.918 2.52043C652.142 2.46083 651.354 2.40121 650.578 2.34192C650.145 2.47721 649.921 2.51945 652.951 2.56694C651.913 2.73521 646.579 2.66098 644.407 2.60448C642.76 2.5616 644.588 2.42124 644.382 2.40417C643.694 2.34617 640.978 2.39621 640.408 2.38659C637.996 2.34654 636.306 2.35355 634.128 2.32251C633.704 2.31629 632.518 2.22734 632.418 2.22455C631.634 2.20934 629.7 2.1661 629.481 2.16486C618.137 2.09846 630.258 2.48438 619.71 2.44372C620.026 2.49461 620.316 2.54516 620.626 2.59605C619.829 2.59916 619.024 2.60211 618.227 2.60521C617.217 2.56267 618.439 2.48532 616.432 2.54772C616.563 2.485 616.694 2.42226 616.832 2.35986C615.959 2.3937 615.118 2.42727 614.224 2.46111C612.822 2.24348 607.704 2.19405 608.068 1.93855C608.192 1.85162 611.82 1.76242 609.903 1.66959C608.345 1.65131 609.399 1.75514 608.764 1.76058C604.173 1.79846 604.44 1.65293 602.564 1.69174C602.269 1.75411 601.958 1.8177 601.656 1.8807C600.948 1.86239 600.239 1.84408 599.525 1.82577C599.36 1.86768 599.188 1.90964 599.023 1.95155C599.689 1.95435 600.44 1.95718 601.052 1.95998C600.199 2.12232 592.367 2.19524 595.353 2.05683C596.57 2.00065 598.797 2.02452 597.39 1.83272C595.294 1.86036 592.916 1.88859 590.71 1.91622C590.641 1.87492 590.577 1.83355 590.508 1.79226C587.536 1.81899 590.239 1.98409 590.234 2.07258C589.554 2.07506 588.867 2.07724 588.187 2.07972C587.898 2.03971 587.624 1.99783 587.322 1.95906C587.295 2.02273 586.914 2.17073 584.887 2.11579C583.584 2.08003 585.636 1.91939 583.151 1.94167C583.337 2.041 584.235 2.16198 581.467 2.19397C581.192 2.0903 580.812 1.99532 580.599 1.88637C577.157 1.98597 575.59 1.82587 571.55 1.94167C568.986 2.01494 565.475 2.27505 563.819 1.87429C561.944 1.86374 562.539 1.96354 561.984 1.98598C559.366 2.09216 557.418 1.90213 556.931 1.89095C553.819 1.8193 552.424 1.88508 549.888 1.79537C550.026 1.86958 550.101 1.93982 550.211 2.01216C552.534 1.90101 553.71 1.90622 556.967 1.93013C555.875 1.94503 554.782 1.96027 553.69 1.97517C553.868 2.03539 554.045 2.09562 554.217 2.15552C564.292 1.91832 561.941 2.29309 553.496 2.37506C552.767 2.26362 552.012 2.15247 551.291 2.04072C546.412 2.20961 544.116 2.063 538.598 2.02791C537.942 2.02389 535.553 2.08809 534.526 2.09126C534.543 2.09168 534.56 2.09211 534.577 2.09254C533.938 2.19777 534.804 2.24621 534.907 2.34027C534.35 2.35206 533.793 2.36381 533.237 2.37561C531.994 2.30391 532.431 2.24501 529.985 2.26209C530.315 2.33349 530.64 2.40491 530.97 2.47631C528.29 2.47879 526.536 2.40121 524.041 2.43475C524.46 2.40773 524.874 2.38065 525.294 2.35363C519.865 2.28471 524.185 1.86491 520.083 2.07386C519.822 2.03724 519.567 2.00026 519.306 1.96364C520.996 1.95464 522.687 1.94591 524.371 1.93691C524.405 1.88508 524.442 1.83347 524.47 1.78164C522.662 1.79716 520.846 1.81317 519.039 1.8287C520.358 1.79392 521.685 1.7591 523.005 1.72433C520.909 1.6995 518.813 1.67465 516.717 1.64981C518.943 1.8404 516.057 1.86371 516.6 2.05244C512.889 1.89534 509.974 1.68825 504.222 1.82082C503.082 1.84723 503.701 1.97912 500.465 1.81863C501.248 2.02848 497.194 2.12695 497.714 2.32654C498.841 2.31691 500.01 2.31086 501.102 2.29907C499.858 2.22984 499.652 2.03938 501.541 1.98286C503.953 1.91084 507.471 2.04283 507.327 1.83144C508.289 1.84137 509.184 1.84723 510.118 1.85561C509.733 1.90805 509.357 1.96082 508.979 2.01326C511.637 1.93104 513.308 1.95778 514.586 2.08997C511.418 2.1204 508.258 2.1505 505.09 2.18061C505.557 2.1896 506.029 2.19866 506.496 2.20734C504.098 2.3424 506.572 2.47032 502.098 2.4992C502.125 2.43743 502.147 2.37561 502.175 2.31354C500.546 2.47871 496.087 2.47781 497.509 2.66783C496.163 2.60946 495.888 2.57255 495.125 2.67497C491.572 2.5306 489.29 2.34803 490.555 2.13007C489.236 2.16515 487.916 2.20028 486.604 2.23535C487.366 2.29495 488.13 2.35427 488.892 2.41387C486.597 2.41015 484.285 2.40648 481.997 2.40307C481.777 2.22674 486.415 2.34958 485.076 2.19196C484.809 2.16032 483.574 2.22809 483.249 2.21027C479.827 2.01748 485.199 2.15677 484.19 2.00905C479.091 1.96341 483.172 1.71589 476.148 1.92391C475.963 1.873 475.763 1.82107 475.592 1.77047C473.154 1.76742 473.351 1.8824 471.256 1.90413C469.943 1.91765 468.296 1.71573 466.846 1.85323C466.588 1.87858 469.026 2.12537 463.902 2.11451C459.925 2.10609 461.581 1.93169 459.431 1.86989C457.28 1.80811 452.359 2.04993 450.909 1.77578C452.036 1.81209 453.471 1.83168 454.721 1.86147C455.23 1.80808 455.725 1.75526 456.226 1.70218C453.368 1.7711 450.413 1.68987 448.488 1.81716C444.674 1.62249 440.409 1.80314 441.563 2.02296C442.819 1.99127 441.453 1.89542 443.197 1.9565C443.375 2.00773 443.564 2.0587 443.742 2.10993C440.773 2.10372 438.712 2.10516 440.066 1.94899C439.605 1.94526 439.149 1.94155 438.689 1.93782C438.606 2.05084 438.533 2.16427 438.451 2.27728C437.901 2.29001 437.349 2.30264 436.799 2.31537C436.188 2.29054 435.575 2.26543 434.957 2.2403C435.788 2.06146 437.205 2.05556 432.518 1.95558C432.504 2.01737 432.484 2.07891 432.47 2.14069C428.547 2.06215 428.443 1.91248 423.516 1.91805C427.296 1.70353 429.364 2.08379 429.35 1.65347C430.299 1.68173 431.255 1.71036 432.203 1.73861C432.347 1.67621 432.49 1.61371 432.628 1.55131C427.536 1.58422 419.078 1.99464 415.669 1.7225C415.256 1.75571 414.843 1.78458 414.423 1.82027C411.084 1.65603 409.641 2.02477 406.253 1.8124C405.904 1.79011 406.635 1.44368 402.225 1.4561C402.335 1.50112 402.392 1.5769 402.481 1.6337C401.526 1.60608 400.577 1.57717 399.629 1.54892C399.457 1.59051 399.277 1.63208 399.105 1.67398C400.734 1.69012 402.358 1.70654 403.986 1.72268C402.633 1.73696 401.271 1.75125 399.918 1.76553C401.683 1.8335 402.48 1.83422 401.416 1.94313C399.883 1.94965 398.349 1.95657 396.816 1.96309C396.658 1.99099 396.501 2.01922 396.344 2.04713C397.086 2.13033 397.835 2.2117 398.578 2.29614C394.585 2.22815 391.114 2.22446 388.049 2.06086C387.527 2.03323 389.374 1.92484 385.815 2.0226C385.76 1.96519 385.665 1.91857 385.603 1.8655C381.246 2.02633 379.814 1.97832 375.272 1.8622C378.213 1.97056 375.589 1.90009 374.84 1.95815C374.327 1.99815 376.33 1.99224 376.103 2.03413C375.876 2.07573 373.273 2.24371 375.499 2.26392C380.956 1.9196 382.442 2.33126 389.452 2.16578C388.373 2.21017 387.286 2.25467 386.207 2.29907C386.715 2.32916 387.17 2.35646 387.719 2.38842C383.81 2.32106 385.711 2.36482 384.105 2.4179C382.497 2.47099 379.574 2.5161 377.616 2.53069C376.999 2.53527 377.65 2.45805 376.257 2.45086C375.309 2.44589 372.717 2.56038 372.119 2.42541C371.727 2.33755 375.891 2.09562 370.134 2.0962C369.051 2.01007 371.81 2.03682 371.87 2.02644C372.371 1.92398 368.833 1.84695 367.197 1.92519C367.065 1.93194 368.356 2.01178 366.952 2.0431C363.619 2.11793 361.694 2.02636 359.536 1.90248C359.302 2.04779 356.497 2.22132 353.006 2.16761C352.828 2.20919 352.658 2.25114 352.479 2.29303C353.021 2.27102 353.563 2.24931 354.105 2.2273C354.696 2.25338 355.322 2.27236 355.899 2.3031C352.389 2.33883 351.892 2.53908 350.208 2.61235C344.447 2.86263 347.939 2.3332 348.978 2.24194C349.727 2.27889 350.451 2.32013 351.194 2.35894C351.111 2.30834 351.028 2.25734 350.952 2.20642C342.328 2.20797 349.639 1.87791 345.261 1.78384C344.134 2.03282 340.919 2.05682 336.824 1.89882C336.37 1.90006 335.915 1.90038 335.461 1.90193C335.386 1.93824 335.387 1.99373 335.263 2.01765C330.329 2.05988 329.45 1.67643 328.983 1.64011C326.908 1.479 325.292 1.70191 324.68 1.70382C322.103 1.71159 321.354 1.61261 318.901 1.65512C316.263 1.70106 318.067 1.77701 317.264 1.84499C316.62 1.89898 314.539 1.90859 313.679 1.96455C314.021 1.91879 314.4 1.8739 314.741 1.82796C312.007 1.76557 309.772 1.70475 306.666 1.68954C303.162 2.02443 300.18 1.45952 301.389 1.91768C304.33 1.94904 305.975 2.00125 307.549 2.11799C305.618 2.13289 303.686 2.1474 301.755 2.1623C301.192 2.11201 300.792 2.06301 300.126 2.01179C298.683 2.11858 295.338 2.07275 294.024 2.10407C287.874 2.25093 289.777 2.43307 284.162 2.12696C288.209 2.09713 288.202 1.94846 292.215 1.96895C291.349 1.86277 289.31 1.88477 290.63 1.75747C286.747 1.78883 288.003 1.90248 286.492 2.00337C285.188 2.09035 282.564 2.09522 282.712 2.20825C282.444 2.14611 282.236 2.08594 281.969 2.02388C279.454 2.0245 276.94 2.02454 274.425 2.02516C275.497 1.96028 276.568 1.89528 277.64 1.83071C276.83 1.80621 276.019 1.78179 275.209 1.75729C269.024 1.9591 258.358 1.58924 260.062 2.0962C257.08 2.11234 256.707 2.04876 255.085 1.95284C254.907 1.99132 254.733 2.02334 254.554 2.06617C252.631 2.02588 251.154 2.17038 249.457 2.13282C247.76 2.09555 247.338 1.95906 247.091 2.18848C245.992 2.12267 244.899 2.068 243.806 2.00685C243.147 2.05897 242.488 2.11049 241.836 2.1623C240.805 2.13498 239.772 2.10777 238.741 2.08045C238.191 2.18997 234.138 2.14276 232.351 2.21631C230.655 2.09826 230.702 1.72657 226.711 1.79318C226.814 1.88536 226.916 1.97728 227.019 2.06947C226.105 2.05022 225.189 2.03104 224.269 2.01179C224.214 1.9817 224.166 1.95161 224.111 1.92153C224.578 1.93084 225.039 1.9401 225.507 1.94972C225.101 1.8988 224.704 1.84812 224.305 1.7972C222.911 1.87264 221.514 1.94808 220.112 2.02351C222.002 2.08062 223.892 2.13778 225.781 2.19489C223.41 2.26257 221.76 2.19506 219.698 2.27051C217.905 2.14323 218.567 2.0699 219.296 1.93178C218.629 1.94357 217.955 1.95496 217.289 1.96675C217.728 1.82861 216.601 1.74631 220.497 1.75747C220.229 1.71807 219.956 1.68051 219.695 1.63956C219.056 1.64577 218.641 1.61246 217.941 1.62766C216.03 1.66926 214.565 1.91189 214.696 1.99696C214.766 2.04152 216.65 1.9563 216.575 2.0193C216.388 2.17292 212.067 2.10395 218.3 2.25824C216.231 2.35604 215.769 2.28228 213.488 2.25403C213.666 2.30522 213.84 2.35609 214.011 2.40728C212.953 2.38369 211.894 2.36019 210.836 2.33661C212.307 2.07364 204.507 1.97488 211.528 1.74484C209.453 1.73304 207.385 1.72118 205.317 1.70877C205.743 1.68176 206.169 1.65503 206.595 1.62802C207.53 1.6423 208.459 1.65635 209.393 1.67032C208.294 1.62097 207.193 1.57191 206.094 1.52256C203.496 1.58372 202.478 1.67779 201.289 1.79391C204.312 1.87864 203.324 1.7629 205.68 1.73989C205.598 1.81343 205.706 1.88107 205.5 1.95833C204.283 1.80601 200.313 1.91682 199.392 1.92427C196.59 1.9469 198.787 1.79724 196.913 1.79409C195.037 1.79099 192.824 1.88006 191.292 1.73166C191.319 1.81484 191.442 1.9009 191.552 1.97664C188.631 2.00396 189.214 1.90569 188.911 1.89296C184.087 1.68371 181.469 1.86037 175.951 1.88179C176.652 1.90756 177.36 1.93082 178.068 1.95503C173.904 2.13164 176.709 2.07757 180.324 2.13593C176.936 2.11823 174.995 2.26864 172.604 2.31335C170.213 2.35798 166.112 2.28074 164.613 2.22052C168.042 2.12365 171.741 2.18753 175.548 2.16083C175.115 2.0761 174.695 2.00438 174.248 1.91127C171.933 2.08912 170.591 1.9702 169.828 1.94661C167.588 1.87741 167.659 2.03006 166.305 1.86586C166.36 1.92235 166.4 1.96984 166.455 2.0226C161.83 1.999 156.842 1.89914 153.832 2.10774C153.557 1.97207 153.35 1.84137 153.034 1.70291C151.075 1.80503 149.398 1.70045 147.749 1.72433C146.107 1.74824 146.732 1.85788 144.801 1.9001C144.444 1.90787 143.7 1.83924 142.82 1.88985C141.932 1.94073 138.656 2.319 138.264 1.98854C136.608 1.98699 135.041 1.9749 133.419 1.96931C135 1.95069 136.581 1.93265 138.154 1.91402C136.808 1.83393 135.469 1.75407 134.122 1.67398C133.951 1.74539 133.778 1.81809 133.613 1.88857C129.985 1.9755 127.352 1.85875 123.689 1.88637C123.078 1.89103 124.52 2.03221 121.807 1.99623C119.092 1.96022 117.078 1.6967 112.454 1.79849C112.22 1.80376 110.851 2.00558 109.195 1.86586C108.818 1.8342 110.404 1.78734 109.539 1.74575C108.673 1.70415 104.809 1.66994 104.507 1.5709C104.548 1.60597 104.789 1.64231 104.906 1.67801C104.247 1.69477 103.58 1.71154 102.914 1.72799C102.852 1.66622 102.785 1.60435 102.724 1.54288C98.9303 1.68663 96.9699 1.92111 91.3491 1.84353C92.9295 1.93325 94.5106 2.02333 96.0842 2.11304C96.5171 2.05002 96.9508 1.98657 97.3769 1.92354C99.9673 1.94868 102.565 1.97365 105.155 1.99879C105.581 1.92707 106 1.85556 106.426 1.78384C107.113 1.79315 107.793 1.80217 108.48 1.81149C108.309 1.86333 108.135 1.9149 107.957 1.96675C109.317 1.95402 110.679 1.94103 112.033 1.9283C109.277 2.23434 104.337 1.90227 104.694 2.15827C104.082 2.11855 103.47 2.07855 102.859 2.03852C102.591 2.16266 101.348 2.12693 99.1567 2.10737C99.6583 2.16853 100.212 2.22886 100.673 2.29065C98.5424 2.20435 94.7635 2.21273 92.5576 2.17951C91.5888 2.16492 92.5564 2.07492 92.2683 2.06434C90.7907 2.00908 87.9667 2.16611 87.3757 2.15369C83.8436 2.07979 81.5483 1.78207 77.6931 1.97829C81.6721 2.02672 79.5074 2.00626 80.9231 2.11524C81.3662 2.14941 86.5066 2.22069 80.0698 2.18903C79.3151 2.18507 67.6355 1.97937 71.4748 1.82174C69.585 1.87204 68.1053 1.93019 66.3735 1.9836C62.1403 1.56818 63.6053 1.95843 64.8354 2.17328C64.1413 2.17421 63.4811 2.1764 62.7664 2.1764C64.2851 1.95068 56.5476 1.93666 53.9224 2.05061C53.0428 2.08849 55.5023 2.16074 53.4683 2.19489C52.4997 2.17906 51.4009 2.15856 50.3775 2.14088C51.8617 2.28368 48.9487 2.33872 48.9895 2.484C47.1273 2.35454 45.7029 2.08014 46.7264 1.93141C45.1873 1.99163 43.6402 2.05178 42.1011 2.11231C42.8158 2.14677 43.5397 2.18093 44.2544 2.2154C39.224 2.12412 32.7559 2.33182 31.7044 2.02662C31.0378 2.0288 30.3642 2.03068 29.6976 2.03285C29.4914 2.08439 29.2922 2.13603 29.086 2.18757C26.0698 2.14287 23.0604 2.09787 20.0443 2.05317C22.7299 2.02119 23.3692 1.94783 26.1856 2.0074C25.1003 1.94812 23.9947 1.88852 22.93 1.82925C18.6899 1.98883 18.1115 2.09371 11.7276 2.04621C11.439 2.04404 6.61547 1.91021 6.45054 1.89717C5.69492 1.83757 6.84193 1.75097 6.50547 1.72085C5.57085 1.6364 -0.10838 1.42436 0.00157544 1.39238C1.38977 0.999934 20.4977 0.994733 25.6656 0.974552C79.2681 0.765301 131.69 1.04525 184.956 0.997439C185.504 0.996698 185.265 0.938766 185.498 0.936284C186.948 0.921734 188.372 1.01202 188.907 1.01575C190.053 1.02343 189.422 0.940006 190.259 0.939946C198.904 0.940878 207.062 0.989931 215.714 0.97565C216.278 0.974719 215.702 1.04146 216.692 1.02966C217.203 1.0232 218.802 0.920807 219.955 0.919256C223.982 0.913981 227.364 0.946809 231.611 0.945256C233.934 0.944329 237.419 0.953033 240.016 0.951481C241.163 0.950822 242.358 0.903977 243.491 0.902412C245.099 0.900238 244.771 0.995201 245.018 1.0011C246.104 1.02686 246.254 0.922635 247.285 0.925116C249.202 0.930083 249.306 0.999673 251.738 0.993777C253.477 0.98943 257.456 0.934486 259.648 0.918341C264.775 0.999057 271.235 0.967013 276.018 0.940313C278.849 0.924485 279.111 1.02192 280.266 1.02161C284.334 1.01972 287.421 0.895279 291.241 0.891243C296.312 0.885985 300.805 0.96827 305.718 0.974185C306.514 0.975116 306.331 0.885843 307.113 0.883553C310.006 0.87517 313.706 0.858922 316.283 0.871651C319.155 0.885641 320.214 1.01522 323.025 0.988833C323.849 0.980998 324.09 0.86738 325.471 0.852793C327.677 0.829853 330.095 0.930045 331.634 0.941228C333.744 0.956131 331.909 0.840381 334.754 0.855905C334.871 0.856575 335.297 0.939317 335.908 0.935369C337.688 0.924192 337.511 0.859033 340.116 0.865243C340.366 0.866101 343.819 0.94494 344.162 0.945256C346.183 0.946498 350.25 0.9741 351.446 0.957341C355.721 0.897729 352.356 0.77328 355.991 1.0434C357.592 0.977282 359.179 0.91027 360.876 0.846018C359.744 0.905939 364.34 0.992407 364.663 0.986819C367.335 0.941789 365.743 0.83669 369.131 0.854074C364.657 1.09687 373.501 0.885368 375.473 0.879158C384.97 0.849051 393.603 0.90964 403.148 0.908088C406.343 0.907452 410.625 0.856128 414.006 0.85737C414.794 0.857444 414.198 0.914903 414.892 0.916144C415.584 0.916995 414.816 0.852492 415.606 0.855905C420.52 0.878267 424.369 0.999976 428.87 0.847849C429.09 0.869844 429.083 0.887224 429.445 0.911383C433.129 0.775097 440.223 0.958375 442.889 0.983523C447.059 1.02262 448.125 0.930499 451.154 0.949101C455.161 0.973939 461.176 1.15391 458.49 0.856821C461.238 0.84751 463.884 0.844939 466.66 0.872567C466.969 0.875699 466.756 0.951211 466.879 0.952763C467.663 0.963604 467.918 0.895995 468.447 0.892891C469.881 0.88454 467.54 0.965492 469.586 0.942876C470.665 0.930768 471.277 0.871799 474.273 0.870553C492.333 0.864033 511.94 0.885152 530.454 0.895088C531.725 0.895709 530.888 0.822685 532.482 0.827342C538.021 0.843502 547.936 0.966395 552.712 0.949651C557.488 0.932886 556.41 0.826099 559.399 0.781385C559.976 0.772691 559.503 0.833551 560.025 0.834483C563.537 0.840076 567.723 0.935003 570.568 0.949284C572.45 0.958854 572.299 0.86311 573.604 0.856271C575.549 0.846336 577.551 0.943067 578.588 0.946172C583.467 0.959811 586.821 0.8819 591.376 0.921637C591.198 0.900566 591.08 0.88106 590.93 0.860299C596.324 0.863714 601.711 0.867138 607.105 0.870553C606.851 0.851303 606.605 0.831888 606.351 0.812328C612.679 0.822892 611.957 1.03152 611.401 0.590965C611.861 0.575444 612.349 0.557454 612.789 0.543177C612.61 0.77012 616.438 0.9362 621.31 0.99396C621.668 0.998307 624.065 0.77703 623.804 1.03845C624.43 0.974496 624.802 0.930409 625.331 0.874215C626.362 0.953362 627.406 1.03157 628.437 1.11041C628.993 1.09861 629.557 1.08723 630.114 1.07544C630.196 1.02421 630.133 0.971019 630.312 0.920721C632.895 0.91296 638.194 0.976292 640.236 0.969791C645.308 0.953336 650.471 0.814831 654.416 0.964481C656.337 0.949224 654.429 0.848677 657.287 0.861398C657.61 0.912304 657.913 0.961095 658.25 1.01355C660.585 0.786104 661.074 0.924466 664.274 0.971988C666.439 1.00427 667.856 0.948685 669.917 0.959538C670.44 0.962332 670.366 1.02909 670.723 1.02692C671.92 1.02003 675.335 0.928148 676.18 0.925665C683.834 0.901453 690.411 0.911759 697.702 0.936284C698.485 0.938768 697.469 0.872885 698.28 0.875679C699.585 0.880066 698.818 0.981303 699.573 0.98627C701.681 0.999554 701.697 0.892802 704.638 0.887215C714.32 0.868909 725.453 0.949101 735.568 0.956242C735.884 0.956242 735.865 0.893695 736.209 0.893074C738.448 0.890015 740.716 0.974564 742.749 0.973636C746.124 0.972394 748.659 0.884524 751.992 0.884834C758.507 0.885145 764.328 0.930137 771.028 0.932623C776.512 0.934796 781.275 0.926453 787.288 0.926763C813.553 0.928005 840.355 0.72947 866.799 0.835032C867.472 0.837824 867.198 0.893087 867.404 0.890693C869.355 0.866788 869.53 0.792224 870.224 0.948369C872.71 0.917595 873.494 0.800285 876.497 0.808666C878.097 0.81306 876.902 0.994882 879.609 0.90113C882.054 0.816378 879.356 0.716732 886.626 0.818553C886.819 0.821352 887.766 0.93218 889.277 0.903327C890.796 0.874763 889.038 0.795404 892.694 0.771498C901.277 0.715618 912.141 0.811418 922.119 0.781934C922.745 0.780071 928.767 0.720821 929.956 0.693499C932.257 0.640409 931.776 0.558051 934.764 0.537867C937.074 0.522343 938.978 0.615636 941.693 0.597007C942.009 0.594743 942.539 0.49878 944.579 0.511501ZM438.696 2.37542C438.132 2.46958 437.115 2.81614 433.708 2.71067C433.385 2.70074 435.129 2.46241 433.247 2.42449C435.088 2.39934 436.882 2.3912 438.696 2.37506C438.696 2.37518 438.696 2.3753 438.696 2.37542ZM959.348 2.72129C956.799 2.7039 954.24 2.68668 951.691 2.66929C953.45 2.62738 955.212 2.58555 956.964 2.54332C957.761 2.60261 958.551 2.662 959.348 2.72129ZM641.968 2.55669C641.971 2.55669 641.973 2.55669 641.976 2.55669C639.295 2.6014 636.614 2.64619 633.934 2.6909C634.215 2.65799 634.498 2.62494 634.78 2.59202C636.896 2.54019 639.013 2.48842 641.122 2.43658C641.404 2.47662 641.687 2.51665 641.968 2.55669ZM663.143 2.20825C664.854 2.24738 664.435 2.31335 665.376 2.37762C665.376 2.3775 665.376 2.37738 665.376 2.37725C665.625 2.39398 666.782 2.40862 667.229 2.41113C667.065 2.36983 666.852 2.32907 666.673 2.28809C670.666 2.18811 678.474 2.54337 668.365 2.6865C668.516 2.63435 668.66 2.58247 668.812 2.53032C663.788 2.54491 658.188 2.4318 663.143 2.20825ZM398.303 2.52556C394.015 2.69632 392.64 2.73233 387.437 2.61528C388.172 2.56688 388.907 2.51848 389.642 2.47008C390.501 2.51945 391.354 2.56848 392.213 2.61784C392.215 2.61784 392.218 2.61784 392.22 2.61784C392.392 2.56599 392.564 2.51406 392.729 2.46221C394.584 2.48332 396.448 2.50445 398.303 2.52556ZM827.293 2.33166C828.488 2.67271 828.143 2.47447 824.729 2.55138C823.547 2.57808 824.699 2.63775 823.964 2.64769C819.993 2.70195 819.675 2.47345 820.562 2.35455C822.809 2.34648 825.079 2.33911 827.285 2.33166C827.288 2.33166 827.29 2.33166 827.293 2.33166ZM930.319 2.2608C930.321 2.2608 930.324 2.2608 930.326 2.2608C930.429 2.34399 928.828 2.36637 930.634 2.44518C929.26 2.44487 927.887 2.44421 926.506 2.4439C926.911 2.43615 927.325 2.42876 927.73 2.42101C927.372 2.39245 927.014 2.36352 926.657 2.33496C926.169 2.43058 925.715 2.37499 924.273 2.34301C924.671 2.44516 925.068 2.54737 925.466 2.64952C923.79 2.6191 922.107 2.58857 920.431 2.55815C920.41 2.53241 920.389 2.50663 920.369 2.48089C919.737 2.51378 919.111 2.54704 918.479 2.57994C918.307 2.54921 918.142 2.51876 917.97 2.48803C917.207 2.5113 916.444 2.53456 915.681 2.55815C915.449 2.48371 917.13 2.45154 914.15 2.47045C915.064 2.39408 915.976 2.31795 916.897 2.24158C921.371 2.24779 925.845 2.25428 930.319 2.2608ZM796.234 2.43658C801.161 2.4223 799.774 2.47625 798.633 2.64512C797.836 2.5756 797.031 2.5061 796.234 2.43658ZM542.385 2.28625C540.955 2.40144 539.52 2.51548 538.056 2.62663C535.142 2.6909 532.227 2.48095 534.42 2.39868C537.059 2.29995 539.815 2.41044 542.385 2.28625ZM476.02 2.33752C479.585 2.39093 476.231 2.5278 475.427 2.60759C474.441 2.47936 473.065 2.49067 470.857 2.47576C472.931 2.46745 475.43 2.32845 476.02 2.33715C476.02 2.33728 476.02 2.3374 476.02 2.33752ZM599.755 2.4157C601.184 2.41226 602.605 2.38009 603.882 2.41918C603.497 2.52933 600.942 2.42912 602.769 2.59239C601.855 2.59518 600.94 2.59789 600.034 2.601C600.61 2.53335 599.835 2.48279 599.759 2.41607C599.758 2.41595 599.756 2.41583 599.755 2.4157ZM748.495 2.56639C745.691 2.43599 745.16 2.49179 742.336 2.58214C741.938 2.47597 745.305 2.29812 747.415 2.25897C747.772 2.36142 748.131 2.46394 748.495 2.56639ZM85.2993 2.51201C85.9726 2.37668 90.9393 2.35903 93.4072 2.39904C93.1133 2.41911 92.8185 2.43945 92.5246 2.45983C90.1194 2.47722 87.7045 2.49463 85.2993 2.51201ZM469.805 2.4666C470.175 2.47057 470.526 2.47353 470.857 2.47576C470.489 2.47723 470.134 2.47493 469.805 2.4666ZM320.523 1.87923C321.698 1.75164 318.206 1.70877 322.446 1.75875C322.446 1.75863 322.446 1.75851 322.446 1.75839C325.25 1.7913 325.869 1.80009 328.467 1.81002C327.531 1.97393 322.262 2.03252 329.525 2.06636C329.621 2.06651 329.43 1.96897 330.591 1.98231C330.949 1.98646 332.095 2.06651 333.839 2.08979C334.402 2.09724 338.637 2.12193 332.865 2.12348C333.037 2.23774 332.727 2.35338 332.74 2.46422C330.487 2.49644 328.755 2.27271 326.372 2.2782C322.833 2.28689 321.032 2.51313 320.351 2.21631C323.327 2.14339 328.437 2.14163 329.104 2.32013C331.983 2.3223 332.81 2.17606 330.488 2.10371C320.544 2.19561 327.758 1.88663 319.051 2.00337C318.948 2.04465 318.59 2.08908 318.645 2.12788C315.987 1.98261 320.104 1.92487 320.523 1.87923ZM341.317 2.19489C339.599 2.28213 337.886 2.37008 336.175 2.45763C336.175 2.31544 337.119 2.18784 339.826 2.10774C340.321 2.1369 340.823 2.16604 341.317 2.19489ZM196.796 2.23224C196.548 2.30955 195.889 2.38039 195.408 2.45397C194.885 2.38877 182.515 2.32622 188.809 2.26227C189.723 2.25295 195.298 2.38965 196.796 2.23224ZM767.963 2.44994C766.506 2.39809 765.055 2.34616 763.605 2.29431C765.837 2.26142 768.071 2.22767 770.303 2.19416C769.521 2.2794 768.745 2.3647 767.963 2.44994ZM518.669 2.15058C519.284 2.15348 517.24 2.2598 519.665 2.24304C517.858 2.31104 516.165 2.36859 514.399 2.43255C513.87 2.38225 513.335 2.33216 512.806 2.28186C512.394 2.31415 511.973 2.34624 511.561 2.37853C511.808 2.30526 512.028 2.2337 512.29 2.15919C515.265 2.31629 515.947 2.13816 518.669 2.15058ZM607.149 1.86403C607.684 2.02328 603.375 2.11798 607.614 2.14344C606.81 2.24806 605.517 2.30294 603.036 2.31225C602.638 2.27224 602.241 2.23252 601.843 2.19251C601.788 2.29958 601.149 2.33938 599.755 2.4157C599.754 2.41558 599.753 2.41546 599.752 2.41534C595.98 2.42309 596.205 2.38739 595.298 2.21137C599.291 2.31072 599.411 2.1499 602.132 2.05427C604.001 1.98851 606.441 2.01829 607.149 1.86403ZM209.976 2.23041C207.152 2.36483 209.686 2.49022 204.677 2.34741C205 2.31326 205.324 2.27939 205.647 2.24524C207.09 2.23996 208.533 2.23507 209.976 2.23041ZM621.083 2.40984C620.76 2.16334 618.102 1.97146 617.648 2.37249C620.239 2.45415 618.974 2.22698 621.083 2.40984ZM477.236 1.95155C482.218 1.96306 481.276 2.24128 479.228 2.38037C478.912 2.32976 478.596 2.27906 478.287 2.22876C477.414 2.25174 476.541 2.27476 475.669 2.29742C476.191 2.18224 476.714 2.06674 477.236 1.95155ZM708.911 2.13904C705.104 2.31509 713.021 2.23695 710.362 2.34686C708.238 2.43471 705.44 2.25733 706.498 2.14619C707.234 2.14308 708.052 2.14091 708.904 2.13904C708.907 2.13904 708.909 2.13904 708.911 2.13904ZM686.88 2.1894C687.506 2.37748 686.604 2.32266 689.612 2.28882C690.471 2.27919 697.297 2.34983 694.432 2.19397C691.992 2.19397 689.416 2.19126 686.88 2.1894ZM419.649 2.22675C419.603 2.14484 424.86 1.96498 425.534 2.00996C425.534 2.00984 425.534 2.00972 425.534 2.0096C427.355 2.13223 421.811 2.14966 424.216 2.31793C418.89 2.16986 417.297 2.52802 417.668 2.0561C420.805 2.0354 419.32 2.13268 419.649 2.22675ZM20.0845 2.12641C20.0821 2.12641 20.0797 2.12641 20.0772 2.12641C20.4302 2.13026 23.3386 2.25047 22.9849 2.29211C19.4874 2.25641 20.1107 2.17728 16.8546 2.30731C16.6761 2.26543 16.5231 2.22481 16.3309 2.18262C17.6229 2.15778 18.339 2.10747 20.0845 2.12641ZM183.422 2.06709C184.707 2.04566 187.052 2.13444 188.516 2.12916C183.856 2.47006 178.289 2.15217 183.422 2.06709ZM882.133 2.27252C882.129 2.27264 882.125 2.27277 882.122 2.27289C882.123 2.2727 882.124 2.27252 882.125 2.27234C882.128 2.2724 882.13 2.27246 882.133 2.27252ZM283.005 2.27161C282.84 2.24948 282.746 2.23025 282.712 2.21338C282.712 2.21179 282.712 2.21021 282.712 2.20862C282.802 2.22934 282.897 2.2503 283.005 2.27161ZM408.725 2.25147C406.536 2.13723 413.83 1.95563 416.189 1.99898C416.024 2.05111 415.998 2.09838 415.614 2.15827C413.71 2.02325 409.089 2.27071 408.725 2.25147ZM575.021 2.20954C569.256 2.20643 576.759 1.7554 577.068 2.11524C577.057 2.12221 575.17 2.20892 575.021 2.20954ZM454.194 2.20423C455.663 2.06767 452.711 2.03141 457.431 2.055C457.706 2.09037 457.98 2.12583 458.255 2.1612C456.902 2.17548 455.547 2.18995 454.194 2.20423ZM537.25 1.6174C529.994 1.69347 523.053 1.82766 527.78 2.20423C528.329 2.19213 528.886 2.18044 529.436 2.16834C529.518 1.98462 531.545 2.08491 534.511 2.09089C534.934 2.01795 536.579 2.00109 536.888 1.9391C537.485 1.81929 535.595 1.73505 537.25 1.6174ZM843.618 1.9164C843.502 1.94776 843.387 1.97928 843.27 2.01033C842.123 2.04572 840.972 2.08095 839.824 2.11634C840.01 2.05616 840.196 1.99599 840.381 1.93581C841.459 1.92929 842.533 1.92273 843.611 1.91622C843.613 1.91628 843.616 1.91634 843.618 1.9164ZM348.388 1.80727C347.729 2.15243 350.033 2.08886 354.706 1.91439C352.603 1.87868 350.491 1.84298 348.388 1.80727ZM653.859 1.75729C654.01 1.85535 654.159 1.9531 654.317 2.05116C656.798 1.94901 656.337 1.83672 655.148 1.70694C654.716 1.72369 654.292 1.74054 653.859 1.75729ZM689.594 1.71554C688.565 1.69509 689.09 1.77426 688.982 1.77267C686.378 1.73106 686.011 1.69475 682.815 1.75436C682.424 1.77516 682.039 1.79703 681.647 1.81844C683.124 2.02391 684.197 1.91193 687.323 2.03267C686.76 1.96219 686.199 1.89161 685.635 1.82082C687.373 1.83572 689.105 1.85042 690.843 1.86532C691.049 1.84358 691.256 1.82205 691.462 1.80032C690.843 1.77238 690.205 1.74099 689.594 1.71554ZM856.89 2.00557C858.58 2.01364 860.279 2.02203 861.969 2.0301C862.031 1.9795 862.09 1.92855 862.152 1.87795C860.4 1.92047 858.642 1.96304 856.89 2.00557ZM313.679 1.96455C313.545 1.9825 313.414 2.00057 313.298 2.01893C313.31 1.99655 313.456 1.97907 313.679 1.96455ZM15.6241 1.84884C13.7071 1.81345 10.9446 1.83668 8.84189 1.82925C9.0072 1.9562 14.3516 1.9211 16.2284 1.99806C16.5299 1.97528 16.4344 1.86373 15.6241 1.84884ZM484.128 1.96272C484.609 1.89939 485.089 1.83636 485.564 1.77303C486.725 1.77987 487.889 1.78708 489.057 1.79391C489.092 1.74206 489.125 1.68976 489.16 1.63791C484.013 1.70527 485.2 1.55576 482.652 1.40831C483.147 1.59301 483.633 1.77771 484.128 1.96272ZM910.679 1.67673C906.961 1.71181 905.642 1.77734 907.738 1.93288C909.05 1.89719 910.37 1.86146 911.682 1.82577C911.346 1.7761 911.009 1.72639 910.679 1.67673ZM245.97 1.84737C242.859 1.90549 242.808 1.69674 239.767 1.81332C241.395 1.85181 243.023 1.89073 244.645 1.92922C245.083 1.902 245.532 1.87459 245.97 1.84737ZM398.556 1.2741C397.243 1.20148 394.789 1.54667 391.1 1.29186C390.22 1.36791 389.669 1.44055 388.913 1.51505C388.474 1.43402 387.974 1.35195 387.555 1.27153C387.552 1.27153 387.55 1.27153 387.547 1.27153C384.201 1.29886 386.37 1.40049 386.295 1.48649C386.259 1.52214 383.776 1.46254 384.552 1.54014C385.892 1.67333 390.899 1.59674 390.913 1.75912C389.154 1.70605 385.718 1.7504 386.734 1.85872C387.847 1.97763 391.085 1.77836 393.147 1.87703C390.192 1.61751 396.294 1.69767 396.988 1.89699C400.569 1.74393 397.278 1.68149 393.608 1.68863C395.848 1.53588 392.551 1.6184 392.008 1.49143C394.318 1.41479 402.246 1.47868 398.556 1.2741ZM567.474 1.55552C564.999 1.56537 561.133 1.47806 559.439 1.60697C558.452 1.68207 562.327 1.74023 559.655 1.85817C562.066 1.84668 562.616 1.8006 562.204 1.69723C562.754 1.68482 563.31 1.67272 563.859 1.66061C564.113 1.68078 564.374 1.70068 564.628 1.72085C564.917 1.67832 565.207 1.63613 565.489 1.5936C566.073 1.60198 566.663 1.61036 567.247 1.61905C567.315 1.59767 567.432 1.57905 567.474 1.55552ZM156.641 1.85378C157.328 1.85254 158.008 1.8513 158.695 1.84975C158.619 1.82458 158.529 1.79836 158.442 1.77249C158.38 1.75204 158.318 1.73159 158.256 1.71115C158.654 1.7842 161.927 1.90561 163.306 1.8276C163.999 1.78846 162.422 1.64953 165.36 1.62528C163.23 1.63242 161.258 1.65138 159.19 1.66318C159.375 1.62188 159.553 1.58015 159.739 1.53885C159.738 1.53879 159.736 1.53873 159.735 1.53867C159.048 1.52936 158.353 1.5196 157.666 1.51029C157.323 1.62486 156.984 1.73921 156.641 1.85378ZM651.845 1.56339C649.502 1.64442 648.717 1.68651 649.823 1.81753C649.826 1.81759 649.828 1.81765 649.831 1.81771C650.704 1.75966 651.577 1.70163 652.449 1.64359C652.25 1.61688 652.051 1.59009 651.845 1.56339ZM293.493 1.53208C288.511 2.02976 299.731 1.72467 297.595 1.55515C297.499 1.54739 293.961 1.58703 293.493 1.53208ZM476.32 1.79849C477.688 1.79445 479.058 1.7908 480.433 1.78677C480.117 1.7256 479.793 1.66465 479.477 1.60349C478.426 1.66838 477.372 1.7336 476.32 1.79849ZM894.492 1.45079C893.053 1.31417 889.358 1.26468 887.553 1.41325C888.501 1.43064 889.45 1.44805 890.398 1.46543C888.605 1.4825 886.832 1.50129 885.026 1.51743C884.929 1.70776 887.012 1.59734 890.145 1.64981C890.631 1.65827 893.732 1.89452 894.804 1.71646C895.019 1.67986 891.719 1.65497 894.013 1.54856C893.01 1.54018 892.144 1.54204 891.196 1.53739C891.128 1.49206 891.06 1.44668 890.984 1.40135C892.156 1.41776 893.32 1.43437 894.492 1.45079ZM553.067 1.57035C549.668 1.55984 549.248 1.63589 548.541 1.77029C550.121 1.75508 551.703 1.74009 553.283 1.72488C553.208 1.67348 553.142 1.62206 553.067 1.57035ZM864.112 1.40721C862.251 1.38523 863.048 1.49462 862.299 1.51542C859.468 1.59365 857.537 1.51546 854.74 1.56449C854.926 1.54338 855.096 1.52364 855.275 1.50315C855.272 1.50315 855.27 1.50315 855.268 1.50315C842.026 1.41095 848.981 1.65905 856.904 1.61868C857.09 1.65936 857.268 1.70008 857.454 1.74044C861 1.66935 864.269 1.60094 864.112 1.40721ZM337.757 1.51505C337.606 1.48959 338.891 1.3278 336.479 1.40355C334.569 1.63977 337.702 1.52252 338.486 1.61337C337.833 1.63604 337.166 1.65809 336.52 1.68075C340.423 1.74751 340.993 1.69134 339.57 1.51871C339.469 1.50711 337.909 1.54043 337.757 1.51505ZM312.104 1.3986C311.568 1.74665 316.494 1.59014 316.316 1.48209C315.636 1.47779 315.107 1.53672 314.386 1.51066C313.658 1.48458 313.471 1.40328 312.104 1.3986ZM453.238 1.48374C453.094 1.48219 451.644 1.33591 451.788 1.45042C453.582 1.72147 457.196 1.547 456.563 1.45262C455.368 1.45728 454.571 1.49796 453.238 1.48338C453.238 1.4835 453.238 1.48362 453.238 1.48374ZM916.912 1.36876C916.843 1.35905 913.226 1.30025 912.759 1.35484C912.374 1.41631 912.183 1.48218 911.895 1.54581C913.888 1.48682 917.921 1.53176 916.904 1.36876C916.907 1.36876 916.909 1.36876 916.912 1.36876Z" fill="black"/>
</svg>
