<svg width="17" height="16" viewBox="0 0 17 16" fill="none" xmlns="http://www.w3.org/2000/svg">
<circle cx="8.375" cy="8" r="7.625" stroke="black" stroke-width="0.75"/>
<path d="M7.969 13V10.508H5.155V9.934H7.969V8.87H5.155V8.296H7.647L4.203 3.046H5.169L7.059 6.056C7.21767 6.31733 7.36233 6.55533 7.493 6.77C7.62367 6.98467 7.75433 7.204 7.885 7.428C8.025 7.652 8.179 7.89933 8.347 8.17H8.403C8.58033 7.89933 8.73433 7.652 8.865 7.428C9.005 7.204 9.14033 6.98467 9.271 6.77C9.40167 6.546 9.54167 6.308 9.691 6.056L11.581 3.046H12.533L9.103 8.296H11.595V8.87H8.781V9.934H11.595V10.508H8.781V13H7.969Z" fill="black"/>
</svg>
