<svg width="19" height="16" viewBox="0 0 19 16" fill="none" xmlns="http://www.w3.org/2000/svg">
<path d="M9.5 5.33333C7.62618 5.33333 6.10714 6.82572 6.10714 8.66667C6.10714 10.5076 7.62618 12 9.5 12C11.3738 12 12.8929 10.5076 12.8929 8.66667C12.8929 6.82572 11.3738 5.33333 9.5 5.33333Z" fill="#3F3F3F"/>
<path fill-rule="evenodd" clip-rule="evenodd" d="M7.09721 0.0632236C7.89279 0.021252 8.6939 0 9.5 0C10.3061 0 11.1072 0.021252 11.9028 0.0632236C12.7783 0.10941 13.5582 0.583217 14.0131 1.29942L14.7561 2.46921C14.9724 2.80977 15.3397 3.04117 15.7605 3.09992C16.1092 3.1486 16.4566 3.20129 16.8026 3.25794C18.0981 3.47003 19 4.58476 19 5.84358V13.3333C19 14.8061 17.7848 16 16.2857 16H2.71429C1.21523 16 0 14.8061 0 13.3333V5.84357C0 4.58475 0.901919 3.47002 2.19741 3.25793C2.54343 3.20128 2.8908 3.14859 3.23948 3.09991C3.66027 3.04116 4.02757 2.80977 4.24388 2.4692L4.98688 1.29942C5.44178 0.583216 6.22175 0.10941 7.09721 0.0632236ZM4.75 8.66667C4.75 6.08934 6.87665 4 9.5 4C12.1234 4 14.25 6.08934 14.25 8.66667C14.25 11.244 12.1234 13.3333 9.5 13.3333C6.87665 13.3333 4.75 11.244 4.75 8.66667ZM15.6071 7.33333C15.9819 7.33333 16.2857 7.03486 16.2857 6.66667C16.2857 6.29848 15.9819 6 15.6071 6C15.2324 6 14.9286 6.29848 14.9286 6.66667C14.9286 7.03486 15.2324 7.33333 15.6071 7.33333Z" fill="#3F3F3F"/>
</svg>
