<svg width="21" height="18" viewBox="0 0 21 18" fill="none" xmlns="http://www.w3.org/2000/svg">
<path d="M10.5 6C8.42893 6 6.75 7.67893 6.75 9.75C6.75 11.8211 8.42893 13.5 10.5 13.5C12.5711 13.5 14.25 11.8211 14.25 9.75C14.25 7.67893 12.5711 6 10.5 6Z" fill="#A99F3C"/>
<path fill-rule="evenodd" clip-rule="evenodd" d="M7.84429 0.0711266C8.72361 0.0239085 9.60905 0 10.5 0C11.391 0 12.2764 0.0239085 13.1557 0.0711266C14.1233 0.123086 14.9854 0.656119 15.4882 1.46184L16.3094 2.77786C16.5485 3.16099 16.9544 3.42131 17.4195 3.48741C17.8049 3.54218 18.1888 3.60145 18.5713 3.66518C20.0031 3.90378 21 5.15785 21 6.57403V15C21 16.6569 19.6569 18 18 18H3C1.34315 18 0 16.6569 0 15V6.57402C0 5.15784 0.996858 3.90377 2.42872 3.66517C2.81116 3.60144 3.1951 3.54217 3.58048 3.4874C4.04556 3.42131 4.45152 3.16099 4.69061 2.77785L5.51181 1.46184C6.0146 0.656118 6.87667 0.123086 7.84429 0.0711266ZM5.25 9.75C5.25 6.8505 7.6005 4.5 10.5 4.5C13.3995 4.5 15.75 6.8505 15.75 9.75C15.75 12.6495 13.3995 15 10.5 15C7.6005 15 5.25 12.6495 5.25 9.75ZM17.25 8.25C17.6642 8.25 18 7.91421 18 7.5C18 7.08579 17.6642 6.75 17.25 6.75C16.8358 6.75 16.5 7.08579 16.5 7.5C16.5 7.91421 16.8358 8.25 17.25 8.25Z" fill="#A99F3C"/>
</svg>
