<svg width="98" height="39" viewBox="0 0 98 39" fill="none" xmlns="http://www.w3.org/2000/svg">
<path d="M53.0967 2.27554C53.2129 2.48703 53.1654 2.89483 53.1394 3.11916C53.139 3.12327 53.1385 3.12739 53.1381 3.1315C53.1319 3.18474 53.1303 3.2351 53.1286 3.2941C53.1244 3.4348 53.1187 3.62489 53.0447 4.02164C53.0474 4.13707 53.0489 4.25253 53.0489 4.36796C53.0489 5.61459 52.9523 6.86122 52.8367 8.10785C52.8373 8.1236 52.8379 8.13961 52.8385 8.1558C52.8505 8.46847 52.8653 8.85619 52.823 9.0998C52.7691 9.40952 52.7191 9.61987 52.6759 9.79265C52.5829 10.7828 52.4997 11.773 52.4654 12.7632C52.4546 13.0735 52.4487 13.3839 52.4487 13.6942C52.4487 13.98 52.4524 14.2658 52.4593 14.5516C52.4846 14.718 52.5146 14.8763 52.5424 15.023C52.5815 15.2292 52.6163 15.4127 52.6276 15.5644C52.6549 15.9297 52.6118 16.3441 52.5798 16.6518C52.5746 16.7021 52.5696 16.7496 52.5653 16.7935C52.5812 17.0379 52.5982 17.2823 52.6155 17.5267C52.6059 17.5431 52.5958 17.5595 52.5855 17.5762C52.4567 17.7848 52.4584 18.0412 52.4608 18.4448C52.4618 18.6206 52.4629 18.8243 52.4536 19.0641C52.4476 19.2187 52.3966 19.298 52.3549 19.3629C52.3427 19.382 52.3312 19.3999 52.322 19.418C52.2903 19.4801 52.3245 19.5455 52.365 19.6228C52.4175 19.7231 52.4806 19.8435 52.4236 20.0024C52.2421 20.5089 52.3652 20.7321 52.4584 20.9009C52.4857 20.9504 52.5104 20.9953 52.5241 21.0413C52.5686 21.1903 52.5245 21.4026 52.4641 21.5631C52.4161 21.6903 52.4637 21.9448 52.5241 22.1379C52.547 22.2109 52.5476 22.3096 52.5481 22.4259C52.5487 22.5462 52.5492 22.6854 52.5749 22.8343C52.6397 23.2107 52.6711 23.4107 52.6963 23.5714C52.7034 23.6173 52.71 23.66 52.7168 23.7026C52.7383 23.8374 52.756 24.0047 52.7739 24.174C52.7953 24.3767 52.817 24.5823 52.846 24.7388C52.8153 25.1445 52.7774 25.5501 52.7395 25.9557C52.7198 26.164 52.609 26.3639 52.4264 26.5113C52.2436 26.6585 52.0052 26.7413 51.7582 26.7413C51.5112 26.7413 51.2728 26.6585 51.09 26.5113C50.9074 26.3639 50.7964 26.164 50.7767 25.9557C50.7375 25.536 50.6983 25.1162 50.667 24.6965C50.629 24.1852 50.6028 23.6739 50.6028 23.1626C50.6028 22.8049 50.6087 22.4472 50.6193 22.0895C50.6203 22.0527 50.6215 22.0159 50.6227 21.9791C50.5619 21.6786 50.5066 21.3787 50.4869 21.1674C50.4706 20.9929 50.503 20.8657 50.5308 20.7568C50.5499 20.6818 50.5668 20.6155 50.5641 20.5484C50.5627 20.5123 50.5589 20.4631 50.5544 20.4037C50.536 20.1613 50.5048 19.7495 50.5641 19.3739C50.5905 19.2073 50.6424 19.0136 50.6919 18.8288C50.7628 18.5645 50.8289 18.318 50.8086 18.1936C50.7729 17.9751 50.8031 17.7245 50.8298 17.5031C50.8553 17.2919 50.8776 17.1072 50.8364 17.0021C50.7872 16.8766 50.8073 16.7695 50.837 16.6104C50.8576 16.5 50.8827 16.3645 50.8928 16.1804C50.9045 15.9678 50.939 15.8175 50.9683 15.6896C51.0095 15.5097 51.0405 15.3744 50.9835 15.1726C50.9201 14.9486 50.8798 14.7143 50.8998 14.5299C50.9089 14.4459 50.9067 14.3498 50.9044 14.2498C50.9013 14.1174 50.8981 13.9781 50.9208 13.851C50.9396 13.7462 50.9875 13.6597 51.03 13.583C51.0432 13.5591 51.0558 13.5362 51.067 13.514C51.0663 13.4305 51.0654 13.3471 51.064 13.2636C51.0563 13.2501 51.0478 13.2359 51.0389 13.2211C50.9947 13.1467 50.9404 13.0552 50.9133 12.942C50.8705 12.7628 50.8973 12.6055 50.9258 12.4396C50.9479 12.3104 50.9711 12.176 50.9628 12.022C50.9571 11.9169 50.9375 11.7973 50.9181 11.6787C50.8892 11.5026 50.8609 11.3287 50.8789 11.2078C50.8857 11.1626 50.9158 11.1236 50.9457 11.0851C50.9459 11.0849 50.9461 11.0848 50.9463 11.0846C50.9483 11.082 50.9503 11.0794 50.9523 11.0767C50.9294 10.7825 50.9041 10.4881 50.8774 10.1939C50.8697 10.1683 50.8621 10.1426 50.8545 10.117C50.8178 9.99225 50.7821 9.87099 50.7315 9.79193C50.6766 9.70626 50.6447 9.49083 50.611 9.26383C50.589 9.11517 50.5662 8.96147 50.5358 8.836C50.518 8.76265 50.549 8.69306 50.581 8.62147C50.6108 8.55468 50.6415 8.48609 50.6339 8.41113C50.6301 8.37357 50.6172 8.33302 50.6035 8.28973C50.5914 8.25163 50.5786 8.21134 50.5707 8.16916C50.5635 8.12996 50.5804 8.04268 50.6019 7.93076C50.6151 7.8616 50.6302 7.78301 50.6425 7.70052C50.6232 7.48251 50.6046 7.26445 50.5874 7.04644C50.5602 7.00096 50.5249 6.96149 50.4795 6.93025C50.447 6.90783 50.4081 6.88875 50.3684 6.86914C50.3143 6.84247 50.2584 6.81487 50.2138 6.77682C50.179 6.7471 50.1651 6.71203 50.1796 6.68848C50.1864 6.67752 50.1991 6.6691 50.2106 6.66145C50.2237 6.6527 50.2354 6.64488 50.2351 6.63534C50.2348 6.62846 50.2255 6.62129 50.2142 6.61249C50.1962 6.59842 50.1729 6.58013 50.1721 6.5523C50.169 6.44873 50.1765 6.331 50.1838 6.21567C50.192 6.08742 50.1999 5.96207 50.193 5.8622C50.1852 5.75033 50.2198 5.5909 50.2543 5.43121C50.2784 5.31981 50.3023 5.20824 50.3122 5.11253C50.3218 5.01874 50.3027 4.92107 50.284 4.8265C50.2616 4.71297 50.2399 4.60378 50.2702 4.51098C50.2764 4.49222 50.3139 4.46891 50.3609 4.43968C50.3942 4.41896 50.4322 4.39511 50.4673 4.36796C50.4673 4.24984 50.4688 4.1317 50.4717 4.01358C50.4666 4.00942 50.4614 4.00513 50.4561 4.00083C50.456 4.00076 50.4559 4.00069 50.4557 4.00063C50.3363 3.90361 50.173 3.77084 50.2704 3.58432C50.2952 3.53691 50.341 3.50706 50.3821 3.48017C50.4226 3.45376 50.4587 3.43016 50.4664 3.3956C50.475 3.35636 50.4501 3.31003 50.4231 3.25952C50.3852 3.1886 50.3429 3.10939 50.3823 3.0299C50.385 3.02447 50.388 3.01863 50.3909 3.01256C50.419 2.95494 50.4605 2.86964 50.544 2.78477C50.5663 2.53295 50.5924 2.2811 50.6209 2.02928C50.6684 1.60953 50.7226 1.18969 50.7767 0.769971C50.8034 0.565774 50.9171 0.369938 51.0992 0.225544C51.2815 0.0811411 51.5158 1.10688e-08 51.7582 0C52.0005 1.20401e-05 52.2347 0.0811518 52.417 0.225544C52.5991 0.369939 52.7128 0.565766 52.7395 0.769971C52.7824 1.10295 52.8254 1.43604 52.8651 1.76906C52.8701 1.78651 52.875 1.80404 52.8795 1.82149C52.9135 1.95131 52.9817 2.07176 53.05 2.1923C53.0657 2.21998 53.0814 2.24772 53.0967 2.27554Z" fill="#E59D5C"/>
<path d="M19.9566 12.2835C20.1528 12.3306 20.3299 12.6039 20.4248 12.7513C20.4266 12.754 20.4284 12.7566 20.4302 12.7593C20.4528 12.7944 20.4774 12.8248 20.5062 12.8603C20.5737 12.9434 20.6701 13.0617 20.8189 13.3434C20.8804 13.4093 20.9407 13.4758 20.9996 13.5429C21.6423 14.2755 22.2105 15.0717 22.7628 15.8815C22.7714 15.8904 22.78 15.8994 22.7888 15.9085C22.9573 16.0836 23.1676 16.3026 23.2611 16.4748C23.3792 16.6927 23.4463 16.8463 23.5044 16.979C23.9383 17.6209 24.3844 18.2638 24.8625 18.8723C25.0082 19.0582 25.1684 19.2539 25.3229 19.4341C25.4667 19.6019 25.6191 19.7743 25.7656 19.9353C25.8703 20.0191 25.9746 20.0951 26.0696 20.1638C26.2023 20.2593 26.3227 20.3473 26.4088 20.4312C26.6124 20.6288 26.7936 20.9098 26.9203 21.1098C26.9423 21.144 26.9629 21.1762 26.982 21.2056C27.1195 21.3442 27.251 21.4745 27.3903 21.614C27.3911 21.63 27.3917 21.6464 27.3922 21.663C27.3958 21.8681 27.5308 22.027 27.7304 22.2642C27.8227 22.374 27.921 22.4912 28.0353 22.645C28.109 22.7442 28.1081 22.8238 28.1076 22.8889C28.1074 22.9081 28.1072 22.9259 28.1088 22.9425C28.1136 22.9986 28.1754 23.0201 28.2451 23.0416C28.3369 23.0713 28.4414 23.0999 28.478 23.2361C28.5864 23.6596 28.7886 23.7179 28.9489 23.7709C28.9949 23.7852 29.0362 23.798 29.0691 23.8178C29.176 23.8823 29.2453 24.0439 29.277 24.1857C29.3012 24.2967 29.461 24.4303 29.6054 24.5282C29.66 24.5651 29.7075 24.6307 29.7665 24.7164C29.7781 24.7333 29.7897 24.7504 29.8015 24.7676C29.8468 24.8333 29.8999 24.905 29.9698 24.9731C30.1897 25.1878 30.3068 25.3144 30.4013 25.4204C30.428 25.4503 30.4534 25.4797 30.4785 25.5087C30.5589 25.6024 30.6514 25.7258 30.7492 25.8864C30.8078 25.9845 30.8686 26.0918 30.9293 26.2457C30.9811 26.4049 31.0776 26.5888 31.0179 27.0243C31.0003 27.1041 30.9702 27.2024 30.9255 27.2985C30.7763 27.6451 30.4272 27.8941 30.2121 27.9673C29.9873 28.0513 29.8432 28.0566 29.7274 28.0611C29.5001 28.0629 29.3711 28.0316 29.2511 28.0045C29.0187 27.9466 28.8517 27.8792 28.6893 27.8129C28.5178 27.7414 28.3969 27.5847 28.343 27.3747C28.2893 27.1643 28.3044 26.918 28.3823 26.6836C28.4603 26.4492 28.5976 26.2439 28.7625 26.1059C28.9271 25.9679 29.1039 25.9091 29.2472 25.9311C29.3801 25.9517 29.5117 25.9666 29.5924 25.9622C29.6291 25.9606 29.6611 25.9497 29.609 25.9428C29.5807 25.9419 29.5286 25.9356 29.4029 25.98C29.2851 26.0158 29.0462 26.1801 28.9471 26.4097C28.8894 26.5336 28.8752 26.6336 28.8692 26.6964C28.8645 26.9544 28.8787 26.8833 28.8511 26.8638C28.828 26.8285 28.7905 26.7686 28.7486 26.7047C28.664 26.5752 28.5616 26.4239 28.46 26.267C28.3716 26.1306 28.28 25.9892 28.1879 25.8433C28.1451 25.7744 28.0918 25.6926 28.0372 25.6102C28.0212 25.5863 28.008 25.5661 27.9936 25.5444C27.8129 25.4008 27.6375 25.2635 27.5213 25.146C27.4289 25.0535 27.3956 24.9588 27.3637 24.8736C27.3447 24.8188 27.3271 24.7693 27.293 24.7308C27.2748 24.7101 27.2482 24.6828 27.2155 24.6491C27.0874 24.5181 26.865 24.292 26.7263 24.0287C26.6686 23.9165 26.6073 23.7599 26.5585 23.6229C26.4848 23.422 26.4109 23.2295 26.3354 23.1704C26.1992 23.0622 26.0984 22.8942 26.0089 22.7456C25.921 22.6009 25.848 22.4794 25.7641 22.4436C25.6642 22.4011 25.6246 22.3229 25.5671 22.2086C25.5288 22.1312 25.4811 22.0358 25.3956 21.919C25.295 21.782 25.2491 21.6745 25.2069 21.5795C25.149 21.4474 25.0997 21.3415 24.9574 21.2622C24.7982 21.1729 24.6471 21.0579 24.5687 20.9353C24.534 20.8806 24.4843 20.8259 24.4322 20.7684C24.3632 20.6924 24.2897 20.6115 24.2414 20.5201C24.2023 20.4457 24.1964 20.3651 24.1899 20.2923C24.188 20.2697 24.186 20.248 24.1832 20.2277C24.1407 20.179 24.0976 20.1302 24.0539 20.0814C24.0411 20.0784 24.0274 20.0755 24.0131 20.0724C23.9418 20.0574 23.8517 20.0357 23.7756 19.9888C23.6535 19.9125 23.5942 19.8024 23.5308 19.6852C23.4812 19.5937 23.4296 19.4983 23.3464 19.4146C23.2893 19.357 23.2138 19.2995 23.1385 19.242C23.0266 19.1565 22.9147 19.0705 22.8685 18.9895C22.8508 18.9587 22.854 18.9163 22.8571 18.8741C22.8572 18.8739 22.8572 18.8737 22.8573 18.8735C22.8575 18.8706 22.8577 18.8678 22.8579 18.8649C22.6921 18.7083 22.5183 18.5463 22.3512 18.3943C22.3325 18.3845 22.3136 18.3744 22.2949 18.3643C22.2037 18.3152 22.1146 18.2669 22.0356 18.2532C21.9496 18.2378 21.8155 18.1321 21.6754 18.0223C21.5833 17.9499 21.4874 17.8743 21.3997 17.8199C21.3485 17.7882 21.3354 17.7259 21.323 17.6629C21.3119 17.6047 21.3004 17.5448 21.2567 17.5061C21.2348 17.4867 21.2045 17.4715 21.1721 17.4553C21.1436 17.4409 21.1133 17.4258 21.0859 17.4062C21.0603 17.388 21.0284 17.3256 20.987 17.2453C20.9613 17.1957 20.932 17.1393 20.8985 17.082C20.7731 16.9677 20.6489 16.8536 20.5237 16.7364C20.4799 16.7276 20.4329 16.7275 20.3827 16.7389C20.3466 16.747 20.3075 16.7613 20.2674 16.7759C20.2129 16.7957 20.1565 16.8161 20.1032 16.8229C20.0616 16.8282 20.033 16.8165 20.0316 16.7929C20.031 16.782 20.0361 16.7685 20.0409 16.7566C20.0464 16.7429 20.0513 16.7306 20.0462 16.7253C20.0425 16.7215 20.0319 16.7235 20.019 16.7259C19.9983 16.7296 19.9715 16.7343 19.9568 16.7188C19.9021 16.6608 19.8478 16.5874 19.7943 16.5152C19.7349 16.4348 19.6764 16.3558 19.6195 16.3014C19.5558 16.2404 19.499 16.123 19.4445 16.0084C19.406 15.9279 19.367 15.8471 19.3253 15.7846C19.2845 15.7233 19.2198 15.6786 19.1568 15.6351C19.0815 15.5832 19.0073 15.5315 18.9834 15.4582C18.9786 15.4433 18.995 15.4051 19.0154 15.3572C19.0299 15.3233 19.0464 15.2844 19.0589 15.2455C18.9988 15.177 18.9395 15.1071 18.881 15.0361C18.875 15.037 18.8689 15.0379 18.8627 15.0389C18.8626 15.0389 18.8625 15.039 18.8624 15.039C18.7227 15.061 18.5317 15.0909 18.508 14.9163C18.502 14.8719 18.5208 14.824 18.5377 14.7809C18.5544 14.7386 18.5698 14.7013 18.558 14.6763C18.5445 14.6479 18.5023 14.6375 18.4563 14.626C18.3916 14.6099 18.3193 14.5918 18.3082 14.5194C18.3075 14.5145 18.3067 14.5091 18.3058 14.5036C18.2973 14.4515 18.2847 14.3742 18.3036 14.2693C18.1903 14.1067 18.0787 13.9403 17.9723 13.7763C17.7939 13.5017 17.6133 13.2147 17.441 12.9374C17.3562 12.8009 17.3402 12.6108 17.4017 12.4053C17.4634 12.1996 17.5966 11.9965 17.7783 11.8361C17.9601 11.6758 18.1781 11.569 18.39 11.5335C18.6016 11.4982 18.7884 11.5381 18.9133 11.6395C19.1153 11.8037 19.3215 11.9726 19.5231 12.1416C19.5359 12.1485 19.5486 12.1555 19.561 12.1627C19.6533 12.2162 19.7663 12.2413 19.8791 12.2661C19.905 12.2718 19.931 12.2775 19.9566 12.2835Z" fill="#E59D5C"/>
<path d="M2.9723 30.4417C3.15185 30.3801 3.40738 30.5178 3.54936 30.5942C3.55197 30.5955 3.55458 30.5969 3.55719 30.5982C3.59077 30.6163 3.62387 30.6294 3.66266 30.6446C3.75526 30.6809 3.87951 30.7296 4.12026 30.8913C4.19806 30.9154 4.27531 30.9407 4.3519 30.9673C5.18316 31.2562 5.97786 31.6395 6.7661 32.0446C6.77676 32.0478 6.7876 32.0511 6.79854 32.0543C7.00945 32.1171 7.27201 32.1958 7.41843 32.2937C7.60453 32.4182 7.72797 32.516 7.82685 32.5978C8.44944 32.9224 9.07502 33.2399 9.71601 33.5129C9.91637 33.5983 10.1199 33.6798 10.3234 33.7552C10.5123 33.8252 10.7006 33.8912 10.892 33.955C11.0108 33.9722 11.1248 33.9826 11.2308 33.9924C11.3811 34.0067 11.5138 34.0191 11.6169 34.0455C11.8679 34.1101 12.1249 34.2523 12.3157 34.3579C12.3469 34.3752 12.3757 34.3913 12.4034 34.4063C12.5715 34.4523 12.7349 34.4955 12.9035 34.5403C12.9109 34.5533 12.9182 34.5668 12.9255 34.5806C13.0167 34.7524 13.1873 34.8147 13.4516 34.9114C13.5684 34.9542 13.7019 35.0032 13.856 35.0711C13.956 35.1151 13.9899 35.1824 14.0177 35.2374C14.0259 35.2535 14.0335 35.2686 14.0421 35.2818C14.0715 35.3267 14.1261 35.3106 14.1916 35.292C14.2763 35.2678 14.3777 35.2385 14.4612 35.3307C14.5928 35.475 14.7055 35.5344 14.8018 35.5516L14.7524 35.5352C14.8516 35.5445 14.9299 35.5084 14.9976 35.4773C15.0363 35.4594 15.0705 35.443 15.1036 35.4375C15.2093 35.4193 15.3326 35.4952 15.4224 35.578C15.4938 35.6441 15.6681 35.6339 15.805 35.5995C15.857 35.5866 15.9195 35.5983 15.9958 35.612C16.0727 35.6257 16.1647 35.6416 16.2649 35.6322C16.5211 35.6086 16.6558 35.5946 16.7663 35.5845C16.7984 35.5816 16.8268 35.5788 16.8567 35.5759C16.9497 35.5665 17.0653 35.5632 17.1918 35.5618C17.3536 35.5651 17.4721 35.544 17.7807 35.5992C17.8284 35.6158 17.8906 35.6378 17.9755 35.6789C18.0808 35.7404 18.2107 35.7695 18.4546 36.0707C18.5619 36.206 18.6924 36.4903 18.6923 36.7614C18.697 37.0422 18.6123 37.2385 18.5472 37.3605C18.2654 37.7993 18.1673 37.7679 18.0764 37.844C17.9077 37.941 17.8181 37.9677 17.7245 38.0011C17.5457 38.0604 17.4 38.0938 17.2555 38.1266C17.0987 38.1613 16.9264 38.1022 16.7691 37.9623C16.6118 37.8222 16.4819 37.6142 16.4037 37.3799C16.3255 37.1456 16.3057 36.901 16.3447 36.6952C16.3837 36.4895 16.4777 36.3408 16.5985 36.277C16.7083 36.2191 16.8172 36.1592 16.8915 36.1077C16.9252 36.0845 16.9616 36.0532 16.9223 36.0674C16.8956 36.0978 16.8659 36.0334 16.6568 36.3524C16.6086 36.4425 16.5414 36.5944 16.5449 36.8173C16.5445 37.0327 16.6487 37.2588 16.731 37.3625C16.9185 37.5937 17.0033 37.6042 17.0629 37.6424C17.1393 37.6797 17.153 37.682 17.1585 37.6872C17.1396 37.7 16.9112 37.6845 16.7432 37.6749C16.563 37.6632 16.3739 37.6447 16.1851 37.6161C15.922 37.5765 15.6555 37.5239 15.3938 37.4598C15.3669 37.4532 15.3396 37.4463 15.3124 37.4394C15.0783 37.4526 14.8427 37.4534 14.6811 37.4324C14.5479 37.4153 14.4624 37.3584 14.3896 37.3094C14.3451 37.2792 14.305 37.2518 14.2608 37.238C14.2451 37.2306 14.1937 37.2193 14.1786 37.2107C14.1743 37.209 14.1699 37.2074 14.1654 37.206C14.1414 37.1986 14.108 37.19 14.0675 37.1796C13.9016 37.137 13.6201 37.0645 13.3946 36.9163C13.2952 36.8508 13.1841 36.7535 13.0818 36.6621C12.9334 36.5306 12.7944 36.4078 12.7061 36.3963C12.5495 36.3755 12.3967 36.2859 12.2604 36.2062C12.1292 36.1297 12.0181 36.0643 11.9341 36.0767C11.8345 36.0919 11.7703 36.0464 11.6772 35.9799C11.6123 35.9335 11.5322 35.8767 11.4141 35.8217C11.2798 35.759 11.1929 35.6898 11.1189 35.6308C11.0145 35.5478 10.9381 35.4862 10.7851 35.49C10.6143 35.494 10.4491 35.4755 10.334 35.4113C10.2817 35.3822 10.2178 35.3608 10.1517 35.3387C10.0641 35.3094 9.9715 35.2785 9.89552 35.2261C9.83244 35.1827 9.79343 35.1171 9.75776 35.0586C9.7467 35.0404 9.73605 35.023 9.72533 35.0072C9.67037 34.9875 9.61517 34.968 9.55964 34.949C9.54805 34.9529 9.53571 34.9575 9.52287 34.9621C9.45803 34.9854 9.38005 35.0144 9.29635 35.0124C9.16428 35.0093 9.069 34.9456 8.97039 34.8789C8.89358 34.827 8.81337 34.7729 8.70894 34.7434C8.63747 34.7231 8.55249 34.7128 8.46809 34.7026C8.34277 34.6873 8.21805 34.6719 8.14474 34.6259C8.11746 34.6087 8.10231 34.5711 8.08735 34.5338C8.08731 34.5335 8.08726 34.5333 8.08721 34.5331C8.08619 34.5306 8.08515 34.5281 8.08413 34.5256C7.88322 34.4766 7.68035 34.4296 7.47813 34.3845C7.4587 34.3856 7.43912 34.3866 7.41973 34.3876C7.32488 34.3922 7.23274 34.3968 7.16386 34.4257C7.08903 34.4569 6.93682 34.4358 6.77537 34.4133C6.67048 34.3988 6.56199 34.3839 6.46906 34.3828C6.41475 34.3822 6.37938 34.3365 6.34292 34.2894C6.30871 34.2453 6.27458 34.2005 6.22272 34.1899C6.1968 34.1847 6.16583 34.1872 6.13274 34.1899C6.10361 34.1923 6.07278 34.1949 6.04236 34.1924C6.0141 34.19 5.96232 34.1535 5.89561 34.1068C5.85431 34.0779 5.80819 34.0454 5.75809 34.0144C5.60872 33.9816 5.45724 33.9473 5.30899 33.9129C5.27002 33.928 5.23225 33.952 5.19655 33.9875C5.17093 34.0129 5.14537 34.0451 5.11918 34.0779C5.08355 34.1227 5.0467 34.1689 5.00676 34.202C4.97555 34.2279 4.94783 34.2328 4.93714 34.2137C4.93217 34.2048 4.93086 34.1908 4.92966 34.1782C4.92828 34.1638 4.92704 34.1509 4.92063 34.149C4.916 34.1476 4.90817 34.1547 4.89859 34.1633C4.88329 34.177 4.86346 34.1947 4.84481 34.189C4.77549 34.1677 4.70114 34.1335 4.6277 34.0998C4.54613 34.0623 4.46613 34.0257 4.39788 34.009C4.32142 33.9904 4.22876 33.9211 4.13492 33.8516C4.06954 33.8032 4.00382 33.7548 3.94378 33.7233C3.88532 33.6927 3.81492 33.6884 3.74651 33.6843C3.66442 33.6794 3.5853 33.6748 3.53399 33.6248C3.52362 33.6146 3.52056 33.5738 3.51665 33.5228C3.51391 33.4866 3.51049 33.4451 3.50425 33.4058C3.42665 33.3788 3.34939 33.3504 3.27241 33.3207C3.26799 33.3246 3.26347 33.3285 3.2589 33.3325C3.25881 33.3326 3.25873 33.3327 3.25864 33.3328C3.15566 33.4235 3.01413 33.5473 2.92333 33.4129C2.90024 33.3787 2.89552 33.3287 2.89124 33.2837C2.88703 33.2394 2.88327 33.1999 2.86298 33.1848C2.83991 33.1678 2.80126 33.1807 2.75914 33.1948C2.69998 33.2145 2.63389 33.2366 2.59411 33.1812C2.59139 33.1774 2.58849 33.1733 2.58543 33.1691C2.55625 33.1294 2.51378 33.071 2.48488 32.9728C2.32644 32.8949 2.16696 32.8129 2.01063 32.7296C1.74843 32.5902 1.48857 32.4452 1.22716 32.3002C1.10067 32.2296 1.0073 32.0784 0.969028 31.8737C0.930887 31.6687 0.950806 31.4283 1.02745 31.1984C1.10408 30.9685 1.23238 30.7644 1.38665 30.6237C1.54086 30.4833 1.70764 30.4192 1.85228 30.4397C2.0893 30.474 2.32391 30.5078 2.55986 30.546C2.57313 30.5452 2.5864 30.5446 2.59952 30.5442C2.69711 30.5415 2.79934 30.5042 2.90158 30.4669C2.92501 30.4583 2.94876 30.4498 2.9723 30.4417Z" fill="#E59D5C"/>
<path d="M68.4302 23.0448C68.4336 22.8498 68.658 22.6357 68.7807 22.5187C68.7829 22.5165 68.7851 22.5143 68.7873 22.5122C68.8164 22.4844 68.8405 22.4557 68.8686 22.422C68.9347 22.3428 69.0278 22.2308 69.2666 22.0414C69.317 21.9712 69.3668 21.9039 69.4202 21.8343C69.9883 21.0942 70.6323 20.4127 71.2877 19.7452C71.2944 19.7354 71.3014 19.7254 71.3083 19.7153C71.4428 19.5194 71.6033 19.2847 71.7492 19.1631C71.932 19.0123 72.0667 18.9179 72.1798 18.8406C72.7025 18.3075 73.2122 17.7732 73.6865 17.2006C73.8342 17.0225 73.9796 16.8387 74.1162 16.6564C74.2462 16.4829 74.3683 16.3133 74.491 16.1369C74.5431 16.0246 74.5914 15.9092 74.6336 15.8056C74.6913 15.6621 74.7479 15.5272 74.8041 15.4318C74.9439 15.1961 75.1589 14.9752 75.319 14.8089C75.3453 14.7816 75.3698 14.7562 75.3921 14.7327C75.4847 14.5776 75.5762 14.4212 75.6666 14.264C75.6813 14.26 75.6964 14.2561 75.7118 14.2523C75.9063 14.2004 76.0139 14.046 76.1783 13.8021C76.2206 13.7391 76.2736 13.6597 76.3258 13.5848L76.298 13.6298C76.3262 13.5829 76.356 13.534 76.3883 13.4821C76.4441 13.3923 76.5144 13.3673 76.5721 13.3465C76.5891 13.3402 76.605 13.3344 76.619 13.3273C76.6669 13.3032 76.6571 13.2465 76.6447 13.18C76.6287 13.0936 76.6079 12.9918 76.7068 12.9139C77.0223 12.6618 76.9751 12.4539 76.9405 12.3016C76.9304 12.2565 76.9214 12.2153 76.9229 12.1777C76.9276 12.0559 77.0355 11.9214 77.1441 11.8308C77.2038 11.781 77.243 11.6678 77.269 11.5457C77.2805 11.4918 77.2887 11.4376 77.2936 11.3875C77.2995 11.326 77.3343 11.2578 77.3736 11.1812C77.4142 11.102 77.4596 11.0134 77.4827 10.9098C77.5401 10.6496 77.562 10.5187 77.5813 10.4109C77.5864 10.3808 77.5915 10.3518 77.596 10.3233C77.6102 10.2331 77.6341 10.1247 77.6563 10.013C77.6829 9.88 77.7073 9.7412 77.7119 9.63321C77.8255 9.38361 77.9387 9.12442 78.0463 8.85745C78.1016 8.72099 78.2423 8.61022 78.4445 8.54715C78.6463 8.48691 78.8926 8.47737 79.1336 8.53171C79.3746 8.58574 79.5932 8.70076 79.7459 8.85101C79.8978 9.00378 79.9691 9.1817 79.9475 9.34496C79.9034 9.67467 79.8501 10.0063 79.7729 10.3411C79.6799 10.7468 79.5482 11.1602 79.3649 11.5484C79.238 11.8192 79.0937 12.0746 78.9727 12.2878C78.9602 12.3098 78.9479 12.3314 78.936 12.3527C78.9348 12.3596 78.9336 12.3665 78.9325 12.3733C78.8999 12.5697 78.8672 12.7702 78.8256 12.9117C78.7902 13.0323 78.7229 13.1062 78.6647 13.1702C78.6246 13.2143 78.5889 13.2539 78.5706 13.3024C78.5608 13.3283 78.5489 13.3648 78.5342 13.409C78.4752 13.5883 78.3648 13.9078 78.1676 14.1598C78.0806 14.2713 77.9582 14.3889 77.8388 14.4976C77.8349 14.5011 77.831 14.5047 77.8271 14.5082C77.819 14.5185 77.8015 14.554 77.7927 14.5637C77.6254 14.6901 77.4676 14.8083 77.4318 14.8947C77.3659 15.0524 77.2297 15.1933 77.1118 15.313C76.997 15.4304 76.8992 15.5283 76.8852 15.6182C76.8669 15.7277 76.8074 15.7758 76.7112 15.8579C76.6431 15.9166 76.5668 15.9788 76.4749 16.0873C76.3703 16.2106 76.2774 16.2788 76.195 16.3413C76.0827 16.4243 75.9973 16.4879 75.9521 16.6448C75.9052 16.8147 75.829 16.9849 75.7322 17.0813C75.6874 17.1262 75.6458 17.1857 75.6019 17.2485C75.5455 17.3291 75.4863 17.4137 75.4102 17.4773C75.3473 17.5301 75.2702 17.5531 75.2023 17.5729C75.1811 17.5792 75.1607 17.5852 75.1419 17.5918C75.105 17.642 75.068 17.6928 75.0311 17.7443C75.0311 17.7571 75.0315 17.7709 75.0317 17.7852C75.0326 17.8577 75.0367 17.9427 75.0071 18.027C74.961 18.1595 74.8663 18.2406 74.7703 18.3205C74.6948 18.3839 74.6153 18.4508 74.5513 18.5493C74.5091 18.6144 74.4711 18.6972 74.4328 18.78C74.3755 18.9035 74.3194 19.0246 74.2509 19.085C74.2251 19.1079 74.1836 19.1129 74.1422 19.1178C74.142 19.1178 74.1418 19.1178 74.1415 19.1178C74.1387 19.1181 74.136 19.1185 74.1332 19.1188C74.0159 19.3114 73.9066 19.4971 73.7919 19.692C73.7862 19.7123 73.7808 19.7321 73.7753 19.7516C73.7487 19.8472 73.7223 19.9409 73.7266 20.0188C73.7317 20.1028 73.6574 20.2531 73.5826 20.4067C73.533 20.5082 73.4809 20.6141 73.4473 20.7083C73.428 20.763 73.3724 20.7846 73.3146 20.8077C73.2607 20.8291 73.2053 20.8512 73.1771 20.9005C73.1631 20.9252 73.1548 20.9573 73.1459 20.9915C73.138 21.0217 73.1297 21.0537 73.1166 21.0839C73.104 21.1124 73.0516 21.1531 72.984 21.2062C72.9422 21.239 72.8946 21.2765 72.8472 21.3182C72.7627 21.4605 72.6785 21.6011 72.5935 21.7407C72.5944 21.7842 72.6044 21.8292 72.6262 21.8754C72.6418 21.9085 72.6639 21.9435 72.6865 21.9794C72.7172 22.0282 72.749 22.0787 72.7669 22.1286C72.7809 22.1676 72.7758 22.1971 72.7535 22.2025C72.7431 22.205 72.7291 22.2023 72.7164 22.2C72.702 22.1972 72.689 22.1949 72.685 22.2006C72.6821 22.2048 72.6863 22.2147 72.6913 22.2267C72.6993 22.246 72.7095 22.2709 72.6976 22.2878C72.6534 22.3506 72.5941 22.4157 72.5357 22.48C72.4708 22.5512 72.4066 22.622 72.3664 22.6858C72.3223 22.7562 72.2227 22.8292 72.1224 22.9033C72.0524 22.955 71.9822 23.0072 71.9303 23.0587C71.8801 23.1083 71.8514 23.1772 71.8232 23.2446C71.7895 23.3254 71.7568 23.4036 71.6902 23.4405C71.6767 23.448 71.6363 23.4391 71.5856 23.428C71.5497 23.4201 71.5085 23.4112 71.4682 23.4062C71.4135 23.4774 71.36 23.5446 71.3039 23.613C71.306 23.6186 71.3082 23.6243 71.3104 23.6301C71.3105 23.6302 71.3106 23.6303 71.3106 23.6304C71.3613 23.7606 71.4304 23.9388 71.2673 23.9911C71.2259 24.0044 71.1758 23.9944 71.1308 23.9855C71.0867 23.9765 71.0474 23.9682 71.0258 23.9839C71.0012 24.0017 71 24.0441 70.9985 24.0904C70.9964 24.1554 70.994 24.2281 70.9264 24.2512C70.9218 24.2528 70.9168 24.2545 70.9117 24.2563C70.8631 24.2734 70.7912 24.2989 70.686 24.2988C70.552 24.4366 70.4193 24.5665 70.2808 24.6998C70.0501 24.922 69.8178 25.1352 69.5826 25.3523C69.469 25.4562 69.2895 25.5031 69.079 25.4782C68.8682 25.4531 68.645 25.359 68.4529 25.2112C68.2608 25.0634 68.1127 24.8719 68.0344 24.6747C67.9563 24.4776 67.9555 24.2921 68.0267 24.1558C68.144 23.9328 68.2638 23.7065 68.3821 23.4876C68.386 23.4742 68.3903 23.4606 68.3947 23.4474C68.4275 23.349 68.4286 23.2357 68.4293 23.1226C68.4295 23.0966 68.4297 23.0706 68.4302 23.0448Z" fill="#E59D5C"/>
<path d="M83.3641 34.128C83.4433 33.9725 83.6922 33.9257 83.8291 33.8994C83.8316 33.8988 83.8341 33.8983 83.8366 33.8978C83.869 33.8916 83.8976 33.8819 83.9323 33.87C84.015 33.8416 84.1226 33.805 84.3768 33.7823C84.4412 33.7534 84.5052 33.7259 84.5713 33.699C85.2765 33.4122 86.0134 33.2057 86.7524 33.0019C86.7609 32.9974 86.7695 32.9929 86.7782 32.9883C86.9469 32.8997 87.155 32.7885 87.306 32.7654C87.4994 32.7353 87.6364 32.726 87.7486 32.7206C88.3301 32.5478 88.9067 32.3526 89.442 32.0978C89.5432 32.0495 89.642 31.9995 89.738 31.9477C89.7501 31.9376 89.7948 31.9212 89.8079 31.9123C89.8793 31.8825 89.9498 31.852 90.0202 31.8204C90.1806 31.7484 90.339 31.6725 90.4959 31.5931C90.5783 31.5276 90.6538 31.4597 90.7238 31.3966C90.822 31.3081 90.9092 31.229 90.988 31.1794C91.1786 31.0598 91.4251 30.9897 91.608 30.9365C91.6379 30.9278 91.6661 30.9196 91.6919 30.9118C91.8192 30.8321 91.945 30.7511 92.0701 30.6692C92.0833 30.6734 92.0968 30.6779 92.1105 30.6826C92.2811 30.741 92.4211 30.6689 92.6377 30.5541C92.732 30.5041 92.841 30.4459 92.9741 30.3857C93.0593 30.3471 93.1262 30.369 93.1806 30.387C93.1966 30.3923 93.2116 30.3972 93.2257 30.4001C93.2737 30.4102 93.2928 30.3608 93.3145 30.3029C93.3426 30.2277 93.3761 30.1373 93.4874 30.1406C93.8435 30.1496 93.9004 29.9729 93.9401 29.8419C93.952 29.8033 93.9626 29.7684 93.9792 29.7426C94.0331 29.6591 94.1638 29.632 94.2771 29.6334C94.3667 29.6348 94.4715 29.5137 94.5344 29.4016C94.5586 29.3589 94.607 29.3271 94.6639 29.2892C94.6958 29.2679 94.7303 29.2448 94.764 29.2172C94.7948 29.1924 94.8248 29.1645 94.852 29.1321C95.0005 28.9545 95.0584 28.8721 95.1039 28.8056C95.1165 28.7868 95.1278 28.7696 95.1382 28.7525C95.1714 28.6983 95.2109 28.6407 95.2397 28.5871C95.2748 28.5228 95.294 28.465 95.2919 28.4184C95.3712 28.36 95.4401 28.3055 95.5043 28.1944C95.5366 28.1393 95.6549 28.0868 95.8413 28.0331C96.0278 27.9804 96.2662 27.9351 96.5133 27.9374C96.76 27.9403 96.9993 27.9948 97.1748 28.1192C97.3502 28.2413 97.4427 28.427 97.4215 28.6145C97.3823 28.9884 97.2473 29.3942 97.031 29.7313C96.7685 30.1458 96.4294 30.4381 96.1354 30.6438C96.0334 30.7149 95.9357 30.7782 95.8435 30.8365C95.7417 30.901 95.6381 30.9634 95.5339 31.0234C95.513 31.0354 95.4919 31.0474 95.4707 31.0593C95.3364 31.2163 95.1963 31.366 95.0876 31.4538C94.9979 31.5262 94.909 31.5406 94.8342 31.552C94.7826 31.5599 94.7363 31.5671 94.7001 31.591C94.6806 31.6038 94.6548 31.6229 94.6235 31.6459C94.4962 31.7398 94.2781 31.8973 94.037 31.9598C93.9299 31.9876 93.796 32.0003 93.6684 32.0114C93.4857 32.0275 93.3164 32.0404 93.2555 32.0944C93.1478 32.1897 92.9925 32.2344 92.8551 32.2732C92.7241 32.3101 92.6093 32.3418 92.568 32.4079C92.5183 32.4871 92.4487 32.4988 92.3452 32.5159C92.2731 32.528 92.1858 32.5422 92.0764 32.5833C91.9507 32.6305 91.8502 32.6399 91.765 32.6477C91.6448 32.6587 91.5551 32.6665 91.4643 32.7717C91.3633 32.8885 91.2463 32.9868 91.1326 33.0168C91.0809 33.0304 91.0267 33.0576 90.9706 33.0857C90.8964 33.1228 90.8176 33.1619 90.7358 33.1738C90.6683 33.1837 90.5988 33.1623 90.5378 33.1431C90.5188 33.1372 90.5005 33.1315 90.4833 33.127C90.4462 33.1441 90.4092 33.1614 90.3722 33.1789L90.4265 33.1513C90.4166 33.1573 90.4068 33.1633 90.3969 33.1693C90.3932 33.1802 90.3896 33.1921 90.3857 33.2045C90.3665 33.2663 90.3404 33.3434 90.2909 33.4019C90.2102 33.4957 90.1094 33.5202 90.0016 33.546C89.9194 33.5651 89.8309 33.586 89.749 33.6385C89.692 33.6748 89.6336 33.7273 89.5754 33.7791C89.4873 33.8571 89.4037 33.9313 89.3254 33.9505C89.2969 33.9573 89.2614 33.9414 89.2262 33.9255C89.226 33.9254 89.2259 33.9253 89.2257 33.9252C89.2233 33.9241 89.2209 33.9231 89.2185 33.922C89.0603 34.0268 88.9061 34.1306 88.7482 34.2362C88.7366 34.2504 88.7258 34.2641 88.7144 34.2778C88.6597 34.3449 88.6047 34.4105 88.581 34.4778C88.5566 34.5502 88.4439 34.6387 88.3288 34.7293C88.2521 34.7893 88.1731 34.8507 88.1134 34.9115C88.0785 34.9471 88.0242 34.9378 87.9702 34.9272C87.9196 34.9174 87.8675 34.9073 87.8272 34.9339C87.807 34.9472 87.7887 34.9695 87.7691 34.9934C87.7516 35.0145 87.7343 35.0364 87.7131 35.0545C87.6935 35.0712 87.6364 35.0783 87.5624 35.0877C87.5163 35.0937 87.4656 35.0997 87.4129 35.1095C87.2941 35.1831 87.1764 35.2549 87.0558 35.326C87.0397 35.3626 87.0315 35.4047 87.0313 35.4541C87.0313 35.4896 87.0357 35.53 87.0401 35.5714C87.046 35.6278 87.0521 35.686 87.0475 35.7365C87.044 35.776 87.0289 35.7976 87.0094 35.7902C87.0003 35.7868 86.9903 35.7772 86.9813 35.7686C86.9709 35.7587 86.9617 35.7499 86.9562 35.7526C86.9523 35.7546 86.9518 35.765 86.951 35.7776C86.9499 35.7977 86.948 35.8238 86.9323 35.8314C86.8736 35.8599 86.8021 35.8823 86.7314 35.9043C86.6519 35.9292 86.5776 35.9519 86.5214 35.9831C86.4587 36.0179 86.3521 36.0251 86.2458 36.0319C86.1717 36.0367 86.0958 36.0423 86.0371 36.0559C85.979 36.0695 85.9293 36.1107 85.8807 36.1508C85.8219 36.1992 85.7675 36.2449 85.7016 36.239C85.6883 36.2377 85.6605 36.2085 85.6256 36.172C85.601 36.1461 85.5727 36.1166 85.5435 36.0906C85.4737 36.119 85.4051 36.1451 85.335 36.1703C85.3345 36.176 85.3339 36.1818 85.3334 36.1877C85.3334 36.1879 85.3334 36.188 85.3334 36.1881C85.3218 36.3216 85.3031 36.5052 85.1588 36.458C85.1219 36.446 85.0874 36.4105 85.0564 36.3786C85.026 36.3472 84.9987 36.3191 84.9757 36.3201C84.9494 36.3213 84.9314 36.3552 84.9115 36.3921C84.8839 36.4439 84.8538 36.5014 84.7927 36.4832C84.7885 36.4819 84.784 36.4805 84.7794 36.4792C84.7354 36.4664 84.6701 36.4476 84.5895 36.3895C84.4348 36.4265 84.2761 36.4605 84.1197 36.4906C83.8564 36.5419 83.5908 36.5858 83.3268 36.6281C83.1967 36.649 83.0432 36.5854 82.8944 36.4469C82.7456 36.308 82.6155 36.1065 82.5304 35.8796C82.4453 35.6527 82.4108 35.4156 82.4301 35.2135C82.4498 35.0115 82.5209 34.8631 82.63 34.7932C82.8057 34.6805 82.9823 34.5668 83.1584 34.4563C83.1667 34.4477 83.175 34.4393 83.1834 34.4311C83.2458 34.3706 83.2898 34.2803 83.3332 34.1901C83.3434 34.1693 83.3537 34.1484 83.3641 34.128Z" fill="#E59D5C"/>
</svg>
