<svg width="166" height="64" viewBox="0 0 166 64" fill="none" xmlns="http://www.w3.org/2000/svg">
<path d="M64.5955 35.9222C64.0793 35.9222 63.6199 35.7739 63.2174 35.4771C62.8129 35.1804 62.6127 34.7925 62.6127 34.3114C62.6127 34.057 62.678 33.8027 62.8066 33.5483L75.287 8.7686L75.8664 9.53164H60.2907C59.7744 9.53164 59.3383 9.38328 58.9843 9.08654C58.6282 8.7898 58.4512 8.40192 58.4512 7.92078C58.4512 7.46932 58.6282 7.09415 58.9843 6.79742C59.3383 6.50068 59.7744 6.35231 60.2907 6.35231H77.7523C78.3317 6.35231 78.8079 6.50704 79.1788 6.81861C79.5496 7.13019 79.7351 7.52442 79.7351 8.00556C79.7351 8.25991 79.6697 8.51426 79.5412 8.7686L66.4329 34.8603C66.2706 35.1995 66.022 35.4602 65.6828 35.6446C65.3435 35.8269 64.9811 35.9201 64.5934 35.9201L64.5955 35.9222Z" fill="#231815"/>
<path d="M103.92 13.1328C103.016 10.8458 101.672 9.03779 99.881 7.71094C98.0921 6.3841 95.8585 5.72068 93.1825 5.72068C90.5065 5.72068 88.2729 6.3841 86.484 7.71094C84.6951 9.03779 83.3402 10.8458 82.4215 13.1328C81.5028 15.4198 81.0435 18.0332 81.0435 20.9688C81.0435 23.9044 81.5028 26.4478 82.4215 28.7624C83.3402 31.0791 84.6951 32.8997 86.484 34.2266C88.2729 35.5534 90.5065 36.2169 93.1825 36.2169C95.8585 36.2169 98.0921 35.5534 99.881 34.2266C101.67 32.8997 103.016 31.0791 103.92 28.7624C104.822 26.4478 105.275 23.8492 105.275 20.9688C105.275 18.0883 104.824 15.4198 103.92 13.1328ZM96.8025 32.177C96.025 32.4716 94.9251 32.7577 93.4101 32.8277C91.7433 32.8446 90.5592 32.5776 89.7542 32.302C85.7802 30.9434 83.9723 26.965 85.304 22.3804C86.4798 22.834 89.2865 23.7772 93.1446 23.7772C97.0027 23.7772 99.8094 22.834 100.985 22.3804C102.313 26.7912 100.705 30.6954 96.8004 32.177H96.8025Z" fill="#231815"/>
<path d="M21.4484 36.219C19.611 36.219 17.9906 35.9159 16.5873 35.3076C15.1839 34.6993 14.0145 33.8747 13.0811 32.8298C12.1455 31.7849 11.4354 30.6128 10.9529 29.3135C10.4682 28.0142 10.228 26.6725 10.228 25.2884C10.228 24.0739 10.405 22.7195 10.759 21.2231C11.113 19.7267 11.6545 18.1943 12.3794 16.6279C13.1042 15.0616 14.0482 13.5567 15.2092 12.1175C16.3702 10.6783 17.7567 9.3854 19.3687 8.24084C20.9806 7.09628 22.8348 6.21454 24.9314 5.59351C25.2222 5.53628 25.4793 5.50873 25.7047 5.50873C26.221 5.50873 26.6803 5.62954 27.0828 5.86905C27.4852 6.10856 27.6875 6.54095 27.6875 7.16198C27.6875 7.55834 27.5421 7.90383 27.2513 8.20056C26.9606 8.4973 26.575 8.71562 26.0903 8.85763C24.8008 9.28154 23.5344 9.89621 22.2933 10.6995C21.0522 11.505 19.906 12.4503 18.8587 13.5376C17.8115 14.6249 16.9076 15.7971 16.149 17.054C15.3904 18.3108 14.8679 19.6165 14.5771 20.973L13.4161 21.3121C13.9639 20.5491 14.6572 19.8306 15.4958 19.1523C16.3344 18.4741 17.31 17.923 18.4226 17.5012C19.5351 17.0773 20.7509 16.8653 22.0742 16.8653C23.4923 16.8653 24.8155 17.1345 26.0398 17.6707C27.264 18.207 28.3449 18.9276 29.2805 19.8306C30.216 20.7356 30.9493 21.7721 31.4803 22.9442C32.0134 24.1163 32.2789 25.3372 32.2789 26.6089C32.2789 28.3321 31.8027 29.9197 30.8524 31.3737C29.9 32.8277 28.6104 33.9998 26.9837 34.89C25.3549 35.7802 23.5091 36.2232 21.4463 36.2232L21.4484 36.219ZM21.3999 33.0418C22.7211 33.0418 23.9074 32.7662 24.9546 32.2151C26.0018 31.6641 26.832 30.901 27.4452 29.9281C28.0584 28.9531 28.3639 27.8467 28.3639 26.6026C28.3639 25.4453 28.09 24.3728 27.5421 23.3829C26.9943 22.3952 26.2125 21.5983 25.1969 20.99C24.1813 20.3838 22.9634 20.0786 21.5453 20.0786C20.0282 20.0786 18.7239 20.3753 17.6282 20.9688C16.5304 21.5622 15.6854 22.3592 15.0891 23.3617C14.4928 24.3643 14.1936 25.4728 14.1936 26.6873C14.1936 27.8171 14.4844 28.862 15.0638 29.8222C15.6433 30.7823 16.4735 31.5581 17.5544 32.1515C18.6354 32.745 19.9165 33.0418 21.3999 33.0418Z" fill="#231815"/>
<path d="M56.7108 13.1328C55.8069 10.8458 54.4626 9.03779 52.6715 7.71094C50.8826 6.3841 48.6491 5.72068 45.973 5.72068C43.297 5.72068 41.0635 6.3841 39.2745 7.71094C37.4856 9.03779 36.1307 10.8458 35.212 13.1328C34.2933 15.4198 33.834 18.0332 33.834 20.9688C33.834 23.9044 34.2933 26.4478 35.212 28.7624C36.1307 31.0791 37.4856 32.8997 39.2745 34.2266C41.0635 35.5534 43.297 36.2169 45.973 36.2169C48.6491 36.2169 50.8826 35.5534 52.6715 34.2266C54.4605 32.8997 55.8069 31.0791 56.7108 28.7624C57.6127 26.4478 58.0657 23.8492 58.0657 20.9688C58.0657 18.0883 57.6148 15.4198 56.7108 13.1328ZM49.593 32.177C48.8155 32.4716 47.7156 32.7577 46.2006 32.8277C44.5339 32.8446 43.3497 32.5776 42.5448 32.302C38.5708 30.9434 36.7629 26.965 38.0946 22.3804C39.2703 22.834 42.077 23.7772 45.9351 23.7772C49.7932 23.7772 52.5999 22.834 53.7756 22.3804C55.1031 26.7912 53.4954 30.6954 49.5909 32.177H49.593Z" fill="#231815"/>
<path d="M123.22 20.8416L123.123 20.2481C124.252 20.672 125.268 21.2507 126.169 21.984C127.071 22.7195 127.79 23.5589 128.323 24.5042C128.856 25.4495 129.122 26.4733 129.122 27.5754C129.122 29.0994 128.645 30.5047 127.695 31.7891C126.743 33.0736 125.453 34.0973 123.826 34.8603C122.198 35.6234 120.383 36.0049 118.384 36.0049C116.384 36.0049 114.578 35.6234 112.966 34.8603C111.354 34.0973 110.071 33.0757 109.121 31.7891C108.168 30.5047 107.694 29.0994 107.694 27.5754C107.694 26.3037 107.991 25.1888 108.59 24.2286C109.186 23.2685 109.945 22.4503 110.863 21.7721C111.782 21.0938 112.741 20.5576 113.742 20.1633L113.499 20.8416C112.661 20.5321 111.862 20.0722 111.106 19.466C110.347 18.8598 109.728 18.1243 109.243 17.2638C108.761 16.4032 108.518 15.4219 108.518 14.3197C108.518 12.7958 108.954 11.4117 109.825 10.1696C110.695 8.92757 111.887 7.94622 113.405 7.22557C114.92 6.50492 116.58 6.14459 118.386 6.14459C120.192 6.14459 121.884 6.50492 123.367 7.22557C124.85 7.94622 126.035 8.92757 126.922 10.1696C127.809 11.4117 128.251 12.7958 128.251 14.3197C128.251 15.477 127.992 16.488 127.478 17.3486C126.962 18.2112 126.325 18.9298 125.567 19.5084C124.808 20.087 124.027 20.5321 123.222 20.8416H123.22ZM118.384 32.8298C120.383 32.8298 122.018 32.3211 123.293 31.3058C124.566 30.2885 125.204 29.0337 125.204 27.5352C125.204 26.4902 124.897 25.5661 124.286 24.7607C123.673 23.9552 122.851 23.3215 121.818 22.8552C120.786 22.3889 119.642 22.1557 118.384 22.1557C117.126 22.1557 116.03 22.3889 114.998 22.8552C113.965 23.3215 113.143 23.9573 112.53 24.7607C111.917 25.5661 111.611 26.4902 111.611 27.5352C111.611 29.0316 112.248 30.2885 113.523 31.3058C114.795 32.3232 116.416 32.8298 118.384 32.8298ZM112.433 14.3621C112.433 15.3795 112.699 16.2676 113.232 17.0306C113.765 17.7937 114.49 18.3935 115.408 18.8301C116.327 19.2689 117.32 19.4872 118.384 19.4872C119.448 19.4872 120.472 19.2689 121.359 18.8301C122.246 18.3935 122.962 17.7916 123.512 17.0306C124.06 16.2676 124.334 15.3795 124.334 14.3621C124.334 12.8933 123.778 11.6872 122.665 10.7398C121.553 9.79447 120.126 9.32181 118.384 9.32181C116.641 9.32181 115.215 9.79447 114.102 10.7398C112.989 11.6872 112.433 12.8933 112.433 14.3621Z" fill="#231815"/>
<path d="M154.419 13.1328C153.515 10.8458 152.171 9.03779 150.38 7.71094C148.591 6.3841 146.358 5.72068 143.682 5.72068C141.005 5.72068 138.772 6.3841 136.983 7.71094C135.194 9.03779 133.839 10.8458 132.921 13.1328C132.002 15.4198 131.542 18.0332 131.542 20.9688C131.542 23.9044 132.002 26.4478 132.921 28.7624C133.839 31.0791 135.194 32.8997 136.983 34.2266C138.772 35.5534 141.005 36.2169 143.682 36.2169C146.358 36.2169 148.591 35.5534 150.38 34.2266C152.169 32.8997 153.515 31.0791 154.419 28.7624C155.321 26.4478 155.774 23.8492 155.774 20.9688C155.774 18.0883 155.323 15.4198 154.419 13.1328ZM147.302 32.177C146.524 32.4716 145.424 32.7577 143.909 32.8277C142.242 32.8446 141.058 32.5776 140.253 32.302C136.279 30.9434 134.471 26.965 135.803 22.3804C136.979 22.834 139.785 23.7772 143.644 23.7772C147.502 23.7772 150.308 22.834 151.484 22.3804C152.812 26.7912 151.204 30.6954 147.299 32.177H147.302Z" fill="#231815"/>
<path d="M52.1045 57.5459H42.2411V57.9656H39.7969V45.9456H42.2411V46.3208H51.5988C51.8769 46.3907 52.0455 46.6366 52.1045 47.0541V57.5459ZM49.6455 56.7214V47.1453H42.2411V56.7214H49.6455Z" fill="#231815"/>
<path d="M67.2272 47.7303C67.0881 48.0503 66.8289 48.8197 66.4518 50.0385C65.7965 52.1962 64.8124 53.9003 63.5018 55.1487C62.8065 55.8079 61.9426 56.412 60.9101 56.9631C59.7174 57.6117 58.725 57.9381 57.9306 57.9381C57.7031 57.9381 57.5872 57.8639 57.5872 57.7134C57.5872 57.6541 57.6862 57.5693 57.8843 57.459C61.5106 55.3204 63.6114 52.2492 64.1866 48.2411H59.4625C58.4005 49.8901 57.2268 51.0686 55.9457 51.7786C55.7371 51.8889 55.5622 51.944 55.4232 51.944C55.2651 51.944 55.1851 51.8889 55.1851 51.7786C55.1851 51.6981 55.2103 51.6239 55.2588 51.554C56.719 49.4959 57.7621 47.3382 58.3879 45.0787L60.9059 45.4836C60.6088 46.1724 60.2948 46.8125 59.9661 47.4018H66.8205C67.0881 47.4018 67.223 47.512 67.223 47.7324L67.2272 47.7303Z" fill="#231815"/>
<path d="M82.9439 50.4582H77.9669C77.6593 54.6739 76.1337 57.3064 73.3924 58.3556C73.2933 58.3959 73.1543 58.415 72.9752 58.415C72.8466 58.415 72.7813 58.3599 72.7813 58.2496C72.7813 58.1606 72.8213 58.0737 72.9014 57.9953C74.5808 56.147 75.4531 53.6332 75.5227 50.456H69.981V49.4514H75.5227V45.119H78.0406V48.9851C78.0406 49.1355 78.0364 49.2903 78.0259 49.4492H82.9418V50.4539L82.9439 50.4582Z" fill="#231815"/>
<path d="M98.2017 50.4582H93.2247C92.9171 54.6739 91.3915 57.3064 88.6502 58.3556C88.5511 58.3959 88.4121 58.415 88.233 58.415C88.1044 58.415 88.0391 58.3599 88.0391 58.2496C88.0391 58.1606 88.0792 58.0737 88.1592 57.9953C89.8386 56.147 90.7109 53.6332 90.7805 50.456H85.2388V49.4514H90.7805V45.119H93.2985V48.9851C93.2985 49.1355 93.2942 49.2903 93.2837 49.4492H98.1996V50.4539L98.2017 50.4582Z" fill="#231815"/>
<path d="M106.009 47.1156C105.324 50.4031 104.289 53.1966 102.909 55.4942C102.195 56.6939 101.603 57.4866 101.137 57.8766C100.899 58.0568 100.68 58.1458 100.482 58.1458C100.332 58.1458 100.258 58.0758 100.258 57.936C100.258 57.8554 100.303 57.7219 100.393 57.5311C101.864 54.1547 102.837 50.5175 103.314 46.6196L106.011 47.1135L106.009 47.1156ZM113.697 57.3213L111.359 57.9508C110.714 53.4955 109.576 49.7926 107.947 46.8443L108.737 46.4395C111.289 49.657 112.943 53.2835 113.7 57.3192L113.697 57.3213Z" fill="#231815"/>
<path d="M128.759 51.3865H123.514C122.969 55.064 121.055 57.3955 117.779 58.3853C117.589 58.4552 117.427 58.4892 117.288 58.4892C117.159 58.4892 117.094 58.4298 117.094 58.309C117.094 58.2687 117.174 58.1733 117.332 58.025C119.528 56.0771 120.794 53.8643 121.131 51.3865H115.708V50.562H121.22V46.8909C120.883 46.98 120.543 47.0711 120.206 47.1601C119.8 47.2492 119.446 47.2958 119.148 47.2958C118.443 47.2958 117.623 47.1517 116.689 46.8613L117.062 46.0368C117.846 46.3165 118.537 46.4564 119.134 46.4564C119.471 46.4564 119.884 46.3907 120.371 46.2614C120.767 46.1512 121.169 46.041 121.578 45.9308C123.028 45.5514 124.349 45.3606 125.541 45.3606C126.534 45.3606 127.33 45.4602 127.925 45.6616V46.5158C127.229 46.306 126.424 46.2021 125.51 46.2021C124.795 46.2021 124.174 46.2466 123.647 46.3377V49.8901C123.647 50.1402 123.637 50.3649 123.618 50.5641H128.757V51.3886L128.759 51.3865Z" fill="#231815"/>
</svg>
