<svg width="180" height="64" viewBox="0 0 180 64" fill="none" xmlns="http://www.w3.org/2000/svg">
<path d="M14.4867 39.5108C12.1136 39.5108 10.0238 39.1212 8.20854 38.342C6.39328 37.5627 4.88793 36.5001 3.68366 35.1542C2.47939 33.8082 1.55847 32.3029 0.938625 30.6293C0.309923 28.9557 0 27.229 0 25.4491C0 23.8907 0.230229 22.1462 0.681831 20.2159C1.14229 18.2943 1.84183 16.3197 2.7716 14.3008C3.71023 12.2818 4.92335 10.3514 6.4287 8.50076C7.92518 6.65007 9.71388 4.98534 11.7948 3.51542C13.8757 2.04549 16.2666 0.91206 18.9762 0.106259C19.3481 0.0354198 19.6846 0 19.9768 0C20.6409 0 21.2342 0.159389 21.7566 0.460458C22.2791 0.770381 22.5359 1.32824 22.5359 2.12519C22.5359 2.63878 22.3499 3.08152 21.9691 3.46229C21.5972 3.84305 21.0925 4.12641 20.4727 4.30351C18.8079 4.85251 17.1698 5.64061 15.567 6.67664C13.9643 7.71267 12.4855 8.92579 11.1307 10.3249C9.77587 11.724 8.61587 13.2293 7.63297 14.8498C6.65007 16.4702 5.97709 18.1438 5.60519 19.8882L4.1087 20.3221C4.81709 19.3392 5.71145 18.4183 6.79175 17.5417C7.87205 16.665 9.12946 15.9566 10.5728 15.4165C12.0073 14.8675 13.5746 14.6018 15.2837 14.6018C17.1166 14.6018 18.8256 14.9472 20.4018 15.6378C21.978 16.3285 23.3771 17.2583 24.5814 18.4183C25.7856 19.5872 26.7331 20.9154 27.4238 22.4207C28.1145 23.9261 28.451 25.5023 28.451 27.1404C28.451 29.3542 27.84 31.3997 26.6091 33.2681C25.3783 35.1365 23.7136 36.6507 21.6149 37.7929C19.5163 38.9352 17.1255 39.5108 14.469 39.5108H14.4867ZM14.4247 35.4198C16.1337 35.4198 17.6656 35.0656 19.0116 34.3572C20.3664 33.6488 21.4378 32.6659 22.2259 31.4174C23.014 30.16 23.4125 28.7432 23.4125 27.1404C23.4125 25.6528 23.0583 24.2714 22.3499 22.9963C21.6415 21.7212 20.632 20.7029 19.3215 19.9148C18.011 19.1356 16.4348 18.7459 14.6107 18.7459C12.6537 18.7459 10.9713 19.1267 9.55449 19.8882C8.1377 20.6498 7.04854 21.6769 6.27816 22.9698C5.50778 24.2626 5.11816 25.6882 5.11816 27.2467C5.11816 28.6989 5.49007 30.0449 6.24274 31.2846C6.98656 32.5242 8.06686 33.516 9.45709 34.2775C10.8562 35.0391 12.5032 35.4198 14.4247 35.4198Z" fill="#3F3F3F"/>
<path d="M47.1526 11.9453C38.1028 10.803 30.4876 18.4183 31.6299 27.4681C32.4091 33.64 37.3856 38.6165 43.5575 39.3957C52.6072 40.538 60.2225 32.9227 59.0802 23.873C58.301 17.7011 53.3245 12.7246 47.1526 11.9453ZM46.7276 35.2693C43.6195 35.7032 40.7416 34.6406 38.705 32.7102C38.2002 32.232 38.3773 31.3642 39.0503 31.1783C39.7233 30.9923 40.476 30.709 41.2375 30.2839C43.1679 29.2213 44.5758 27.6806 45.3905 26.618C45.7712 26.1221 45.4259 25.4137 44.806 25.4137H36.8631C36.199 25.4137 35.6766 24.8204 35.7828 24.1652C36.5001 19.5252 40.5202 15.9566 45.355 15.9566C51.0753 15.9566 55.6533 20.9331 54.9892 26.7862C54.4933 31.1075 51.0488 34.6494 46.7364 35.2516L46.7276 35.2693Z" fill="#3F3F3F"/>
<path d="M141.431 21.7743L141.307 21.0128C142.769 21.5618 144.079 22.3056 145.239 23.2443C146.399 24.1917 147.329 25.272 148.019 26.4852C148.71 27.6983 149.047 29.0177 149.047 30.4345C149.047 32.3914 148.436 34.2067 147.205 35.8537C145.974 37.5096 144.309 38.8201 142.211 39.803C140.103 40.7859 137.765 41.2729 135.18 41.2729C132.594 41.2729 130.265 40.7859 128.184 39.803C126.103 38.8201 124.448 37.5096 123.217 35.8537C121.986 34.1978 121.375 32.3914 121.375 30.4345C121.375 28.7963 121.756 27.3618 122.535 26.131C123.305 24.8913 124.288 23.8464 125.466 22.9698C126.652 22.0931 127.892 21.4113 129.185 20.8977L128.875 21.7743C127.795 21.3759 126.759 20.7826 125.785 20.0033C124.802 19.2241 124.005 18.2766 123.376 17.1698C122.756 16.0629 122.438 14.7966 122.438 13.3798C122.438 11.4229 123.004 9.63419 124.12 8.0403C125.245 6.44641 126.785 5.18015 128.742 4.25038C130.699 3.32061 132.842 2.86015 135.171 2.86015C137.5 2.86015 139.687 3.32061 141.6 4.25038C143.512 5.18015 145.044 6.43756 146.187 8.0403C147.329 9.63419 147.904 11.4229 147.904 13.3798C147.904 14.8675 147.568 16.1692 146.904 17.276C146.24 18.3829 145.416 19.3127 144.433 20.0565C143.45 20.8003 142.45 21.3759 141.405 21.7743H141.431ZM135.189 37.1997C137.774 37.1997 139.882 36.5444 141.529 35.2427C143.167 33.9322 143.999 32.3206 143.999 30.3902C143.999 29.0443 143.601 27.8577 142.813 26.8217C142.025 25.7856 140.962 24.971 139.625 24.3688C138.297 23.7667 136.818 23.4656 135.189 23.4656C133.559 23.4656 132.151 23.7667 130.814 24.3688C129.477 24.971 128.423 25.7856 127.627 26.8217C126.838 27.8577 126.44 29.0443 126.44 30.3902C126.44 32.3117 127.263 33.9322 128.911 35.2427C130.558 36.5533 132.647 37.1997 135.189 37.1997ZM127.511 13.433C127.511 14.7435 127.857 15.8858 128.539 16.8687C129.229 17.8516 130.159 18.622 131.346 19.1798C132.532 19.7466 133.816 20.0211 135.189 20.0211C136.561 20.0211 137.881 19.7377 139.032 19.1798C140.174 18.622 141.104 17.8427 141.812 16.8687C142.521 15.8858 142.875 14.7435 142.875 13.433C142.875 11.5469 142.158 9.98839 140.723 8.77526C139.289 7.56213 137.447 6.95114 135.198 6.95114C132.948 6.95114 131.107 7.56213 129.672 8.77526C128.238 9.99725 127.52 11.5469 127.52 13.433H127.511Z" fill="#3F3F3F"/>
<path d="M152.137 23.873C150.995 32.9227 158.61 40.538 167.66 39.3957C173.832 38.6165 178.808 33.64 179.587 27.4681C180.73 18.4183 173.114 10.803 164.065 11.9453C157.893 12.7246 152.916 17.7011 152.137 23.873ZM156.228 26.8039C155.564 20.9508 160.142 15.9743 165.862 15.9743C170.706 15.9743 174.717 19.5429 175.434 24.1829C175.532 24.8381 175.009 25.4314 174.354 25.4314H166.411C165.791 25.4314 165.446 26.1398 165.827 26.6357C166.641 27.6983 168.049 29.2302 169.98 30.3017C170.741 30.7267 171.485 31.0101 172.167 31.196C172.849 31.382 173.017 32.2409 172.512 32.7279C170.476 34.6583 167.598 35.7209 164.49 35.287C160.177 34.6849 156.733 31.1429 156.237 26.8217L156.228 26.8039Z" fill="#3F3F3F"/>
<path d="M69.2104 39.5108C68.5462 39.5108 67.9529 39.316 67.4305 38.9352C66.9081 38.5545 66.6513 38.0586 66.6513 37.4387C66.6513 37.1111 66.7398 36.7835 66.8992 36.4558L83.0152 4.56916L83.759 5.55206H63.6494C62.9853 5.55206 62.4186 5.35725 61.967 4.97648C61.5065 4.59572 61.2763 4.09984 61.2763 3.48C61.2763 2.89557 61.5065 2.4174 61.967 2.03664C62.4275 1.65588 62.9853 1.46107 63.6494 1.46107H86.1941C86.938 1.46107 87.5578 1.65588 88.036 2.0632C88.5141 2.46168 88.7532 2.97526 88.7532 3.58626C88.7532 3.91389 88.6647 4.24152 88.5053 4.56916L71.5835 38.1383C71.371 38.5722 71.0522 38.9087 70.6183 39.1478C70.1844 39.378 69.7151 39.5019 69.2104 39.5019V39.5108Z" fill="#3F3F3F"/>
<path d="M100.158 15.9743C105.507 15.9743 109.855 20.3221 109.855 25.6705C109.855 31.0189 105.507 35.3667 100.158 35.3667C94.81 35.3667 90.4622 31.0189 90.4622 25.6705C90.4622 20.3221 94.81 15.9743 100.158 15.9743ZM100.158 11.8302C92.5166 11.8302 86.3181 18.0287 86.3181 25.6705C86.3181 33.3123 92.5166 39.5108 100.158 39.5108C107.8 39.5108 113.999 33.3123 113.999 25.6705C113.999 18.0287 107.8 11.8302 100.158 11.8302Z" fill="#3F3F3F"/>
<path d="M104.391 25.396C105.843 25.396 106.871 26.9368 106.26 28.2916C105.197 30.6559 102.868 32.3029 100.158 32.3029C97.4489 32.3029 95.1289 30.6647 94.0574 28.2916C93.4464 26.9368 94.4736 25.396 95.9258 25.396H104.382H104.391Z" fill="#3F3F3F"/>
<path d="M48.3474 52.0848V62.2415C48.3474 62.7728 47.9135 63.2067 47.3822 63.2067H38.058C37.5267 63.2067 37.0928 62.7728 37.0928 62.2415V52.0848C37.0928 51.5536 37.5267 51.1197 38.058 51.1197H47.3822C47.9135 51.1197 48.3474 51.5536 48.3474 52.0848ZM40.0946 61.1523H45.3279C45.8592 61.1523 46.2931 60.7184 46.2931 60.1871V54.1392C46.2931 53.6079 45.8592 53.174 45.3279 53.174H40.0946C39.5633 53.174 39.1294 53.6079 39.1294 54.1392V60.1871C39.1294 60.7184 39.5633 61.1523 40.0946 61.1523Z" fill="#3F3F3F"/>
<path d="M59.6553 50.792H66.2257C66.8101 50.792 67.2529 51.3056 67.1909 51.8812C66.8633 54.6616 66.0752 57.4598 64.3573 59.7001C62.7192 61.8696 60.3903 63.2598 57.8047 63.9682C57.3442 64.0922 56.8572 63.8442 56.6712 63.3926L56.5827 63.1801C56.3613 62.6488 56.6535 62.0378 57.2114 61.8873C61.2669 60.7538 63.764 58.0708 64.7115 54.0064C64.8532 53.3954 64.3927 52.8021 63.764 52.8021H60.9127C60.5763 52.8021 60.2663 52.9792 60.0892 53.2626C59.3543 54.4403 58.4865 55.5471 57.4416 56.4503C57.0166 56.8134 56.379 56.7691 56.0337 56.3264L55.9451 56.2113C55.6263 55.8039 55.6795 55.2195 56.0691 54.883C57.2468 53.8824 58.0969 52.7313 58.7787 51.3322C58.9469 50.9868 59.2746 50.7655 59.6553 50.7655V50.792Z" fill="#3F3F3F"/>
<path d="M86.5124 54.3429V54.5288C86.5124 55.0601 86.0785 55.494 85.5472 55.494H82.4923C81.9787 55.494 81.5625 55.8925 81.5271 56.3972C81.4297 57.9822 81.1286 59.4876 80.1988 60.8601C79.3133 62.1706 77.9851 63.1093 76.5506 63.7557C76.1078 63.9593 75.5765 63.7911 75.3197 63.3749L75.1781 63.1447C74.8681 62.6399 75.0895 61.9935 75.6297 61.7456C76.6745 61.2763 77.6663 60.621 78.3658 59.7267C79.1451 58.7615 79.331 57.6635 79.4107 56.5212C79.4461 55.9633 79.0034 55.4851 78.4455 55.4851H75.1072C74.5759 55.4851 74.142 55.0513 74.142 54.52V54.334C74.142 53.8027 74.5759 53.3688 75.1072 53.3688H78.4898C79.0211 53.3688 79.455 52.9349 79.455 52.4036V51.0931C79.455 50.5618 79.8889 50.1279 80.4202 50.1279H80.6061C81.1374 50.1279 81.5713 50.5618 81.5713 51.0931V52.4036C81.5713 52.9349 82.0052 53.3688 82.5365 53.3688H85.5295C86.0608 53.3688 86.4947 53.8027 86.4947 54.334L86.5124 54.3429Z" fill="#3F3F3F"/>
<path d="M105.639 54.3429V54.5288C105.639 55.0601 105.205 55.494 104.674 55.494H101.619C101.105 55.494 100.689 55.8925 100.654 56.3972C100.556 57.9822 100.255 59.4876 99.3253 60.8601C98.4398 62.1706 97.1116 63.1093 95.6771 63.7557C95.2344 63.9593 94.7031 63.7911 94.4463 63.3749L94.3046 63.1447C93.9947 62.6399 94.216 61.9935 94.7562 61.7456C95.8011 61.2763 96.7928 60.621 97.4924 59.7267C98.2716 58.7615 98.4576 57.6635 98.5372 56.5212C98.5727 55.9633 98.1299 55.4851 97.5721 55.4851H94.2337C93.7024 55.4851 93.2686 55.0513 93.2686 54.52V54.334C93.2686 53.8027 93.7024 53.3688 94.2337 53.3688H97.6163C98.1476 53.3688 98.5815 52.9349 98.5815 52.4036V51.0931C98.5815 50.5618 99.0154 50.1279 99.5467 50.1279H99.7327C100.264 50.1279 100.698 50.5618 100.698 51.0931V52.4036C100.698 52.9349 101.132 53.3688 101.663 53.3688H104.656C105.187 53.3688 105.621 53.8027 105.621 54.334L105.639 54.3429Z" fill="#3F3F3F"/>
<path d="M111.846 63.2244L111.572 63.065C111.12 62.7993 110.979 62.2238 111.226 61.7633C112.882 58.6641 113.75 55.1841 114.166 51.6952C114.228 51.1462 114.733 50.7566 115.273 50.8451L115.415 50.8629C115.928 50.9425 116.291 51.4119 116.229 51.9254C115.787 55.6445 114.901 59.4964 113.201 62.8436C112.953 63.3306 112.324 63.4989 111.855 63.2155L111.846 63.2244ZM123.066 63.0473L122.782 63.127C122.224 63.2864 121.658 62.9233 121.56 62.3566C120.931 58.7969 120.117 55.6622 118.718 52.3062C118.523 51.8369 118.718 51.2879 119.178 51.0577L119.267 51.0134C119.763 50.7655 120.365 50.978 120.586 51.4827C122.056 54.8299 123.128 58.3364 123.747 61.9493C123.836 62.4363 123.526 62.9056 123.057 63.0473H123.066Z" fill="#3F3F3F"/>
<path d="M139.004 55.2461H141.643C142.175 55.2461 142.608 55.68 142.608 56.2112V56.2821C142.608 56.8134 142.175 57.2473 141.643 57.2473H138.898C138.411 57.2473 138.004 57.6103 137.942 58.0974C137.765 59.4433 137.366 60.5679 136.348 61.657C135.303 62.7816 133.869 63.4192 132.416 63.8619C131.947 64.0036 131.451 63.7734 131.248 63.3306L131.186 63.189C130.946 62.6577 131.23 62.0201 131.797 61.8607C132.841 61.5774 133.922 61.108 134.666 60.4528C135.303 59.8772 135.622 59.1777 135.79 58.4073C135.923 57.814 135.445 57.2561 134.843 57.2561H131.256C130.725 57.2561 130.291 56.8222 130.291 56.2909V56.2201C130.291 55.6888 130.725 55.2549 131.256 55.2549H135.02C135.551 55.2549 135.985 54.821 135.985 54.2897V54.272C135.985 53.6964 135.489 53.2625 134.922 53.3157C133.948 53.4131 132.974 53.4662 132.009 53.4928C131.54 53.5016 131.124 53.174 131.035 52.7135C130.92 52.1291 131.354 51.5713 131.947 51.5535C134.506 51.4827 137.464 51.1374 139.863 50.3847C140.306 50.243 140.784 50.4555 140.997 50.8717L141.077 51.0311C141.36 51.589 141.05 52.2619 140.448 52.4125C139.908 52.5453 139.403 52.6604 138.836 52.7667C138.385 52.8552 138.057 53.2537 138.057 53.7142V54.2809C138.057 54.8122 138.491 55.2461 139.022 55.2461H139.004Z" fill="#3F3F3F"/>
</svg>
