<svg width="728" height="4" viewBox="0 0 728 4" fill="none" xmlns="http://www.w3.org/2000/svg">
<path d="M667.548 3.20998C669.193 3.34526 663.702 3.25658 667.348 3.45862C666.588 3.47227 665.823 3.48635 665.063 3.5C664.87 3.42517 664.672 3.35053 664.479 3.27571C665.5 3.25367 666.522 3.23164 667.548 3.20961C667.548 3.20973 667.548 3.20985 667.548 3.20998ZM668.942 2.27289C668.007 2.48631 665.034 2.54321 668.245 2.74015C668.501 2.66691 668.762 2.59368 669.017 2.52043C670.132 2.57724 671.254 2.63403 672.369 2.69053C672.77 2.66261 673.171 2.63465 673.572 2.60704C674.082 2.73432 674.589 2.86194 675.099 2.98953C674.646 2.9709 674.186 2.95195 673.733 2.93332C671.94 3.03667 670.345 3.06494 667.912 3.08419C668.126 3.1143 668.34 3.14416 668.554 3.17427C667.319 3.12305 666.084 3.07169 664.854 3.02047C665.922 2.97019 667.117 2.91427 668.106 2.8674C666.523 2.66784 663.729 2.77891 662.274 2.82053C660.294 2.87734 660.742 2.78245 659.272 2.82218C659.038 2.82839 659.011 2.90276 658.548 2.90402C656.208 2.90992 651.663 2.8705 654.321 2.69694C658.172 2.71929 661.457 2.57992 665.235 2.63084C664.235 2.43016 666.226 2.36187 668.942 2.27289ZM598.193 2.91189C599.36 2.81443 601.737 2.85376 603.347 2.92142C603.349 2.92142 603.351 2.92142 603.353 2.92142C603.707 2.93632 604.51 3.06585 603.353 3.06057C601.467 3.05152 600.555 2.84763 599.565 2.98605C599.122 2.96028 598.657 2.93735 598.193 2.91189ZM594.094 2.92398C592.937 2.87399 593.462 2.72036 594.911 2.76194C594.911 2.76182 594.911 2.76169 594.911 2.76157C595.515 2.77896 594.328 2.9004 596.496 2.77714C596.939 2.87303 597.375 2.96027 597.813 3.05306C597.282 3.05461 596.798 3.05713 596.241 3.05837C596.616 2.90075 595.251 2.97357 594.094 2.92398ZM652.366 2.78373C652.184 2.92553 652.946 2.92463 654.243 3.02303C653.019 3.01838 651.794 3.01341 650.575 3.00875C651.174 2.93365 651.767 2.85883 652.366 2.78373ZM681.134 2.8057C681.136 2.8057 681.138 2.8057 681.139 2.8057C681.541 2.78335 681.943 2.76091 682.339 2.73887C682.579 2.78948 682.816 2.83986 683.055 2.89047C684.473 2.84297 685.898 2.79547 687.316 2.74766C687.143 2.90225 684.599 2.87709 683.197 2.98513C681.113 2.93856 680.108 2.84883 679.973 2.71781C680.358 2.74699 680.743 2.77653 681.134 2.8057ZM340.234 2.1894C339.76 2.23223 339.292 2.2751 338.818 2.31793C339.448 2.33748 340.074 2.3524 340.709 2.37506C342.371 2.18879 342.527 2.35356 344.705 2.3421C351.381 2.30671 349.61 2.01741 355.639 2.44115C350.798 2.421 352.658 2.62011 349.74 2.77347C349.136 2.65673 352.027 2.39345 350.068 2.3388C346.691 2.46235 343.445 2.57742 339.698 2.65721C339.808 2.67739 339.916 2.69763 340.026 2.71781C340.62 2.70508 341.209 2.69227 341.803 2.67955C341.162 2.73357 340.536 2.78712 339.884 2.84177C340.708 2.71914 338.609 2.78766 338.89 2.64677C339.015 2.58405 339.943 2.49705 340.49 2.43713C339.078 2.40453 337.63 2.37468 336.202 2.34301C336.942 2.29305 337.681 2.24302 338.415 2.19306C339.019 2.19151 339.619 2.1904 340.223 2.18885C340.227 2.18903 340.23 2.18921 340.234 2.1894ZM36.32 2.8414C38.1128 2.69548 41.3705 2.67133 43.085 2.83371C40.8285 2.8362 38.5765 2.83892 36.32 2.8414ZM679.837 2.60979C680.04 2.63459 680.237 2.65913 680.439 2.68394C679.543 2.72988 678.642 2.7755 677.746 2.82144C677.574 2.74976 677.398 2.67805 677.221 2.60667C678.091 2.6076 678.967 2.60885 679.837 2.60979ZM622.501 2.68962C623.157 2.68528 623.215 2.68763 624.031 2.69785C624.03 2.69779 624.029 2.69773 624.028 2.69767C624.352 2.70149 627.06 2.74336 626.758 2.79856C625.414 2.79949 623.979 2.79856 622.604 2.79856C622.562 2.76225 622.553 2.72623 622.501 2.68962ZM638.328 2.72184C638.329 2.72196 638.331 2.72208 638.333 2.72221C638.823 2.73059 639.286 2.74766 639.791 2.75077C637.973 2.83764 637.686 2.68179 636.034 2.72587C634.382 2.77026 633.361 2.85626 631.96 2.64274C632.481 2.61076 633.042 2.56501 633.579 2.52776C635.924 2.61313 636.555 2.53279 638.436 2.44866C638.399 2.53993 638.364 2.63057 638.328 2.72184ZM369.955 2.62132C370.403 2.51577 370.902 2.61934 370.954 2.62059C370.954 2.62071 370.953 2.62083 370.952 2.62095C374.921 2.5232 370.435 2.67938 374.181 2.69584C373.624 2.72222 373.076 2.75008 372.523 2.77677C371.669 2.72587 370.788 2.66819 369.955 2.62132ZM498.931 2.63121C498.968 2.66194 499.011 2.69275 499.048 2.72349C496.797 2.71635 496.223 2.83735 494.352 2.72715C495.879 2.69487 497.405 2.66281 498.931 2.63084C498.931 2.63096 498.931 2.63109 498.931 2.63121ZM611.154 2.46605C613.65 2.40737 615.496 2.38152 617.894 2.47466C617.896 2.47478 617.897 2.4749 617.899 2.47503C618.037 2.48076 617.369 2.54507 617.549 2.56126C618.044 2.55165 618.555 2.53686 619.055 2.52538C619.122 2.57687 619.187 2.62836 619.255 2.67955C617.848 2.66495 616.44 2.65038 615.028 2.63579C615.236 2.6659 615.45 2.69575 615.658 2.72587C614.46 2.74139 613.266 2.75685 612.067 2.77237C612.484 2.68796 612.9 2.60352 613.312 2.51879C612.593 2.5011 611.873 2.48405 611.154 2.46605ZM461.452 2.29486C461.848 2.32839 461.114 2.38463 461.729 2.41351C462.344 2.44201 463.478 2.37944 463.212 2.47411C462.384 2.48683 461.515 2.50142 460.671 2.51476C463.386 2.68547 466.095 2.531 466.137 2.7418C463.531 2.68716 461.388 2.71254 458.866 2.77091C458.97 2.60358 461.493 2.4589 459.905 2.30182C460.415 2.29964 460.951 2.29647 461.446 2.29523C461.448 2.2951 461.45 2.29498 461.452 2.29486ZM716.306 0.511501C717.848 0.52423 721.383 0.45594 723.332 0.55343C723.811 0.577455 725.409 0.88867 725.401 0.929693C725.354 1.06785 723.403 1.08666 725.492 1.17669C724.789 1.17762 724.107 1.18281 723.409 1.1853C723.534 1.27813 723.659 1.37071 723.779 1.46324C724.628 1.44926 725.479 1.43522 726.328 1.42094C726.37 1.45168 726.411 1.48248 726.453 1.51322C723.399 1.51384 725.202 1.63248 723.618 1.74301C725.077 1.79888 726.546 1.85448 728 1.91036C727.161 1.90353 726.171 1.89847 725.431 1.8904C725.332 2.0478 727.098 2.01027 727.4 2.03944C729.104 2.20429 720.429 2.12109 719.719 2.35015C721.105 2.37561 722.559 2.40045 723.976 2.42559C723.569 2.45384 723.158 2.48211 722.751 2.51036C719.536 2.35237 715.931 2.2964 712.184 2.198C711.846 2.20452 711.507 2.2112 711.174 2.21741C711.273 2.28848 711.366 2.35928 711.465 2.43035C710.954 2.43873 710.438 2.44705 709.927 2.45544C711.433 2.22136 709.347 2.22455 706.83 2.08174C708.169 1.99947 709.821 2.04935 709.707 1.89608C705.111 2.014 699.729 1.84735 695.258 1.98048C694.148 2.01339 694.152 2.21111 691.542 2.19287C691.631 2.17114 691.646 2.1319 691.703 2.10334C687.19 2.19804 684.452 2.25465 679.762 2.15809C680.033 2.22915 680.299 2.30051 680.57 2.37158C681.565 2.33618 682.562 2.30023 683.553 2.26483C684.23 2.38218 683.229 2.43397 686.199 2.43273C688.633 2.4318 687.184 2.37998 687.846 2.34521C688.742 2.29774 689.529 2.39113 690.493 2.33807C691.238 2.2974 690.432 2.20057 692.375 2.2251C691.594 2.35053 690.796 2.48005 690.009 2.60704C689.535 2.57879 689.065 2.5501 688.59 2.52153C689.07 2.488 689.541 2.45491 690.02 2.42138C688.332 2.48161 686.737 2.53841 684.991 2.60081C685.559 2.41949 683.755 2.48748 682.775 2.5089C681.249 2.54239 682.556 2.41761 681.556 2.43841C680.555 2.45953 679.476 2.59894 677.668 2.56914C678.637 2.48843 677.319 2.41605 677.573 2.34155C677.829 2.26705 679.741 2.25055 677.904 2.16926C674.371 2.23104 678.205 2.51475 675.818 2.56072C672.952 2.61598 672.27 2.1535 673.125 2.05409C673.797 1.97585 676.11 1.99158 676.788 1.91365C672.645 1.77301 672.609 2.05066 671.9 2.10499C669.326 2.30275 671.055 1.77492 668.006 1.96584C668.064 1.86713 668.11 1.77835 668.167 1.68368C667.642 1.70169 667.292 1.72562 666.657 1.73989C668.531 1.93222 666.997 1.92397 666.21 1.92427C664.969 1.92489 666.885 2.0187 666.557 2.04292C665.671 2.10772 664.27 2.0783 665.129 2.16303C664.744 2.1236 664.326 2.08405 663.93 2.04493C662.481 2.09406 659.075 2.50604 662.316 2.42284C662.014 2.57591 660.966 2.50234 660.147 2.47905C659.329 2.45579 659.344 2.55327 658.625 2.53527C655.765 2.46323 657.636 2.29648 658.089 2.16578C654.311 2.25581 658.01 2.31538 652.566 2.37561C652.039 2.4821 654.555 2.59573 652.46 2.65721C652.074 2.4722 650.532 2.3393 647.525 2.27783C647.234 2.32037 646.942 2.36328 646.651 2.40582C645.009 2.23505 645.848 2.05748 642.81 2.26923C644.441 1.87959 643.32 2.12886 640.599 1.97023C640.047 1.93825 641.323 1.85741 640.552 1.81643C640.202 1.79795 639.354 1.85897 638.5 1.81185C638.083 1.78857 636.134 1.63833 634.784 1.70968C635.774 1.89845 633.21 2.05904 635.409 2.21521C631.344 2.17671 628.499 2.26735 633.054 2.00996C632.022 1.95283 630.989 1.89595 629.957 1.83913C629.238 1.88415 628.513 1.92882 627.789 1.97353C627.679 1.81838 627.789 1.77486 624.956 1.80215C626.185 1.76553 627.409 1.7283 628.644 1.69137C628.686 1.66004 628.857 1.62748 628.816 1.59708C627.304 1.65667 623.047 1.68231 622.015 1.7236C620.983 1.76489 622.976 1.77619 622.679 1.81625C620.204 2.14652 620.4 1.90293 618.624 1.95961C617.582 1.99314 620.07 2.02955 619.513 2.04383C617.445 2.09618 616.486 1.92065 614.653 1.91841C615.304 2.01805 615.95 2.11923 616.586 2.21979C614.663 2.21451 612.519 2.21363 610.732 2.24561C610.03 2.25809 610.56 2.33219 610.446 2.33715C609.877 2.36261 607.563 2.40294 607.319 2.40325C605.475 2.40384 605.422 2.30121 603.631 2.29559C604.334 2.2869 604.995 2.27907 605.683 2.27069C605.996 2.1043 606.314 1.93791 606.627 1.7712C604.871 1.7591 603.114 1.74724 601.353 1.73513C602.64 1.7907 603.932 1.846 605.219 1.90157C603.208 2.036 601.196 2.17074 599.184 2.30548C598.137 2.2229 597.094 2.14033 596.046 2.05775C593.202 2.07953 593.775 2.41476 592.425 2.1211C591.586 2.14593 590.748 2.17074 589.909 2.19526C590.029 2.15335 590.147 2.11137 590.267 2.06947C589.256 2.09524 588.246 2.12084 587.235 2.14692C588.297 2.29531 589.34 2.45146 590.392 2.5955C588.403 2.62775 588.364 2.50186 588.068 2.47045C587.281 2.38724 585.719 2.49948 585.093 2.42248C584.882 2.39604 586.832 2.31317 586.16 2.21759C586.029 2.19907 583.418 1.84773 581.753 1.92885C581.784 1.9925 581.913 2.07054 581.98 2.13978C579.74 2.17844 578.598 1.8462 578.895 1.75308C577.702 1.81827 575.957 1.82372 575.712 1.92555C575.103 1.92804 574.498 1.93039 573.888 1.93288C574.523 1.68486 571.98 1.73021 571.813 1.9435C572.861 1.94878 573.91 1.95433 574.957 1.95961C574.165 2.22103 577.348 2.37882 570.725 2.13666C569.458 2.00067 572.976 2.15519 571.944 2.05336C570.151 1.99408 568.469 2.04368 566.765 1.94899C564.644 1.83071 567.253 1.71694 562.313 1.86751C573.21 2.24473 560.819 2.12234 555.701 2.23938C554.294 1.86681 549.972 1.7488 544.02 1.85964C544.64 1.96333 546.513 1.90991 547.592 1.94405C548.67 1.97819 547.503 2.03971 548.847 2.08814C550.191 2.13656 553.046 2.20239 554.407 2.27563C553.254 2.33432 547.565 2.47307 551.327 2.30639C548.519 2.20365 547.2 2.09807 543.72 2.07881C542.678 2.24056 542.755 2.34128 539.363 2.34594C541.369 2.12118 537.515 1.96496 538.363 1.73275C540.769 1.78684 539.424 2.01253 540.815 2.12055C540.958 2.13135 543.199 2.07477 543.72 2.07881C541.458 1.87607 540.677 1.8006 542.068 1.55936C540.468 1.58047 539.473 1.55019 539.327 1.66537C538.993 1.6154 538.658 1.56539 538.33 1.51542C537.809 1.51666 537.341 1.52129 536.789 1.52036C537.549 1.69412 536.075 1.58715 535.028 1.66592C533.98 1.74478 535.386 1.88195 532.509 1.88381C533.468 1.92448 534.345 1.95938 535.272 1.99788C533.417 2.04258 531.557 2.08757 529.702 2.13227C531.004 2.23844 533.828 2.39613 533.751 2.53581C532.896 2.48308 529.969 2.57576 529.649 2.57957C528.408 2.59386 529.084 2.50576 528.991 2.50359C527.042 2.46078 525.437 2.49077 524.697 2.3573C523.233 2.41752 522.129 2.38318 520.576 2.38659C519.721 2.38845 519.888 2.48649 519.387 2.46789C516.063 2.3437 519.23 2.21701 512.817 2.45818C513.593 2.52648 514.359 2.59635 515.136 2.66526C514.411 2.69103 513.691 2.71694 512.967 2.74271C512.482 2.73029 512.002 2.71778 511.517 2.70536C511.528 2.55728 511.54 2.40889 511.55 2.2608C511.019 2.25273 510.485 2.24489 509.954 2.23682C510.866 2.22223 511.78 2.20765 512.692 2.19306C512.775 2.167 512.853 2.14093 512.936 2.11488C511.581 2.07451 510.231 2.03379 508.876 1.99312C508.85 2.04463 508.824 2.0965 508.798 2.14802C505.745 2.0763 505.672 2.03269 502.769 2.17457C500.534 2.17301 498.713 2.3884 497.421 2.47905C496.957 2.45019 496.493 2.42095 496.024 2.39208C495.727 2.43493 495.426 2.47759 495.129 2.52043C494.541 2.46083 493.944 2.40121 493.355 2.34192C493.027 2.47721 492.857 2.51945 495.154 2.56694C494.367 2.73521 490.322 2.66098 488.676 2.60448C487.426 2.5616 488.812 2.42124 488.656 2.40417C488.134 2.34617 486.075 2.39621 485.643 2.38659C483.814 2.34654 482.532 2.35355 480.88 2.32251C480.559 2.31629 479.66 2.22734 479.583 2.22455C478.989 2.20934 477.523 2.1661 477.356 2.16486C468.754 2.09846 477.945 2.48438 469.947 2.44372C470.186 2.49461 470.407 2.54516 470.641 2.59605C470.037 2.59916 469.426 2.60211 468.822 2.60521C468.056 2.56267 468.983 2.48532 467.461 2.54772C467.56 2.485 467.66 2.42226 467.764 2.35986C467.102 2.3937 466.464 2.42727 465.787 2.46111C464.724 2.24348 460.842 2.19405 461.118 1.93855C461.212 1.85162 463.964 1.76242 462.51 1.66959C461.328 1.65131 462.128 1.75514 461.646 1.76058C458.165 1.79846 458.367 1.65293 456.944 1.69174C456.72 1.75411 456.485 1.8177 456.256 1.8807C455.719 1.86239 455.181 1.84408 454.639 1.82577C454.514 1.86768 454.384 1.90964 454.259 1.95155C454.764 1.95435 455.334 1.95718 455.798 1.95998C455.151 2.12232 449.211 2.19524 451.476 2.05683C452.399 2.00065 454.088 2.02452 453.02 1.83272C451.431 1.86036 449.628 1.88859 447.955 1.91622C447.903 1.87492 447.854 1.83355 447.802 1.79226C445.548 1.81899 447.598 1.98409 447.594 2.07258C447.078 2.07506 446.557 2.07724 446.042 2.07972C445.823 2.03971 445.615 1.99783 445.386 1.95906C445.365 2.02273 445.076 2.17073 443.539 2.11579C442.551 2.08003 444.107 1.91939 442.223 1.94167C442.364 2.041 443.045 2.16198 440.946 2.19397C440.737 2.0903 440.449 1.99532 440.287 1.88637C437.677 1.98597 436.489 1.82587 433.425 1.94167C431.481 2.01494 428.819 2.27505 427.563 1.87429C426.141 1.86374 426.592 1.96354 426.171 1.98598C424.186 2.09216 422.709 1.90213 422.339 1.89095C419.979 1.8193 418.921 1.88508 416.999 1.79537C417.103 1.86958 417.16 1.93982 417.243 2.01216C419.005 1.90101 419.897 1.90622 422.367 1.93013C421.538 1.94503 420.71 1.96027 419.881 1.97517C420.017 2.03539 420.151 2.09562 420.281 2.15552C427.921 1.91832 426.139 2.29309 419.734 2.37506C419.182 2.26362 418.609 2.15247 418.062 2.04072C414.362 2.20961 412.621 2.063 408.437 2.02791C407.939 2.02389 406.128 2.08809 405.349 2.09126C405.362 2.09168 405.375 2.09211 405.388 2.09254C404.903 2.19777 405.559 2.24621 405.638 2.34027C405.216 2.35206 404.793 2.36381 404.371 2.37561C403.429 2.30391 403.76 2.24501 401.905 2.26209C402.155 2.33349 402.402 2.40491 402.652 2.47631C400.62 2.47879 399.29 2.40121 397.398 2.43475C397.716 2.40773 398.03 2.38065 398.348 2.35363C394.231 2.28471 397.507 1.86491 394.396 2.07386C394.198 2.03724 394.005 2.00026 393.807 1.96364C395.089 1.95464 396.371 1.94591 397.648 1.93691C397.674 1.88508 397.702 1.83347 397.723 1.78164C396.352 1.79716 394.975 1.81317 393.604 1.8287C394.605 1.79392 395.611 1.7591 396.612 1.72433C395.023 1.6995 393.433 1.67465 391.844 1.64981C393.532 1.8404 391.344 1.86371 391.755 2.05244C388.941 1.89534 386.73 1.68825 382.368 1.82082C381.504 1.84723 381.973 1.97912 379.519 1.81863C380.113 2.02848 377.038 2.12695 377.433 2.32654C378.288 2.31691 379.174 2.31086 380.002 2.29907C379.059 2.22984 378.903 2.03938 380.335 1.98286C382.165 1.91084 384.832 2.04283 384.723 1.83144C385.453 1.84137 386.131 1.84723 386.839 1.85561C386.548 1.90805 386.262 1.96082 385.976 2.01326C387.992 1.93104 389.258 1.95778 390.227 2.08997C387.825 2.1204 385.428 2.1505 383.026 2.18061C383.38 2.1896 383.739 2.19866 384.093 2.20734C382.274 2.3424 384.15 2.47032 380.758 2.4992C380.779 2.43743 380.795 2.37561 380.816 2.31354C379.581 2.47871 376.199 2.47781 377.278 2.66783C376.257 2.60946 376.048 2.57255 375.47 2.67497C372.776 2.5306 371.045 2.34803 372.004 2.13007C371.004 2.16515 370.003 2.20028 369.008 2.23535C369.586 2.29495 370.165 2.35427 370.743 2.41387C369.003 2.41015 367.25 2.40648 365.514 2.40307C365.347 2.22674 368.864 2.34958 367.85 2.19196C367.647 2.16032 366.71 2.22809 366.464 2.21027C363.869 2.01748 367.943 2.15677 367.178 2.00905C363.311 1.96341 366.405 1.71589 361.079 1.92391C360.938 1.873 360.787 1.82107 360.657 1.77047C358.808 1.76742 358.958 1.8824 357.369 1.90413C356.374 1.91765 355.125 1.71573 354.025 1.85323C353.829 1.87858 355.678 2.12537 351.792 2.11451C348.777 2.10609 350.032 1.93169 348.402 1.86989C346.77 1.80811 343.039 2.04993 341.939 1.77578C342.794 1.81209 343.882 1.83168 344.83 1.86147C345.216 1.80808 345.591 1.75526 345.972 1.70218C343.804 1.7711 341.563 1.68987 340.104 1.81716C337.211 1.62249 333.977 1.80314 334.852 2.02296C335.804 1.99127 334.769 1.89542 336.091 1.9565C336.226 2.00773 336.369 2.0587 336.505 2.10993C334.253 2.10372 332.69 2.10516 333.716 1.94899C333.367 1.94526 333.021 1.94155 332.672 1.93782C332.61 2.05084 332.554 2.16427 332.492 2.27728C332.075 2.29001 331.656 2.30264 331.239 2.31537C330.776 2.29054 330.311 2.26543 329.842 2.2403C330.473 2.06146 331.547 2.05556 327.993 1.95558C327.982 2.01737 327.967 2.07891 327.957 2.14069C324.981 2.06215 324.903 1.91248 321.167 1.91805C324.033 1.70353 325.601 2.08379 325.591 1.65347C326.31 1.68173 327.035 1.71036 327.754 1.73861C327.863 1.67621 327.972 1.61371 328.076 1.55131C324.215 1.58422 317.801 1.99464 315.215 1.7225C314.903 1.75571 314.589 1.78458 314.271 1.82027C311.738 1.65603 310.645 2.02477 308.075 1.8124C307.81 1.79011 308.365 1.44368 305.021 1.4561C305.104 1.50112 305.147 1.5769 305.215 1.6337C304.491 1.60608 303.771 1.57717 303.052 1.54892C302.921 1.59051 302.785 1.63208 302.655 1.67398C303.89 1.69012 305.121 1.70654 306.356 1.72268C305.33 1.73696 304.297 1.75125 303.271 1.76553C304.61 1.8335 305.214 1.83422 304.407 1.94313C303.245 1.94965 302.081 1.95657 300.919 1.96309C300.799 1.99099 300.68 2.01922 300.561 2.04713C301.123 2.13033 301.692 2.2117 302.255 2.29614C299.227 2.22815 296.595 2.22446 294.271 2.06086C293.874 2.03323 295.275 1.92484 292.576 2.0226C292.535 1.96519 292.462 1.91857 292.415 1.8655C289.111 2.02633 288.026 1.97832 284.581 1.8622C286.812 1.97056 284.822 1.90009 284.254 1.95815C283.864 1.99815 285.383 1.99224 285.212 2.03413C285.04 2.07573 283.066 2.24371 284.753 2.26392C288.891 1.9196 290.018 2.33126 295.334 2.16578C294.516 2.21017 293.692 2.25467 292.874 2.29907C293.259 2.32916 293.604 2.35646 294.021 2.38842C291.056 2.32106 292.498 2.36482 291.28 2.4179C290.06 2.47099 287.844 2.5161 286.359 2.53069C285.891 2.53527 286.384 2.45805 285.328 2.45086C284.609 2.44589 282.644 2.56038 282.19 2.42541C281.893 2.33755 285.05 2.09562 280.685 2.0962C279.863 2.01007 281.956 2.03682 282.001 2.02644C282.382 1.92398 279.698 1.84695 278.458 1.92519C278.357 1.93194 279.337 2.01178 278.272 2.0431C275.744 2.11793 274.284 2.02636 272.648 1.90248C272.471 2.04779 270.344 2.22132 267.696 2.16761C267.561 2.20919 267.432 2.25114 267.297 2.29303C267.708 2.27102 268.119 2.24931 268.53 2.2273C268.978 2.25338 269.453 2.27236 269.89 2.3031C267.228 2.33883 266.851 2.53908 265.575 2.61235C261.206 2.86263 263.854 2.3332 264.642 2.24194C265.21 2.27889 265.759 2.32013 266.322 2.35894C266.259 2.30834 266.196 2.25734 266.139 2.20642C259.598 2.20797 265.143 1.87791 261.823 1.78384C260.968 2.03282 258.53 2.05682 255.424 1.89882C255.081 1.90006 254.735 1.90038 254.391 1.90193C254.334 1.93824 254.335 1.99373 254.241 2.01765C250.5 2.05988 249.833 1.67643 249.479 1.64011C247.905 1.479 246.68 1.70191 246.216 1.70382C244.262 1.71159 243.694 1.61261 241.833 1.65512C239.833 1.70106 241.201 1.77701 240.592 1.84499C240.104 1.89898 238.525 1.90859 237.873 1.96455C238.132 1.91879 238.42 1.8739 238.679 1.82796C236.605 1.76557 234.91 1.70475 232.555 1.68954C229.898 2.02443 227.636 1.45952 228.553 1.91768C230.784 1.94904 232.031 2.00125 233.224 2.11799C231.76 2.13289 230.295 2.1474 228.831 2.1623C228.404 2.11201 228.101 2.06301 227.595 2.01179C226.501 2.11858 223.964 2.07275 222.969 2.10407C218.304 2.25093 219.747 2.43307 215.49 2.12696C218.558 2.09713 218.554 1.94846 221.597 1.96895C220.94 1.86277 219.394 1.88477 220.394 1.75747C217.45 1.78883 218.402 1.90248 217.256 2.00337C216.268 2.09035 214.278 2.09522 214.39 2.20825C214.187 2.14611 214.029 2.08594 213.826 2.02388C211.919 2.0245 210.013 2.02454 208.106 2.02516C208.918 1.96028 209.731 1.89528 210.544 1.83071C209.93 1.80621 209.314 1.78179 208.7 1.75729C204.01 1.9591 195.922 1.58924 197.214 2.0962C194.952 2.11234 194.669 2.04876 193.44 1.95284C193.304 1.99132 193.173 2.02334 193.037 2.06617C191.578 2.02588 190.458 2.17038 189.171 2.13282C187.884 2.09555 187.565 1.95906 187.377 2.18848C186.544 2.12267 185.715 2.068 184.886 2.00685C184.386 2.05897 183.887 2.11049 183.392 2.1623C182.611 2.13498 181.827 2.10777 181.046 2.08045C180.628 2.18997 177.554 2.14276 176.2 2.21631C174.913 2.09826 174.949 1.72657 171.923 1.79318C172.001 1.88536 172.078 1.97728 172.156 2.06947C171.463 2.05022 170.769 2.03104 170.07 2.01179C170.029 1.9817 169.993 1.95161 169.951 1.92153C170.305 1.93084 170.655 1.9401 171.009 1.94972C170.702 1.8988 170.4 1.84812 170.098 1.7972C169.04 1.87264 167.981 1.94808 166.918 2.02351C168.351 2.08062 169.785 2.13778 171.217 2.19489C169.42 2.26257 168.168 2.19506 166.605 2.27051C165.245 2.14323 165.747 2.0699 166.299 1.93178C165.794 1.94357 165.283 1.95496 164.777 1.96675C165.111 1.82861 164.256 1.74631 167.21 1.75747C167.007 1.71807 166.8 1.68051 166.602 1.63956C166.117 1.64577 165.803 1.61246 165.272 1.62766C163.823 1.66926 162.712 1.91189 162.811 1.99696C162.865 2.04152 164.293 1.9563 164.236 2.0193C164.094 2.17292 160.818 2.10395 165.544 2.25824C163.975 2.35604 163.625 2.28228 161.895 2.25403C162.03 2.30522 162.162 2.35609 162.292 2.40728C161.49 2.38369 160.686 2.36019 159.884 2.33661C160.999 2.07364 155.084 1.97488 160.409 1.74484C158.835 1.73304 157.267 1.72118 155.699 1.70877C156.022 1.68176 156.345 1.65503 156.668 1.62802C157.377 1.6423 158.081 1.65635 158.79 1.67032C157.956 1.62097 157.121 1.57191 156.288 1.52256C154.318 1.58372 153.546 1.67779 152.644 1.79391C154.937 1.87864 154.188 1.7629 155.974 1.73989C155.912 1.81343 155.994 1.88107 155.838 1.95833C154.915 1.80601 151.904 1.91682 151.206 1.92427C149.081 1.9469 150.747 1.79724 149.326 1.79409C147.903 1.79099 146.225 1.88006 145.063 1.73166C145.084 1.81484 145.177 1.9009 145.26 1.97664C143.045 2.00396 143.487 1.90569 143.258 1.89296C139.599 1.68371 137.614 1.86037 133.43 1.88179C133.961 1.90756 134.498 1.93082 135.035 1.95503C131.878 2.13164 134.004 2.07757 136.745 2.13593C134.176 2.11823 132.705 2.26864 130.891 2.31335C129.078 2.35798 125.968 2.28074 124.832 2.22052C127.432 2.12365 130.237 2.18753 133.124 2.16083C132.796 2.0761 132.477 2.00438 132.138 1.91127C130.382 2.08912 129.365 1.9702 128.786 1.94661C127.088 1.87741 127.141 2.03006 126.115 1.86586C126.156 1.92235 126.187 1.96984 126.228 2.0226C122.721 1.999 118.938 1.89914 116.656 2.10774C116.447 1.97207 116.29 1.84137 116.05 1.70291C114.565 1.80503 113.294 1.70045 112.043 1.72433C110.798 1.74824 111.272 1.85788 109.808 1.9001C109.537 1.90787 108.972 1.83924 108.305 1.88985C107.632 1.94073 105.147 2.319 104.85 1.98854C103.595 1.98699 102.406 1.9749 101.176 1.96931C102.375 1.95069 103.574 1.93265 104.767 1.91402C103.746 1.83393 102.731 1.75407 101.71 1.67398C101.579 1.74539 101.449 1.81809 101.324 1.88857C98.572 1.9755 96.5751 1.85875 93.7976 1.88637C93.3338 1.89103 94.428 2.03221 92.3701 1.99623C90.3118 1.96022 88.7842 1.6967 85.2775 1.79849C85.1003 1.80376 84.0618 2.00558 82.8058 1.86586C82.52 1.8342 83.7229 1.78734 83.0669 1.74575C82.4103 1.70415 79.4804 1.66994 79.2512 1.5709C79.2824 1.60597 79.4652 1.64231 79.5539 1.67801C79.0537 1.69477 78.5485 1.71154 78.0431 1.72799C77.9962 1.66622 77.9456 1.60435 77.8987 1.54288C75.0221 1.68663 73.5355 1.92111 69.273 1.84353C70.4716 1.93325 71.6705 2.02333 72.8638 2.11304C73.1922 2.05002 73.521 1.98657 73.8441 1.92354C75.8085 1.94868 77.7783 1.97365 79.7427 1.99879C80.0658 1.92707 80.3832 1.85556 80.7064 1.78384C81.2274 1.79315 81.7433 1.80217 82.2643 1.81149C82.134 1.86333 82.0027 1.9149 81.8672 1.96675C82.8988 1.95402 83.9317 1.94103 84.9581 1.9283C82.8685 2.23434 79.1226 1.90227 79.3928 2.15827C78.9292 2.11855 78.465 2.07855 78.0015 2.03852C77.7982 2.16266 76.8555 2.12693 75.1938 2.10737C75.5742 2.16853 75.9944 2.22886 76.3435 2.29065C74.728 2.20435 71.8623 2.21273 70.1895 2.17951C69.4548 2.16492 70.1887 2.07492 69.9701 2.06434C68.8496 2.00908 66.7081 2.16611 66.2599 2.15369C63.5814 2.07979 61.8408 1.78207 58.9173 1.97829C61.9347 2.02672 60.2931 2.00626 61.3667 2.11524C61.7027 2.14941 65.6009 2.22069 60.7196 2.18903C60.1473 2.18507 51.2903 1.97937 54.2018 1.82174C52.7686 1.87204 51.6465 1.93019 50.3333 1.9836C47.123 1.56818 48.234 1.95843 49.1669 2.17328C48.6405 2.17421 48.1398 2.1764 47.5978 2.1764C48.7496 1.95068 42.8819 1.93666 40.8911 2.05061C40.2241 2.08849 42.0892 2.16074 40.5468 2.19489C39.8123 2.17906 38.979 2.15856 38.2029 2.14088C39.3285 2.28368 37.1195 2.33872 37.1504 2.484C35.7382 2.35454 34.6581 2.08014 35.4342 1.93141C34.267 1.99163 33.0938 2.05178 31.9267 2.11231C32.4687 2.14677 33.0176 2.18093 33.5596 2.2154C29.7449 2.12412 24.8399 2.33182 24.0425 2.02662C23.537 2.0288 23.0261 2.03068 22.5207 2.03285C22.3643 2.08439 22.2132 2.13603 22.0569 2.18757C19.7696 2.14287 17.4875 2.09787 15.2002 2.05317C17.2368 2.02119 17.7216 1.94783 19.8574 2.0074C19.0344 1.94812 18.196 1.88852 17.3886 1.82925C14.1732 1.98883 13.7346 2.09371 8.89345 2.04621C8.67457 2.04404 5.01673 1.91021 4.89166 1.89717C4.31865 1.83757 5.18846 1.75097 4.93332 1.72085C4.22456 1.6364 -0.082188 1.42436 0.00119471 1.39238C1.05391 0.999934 15.5441 0.994733 19.4631 0.974552C60.1117 0.765301 99.8651 1.04525 140.258 0.997439C140.674 0.996698 140.492 0.938766 140.669 0.936284C141.769 0.921734 142.848 1.01202 143.255 1.01575C144.123 1.02343 143.645 0.940006 144.28 0.939946C150.836 0.940878 157.022 0.989931 163.583 0.97565C164.011 0.974719 163.574 1.04146 164.325 1.02966C164.712 1.0232 165.925 0.920807 166.799 0.919256C169.853 0.913981 172.418 0.946809 175.639 0.945256C177.4 0.944329 180.043 0.953033 182.012 0.951481C182.882 0.950822 183.788 0.903977 184.647 0.902412C185.867 0.900238 185.618 0.995201 185.806 1.0011C186.629 1.02686 186.743 0.922635 187.525 0.925116C188.979 0.930083 189.057 0.999673 190.901 0.993777C192.22 0.98943 195.238 0.934486 196.9 0.918341C200.788 0.999057 205.687 0.967013 209.314 0.940313C211.461 0.924485 211.66 1.02192 212.535 1.02161C215.62 1.01972 217.961 0.895279 220.858 0.891243C224.703 0.885985 228.111 0.96827 231.836 0.974185C232.44 0.975116 232.301 0.885843 232.894 0.883553C235.088 0.87517 237.893 0.858922 239.848 0.871651C242.026 0.885641 242.829 1.01522 244.96 0.988833C245.585 0.980998 245.768 0.86738 246.816 0.852793C248.488 0.829853 250.322 0.930045 251.489 0.941228C253.089 0.956131 251.698 0.840381 253.855 0.855905C253.944 0.856575 254.267 0.939317 254.73 0.935369C256.08 0.924192 255.946 0.859033 257.921 0.865243C258.111 0.866101 260.729 0.94494 260.99 0.945256C262.522 0.946498 265.606 0.9741 266.513 0.957341C269.755 0.897729 267.203 0.77328 269.96 1.0434C271.174 0.977282 272.378 0.91027 273.664 0.846018C272.806 0.905939 276.291 0.992407 276.536 0.986819C278.562 0.941789 277.355 0.83669 279.924 0.854074C276.531 1.09687 283.238 0.885368 284.734 0.879158C291.936 0.849051 298.482 0.90964 305.72 0.908088C308.144 0.907452 311.391 0.856128 313.955 0.85737C314.552 0.857444 314.101 0.914903 314.627 0.916144C315.151 0.916995 314.569 0.852492 315.168 0.855905C318.894 0.878267 321.813 0.999976 325.227 0.847849C325.393 0.869844 325.388 0.887224 325.663 0.911383C328.456 0.775097 333.836 0.958375 335.858 0.983523C339.02 1.02262 339.828 0.930499 342.125 0.949101C345.164 0.973939 349.725 1.15391 347.688 0.856821C349.772 0.84751 351.779 0.844939 353.884 0.872567C354.118 0.875699 353.956 0.951211 354.05 0.952763C354.644 0.963604 354.838 0.895995 355.239 0.892891C356.327 0.88454 354.551 0.965492 356.103 0.942876C356.921 0.930768 357.385 0.871799 359.657 0.870553C373.353 0.864033 388.221 0.885152 402.261 0.895088C403.225 0.895709 402.59 0.822685 403.799 0.827342C407.999 0.843502 415.518 0.966395 419.14 0.949651C422.761 0.932886 421.944 0.826099 424.211 0.781385C424.649 0.772691 424.29 0.833551 424.686 0.834483C427.349 0.840076 430.524 0.935003 432.681 0.949284C434.108 0.958854 433.993 0.86311 434.983 0.856271C436.458 0.846336 437.976 0.943067 438.763 0.946172C442.462 0.959811 445.006 0.8819 448.46 0.921637C448.325 0.900566 448.236 0.88106 448.122 0.860299C452.212 0.863714 456.297 0.867138 460.388 0.870553C460.195 0.851303 460.009 0.831888 459.816 0.812328C464.615 0.822892 464.068 1.03152 463.646 0.590965C463.995 0.575444 464.365 0.557454 464.698 0.543177C464.563 0.77012 467.466 0.9362 471.16 0.99396C471.431 0.998307 473.25 0.77703 473.052 1.03845C473.526 0.974496 473.808 0.930409 474.21 0.874215C474.991 0.953362 475.783 1.03157 476.565 1.11041C476.987 1.09861 477.414 1.08723 477.837 1.07544C477.899 1.02421 477.851 0.971019 477.986 0.920721C479.946 0.91296 483.964 0.976292 485.512 0.969791C489.358 0.953336 493.274 0.814831 496.265 0.964481C497.722 0.949224 496.275 0.848677 498.443 0.861398C498.687 0.912304 498.918 0.961095 499.173 1.01355C500.944 0.786104 501.314 0.924466 503.741 0.971988C505.383 1.00427 506.458 0.948685 508.021 0.959538C508.417 0.962332 508.361 1.02909 508.632 1.02692C509.539 1.02003 512.129 0.928148 512.77 0.925665C518.575 0.901453 523.562 0.911759 529.091 0.936284C529.685 0.938768 528.914 0.872885 529.529 0.875679C530.519 0.880066 529.937 0.981303 530.51 0.98627C532.108 0.999554 532.12 0.892802 534.35 0.887215C541.693 0.868909 550.135 0.949101 557.806 0.956242C558.046 0.956242 558.031 0.893695 558.292 0.893074C559.99 0.890015 561.709 0.974564 563.252 0.973636C565.81 0.972394 567.733 0.884524 570.261 0.884834C575.201 0.885145 579.615 0.930137 584.696 0.932623C588.855 0.934796 592.467 0.926453 597.027 0.926763C616.945 0.928005 637.269 0.72947 657.323 0.835032C657.833 0.837824 657.625 0.893087 657.781 0.890693C659.261 0.866788 659.393 0.792224 659.919 0.948369C661.805 0.917595 662.4 0.800285 664.677 0.808666C665.89 0.81306 664.984 0.994882 667.037 0.90113C668.891 0.816378 666.845 0.716732 672.358 0.818553C672.504 0.821352 673.222 0.93218 674.369 0.903327C675.52 0.874763 674.187 0.795404 676.96 0.771498C683.468 0.715618 691.707 0.811418 699.274 0.781934C699.748 0.780071 704.315 0.720821 705.217 0.693499C706.961 0.640409 706.597 0.558051 708.863 0.537867C710.614 0.522343 712.059 0.615636 714.117 0.597007C714.357 0.594743 714.759 0.49878 716.306 0.511501ZM332.678 2.37542C332.25 2.46958 331.479 2.81614 328.895 2.71067C328.65 2.70074 329.973 2.46241 328.545 2.42449C329.942 2.39934 331.302 2.3912 332.678 2.37506C332.678 2.37518 332.678 2.3753 332.678 2.37542ZM727.506 2.72129C725.572 2.7039 723.632 2.68668 721.699 2.66929C723.033 2.62738 724.369 2.58555 725.698 2.54332C726.302 2.60261 726.901 2.662 727.506 2.72129ZM486.826 2.55669C486.828 2.55669 486.83 2.55669 486.832 2.55669C484.799 2.6014 482.765 2.64619 480.733 2.6909C480.947 2.65799 481.161 2.62494 481.375 2.59202C482.979 2.54019 484.585 2.48842 486.184 2.43658C486.398 2.47662 486.612 2.51665 486.826 2.55669ZM502.883 2.20825C504.181 2.24738 503.863 2.31335 504.577 2.37762C504.577 2.3775 504.577 2.37738 504.577 2.37725C504.766 2.39398 505.643 2.40862 505.982 2.41113C505.857 2.36983 505.696 2.32907 505.56 2.28809C508.588 2.18811 514.509 2.54337 506.843 2.6865C506.958 2.63435 507.068 2.58247 507.182 2.53032C503.373 2.54491 499.126 2.4318 502.883 2.20825ZM302.046 2.52556C298.794 2.69632 297.752 2.73233 293.807 2.61528C294.364 2.56688 294.921 2.51848 295.479 2.47008C296.13 2.51945 296.777 2.56848 297.428 2.61784C297.43 2.61784 297.432 2.61784 297.434 2.61784C297.564 2.56599 297.695 2.51406 297.82 2.46221C299.227 2.48332 300.639 2.50445 302.046 2.52556ZM627.364 2.33166C628.27 2.67271 628.008 2.47447 625.42 2.55138C624.523 2.57808 625.397 2.63775 624.839 2.64769C621.828 2.70195 621.587 2.47345 622.259 2.35455C623.963 2.34648 625.685 2.33911 627.358 2.33166C627.36 2.33166 627.362 2.33166 627.364 2.33166ZM705.492 2.2608C705.494 2.2608 705.495 2.2608 705.497 2.2608C705.575 2.34399 704.361 2.36637 705.73 2.44518C704.689 2.44487 703.647 2.44421 702.601 2.4439C702.908 2.43615 703.221 2.42876 703.528 2.42101C703.257 2.39245 702.985 2.36352 702.715 2.33496C702.345 2.43058 702.001 2.37499 700.907 2.34301C701.209 2.44516 701.51 2.54737 701.812 2.64952C700.541 2.6191 699.265 2.58857 697.993 2.55815C697.978 2.53241 697.962 2.50663 697.946 2.48089C697.467 2.51378 696.993 2.54704 696.513 2.57994C696.383 2.54921 696.258 2.51876 696.127 2.48803C695.549 2.5113 694.97 2.53456 694.392 2.55815C694.216 2.48371 695.49 2.45154 693.231 2.47045C693.924 2.39408 694.615 2.31795 695.314 2.24158C698.706 2.24779 702.099 2.25428 705.492 2.2608ZM603.811 2.43658C607.547 2.4223 606.495 2.47625 605.63 2.64512C605.026 2.5756 604.415 2.5061 603.811 2.43658ZM411.308 2.28625C410.224 2.40144 409.136 2.51548 408.026 2.62663C405.816 2.6909 403.606 2.48095 405.268 2.39868C407.269 2.29995 409.359 2.41044 411.308 2.28625ZM360.982 2.33752C363.685 2.39093 361.142 2.5278 360.532 2.60759C359.784 2.47936 358.741 2.49067 357.066 2.47576C358.639 2.46745 360.535 2.32845 360.982 2.33715C360.982 2.33728 360.982 2.3374 360.982 2.33752ZM454.814 2.4157C455.898 2.41226 456.975 2.38009 457.944 2.41918C457.652 2.52933 455.714 2.42912 457.1 2.59239C456.407 2.59518 455.713 2.59789 455.025 2.601C455.463 2.53335 454.875 2.48279 454.817 2.41607C454.816 2.41595 454.815 2.41583 454.814 2.4157ZM567.609 2.56639C565.483 2.43599 565.08 2.49179 562.938 2.58214C562.636 2.47597 565.19 2.29812 566.79 2.25897C567.061 2.36142 567.333 2.46394 567.609 2.56639ZM64.6853 2.51201C65.1959 2.37668 68.9623 2.35903 70.8338 2.39904C70.6109 2.41911 70.3874 2.43945 70.1645 2.45983C68.3405 2.47722 66.5093 2.49463 64.6853 2.51201ZM356.269 2.4666C356.549 2.47057 356.815 2.47353 357.066 2.47576C356.787 2.47723 356.518 2.47493 356.269 2.4666ZM243.064 1.87923C243.954 1.75164 241.307 1.70877 244.522 1.75875C244.522 1.75863 244.522 1.75851 244.522 1.75839C246.648 1.7913 247.117 1.80009 249.087 1.81002C248.378 1.97393 244.382 2.03252 249.89 2.06636C249.962 2.06651 249.818 1.96897 250.698 1.98231C250.97 1.98646 251.839 2.06651 253.161 2.08979C253.589 2.09724 256.8 2.12193 252.422 2.12348C252.553 2.23774 252.318 2.35338 252.328 2.46422C250.619 2.49644 249.306 2.27271 247.499 2.2782C244.815 2.28689 243.449 2.51313 242.933 2.21631C245.19 2.14339 249.065 2.14163 249.57 2.32013C251.754 2.3223 252.381 2.17606 250.62 2.10371C243.079 2.19561 248.55 1.88663 241.947 2.00337C241.869 2.04465 241.598 2.08908 241.639 2.12788C239.624 1.98261 242.746 1.92487 243.064 1.87923ZM258.832 2.19489C257.529 2.28213 256.231 2.37008 254.933 2.45763C254.933 2.31544 255.648 2.18784 257.702 2.10774C258.077 2.1369 258.457 2.16604 258.832 2.19489ZM149.237 2.23224C149.049 2.30955 148.549 2.38039 148.184 2.45397C147.788 2.38877 138.407 2.32622 143.18 2.26227C143.873 2.25295 148.101 2.38965 149.237 2.23224ZM582.372 2.44994C581.267 2.39809 580.167 2.34616 579.067 2.29431C580.76 2.26142 582.454 2.22767 584.146 2.19416C583.553 2.2794 582.965 2.3647 582.372 2.44994ZM393.324 2.15058C393.791 2.15348 392.241 2.2598 394.079 2.24304C392.709 2.31104 391.425 2.36859 390.086 2.43255C389.685 2.38225 389.279 2.33216 388.878 2.28186C388.565 2.31415 388.246 2.34624 387.934 2.37853C388.121 2.30526 388.288 2.2337 388.486 2.15919C390.743 2.31629 391.26 2.13816 393.324 2.15058ZM460.421 1.86403C460.827 2.02328 457.56 2.11798 460.774 2.14344C460.164 2.24806 459.184 2.30294 457.303 2.31225C457.001 2.27224 456.699 2.23252 456.397 2.19251C456.356 2.29958 455.872 2.33938 454.814 2.4157C454.813 2.41558 454.813 2.41546 454.812 2.41534C451.952 2.42309 452.122 2.38739 451.435 2.21137C454.462 2.31072 454.553 2.1499 456.617 2.05427C458.034 1.98851 459.885 2.01829 460.421 1.86403ZM159.231 2.23041C157.09 2.36483 159.012 2.49022 155.213 2.34741C155.458 2.31326 155.704 2.27939 155.949 2.24524C157.043 2.23996 158.137 2.23507 159.231 2.23041ZM470.988 2.40984C470.743 2.16334 468.727 1.97146 468.383 2.37249C470.348 2.45415 469.388 2.22698 470.988 2.40984ZM361.904 1.95155C365.682 1.96306 364.968 2.24128 363.415 2.38037C363.175 2.32976 362.935 2.27906 362.701 2.22876C362.039 2.25174 361.377 2.27476 360.715 2.29742C361.111 2.18224 361.508 2.06674 361.904 1.95155ZM537.591 2.13904C534.704 2.31509 540.708 2.23695 538.691 2.34686C537.081 2.43471 534.959 2.25733 535.761 2.14619C536.319 2.14308 536.94 2.14091 537.586 2.13904C537.588 2.13904 537.589 2.13904 537.591 2.13904ZM520.884 2.1894C521.358 2.37748 520.675 2.32266 522.956 2.28882C523.607 2.27919 528.784 2.34983 526.611 2.19397C524.761 2.19397 522.807 2.19126 520.884 2.1894ZM318.234 2.22675C318.199 2.14484 322.185 1.96498 322.697 2.00996C322.697 2.00984 322.697 2.00972 322.697 2.0096C324.078 2.13223 319.873 2.14966 321.697 2.31793C317.659 2.16986 316.45 2.52802 316.732 2.0561C319.111 2.0354 317.984 2.13268 318.234 2.22675ZM15.2308 2.12641C15.2289 2.12641 15.2271 2.12641 15.2252 2.12641C15.4929 2.13026 17.6985 2.25047 17.4302 2.29211C14.7779 2.25641 15.2506 2.17728 12.7814 2.30731C12.646 2.26543 12.53 2.22481 12.3843 2.18262C13.364 2.15778 13.9071 2.10747 15.2308 2.12641ZM139.095 2.06709C140.069 2.04566 141.848 2.13444 142.958 2.12916C139.424 2.47006 135.202 2.15217 139.095 2.06709ZM668.951 2.27252C668.948 2.27264 668.945 2.27277 668.942 2.27289C668.943 2.2727 668.944 2.27252 668.945 2.27234C668.947 2.2724 668.949 2.27246 668.951 2.27252ZM214.612 2.27161C214.487 2.24948 214.416 2.23025 214.39 2.21338C214.39 2.21179 214.39 2.21021 214.39 2.20862C214.458 2.22934 214.53 2.2503 214.612 2.27161ZM309.95 2.25147C308.29 2.13723 313.821 1.95563 315.61 1.99898C315.485 2.05111 315.465 2.09838 315.174 2.15827C313.73 2.02325 310.226 2.27071 309.95 2.25147ZM436.058 2.20954C431.685 2.20643 437.376 1.7554 437.61 2.11524C437.601 2.12221 436.171 2.20892 436.058 2.20954ZM344.43 2.20423C345.544 2.06767 343.306 2.03141 346.885 2.055C347.094 2.09037 347.302 2.12583 347.51 2.1612C346.484 2.17548 345.457 2.18995 344.43 2.20423ZM407.415 1.6174C401.912 1.69347 396.649 1.82766 400.233 2.20423C400.65 2.19213 401.072 2.18044 401.489 2.16834C401.551 1.98462 403.088 2.08491 405.338 2.09089C405.658 2.01795 406.906 2.00109 407.14 1.9391C407.593 1.81929 406.159 1.73505 407.415 1.6174ZM639.744 1.9164C639.655 1.94776 639.569 1.97928 639.48 2.01033C638.61 2.04572 637.737 2.08095 636.867 2.11634C637.008 2.05616 637.148 1.99599 637.289 1.93581C638.107 1.92929 638.921 1.92273 639.738 1.91622C639.74 1.91628 639.742 1.91634 639.744 1.9164ZM264.195 1.80727C263.695 2.15243 265.442 2.08886 268.985 1.91439C267.39 1.87868 265.789 1.84298 264.195 1.80727ZM495.843 1.75729C495.958 1.85535 496.07 1.9531 496.19 2.05116C498.072 1.94901 497.722 1.83672 496.821 1.70694C496.493 1.72369 496.171 1.74054 495.843 1.75729ZM522.942 1.71554C522.162 1.69509 522.56 1.77426 522.478 1.77267C520.503 1.73106 520.225 1.69475 517.802 1.75436C517.505 1.77516 517.213 1.79703 516.916 1.81844C518.036 2.02391 518.849 1.91193 521.22 2.03267C520.793 1.96219 520.367 1.89161 519.94 1.82082C521.258 1.83572 522.571 1.85042 523.889 1.86532C524.045 1.84358 524.202 1.82205 524.358 1.80032C523.89 1.77238 523.406 1.74099 522.942 1.71554ZM649.808 2.00557C651.09 2.01364 652.378 2.02203 653.66 2.0301C653.707 1.9795 653.752 1.92855 653.799 1.87795C652.47 1.92047 651.137 1.96304 649.808 2.00557ZM237.873 1.96455C237.772 1.9825 237.673 2.00057 237.584 2.01893C237.593 1.99655 237.704 1.97907 237.873 1.96455ZM11.8483 1.84884C10.3946 1.81345 8.29969 1.83668 6.7051 1.82925C6.83046 1.9562 10.8833 1.9211 12.3065 1.99806C12.5352 1.97528 12.4628 1.86373 11.8483 1.84884ZM367.13 1.96272C367.495 1.89939 367.859 1.83636 368.219 1.77303C369.1 1.77987 369.982 1.78708 370.868 1.79391C370.894 1.74206 370.92 1.68976 370.946 1.63791C367.043 1.70527 367.943 1.55576 366.011 1.40831C366.386 1.59301 366.755 1.77771 367.13 1.96272ZM690.598 1.67673C687.779 1.71181 686.779 1.77734 688.368 1.93288C689.363 1.89719 690.364 1.86146 691.359 1.82577C691.104 1.7761 690.848 1.72639 690.598 1.67673ZM186.528 1.84737C184.168 1.90549 184.129 1.69674 181.823 1.81332C183.058 1.85181 184.293 1.89073 185.522 1.92922C185.855 1.902 186.195 1.87459 186.528 1.84737ZM302.238 1.2741C301.243 1.20148 299.382 1.54667 296.584 1.29186C295.917 1.36791 295.499 1.44055 294.926 1.51505C294.592 1.43402 294.214 1.35195 293.896 1.27153C293.894 1.27153 293.892 1.27153 293.89 1.27153C291.352 1.29886 292.998 1.40049 292.94 1.48649C292.913 1.52214 291.03 1.46254 291.618 1.54014C292.635 1.67333 296.432 1.59674 296.442 1.75912C295.108 1.70605 292.503 1.7504 293.274 1.85872C294.118 1.97763 296.573 1.77836 298.136 1.87703C295.896 1.61751 300.523 1.69767 301.049 1.89699C303.764 1.74393 301.269 1.68149 298.486 1.68863C300.185 1.53588 297.684 1.6184 297.273 1.49143C299.024 1.41479 305.036 1.47868 302.238 1.2741ZM430.334 1.55552C428.458 1.56537 425.526 1.47806 424.241 1.60697C423.493 1.68207 426.432 1.74023 424.405 1.85817C426.233 1.84668 426.651 1.8006 426.338 1.69723C426.755 1.68482 427.177 1.67272 427.593 1.66061C427.786 1.68078 427.984 1.70068 428.176 1.72085C428.395 1.67832 428.616 1.63613 428.829 1.5936C429.272 1.60198 429.72 1.61036 430.162 1.61905C430.214 1.59767 430.303 1.57905 430.334 1.55552ZM118.786 1.85378C119.307 1.85254 119.823 1.8513 120.344 1.84975C120.286 1.82458 120.218 1.79836 120.152 1.77249C120.105 1.75204 120.058 1.73159 120.011 1.71115C120.313 1.7842 122.795 1.90561 123.84 1.8276C124.366 1.78846 123.17 1.64953 125.398 1.62528C123.783 1.63242 122.287 1.65138 120.719 1.66318C120.859 1.62188 120.995 1.58015 121.135 1.53885C121.134 1.53879 121.133 1.53873 121.133 1.53867C120.612 1.52936 120.084 1.5196 119.563 1.51029C119.303 1.62486 119.046 1.73921 118.786 1.85378ZM494.316 1.56339C492.539 1.64442 491.944 1.68651 492.783 1.81753C492.785 1.81759 492.787 1.81765 492.788 1.81771C493.45 1.75966 494.112 1.70163 494.774 1.64359C494.623 1.61688 494.472 1.59009 494.316 1.56339ZM222.566 1.53208C218.788 2.02976 227.296 1.72467 225.676 1.55515C225.603 1.54739 222.92 1.58703 222.566 1.53208ZM361.21 1.79849C362.247 1.79445 363.286 1.7908 364.328 1.78677C364.089 1.7256 363.843 1.66465 363.603 1.60349C362.806 1.66838 362.007 1.7336 361.21 1.79849ZM678.323 1.45079C677.232 1.31417 674.43 1.26468 673.061 1.41325C673.78 1.43064 674.499 1.44805 675.219 1.46543C673.859 1.4825 672.515 1.50129 671.145 1.51743C671.072 1.70776 672.65 1.59734 675.027 1.64981C675.395 1.65827 677.747 1.89452 678.559 1.71646C678.723 1.67986 676.22 1.65497 677.96 1.54856C677.199 1.54018 676.543 1.54204 675.824 1.53739C675.772 1.49206 675.72 1.44668 675.663 1.40135C676.552 1.41776 677.435 1.43437 678.323 1.45079ZM419.409 1.57035C416.832 1.55984 416.513 1.63589 415.977 1.77029C417.175 1.75508 418.374 1.74009 419.573 1.72488C419.516 1.67348 419.466 1.62206 419.409 1.57035ZM655.285 1.40721C653.873 1.38523 654.478 1.49462 653.91 1.51542C651.763 1.59365 650.299 1.51546 648.178 1.56449C648.319 1.54338 648.448 1.52364 648.583 1.50315C648.582 1.50315 648.58 1.50315 648.578 1.50315C638.536 1.41095 643.811 1.65905 649.819 1.61868C649.96 1.65936 650.095 1.70008 650.236 1.74044C652.925 1.66935 655.404 1.60094 655.285 1.40721ZM256.133 1.51505C256.018 1.48959 256.992 1.3278 255.163 1.40355C253.715 1.63977 256.091 1.52252 256.685 1.61337C256.19 1.63604 255.684 1.65809 255.194 1.68075C258.154 1.74751 258.586 1.69134 257.507 1.51871C257.43 1.50711 256.248 1.54043 256.133 1.51505ZM236.679 1.3986C236.273 1.74665 240.008 1.59014 239.873 1.48209C239.357 1.47779 238.956 1.53672 238.409 1.51066C237.857 1.48458 237.716 1.40328 236.679 1.3986ZM343.706 1.48374C343.596 1.48219 342.497 1.33591 342.606 1.45042C343.966 1.72147 346.707 1.547 346.227 1.45262C345.321 1.45728 344.716 1.49796 343.706 1.48338C343.706 1.4835 343.706 1.48362 343.706 1.48374ZM695.325 1.36876C695.273 1.35905 692.53 1.30025 692.175 1.35484C691.884 1.41631 691.739 1.48218 691.52 1.54581C693.031 1.48682 696.091 1.53176 695.319 1.36876C695.321 1.36876 695.323 1.36876 695.325 1.36876Z" fill="#E59D5C"/>
</svg>
