<svg width="448" height="4" viewBox="0 0 448 4" fill="none" xmlns="http://www.w3.org/2000/svg">
<path d="M410.799 3.20998C411.811 3.34526 408.432 3.25658 410.676 3.45862C410.208 3.47227 409.737 3.48635 409.269 3.5C409.151 3.42517 409.029 3.35053 408.91 3.27571C409.539 3.25367 410.167 3.23164 410.799 3.20961C410.799 3.20973 410.799 3.20985 410.799 3.20998ZM411.657 2.27289C411.081 2.48631 409.252 2.54321 411.228 2.74015C411.385 2.66691 411.546 2.59368 411.703 2.52043C412.389 2.57724 413.08 2.63403 413.766 2.69053C414.013 2.66261 414.259 2.63465 414.506 2.60704C414.82 2.73432 415.131 2.86194 415.446 2.98953C415.167 2.9709 414.884 2.95195 414.605 2.93332C413.502 3.03667 412.52 3.06494 411.023 3.08419C411.154 3.1143 411.286 3.14416 411.418 3.17427C410.658 3.12305 409.898 3.07169 409.141 3.02047C409.798 2.97019 410.533 2.91427 411.142 2.8674C410.168 2.66784 408.448 2.77891 407.554 2.82053C406.335 2.87734 406.61 2.78245 405.706 2.82218C405.562 2.82839 405.545 2.90276 405.26 2.90402C403.82 2.90992 401.023 2.8705 402.659 2.69694C405.029 2.71929 407.05 2.57992 409.375 2.63084C408.76 2.43016 409.985 2.36187 411.657 2.27289ZM368.119 2.91189C368.837 2.81443 370.3 2.85376 371.291 2.92142C371.292 2.92142 371.293 2.92142 371.294 2.92142C371.512 2.93632 372.006 3.06585 371.294 3.06057C370.133 3.05152 369.572 2.84763 368.963 2.98605C368.691 2.96028 368.404 2.93735 368.119 2.91189ZM365.596 2.92398C364.884 2.87399 365.207 2.72036 366.099 2.76194C366.099 2.76182 366.099 2.76169 366.099 2.76157C366.471 2.77896 365.74 2.9004 367.075 2.77714C367.347 2.87303 367.615 2.96027 367.885 3.05306C367.558 3.05461 367.26 3.05713 366.917 3.05837C367.148 2.90075 366.308 2.97357 365.596 2.92398ZM401.456 2.78373C401.344 2.92553 401.813 2.92463 402.611 3.02303C401.858 3.01838 401.104 3.01341 400.354 3.00875C400.722 2.93365 401.087 2.85883 401.456 2.78373ZM419.159 2.8057C419.16 2.8057 419.162 2.8057 419.163 2.8057C419.41 2.78335 419.657 2.76091 419.901 2.73887C420.049 2.78948 420.194 2.83986 420.342 2.89047C421.214 2.84297 422.091 2.79547 422.963 2.74766C422.857 2.90225 421.292 2.87709 420.429 2.98513C419.146 2.93856 418.528 2.84883 418.445 2.71781C418.682 2.74698 418.919 2.77653 419.159 2.8057ZM209.375 2.1894C209.083 2.23223 208.795 2.2751 208.503 2.31793C208.891 2.33748 209.276 2.3524 209.667 2.37506C210.69 2.18879 210.786 2.35356 212.126 2.3421C216.234 2.30671 215.145 2.01741 218.855 2.44115C215.876 2.421 217.021 2.62011 215.225 2.77347C214.853 2.65673 216.632 2.39345 215.426 2.3388C213.349 2.46235 211.351 2.57742 209.045 2.65721C209.112 2.67739 209.179 2.69763 209.247 2.71781C209.612 2.70508 209.975 2.69227 210.34 2.67955C209.946 2.73357 209.56 2.78712 209.16 2.84177C209.666 2.71914 208.375 2.78766 208.548 2.64677C208.625 2.58405 209.195 2.49705 209.532 2.43713C208.663 2.40453 207.772 2.37468 206.893 2.34301C207.349 2.29305 207.804 2.24302 208.256 2.19306C208.627 2.19151 208.996 2.1904 209.368 2.18885C209.37 2.18903 209.373 2.18921 209.375 2.1894ZM22.3508 2.8414C23.454 2.69548 25.4588 2.67133 26.5139 2.83371C25.1253 2.8362 23.7394 2.83892 22.3508 2.8414ZM418.361 2.60979C418.486 2.63459 418.607 2.65913 418.732 2.68394C418.181 2.72988 417.626 2.7755 417.074 2.82144C416.969 2.74976 416.86 2.67805 416.751 2.60667C417.287 2.6076 417.826 2.60885 418.361 2.60979ZM383.078 2.68962C383.481 2.68528 383.517 2.68763 384.019 2.69785C384.019 2.69779 384.018 2.69773 384.017 2.69767C384.217 2.70149 385.883 2.74336 385.697 2.79856C384.87 2.79949 383.987 2.79856 383.141 2.79856C383.115 2.76225 383.11 2.72623 383.078 2.68962ZM392.817 2.72184C392.818 2.72196 392.819 2.72208 392.82 2.72221C393.122 2.73059 393.407 2.74766 393.718 2.75077C392.599 2.83764 392.422 2.68179 391.405 2.72587C390.389 2.77026 389.761 2.85626 388.898 2.64274C389.219 2.61076 389.564 2.56501 389.895 2.52776C391.338 2.61313 391.726 2.53279 392.884 2.44866C392.861 2.53993 392.839 2.63057 392.817 2.72184ZM227.664 2.62132C227.94 2.51577 228.248 2.61934 228.28 2.62059C228.279 2.62071 228.279 2.62083 228.278 2.62095C230.721 2.5232 227.96 2.67938 230.266 2.69584C229.922 2.72222 229.585 2.75008 229.245 2.77677C228.719 2.72587 228.177 2.66819 227.664 2.62132ZM307.035 2.63121C307.057 2.66194 307.084 2.69275 307.106 2.72349C305.721 2.71635 305.368 2.83735 304.217 2.72715C305.156 2.69487 306.095 2.66281 307.035 2.63084C307.035 2.63096 307.035 2.63109 307.035 2.63121ZM376.095 2.46605C377.631 2.40737 378.767 2.38152 380.242 2.47466C380.243 2.47478 380.245 2.4749 380.246 2.47503C380.331 2.48076 379.919 2.54507 380.03 2.56126C380.335 2.55165 380.649 2.53686 380.957 2.52538C380.998 2.57687 381.038 2.62836 381.08 2.67955C380.214 2.66495 379.348 2.65038 378.479 2.63579C378.607 2.6659 378.738 2.69575 378.867 2.72587C378.129 2.74139 377.394 2.75685 376.657 2.77237C376.913 2.68796 377.169 2.60352 377.423 2.51879C376.98 2.5011 376.537 2.48405 376.095 2.46605ZM283.97 2.29486C284.214 2.32839 283.763 2.38463 284.141 2.41351C284.52 2.44201 285.217 2.37944 285.054 2.47411C284.544 2.48683 284.009 2.50142 283.49 2.51476C285.161 2.68547 286.828 2.531 286.853 2.7418C285.25 2.68716 283.931 2.71254 282.379 2.77091C282.443 2.60358 283.996 2.4589 283.018 2.30182C283.332 2.29964 283.662 2.29647 283.967 2.29523C283.968 2.2951 283.969 2.29498 283.97 2.29486ZM440.803 0.511501C441.753 0.52423 443.928 0.45594 445.127 0.55343C445.422 0.577455 446.405 0.88867 446.4 0.929693C446.372 1.06785 445.171 1.08666 446.457 1.17669C446.024 1.17762 445.604 1.18281 445.175 1.1853C445.252 1.27813 445.329 1.37071 445.402 1.46324C445.925 1.44926 446.448 1.43522 446.971 1.42094C446.997 1.45168 447.022 1.48248 447.048 1.51322C445.169 1.51384 446.278 1.63248 445.303 1.74301C446.201 1.79888 447.105 1.85448 448 1.91036C447.484 1.90353 446.875 1.89847 446.419 1.8904C446.358 2.0478 447.445 2.01027 447.631 2.03944C448.68 2.20429 443.341 2.12109 442.904 2.35015C443.757 2.37561 444.652 2.40045 445.524 2.42559C445.274 2.45384 445.02 2.48211 444.77 2.51036C442.792 2.35237 440.573 2.2964 438.267 2.198C438.059 2.20452 437.85 2.2112 437.645 2.21741C437.706 2.28848 437.764 2.35928 437.825 2.43035C437.51 2.43873 437.192 2.44705 436.878 2.45544C437.805 2.22136 436.521 2.22455 434.972 2.08174C435.797 1.99947 436.813 2.04935 436.743 1.89608C433.915 2.014 430.603 1.84735 427.851 1.98048C427.168 2.01339 427.17 2.21111 425.564 2.19287C425.619 2.17114 425.628 2.1319 425.664 2.10334C422.886 2.19804 421.201 2.25465 418.315 2.15809C418.482 2.22915 418.646 2.30051 418.812 2.37158C419.425 2.33618 420.038 2.30023 420.648 2.26483C421.065 2.38218 420.449 2.43397 422.276 2.43273C423.774 2.4318 422.883 2.37998 423.29 2.34521C423.841 2.29774 424.325 2.39113 424.918 2.33807C425.377 2.2974 424.881 2.20057 426.077 2.2251C425.596 2.35053 425.105 2.48005 424.621 2.60704C424.329 2.57879 424.04 2.5501 423.748 2.52153C424.043 2.488 424.333 2.45491 424.628 2.42138C423.589 2.48161 422.607 2.53841 421.533 2.60081C421.883 2.41949 420.772 2.48748 420.169 2.5089C419.23 2.54239 420.035 2.41761 419.419 2.43841C418.803 2.45953 418.139 2.59894 417.026 2.56914C417.623 2.48843 416.812 2.41605 416.968 2.34155C417.125 2.26705 418.303 2.25055 417.172 2.16926C414.997 2.23104 417.357 2.51475 415.888 2.56072C414.125 2.61598 413.705 2.1535 414.231 2.05409C414.644 1.97585 416.068 1.99158 416.485 1.91365C413.935 1.77301 413.913 2.05066 413.477 2.10499C411.893 2.30275 412.957 1.77492 411.081 1.96584C411.116 1.86713 411.145 1.77835 411.18 1.68368C410.856 1.70169 410.641 1.72562 410.25 1.73989C411.404 1.93222 410.46 1.92397 409.975 1.92427C409.212 1.92489 410.391 2.0187 410.189 2.04292C409.644 2.10772 408.781 2.0783 409.31 2.16303C409.073 2.1236 408.816 2.08405 408.572 2.04493C407.68 2.09406 405.585 2.50604 407.579 2.42284C407.393 2.57591 406.748 2.50234 406.244 2.47905C405.741 2.45579 405.75 2.55327 405.308 2.53527C403.548 2.46323 404.699 2.29648 404.978 2.16578C402.653 2.25581 404.929 2.31538 401.579 2.37561C401.255 2.4821 402.803 2.59573 401.514 2.65721C401.277 2.4722 400.327 2.3393 398.477 2.27783C398.297 2.32037 398.118 2.36328 397.939 2.40582C396.929 2.23505 397.445 2.05748 395.575 2.26923C396.579 1.87959 395.889 2.12886 394.215 1.97023C393.875 1.93825 394.661 1.85741 394.186 1.81643C393.971 1.79795 393.448 1.85897 392.923 1.81185C392.666 1.78857 391.467 1.63833 390.636 1.70968C391.246 1.89845 389.668 2.05904 391.021 2.21521C388.519 2.17671 386.769 2.26735 389.572 2.00996C388.937 1.95283 388.301 1.89595 387.666 1.83913C387.224 1.88415 386.777 1.92882 386.331 1.97353C386.264 1.81838 386.332 1.77486 384.588 1.80215C385.345 1.76553 386.098 1.7283 386.858 1.69137C386.883 1.66004 386.989 1.62748 386.964 1.59708C386.033 1.65667 383.413 1.68231 382.778 1.7236C382.143 1.76489 383.37 1.77619 383.187 1.81625C381.664 2.14652 381.785 1.90293 380.692 1.95961C380.05 1.99314 381.582 2.02955 381.239 2.04383C379.966 2.09618 379.376 1.92065 378.248 1.91841C378.649 2.01805 379.046 2.11923 379.437 2.21979C378.254 2.21451 376.935 2.21363 375.835 2.24561C375.403 2.25809 375.729 2.33219 375.659 2.33715C375.309 2.36261 373.885 2.40294 373.735 2.40325C372.6 2.40384 372.568 2.30121 371.465 2.29559C371.898 2.2869 372.305 2.27907 372.728 2.27069C372.92 2.1043 373.117 1.93791 373.309 1.7712C372.228 1.7591 371.147 1.74724 370.064 1.73513C370.856 1.7907 371.651 1.846 372.443 1.90157C371.205 2.036 369.967 2.17074 368.729 2.30548C368.084 2.2229 367.442 2.14033 366.798 2.05775C365.047 2.07953 365.4 2.41476 364.569 2.1211C364.053 2.14593 363.537 2.17074 363.021 2.19526C363.095 2.15335 363.168 2.11137 363.241 2.06947C362.619 2.09524 361.997 2.12084 361.375 2.14692C362.029 2.29531 362.671 2.45146 363.318 2.5955C362.094 2.62775 362.07 2.50186 361.888 2.47045C361.404 2.38724 360.442 2.49948 360.058 2.42248C359.927 2.39604 361.127 2.31317 360.714 2.21759C360.633 2.19907 359.027 1.84773 358.002 1.92885C358.021 1.9925 358.1 2.07054 358.142 2.13978C356.763 2.17844 356.06 1.8462 356.243 1.75308C355.509 1.81827 354.435 1.82372 354.285 1.92555C353.909 1.92804 353.537 1.93039 353.162 1.93288C353.553 1.68486 351.988 1.73021 351.885 1.9435C352.53 1.94878 353.175 1.95433 353.82 1.95961C353.332 2.22103 355.291 2.37882 351.215 2.13666C350.436 2.00068 352.6 2.15519 351.966 2.05336C350.862 1.99408 349.827 2.04368 348.778 1.94899C347.473 1.83071 349.079 1.71694 346.039 1.86751C352.745 2.24473 345.119 2.12234 341.97 2.23938C341.104 1.86681 338.444 1.7488 334.782 1.85964C335.163 1.96333 336.316 1.90991 336.979 1.94405C337.643 1.97819 336.925 2.03971 337.752 2.08814C338.579 2.13656 340.336 2.20239 341.173 2.27563C340.464 2.33432 336.963 2.47307 339.278 2.30639C337.55 2.20365 336.739 2.09807 334.597 2.07881C333.956 2.24056 334.003 2.34128 331.916 2.34594C333.15 2.12118 330.778 1.96496 331.3 1.73275C332.781 1.78684 331.953 2.01253 332.81 2.12055C332.897 2.13135 334.277 2.07477 334.597 2.07881C333.205 1.87607 332.724 1.8006 333.58 1.55936C332.596 1.58047 331.983 1.55019 331.894 1.66537C331.688 1.6154 331.482 1.56539 331.28 1.51542C330.96 1.51666 330.671 1.52129 330.331 1.52036C330.799 1.69412 329.893 1.58715 329.248 1.66592C328.603 1.74478 329.468 1.88195 327.698 1.88381C328.288 1.92448 328.828 1.95938 329.398 1.99788C328.257 2.04258 327.112 2.08757 325.97 2.13227C326.772 2.23844 328.509 2.39613 328.462 2.53581C327.936 2.48308 326.135 2.57576 325.938 2.57957C325.174 2.59386 325.59 2.50576 325.533 2.50359C324.334 2.46078 323.346 2.49077 322.891 2.3573C321.99 2.41752 321.31 2.38319 320.354 2.38659C319.829 2.38845 319.931 2.48649 319.623 2.46789C317.577 2.3437 319.526 2.21701 315.58 2.45818C316.057 2.52648 316.529 2.59635 317.007 2.66526C316.561 2.69103 316.118 2.71694 315.672 2.74271C315.374 2.73029 315.078 2.71778 314.78 2.70536C314.786 2.55728 314.794 2.40889 314.8 2.2608C314.473 2.25273 314.145 2.24489 313.818 2.23682C314.379 2.22223 314.941 2.20765 315.503 2.19306C315.554 2.167 315.602 2.14093 315.653 2.11488C314.819 2.07451 313.988 2.03379 313.155 1.99312C313.138 2.04463 313.123 2.0965 313.107 2.14802C311.227 2.0763 311.183 2.03269 309.396 2.17457C308.021 2.17301 306.9 2.3884 306.105 2.47905C305.82 2.45019 305.534 2.42095 305.245 2.39208C305.063 2.43493 304.878 2.47759 304.695 2.52043C304.333 2.46083 303.965 2.40121 303.603 2.34192C303.401 2.47721 303.296 2.51945 304.71 2.56694C304.226 2.73521 301.737 2.66098 300.723 2.60448C299.955 2.5616 300.808 2.42124 300.711 2.40417C300.39 2.34617 299.123 2.39621 298.857 2.38659C297.732 2.34654 296.943 2.35355 295.926 2.32251C295.728 2.31629 295.175 2.22734 295.128 2.22455C294.763 2.20934 293.86 2.1661 293.758 2.16486C288.464 2.09846 294.12 2.48438 289.198 2.44372C289.345 2.49461 289.481 2.54516 289.625 2.59605C289.253 2.59916 288.878 2.60211 288.506 2.60521C288.035 2.56267 288.605 2.48532 287.668 2.54772C287.729 2.485 287.791 2.42226 287.855 2.35986C287.447 2.3937 287.055 2.42727 286.638 2.46111C285.984 2.24348 283.595 2.19405 283.765 1.93855C283.823 1.85162 285.516 1.76242 284.621 1.66959C283.894 1.65131 284.386 1.75514 284.09 1.76058C281.948 1.79846 282.072 1.65293 281.197 1.69174C281.059 1.75411 280.914 1.8177 280.773 1.8807C280.443 1.86239 280.111 1.84407 279.778 1.82577C279.701 1.86768 279.621 1.90964 279.544 1.95155C279.855 1.95435 280.205 1.95718 280.491 1.95998C280.093 2.12232 276.438 2.19524 277.832 2.05683C278.399 2.00065 279.439 2.02452 278.782 1.83272C277.804 1.86036 276.694 1.88859 275.665 1.91622C275.633 1.87492 275.603 1.83355 275.571 1.79226C274.183 1.81899 275.445 1.98409 275.442 2.07258C275.125 2.07506 274.804 2.07724 274.487 2.07972C274.353 2.03971 274.225 1.99783 274.084 1.95906C274.071 2.02273 273.893 2.17073 272.947 2.11579C272.339 2.08003 273.297 1.91939 272.137 1.94167C272.224 2.041 272.643 2.16198 271.351 2.19397C271.223 2.0903 271.046 1.99532 270.946 1.88637C269.34 1.98597 268.609 1.82587 266.723 1.94167C265.527 2.01494 263.889 2.27505 263.116 1.87429C262.241 1.86374 262.518 1.96354 262.259 1.98598C261.038 2.09216 260.129 1.90213 259.901 1.89095C258.449 1.8193 257.798 1.88508 256.615 1.79537C256.679 1.86958 256.714 1.93982 256.765 2.01216C257.849 1.90101 258.398 1.90622 259.918 1.93013C259.408 1.94503 258.898 1.96027 258.389 1.97517C258.472 2.03539 258.554 2.09562 258.635 2.15552C263.336 1.91832 262.239 2.29309 258.298 2.37506C257.958 2.26362 257.606 2.15247 257.269 2.04072C254.992 2.20961 253.921 2.063 251.346 2.02791C251.04 2.02389 249.925 2.08809 249.445 2.09126C249.453 2.09168 249.461 2.09211 249.469 2.09254C249.171 2.19777 249.575 2.24621 249.623 2.34027C249.363 2.35206 249.104 2.36381 248.844 2.37561C248.264 2.30391 248.468 2.24501 247.326 2.26209C247.48 2.33349 247.632 2.40491 247.786 2.47631C246.535 2.47879 245.717 2.40121 244.553 2.43475C244.748 2.40773 244.941 2.38065 245.137 2.35363C242.603 2.28471 244.62 1.86491 242.705 2.07386C242.583 2.03724 242.465 2.00026 242.343 1.96364C243.132 1.95464 243.921 1.94591 244.706 1.93691C244.722 1.88508 244.74 1.83347 244.753 1.78164C243.909 1.79716 243.062 1.81317 242.218 1.8287C242.834 1.79392 243.453 1.7591 244.069 1.72433C243.091 1.6995 242.113 1.67465 241.135 1.64981C242.173 1.8404 240.827 1.86371 241.08 2.05244C239.348 1.89534 237.988 1.68825 235.304 1.82082C234.771 1.84723 235.061 1.97912 233.55 1.81863C233.916 2.02848 232.024 2.12695 232.267 2.32654C232.793 2.31691 233.338 2.31086 233.848 2.29907C233.267 2.22984 233.171 2.03938 234.053 1.98286C235.178 1.91084 236.82 2.04283 236.753 1.83144C237.202 1.84137 237.619 1.84723 238.055 1.85561C237.876 1.90805 237.7 1.96082 237.524 2.01326C238.764 1.93104 239.544 1.95778 240.14 2.08997C238.662 2.1204 237.187 2.1505 235.709 2.18061C235.926 2.1896 236.147 2.19866 236.365 2.20734C235.246 2.3424 236.4 2.47032 234.312 2.4992C234.325 2.43743 234.336 2.37561 234.348 2.31354C233.588 2.47871 231.507 2.47781 232.171 2.66783C231.542 2.60946 231.414 2.57255 231.058 2.67497C229.4 2.5306 228.336 2.34803 228.926 2.13007C228.31 2.16515 227.694 2.20028 227.082 2.23535C227.438 2.29495 227.794 2.35427 228.15 2.41387C227.079 2.41015 226 2.40648 224.932 2.40307C224.829 2.22674 226.993 2.34958 226.369 2.19196C226.244 2.16032 225.668 2.22809 225.516 2.21027C223.919 2.01748 226.426 2.15677 225.955 2.00905C223.576 1.96341 225.48 1.71589 222.203 1.92391C222.116 1.873 222.023 1.82107 221.943 1.77047C220.805 1.76742 220.897 1.8824 219.919 1.90413C219.307 1.91765 218.538 1.71573 217.862 1.85323C217.741 1.87858 218.879 2.12537 216.488 2.11451C214.632 2.10609 215.404 1.93169 214.401 1.86989C213.397 1.80811 211.101 2.04993 210.424 1.77578C210.95 1.81209 211.62 1.83168 212.203 1.86147C212.441 1.80808 212.672 1.75526 212.906 1.70218C211.572 1.7711 210.193 1.68987 209.295 1.81716C207.515 1.62249 205.524 1.80314 206.063 2.02296C206.649 1.99127 206.011 1.89542 206.825 1.9565C206.908 2.00773 206.996 2.0587 207.08 2.10993C205.694 2.10372 204.732 2.10516 205.364 1.94899C205.149 1.94526 204.936 1.94155 204.721 1.93782C204.683 2.05084 204.649 2.16427 204.61 2.27728C204.354 2.29001 204.096 2.30264 203.84 2.31537C203.554 2.29054 203.268 2.26543 202.98 2.2403C203.368 2.06146 204.029 2.05556 201.842 1.95558C201.835 2.01737 201.826 2.07891 201.82 2.14069C199.988 2.06215 199.94 1.91248 197.641 1.91805C199.405 1.70353 200.37 2.08379 200.363 1.65347C200.806 1.68173 201.252 1.71036 201.695 1.73861C201.762 1.67621 201.829 1.61371 201.893 1.55131C199.517 1.58422 195.57 1.99464 193.979 1.7225C193.786 1.75571 193.593 1.78458 193.398 1.82027C191.839 1.65603 191.166 2.02477 189.585 1.8124C189.422 1.79011 189.763 1.44368 187.705 1.4561C187.756 1.50112 187.783 1.5769 187.825 1.6337C187.379 1.60608 186.936 1.57717 186.493 1.54892C186.413 1.59051 186.329 1.63208 186.249 1.67398C187.009 1.69012 187.767 1.70654 188.527 1.72268C187.895 1.73696 187.26 1.75125 186.628 1.76553C187.452 1.8335 187.824 1.83422 187.327 1.94313C186.612 1.94965 185.896 1.95657 185.181 1.96309C185.107 1.99099 185.034 2.01922 184.96 2.04713C185.307 2.13033 185.657 2.2117 186.003 2.29614C184.14 2.22815 182.52 2.22446 181.09 2.06086C180.846 2.03323 181.708 1.92484 180.047 2.0226C180.021 1.96519 179.977 1.91857 179.948 1.8655C177.915 2.02633 177.247 1.97832 175.127 1.8622C176.5 1.97056 175.275 1.90009 174.925 1.95815C174.686 1.99815 175.621 1.99224 175.515 2.03413C175.409 2.07573 174.194 2.24371 175.233 2.26392C177.779 1.9196 178.473 2.33126 181.744 2.16578C181.241 2.21017 180.733 2.25467 180.23 2.29907C180.467 2.32916 180.679 2.35646 180.936 2.38842C179.111 2.32106 179.999 2.36482 179.249 2.4179C178.499 2.47099 177.135 2.5161 176.221 2.53069C175.933 2.53527 176.236 2.45805 175.587 2.45086C175.144 2.44589 173.935 2.56038 173.655 2.42541C173.473 2.33755 175.416 2.09562 172.729 2.0962C172.224 2.01007 173.512 2.03682 173.539 2.02644C173.773 1.92398 172.122 1.84695 171.359 1.92519C171.297 1.93194 171.9 2.01178 171.244 2.0431C169.689 2.11793 168.79 2.02636 167.783 1.90248C167.674 2.04779 166.365 2.22132 164.736 2.16761C164.653 2.20919 164.574 2.25114 164.49 2.29303C164.743 2.27102 164.996 2.24931 165.249 2.2273C165.525 2.25338 165.817 2.27236 166.086 2.3031C164.448 2.33883 164.216 2.53908 163.431 2.61235C160.742 2.86263 162.372 2.3332 162.856 2.24194C163.206 2.27889 163.544 2.32013 163.89 2.35894C163.852 2.30834 163.813 2.25734 163.778 2.20642C159.753 2.20797 163.165 1.87791 161.122 1.78384C160.596 2.03282 159.096 2.05682 157.184 1.89882C156.973 1.90006 156.76 1.90038 156.549 1.90193C156.513 1.93824 156.514 1.99373 156.456 2.01765C154.154 2.05988 153.743 1.67643 153.525 1.64011C152.557 1.479 151.803 1.70191 151.517 1.70382C150.315 1.71159 149.965 1.61261 148.821 1.65512C147.589 1.70106 148.431 1.77701 148.057 1.84499C147.756 1.89898 146.785 1.90859 146.384 1.96455C146.543 1.91879 146.72 1.8739 146.879 1.82796C145.603 1.76557 144.56 1.70475 143.111 1.68954C141.475 2.02443 140.084 1.45952 140.648 1.91768C142.021 1.94904 142.788 2.00125 143.523 2.11799C142.622 2.13289 141.72 2.1474 140.819 2.1623C140.556 2.11201 140.37 2.06301 140.059 2.01179C139.385 2.11858 137.824 2.07275 137.211 2.10407C134.341 2.25093 135.229 2.43307 132.609 2.12696C134.498 2.09713 134.495 1.94846 136.367 1.96895C135.963 1.86277 135.011 1.88477 135.627 1.75747C133.816 1.78883 134.401 1.90248 133.696 2.00337C133.088 2.09035 131.863 2.09522 131.932 2.20825C131.807 2.14611 131.71 2.08594 131.585 2.02388C130.412 2.0245 129.238 2.02454 128.065 2.02516C128.565 1.96028 129.065 1.89528 129.565 1.83071C129.187 1.80621 128.809 1.78179 128.431 1.75729C125.544 1.9591 120.567 1.58924 121.362 2.0962C119.971 2.11234 119.797 2.04876 119.04 1.95284C118.956 1.99132 118.875 2.02334 118.792 2.06617C117.894 2.02588 117.205 2.17038 116.413 2.13282C115.621 2.09555 115.425 1.95906 115.309 2.18848C114.796 2.12267 114.286 2.068 113.776 2.00685C113.469 2.05897 113.161 2.11049 112.857 2.1623C112.376 2.13498 111.894 2.10777 111.413 2.08045C111.156 2.18997 109.264 2.14276 108.43 2.21631C107.639 2.09826 107.661 1.72657 105.799 1.79318C105.847 1.88536 105.894 1.97728 105.942 2.06947C105.516 2.05022 105.088 2.03104 104.659 2.01179C104.633 1.9817 104.611 1.95161 104.585 1.92153C104.803 1.93084 105.018 1.9401 105.236 1.94972C105.047 1.8988 104.862 1.84812 104.676 1.7972C104.025 1.87264 103.373 1.94808 102.719 2.02351C103.601 2.08062 104.483 2.13778 105.365 2.19489C104.258 2.26257 103.488 2.19506 102.526 2.27051C101.689 2.14323 101.998 2.0699 102.338 1.93178C102.027 1.94357 101.712 1.95496 101.401 1.96675C101.607 1.82861 101.081 1.74631 102.899 1.75747C102.774 1.71807 102.646 1.68051 102.524 1.63956C102.226 1.64577 102.033 1.61246 101.706 1.62766C100.814 1.66926 100.131 1.91189 100.191 1.99696C100.224 2.04152 101.103 1.9563 101.068 2.0193C100.981 2.17292 98.9647 2.10395 101.873 2.25824C100.908 2.35604 100.692 2.28228 99.6275 2.25403C99.7108 2.30522 99.7918 2.35609 99.8719 2.40728C99.3782 2.38369 98.8839 2.36019 98.3902 2.33661C99.0765 2.07364 95.4365 1.97488 98.7132 1.74484C97.7449 1.73304 96.7799 1.72118 95.8148 1.70877C96.0136 1.68176 96.2124 1.65503 96.4112 1.62802C96.8473 1.6423 97.2808 1.65635 97.7169 1.67032C97.2039 1.62097 96.6901 1.57191 96.1771 1.52256C94.9649 1.58372 94.4897 1.67779 93.9349 1.79391C95.3456 1.87864 94.8847 1.7629 95.984 1.73989C95.9456 1.81343 95.9963 1.88107 95.9002 1.95833C95.3322 1.80601 93.4793 1.91682 93.0497 1.92427C91.742 1.9469 92.7674 1.79724 91.8927 1.79409C91.0171 1.79099 89.9846 1.88006 89.2694 1.73166C89.2822 1.81484 89.3394 1.9009 89.3907 1.97664C88.0277 2.00396 88.2997 1.90569 88.1585 1.89296C85.9073 1.68371 84.6857 1.86037 82.1105 1.88179C82.4375 1.90756 82.768 1.93082 83.0983 1.95503C81.1555 2.13164 82.4642 2.07757 84.151 2.13593C82.5699 2.11823 81.6645 2.26864 80.5484 2.31335C79.4326 2.35798 77.5188 2.28074 76.8195 2.22052C78.4198 2.12365 80.1458 2.18753 81.9225 2.16083C81.7205 2.0761 81.5242 2.00438 81.3158 1.91127C80.2352 2.08912 79.609 1.9702 79.2531 1.94661C78.2078 1.87741 78.2406 2.03006 77.609 1.86586C77.6346 1.92235 77.6534 1.96984 77.6791 2.0226C75.5209 1.999 73.1929 1.89914 71.7882 2.10774C71.6599 1.97207 71.5632 1.84137 71.4157 1.70291C70.5018 1.80503 69.7192 1.70045 68.9496 1.72433C68.1831 1.74824 68.4749 1.85788 67.5739 1.9001C67.4071 1.90787 67.0598 1.83924 66.6493 1.88985C66.2348 1.94073 64.7061 2.319 64.5233 1.98854C63.7505 1.98699 63.0191 1.9749 62.2623 1.96931C62.9999 1.95069 63.7377 1.93265 64.4721 1.91402C63.8436 1.83393 63.219 1.75407 62.5905 1.67398C62.5103 1.74539 62.4299 1.81809 62.3529 1.88857C60.6597 1.9755 59.4309 1.85875 57.7216 1.88637C57.4362 1.89103 58.1095 2.03221 56.8432 1.99623C55.5765 1.96022 54.6365 1.6967 52.4784 1.79849C52.3694 1.80376 51.7303 2.00558 50.9574 1.86586C50.7816 1.8342 51.5218 1.78734 51.1181 1.74575C50.714 1.70415 48.911 1.66994 48.7699 1.5709C48.7892 1.60597 48.9017 1.64231 48.9562 1.67801C48.6484 1.69477 48.3375 1.71154 48.0265 1.72799C47.9977 1.66622 47.9665 1.60435 47.9377 1.54288C46.1675 1.68663 45.2526 1.92111 42.6296 1.84353C43.3671 1.93325 44.1049 2.02333 44.8393 2.11304C45.0413 2.05002 45.2437 1.98657 45.4426 1.92354C46.6514 1.94868 47.8636 1.97365 49.0724 1.99879C49.2713 1.92707 49.4666 1.85556 49.6655 1.78384C49.9861 1.79315 50.3036 1.80217 50.6242 1.81149C50.544 1.86333 50.4632 1.9149 50.3798 1.96675C51.0146 1.95402 51.6503 1.94103 52.2819 1.9283C50.996 2.23434 48.6908 1.90227 48.8571 2.15827C48.5718 2.11855 48.2862 2.07855 48.0009 2.03852C47.8758 2.16266 47.2957 2.12693 46.2731 2.10737C46.5072 2.16853 46.7658 2.22886 46.9806 2.29065C45.9865 2.20435 44.223 2.21273 43.1935 2.17951C42.7414 2.16492 43.193 2.07492 43.0585 2.06434C42.369 2.00908 41.0511 2.16611 40.7753 2.15369C39.127 2.07979 38.0559 1.78207 36.2568 1.97829C38.1137 2.02672 37.1035 2.00626 37.7641 2.11524C37.9709 2.14941 40.3698 2.22069 37.3659 2.18903C37.0137 2.18507 31.5633 1.97937 33.3549 1.82174C32.473 1.87204 31.7825 1.93019 30.9743 1.9836C28.9988 1.56818 29.6825 1.95843 30.2565 2.17328C29.9326 2.17422 29.6245 2.1764 29.291 2.1764C29.9997 1.95068 26.3889 1.93666 25.1638 2.05061C24.7533 2.08849 25.9011 2.16074 24.9519 2.19489C24.4999 2.17906 23.9871 2.15856 23.5095 2.14088C24.2022 2.28368 22.8427 2.33872 22.8618 2.484C21.9928 2.35454 21.328 2.08014 21.8056 1.93141C21.0874 1.99163 20.3654 2.05178 19.6472 2.11231C19.9807 2.14677 20.3185 2.18093 20.6521 2.2154C18.3045 2.12412 15.2861 2.33182 14.7954 2.02662C14.4843 2.0288 14.1699 2.03068 13.8589 2.03285C13.7627 2.08439 13.6697 2.13603 13.5735 2.18757C12.1659 2.14287 10.7615 2.09787 9.35399 2.05317C10.6073 2.02119 10.9056 1.94783 12.22 2.0074C11.7135 1.94812 11.1975 1.88852 10.7007 1.82925C8.72198 1.98883 8.45205 2.09371 5.47289 2.04621C5.3382 2.04404 3.08722 1.91021 3.01025 1.89717C2.65763 1.83757 3.1929 1.75097 3.03589 1.72085C2.59973 1.6364 -0.0505772 1.42436 0.000735204 1.39238C0.648561 0.999934 9.5656 0.994733 11.9773 0.974552C36.9918 0.765301 61.4555 1.04525 86.3128 0.997439C86.5684 0.996699 86.4569 0.938766 86.5658 0.936284C87.2423 0.921734 87.9067 1.01202 88.1568 1.01575C88.6913 1.02343 88.397 0.940006 88.7875 0.939946C92.8219 0.940878 96.629 0.989931 100.667 0.97565C100.93 0.974719 100.661 1.04146 101.123 1.02966C101.361 1.0232 102.108 0.920807 102.646 0.919256C104.525 0.913981 106.103 0.946809 108.085 0.945256C109.169 0.944329 110.795 0.953033 112.007 0.951481C112.543 0.950822 113.1 0.903977 113.629 0.902412C114.38 0.900238 114.226 0.995201 114.342 1.0011C114.849 1.02686 114.919 0.922635 115.4 0.925116C116.294 0.930083 116.343 0.999673 117.478 0.993777C118.289 0.98943 120.146 0.934486 121.169 0.918341C123.562 0.999057 126.576 0.967013 128.808 0.940313C130.13 0.924485 130.252 1.02192 130.791 1.02161C132.689 1.01972 134.13 0.895279 135.913 0.891243C138.279 0.885985 140.376 0.96827 142.668 0.974185C143.04 0.975116 142.955 0.885843 143.319 0.883553C144.67 0.87517 146.396 0.858922 147.599 0.871651C148.939 0.885641 149.433 1.01522 150.745 0.988833C151.129 0.980998 151.242 0.86738 151.886 0.852792C152.916 0.829853 154.044 0.930045 154.763 0.941228C155.747 0.956131 154.891 0.840381 156.219 0.855905C156.273 0.856575 156.472 0.939317 156.757 0.935369C157.588 0.924192 157.505 0.859033 158.721 0.865243C158.837 0.866101 160.449 0.94494 160.609 0.945256C161.552 0.946498 163.45 0.9741 164.008 0.957341C166.003 0.897729 164.433 0.77328 166.129 1.0434C166.876 0.977282 167.617 0.91027 168.409 0.846018C167.88 0.905939 170.025 0.992407 170.176 0.986819C171.423 0.941789 170.68 0.83669 172.261 0.854074C170.173 1.09687 174.3 0.885368 175.221 0.879158C179.653 0.849051 183.681 0.90964 188.136 0.908088C189.627 0.907452 191.625 0.856128 193.203 0.85737C193.571 0.857444 193.293 0.914903 193.616 0.916144C193.939 0.916995 193.581 0.852492 193.95 0.855905C196.243 0.878267 198.039 0.999976 200.14 0.847849C200.242 0.869844 200.239 0.887224 200.408 0.911383C202.127 0.775097 205.437 0.958375 206.682 0.983523C208.628 1.02262 209.125 0.930499 210.539 0.949101C212.408 0.973939 215.215 1.15391 213.962 0.856821C215.244 0.84751 216.479 0.844939 217.775 0.872567C217.919 0.875699 217.819 0.951211 217.877 0.952763C218.243 0.963604 218.362 0.895995 218.609 0.892891C219.278 0.88454 218.185 0.965492 219.14 0.942876C219.643 0.930768 219.929 0.871799 221.328 0.870553C229.756 0.864033 238.905 0.885152 247.545 0.895088C248.138 0.895709 247.748 0.822685 248.492 0.827342C251.077 0.843502 255.703 0.966395 257.932 0.94965C260.161 0.932886 259.658 0.826099 261.053 0.781385C261.322 0.772692 261.101 0.833551 261.345 0.834483C262.984 0.840076 264.938 0.935003 266.265 0.949284C267.143 0.958854 267.073 0.86311 267.682 0.856271C268.59 0.846336 269.524 0.943067 270.008 0.946172C272.284 0.959811 273.85 0.8819 275.976 0.921637C275.892 0.900566 275.837 0.88106 275.767 0.860299C278.284 0.863714 280.798 0.867138 283.316 0.870553C283.197 0.851303 283.082 0.831888 282.964 0.812328C285.917 0.822892 285.58 1.03152 285.32 0.590965C285.535 0.575444 285.763 0.557454 285.968 0.543176C285.885 0.77012 287.671 0.9362 289.945 0.99396C290.112 0.998307 291.231 0.77703 291.109 1.03845C291.4 0.974496 291.574 0.930409 291.821 0.874215C292.302 0.953362 292.79 1.03157 293.271 1.11041C293.53 1.09861 293.794 1.08723 294.053 1.07544C294.092 1.02421 294.062 0.971019 294.146 0.920721C295.351 0.91296 297.824 0.976291 298.777 0.969791C301.144 0.953336 303.553 0.814831 305.394 0.964481C306.291 0.949224 305.4 0.848677 306.734 0.861398C306.885 0.912304 307.026 0.961095 307.183 1.01355C308.273 0.786104 308.501 0.924466 309.995 0.971988C311.005 1.00427 311.666 0.948685 312.628 0.959538C312.872 0.962332 312.837 1.02909 313.004 1.02692C313.563 1.02003 315.156 0.928148 315.551 0.925665C319.123 0.901453 322.192 0.911759 325.594 0.936284C325.96 0.938768 325.486 0.872885 325.864 0.87568C326.473 0.880066 326.115 0.981303 326.467 0.98627C327.451 0.999554 327.459 0.892802 328.831 0.887215C333.35 0.868908 338.545 0.949101 343.265 0.956242C343.413 0.956242 343.404 0.893695 343.564 0.893074C344.609 0.890015 345.667 0.974564 346.616 0.973636C348.191 0.972394 349.374 0.884524 350.93 0.884834C353.97 0.885145 356.686 0.930137 359.813 0.932623C362.372 0.934796 364.595 0.926453 367.401 0.926763C379.658 0.928005 392.166 0.72947 404.506 0.835032C404.821 0.837824 404.693 0.893087 404.788 0.890693C405.699 0.866788 405.78 0.792224 406.104 0.948369C407.265 0.917595 407.631 0.800285 409.032 0.808666C409.779 0.81306 409.221 0.994882 410.484 0.90113C411.625 0.816378 410.366 0.716732 413.759 0.818553C413.849 0.821352 414.291 0.93218 414.996 0.903327C415.705 0.874763 414.884 0.795404 416.591 0.771498C420.596 0.715618 425.666 0.811418 430.322 0.781934C430.614 0.780071 433.425 0.720821 433.98 0.693499C435.053 0.640409 434.829 0.558051 436.223 0.537867C437.301 0.522343 438.19 0.615635 439.457 0.597007C439.604 0.594743 439.852 0.49878 440.803 0.511501ZM204.725 2.37542C204.462 2.46958 203.987 2.81614 202.397 2.71067C202.246 2.70074 203.06 2.46241 202.182 2.42449C203.041 2.39934 203.878 2.3912 204.725 2.37506C204.725 2.37518 204.725 2.3753 204.725 2.37542ZM447.696 2.72129C446.506 2.7039 445.312 2.68668 444.122 2.66929C444.943 2.62738 445.765 2.58555 446.583 2.54332C446.955 2.60261 447.324 2.662 447.696 2.72129ZM299.585 2.55669C299.586 2.55669 299.588 2.55669 299.589 2.55669C298.338 2.6014 297.086 2.64619 295.836 2.6909C295.967 2.65799 296.099 2.62494 296.231 2.59203C297.218 2.54019 298.206 2.48842 299.19 2.43658C299.322 2.47662 299.454 2.51665 299.585 2.55669ZM309.467 2.20825C310.265 2.24738 310.07 2.31335 310.509 2.37762C310.509 2.3775 310.509 2.37738 310.509 2.37725C310.625 2.39398 311.165 2.40862 311.374 2.41113C311.297 2.36983 311.197 2.32907 311.114 2.28809C312.977 2.18811 316.621 2.54337 311.904 2.6865C311.974 2.63435 312.042 2.58247 312.112 2.53032C309.768 2.54491 307.154 2.4318 309.467 2.20825ZM185.875 2.52556C183.874 2.69632 183.232 2.73233 180.804 2.61528C181.147 2.56688 181.49 2.51848 181.833 2.47008C182.234 2.51945 182.632 2.56848 183.033 2.61784C183.034 2.61784 183.035 2.61784 183.036 2.61784C183.116 2.56599 183.197 2.51406 183.274 2.46221C184.139 2.48332 185.009 2.50445 185.875 2.52556ZM386.07 2.33166C386.628 2.67271 386.467 2.47447 384.874 2.55138C384.322 2.57808 384.86 2.63775 384.516 2.64769C382.663 2.70195 382.515 2.47345 382.929 2.35455C383.978 2.34648 385.037 2.33911 386.067 2.33166C386.068 2.33166 386.069 2.33166 386.07 2.33166ZM434.149 2.2608C434.15 2.2608 434.151 2.2608 434.152 2.2608C434.2 2.34399 433.453 2.36637 434.296 2.44518C433.655 2.44487 433.014 2.44421 432.37 2.4439C432.559 2.43615 432.752 2.42876 432.94 2.42101C432.774 2.39245 432.606 2.36352 432.44 2.33496C432.212 2.43058 432.001 2.37499 431.327 2.34301C431.513 2.44516 431.698 2.54737 431.884 2.64952C431.102 2.6191 430.317 2.58857 429.534 2.55815C429.525 2.53241 429.515 2.50663 429.505 2.48089C429.211 2.51378 428.918 2.54704 428.624 2.57994C428.543 2.54921 428.466 2.51876 428.386 2.48803C428.03 2.5113 427.674 2.53456 427.318 2.55815C427.21 2.48371 427.994 2.45154 426.604 2.47045C427.03 2.39408 427.456 2.31795 427.885 2.24158C429.973 2.24779 432.061 2.25428 434.149 2.2608ZM371.576 2.43658C373.875 2.4223 373.228 2.47625 372.695 2.64512C372.323 2.5756 371.948 2.5061 371.576 2.43658ZM253.113 2.28625C252.446 2.40144 251.776 2.51548 251.093 2.62663C249.733 2.6909 248.373 2.48095 249.396 2.39868C250.627 2.29995 251.913 2.41044 253.113 2.28625ZM222.143 2.33752C223.806 2.39093 222.241 2.5278 221.866 2.60759C221.406 2.47936 220.764 2.49067 219.733 2.47576C220.701 2.46745 221.868 2.32845 222.143 2.33715C222.143 2.33728 222.143 2.3374 222.143 2.33752ZM279.886 2.4157C280.552 2.41226 281.216 2.38009 281.812 2.41918C281.632 2.52933 280.439 2.42912 281.292 2.59239C280.866 2.59518 280.439 2.59789 280.016 2.601C280.285 2.53335 279.923 2.48279 279.888 2.41607C279.887 2.41595 279.886 2.41583 279.886 2.4157ZM349.298 2.56639C347.989 2.43599 347.741 2.49179 346.423 2.58214C346.238 2.47597 347.809 2.29812 348.794 2.25897C348.96 2.36142 349.128 2.46394 349.298 2.56639ZM39.8063 2.51201C40.1205 2.37668 42.4384 2.35903 43.59 2.39904C43.4529 2.41911 43.3153 2.43945 43.1782 2.45983C42.0557 2.47722 40.9288 2.49463 39.8063 2.51201ZM219.243 2.4666C219.415 2.47057 219.579 2.47353 219.733 2.47576C219.561 2.47723 219.396 2.47493 219.243 2.4666ZM149.578 1.87923C150.126 1.75164 148.496 1.70877 150.475 1.75875C150.475 1.75863 150.475 1.75851 150.475 1.75839C151.783 1.7913 152.072 1.80009 153.284 1.81002C152.848 1.97393 150.389 2.03252 153.778 2.06636C153.823 2.06651 153.734 1.96897 154.276 1.98231C154.443 1.98646 154.978 2.06651 155.792 2.08979C156.054 2.09724 158.031 2.12193 155.337 2.12348C155.417 2.23774 155.272 2.35338 155.279 2.46422C154.227 2.49644 153.419 2.27271 152.307 2.2782C150.655 2.28689 149.815 2.51313 149.497 2.21631C150.886 2.14339 153.271 2.14163 153.582 2.32013C154.925 2.3223 155.311 2.17606 154.228 2.10371C149.587 2.19561 152.954 1.88663 148.891 2.00337C148.843 2.04465 148.675 2.08908 148.701 2.12788C147.461 1.98261 149.382 1.92487 149.578 1.87923ZM159.281 2.19489C158.479 2.28213 157.68 2.37008 156.882 2.45763C156.882 2.31544 157.322 2.18784 158.586 2.10774C158.816 2.1369 159.051 2.16604 159.281 2.19489ZM91.838 2.23224C91.7225 2.30955 91.4148 2.38039 91.1903 2.45397C90.9466 2.38877 85.1738 2.32622 88.1107 2.26227C88.5372 2.25295 91.1388 2.38965 91.838 2.23224ZM358.383 2.44994C357.703 2.39809 357.026 2.34616 356.349 2.29431C357.391 2.26142 358.433 2.22767 359.475 2.19416C359.11 2.2794 358.748 2.3647 358.383 2.44994ZM242.046 2.15058C242.333 2.15348 241.379 2.2598 242.51 2.24304C241.667 2.31104 240.877 2.36859 240.053 2.43255C239.806 2.38225 239.556 2.33216 239.309 2.28186C239.117 2.31415 238.921 2.34624 238.728 2.37853C238.844 2.30526 238.947 2.2337 239.068 2.15919C240.457 2.31629 240.776 2.13816 242.046 2.15058ZM283.336 1.86403C283.586 2.02328 281.575 2.11798 283.553 2.14344C283.178 2.24806 282.575 2.30294 281.417 2.31225C281.231 2.27224 281.046 2.23252 280.86 2.19251C280.834 2.29958 280.536 2.33938 279.886 2.4157C279.885 2.41558 279.885 2.41546 279.884 2.41534C278.124 2.42309 278.229 2.38739 277.806 2.21137C279.669 2.31072 279.725 2.1499 280.995 2.05427C281.867 1.98851 283.006 2.01829 283.336 1.86403ZM97.9886 2.23041C96.671 2.36483 97.8535 2.49022 95.5157 2.34741C95.6665 2.31326 95.8179 2.27939 95.9686 2.24524C96.6419 2.23996 97.3153 2.23507 97.9886 2.23041ZM289.839 2.40984C289.688 2.16334 288.448 1.97146 288.236 2.37249C289.445 2.45415 288.854 2.22699 289.839 2.40984ZM222.71 1.95155C225.035 1.96306 224.595 2.24128 223.64 2.38037C223.492 2.32976 223.345 2.27906 223.201 2.22876C222.793 2.25174 222.386 2.27476 221.979 2.29742C222.222 2.18224 222.466 2.06674 222.71 1.95155ZM330.825 2.13904C329.049 2.31509 332.743 2.23695 331.502 2.34686C330.511 2.43471 329.205 2.25733 329.699 2.14619C330.042 2.14308 330.424 2.14091 330.822 2.13904C330.823 2.13904 330.824 2.13904 330.825 2.13904ZM320.544 2.1894C320.836 2.37748 320.415 2.32266 321.819 2.28882C322.22 2.27919 325.405 2.34983 324.068 2.19397C322.93 2.19397 321.727 2.19126 320.544 2.1894ZM195.836 2.22675C195.815 2.14484 198.268 1.96498 198.583 2.00996C198.583 2.00984 198.583 2.00972 198.583 2.0096C199.433 2.13223 196.845 2.14966 197.967 2.31793C195.482 2.16986 194.739 2.52802 194.912 2.0561C196.376 2.0354 195.683 2.13268 195.836 2.22675ZM9.37279 2.12641C9.37165 2.12641 9.37051 2.12641 9.36937 2.12641C9.53409 2.13026 10.8914 2.25047 10.7263 2.29211C9.09412 2.25641 9.38499 2.17728 7.86547 2.30731C7.78217 2.26543 7.71079 2.22481 7.62108 2.18262C8.224 2.15778 8.55821 2.10747 9.37279 2.12641ZM85.5968 2.06709C86.1965 2.04566 87.2909 2.13444 87.974 2.12916C85.7997 2.47006 83.2014 2.15217 85.5968 2.06709ZM411.662 2.27252C411.66 2.27264 411.659 2.27277 411.657 2.27289C411.657 2.2727 411.658 2.27252 411.659 2.27234C411.66 2.2724 411.661 2.27246 411.662 2.27252ZM132.069 2.27161C131.992 2.24948 131.948 2.23025 131.932 2.21338C131.932 2.21179 131.932 2.21021 131.932 2.20862C131.974 2.22934 132.019 2.2503 132.069 2.27161ZM190.738 2.25147C189.717 2.13723 193.121 1.95563 194.221 1.99898C194.144 2.05111 194.132 2.09838 193.953 2.15827C193.065 2.02325 190.908 2.27071 190.738 2.25147ZM268.343 2.20954C265.653 2.20643 269.154 1.7554 269.299 2.11524C269.293 2.12221 268.413 2.20892 268.343 2.20954ZM211.957 2.20423C212.643 2.06767 211.265 2.03141 213.468 2.055C213.596 2.09037 213.724 2.12583 213.852 2.1612C213.221 2.17548 212.589 2.18995 211.957 2.20423ZM250.717 1.6174C247.33 1.69347 244.092 1.82766 246.297 2.20423C246.554 2.19213 246.814 2.18044 247.07 2.16834C247.108 1.98462 248.054 2.08491 249.439 2.09089C249.636 2.01795 250.404 2.00109 250.548 1.9391C250.826 1.81929 249.944 1.73505 250.717 1.6174ZM393.689 1.9164C393.634 1.94776 393.581 1.97928 393.526 2.01033C392.991 2.04572 392.454 2.08095 391.918 2.11634C392.005 2.05616 392.091 1.99599 392.178 1.93581C392.681 1.92929 393.182 1.92273 393.685 1.91622C393.686 1.91628 393.687 1.91634 393.689 1.9164ZM162.581 1.80727C162.274 2.15243 163.349 2.08886 165.529 1.91439C164.548 1.87868 163.563 1.84298 162.581 1.80727ZM305.134 1.75729C305.205 1.85535 305.274 1.9531 305.348 2.05116C306.506 1.94901 306.291 1.83672 305.736 1.70694C305.534 1.72369 305.336 1.74054 305.134 1.75729ZM321.811 1.71554C321.33 1.69509 321.575 1.77426 321.525 1.77267C320.31 1.73106 320.138 1.69475 318.647 1.75436C318.464 1.77516 318.285 1.79703 318.102 1.81844C318.791 2.02391 319.292 1.91193 320.751 2.03267C320.488 1.96219 320.226 1.89161 319.963 1.82082C320.774 1.83572 321.582 1.85042 322.393 1.86532C322.489 1.84358 322.586 1.82205 322.682 1.80032C322.394 1.77238 322.096 1.74099 321.811 1.71554ZM399.882 2.00557C400.671 2.01364 401.463 2.02203 402.252 2.0301C402.281 1.9795 402.309 1.92855 402.338 1.87795C401.52 1.92047 400.699 1.96304 399.882 2.00557ZM146.384 1.96455C146.321 1.9825 146.26 2.00057 146.206 2.01893C146.211 1.99655 146.279 1.97907 146.384 1.96455ZM7.29125 1.84884C6.39665 1.81345 5.1075 1.83668 4.12622 1.82925C4.20336 1.9562 6.69744 1.9211 7.57323 1.99806C7.71396 1.97528 7.6694 1.86373 7.29125 1.84884ZM225.926 1.96272C226.151 1.89939 226.375 1.83636 226.596 1.77303C227.138 1.77987 227.682 1.78708 228.227 1.79391C228.243 1.74206 228.259 1.68976 228.275 1.63791C225.873 1.70527 226.427 1.55576 225.238 1.40831C225.468 1.59301 225.696 1.77771 225.926 1.96272ZM424.983 1.67673C423.248 1.71181 422.633 1.77734 423.611 1.93288C424.223 1.89719 424.839 1.86146 425.452 1.82577C425.295 1.7761 425.137 1.72639 424.983 1.67673ZM114.786 1.84737C113.334 1.90549 113.31 1.69674 111.891 1.81332C112.651 1.85181 113.411 1.89073 114.168 1.92922C114.372 1.902 114.582 1.87459 114.786 1.84737ZM185.993 1.2741C185.38 1.20148 184.235 1.54667 182.513 1.29186C182.103 1.36791 181.846 1.44055 181.493 1.51505C181.288 1.43402 181.054 1.35195 180.859 1.27153C180.858 1.27153 180.857 1.27153 180.855 1.27153C179.294 1.29886 180.306 1.40049 180.271 1.48649C180.254 1.52214 179.095 1.46254 179.457 1.54014C180.083 1.67333 182.42 1.59674 182.426 1.75912C181.605 1.70605 180.002 1.7504 180.476 1.85872C180.996 1.97763 182.506 1.77836 183.468 1.87703C182.09 1.61751 184.937 1.69767 185.261 1.89699C186.932 1.74393 185.396 1.68149 183.684 1.68863C184.729 1.53588 183.19 1.6184 182.937 1.49143C184.015 1.41479 187.715 1.47868 185.993 1.2741ZM264.821 1.55552C263.666 1.56537 261.862 1.47806 261.072 1.60697C260.611 1.68207 262.42 1.74023 261.172 1.85817C262.298 1.84668 262.554 1.8006 262.362 1.69723C262.618 1.68482 262.878 1.67272 263.134 1.66061C263.253 1.68078 263.375 1.70068 263.493 1.72085C263.628 1.67832 263.763 1.63613 263.895 1.5936C264.167 1.60198 264.443 1.61036 264.715 1.61905C264.747 1.59767 264.802 1.57905 264.821 1.55552ZM73.099 1.85378C73.4196 1.85254 73.7371 1.8513 74.0577 1.84975C74.0224 1.82458 73.9803 1.79836 73.9398 1.77249C73.9108 1.75204 73.8817 1.73159 73.8527 1.71115C74.0385 1.7842 75.5659 1.90561 76.2094 1.8276C76.5329 1.78846 75.7967 1.64953 77.1681 1.62528C76.1742 1.63242 75.2535 1.65138 74.2885 1.66318C74.375 1.62188 74.4582 1.58015 74.5448 1.53885C74.5442 1.53879 74.5437 1.53873 74.5431 1.53867C74.2225 1.52936 73.8981 1.5196 73.5775 1.51029C73.4172 1.62486 73.2593 1.73921 73.099 1.85378ZM304.194 1.56339C303.101 1.64442 302.735 1.68651 303.251 1.81753C303.252 1.81759 303.253 1.81765 303.254 1.81771C303.662 1.75966 304.069 1.70163 304.476 1.64359C304.383 1.61688 304.291 1.59009 304.194 1.56339ZM136.964 1.53208C134.639 2.02976 139.875 1.72467 138.878 1.55515C138.833 1.54739 137.182 1.58703 136.964 1.53208ZM222.283 1.79849C222.921 1.79445 223.561 1.7908 224.202 1.78677C224.055 1.7256 223.903 1.66465 223.756 1.60349C223.265 1.66838 222.774 1.7336 222.283 1.79849ZM417.43 1.45079C416.758 1.31417 415.034 1.26468 414.191 1.41325C414.634 1.43064 415.077 1.44805 415.519 1.46543C414.682 1.4825 413.855 1.50129 413.012 1.51743C412.967 1.70776 413.939 1.59734 415.401 1.64981C415.628 1.65827 417.075 1.89452 417.575 1.71646C417.676 1.67986 416.136 1.65497 417.206 1.54856C416.738 1.54018 416.334 1.54204 415.892 1.53739C415.86 1.49206 415.828 1.44668 415.793 1.40135C416.34 1.41776 416.883 1.43437 417.43 1.45079ZM258.098 1.57035C256.512 1.55984 256.316 1.63589 255.986 1.77029C256.723 1.75508 257.461 1.74009 258.199 1.72488C258.164 1.67348 258.133 1.62206 258.098 1.57035ZM403.252 1.40721C402.384 1.38523 402.756 1.49462 402.406 1.51542C401.085 1.59365 400.184 1.51546 398.879 1.56449C398.965 1.54338 399.045 1.52364 399.128 1.50315C399.127 1.50315 399.126 1.50315 399.125 1.50315C392.945 1.41095 396.191 1.65905 399.889 1.61868C399.975 1.65936 400.059 1.70008 400.145 1.74044C401.8 1.66935 403.326 1.60094 403.252 1.40721ZM157.62 1.51505C157.55 1.48959 158.149 1.3278 157.024 1.40355C156.132 1.63977 157.594 1.52252 157.96 1.61337C157.656 1.63604 157.344 1.65809 157.042 1.68075C158.864 1.74751 159.13 1.69134 158.466 1.51871C158.419 1.50711 157.691 1.54043 157.62 1.51505ZM145.649 1.3986C145.399 1.74665 147.697 1.59014 147.614 1.48209C147.297 1.47779 147.05 1.53672 146.713 1.51066C146.373 1.48458 146.287 1.40328 145.649 1.3986ZM211.511 1.48374C211.444 1.48219 210.767 1.33591 210.834 1.45042C211.671 1.72147 213.358 1.547 213.063 1.45262C212.505 1.45728 212.133 1.49796 211.511 1.48338C211.511 1.4835 211.511 1.48362 211.511 1.48374ZM427.892 1.36876C427.86 1.35905 426.172 1.30025 425.954 1.35484C425.775 1.41631 425.686 1.48218 425.551 1.54581C426.481 1.48682 428.363 1.53176 427.889 1.36876C427.89 1.36876 427.891 1.36876 427.892 1.36876Z" fill="black"/>
</svg>
