<svg width="588" height="4" viewBox="0 0 588 4" fill="none" xmlns="http://www.w3.org/2000/svg">
<path d="M539.174 3.20998C540.502 3.34526 536.067 3.25658 539.012 3.45862C538.398 3.47227 537.78 3.48635 537.166 3.5C537.01 3.42517 536.851 3.35053 536.695 3.27571C537.52 3.25367 538.345 3.23164 539.174 3.20961C539.174 3.20973 539.174 3.20985 539.174 3.20998ZM540.3 2.27289C539.544 2.48631 537.143 2.54321 539.737 2.74015C539.943 2.66691 540.154 2.59368 540.36 2.52043C541.261 2.57724 542.167 2.63403 543.067 2.69053C543.391 2.66261 543.715 2.63465 544.039 2.60704C544.451 2.73432 544.86 2.86194 545.272 2.98953C544.906 2.9709 544.535 2.95195 544.169 2.93332C542.721 3.03667 541.433 3.06494 539.467 3.08419C539.64 3.1143 539.813 3.14416 539.986 3.17427C538.988 3.12305 537.991 3.07169 536.998 3.02047C537.86 2.97019 538.825 2.91427 539.624 2.8674C538.345 2.66784 536.089 2.77891 534.914 2.82053C533.315 2.87734 533.676 2.78245 532.489 2.82218C532.3 2.82839 532.278 2.90276 531.904 2.90402C530.014 2.90992 526.343 2.8705 528.49 2.69694C531.601 2.71929 534.253 2.57992 537.305 2.63084C536.498 2.43016 538.105 2.36187 540.3 2.27289ZM483.156 2.91189C484.099 2.81443 486.018 2.85376 487.319 2.92142C487.32 2.92142 487.322 2.92142 487.323 2.92142C487.61 2.93632 488.258 3.06585 487.323 3.06057C485.8 3.05152 485.064 2.84763 484.264 2.98605C483.906 2.96028 483.531 2.93735 483.156 2.91189ZM479.845 2.92398C478.911 2.87399 479.335 2.72036 480.505 2.76194C480.505 2.76182 480.505 2.76169 480.505 2.76157C480.993 2.77896 480.034 2.9004 481.785 2.77714C482.143 2.87303 482.495 2.96027 482.849 3.05306C482.42 3.05461 482.029 3.05713 481.579 3.05837C481.882 2.90075 480.779 2.97357 479.845 2.92398ZM526.911 2.78373C526.764 2.92553 527.379 2.92463 528.427 3.02303C527.438 3.01838 526.449 3.01341 525.464 3.00875C525.948 2.93365 526.427 2.85883 526.911 2.78373ZM550.146 2.8057C550.148 2.8057 550.149 2.8057 550.151 2.8057C550.475 2.78335 550.8 2.76091 551.12 2.73887C551.314 2.78948 551.505 2.83986 551.699 2.89047C552.844 2.84297 553.995 2.79547 555.139 2.74766C555 2.90225 552.945 2.87709 551.813 2.98513C550.13 2.93856 549.318 2.84883 549.209 2.71781C549.52 2.74698 549.831 2.77653 550.146 2.8057ZM274.805 2.1894C274.422 2.23223 274.043 2.2751 273.661 2.31793C274.17 2.33748 274.675 2.3524 275.188 2.37506C276.531 2.18879 276.657 2.35356 278.416 2.3421C283.808 2.30671 282.377 2.01741 287.247 2.44115C283.337 2.421 284.84 2.62011 282.482 2.77347C281.994 2.65673 284.33 2.39345 282.747 2.3388C280.02 2.46235 277.398 2.57742 274.372 2.65721C274.46 2.67739 274.548 2.69763 274.636 2.71781C275.116 2.70508 275.592 2.69227 276.072 2.67955C275.554 2.73357 275.048 2.78712 274.522 2.84177C275.187 2.71914 273.492 2.78766 273.719 2.64677C273.82 2.58405 274.569 2.49705 275.011 2.43713C273.87 2.40453 272.701 2.37468 271.548 2.34301C272.145 2.29305 272.742 2.24302 273.335 2.19306C273.823 2.19151 274.308 2.1904 274.796 2.18885C274.799 2.18903 274.802 2.18921 274.805 2.1894ZM29.3354 2.8414C30.7834 2.69548 33.4146 2.67133 34.7995 2.83371C32.9769 2.8362 31.158 2.83892 29.3354 2.8414ZM549.099 2.60979C549.263 2.63459 549.422 2.65913 549.586 2.68394C548.862 2.72988 548.134 2.7755 547.41 2.82144C547.271 2.74976 547.129 2.67805 546.986 2.60667C547.689 2.6076 548.396 2.60885 549.099 2.60979ZM502.789 2.68962C503.319 2.68528 503.366 2.68763 504.025 2.69785C504.024 2.69779 504.024 2.69773 504.023 2.69767C504.284 2.70149 506.472 2.74336 506.228 2.79856C505.142 2.79949 503.983 2.79856 502.872 2.79856C502.838 2.76225 502.831 2.72623 502.789 2.68962ZM515.572 2.72184C515.574 2.72196 515.575 2.72208 515.577 2.72221C515.972 2.73059 516.346 2.74766 516.754 2.75077C515.286 2.83764 515.054 2.68179 513.72 2.72587C512.386 2.77026 511.561 2.85626 510.429 2.64274C510.85 2.61076 511.303 2.56501 511.737 2.52776C513.631 2.61313 514.141 2.53279 515.66 2.44866C515.63 2.53993 515.602 2.63057 515.572 2.72184ZM298.81 2.62132C299.171 2.51577 299.575 2.61934 299.617 2.62059C299.616 2.62071 299.616 2.62083 299.615 2.62095C302.821 2.5232 299.198 2.67938 302.223 2.69584C301.773 2.72222 301.33 2.75008 300.884 2.77677C300.194 2.72587 299.483 2.66819 298.81 2.62132ZM402.983 2.63121C403.012 2.66194 403.048 2.69275 403.077 2.72349C401.259 2.71635 400.795 2.83735 399.284 2.72715C400.517 2.69487 401.75 2.66281 402.983 2.63084C402.983 2.63096 402.983 2.63109 402.983 2.63121ZM493.624 2.46605C495.64 2.40737 497.132 2.38152 499.068 2.47466C499.07 2.47478 499.071 2.4749 499.072 2.47503C499.184 2.48076 498.644 2.54507 498.79 2.56126C499.189 2.55165 499.602 2.53686 500.006 2.52538C500.06 2.57687 500.112 2.62836 500.167 2.67955C499.031 2.66495 497.894 2.65038 496.753 2.63579C496.922 2.6659 497.094 2.69575 497.262 2.72587C496.294 2.74139 495.33 2.75685 494.362 2.77237C494.699 2.68796 495.035 2.60352 495.367 2.51879C494.786 2.5011 494.205 2.48405 493.624 2.46605ZM372.711 2.29486C373.031 2.32839 372.439 2.38463 372.935 2.41351C373.432 2.44201 374.348 2.37944 374.133 2.47411C373.464 2.48683 372.762 2.50142 372.081 2.51476C374.273 2.68547 376.461 2.531 376.495 2.7418C374.39 2.68716 372.66 2.71254 370.623 2.77091C370.707 2.60358 372.745 2.4589 371.462 2.30182C371.874 2.29964 372.307 2.29647 372.706 2.29523C372.708 2.2951 372.71 2.29498 372.711 2.29486ZM578.555 0.511501C579.801 0.52423 582.655 0.45594 584.229 0.55343C584.617 0.577455 585.907 0.88867 585.901 0.929693C585.863 1.06785 584.287 1.08666 585.975 1.17669C585.407 1.17762 584.856 1.18281 584.292 1.1853C584.393 1.27813 584.494 1.37071 584.591 1.46324C585.277 1.44926 585.964 1.43522 586.65 1.42094C586.683 1.45168 586.717 1.48248 586.751 1.51322C584.284 1.51384 585.74 1.63248 584.461 1.74301C585.639 1.79888 586.826 1.85448 588 1.91036C587.322 1.90353 586.523 1.89847 585.925 1.8904C585.845 2.0478 587.271 2.01027 587.515 2.03944C588.892 2.20429 581.885 2.12109 581.311 2.35015C582.431 2.37561 583.605 2.40045 584.75 2.42559C584.421 2.45384 584.089 2.48211 583.761 2.51036C581.164 2.35237 578.252 2.2964 575.226 2.198C574.953 2.20452 574.679 2.2112 574.409 2.21741C574.489 2.28848 574.565 2.35928 574.645 2.43035C574.233 2.43873 573.815 2.44705 573.402 2.45544C574.618 2.22136 572.934 2.22455 570.901 2.08174C571.983 1.99947 573.317 2.04935 573.225 1.89608C569.513 2.014 565.166 1.84735 561.555 1.98048C560.658 2.01339 560.661 2.21111 558.553 2.19287C558.625 2.17114 558.637 2.1319 558.683 2.10334C555.038 2.19804 552.827 2.25465 549.038 2.15809C549.257 2.22915 549.472 2.30051 549.691 2.37158C550.495 2.33618 551.3 2.30023 552.1 2.26483C552.647 2.38218 551.839 2.43397 554.238 2.43273C556.203 2.4318 555.033 2.37998 555.568 2.34521C556.292 2.29774 556.927 2.39113 557.705 2.33807C558.308 2.2974 557.656 2.20057 559.226 2.2251C558.595 2.35053 557.951 2.48005 557.315 2.60704C556.932 2.57879 556.552 2.5501 556.169 2.52153C556.556 2.488 556.937 2.45491 557.324 2.42138C555.961 2.48161 554.672 2.53841 553.262 2.60081C553.721 2.41949 552.263 2.48748 551.472 2.5089C550.239 2.54239 551.295 2.41761 550.487 2.43841C549.679 2.45953 548.808 2.59894 547.347 2.56914C548.13 2.48843 547.065 2.41605 547.271 2.34155C547.477 2.26705 549.022 2.25055 547.538 2.16926C544.684 2.23104 547.781 2.51475 545.853 2.56072C543.538 2.61598 542.988 2.1535 543.678 2.05409C544.221 1.97585 546.089 1.99158 546.636 1.91365C543.29 1.77301 543.261 2.05066 542.688 2.10499C540.609 2.30275 542.006 1.77492 539.544 1.96584C539.59 1.86713 539.627 1.77835 539.674 1.68368C539.249 1.70169 538.967 1.72562 538.454 1.73989C539.967 1.93222 538.728 1.92397 538.092 1.92427C537.091 1.92489 538.638 2.0187 538.373 2.04292C537.657 2.10772 536.526 2.0783 537.22 2.16303C536.908 2.1236 536.571 2.08405 536.251 2.04493C535.08 2.09406 532.33 2.50604 534.948 2.42284C534.704 2.57591 533.857 2.50234 533.196 2.47905C532.535 2.45579 532.547 2.55327 531.967 2.53527C529.656 2.46323 531.168 2.29648 531.534 2.16578C528.482 2.25581 531.47 2.31538 527.072 2.37561C526.647 2.4821 528.679 2.59573 526.987 2.65721C526.675 2.4722 525.43 2.3393 523.001 2.27783C522.765 2.32037 522.53 2.36328 522.295 2.40582C520.969 2.23505 521.647 2.05748 519.193 2.26923C520.51 1.87959 519.604 2.12886 517.407 1.97023C516.961 1.93825 517.992 1.85741 517.369 1.81643C517.087 1.79795 516.401 1.85897 515.711 1.81185C515.375 1.78857 513.8 1.63833 512.71 1.70968C513.51 1.89845 511.439 2.05904 513.215 2.21521C509.932 2.17671 507.634 2.26735 511.313 2.00996C510.479 1.95283 509.645 1.89595 508.812 1.83913C508.231 1.88415 507.645 1.92882 507.06 1.97353C506.972 1.81838 507.06 1.77486 504.772 1.80215C505.765 1.76553 506.754 1.7283 507.751 1.69137C507.784 1.66004 507.923 1.62748 507.89 1.59708C506.669 1.65667 503.23 1.68231 502.397 1.7236C501.563 1.76489 503.173 1.77619 502.933 1.81625C500.934 2.14652 501.092 1.90293 499.658 1.95961C498.816 1.99314 500.826 2.02955 500.376 2.04383C498.706 2.09618 497.931 1.92065 496.45 1.91841C496.976 2.01805 497.498 2.11923 498.012 2.21979C496.458 2.21451 494.727 2.21363 493.283 2.24561C492.716 2.25809 493.145 2.33219 493.052 2.33715C492.593 2.36261 490.724 2.40294 490.526 2.40325C489.037 2.40384 488.995 2.30121 487.548 2.29559C488.116 2.2869 488.65 2.27907 489.205 2.27069C489.458 2.1043 489.715 1.93791 489.968 1.7712C488.55 1.7591 487.131 1.74724 485.708 1.73513C486.748 1.7907 487.791 1.846 488.831 1.90157C487.206 2.036 485.581 2.17074 483.957 2.30548C483.111 2.2229 482.268 2.14033 481.422 2.05775C479.124 2.07953 479.587 2.41476 478.497 2.1211C477.82 2.14593 477.142 2.17074 476.465 2.19526C476.562 2.15335 476.658 2.11137 476.754 2.06947C475.938 2.09524 475.122 2.12084 474.305 2.14692C475.163 2.29531 476.005 2.45146 476.855 2.5955C475.248 2.62775 475.217 2.50186 474.978 2.47045C474.342 2.38724 473.081 2.49948 472.576 2.42248C472.405 2.39604 473.98 2.31317 473.437 2.21759C473.331 2.19907 471.222 1.84773 469.877 1.92885C469.902 1.9925 470.006 2.07054 470.061 2.13978C468.252 2.17844 467.329 1.8462 467.569 1.75308C466.605 1.81827 465.196 1.82372 464.999 1.92555C464.506 1.92804 464.017 1.93039 463.525 1.93288C464.038 1.68486 461.984 1.73021 461.849 1.9435C462.695 1.94878 463.542 1.95433 464.388 1.95961C463.749 2.22103 466.32 2.37882 460.97 2.13666C459.947 2.00067 462.788 2.15519 461.955 2.05336C460.507 1.99408 459.148 2.04368 457.771 1.94899C456.059 1.83071 458.166 1.71694 454.176 1.86751C462.977 2.24473 452.969 2.12234 448.835 2.23938C447.699 1.86681 444.208 1.7488 439.401 1.85964C439.902 1.96333 441.414 1.90991 442.285 1.94405C443.157 1.97819 442.214 2.03971 443.299 2.08814C444.385 2.13656 446.691 2.20239 447.79 2.27563C446.859 2.33432 442.264 2.47307 445.302 2.30639C443.035 2.20365 441.969 2.09807 439.159 2.07881C438.317 2.24056 438.379 2.34128 435.639 2.34594C437.26 2.12118 434.146 1.96496 434.832 1.73275C436.775 1.78684 435.689 2.01253 436.812 2.12055C436.928 2.13135 438.738 2.07477 439.159 2.07881C437.332 1.87607 436.7 1.8006 437.824 1.55936C436.532 1.58047 435.728 1.55019 435.61 1.66537C435.341 1.6154 435.07 1.56539 434.805 1.51542C434.384 1.51666 434.006 1.52129 433.56 1.52036C434.174 1.69412 432.984 1.58715 432.138 1.66592C431.292 1.74478 432.427 1.88195 430.104 1.88381C430.878 1.92448 431.586 1.95938 432.335 1.99788C430.837 2.04258 429.334 2.08757 427.836 2.13227C428.888 2.23844 431.169 2.39613 431.106 2.53581C430.416 2.48308 428.052 2.57576 427.793 2.57957C426.791 2.59386 427.337 2.50576 427.262 2.50359C425.688 2.46078 424.392 2.49077 423.794 2.3573C422.611 2.41752 421.719 2.38318 420.465 2.38659C419.775 2.38845 419.909 2.48649 419.505 2.46789C416.82 2.3437 419.378 2.21701 414.198 2.45818C414.825 2.52648 415.444 2.59635 416.071 2.66526C415.486 2.69103 414.904 2.71694 414.319 2.74271C413.928 2.73029 413.54 2.71778 413.148 2.70536C413.157 2.55728 413.167 2.40889 413.175 2.2608C412.746 2.25273 412.315 2.24489 411.886 2.23682C412.622 2.22223 413.361 2.20765 414.097 2.19306C414.164 2.167 414.227 2.14093 414.295 2.11488C413.2 2.07451 412.11 2.03379 411.015 1.99312C410.994 2.04463 410.974 2.0965 410.953 2.14802C408.486 2.0763 408.427 2.03269 406.083 2.17457C404.277 2.17301 402.807 2.3884 401.763 2.47905C401.388 2.45019 401.013 2.42095 400.635 2.39208C400.395 2.43493 400.152 2.47759 399.912 2.52043C399.437 2.46083 398.954 2.40121 398.479 2.34192C398.214 2.47721 398.077 2.51945 399.932 2.56694C399.297 2.73521 396.03 2.66098 394.699 2.60448C393.69 2.5616 394.81 2.42124 394.684 2.40417C394.262 2.34617 392.599 2.39621 392.25 2.38659C390.773 2.34654 389.738 2.35355 388.403 2.32251C388.144 2.31629 387.417 2.22734 387.356 2.22455C386.876 2.20934 385.691 2.1661 385.557 2.16486C378.609 2.09846 386.033 2.48438 379.572 2.44372C379.766 2.49461 379.944 2.54516 380.133 2.59605C379.645 2.59916 379.152 2.60211 378.664 2.60521C378.045 2.56267 378.794 2.48532 377.565 2.54772C377.645 2.485 377.725 2.42226 377.809 2.35986C377.275 2.3937 376.76 2.42727 376.212 2.46111C375.354 2.24348 372.219 2.19405 372.442 1.93855C372.517 1.85162 374.74 1.76242 373.566 1.66959C372.611 1.65131 373.257 1.75514 372.868 1.76058C370.056 1.79846 370.22 1.65293 369.07 1.69174C368.89 1.75411 368.699 1.8177 368.514 1.8807C368.081 1.86239 367.646 1.84408 367.209 1.82577C367.108 1.86768 367.002 1.90964 366.901 1.95155C367.31 1.95435 367.769 1.95718 368.144 1.95998C367.622 2.12232 362.825 2.19524 364.654 2.05683C365.399 2.00065 366.763 2.02452 365.901 1.83272C364.617 1.86036 363.161 1.88859 361.81 1.91622C361.768 1.87492 361.729 1.83355 361.686 1.79226C359.866 1.81899 361.522 1.98409 361.518 2.07258C361.102 2.07506 360.681 2.07724 360.264 2.07972C360.088 2.03971 359.92 1.99783 359.735 1.95906C359.718 2.02273 359.485 2.17073 358.243 2.11579C357.445 2.08003 358.702 1.91939 357.18 1.94167C357.294 2.041 357.844 2.16198 356.148 2.19397C355.98 2.0903 355.747 1.99532 355.617 1.88637C353.508 1.98597 352.549 1.82587 350.074 1.94167C348.504 2.01494 346.354 2.27505 345.339 1.87429C344.191 1.86374 344.555 1.96354 344.215 1.98598C342.612 2.09216 341.419 1.90213 341.12 1.89095C339.214 1.8193 338.36 1.88508 336.807 1.79537C336.891 1.86958 336.937 1.93982 337.004 2.01216C338.427 1.90101 339.147 1.90622 341.142 1.93013C340.473 1.94503 339.804 1.96027 339.135 1.97517C339.244 2.03539 339.353 2.09562 339.458 2.15552C345.629 1.91832 344.189 2.29309 339.016 2.37506C338.57 2.26362 338.108 2.15247 337.666 2.04072C334.677 2.20961 333.271 2.063 329.891 2.02791C329.49 2.02389 328.026 2.08809 327.397 2.09126C327.407 2.09168 327.418 2.09211 327.429 2.09254C327.037 2.19777 327.567 2.24621 327.63 2.34027C327.289 2.35206 326.948 2.36381 326.608 2.37561C325.846 2.30391 326.114 2.24501 324.616 2.26209C324.818 2.33349 325.017 2.40491 325.219 2.47631C323.578 2.47879 322.503 2.40121 320.975 2.43475C321.232 2.40773 321.486 2.38065 321.742 2.35363C318.417 2.28471 321.063 1.86491 318.551 2.07386C318.391 2.03724 318.235 2.00026 318.075 1.96364C319.11 1.95464 320.146 1.94591 321.177 1.93691C321.198 1.88508 321.221 1.83347 321.238 1.78164C320.131 1.79716 319.018 1.81317 317.911 1.8287C318.719 1.79392 319.532 1.7591 320.34 1.72433C319.057 1.6995 317.773 1.67465 316.489 1.64981C317.852 1.8404 316.085 1.86371 316.417 2.05244C314.144 1.89534 312.359 1.68825 308.836 1.82082C308.138 1.84723 308.517 1.97912 306.535 1.81863C307.014 2.02848 304.531 2.12695 304.85 2.32654C305.54 2.31691 306.256 2.31086 306.925 2.29907C306.163 2.22984 306.037 2.03938 307.194 1.98286C308.671 1.91084 310.826 2.04283 310.738 1.83144C311.327 1.84137 311.875 1.84723 312.447 1.85561C312.212 1.90805 311.981 1.96082 311.75 2.01326C313.378 1.93104 314.401 1.95778 315.184 2.08997C313.244 2.1204 311.308 2.1505 309.368 2.18061C309.653 2.1896 309.943 2.19866 310.229 2.20734C308.76 2.3424 310.275 2.47032 307.535 2.4992C307.552 2.43743 307.565 2.37561 307.582 2.31354C306.585 2.47871 303.853 2.47781 304.724 2.66783C303.9 2.60946 303.731 2.57255 303.264 2.67497C301.088 2.5306 299.69 2.34803 300.465 2.13007C299.657 2.16515 298.848 2.20028 298.045 2.23535C298.512 2.29495 298.979 2.35427 299.447 2.41387C298.041 2.41015 296.625 2.40648 295.223 2.40307C295.088 2.22674 297.929 2.34958 297.109 2.19196C296.945 2.16032 296.189 2.22809 295.99 2.21027C293.894 2.01748 297.185 2.15677 296.567 2.00905C293.443 1.96341 295.943 1.71589 291.641 1.92391C291.527 1.873 291.405 1.82107 291.3 1.77047C289.806 1.76742 289.928 1.8824 288.644 1.90413C287.84 1.91765 286.831 1.71573 285.943 1.85323C285.785 1.87858 287.279 2.12537 284.14 2.11451C281.704 2.10609 282.718 1.93169 281.401 1.86989C280.084 1.80811 277.07 2.04993 276.182 1.77578C276.872 1.81209 277.751 1.83168 278.517 1.86147C278.828 1.80808 279.131 1.75526 279.439 1.70218C277.688 1.7711 275.878 1.68987 274.699 1.81716C272.363 1.62249 269.75 1.80314 270.458 2.02296C271.226 1.99127 270.39 1.89542 271.458 1.9565C271.567 2.00773 271.683 2.0587 271.792 2.10993C269.974 2.10372 268.711 2.10516 269.54 1.94899C269.258 1.94526 268.979 1.94155 268.697 1.93782C268.646 2.05084 268.601 2.16427 268.551 2.27728C268.214 2.29001 267.876 2.30264 267.539 2.31537C267.165 2.29054 266.79 2.26543 266.411 2.2403C266.92 2.06146 267.788 2.05556 264.917 1.95558C264.909 2.01737 264.896 2.07891 264.888 2.14069C262.485 2.06215 262.421 1.91248 259.404 1.91805C261.719 1.70353 262.985 2.08379 262.977 1.65347C263.558 1.68173 264.143 1.71036 264.724 1.73861C264.813 1.67621 264.9 1.61371 264.985 1.55131C261.866 1.58422 256.685 1.99464 254.597 1.7225C254.345 1.75571 254.091 1.78458 253.834 1.82027C251.789 1.65603 250.905 2.02477 248.83 1.8124C248.616 1.79011 249.064 1.44368 246.363 1.4561C246.43 1.50112 246.465 1.5769 246.52 1.6337C245.935 1.60608 245.353 1.57717 244.772 1.54892C244.667 1.59051 244.557 1.63208 244.452 1.67398C245.449 1.69012 246.444 1.70654 247.442 1.72268C246.613 1.73696 245.779 1.75125 244.95 1.76553C246.031 1.8335 246.519 1.83422 245.867 1.94313C244.928 1.94965 243.989 1.95657 243.05 1.96309C242.953 1.99099 242.857 2.01922 242.761 2.04713C243.215 2.13033 243.674 2.2117 244.129 2.29614C241.683 2.22815 239.557 2.22446 237.68 2.06086C237.36 2.03323 238.491 1.92484 236.312 2.0226C236.278 1.96519 236.22 1.91857 236.182 1.8655C233.513 2.02633 232.636 1.97832 229.854 1.8622C231.656 1.97056 230.048 1.90009 229.589 1.95815C229.275 1.99815 230.502 1.99224 230.363 2.03413C230.224 2.07573 228.63 2.24371 229.993 2.26392C233.335 1.9196 234.246 2.33126 238.539 2.16578C237.878 2.21017 237.213 2.25467 236.552 2.29907C236.863 2.32916 237.142 2.35646 237.478 2.38842C235.084 2.32106 236.248 2.36482 235.264 2.4179C234.279 2.47099 232.489 2.5161 231.29 2.53069C230.912 2.53527 231.31 2.45805 230.457 2.45086C229.877 2.44589 228.289 2.56038 227.923 2.42541C227.683 2.33755 230.233 2.09562 226.707 2.0962C226.043 2.01007 227.734 2.03682 227.77 2.02644C228.078 1.92398 225.91 1.84695 224.908 1.92519C224.827 1.93194 225.618 2.01178 224.758 2.0431C222.716 2.11793 221.537 2.02636 220.216 1.90248C220.073 2.04779 218.355 2.22132 216.216 2.16761C216.107 2.20919 216.003 2.25114 215.893 2.29303C216.225 2.27102 216.557 2.24931 216.889 2.2273C217.251 2.25338 217.635 2.27236 217.988 2.3031C215.838 2.33883 215.534 2.53908 214.503 2.61235C210.974 2.86263 213.113 2.3332 213.749 2.24194C214.208 2.27889 214.651 2.32013 215.106 2.35894C215.056 2.30834 215.004 2.25734 214.958 2.20642C209.676 2.20797 214.154 1.87791 211.472 1.78384C210.782 2.03282 208.813 2.05682 206.304 1.89882C206.027 1.90006 205.748 1.90038 205.47 1.90193C205.424 1.93824 205.424 1.99373 205.349 2.01765C202.327 2.05988 201.788 1.67643 201.502 1.64011C200.231 1.479 199.241 1.70191 198.866 1.70382C197.288 1.71159 196.829 1.61261 195.327 1.65512C193.711 1.70106 194.816 1.77701 194.324 1.84499C193.93 1.89898 192.655 1.90859 192.128 1.96455C192.338 1.91879 192.57 1.8739 192.779 1.82796C191.104 1.76557 189.735 1.70475 187.833 1.68954C185.686 2.02443 183.86 1.45952 184.601 1.91768C186.402 1.94904 187.41 2.00125 188.374 2.11799C187.191 2.13289 186.008 2.1474 184.825 2.1623C184.48 2.11201 184.235 2.06301 183.827 2.01179C182.943 2.11858 180.894 2.07275 180.09 2.10407C176.323 2.25093 177.488 2.43307 174.05 2.12696C176.528 2.09713 176.524 1.94846 178.982 1.96895C178.452 1.86277 177.203 1.88477 178.011 1.75747C175.633 1.78883 176.402 1.90248 175.476 2.00337C174.678 2.09035 173.07 2.09522 173.161 2.20825C172.997 2.14611 172.87 2.08594 172.706 2.02388C171.166 2.0245 169.626 2.02454 168.085 2.02516C168.742 1.96028 169.398 1.89528 170.055 1.83071C169.558 1.80621 169.061 1.78179 168.565 1.75729C164.777 1.9591 158.245 1.58924 159.288 2.0962C157.461 2.11234 157.233 2.04876 156.24 1.95284C156.13 1.99132 156.024 2.02334 155.915 2.06617C154.736 2.02588 153.832 2.17038 152.792 2.13282C151.753 2.09555 151.495 1.95906 151.343 2.18848C150.67 2.12267 150 2.068 149.331 2.00685C148.927 2.05897 148.524 2.11049 148.124 2.1623C147.493 2.13498 146.86 2.10777 146.229 2.08045C145.892 2.18997 143.409 2.14276 142.315 2.21631C141.276 2.09826 141.305 1.72657 138.861 1.79318C138.924 1.88536 138.986 1.97728 139.049 2.06947C138.489 2.05022 137.929 2.03104 137.365 2.01179C137.331 1.9817 137.302 1.95161 137.268 1.92153C137.554 1.93084 137.837 1.9401 138.123 1.94972C137.874 1.8988 137.631 1.84812 137.387 1.7972C136.533 1.87264 135.677 1.94808 134.819 2.02351C135.976 2.08062 137.134 2.13778 138.291 2.19489C136.839 2.26257 135.828 2.19506 134.565 2.27051C133.467 2.14323 133.872 2.0699 134.319 1.93178C133.91 1.94357 133.498 1.95496 133.089 1.96675C133.359 1.82861 132.668 1.74631 135.054 1.75747C134.89 1.71807 134.723 1.68051 134.563 1.63956C134.172 1.64577 133.918 1.61246 133.489 1.62766C132.318 1.66926 131.421 1.91189 131.501 1.99696C131.544 2.04152 132.698 1.9563 132.652 2.0193C132.538 2.17292 129.891 2.10395 133.708 2.25824C132.441 2.35604 132.159 2.28228 130.761 2.25403C130.87 2.30522 130.977 2.35609 131.082 2.40728C130.434 2.38369 129.785 2.36019 129.137 2.33661C130.038 2.07364 125.26 1.97488 129.561 1.74484C128.29 1.73304 127.024 1.72118 125.757 1.70877C126.018 1.68176 126.279 1.65503 126.54 1.62802C127.112 1.6423 127.681 1.65635 128.253 1.67032C127.58 1.62097 126.906 1.57191 126.232 1.52256C124.641 1.58372 124.018 1.67779 123.29 1.79391C125.141 1.87864 124.536 1.7629 125.979 1.73989C125.929 1.81343 125.995 1.88107 125.869 1.95833C125.124 1.80601 122.692 1.91682 122.128 1.92427C120.411 1.9469 121.757 1.79724 120.609 1.79409C119.46 1.79099 118.105 1.88006 117.166 1.73166C117.183 1.81484 117.258 1.9009 117.325 1.97664C115.536 2.00396 115.893 1.90569 115.708 1.89296C112.753 1.68371 111.15 1.86037 107.77 1.88179C108.199 1.90756 108.633 1.93082 109.066 1.95503C106.517 2.13164 108.234 2.07757 110.448 2.13593C108.373 2.11823 107.185 2.26864 105.72 2.31335C104.255 2.35798 101.743 2.28074 100.826 2.22052C102.926 2.12365 105.191 2.18753 107.523 2.16083C107.258 2.0761 107 2.00438 106.727 1.91127C105.309 2.08912 104.487 1.9702 104.02 1.94661C102.648 1.87741 102.691 2.03006 101.862 1.86586C101.895 1.92235 101.92 1.96984 101.954 2.0226C99.1211 1.999 96.0657 1.89914 94.222 2.10774C94.0537 1.97207 93.9266 1.84137 93.733 1.70291C92.5336 1.80503 91.5064 1.70045 90.4963 1.72433C89.4904 1.74824 89.8733 1.85788 88.6907 1.9001C88.4718 1.90787 88.016 1.83924 87.4772 1.88985C86.9332 1.94073 84.9268 2.319 84.6869 1.98854C83.6725 1.98699 82.7126 1.9749 81.7193 1.96931C82.6873 1.95069 83.6558 1.93265 84.6196 1.91402C83.7947 1.83393 82.9749 1.75407 82.15 1.67398C82.0448 1.74539 81.9392 1.81809 81.8382 1.88857C79.6158 1.9755 78.003 1.85875 75.7596 1.88637C75.385 1.89103 76.2687 2.03221 74.6067 1.99623C72.9441 1.96022 71.7103 1.6967 68.8779 1.79849C68.7348 1.80376 67.8961 2.00558 66.8816 1.86586C66.6508 1.8342 67.6224 1.78734 67.0925 1.74575C66.5621 1.70415 64.1957 1.66994 64.0105 1.5709C64.0358 1.60597 64.1834 1.64231 64.255 1.67801C63.8511 1.69477 63.443 1.71154 63.0348 1.72799C62.9969 1.66622 62.9561 1.60435 62.9182 1.54288C60.5948 1.68663 59.3941 1.92111 55.9513 1.84353C56.9193 1.93325 57.8877 2.02333 58.8516 2.11304C59.1167 2.05002 59.3824 1.98657 59.6434 1.92354C61.23 1.94868 62.821 1.97365 64.4076 1.99879C64.6685 1.92707 64.9249 1.85556 65.1859 1.78384C65.6067 1.79315 66.0234 1.80217 66.4442 1.81149C66.339 1.86333 66.2329 1.9149 66.1235 1.96675C66.9567 1.95402 67.791 1.94103 68.62 1.9283C66.9322 2.23434 63.9067 1.90227 64.1249 2.15827C63.7505 2.11855 63.3756 2.07855 63.0012 2.03852C62.837 2.16266 62.0756 2.12693 60.7335 2.10737C61.0407 2.16853 61.3801 2.22886 61.6621 2.29065C60.3572 2.20435 58.0426 2.21273 56.6915 2.17951C56.0981 2.16492 56.6908 2.07492 56.5143 2.06434C55.6093 2.00908 53.8796 2.16611 53.5176 2.15369C51.3542 2.07979 49.9483 1.78207 47.587 1.97829C50.0242 2.02672 48.6983 2.00626 49.5654 2.11524C49.8368 2.14941 52.9853 2.22069 49.0427 2.18903C48.5805 2.18507 41.4268 1.97937 43.7783 1.82174C42.6208 1.87204 41.7145 1.93019 40.6538 1.9836C38.0609 1.56818 38.9583 1.95843 39.7117 2.17328C39.2866 2.17421 38.8822 2.1764 38.4444 2.1764C39.3746 1.95068 34.6354 1.93666 33.0275 2.05061C32.4887 2.08849 33.9952 2.16074 32.7493 2.19489C32.1561 2.17906 31.4831 2.15856 30.8562 2.14088C31.7653 2.28368 29.9811 2.33872 30.0061 2.484C28.8655 2.35454 27.993 2.08014 28.6199 1.93141C27.6772 1.99163 26.7296 2.05178 25.7869 2.11231C26.2247 2.14677 26.6681 2.18093 27.1058 2.2154C24.0247 2.12412 20.063 2.33182 19.4189 2.02662C19.0107 2.0288 18.598 2.03068 18.1898 2.03285C18.0635 2.08439 17.9415 2.13603 17.8152 2.18757C15.9678 2.14287 14.1245 2.09787 12.2771 2.05317C13.9221 2.02119 14.3136 1.94783 16.0387 2.0074C15.3739 1.94812 14.6968 1.88852 14.0446 1.82925C11.4476 1.98883 11.0933 2.09371 7.18317 2.04621C7.00639 2.04404 4.05198 1.91021 3.95096 1.89717C3.48814 1.83757 4.19068 1.75097 3.9846 1.72085C3.41215 1.6364 -0.0663825 1.42436 0.000964955 1.39238C0.851237 0.999934 12.5548 0.994733 15.7202 0.974552C48.5517 0.765301 80.6603 1.04525 113.286 0.997439C113.621 0.996699 113.475 0.938766 113.618 0.936284C114.506 0.921734 115.378 1.01202 115.706 1.01575C116.407 1.02343 116.021 0.940006 116.534 0.939946C121.829 0.940878 126.825 0.989931 132.125 0.97565C132.47 0.974719 132.118 1.04146 132.724 1.02966C133.037 1.0232 134.016 0.920807 134.722 0.919256C137.189 0.913981 139.261 0.946809 141.862 0.945256C143.285 0.944329 145.419 0.953033 147.01 0.951481C147.712 0.950822 148.444 0.903977 149.138 0.902412C150.123 0.900238 149.922 0.995201 150.074 1.0011C150.739 1.02686 150.831 0.922635 151.462 0.925116C152.636 0.930083 152.7 0.999673 154.19 0.993777C155.255 0.98943 157.692 0.934486 159.035 0.918341C162.175 0.999057 166.131 0.967013 169.061 0.940313C170.795 0.924485 170.956 1.02192 171.663 1.02161C174.154 1.01972 176.045 0.895279 178.385 0.891243C181.491 0.885985 184.243 0.96827 187.252 0.974185C187.74 0.975116 187.628 0.885843 188.107 0.883553C189.879 0.87517 192.145 0.858922 193.723 0.871651C195.482 0.885641 196.131 1.01522 197.853 0.988833C198.357 0.980998 198.505 0.86738 199.351 0.852792C200.702 0.829853 202.183 0.930045 203.126 0.941228C204.418 0.956131 203.294 0.840381 205.037 0.855905C205.109 0.856575 205.369 0.939317 205.744 0.935369C206.834 0.924192 206.726 0.859033 208.321 0.865243C208.474 0.866101 210.589 0.94494 210.799 0.945256C212.037 0.946498 214.528 0.9741 215.261 0.957341C217.879 0.897729 215.818 0.77328 218.044 1.0434C219.025 0.977282 219.997 0.91027 221.037 0.846018C220.343 0.905939 223.158 0.992407 223.356 0.986819C224.992 0.941789 224.018 0.83669 226.092 0.854074C223.352 1.09687 228.769 0.885368 229.977 0.879158C235.794 0.849051 241.082 0.90964 246.928 0.908088C248.885 0.907452 251.508 0.856128 253.579 0.85737C254.061 0.857444 253.697 0.914903 254.121 0.916144C254.545 0.916995 254.075 0.852492 254.559 0.855905C257.568 0.878267 259.926 0.999976 262.683 0.847849C262.817 0.869844 262.813 0.887224 263.035 0.911383C265.291 0.775097 269.636 0.958375 271.27 0.983523C273.824 1.02262 274.476 0.930499 276.332 0.949101C278.786 0.973939 282.47 1.15391 280.825 0.856821C282.508 0.84751 284.129 0.844939 285.829 0.872567C286.018 0.875699 285.888 0.951211 285.964 0.952763C286.443 0.963604 286.6 0.895995 286.924 0.892891C287.802 0.88454 286.368 0.965492 287.621 0.942876C288.282 0.930768 288.657 0.871799 290.492 0.870553C301.554 0.864033 313.563 0.885152 324.903 0.895088C325.682 0.895709 325.169 0.822685 326.145 0.827342C329.538 0.843502 335.611 0.966395 338.536 0.94965C341.461 0.932886 340.801 0.826099 342.632 0.781385C342.985 0.772692 342.695 0.833551 343.015 0.834483C345.166 0.840076 347.73 0.935003 349.473 0.949284C350.625 0.958854 350.533 0.86311 351.333 0.856271C352.524 0.846336 353.75 0.943067 354.385 0.946172C357.373 0.959811 359.428 0.8819 362.218 0.921637C362.109 0.900566 362.037 0.88106 361.944 0.860299C365.248 0.863714 368.548 0.867138 371.852 0.870553C371.696 0.851303 371.546 0.831888 371.39 0.812328C375.266 0.822892 374.824 1.03152 374.483 0.590965C374.765 0.575444 375.064 0.557454 375.333 0.543176C375.224 0.77012 377.569 0.9362 380.553 0.99396C380.771 0.998307 382.24 0.77703 382.08 1.03845C382.463 0.974496 382.691 0.930409 383.015 0.874215C383.647 0.953362 384.286 1.03157 384.918 1.11041C385.258 1.09861 385.604 1.08723 385.945 1.07544C385.995 1.02421 385.957 0.971019 386.066 0.920721C387.648 0.91296 390.894 0.976292 392.145 0.969791C395.251 0.953336 398.414 0.814831 400.83 0.964481C402.007 0.949224 400.838 0.848677 402.588 0.861398C402.786 0.912304 402.972 0.961095 403.178 1.01355C404.609 0.786104 404.908 0.924466 406.868 0.971988C408.194 1.00427 409.062 0.948685 410.324 0.959538C410.644 0.962332 410.599 1.02909 410.818 1.02692C411.551 1.02003 413.642 0.928148 414.16 0.925665C418.849 0.901453 422.877 0.911759 427.342 0.936284C427.822 0.938768 427.2 0.872885 427.697 0.87568C428.496 0.880066 428.026 0.981303 428.489 0.98627C429.78 0.999554 429.79 0.892802 431.591 0.887215C437.521 0.868908 444.34 0.949101 450.535 0.956242C450.729 0.956242 450.717 0.893695 450.928 0.893074C452.3 0.890015 453.688 0.974564 454.934 0.973636C457.001 0.972394 458.554 0.884524 460.595 0.884834C464.586 0.885145 468.151 0.930137 472.255 0.932623C475.614 0.934796 478.531 0.926453 482.214 0.926763C498.301 0.928005 514.718 0.72947 530.915 0.835032C531.327 0.837824 531.159 0.893087 531.285 0.890693C532.48 0.866788 532.587 0.792224 533.012 0.948369C534.535 0.917595 535.015 0.800285 536.854 0.808666C537.834 0.81306 537.103 0.994882 538.761 0.90113C540.258 0.816378 538.606 0.716732 543.058 0.818553C543.176 0.821352 543.757 0.93218 544.682 0.903327C545.613 0.874763 544.536 0.795404 546.775 0.771498C552.032 0.715618 558.687 0.811418 564.798 0.781934C565.181 0.780071 568.87 0.720821 569.598 0.693499C571.007 0.640409 570.713 0.558051 572.543 0.537867C573.957 0.522343 575.124 0.615635 576.787 0.597007C576.981 0.594743 577.305 0.49878 578.555 0.511501ZM268.701 2.37542C268.356 2.46958 267.733 2.81614 265.646 2.71067C265.448 2.70074 266.516 2.46241 265.364 2.42449C266.492 2.39934 267.59 2.3912 268.701 2.37506C268.701 2.37518 268.701 2.3753 268.701 2.37542ZM587.601 2.72129C586.039 2.7039 584.472 2.68668 582.911 2.66929C583.988 2.62738 585.067 2.58555 586.141 2.54332C586.629 2.60261 587.113 2.662 587.601 2.72129ZM393.206 2.55669C393.207 2.55669 393.209 2.55669 393.21 2.55669C391.568 2.6014 389.926 2.64619 388.284 2.6909C388.457 2.65799 388.63 2.62494 388.802 2.59203C390.099 2.54019 391.396 2.48842 392.687 2.43658C392.86 2.47662 393.033 2.51665 393.206 2.55669ZM406.175 2.20825C407.223 2.24738 406.966 2.31335 407.543 2.37762C407.543 2.3775 407.543 2.37738 407.543 2.37725C407.695 2.39398 408.404 2.40862 408.678 2.41113C408.577 2.36983 408.447 2.32907 408.337 2.28809C410.783 2.18811 415.565 2.54337 409.373 2.6865C409.466 2.63435 409.554 2.58247 409.647 2.53032C406.57 2.54491 403.14 2.4318 406.175 2.20825ZM243.961 2.52556C241.334 2.69632 240.492 2.73233 237.305 2.61528C237.756 2.56688 238.206 2.51848 238.656 2.47008C239.182 2.51945 239.704 2.56848 240.23 2.61784C240.232 2.61784 240.233 2.61784 240.235 2.61784C240.34 2.56599 240.446 2.51406 240.547 2.46221C241.683 2.48332 242.824 2.50445 243.961 2.52556ZM506.717 2.33166C507.449 2.67271 507.238 2.47447 505.147 2.55138C504.423 2.57808 505.128 2.63775 504.678 2.64769C502.246 2.70195 502.051 2.47345 502.594 2.35455C503.971 2.34648 505.361 2.33911 506.712 2.33166C506.714 2.33166 506.715 2.33166 506.717 2.33166ZM569.82 2.2608C569.822 2.2608 569.823 2.2608 569.825 2.2608C569.888 2.34399 568.907 2.36637 570.013 2.44518C569.172 2.44487 568.331 2.44421 567.485 2.4439C567.733 2.43615 567.986 2.42876 568.234 2.42101C568.015 2.39245 567.796 2.36352 567.577 2.33496C567.278 2.43058 567.001 2.37499 566.117 2.34301C566.361 2.44516 566.604 2.54737 566.848 2.64952C565.821 2.6191 564.791 2.58857 563.764 2.55815C563.751 2.53241 563.739 2.50663 563.726 2.48089C563.339 2.51378 562.956 2.54704 562.568 2.57994C562.463 2.54921 562.362 2.51876 562.257 2.48803C561.79 2.5113 561.322 2.53456 560.855 2.55815C560.713 2.48371 561.742 2.45154 559.917 2.47045C560.477 2.39408 561.035 2.31795 561.599 2.24158C564.34 2.24779 567.08 2.25428 569.82 2.2608ZM487.694 2.43658C490.711 2.4223 489.862 2.47625 489.163 2.64512C488.675 2.5756 488.182 2.5061 487.694 2.43658ZM332.211 2.28625C331.335 2.40144 330.456 2.51548 329.559 2.62663C327.775 2.6909 325.989 2.48095 327.332 2.39868C328.948 2.29995 330.636 2.41044 332.211 2.28625ZM291.562 2.33752C293.746 2.39093 291.691 2.5278 291.199 2.60759C290.595 2.47936 289.753 2.49067 288.4 2.47576C289.67 2.46745 291.201 2.32845 291.562 2.33715C291.562 2.33728 291.562 2.3374 291.562 2.33752ZM367.35 2.4157C368.225 2.41226 369.095 2.38009 369.878 2.41918C369.642 2.52933 368.077 2.42912 369.196 2.59239C368.636 2.59518 368.076 2.59789 367.521 2.601C367.874 2.53335 367.399 2.48279 367.352 2.41607C367.352 2.41595 367.351 2.41583 367.35 2.4157ZM458.453 2.56639C456.736 2.43599 456.411 2.49179 454.681 2.58214C454.437 2.47597 456.499 2.29812 457.792 2.25897C458.011 2.36142 458.23 2.46394 458.453 2.56639ZM52.2458 2.51201C52.6582 2.37668 55.7003 2.35903 57.2119 2.39904C57.0319 2.41911 56.8513 2.43945 56.6713 2.45983C55.1981 2.47722 53.719 2.49463 52.2458 2.51201ZM287.756 2.4666C287.982 2.47057 288.197 2.47353 288.4 2.47576C288.174 2.47723 287.957 2.47493 287.756 2.4666ZM196.321 1.87923C197.04 1.75164 194.901 1.70877 197.498 1.75875C197.498 1.75863 197.498 1.75851 197.498 1.75839C199.216 1.7913 199.595 1.80009 201.186 1.81002C200.613 1.97393 197.385 2.03252 201.834 2.06636C201.893 2.06651 201.776 1.96897 202.487 1.98231C202.706 1.98646 203.408 2.06651 204.476 2.08979C204.821 2.09724 207.415 2.12193 203.88 2.12348C203.985 2.23774 203.795 2.35338 203.803 2.46422C202.423 2.49644 201.363 2.27271 199.903 2.2782C197.735 2.28689 196.632 2.51313 196.215 2.21631C198.038 2.14339 201.168 2.14163 201.576 2.32013C203.339 2.3223 203.846 2.17606 202.424 2.10371C196.333 2.19561 200.752 1.88663 195.419 2.00337C195.356 2.04465 195.136 2.08908 195.17 2.12788C193.542 1.98261 196.064 1.92487 196.321 1.87923ZM209.057 2.19489C208.004 2.28213 206.955 2.37008 205.907 2.45763C205.907 2.31544 206.485 2.18784 208.144 2.10774C208.447 2.1369 208.754 2.16604 209.057 2.19489ZM120.537 2.23224C120.386 2.30955 119.982 2.38039 119.687 2.45397C119.367 2.38877 111.791 2.32622 115.645 2.26227C116.205 2.25295 119.62 2.38965 120.537 2.23224ZM470.377 2.44994C469.485 2.39809 468.596 2.34616 467.708 2.29431C469.075 2.26142 470.444 2.22767 471.811 2.19416C471.332 2.2794 470.856 2.3647 470.377 2.44994ZM317.685 2.15058C318.062 2.15348 316.81 2.2598 318.295 2.24304C317.188 2.31104 316.151 2.36859 315.069 2.43255C314.745 2.38225 314.418 2.33216 314.094 2.28186C313.841 2.31415 313.584 2.34624 313.331 2.37853C313.482 2.30526 313.617 2.2337 313.777 2.15919C315.6 2.31629 316.018 2.13816 317.685 2.15058ZM371.879 1.86403C372.207 2.02328 369.567 2.11798 372.164 2.14344C371.671 2.24806 370.879 2.30294 369.36 2.31225C369.116 2.27224 368.873 2.23252 368.629 2.19251C368.595 2.29958 368.204 2.33938 367.35 2.4157C367.349 2.41558 367.349 2.41546 367.348 2.41534C365.038 2.42309 365.176 2.38739 364.62 2.21137C367.066 2.31072 367.139 2.1499 368.806 2.05427C369.951 1.98851 371.445 2.01829 371.879 1.86403ZM128.61 2.23041C126.881 2.36483 128.433 2.49022 125.364 2.34741C125.562 2.31326 125.761 2.27939 125.959 2.24524C126.843 2.23996 127.726 2.23507 128.61 2.23041ZM380.414 2.40984C380.216 2.16334 378.588 1.97146 378.31 2.37249C379.896 2.45415 379.121 2.22698 380.414 2.40984ZM292.307 1.95155C295.358 1.96306 294.781 2.24128 293.527 2.38037C293.334 2.32976 293.14 2.27906 292.951 2.22876C292.416 2.25174 291.882 2.27476 291.347 2.29742C291.667 2.18224 291.987 2.06674 292.307 1.95155ZM434.208 2.13904C431.876 2.31509 436.726 2.23695 435.097 2.34686C433.796 2.43471 432.082 2.25733 432.73 2.14619C433.18 2.14308 433.682 2.14091 434.204 2.13904C434.205 2.13904 434.207 2.13904 434.208 2.13904ZM420.714 2.1894C421.097 2.37748 420.545 2.32266 422.388 2.28882C422.914 2.27919 427.095 2.34983 425.339 2.19397C423.845 2.19397 422.267 2.19126 420.714 2.1894ZM257.035 2.22675C257.007 2.14484 260.227 1.96498 260.64 2.00996C260.64 2.00984 260.64 2.00972 260.64 2.0096C261.755 2.13223 258.359 2.14966 259.832 2.31793C256.57 2.16986 255.594 2.52802 255.822 2.0561C257.743 2.0354 256.833 2.13268 257.035 2.22675ZM12.3018 2.12641C12.3003 2.12641 12.2988 2.12641 12.2973 2.12641C12.5135 2.13026 14.2949 2.25047 14.0783 2.29211C11.936 2.25641 12.3178 2.17728 10.3234 2.30731C10.2141 2.26543 10.1204 2.22481 10.0027 2.18262C10.794 2.15778 11.2326 2.10747 12.3018 2.12641ZM112.346 2.06709C113.133 2.04566 114.569 2.13444 115.466 2.12916C112.612 2.47006 109.202 2.15217 112.346 2.06709ZM540.306 2.27252C540.304 2.27264 540.302 2.27277 540.3 2.27289C540.3 2.2727 540.301 2.27252 540.302 2.27234C540.303 2.2724 540.305 2.27246 540.306 2.27252ZM173.341 2.27161C173.239 2.24948 173.182 2.23025 173.161 2.21338C173.161 2.21179 173.161 2.21021 173.161 2.20862C173.216 2.22934 173.275 2.2503 173.341 2.27161ZM250.344 2.25147C249.003 2.13723 253.471 1.95563 254.916 1.99898C254.815 2.05111 254.799 2.09838 254.563 2.15827C253.397 2.02325 250.567 2.27071 250.344 2.25147ZM352.201 2.20954C348.669 2.20643 353.265 1.7554 353.454 2.11524C353.447 2.12221 352.292 2.20892 352.201 2.20954ZM278.194 2.20423C279.093 2.06767 277.285 2.03141 280.177 2.055C280.345 2.09037 280.513 2.12583 280.681 2.1612C279.852 2.17548 279.023 2.18995 278.194 2.20423ZM329.066 1.6174C324.621 1.69347 320.37 1.82766 323.265 2.20423C323.602 2.19213 323.943 2.18044 324.279 2.16834C324.33 1.98462 325.571 2.08491 327.388 2.09089C327.647 2.01795 328.655 2.00109 328.844 1.9391C329.209 1.81929 328.052 1.73505 329.066 1.6174ZM516.716 1.9164C516.645 1.94776 516.575 1.97928 516.503 2.01033C515.8 2.04572 515.095 2.08095 514.392 2.11634C514.506 2.05616 514.62 1.99599 514.733 1.93581C515.394 1.92929 516.051 1.92273 516.712 1.91622C516.713 1.91628 516.715 1.91634 516.716 1.9164ZM213.388 1.80727C212.984 2.15243 214.395 2.08886 217.257 1.91439C215.969 1.87868 214.676 1.84298 213.388 1.80727ZM400.489 1.75729C400.581 1.85535 400.672 1.9531 400.769 2.05116C402.289 1.94901 402.006 1.83672 401.278 1.70694C401.013 1.72369 400.754 1.74054 400.489 1.75729ZM422.376 1.71554C421.746 1.69509 422.068 1.77426 422.002 1.77267C420.406 1.73106 420.182 1.69475 418.224 1.75436C417.985 1.77516 417.749 1.79703 417.509 1.81844C418.414 2.02391 419.071 1.91193 420.986 2.03267C420.64 1.96219 420.297 1.89161 419.952 1.82082C421.016 1.83572 422.076 1.85042 423.141 1.86532C423.267 1.84358 423.394 1.82205 423.52 1.80032C423.142 1.77238 422.751 1.74099 422.376 1.71554ZM524.845 2.00557C525.88 2.01364 526.921 2.02203 527.956 2.0301C527.994 1.9795 528.03 1.92855 528.068 1.87795C526.995 1.92047 525.918 1.96304 524.845 2.00557ZM192.128 1.96455C192.046 1.9825 191.966 2.00057 191.895 2.01893C191.902 1.99655 191.992 1.97907 192.128 1.96455ZM9.56977 1.84884C8.3956 1.81345 6.70359 1.83668 5.41566 1.82925C5.51691 1.9562 8.79038 1.9211 9.93987 1.99806C10.1246 1.97528 10.0661 1.86373 9.56977 1.84884ZM296.528 1.96272C296.823 1.89939 297.117 1.83636 297.408 1.77303C298.119 1.77987 298.832 1.78708 299.547 1.79391C299.569 1.74206 299.589 1.68976 299.61 1.63791C296.458 1.70527 297.185 1.55576 295.624 1.40831C295.927 1.59301 296.225 1.77771 296.528 1.96272ZM557.791 1.67673C555.514 1.71181 554.706 1.77734 555.99 1.93288C556.793 1.89719 557.602 1.86146 558.405 1.82577C558.199 1.7761 557.993 1.72639 557.791 1.67673ZM150.657 1.84737C148.751 1.90549 148.72 1.69674 146.857 1.81332C147.855 1.85181 148.852 1.89073 149.845 1.92922C150.113 1.902 150.388 1.87459 150.657 1.84737ZM244.115 1.2741C243.311 1.20148 241.809 1.54667 239.548 1.29186C239.01 1.36791 238.672 1.44055 238.209 1.51505C237.94 1.43402 237.634 1.35195 237.377 1.27153C237.376 1.27153 237.374 1.27153 237.373 1.27153C235.323 1.29886 236.652 1.40049 236.606 1.48649C236.584 1.52214 235.063 1.46254 235.538 1.54014C236.359 1.67333 239.426 1.59674 239.434 1.75912C238.357 1.70605 236.252 1.7504 236.875 1.85872C237.557 1.97763 239.54 1.77836 240.802 1.87703C238.993 1.61751 242.73 1.69767 243.155 1.89699C245.348 1.74393 243.333 1.68149 241.085 1.68863C242.457 1.53588 240.437 1.6184 240.105 1.49143C241.52 1.41479 246.375 1.47868 244.115 1.2741ZM347.578 1.55552C346.062 1.56537 343.694 1.47806 342.656 1.60697C342.052 1.68207 344.425 1.74023 342.789 1.85817C344.266 1.84668 344.602 1.8006 344.35 1.69723C344.687 1.68482 345.027 1.67272 345.364 1.66061C345.519 1.68078 345.679 1.70068 345.835 1.72085C346.012 1.67832 346.189 1.63613 346.362 1.5936C346.719 1.60198 347.081 1.61036 347.439 1.61905C347.481 1.59767 347.552 1.57905 347.578 1.55552ZM95.9424 1.85378C96.3632 1.85254 96.78 1.8513 97.2008 1.84975C97.1544 1.82458 97.0992 1.79836 97.046 1.77249C97.0079 1.75204 96.9698 1.73159 96.9316 1.71115C97.1755 1.7842 99.1803 1.90561 100.025 1.8276C100.449 1.78846 99.4832 1.64953 101.283 1.62528C99.9786 1.63242 98.7703 1.65138 97.5036 1.66318C97.6172 1.62188 97.7264 1.58015 97.84 1.53885C97.8393 1.53879 97.8385 1.53873 97.8378 1.53867C97.417 1.52936 96.9913 1.5196 96.5705 1.51029C96.36 1.62486 96.1529 1.73921 95.9424 1.85378ZM399.255 1.56339C397.82 1.64442 397.339 1.68651 398.017 1.81753C398.018 1.81759 398.02 1.81765 398.021 1.81771C398.556 1.75966 399.091 1.70163 399.625 1.64359C399.503 1.61688 399.381 1.59009 399.255 1.56339ZM179.765 1.53208C176.713 2.02976 183.585 1.72467 182.277 1.55515C182.218 1.54739 180.051 1.58703 179.765 1.53208ZM291.746 1.79849C292.584 1.79445 293.423 1.7908 294.265 1.78677C294.072 1.7256 293.873 1.66465 293.68 1.60349C293.036 1.66838 292.39 1.7336 291.746 1.79849ZM547.877 1.45079C546.995 1.31417 544.732 1.26468 543.626 1.41325C544.207 1.43064 544.788 1.44805 545.369 1.46543C544.271 1.4825 543.185 1.50129 542.078 1.51743C542.019 1.70776 543.295 1.59734 545.214 1.64981C545.511 1.65827 547.411 1.89452 548.067 1.71646C548.199 1.67986 546.178 1.65497 547.583 1.54856C546.968 1.54018 546.438 1.54204 545.858 1.53739C545.816 1.49206 545.774 1.44668 545.728 1.40135C546.446 1.41776 547.159 1.43437 547.877 1.45079ZM338.754 1.57035C336.672 1.55984 336.415 1.63589 335.981 1.77029C336.949 1.75508 337.918 1.74009 338.886 1.72488C338.84 1.67348 338.8 1.62206 338.754 1.57035ZM529.268 1.40721C528.129 1.38523 528.617 1.49462 528.158 1.51542C526.424 1.59365 525.241 1.51546 523.528 1.56449C523.642 1.54338 523.746 1.52364 523.856 1.50315C523.854 1.50315 523.853 1.50315 523.851 1.50315C515.741 1.41095 520.001 1.65905 524.854 1.61868C524.968 1.65936 525.077 1.70008 525.19 1.74044C527.362 1.66935 529.365 1.60094 529.268 1.40721ZM206.876 1.51505C206.784 1.48959 207.571 1.3278 206.094 1.40355C204.924 1.63977 206.842 1.52252 207.323 1.61337C206.923 1.63604 206.514 1.65809 206.118 1.68075C208.509 1.74751 208.858 1.69134 207.987 1.51871C207.924 1.50711 206.969 1.54043 206.876 1.51505ZM191.164 1.3986C190.836 1.74665 193.853 1.59014 193.743 1.48209C193.327 1.47779 193.003 1.53672 192.561 1.51066C192.115 1.48458 192.001 1.40328 191.164 1.3986ZM277.608 1.48374C277.52 1.48219 276.632 1.33591 276.72 1.45042C277.819 1.72147 280.032 1.547 279.645 1.45262C278.913 1.45728 278.425 1.49796 277.608 1.48338C277.608 1.4835 277.608 1.48362 277.608 1.48374ZM561.608 1.36876C561.566 1.35905 559.351 1.30025 559.065 1.35484C558.829 1.41631 558.712 1.48218 558.535 1.54581C559.756 1.48682 562.227 1.53176 561.604 1.36876C561.605 1.36876 561.607 1.36876 561.608 1.36876Z" fill="#3F3F3F"/>
</svg>
